<?xml version="1.0" encoding="utf-8"?>
<!-- Generator: Adobe Illustrator 13.0.0, SVG Export Plug-In . SVG Version: 6.00 Build 14948)  -->
<!DOCTYPE svg PUBLIC "-//W3C//DTD SVG 1.1//EN" "http://www.w3.org/Graphics/SVG/1.1/DTD/svg11.dtd">
<svg version="1.1" id="Layer_1" xmlns="http://www.w3.org/2000/svg" xmlns:xlink="http://www.w3.org/1999/xlink" x="0px" y="0px"
	 width="1200px" height="400px" viewBox="0 0 1200 400" enable-background="new 0 0 1200 400" xml:space="preserve">
<rect fill="none" width="1200" height="400"/>
<g>
	<path fill="#CCCCCC" d="M306.517,165.561c-1.775,0-3.394,0.67-4.622,1.766c-1.848-3.422-5.462-5.749-9.626-5.749
		c-2.287,0-4.409,0.708-6.163,1.907c-3.055-5.044-8.597-8.409-14.922-8.409c-5.636,0-10.645,2.671-13.832,6.82
		c-0.826-0.201-1.685-0.318-2.566-0.318c-6.039,0-10.936,4.898-10.936,10.936h69.623
		C313.468,168.674,310.355,165.561,306.517,165.561z"/>
	<path fill="#CCCCCC" d="M457.346,129.75c-1.951,0-3.726,0.742-5.074,1.942c-2.023-3.753-6-6.31-10.565-6.31
		c-2.511,0-4.838,0.772-6.769,2.091c-3.354-5.537-9.437-9.236-16.383-9.236c-6.185,0-11.684,2.94-15.183,7.49
		c-0.905-0.22-1.849-0.347-2.82-0.347c-6.629,0-12,5.371-12,12h76.427C464.976,133.165,461.558,129.75,457.346,129.75z"/>
	<path fill="#CCCCCC" d="M274.953,131.324c-2.438,0-4.653,0.925-6.342,2.429c-2.53-4.697-7.495-7.889-13.202-7.889
		c-3.14,0-6.049,0.965-8.455,2.617c-4.193-6.916-11.791-11.542-20.47-11.542c-7.729,0-14.597,3.669-18.971,9.36
		c-1.132-0.276-2.309-0.437-3.525-0.437c-8.282,0-14.994,6.718-14.994,14.995h95.493
		C284.488,135.594,280.218,131.324,274.953,131.324z"/>
	<path fill="#CCCCCC" d="M550.874,160.606c-1.646,0-3.138,0.619-4.272,1.638c-1.705-3.163-5.052-5.322-8.897-5.322
		c-2.114,0-4.078,0.651-5.7,1.767c-2.827-4.664-7.951-7.781-13.798-7.781c-5.21,0-9.841,2.475-12.787,6.31
		c-0.764-0.188-1.556-0.295-2.375-0.295c-5.583,0-10.104,4.529-10.104,10.112h64.373
		C557.303,163.484,554.425,160.606,550.874,160.606z"/>
	<path fill="#CCCCCC" d="M892.432,165.561c1.775,0,3.395,0.67,4.621,1.766c1.854-3.422,5.464-5.749,9.633-5.749
		c2.285,0,4.406,0.708,6.16,1.907c3.062-5.044,8.603-8.409,14.928-8.409c5.64,0,10.646,2.671,13.83,6.82
		c0.824-0.201,1.688-0.318,2.566-0.318c6.041,0,10.938,4.898,10.938,10.936h-69.625C885.479,168.674,888.59,165.561,892.432,165.561
		z"/>
	<path fill="#CCCCCC" d="M741.602,129.75c1.95,0,3.729,0.742,5.074,1.942c2.026-3.753,5.998-6.31,10.564-6.31
		c2.516,0,4.844,0.772,6.768,2.091c3.354-5.537,9.439-9.236,16.381-9.236c6.188,0,11.688,2.94,15.188,7.49
		c0.905-0.22,1.85-0.347,2.813-0.347c6.629,0,12.002,5.371,12.002,12h-76.43C733.971,133.165,737.388,129.75,741.602,129.75z"/>
	<path fill="#CCCCCC" d="M923.991,131.324c2.438,0,4.646,0.925,6.343,2.429c2.533-4.697,7.495-7.889,13.204-7.889
		c3.142,0,6.053,0.965,8.454,2.617c4.188-6.916,11.791-11.542,20.469-11.542c7.729,0,14.597,3.669,18.968,9.36
		c1.134-0.276,2.313-0.437,3.526-0.437c8.28,0,14.991,6.718,14.991,14.995h-95.489C914.457,135.594,918.729,131.324,923.991,131.324
		z"/>
	<path fill="#CCCCCC" d="M648.074,160.606c1.643,0,3.136,0.619,4.271,1.638c1.706-3.163,5.05-5.322,8.896-5.322
		c2.109,0,4.075,0.651,5.698,1.767c2.822-4.664,7.945-7.781,13.802-7.781c5.207,0,9.839,2.475,12.787,6.31
		c0.76-0.188,1.552-0.295,2.372-0.295c5.583,0,10.104,4.529,10.104,10.112h-64.363C641.646,163.484,644.523,160.606,648.074,160.606
		z"/>
	<line fill="none" x1="316.091" y1="280.684" x2="316.091" y2="272.46"/>
	<line fill="none" x1="316.091" y1="293.018" x2="316.091" y2="284.794"/>
	<line fill="none" x1="316.091" y1="305.352" x2="316.091" y2="297.128"/>
	<line fill="none" x1="316.091" y1="317.684" x2="316.091" y2="309.461"/>
	<line fill="none" x1="316.091" y1="330.018" x2="316.091" y2="321.795"/>
	<line fill="none" x1="316.091" y1="342.352" x2="316.091" y2="334.129"/>
	<line fill="none" x1="316.091" y1="354.686" x2="316.091" y2="346.463"/>
	<line fill="none" x1="316.091" y1="367.02" x2="316.091" y2="358.796"/>
	<line fill="none" x1="316.091" y1="379.354" x2="316.091" y2="371.13"/>
	<polygon fill="#283C8F" points="181.517,350.813 181.517,301.779 172.686,301.779 172.686,243.311 156.393,243.311 
		156.393,228.691 147.512,228.691 142.536,190.625 141.927,190.625 136.951,228.691 128.071,228.691 128.071,243.311 
		111.778,243.311 111.778,301.779 102.946,301.779 102.946,350.813 95.942,350.813 95.942,383.616 188.521,383.616 188.521,350.813 
			"/>
	<g>
		<rect x="126.365" y="248.184" fill="#FFFFFF" width="10.963" height="11.271"/>
		<rect x="146.16" y="248.184" fill="#FFFFFF" width="10.963" height="11.271"/>
		<rect x="126.365" y="267.063" fill="#FFFFFF" width="10.963" height="11.271"/>
		<rect x="146.16" y="267.063" fill="#FFFFFF" width="10.963" height="11.271"/>
		<rect x="126.365" y="285.945" fill="#FFFFFF" width="10.963" height="11.268"/>
		<rect x="114.489" y="308.023" fill="#FFFFFF" width="10.964" height="11.269"/>
		<rect x="135.806" y="308.023" fill="#FFFFFF" width="10.963" height="11.269"/>
		<rect x="157.124" y="308.023" fill="#FFFFFF" width="10.963" height="11.269"/>
		<rect x="114.489" y="328.732" fill="#FFFFFF" width="10.964" height="11.268"/>
		<rect x="135.806" y="328.732" fill="#FFFFFF" width="10.963" height="11.268"/>
		<rect x="157.124" y="328.732" fill="#FFFFFF" width="10.963" height="11.268"/>
		<rect x="146.16" y="285.945" fill="#FFFFFF" width="10.963" height="11.268"/>
	</g>
	<line fill="none" x1="95.942" y1="383.616" x2="188.521" y2="383.616"/>
	<g>
		<polygon fill="#2C2C2C" points="268.447,252.475 265.643,245.465 261.5,245.465 261.5,240.324 268.447,240.324 265.643,233.314 
			261.5,233.314 261.5,224.907 187.389,224.907 187.389,378.711 185.698,378.711 185.698,383.449 263.869,383.449 263.869,378.711 
			261.5,378.711 261.5,301.076 268.447,301.076 265.643,294.064 261.5,294.064 261.5,288.927 268.447,288.927 265.643,281.916 
			261.5,281.916 261.5,276.775 268.447,276.775 265.643,269.766 261.5,269.766 261.5,264.625 268.447,264.625 265.643,257.614 
			261.5,257.614 261.5,252.475 		"/>
		<rect x="223.937" y="230.998" fill="#FFFFFF" width="30.965" height="11.695"/>
		<rect x="223.937" y="246.415" fill="#FFFFFF" width="30.965" height="11.694"/>
		<rect x="223.937" y="261.831" fill="#FFFFFF" width="30.965" height="11.694"/>
		<rect x="223.937" y="277.245" fill="#FFFFFF" width="30.965" height="11.694"/>
		<rect x="223.937" y="292.663" fill="#FFFFFF" width="30.965" height="11.692"/>
		<rect x="223.937" y="308.079" fill="#FFFFFF" width="30.965" height="11.694"/>
		<rect x="223.937" y="323.494" fill="#FFFFFF" width="30.965" height="11.695"/>
		<rect x="223.937" y="338.91" fill="#FFFFFF" width="30.965" height="11.693"/>
		<rect x="197.542" y="229.982" fill="#FFFFFF" width="15.229" height="14.213"/>
		<rect x="197.542" y="248.764" fill="#FFFFFF" width="15.229" height="14.215"/>
		<rect x="197.542" y="267.546" fill="#FFFFFF" width="15.229" height="14.213"/>
		<rect x="197.542" y="286.327" fill="#FFFFFF" width="15.229" height="14.213"/>
		<rect x="197.542" y="305.109" fill="#FFFFFF" width="15.229" height="14.211"/>
		<rect x="197.542" y="323.891" fill="#FFFFFF" width="15.229" height="14.213"/>
		<rect x="197.542" y="342.672" fill="#FFFFFF" width="15.229" height="14.212"/>
		<rect x="197.542" y="361.452" fill="#FFFFFF" width="15.229" height="14.213"/>
		<rect x="232.345" y="352.951" fill="#FFFFFF" width="13.319" height="26.171"/>
	</g>
	<g>
		<polygon fill="#2C2C2C" points="308.816,252.475 311.621,245.465 315.763,245.465 315.763,240.324 308.816,240.324 
			311.621,233.314 315.763,233.314 315.763,224.907 389.874,224.907 389.874,378.711 391.565,378.711 391.565,383.449 
			313.395,383.449 313.395,378.711 315.763,378.711 315.763,301.076 308.816,301.076 311.621,294.064 315.763,294.064 
			315.763,288.927 308.816,288.927 311.621,281.916 315.763,281.916 315.763,276.775 308.816,276.775 311.621,269.766 
			315.763,269.766 315.763,264.625 308.816,264.625 311.621,257.614 315.763,257.614 315.763,252.475 		"/>
		<rect x="322.362" y="230.998" fill="#FFFFFF" width="30.966" height="11.695"/>
		<rect x="322.362" y="246.415" fill="#FFFFFF" width="30.966" height="11.694"/>
		<rect x="322.362" y="261.831" fill="#FFFFFF" width="30.966" height="11.694"/>
		<rect x="322.362" y="277.245" fill="#FFFFFF" width="30.966" height="11.694"/>
		<rect x="322.362" y="292.663" fill="#FFFFFF" width="30.966" height="11.692"/>
		<rect x="322.362" y="308.079" fill="#FFFFFF" width="30.966" height="11.694"/>
		<rect x="322.362" y="323.494" fill="#FFFFFF" width="30.966" height="11.695"/>
		<rect x="322.362" y="338.91" fill="#FFFFFF" width="30.966" height="11.693"/>
		<rect x="364.493" y="229.982" fill="#FFFFFF" width="15.229" height="14.213"/>
		<rect x="364.493" y="248.764" fill="#FFFFFF" width="15.229" height="14.215"/>
		<rect x="364.493" y="267.546" fill="#FFFFFF" width="15.229" height="14.213"/>
		<rect x="364.493" y="286.327" fill="#FFFFFF" width="15.229" height="14.213"/>
		<rect x="364.493" y="305.109" fill="#FFFFFF" width="15.229" height="14.211"/>
		<rect x="364.493" y="323.891" fill="#FFFFFF" width="15.229" height="14.213"/>
		<rect x="364.493" y="342.672" fill="#FFFFFF" width="15.229" height="14.212"/>
		<rect x="364.493" y="361.452" fill="#FFFFFF" width="15.229" height="14.213"/>
		<rect x="331.599" y="352.951" fill="#FFFFFF" width="13.319" height="26.171"/>
	</g>
	<g>
		<path fill="#43A0D2" d="M102.289,377.223h8.555l-5.354-7.393h2.684l-4.667-6.268h1.926l-6.557-9.646l-6.559,9.646h1.928
			l-4.667,6.268h2.679l-5.354,7.393h8.555v3.045c-3.607,0.033-7.052,0.031-10.332-0.008V271.646h9.423l-35.104-35.104L24.34,271.646
			h9.423v75.285c-0.18-0.041-0.271-0.064-0.271-0.064v36.667l68.815,0.284 M64.806,332.104v11.64H53.998v-11.64H64.806z
			 M53.999,325.684v-11.244h10.808v11.244H53.999L53.999,325.684z M67.288,287.021v8.188H62.79v-8.188H67.288z M62.791,285.436
			v-1.972c0-2.651,1.954-4.843,4.498-5.225v7.196H62.791L62.791,285.436z M66.393,314.439H76.5v11.242H66.393V314.439z
			 M66.393,332.104H76.5v11.64H66.393V332.104z M76.5,312.852H66.393v-11.244H76.5V312.852L76.5,312.852z M68.875,278.239
			c2.545,0.383,4.498,2.573,4.498,5.225v1.972h-4.498V278.239z M68.875,287.021h4.498v8.188h-4.498V287.021z M60.15,253.716
			c3.963,0.341,7.122,3.496,7.459,7.461H60.15V253.716z M60.15,262.588h7.459c-0.337,3.967-3.493,7.122-7.459,7.462V262.588z
			 M64.806,301.607v11.242H53.998v-11.242H64.806z M58.737,253.716v7.461h-7.46C51.618,257.212,54.772,254.059,58.737,253.716z
			 M58.737,262.588v7.462c-3.965-0.339-7.12-3.495-7.46-7.462H58.737L58.737,262.588z M50.779,278.239
			c2.547,0.383,4.499,2.573,4.499,5.225v1.972h-4.499V278.239z M50.779,287.021h4.499v8.188h-4.499V287.021z M44.697,283.464
			c0-2.651,1.952-4.843,4.496-5.226v7.197h-4.496V283.464z M44.697,287.021h4.496v8.188h-4.496V287.021z M42.305,301.607h10.107
			v11.242H42.305V301.607z M42.305,314.439h10.107v11.242H42.305V314.439z M42.305,332.104h10.107v11.64H42.305V332.104z"/>
	</g>
	<rect x="43.836" y="348.441" fill="#FFFFFF" width="15.075" height="30.453"/>
	<rect x="60.281" y="348.441" fill="#FFFFFF" width="15.074" height="30.453"/>
	<rect x="113.879" y="352.352" fill="#FFFFFF" width="13.04" height="26.342"/>
	<rect x="128.502" y="352.352" fill="#FFFFFF" width="13.039" height="26.342"/>
	<rect x="143.124" y="352.352" fill="#FFFFFF" width="13.04" height="26.342"/>
	<rect x="157.746" y="352.352" fill="#FFFFFF" width="13.04" height="26.342"/>
	<polygon fill="#283C8F" points="396.452,350.813 396.452,301.779 405.283,301.779 405.283,243.311 421.576,243.311 
		421.576,228.691 430.456,228.691 435.432,190.625 436.042,190.625 441.018,228.691 449.898,228.691 449.898,243.311 
		466.19,243.311 466.19,301.779 475.021,301.779 475.021,350.813 482.026,350.813 482.026,383.616 389.447,383.616 389.447,350.813 
			"/>
	<g>
		<rect x="442.467" y="248.184" fill="#FFFFFF" width="10.963" height="11.271"/>
		<rect x="422.672" y="248.184" fill="#FFFFFF" width="10.963" height="11.271"/>
		<rect x="442.467" y="267.063" fill="#FFFFFF" width="10.963" height="11.271"/>
		<rect x="422.672" y="267.063" fill="#FFFFFF" width="10.963" height="11.271"/>
		<rect x="442.467" y="285.945" fill="#FFFFFF" width="10.963" height="11.268"/>
		<rect x="454.344" y="308.023" fill="#FFFFFF" width="10.963" height="11.269"/>
		<rect x="433.026" y="308.023" fill="#FFFFFF" width="10.963" height="11.269"/>
		<rect x="411.709" y="308.023" fill="#FFFFFF" width="10.963" height="11.269"/>
		<rect x="454.344" y="328.732" fill="#FFFFFF" width="10.963" height="11.268"/>
		<rect x="433.026" y="328.732" fill="#FFFFFF" width="10.963" height="11.268"/>
		<rect x="411.709" y="328.732" fill="#FFFFFF" width="10.963" height="11.268"/>
		<rect x="422.672" y="285.945" fill="#FFFFFF" width="10.963" height="11.268"/>
	</g>
	<line fill="none" x1="483.854" y1="383.616" x2="391.274" y2="383.616"/>
	<g>
		<g>
			<path fill="#43A0D2" d="M474.462,377.223h-8.557l5.354-7.393h-2.682l4.667-6.268h-1.928l6.559-9.646l6.558,9.646h-1.927
				l4.667,6.268h-2.679l5.353,7.393h-8.554v3.045c3.606,0.033,7.051,0.031,10.332-0.008V271.646h-9.423l35.103-35.104l35.104,35.104
				h-9.424v75.285c0.181-0.041,0.271-0.064,0.271-0.064v36.667l-68.813,0.284 M511.944,332.104v11.64h10.809v-11.64H511.944z
				 M522.751,325.684v-11.244h-10.808v11.244H522.751L522.751,325.684z M509.462,287.021v8.188h4.498v-8.188H509.462z
				 M513.96,285.436v-1.972c0-2.651-1.954-4.843-4.498-5.225v7.196H513.96L513.96,285.436z M510.357,314.439H500.25v11.242h10.105
				L510.357,314.439L510.357,314.439z M510.357,332.104H500.25v11.64h10.105L510.357,332.104L510.357,332.104z M500.25,312.852
				h10.105v-11.244H500.25V312.852L500.25,312.852z M507.876,278.239c-2.545,0.383-4.498,2.573-4.498,5.225v1.972h4.498V278.239z
				 M507.876,287.021h-4.498v8.188h4.498V287.021z M516.6,253.716c-3.964,0.341-7.122,3.496-7.459,7.461h7.459V253.716z
				 M516.6,262.588h-7.459c0.338,3.967,3.494,7.122,7.459,7.462V262.588z M511.944,301.607v11.242h10.809v-11.242H511.944z
				 M518.013,253.716v7.461h7.46C525.133,257.212,521.979,254.059,518.013,253.716z M518.013,262.588v7.462
				c3.966-0.339,7.121-3.495,7.46-7.462H518.013L518.013,262.588z M525.971,278.239c-2.545,0.383-4.498,2.573-4.498,5.225v1.972
				h4.498V278.239z M525.971,287.021h-4.498v8.188h4.498V287.021z M532.054,283.464c0-2.651-1.952-4.843-4.496-5.226v7.197h4.496
				V283.464z M532.054,287.021h-4.496v8.188h4.496V287.021z M534.445,301.607h-10.106v11.242h10.106V301.607z M534.445,314.439
				h-10.106v11.242h10.106V314.439z M534.445,332.104h-10.106v11.64h10.106V332.104z"/>
		</g>
		<rect x="517.84" y="348.441" fill="#FFFFFF" width="15.074" height="30.453"/>
		<rect x="501.395" y="348.441" fill="#FFFFFF" width="15.075" height="30.453"/>
	</g>
	<rect x="452.877" y="352.352" fill="#FFFFFF" width="13.039" height="26.342"/>
	<rect x="438.254" y="352.352" fill="#FFFFFF" width="13.04" height="26.342"/>
	<rect x="423.633" y="352.352" fill="#FFFFFF" width="13.04" height="26.342"/>
	<rect x="409.01" y="352.352" fill="#FFFFFF" width="13.04" height="26.342"/>
	<g>
		<polyline fill="#145B8E" points="313.712,265.834 313.712,236.602 263.466,236.602 263.466,382.77 312.798,382.77 313.712,382.77 
					"/>
		<rect x="291.627" y="335.314" fill="#FFFFFF" width="18.271" height="44.664"/>
		<rect x="291.627" y="313.794" fill="#FFFFFF" width="18.271" height="18.272"/>
		<rect x="291.627" y="291.057" fill="#FFFFFF" width="18.271" height="18.271"/>
		<rect x="291.627" y="268.316" fill="#FFFFFF" width="18.271" height="18.271"/>
		<rect x="291.627" y="245.579" fill="#FFFFFF" width="18.271" height="18.271"/>
		<rect x="268.889" y="351.585" fill="#FFFFFF" width="18.271" height="28.396"/>
		<rect x="268.889" y="316.25" fill="#FFFFFF" width="18.271" height="28.395"/>
		<rect x="268.889" y="280.914" fill="#FFFFFF" width="18.271" height="28.396"/>
		<rect x="268.889" y="245.579" fill="#FFFFFF" width="18.271" height="28.396"/>
		<g>
			
				<linearGradient id="SVGID_1_" gradientUnits="userSpaceOnUse" x1="-1019.8242" y1="1588.3477" x2="-1019.8242" y2="1588.3477" gradientTransform="matrix(1 0 0 1 1332.6221 -1205.5625)">
				<stop  offset="0" style="stop-color:#FFFFFF"/>
				<stop  offset="0.8559" style="stop-color:#D5D5D7"/>
				<stop  offset="1" style="stop-color:#CDCED0"/>
			</linearGradient>
			<path fill="url(#SVGID_1_)" d="M312.798,382.785"/>
		</g>
	</g>
	<polygon fill="#145B8E" points="542.894,383.68 597.565,383.68 597.565,286.396 569.631,286.201 542.894,277.436 	"/>
	<rect x="547.15" y="355.85" fill="#FFFFFF" width="21.174" height="22.754"/>
	<rect x="571.686" y="355.85" fill="#FFFFFF" width="21.177" height="22.754"/>
	<rect x="548.719" y="339.891" fill="#FFFFFF" width="9.859" height="9.858"/>
	<rect x="564.403" y="339.891" fill="#FFFFFF" width="9.856" height="9.858"/>
	<rect x="580.087" y="339.891" fill="#FFFFFF" width="9.858" height="9.858"/>
	<rect x="548.719" y="325.55" fill="#FFFFFF" width="9.859" height="9.859"/>
	<rect x="564.403" y="325.55" fill="#FFFFFF" width="9.856" height="9.859"/>
	<rect x="580.087" y="325.55" fill="#FFFFFF" width="9.858" height="9.859"/>
	<rect x="548.719" y="311.21" fill="#FFFFFF" width="9.859" height="9.858"/>
	<rect x="564.403" y="311.21" fill="#FFFFFF" width="9.856" height="9.858"/>
	<rect x="580.087" y="311.21" fill="#FFFFFF" width="9.858" height="9.858"/>
	<rect x="548.719" y="296.87" fill="#FFFFFF" width="9.859" height="9.858"/>
	<rect x="564.403" y="296.87" fill="#FFFFFF" width="9.856" height="9.858"/>
	<rect x="580.087" y="296.87" fill="#FFFFFF" width="9.858" height="9.858"/>
	<line fill="none" x1="878.396" y1="280.684" x2="878.396" y2="272.46"/>
	<line fill="none" x1="878.396" y1="293.018" x2="878.396" y2="284.794"/>
	<line fill="none" x1="878.396" y1="305.352" x2="878.396" y2="297.128"/>
	<line fill="none" x1="878.396" y1="317.684" x2="878.396" y2="309.461"/>
	<line fill="none" x1="878.396" y1="330.018" x2="878.396" y2="321.795"/>
	<line fill="none" x1="878.396" y1="342.352" x2="878.396" y2="334.129"/>
	<line fill="none" x1="878.396" y1="354.686" x2="878.396" y2="346.463"/>
	<line fill="none" x1="878.396" y1="367.02" x2="878.396" y2="358.796"/>
	<line fill="none" x1="878.396" y1="379.354" x2="878.396" y2="371.13"/>
	<polygon fill="#283C8F" points="1012.971,350.813 1012.971,301.779 1021.802,301.779 1021.802,243.311 1038.095,243.311 
		1038.095,228.691 1046.976,228.691 1051.95,190.625 1052.561,190.625 1057.535,228.691 1066.416,228.691 1066.416,243.311 
		1082.71,243.311 1082.71,301.779 1091.541,301.779 1091.541,350.813 1098.545,350.813 1098.545,383.616 1005.966,383.616 
		1005.966,350.813 	"/>
	<g>
		<rect x="1057.158" y="248.184" fill="#FFFFFF" width="10.964" height="11.271"/>
		<rect x="1037.364" y="248.184" fill="#FFFFFF" width="10.964" height="11.271"/>
		<rect x="1057.158" y="267.063" fill="#FFFFFF" width="10.964" height="11.271"/>
		<rect x="1037.364" y="267.063" fill="#FFFFFF" width="10.964" height="11.271"/>
		<rect x="1057.158" y="285.945" fill="#FFFFFF" width="10.964" height="11.268"/>
		<rect x="1069.035" y="308.023" fill="#FFFFFF" width="10.965" height="11.269"/>
		<rect x="1047.719" y="308.023" fill="#FFFFFF" width="10.963" height="11.269"/>
		<rect x="1026.401" y="308.023" fill="#FFFFFF" width="10.963" height="11.269"/>
		<rect x="1069.035" y="328.732" fill="#FFFFFF" width="10.965" height="11.268"/>
		<rect x="1047.719" y="328.732" fill="#FFFFFF" width="10.963" height="11.268"/>
		<rect x="1026.401" y="328.732" fill="#FFFFFF" width="10.963" height="11.268"/>
		<rect x="1037.364" y="285.945" fill="#FFFFFF" width="10.964" height="11.268"/>
	</g>
	<line fill="none" x1="1098.545" y1="383.616" x2="1005.966" y2="383.616"/>
	<g>
		<polygon fill="#2C2C2C" points="926.041,252.475 928.845,245.465 932.988,245.465 932.988,240.324 926.041,240.324 
			928.845,233.314 932.988,233.314 932.988,224.907 1007.099,224.907 1007.099,378.711 1008.788,378.711 1008.788,383.449 
			930.617,383.449 930.617,378.711 932.988,378.711 932.988,301.076 926.041,301.076 928.845,294.064 932.988,294.064 
			932.988,288.927 926.041,288.927 928.845,281.916 932.988,281.916 932.988,276.775 926.041,276.775 928.845,269.766 
			932.988,269.766 932.988,264.625 926.041,264.625 928.845,257.614 932.988,257.614 932.988,252.475 		"/>
		<rect x="939.587" y="230.998" fill="#FFFFFF" width="30.964" height="11.695"/>
		<rect x="939.587" y="246.415" fill="#FFFFFF" width="30.964" height="11.694"/>
		<rect x="939.587" y="261.831" fill="#FFFFFF" width="30.964" height="11.694"/>
		<rect x="939.587" y="277.245" fill="#FFFFFF" width="30.964" height="11.694"/>
		<rect x="939.587" y="292.663" fill="#FFFFFF" width="30.964" height="11.692"/>
		<rect x="939.587" y="308.079" fill="#FFFFFF" width="30.964" height="11.694"/>
		<rect x="939.587" y="323.494" fill="#FFFFFF" width="30.964" height="11.695"/>
		<rect x="939.587" y="338.91" fill="#FFFFFF" width="30.964" height="11.693"/>
		<rect x="981.718" y="229.982" fill="#FFFFFF" width="15.229" height="14.213"/>
		<rect x="981.718" y="248.764" fill="#FFFFFF" width="15.229" height="14.215"/>
		<rect x="981.718" y="267.546" fill="#FFFFFF" width="15.229" height="14.213"/>
		<rect x="981.718" y="286.327" fill="#FFFFFF" width="15.229" height="14.213"/>
		<rect x="981.718" y="305.109" fill="#FFFFFF" width="15.229" height="14.211"/>
		<rect x="981.718" y="323.891" fill="#FFFFFF" width="15.229" height="14.213"/>
		<rect x="981.718" y="342.672" fill="#FFFFFF" width="15.229" height="14.212"/>
		<rect x="981.718" y="361.452" fill="#FFFFFF" width="15.229" height="14.213"/>
		<rect x="948.823" y="352.951" fill="#FFFFFF" width="13.313" height="26.171"/>
	</g>
	<g>
		<polygon fill="#2C2C2C" points="885.672,252.475 882.866,245.465 878.725,245.465 878.725,240.324 885.672,240.324 
			882.866,233.314 878.725,233.314 878.725,224.907 804.613,224.907 804.613,378.711 802.923,378.711 802.923,383.449 
			881.093,383.449 881.093,378.711 878.725,378.711 878.725,301.076 885.672,301.076 882.866,294.064 878.725,294.064 
			878.725,288.927 885.672,288.927 882.866,281.916 878.725,281.916 878.725,276.775 885.672,276.775 882.866,269.766 
			878.725,269.766 878.725,264.625 885.672,264.625 882.866,257.614 878.725,257.614 878.725,252.475 		"/>
		<rect x="841.16" y="230.998" fill="#FFFFFF" width="30.966" height="11.695"/>
		<rect x="841.16" y="246.415" fill="#FFFFFF" width="30.966" height="11.694"/>
		<rect x="841.16" y="261.831" fill="#FFFFFF" width="30.966" height="11.694"/>
		<rect x="841.16" y="277.245" fill="#FFFFFF" width="30.966" height="11.694"/>
		<rect x="841.16" y="292.663" fill="#FFFFFF" width="30.966" height="11.692"/>
		<rect x="841.16" y="308.079" fill="#FFFFFF" width="30.966" height="11.694"/>
		<rect x="841.16" y="323.494" fill="#FFFFFF" width="30.966" height="11.695"/>
		<rect x="841.16" y="338.91" fill="#FFFFFF" width="30.966" height="11.693"/>
		<rect x="814.766" y="229.982" fill="#FFFFFF" width="15.229" height="14.213"/>
		<rect x="814.766" y="248.764" fill="#FFFFFF" width="15.229" height="14.215"/>
		<rect x="814.766" y="267.546" fill="#FFFFFF" width="15.229" height="14.213"/>
		<rect x="814.766" y="286.327" fill="#FFFFFF" width="15.229" height="14.213"/>
		<rect x="814.766" y="305.109" fill="#FFFFFF" width="15.229" height="14.211"/>
		<rect x="814.766" y="323.891" fill="#FFFFFF" width="15.229" height="14.213"/>
		<rect x="814.766" y="342.672" fill="#FFFFFF" width="15.229" height="14.212"/>
		<rect x="814.766" y="361.452" fill="#FFFFFF" width="15.229" height="14.213"/>
		<rect x="849.569" y="352.951" fill="#FFFFFF" width="13.314" height="26.171"/>
	</g>
	<g>
		<path fill="#43A0D2" d="M1092.198,377.223h-8.561l5.354-7.393h-2.686l4.668-6.268h-1.929l6.562-9.646l6.56,9.646h-1.929
			l4.668,6.268h-2.68l5.354,7.393h-8.554v3.045c3.604,0.033,7.052,0.031,10.331-0.008V271.646h-9.423l35.104-35.104l35.104,35.104
			h-9.424v75.285c0.181-0.041,0.271-0.064,0.271-0.064v36.667l-68.813,0.284 M1129.682,332.104v11.64h10.813v-11.64H1129.682z
			 M1140.488,325.684v-11.244h-10.812v11.244H1140.488L1140.488,325.684z M1127.199,287.021v8.188h4.497v-8.188H1127.199z
			 M1131.697,285.436v-1.972c0-2.651-1.954-4.843-4.497-5.225v7.196H1131.697L1131.697,285.436z M1128.095,314.439h-10.104v11.242
			h10.104V314.439z M1128.095,332.104h-10.104v11.64h10.104V332.104z M1117.988,312.852h10.104v-11.244h-10.104V312.852
			L1117.988,312.852z M1125.613,278.239c-2.544,0.383-4.498,2.573-4.498,5.225v1.972h4.498V278.239z M1125.613,287.021h-4.498v8.188
			h4.498V287.021z M1134.338,253.716c-3.965,0.341-7.122,3.496-7.46,7.461h7.46V253.716z M1134.338,262.588h-7.46
			c0.338,3.967,3.493,7.122,7.46,7.462V262.588z M1129.682,301.607v11.242h10.813v-11.242H1129.682z M1135.75,253.716v7.461h7.461
			C1142.869,257.212,1139.716,254.059,1135.75,253.716z M1135.75,262.588v7.462c3.966-0.339,7.12-3.495,7.461-7.462H1135.75
			L1135.75,262.588z M1143.707,278.239c-2.546,0.383-4.497,2.573-4.497,5.225v1.972h4.497V278.239z M1143.707,287.021h-4.497v8.188
			h4.497V287.021z M1149.791,283.464c0-2.651-1.951-4.843-4.496-5.226v7.197h4.496V283.464z M1149.791,287.021h-4.496v8.188h4.496
			V287.021z M1152.183,301.607h-10.104v11.242h10.104V301.607z M1152.183,314.439h-10.104v11.242h10.104V314.439z M1152.183,332.104
			h-10.104v11.64h10.104V332.104z"/>
	</g>
	<rect x="1135.576" y="348.441" fill="#FFFFFF" width="15.075" height="30.453"/>
	<rect x="1119.133" y="348.441" fill="#FFFFFF" width="15.073" height="30.453"/>
	<rect x="1067.568" y="352.352" fill="#FFFFFF" width="13.039" height="26.342"/>
	<rect x="1052.947" y="352.352" fill="#FFFFFF" width="13.039" height="26.342"/>
	<rect x="1038.323" y="352.352" fill="#FFFFFF" width="13.039" height="26.342"/>
	<rect x="1023.701" y="352.352" fill="#FFFFFF" width="13.04" height="26.342"/>
	<polygon fill="#283C8F" points="798.035,350.813 798.035,301.779 789.203,301.779 789.203,243.311 772.911,243.311 
		772.911,228.691 764.031,228.691 759.056,190.625 758.446,190.625 753.47,228.691 744.59,228.691 744.59,243.311 728.297,243.311 
		728.297,301.779 719.466,301.779 719.466,350.813 712.461,350.813 712.461,383.616 805.039,383.616 805.039,350.813 	"/>
	<g>
		<rect x="741.058" y="248.184" fill="#FFFFFF" width="10.964" height="11.271"/>
		<rect x="760.854" y="248.184" fill="#FFFFFF" width="10.967" height="11.271"/>
		<rect x="741.058" y="267.063" fill="#FFFFFF" width="10.964" height="11.271"/>
		<rect x="760.854" y="267.063" fill="#FFFFFF" width="10.967" height="11.271"/>
		<rect x="741.058" y="285.945" fill="#FFFFFF" width="10.964" height="11.268"/>
		<rect x="729.181" y="308.023" fill="#FFFFFF" width="10.964" height="11.269"/>
		<rect x="750.497" y="308.023" fill="#FFFFFF" width="10.964" height="11.269"/>
		<rect x="771.814" y="308.023" fill="#FFFFFF" width="10.964" height="11.269"/>
		<rect x="729.181" y="328.732" fill="#FFFFFF" width="10.964" height="11.268"/>
		<rect x="750.497" y="328.732" fill="#FFFFFF" width="10.964" height="11.268"/>
		<rect x="771.814" y="328.732" fill="#FFFFFF" width="10.964" height="11.268"/>
		<rect x="760.854" y="285.945" fill="#FFFFFF" width="10.967" height="11.268"/>
	</g>
	<line fill="none" x1="710.634" y1="383.616" x2="803.213" y2="383.616"/>
	<g>
		<g>
			<path fill="#43A0D2" d="M720.025,377.223h8.556l-5.354-7.393h2.687l-4.667-6.268h1.928l-6.559-9.646l-6.563,9.646h1.931
				l-4.669,6.268h2.682l-5.354,7.393h8.559v3.045c-3.606,0.033-7.055,0.031-10.332-0.008V271.646h9.423l-35.105-35.104
				l-35.104,35.104h9.422v75.285c-0.18-0.041-0.27-0.064-0.27-0.064v36.667l68.813,0.284 M682.543,332.104v11.64h-10.808v-11.64
				H682.543z M671.736,325.684v-11.244h10.809v11.244H671.736L671.736,325.684z M685.025,287.021v8.188h-4.497v-8.188H685.025z
				 M680.528,285.436v-1.972c0-2.651,1.953-4.843,4.497-5.225v7.196H680.528L680.528,285.436z M684.13,314.439h10.106v11.242H684.13
				V314.439z M684.13,332.104h10.106v11.64H684.13V332.104z M694.237,312.852H684.13v-11.244h10.106L694.237,312.852
				L694.237,312.852z M686.612,278.239c2.544,0.383,4.498,2.573,4.498,5.225v1.972h-4.498V278.239z M686.612,287.021h4.498v8.188
				h-4.498V287.021z M677.887,253.716c3.964,0.341,7.122,3.496,7.459,7.461h-7.459V253.716z M677.887,262.588h7.459
				c-0.337,3.967-3.494,7.122-7.459,7.462V262.588z M682.543,301.607v11.242h-10.808v-11.242H682.543z M676.474,253.716v7.461h-7.46
				C669.355,257.212,672.509,254.059,676.474,253.716z M676.474,262.588v7.462c-3.965-0.339-7.12-3.495-7.46-7.462H676.474
				L676.474,262.588z M668.517,278.239c2.549,0.383,4.498,2.573,4.498,5.225v1.972h-4.498V278.239z M668.517,287.021h4.498v8.188
				h-4.498V287.021z M662.434,283.464c0-2.651,1.952-4.843,4.496-5.226v7.197h-4.496V283.464z M662.434,287.021h4.496v8.188h-4.496
				V287.021z M660.041,301.607h10.107v11.242h-10.107V301.607z M660.041,314.439h10.107v11.242h-10.107V314.439z M660.041,332.104
				h10.107v11.64h-10.107V332.104z"/>
		</g>
		<rect x="661.573" y="348.441" fill="#FFFFFF" width="15.075" height="30.453"/>
		<rect x="678.018" y="348.441" fill="#FFFFFF" width="15.075" height="30.453"/>
	</g>
	<rect x="728.571" y="352.352" fill="#FFFFFF" width="13.039" height="26.342"/>
	<rect x="743.193" y="352.352" fill="#FFFFFF" width="13.039" height="26.342"/>
	<rect x="757.814" y="352.352" fill="#FFFFFF" width="13.039" height="26.342"/>
	<rect x="772.438" y="352.352" fill="#FFFFFF" width="13.039" height="26.342"/>
	<g>
		<polyline fill="#145B8E" points="880.775,266.063 880.775,236.831 931.021,236.831 931.021,383 881.689,383 880.775,383 		"/>
		<rect x="884.588" y="335.543" fill="#FFFFFF" width="18.271" height="44.665"/>
		<rect x="884.588" y="314.023" fill="#FFFFFF" width="18.271" height="18.271"/>
		<rect x="884.588" y="291.286" fill="#FFFFFF" width="18.271" height="18.272"/>
		<rect x="884.588" y="268.546" fill="#FFFFFF" width="18.271" height="18.272"/>
		<rect x="884.588" y="245.809" fill="#FFFFFF" width="18.271" height="18.271"/>
		<rect x="907.326" y="351.814" fill="#FFFFFF" width="18.271" height="28.396"/>
		<rect x="907.326" y="316.479" fill="#FFFFFF" width="18.271" height="28.396"/>
		<rect x="907.326" y="281.145" fill="#FFFFFF" width="18.271" height="28.396"/>
		<rect x="907.326" y="245.809" fill="#FFFFFF" width="18.271" height="28.396"/>
		<g>
			
				<linearGradient id="SVGID_2_" gradientUnits="userSpaceOnUse" x1="-301.1426" y1="1588.5781" x2="-250.8965" y2="1588.5781" gradientTransform="matrix(-1 0 0 1 629.8789 -1205.5625)">
				<stop  offset="0" style="stop-color:#FFFFFF"/>
				<stop  offset="0.8559" style="stop-color:#D5D5D7"/>
				<stop  offset="1" style="stop-color:#CDCED0"/>
			</linearGradient>
			<polyline fill="url(#SVGID_2_)" points="931.021,383.016 881.689,383.016 880.775,383.016 			"/>
		</g>
	</g>
	<polygon fill="#145B8E" points="651.594,383.68 596.923,383.68 596.923,286.396 624.855,286.201 651.594,277.436 	"/>
	<rect x="626.163" y="355.85" fill="#FFFFFF" width="21.174" height="22.754"/>
	<rect x="601.628" y="355.85" fill="#FFFFFF" width="21.174" height="22.754"/>
	<rect x="635.91" y="339.891" fill="#FFFFFF" width="9.854" height="9.858"/>
	<rect x="620.227" y="339.891" fill="#FFFFFF" width="9.858" height="9.858"/>
	<rect x="604.541" y="339.891" fill="#FFFFFF" width="9.857" height="9.858"/>
	<rect x="635.91" y="325.55" fill="#FFFFFF" width="9.854" height="9.859"/>
	<rect x="620.227" y="325.55" fill="#FFFFFF" width="9.858" height="9.859"/>
	<rect x="604.541" y="325.55" fill="#FFFFFF" width="9.857" height="9.859"/>
	<rect x="635.91" y="311.21" fill="#FFFFFF" width="9.854" height="9.858"/>
	<rect x="620.227" y="311.21" fill="#FFFFFF" width="9.858" height="9.858"/>
	<rect x="604.541" y="311.21" fill="#FFFFFF" width="9.857" height="9.858"/>
	<rect x="635.91" y="296.87" fill="#FFFFFF" width="9.854" height="9.858"/>
	<rect x="620.227" y="296.87" fill="#FFFFFF" width="9.858" height="9.858"/>
	<rect x="604.541" y="296.87" fill="#FFFFFF" width="9.857" height="9.858"/>
	<rect x="-0.5" y="382.699" fill="#2C2C2C" width="1200" height="16.801"/>
</g>
</svg>
