<?xml version="1.0" encoding="utf-8"?>
<!-- Generator: Adobe Illustrator 13.0.0, SVG Export Plug-In . SVG Version: 6.00 Build 14948)  -->
<!DOCTYPE svg PUBLIC "-//W3C//DTD SVG 1.1//EN" "http://www.w3.org/Graphics/SVG/1.1/DTD/svg11.dtd">
<svg version="1.1" id="Layer_1" xmlns="http://www.w3.org/2000/svg" xmlns:xlink="http://www.w3.org/1999/xlink" x="0px" y="0px"
	 width="1200px" height="400px" viewBox="0 0 1200 400" enable-background="new 0 0 1200 400" xml:space="preserve">
<rect fill="none" width="1200" height="400"/>
<g>
	<polyline fill="#2C2C2C" points="735.029,223.039 829.921,193.364 1166.642,193.364 1166.642,225.9 	"/>
	<rect x="675.613" y="221.854" fill="#43A0D2" width="509.437" height="162.849"/>
	<g>
		<rect x="693.01" y="341.689" fill="#CCCCCC" width="12.813" height="11.729"/>
		<rect x="868.229" y="341.689" fill="#CCCCCC" width="12.813" height="11.729"/>
		<rect x="926.635" y="341.689" fill="#CCCCCC" width="12.813" height="11.729"/>
		<rect x="1014.24" y="341.689" fill="#CCCCCC" width="12.813" height="11.729"/>
		<rect x="1101.838" y="341.689" fill="#CCCCCC" width="12.813" height="11.729"/>
		<rect x="1072.637" y="341.689" fill="#CCCCCC" width="12.813" height="11.729"/>
		<rect x="1043.439" y="341.689" fill="#CCCCCC" width="12.812" height="11.729"/>
		<rect x="985.039" y="341.689" fill="#CCCCCC" width="12.813" height="11.729"/>
		<rect x="780.619" y="341.689" fill="#CCCCCC" width="12.813" height="11.729"/>
		<rect x="955.836" y="341.689" fill="#CCCCCC" width="12.813" height="11.729"/>
		<rect x="839.026" y="341.689" fill="#CCCCCC" width="12.813" height="11.729"/>
		<rect x="897.432" y="341.689" fill="#CCCCCC" width="12.813" height="11.729"/>
		<rect x="722.217" y="341.689" fill="#CCCCCC" width="12.813" height="11.729"/>
		<rect x="751.416" y="341.689" fill="#CCCCCC" width="12.813" height="11.729"/>
		<rect x="809.821" y="341.689" fill="#CCCCCC" width="12.813" height="11.729"/>
		<rect x="1131.038" y="341.689" fill="#CCCCCC" width="12.812" height="11.729"/>
		<rect x="1160.237" y="341.689" fill="#CCCCCC" width="12.813" height="11.729"/>
	</g>
	<g>
		<rect x="693.01" y="314.479" fill="#CCCCCC" width="12.813" height="11.732"/>
		<rect x="868.229" y="314.479" fill="#CCCCCC" width="12.813" height="11.732"/>
		<rect x="926.635" y="314.479" fill="#CCCCCC" width="12.813" height="11.732"/>
		<rect x="1014.24" y="314.479" fill="#CCCCCC" width="12.813" height="11.732"/>
		<rect x="1101.838" y="314.479" fill="#CCCCCC" width="12.813" height="11.732"/>
		<rect x="1072.637" y="314.479" fill="#CCCCCC" width="12.813" height="11.732"/>
		<rect x="1043.439" y="314.479" fill="#CCCCCC" width="12.812" height="11.732"/>
		<rect x="985.039" y="314.479" fill="#CCCCCC" width="12.813" height="11.732"/>
		<rect x="780.619" y="314.479" fill="#CCCCCC" width="12.813" height="11.732"/>
		<rect x="955.836" y="314.479" fill="#CCCCCC" width="12.813" height="11.732"/>
		<rect x="839.026" y="314.479" fill="#CCCCCC" width="12.813" height="11.732"/>
		<rect x="897.432" y="314.479" fill="#CCCCCC" width="12.813" height="11.732"/>
		<rect x="722.217" y="314.479" fill="#CCCCCC" width="12.813" height="11.732"/>
		<rect x="751.416" y="314.479" fill="#CCCCCC" width="12.813" height="11.732"/>
		<rect x="809.821" y="314.479" fill="#CCCCCC" width="12.813" height="11.732"/>
		<rect x="1131.038" y="314.479" fill="#CCCCCC" width="12.812" height="11.732"/>
		<rect x="1160.237" y="314.479" fill="#CCCCCC" width="12.813" height="11.732"/>
	</g>
	<g>
		<rect x="693.01" y="240.65" fill="#CCCCCC" width="12.813" height="66.521"/>
		<rect x="868.229" y="240.65" fill="#CCCCCC" width="12.813" height="66.521"/>
		<rect x="926.635" y="240.65" fill="#CCCCCC" width="12.813" height="66.521"/>
		<rect x="1014.24" y="240.65" fill="#CCCCCC" width="12.813" height="66.521"/>
		<rect x="1101.838" y="240.65" fill="#CCCCCC" width="12.813" height="66.521"/>
		<rect x="1072.637" y="240.65" fill="#CCCCCC" width="12.813" height="66.521"/>
		<rect x="1043.439" y="240.65" fill="#CCCCCC" width="12.812" height="66.521"/>
		<rect x="985.039" y="240.65" fill="#CCCCCC" width="12.813" height="66.521"/>
		<rect x="780.619" y="240.65" fill="#CCCCCC" width="12.813" height="66.521"/>
		<rect x="955.836" y="240.65" fill="#CCCCCC" width="12.813" height="66.521"/>
		<rect x="839.026" y="240.65" fill="#CCCCCC" width="12.813" height="66.521"/>
		<rect x="897.432" y="240.65" fill="#CCCCCC" width="12.813" height="66.521"/>
		<rect x="722.217" y="240.65" fill="#CCCCCC" width="12.813" height="66.521"/>
		<rect x="751.416" y="240.65" fill="#CCCCCC" width="12.813" height="66.521"/>
		<rect x="809.821" y="240.65" fill="#CCCCCC" width="12.813" height="66.521"/>
		<rect x="1131.038" y="240.65" fill="#CCCCCC" width="12.812" height="66.521"/>
		<rect x="1160.237" y="240.65" fill="#CCCCCC" width="12.813" height="66.521"/>
	</g>
	<g>
		<rect x="693.01" y="359.379" fill="#CCCCCC" width="12.813" height="11.73"/>
		<rect x="868.229" y="359.379" fill="#CCCCCC" width="12.813" height="11.73"/>
		<rect x="926.635" y="359.379" fill="#CCCCCC" width="12.813" height="11.73"/>
		<rect x="1014.24" y="359.379" fill="#CCCCCC" width="12.813" height="11.73"/>
		<rect x="1101.838" y="359.379" fill="#CCCCCC" width="12.813" height="11.73"/>
		<rect x="1072.637" y="359.379" fill="#CCCCCC" width="12.813" height="11.73"/>
		<rect x="1043.439" y="359.379" fill="#CCCCCC" width="12.812" height="11.73"/>
		<rect x="985.039" y="359.379" fill="#CCCCCC" width="12.813" height="11.73"/>
		<rect x="780.619" y="359.379" fill="#CCCCCC" width="12.813" height="11.73"/>
		<rect x="955.836" y="359.379" fill="#CCCCCC" width="12.813" height="11.73"/>
		<rect x="839.026" y="359.379" fill="#CCCCCC" width="12.813" height="11.73"/>
		<rect x="897.432" y="359.379" fill="#CCCCCC" width="12.813" height="11.73"/>
		<rect x="722.217" y="359.379" fill="#CCCCCC" width="12.813" height="11.73"/>
		<rect x="751.416" y="359.379" fill="#CCCCCC" width="12.813" height="11.73"/>
		<rect x="809.821" y="359.379" fill="#CCCCCC" width="12.813" height="11.73"/>
		<rect x="1131.038" y="359.379" fill="#CCCCCC" width="12.812" height="11.73"/>
		<rect x="1160.237" y="359.379" fill="#CCCCCC" width="12.813" height="11.73"/>
	</g>
	<rect x="277.895" y="143.691" fill="#00A3B4" width="64.417" height="241.076"/>
	<rect x="275.254" y="167.52" fill="#FFFFFF" width="46.309" height="7.657"/>
	<rect x="275.254" y="193.364" fill="#00A3B4" width="46.309" height="7.655"/>
	<rect x="286.14" y="219.205" fill="#00A3B4" width="46.308" height="7.663"/>
	<rect x="286.14" y="245.051" fill="#00A3B4" width="46.308" height="7.658"/>
	<rect x="286.14" y="270.896" fill="#FFFFFF" width="46.308" height="7.655"/>
	<rect x="286.14" y="296.741" fill="#00A3B4" width="46.308" height="7.657"/>
	<rect x="286.14" y="322.582" fill="#FFFFFF" width="46.308" height="7.659"/>
	<rect x="286.14" y="348.428" fill="#00A3B4" width="46.308" height="7.656"/>
	<rect x="277.895" y="143.691" fill="#43A0D2" width="64.417" height="241.076"/>
	<rect x="286.14" y="167.52" fill="#CCCCCC" width="46.308" height="7.657"/>
	<rect x="286.14" y="193.364" fill="#CCCCCC" width="46.308" height="7.655"/>
	<rect x="286.14" y="219.205" fill="#CCCCCC" width="46.308" height="7.663"/>
	<rect x="286.14" y="245.051" fill="#CCCCCC" width="46.308" height="7.658"/>
	<rect x="286.14" y="270.896" fill="#CCCCCC" width="46.308" height="7.655"/>
	<rect x="286.14" y="296.741" fill="#CCCCCC" width="46.308" height="7.657"/>
	<rect x="286.14" y="322.582" fill="#CCCCCC" width="46.308" height="7.659"/>
	<rect x="286.14" y="348.428" fill="#CCCCCC" width="46.308" height="7.656"/>
	<polygon fill="#283C8F" points="288.864,225.584 241.541,226.053 241.541,383.243 288.864,383.243 	"/>
	<circle fill="#FFFFFF" cx="254.523" cy="243.936" r="7.789"/>
	<circle fill="#FFFFFF" cx="275.877" cy="243.936" r="7.789"/>
	<circle fill="#FFFFFF" cx="254.523" cy="265.707" r="7.791"/>
	<circle fill="#FFFFFF" cx="275.877" cy="265.707" r="7.791"/>
	<circle fill="#FFFFFF" cx="254.523" cy="287.479" r="7.789"/>
	<circle fill="#FFFFFF" cx="275.877" cy="287.479" r="7.789"/>
	<circle fill="#FFFFFF" cx="254.523" cy="309.25" r="7.791"/>
	<circle fill="#FFFFFF" cx="275.877" cy="309.25" r="7.791"/>
	<circle fill="#FFFFFF" cx="254.523" cy="331.025" r="7.791"/>
	<circle fill="#FFFFFF" cx="275.877" cy="331.025" r="7.791"/>
	<circle fill="#FFFFFF" cx="254.523" cy="352.797" r="7.791"/>
	<circle fill="#FFFFFF" cx="275.877" cy="352.797" r="7.791"/>
	<rect x="131.052" y="179.383" fill="#145B8E" width="69.863" height="204.652"/>
	<rect x="126.592" y="163.857" fill="#145B8E" width="55.409" height="23.291"/>
	<rect x="133.016" y="149.049" fill="#145B8E" width="42.563" height="17.891"/>
	<rect x="140.706" y="190.711" fill="#CCCCCC" width="8.627" height="19.066"/>
	<rect x="154.15" y="190.711" fill="#CCCCCC" width="8.625" height="19.066"/>
	<rect x="167.591" y="190.711" fill="#CCCCCC" width="8.625" height="19.066"/>
	<rect x="181.031" y="190.711" fill="#CCCCCC" width="8.625" height="19.066"/>
	<rect x="140.706" y="216.734" fill="#CCCCCC" width="8.627" height="19.063"/>
	<rect x="154.15" y="216.734" fill="#CCCCCC" width="8.625" height="19.063"/>
	<rect x="167.591" y="216.734" fill="#CCCCCC" width="8.625" height="19.063"/>
	<rect x="181.031" y="216.734" fill="#CCCCCC" width="8.625" height="19.063"/>
	<rect x="140.706" y="242.75" fill="#CCCCCC" width="8.627" height="19.064"/>
	<rect x="154.15" y="242.75" fill="#CCCCCC" width="8.625" height="19.064"/>
	<rect x="167.591" y="242.75" fill="#CCCCCC" width="8.625" height="19.064"/>
	<rect x="181.031" y="242.75" fill="#CCCCCC" width="8.625" height="19.064"/>
	<rect x="140.706" y="268.775" fill="#CCCCCC" width="8.627" height="19.063"/>
	<rect x="154.15" y="268.775" fill="#CCCCCC" width="8.625" height="19.063"/>
	<rect x="167.591" y="268.775" fill="#CCCCCC" width="8.625" height="19.063"/>
	<rect x="181.031" y="268.775" fill="#CCCCCC" width="8.625" height="19.063"/>
	<polygon fill="#2C2C2C" points="246.069,390.945 181.443,390.945 181.443,312.076 213.756,268.379 246.069,312.076 	"/>
	<circle fill="#CCCCCC" cx="202.349" cy="317.984" r="7.791"/>
	<circle fill="#CCCCCC" cx="225.163" cy="317.984" r="7.791"/>
	<circle fill="#CCCCCC" cx="202.349" cy="340.152" r="7.791"/>
	<circle fill="#CCCCCC" cx="225.163" cy="340.152" r="7.791"/>
	<circle fill="#CCCCCC" cx="202.349" cy="362.324" r="7.791"/>
	<circle fill="#CCCCCC" cx="225.163" cy="362.324" r="7.791"/>
	<path fill="#FFFFFF" stroke="#FFFFFF" stroke-width="0.0938" stroke-miterlimit="10.43" d="M387.936,147.811
		c6.574-5.785,17.904-0.119,17.616,8.496c0.455,7.823-8.978,13.801-15.841,9.889C382.633,163.074,381.599,152.25,387.936,147.811z"
		/>
	<path fill="#FFFFFF" stroke="#FFFFFF" stroke-width="0.0938" stroke-miterlimit="10.43" d="M360.466,181.249
		c3.602-0.026,7.225-0.074,10.851-0.099c0.188,5.016,0.337,10.035,0.434,15.05c-3.792-0.026-7.582-0.05-11.351-0.071
		C360.419,191.186,360.444,186.213,360.466,181.249z"/>
	<path fill="#FFFFFF" stroke="#FFFFFF" stroke-width="0.0938" stroke-miterlimit="10.43" d="M377.771,181.201
		c3.693,0.05,7.416,0.072,11.134,0.096c0,4.919,0.051,9.861,0.099,14.809c-3.792,0.024-7.584,0.024-11.352,0.024
		C377.697,191.158,377.722,186.193,377.771,181.201z"/>
	<path fill="#FFFFFF" stroke="#FFFFFF" stroke-width="0.0938" stroke-miterlimit="10.43" d="M395.029,181.296
		c3.699-0.048,7.391-0.071,11.11-0.096c0.022,4.991,0.048,9.983,0.096,14.974c-3.792-0.023-7.563-0.049-11.304-0.068
		C394.953,191.158,394.979,186.213,395.029,181.296z"/>
	<path fill="#FFFFFF" stroke="#FFFFFF" stroke-width="0.0938" stroke-miterlimit="10.43" d="M371.256,204.334
		c3.764-0.023,7.557-0.068,11.348-0.096c-0.096,5.018-0.218,10.035-0.384,15.051c-3.647-0.051-7.271-0.098-10.87-0.123
		C371.328,214.223,371.303,209.281,371.256,204.334z"/>
	<path fill="#FFFFFF" stroke="#FFFFFF" stroke-width="0.0938" stroke-miterlimit="10.43" d="M388.557,204.311
		c3.746-0.022,7.516-0.022,11.281,0c-0.025,4.969-0.025,9.938-0.025,14.902c-3.742-0.021-7.463-0.021-11.183-0.021
		C388.607,214.223,388.58,209.256,388.557,204.311z"/>
	<path fill="#FFFFFF" stroke="#FFFFFF" stroke-width="0.0938" stroke-miterlimit="10.43" d="M405.815,204.334
		c3.741-0.023,7.512-0.047,11.301-0.047c-0.047,4.99-0.067,9.982-0.067,14.977c-3.748-0.051-7.468-0.1-11.161-0.121
		C405.864,214.201,405.841,209.256,405.815,204.334z"/>
	<path fill="#FFFFFF" stroke="#FFFFFF" stroke-width="0.0938" stroke-miterlimit="10.43" d="M383.471,233.387
		c2.208,0.021,6.602,0.072,8.81,0.072c0.049,7.975,0.049,15.918,0.049,23.859c-2.233,0-6.648,0-8.854,0
		C383.399,249.352,383.399,241.357,383.471,233.387z"/>
	<path fill="#FFFFFF" stroke="#FFFFFF" stroke-width="0.0938" stroke-miterlimit="10.43" d="M360.381,233.506
		c2.208-0.021,6.675-0.047,8.905-0.047c0.021,7.949,0,15.916-0.049,23.857c-2.208,0-6.626,0-8.833,0
		C360.406,249.375,360.406,241.434,360.381,233.506z"/>
	<path fill="#FFFFFF" stroke="#FFFFFF" stroke-width="0.0938" stroke-miterlimit="10.43" d="M371.903,233.506
		c2.208-0.021,6.67-0.047,8.902-0.068c0,7.973,0,15.939,0,23.885c-2.232,0-6.67,0-8.902,0
		C371.903,249.375,371.903,241.455,371.903,233.506z"/>
	<path fill="#FFFFFF" stroke="#FFFFFF" stroke-width="0.0938" stroke-miterlimit="10.43" d="M394.944,233.459
		c2.229,0.021,6.694,0.021,8.93,0.047c-0.071,7.928-0.071,15.869-0.051,23.814c-2.208,0-6.624,0.025-8.833,0.049
		C394.944,249.4,394.944,241.434,394.944,233.459z"/>
	<path fill="#FFFFFF" stroke="#FFFFFF" stroke-width="0.0938" stroke-miterlimit="10.43" d="M406.389,233.529
		c2.232-0.021,6.698-0.068,8.953-0.119c0,7.999,0,15.967-0.049,23.938c-2.209,0-6.621-0.024-8.829-0.05
		C406.464,249.375,406.464,241.455,406.389,233.529z"/>
	<path fill="#FFFFFF" stroke="#FFFFFF" stroke-width="0.0938" stroke-miterlimit="10.43" d="M417.957,233.506
		c2.23,0,6.678-0.047,8.886-0.068c0.022,7.973,0.022,15.939,0,23.91c-2.208-0.024-6.652-0.024-8.859-0.024
		C417.98,249.375,417.98,241.455,417.957,233.506z"/>
	<path fill="#FFFFFF" stroke="#FFFFFF" stroke-width="0.0938" stroke-miterlimit="10.43" d="M352.365,268.102
		c3.723,0.047,7.439,0.094,11.185,0.115c-0.021,4.971-0.05,9.938-0.05,14.906c-3.745,0-7.487,0-11.208,0
		C352.295,278.131,352.319,273.116,352.365,268.102z"/>
	<path fill="#FFFFFF" stroke="#FFFFFF" stroke-width="0.0938" stroke-miterlimit="10.43" d="M369.599,268.193
		c3.722,0,7.44-0.021,11.184-0.021c0,4.971,0,9.961,0.024,14.951c-3.768,0-7.486,0-11.232,0
		C369.573,278.154,369.573,273.188,369.599,268.193z"/>
	<path fill="#FFFFFF" stroke="#FFFFFF" stroke-width="0.0938" stroke-miterlimit="10.43" d="M386.88,268.217
		c3.692-0.021,7.416-0.068,11.135-0.094c0.026,4.991,0.054,10.008,0.073,15c-3.745,0-7.488,0-11.208,0
		C386.88,278.154,386.88,273.188,386.88,268.217z"/>
	<path fill="#FFFFFF" stroke="#FFFFFF" stroke-width="0.0938" stroke-miterlimit="10.43" d="M404.156,268.123
		c3.746,0.049,7.513,0.094,11.283,0.168c-0.1,4.965-0.146,9.938-0.22,14.902c-3.694-0.023-7.343-0.047-10.991-0.047
		C404.156,278.131,404.156,273.141,404.156,268.123z"/>
	<path fill="#FFFFFF" stroke="#FFFFFF" stroke-width="0.0938" stroke-miterlimit="10.43" d="M421.365,268.291
		c3.745-0.074,7.493-0.121,11.263-0.168c0,5.018-0.026,10.057-0.075,15.07c-3.692-0.023-7.393-0.047-11.063-0.07
		C421.414,278.178,421.389,273.236,421.365,268.291z"/>
	<path fill="#FFFFFF" stroke="#FFFFFF" stroke-width="0.0938" stroke-miterlimit="10.43" d="M404.136,291.282
		c3.696-0.05,7.394-0.097,11.111-0.167c0.048,4.992,0.095,9.984,0.167,14.977c-3.768,0.023-7.512,0.051-11.233,0.07
		C404.156,301.193,404.136,296.229,404.136,291.282z"/>
	<path fill="#FFFFFF" stroke="#FFFFFF" stroke-width="0.0938" stroke-miterlimit="10.43" d="M421.509,291.236
		c3.648-0.051,7.323-0.074,10.994-0.098c0.069,5.016,0.125,10.008,0.169,15.022c-3.77-0.022-7.562-0.05-11.307-0.068
		C421.414,301.123,421.44,296.178,421.509,291.236z"/>
	<path fill="#FFFFFF" stroke="#FFFFFF" stroke-width="0.0938" stroke-miterlimit="10.43" d="M352.319,291.209
		c3.722,0,7.439,0,11.185,0.027c0,4.943,0.025,9.887,0.049,14.854c-3.745,0.023-7.484,0.07-11.208,0.117
		C352.319,301.193,352.319,296.201,352.319,291.209z"/>
	<path fill="#FFFFFF" stroke="#FFFFFF" stroke-width="0.0938" stroke-miterlimit="10.43" d="M369.599,291.236
		c3.722-0.027,7.467-0.027,11.208-0.051c-0.024,4.991-0.024,9.983-0.024,14.979c-3.743,0-7.485-0.021-11.208-0.021
		C369.573,301.17,369.573,296.201,369.599,291.236z"/>
	<path fill="#FFFFFF" stroke="#FFFFFF" stroke-width="0.0938" stroke-miterlimit="10.43" d="M386.88,291.236
		c3.719-0.027,7.462-0.027,11.208-0.051c-0.021,4.991-0.05,10.008-0.05,15c-3.744-0.021-7.44-0.047-11.157-0.069
		C386.88,301.146,386.855,296.178,386.88,291.236z"/>
	<path fill="#FFFFFF" stroke="#FFFFFF" stroke-width="0.0938" stroke-miterlimit="10.43" d="M404.136,314.229
		c3.724,0,7.465,0,11.206,0.023c-0.024,4.965-0.024,9.938-0.024,14.9c-3.69,0.024-7.392,0.051-11.087,0.1
		C404.181,324.236,404.156,319.244,404.136,314.229z"/>
	<path fill="#FFFFFF" stroke="#FFFFFF" stroke-width="0.0938" stroke-miterlimit="10.43" d="M421.414,314.273
		c3.72-0.025,7.441-0.049,11.188-0.072c0,5.016,0,10.035-0.026,15.051c-3.739-0.052-7.438-0.068-11.133-0.1
		C421.414,324.188,421.414,319.244,421.414,314.273z"/>
	<path fill="#FFFFFF" stroke="#FFFFFF" stroke-width="0.0938" stroke-miterlimit="10.43" d="M352.319,314.229
		c3.722,0.023,7.462,0.023,11.231,0.049c-0.021,4.97-0.049,9.912-0.049,14.879c-3.723,0-7.463,0.025-11.185,0.025
		C352.295,324.209,352.295,319.217,352.319,314.229z"/>
	<path fill="#FFFFFF" stroke="#FFFFFF" stroke-width="0.0938" stroke-miterlimit="10.43" d="M369.573,314.273
		c3.723-0.025,7.465-0.025,11.232-0.025c-0.024,4.967-0.024,9.938-0.024,14.906c-3.743,0-7.485,0-11.184,0
		C369.573,324.188,369.552,319.244,369.573,314.273z"/>
	<path fill="#FFFFFF" stroke="#FFFFFF" stroke-width="0.0938" stroke-miterlimit="10.43" d="M386.88,314.248
		c3.719,0,7.438,0,11.186,0c-0.026,4.967,0,9.959,0,14.93c-3.748,0-7.467-0.021-11.186-0.021
		C386.88,324.188,386.88,319.217,386.88,314.248z"/>
	<g>
		<path fill="#2C2C2C" stroke="#393737" stroke-width="0.0938" stroke-miterlimit="10.43" d="M393.743,92.514
			c0.337-0.07,1.031-0.238,1.393-0.336c-2.33,16.487,5.736,31.439,10.052,46.85c2.885,0.146,5.763,0.289,8.646,0.434
			c0.067,11.544-1.178,23.4,2.54,34.559c-14.47-0.023-28.94-0.023-43.413,0.025c3.072-11.304,1.706-23.109,1.922-34.656
			c2.93-0.072,5.854-0.168,8.81-0.238C387.864,123.785,395.832,108.905,393.743,92.514z M387.936,147.811
			c-6.337,4.439-5.304,15.266,1.773,18.385c6.862,3.914,16.297-2.063,15.842-9.889C405.841,147.689,394.51,142.025,387.936,147.811z
			"/>
	</g>
	<g>
		<path fill="#2C2C2C" stroke="#393737" stroke-width="0.0938" stroke-miterlimit="10.43" d="M359.156,172.081
			c23.33-0.19,46.653-0.022,70.008-0.123c0.023,18.864,0.05,37.707-0.022,56.546c-23.276-0.047-46.584-0.096-69.886,0.023
			C359.111,209.709,359.28,190.896,359.156,172.081z M371.352,181.249c-0.021,4.965-0.049,9.937-0.068,14.877
			c3.77,0.024,7.56,0.049,11.352,0.072c-0.097-5.017-0.244-10.035-0.435-15.05C378.573,181.174,374.951,181.223,371.352,181.249z
			 M388.656,181.201c-0.053,4.992-0.075,9.958-0.122,14.929c3.768,0,7.56,0,11.352-0.024c-0.049-4.945-0.1-9.889-0.1-14.809
			C396.072,181.273,392.352,181.249,388.656,181.201z M405.91,181.296c-0.047,4.919-0.069,9.861-0.096,14.81
			c3.741,0.023,7.512,0.047,11.301,0.068c-0.047-4.988-0.067-9.98-0.094-14.974C413.301,181.223,409.607,181.249,405.91,181.296z
			 M371.256,204.334c0.047,4.945,0.069,9.889,0.094,14.832c3.602,0.025,7.225,0.072,10.87,0.123
			c0.167-5.018,0.289-10.033,0.384-15.051C378.815,204.266,375.021,204.311,371.256,204.334z M388.557,204.311
			c0.022,4.945,0.051,9.912,0.073,14.881c3.72,0,7.44,0,11.183,0.021c0-4.965,0-9.936,0.025-14.902
			C396.072,204.289,392.303,204.289,388.557,204.311z M405.815,204.334c0.024,4.922,0.051,9.863,0.071,14.811
			c3.692,0.021,7.413,0.068,11.161,0.121c0-4.99,0.022-9.982,0.067-14.977C413.325,204.289,409.557,204.311,405.815,204.334z"/>
	</g>
	<g>
		<path fill="#2C2C2C" stroke="#393737" stroke-width="0.0938" stroke-miterlimit="10.43" d="M349.104,225.945
			c29.854-0.049,59.713,0.049,89.57-0.049c0.047,12.799,0.047,25.594,0.022,38.358c-29.854-0.022-59.714,0-89.568,0
			C349.104,251.49,349.129,238.719,349.104,225.945z M383.471,233.387c-0.07,7.973-0.07,15.965,0,23.937c2.208,0,6.624,0,8.854,0
			c0-7.945,0-15.89-0.049-23.861C390.072,233.459,385.679,233.409,383.471,233.387z M360.381,233.506
			c0.025,7.928,0.025,15.869,0.025,23.814c2.208,0,6.625,0,8.833,0c0.049-7.945,0.068-15.912,0.049-23.861
			C367.056,233.459,362.589,233.482,360.381,233.506z M371.903,233.506c0,7.949,0,15.869,0,23.814c2.231,0,6.67,0,8.902,0
			c0-7.945,0-15.912,0-23.885C378.573,233.459,374.111,233.482,371.903,233.506z M394.944,233.459c0,7.975,0,15.941,0.047,23.905
			c2.21-0.022,6.626-0.048,8.836-0.048c-0.024-7.943-0.024-15.885,0.049-23.814C401.64,233.482,397.173,233.482,394.944,233.459z
			 M406.389,233.529c0.075,7.932,0.075,15.85,0.075,23.77c2.208,0.021,6.621,0.051,8.829,0.051
			c0.049-7.971,0.049-15.938,0.049-23.938C413.087,233.459,408.621,233.506,406.389,233.529z M417.957,233.506
			c0.023,7.949,0.023,15.869,0.023,23.814c2.207,0,6.652,0,8.859,0.025c0.022-7.972,0.022-15.938,0-23.912
			C424.635,233.459,420.189,233.506,417.957,233.506z"/>
	</g>
	<g>
		<path fill="#2C2C2C" stroke="#393737" stroke-width="0.0938" stroke-miterlimit="10.43" d="M341.328,262.277
			c34.366-0.121,68.711,0.022,103.083-0.072c0.192,22.896-0.099,45.793,0.095,68.688c-0.624,5.614,6.242,10.487,2.042,15.746
			c-5.017,9-2.427,19.606-2.833,29.397c-3.146,0.146-72.291,0.17-92.208,0.356c-3.146-0.098-6.263-0.188-9.356-0.268
			c0.021-7.197,0.453-14.371-0.146-21.549c-1.439-5.043-3.862-9.723-5.471-14.711c1.13-0.816,3.382-2.473,4.513-3.289
			C341.807,311.838,341.136,287.047,341.328,262.277z M352.365,270.823c-0.049,5.017-0.069,10.03-0.069,15.022
			c3.719,0,7.462,0,11.208,0c0-4.968,0.025-9.938,0.049-14.906C359.807,270.916,356.087,270.869,352.365,270.823z M369.599,270.916
			c-0.024,4.992-0.024,9.961-0.024,14.932c3.746,0,7.465,0,11.232,0c-0.024-4.992-0.024-9.984-0.024-14.951
			C377.039,270.895,373.319,270.916,369.599,270.916z M386.88,270.939c0,4.97,0,9.938,0,14.906c3.719,0,7.462,0,11.208,0
			c-0.021-4.992-0.05-10.009-0.073-15C394.295,270.869,390.573,270.916,386.88,270.939z M404.156,270.848
			c0,5.016,0,10.008,0.072,15.025c3.648,0,7.295,0.021,10.991,0.047c0.069-4.967,0.12-9.938,0.22-14.9
			C411.672,270.939,407.903,270.895,404.156,270.848z M421.365,271.018c0.021,4.943,0.049,9.885,0.122,14.83
			c3.673,0.025,7.371,0.049,11.063,0.068c0.049-5.018,0.075-10.057,0.075-15.068C428.855,270.895,425.111,270.939,421.365,271.018z
			 M404.136,294.004c0,4.949,0.022,9.912,0.047,14.881c3.724-0.021,7.469-0.047,11.233-0.068c-0.072-4.992-0.123-9.983-0.166-14.979
			C411.526,293.909,407.832,293.955,404.136,294.004z M421.509,293.955c-0.066,4.945-0.095,9.895-0.146,14.857
			c3.745,0.022,7.538,0.049,11.307,0.067c-0.05-5.019-0.099-10.008-0.169-15.024C428.834,293.885,425.156,293.909,421.509,293.955z
			 M352.319,293.934c0,4.99,0,9.982,0.024,15c3.724-0.049,7.462-0.096,11.208-0.117c-0.021-4.969-0.049-9.914-0.049-14.854
			C359.758,293.934,356.039,293.934,352.319,293.934z M369.599,293.955c-0.024,4.967-0.024,9.938-0.024,14.906
			c3.723,0,7.465,0.021,11.208,0.021c0-4.989,0-9.981,0.024-14.978C377.064,293.934,373.319,293.934,369.599,293.955z
			 M386.88,293.955c-0.021,4.945,0,9.914,0,14.883c3.719,0.023,7.416,0.047,11.157,0.068c0-4.992,0.025-10.008,0.05-15
			C394.344,293.934,390.599,293.934,386.88,293.955z M404.136,316.948c0.022,5.017,0.047,10.009,0.098,15.026
			c3.694-0.054,7.396-0.074,11.086-0.099c0-4.972,0-9.938,0.024-14.903C411.599,316.948,407.855,316.948,404.136,316.948z
			 M421.414,316.998c0,4.965,0,9.911,0.025,14.879c3.694,0.023,7.395,0.047,11.133,0.1c0.026-5.021,0.026-10.033,0.026-15.055
			C428.855,316.948,425.136,316.975,421.414,316.998z M352.319,316.948c-0.022,4.991-0.022,9.983,0,14.95
			c3.722,0,7.462-0.021,11.185-0.021c0-4.97,0.025-9.912,0.049-14.881C359.781,316.975,356.039,316.975,352.319,316.948z
			 M369.573,316.998c-0.022,4.965,0,9.911,0.024,14.879c3.696,0,7.44,0,11.184,0c0-4.969,0-9.938,0.024-14.9
			C377.039,316.975,373.295,316.975,369.573,316.998z M386.88,316.975c0,4.967,0,9.936,0,14.902c3.719,0,7.438,0.021,11.186,0.021
			c0-4.969-0.026-9.961,0-14.926C394.319,316.975,390.599,316.975,386.88,316.975z"/>
	</g>
	<rect x="18.067" y="311.409" fill="#43A0D2" width="147.927" height="76.259"/>
	<path fill="#2C2C2C" stroke="#393737" stroke-width="0.0938" stroke-miterlimit="10.43" d="M322.403,376.049
		c39.407,0.385,78.839-0.455,118.229,0.406c3.697,4.586,6.451,9.816,9.382,14.93c-46.517,0.604-93.071,0.266-139.608,0.172
		c1.584-3.023,3.286-5.979,5.063-8.906C318.636,381.428,321.104,379.291,322.403,376.049z"/>
	<g>
		<rect x="432.899" y="283.489" fill="#145C8F" width="509.442" height="103.2"/>
		<g>
			<rect x="450.297" y="343.674" fill="#FFFFFF" width="12.813" height="11.73"/>
			<rect x="625.521" y="343.674" fill="#FFFFFF" width="12.813" height="11.73"/>
			<rect x="683.931" y="343.674" fill="#FFFFFF" width="12.813" height="11.73"/>
			<rect x="771.535" y="343.674" fill="#FFFFFF" width="12.812" height="11.73"/>
			<rect x="859.134" y="343.674" fill="#FFFFFF" width="12.813" height="11.73"/>
			<rect x="829.932" y="343.674" fill="#FFFFFF" width="12.813" height="11.73"/>
			<rect x="800.734" y="343.674" fill="#FFFFFF" width="12.812" height="11.73"/>
			<rect x="742.335" y="343.674" fill="#FFFFFF" width="12.813" height="11.73"/>
			<rect x="537.904" y="343.674" fill="#FFFFFF" width="12.812" height="11.73"/>
			<rect x="713.132" y="343.674" fill="#FFFFFF" width="12.813" height="11.73"/>
			<rect x="596.31" y="343.674" fill="#FFFFFF" width="12.821" height="11.73"/>
			<rect x="654.729" y="343.674" fill="#FFFFFF" width="12.813" height="11.73"/>
			<rect x="479.5" y="343.674" fill="#FFFFFF" width="12.811" height="11.73"/>
			<rect x="508.699" y="343.674" fill="#FFFFFF" width="12.812" height="11.73"/>
			<rect x="567.104" y="343.674" fill="#FFFFFF" width="12.813" height="11.73"/>
			<rect x="888.334" y="343.674" fill="#FFFFFF" width="12.813" height="11.73"/>
			<rect x="917.532" y="343.674" fill="#FFFFFF" width="12.812" height="11.73"/>
		</g>
		<g>
			<rect x="450.297" y="316.461" fill="#FFFFFF" width="12.813" height="11.734"/>
			<rect x="625.521" y="316.461" fill="#FFFFFF" width="12.813" height="11.734"/>
			<rect x="683.931" y="316.461" fill="#FFFFFF" width="12.813" height="11.734"/>
			<rect x="771.535" y="316.461" fill="#FFFFFF" width="12.812" height="11.734"/>
			<rect x="859.134" y="316.461" fill="#FFFFFF" width="12.813" height="11.734"/>
			<rect x="829.932" y="316.461" fill="#FFFFFF" width="12.813" height="11.734"/>
			<rect x="800.734" y="316.461" fill="#FFFFFF" width="12.812" height="11.734"/>
			<rect x="742.335" y="316.461" fill="#FFFFFF" width="12.813" height="11.734"/>
			<rect x="537.904" y="316.461" fill="#FFFFFF" width="12.812" height="11.734"/>
			<rect x="713.132" y="316.461" fill="#FFFFFF" width="12.813" height="11.734"/>
			<rect x="596.31" y="316.461" fill="#FFFFFF" width="12.821" height="11.734"/>
			<rect x="654.729" y="316.461" fill="#FFFFFF" width="12.813" height="11.734"/>
			<rect x="479.5" y="316.461" fill="#FFFFFF" width="12.811" height="11.734"/>
			<rect x="508.699" y="316.461" fill="#FFFFFF" width="12.812" height="11.734"/>
			<rect x="567.104" y="316.461" fill="#FFFFFF" width="12.813" height="11.734"/>
			<rect x="888.334" y="316.461" fill="#FFFFFF" width="12.813" height="11.734"/>
			<rect x="917.532" y="316.461" fill="#FFFFFF" width="12.812" height="11.734"/>
		</g>
		<g>
			<rect x="450.297" y="297.422" fill="#FFFFFF" width="12.813" height="11.734"/>
			<rect x="625.521" y="297.422" fill="#FFFFFF" width="12.813" height="11.734"/>
			<rect x="683.931" y="297.422" fill="#FFFFFF" width="12.813" height="11.734"/>
			<rect x="771.535" y="297.422" fill="#FFFFFF" width="12.812" height="11.734"/>
			<rect x="859.134" y="297.422" fill="#FFFFFF" width="12.813" height="11.734"/>
			<rect x="829.932" y="297.422" fill="#FFFFFF" width="12.813" height="11.734"/>
			<rect x="800.734" y="297.422" fill="#FFFFFF" width="12.812" height="11.734"/>
			<rect x="742.335" y="297.422" fill="#FFFFFF" width="12.813" height="11.734"/>
			<rect x="537.904" y="297.422" fill="#FFFFFF" width="12.812" height="11.734"/>
			<rect x="713.132" y="297.422" fill="#FFFFFF" width="12.813" height="11.734"/>
			<rect x="596.31" y="297.422" fill="#FFFFFF" width="12.821" height="11.734"/>
			<rect x="654.729" y="297.422" fill="#FFFFFF" width="12.813" height="11.734"/>
			<rect x="479.5" y="297.422" fill="#FFFFFF" width="12.811" height="11.734"/>
			<rect x="508.699" y="297.422" fill="#FFFFFF" width="12.812" height="11.734"/>
			<rect x="567.104" y="297.422" fill="#FFFFFF" width="12.813" height="11.734"/>
			<rect x="888.334" y="297.422" fill="#FFFFFF" width="12.813" height="11.734"/>
			<rect x="917.532" y="297.422" fill="#FFFFFF" width="12.812" height="11.734"/>
		</g>
		<g>
			<rect x="450.297" y="361.361" fill="#FFFFFF" width="12.813" height="11.736"/>
			<rect x="625.521" y="361.361" fill="#FFFFFF" width="12.813" height="11.736"/>
			<rect x="683.931" y="361.361" fill="#FFFFFF" width="12.813" height="11.736"/>
			<rect x="771.535" y="361.361" fill="#FFFFFF" width="12.812" height="11.736"/>
			<rect x="859.134" y="361.361" fill="#FFFFFF" width="12.813" height="11.736"/>
			<rect x="829.932" y="361.361" fill="#FFFFFF" width="12.813" height="11.736"/>
			<rect x="800.734" y="361.361" fill="#FFFFFF" width="12.812" height="11.736"/>
			<rect x="742.335" y="361.361" fill="#FFFFFF" width="12.813" height="11.736"/>
			<rect x="537.904" y="361.361" fill="#FFFFFF" width="12.812" height="11.736"/>
			<rect x="713.132" y="361.361" fill="#FFFFFF" width="12.813" height="11.736"/>
			<rect x="596.31" y="361.361" fill="#FFFFFF" width="12.821" height="11.736"/>
			<rect x="654.729" y="361.361" fill="#FFFFFF" width="12.813" height="11.736"/>
			<rect x="479.5" y="361.361" fill="#FFFFFF" width="12.811" height="11.736"/>
			<rect x="508.699" y="361.361" fill="#FFFFFF" width="12.812" height="11.736"/>
			<rect x="567.104" y="361.361" fill="#FFFFFF" width="12.813" height="11.736"/>
			<rect x="888.334" y="361.361" fill="#FFFFFF" width="12.813" height="11.736"/>
			<rect x="917.532" y="361.361" fill="#FFFFFF" width="12.812" height="11.736"/>
		</g>
	</g>
	<rect x="-0.5" y="382.7" fill="#2D2C2C" width="1200" height="16.8"/>
	<path fill="#FFFFFF" d="M354.299,374.607c0,0-1.058-27.256,7.904-27.256c8.968,0,7.458,27.256,7.458,27.256H354.299z"/>
	<path fill="#FFFFFF" d="M374.256,374.607c0,0-1.061-27.256,7.904-27.256c8.968,0,7.456,27.256,7.456,27.256H374.256z"/>
	<path fill="#FFFFFF" d="M394.211,374.607c0,0-1.058-27.256,7.904-27.256c8.967,0,7.458,27.256,7.458,27.256H394.211z"/>
	<path fill="#FFFFFF" d="M414.17,374.607c0,0-1.061-27.256,7.904-27.256c8.967,0,7.458,27.256,7.458,27.256H414.17z"/>
	<path fill="#CCCCCC" d="M784.355,153.945c1.774,0,3.393,0.67,4.623,1.767c1.852-3.422,5.463-5.75,9.629-5.75
		c2.283,0,4.407,0.706,6.162,1.908c3.055-5.047,8.596-8.412,14.92-8.412c5.641,0,10.646,2.672,13.836,6.824
		c0.822-0.202,1.685-0.32,2.563-0.32c6.045,0,10.938,4.896,10.938,10.937h-69.62C777.404,157.059,780.52,153.945,784.355,153.945z"
		/>
	<path fill="#CCCCCC" d="M633.543,118.133c1.949,0,3.727,0.742,5.068,1.944c2.029-3.757,6-6.313,10.565-6.313
		c2.513,0,4.84,0.772,6.77,2.094c3.35-5.541,9.437-9.238,16.378-9.238c6.186,0,11.68,2.939,15.182,7.49
		c0.903-0.224,1.854-0.351,2.823-0.351c6.625,0,12,5.374,12,12h-76.423C625.908,121.55,629.328,118.133,633.543,118.133z"/>
	<path fill="#CCCCCC" d="M815.92,119.708c2.438,0,4.648,0.924,6.34,2.429c2.531-4.693,7.495-7.887,13.202-7.887
		c3.142,0,6.049,0.962,8.456,2.613c4.188-6.914,11.786-11.543,20.461-11.543c7.731,0,14.598,3.671,18.968,9.359
		c1.134-0.273,2.312-0.438,3.524-0.438c8.28,0,14.993,6.715,14.993,14.992h-95.483C806.381,123.977,810.65,119.708,815.92,119.708z"
		/>
	<path fill="#CCCCCC" d="M540.02,148.988c1.646,0,3.14,0.621,4.271,1.638c1.712-3.163,5.052-5.319,8.902-5.319
		c2.112,0,4.074,0.649,5.698,1.764c2.827-4.66,7.95-7.777,13.796-7.777c5.207,0,9.842,2.473,12.784,6.311
		c0.764-0.188,1.556-0.295,2.376-0.295c5.581,0,10.105,4.528,10.105,10.11h-64.366C533.589,151.865,536.467,148.988,540.02,148.988z
		"/>
	<path fill="#CCCCCC" d="M903.873,153.945c1.775,0,3.392,0.67,4.621,1.767c1.853-3.422,5.465-5.75,9.631-5.75
		c2.287,0,4.408,0.706,6.161,1.908c3.056-5.047,8.596-8.412,14.923-8.412c5.638,0,10.646,2.672,13.834,6.824
		c0.824-0.202,1.683-0.32,2.564-0.32c6.043,0,10.938,4.896,10.938,10.937h-69.621C896.922,157.059,900.036,153.945,903.873,153.945z
		"/>
	<path fill="#CCCCCC" d="M725.849,90.918c1.949,0,3.727,0.742,5.071,1.943c2.029-3.756,6-6.313,10.564-6.313
		c2.511,0,4.843,0.771,6.768,2.094c3.352-5.539,9.438-9.237,16.378-9.237c6.188,0,11.683,2.938,15.185,7.489
		c0.903-0.224,1.851-0.351,2.82-0.351c6.626,0,12,5.373,12,12h-76.42C718.218,94.337,721.635,90.918,725.849,90.918z"/>
	<path fill="#CCCCCC" d="M920.467,92.495c2.439,0,4.651,0.923,6.344,2.428c2.53-4.692,7.494-7.886,13.201-7.886
		c3.142,0,6.047,0.962,8.454,2.613c4.188-6.914,11.786-11.543,20.463-11.543c7.729,0,14.6,3.67,18.966,9.356
		c1.138-0.272,2.313-0.434,3.527-0.434c8.277,0,14.992,6.715,14.992,14.991H910.93C910.932,96.76,915.202,92.495,920.467,92.495z"/>
	<path fill="#CCCCCC" d="M659.539,148.988c1.644,0,3.137,0.621,4.269,1.638c1.712-3.163,5.054-5.319,8.901-5.319
		c2.116,0,4.075,0.649,5.699,1.764c2.829-4.66,7.95-7.777,13.796-7.777c5.207,0,9.842,2.473,12.785,6.311
		c0.763-0.188,1.555-0.295,2.376-0.295c5.581,0,10.104,4.528,10.104,10.11h-64.365C653.106,151.865,655.984,148.988,659.539,148.988
		z"/>
	<path fill="#CCCCCC" d="M1010.521,131.184c1.946,0,3.724,0.74,5.066,1.942c2.031-3.756,6-6.312,10.566-6.312
		c2.511,0,4.84,0.771,6.768,2.093c3.352-5.54,9.438-9.238,16.378-9.238c6.188,0,11.683,2.94,15.184,7.491
		c0.902-0.223,1.853-0.35,2.821-0.35c6.626,0,12,5.373,12,12h-76.423C1002.887,134.602,1006.306,131.184,1010.521,131.184z"/>
	<path fill="#CCCCCC" d="M512.099,94.604c2.439,0,4.651,0.924,6.344,2.43c2.529-4.694,7.493-7.887,13.2-7.887
		c3.141,0,6.049,0.961,8.454,2.611c4.188-6.914,11.787-11.542,20.463-11.542c7.729,0,14.599,3.67,18.97,9.359
		c1.132-0.274,2.31-0.435,3.523-0.435c8.281,0,14.993,6.715,14.993,14.991h-95.483C502.563,98.871,506.834,94.604,512.099,94.604z"
		/>
	<g>
		<rect x="41.819" y="351.002" fill="#FFFFFF" width="12.813" height="11.732"/>
		<rect x="129.428" y="351.002" fill="#FFFFFF" width="12.813" height="11.732"/>
		<rect x="71.022" y="351.002" fill="#FFFFFF" width="12.813" height="11.732"/>
		<rect x="100.222" y="351.002" fill="#FFFFFF" width="12.813" height="11.732"/>
		<rect x="41.819" y="331.963" fill="#FFFFFF" width="12.813" height="11.73"/>
		<rect x="129.428" y="331.963" fill="#FFFFFF" width="12.813" height="11.73"/>
		<rect x="71.022" y="331.963" fill="#FFFFFF" width="12.813" height="11.73"/>
		<rect x="100.222" y="331.963" fill="#FFFFFF" width="12.813" height="11.73"/>
	</g>
</g>
</svg>
