<?xml version="1.0" encoding="utf-8"?>
<!-- Generator: Adobe Illustrator 13.0.0, SVG Export Plug-In . SVG Version: 6.00 Build 14948)  -->
<!DOCTYPE svg PUBLIC "-//W3C//DTD SVG 1.1//EN" "http://www.w3.org/Graphics/SVG/1.1/DTD/svg11.dtd">
<svg version="1.1" id="Layer_1" xmlns="http://www.w3.org/2000/svg" xmlns:xlink="http://www.w3.org/1999/xlink" x="0px" y="0px"
	 width="1200px" height="400px" viewBox="0 1 1200 400" enable-background="new 0 1 1200 400" xml:space="preserve">
<g>
	<path fill="#CCCCCC" d="M832.3,289.689c-0.213-0.871-64.438-69.975-64.354-70.858c-0.646,0.573-1.31,1.125-1.979,1.663
		c-0.388-1.26,0.382-2.326,1.369-3.021c-0.354-0.687-0.716-1.378-1.063-2.063c-0.436,1.976-1.453,3.68-2.892,5.086
		c-0.621-0.51-1.239-1.02-1.856-1.527c0.054,0.309,0.154,0.93,0.215,1.244c0.41,0.508,0.81,1.035,1.146,1.602
		c-0.435-0.129-0.852-0.266-1.275-0.399c-0.111,0.09-0.349,0.271-0.461,0.354c-0.438-0.601-0.879-1.199-1.313-1.795
		c-0.827,0.801-1.711,1.531-2.673,2.155c0.294-1.571,0.718-3.384,2.549-3.743c0.406-0.975,0.853-1.941,1.325-2.895
		c-0.479,0.379-0.961,0.756-1.43,1.136c-0.442-0.146-0.877-0.286-1.313-0.426c-0.586,0.444-1.176,0.889-1.771,1.328
		c0.063-0.499,0.136-1.001,0.205-1.5c-1.043,0.167-2.101,0.146-3.106-0.188c1.234-2.166,2.488-4.33,3.802-6.451
		c-0.234-0.063-0.707-0.188-0.945-0.25c0.472-0.668,0.951-1.334,1.428-1.998c-0.75,0.438-1.492,0.873-2.264,1.272
		c-0.838,1.424-1.875,2.826-3.558,3.262c0.114-1.772,1.408-3.052,2.093-4.598c-0.982-0.478-2.046-0.756-3.133-0.874
		c0.842-0.896,2.008-1.335,3.055-1.928c-0.808-0.023-1.611-0.01-2.42,0.029c0.553-0.65,1.086-1.311,1.619-1.978
		c-0.253,0-0.759,0-1.016,0c0.843-0.958,0.708-2.22-0.62-1.108c-0.015-1.218-0.067-2.437-0.235-3.641
		c-0.117,1.646-0.128,3.288-0.212,4.934c-0.618-0.83-1.21-1.673-1.809-2.511c-0.119,0.416-0.229,0.833-0.341,1.253
		c0.746,1.027,1.195,2.221,1.308,3.479c-0.177,1.893-1.146,3.563-1.431,5.432c-0.191-0.256-0.586-0.771-0.782-1.025
		c-0.367,0.088-0.75,0.164-1.125,0.25c-0.332-0.342-0.671-0.679-1.008-1.014c0.015,0.34,0.047,1.02,0.06,1.357
		c-0.244-0.051-0.726-0.148-0.964-0.198c0.491,1.248,1.078,2.622,0.38,3.911c0.288,0.246,0.581,0.484,0.874,0.734
		c0.05,0.371,0.145,1.119,0.188,1.494c-0.586-0.271-1.159-0.544-1.732-0.824c-0.337,0.158-0.673,0.315-1.003,0.479
		c-0.164-0.438-0.328-0.871-0.49-1.301c-0.146,0.729-0.284,1.462-0.413,2.194c0.812,0.762,1.534,1.621,1.937,2.672
		c-0.273,0.015-0.83,0.043-1.104,0.056c0.404,0.938,0.784,1.896,1.102,2.873c0.616,0.288,1.245,0.573,1.863,0.874
		c-0.489,0.009-0.976,0.014-1.461,0.021c-0.356,0.49-0.72,0.98-1.075,1.478c0.254,0.263,0.515,0.524,0.771,0.79
		c-1.519,1.299-1.564,3.335-1.719,5.162c-1.138-0.461-1.271-1.43-0.906-2.474c-0.452,0.119-0.904,0.241-1.354,0.358
		c0.354-1.723,0.257-3.48-0.264-5.152c-0.069,0.371-0.211,1.121-0.28,1.491c-0.364,0.007-1.087,0.007-1.449,0.009
		c0.018-0.363,0.039-1.102,0.05-1.462c-0.328,0.354-0.653,0.712-0.979,1.073c-0.351-0.834-0.701-1.664-1.041-2.496
		c-0.631,0.949-1.724,1.896-1.182,3.145c0.288,0.104,0.872,0.311,1.159,0.414c0.182,1.139,0.406,2.269,0.641,3.396
		c0.47,0.356,0.938,0.722,1.406,1.087c-1.464-0.1-3.011-0.232-4.083-1.357c-1.188,1.801-0.208,3.713,0.271,5.551
		c-1.401-0.809-2.424-2.063-3.455-3.27c-0.238,0.408-0.472,0.827-0.702,1.235c-0.322-0.513-0.646-1.034-0.967-1.546
		c0.061,0.697,0.12,1.4,0.188,2.102c-0.278-0.137-0.843-0.4-1.123-0.533c0.146,0.607,0.3,1.225,0.451,1.844
		c-0.438,0.193-0.863,0.396-1.293,0.595c0.203-0.812,0.414-1.621,0.623-2.433c-0.351,0.352-0.692,0.707-1.041,1.062
		c-0.069-0.382-0.208-1.146-0.277-1.521c-0.028,0.854-0.053,1.713-0.067,2.57c-0.708-0.099-1.412-0.199-2.113-0.311
		c1.168,0.824,3.011,2.83,0.75,3.562c1.121,0.775,1.115,2.175,1.285,3.396c-0.286-0.034-0.867-0.088-1.156-0.118
		c0.297,0.6,0.595,1.198,0.901,1.8c-0.146,0.424-0.29,0.85-0.437,1.279c-0.236-0.497-0.468-0.989-0.703-1.481
		c-0.049,0.353-0.148,1.048-0.197,1.397c-0.48-0.741-0.965-1.465-1.451-2.194c0.227-0.146,0.668-0.431,0.887-0.573
		c-0.151-0.541-0.301-1.078-0.449-1.625c-0.676,0.075-1.352,0.147-2.031,0.229c-0.145-0.527-0.286-1.054-0.434-1.58
		c-0.559,0.04-1.116,0.082-1.668,0.125c-0.104-1.134,0.143-2.229,0.658-3.231c-0.478,0.35-0.949,0.697-1.426,1.053
		c-0.318-0.707-0.639-1.416-0.951-2.123c-0.399,0.586-0.8,1.18-1.188,1.771c1.087,1.076,0.06,1.968-0.935,2.534
		c0.658-1.913-1.091-3.604-2.979-2.946c0.404-0.61,0.618-1.304,0.676-2.036c0.28-0.271,0.561-0.549,0.852-0.82
		c0.033-0.547,0.063-1.096,0.102-1.644c-0.956,0.368-1.915,0.733-2.88,1.063c0.479-1.297,1.256-2.469,2.448-3.213
		c-0.146-0.852-0.296-1.699-0.442-2.551c-0.076,0.239-0.24,0.715-0.322,0.951c-1.411,0.672-1.938,2.223-2.654,3.497
		c-0.151-0.521-0.302-1.028-0.452-1.542c-0.276,1.157-0.581,2.311-0.949,3.445c-0.546-1.141-0.37-2.419-0.353-3.639
		c-0.739-0.164-1.479-0.338-2.218-0.502c1.883-1.347,4.192-1.979,5.936-3.543c-1.059,0.271-2.104,0.59-3.149,0.907
		c0.141-0.528,0.271-1.05,0.405-1.577c-0.993-0.313-1.621-1.027-1.771-2.056c0.275-0.06,0.837-0.158,1.115-0.211
		c0.549-1.173,0.76-2.454,0.782-3.743c-0.459,0.852-0.892,1.715-1.313,2.577c-0.232-0.604-0.462-1.21-0.688-1.813
		c-0.432,0.504-0.864,1.004-1.299,1.51c-0.01-0.811-0.005-1.613,0.015-2.424c-0.646,0.935-1.676,1.271-2.769,1.315
		c0.295-2.2,2.794-2.892,4.025-4.487c-0.313-0.57-0.621-1.154-0.929-1.729c-0.385,0.479-0.76,0.973-1.141,1.456
		c-0.027-0.208-0.082-0.639-0.109-0.848c-1.383,1.414-3.015,2.541-4.457,3.877c-0.594,0.565-1.952,1.197-2.366,0.141
		c0.521-1.523,0.166-3.438,1.639-4.482c-2.094-1.615-1.426-4.072-0.317-6.05c-0.425-0.099-0.85-0.19-1.271-0.284
		c-0.134,0.146-0.395,0.442-0.528,0.588c-0.05-0.304-0.142-0.914-0.19-1.222c-0.197,0.56-0.392,1.106-0.577,1.669
		c-0.618-0.607-1.254-1.197-1.901-1.777c0.242-1.731,1.462-3.018,2.354-4.438c-0.713,0.499-1.411,1.022-2.092,1.562
		c0.1-1.517,0.147-3.031,0.151-4.548l-0.539-0.009c-0.01,1.611-0.004,3.272-0.728,4.75c1.138,2.367,0.058,4.974,0.314,7.468
		c-0.377,0.118-0.75,0.246-1.127,0.37c0.166-1.86-0.504-2.517-2.086-1.37c0.015-0.348,0.032-0.691,0.049-1.033
		c-0.852-0.19-1.705-0.403-2.552-0.621c0.226,0.627,0.464,1.25,0.69,1.882c1.272,0.579,2.397,1.43,3.335,2.472
		c-0.162,0.383-0.322,0.771-0.479,1.15c0.415,1.009,0.981,2.187,0.095,3.13c-0.385-0.043-0.771-0.084-1.154-0.122
		c-0.179,0.229-0.539,0.682-0.712,0.904c-0.392-0.823-0.771-1.648-1.146-2.478c-0.507,0.19-1.011,0.392-1.515,0.584
		c-0.005-0.315-0.016-0.637-0.021-0.946c-0.495-0.535-0.982-1.066-1.478-1.604c-1.534,1.489-0.163,2.84,1.313,3.55
		c-0.546,1.131-1.214,2.201-2.08,3.11c-0.256-0.798-0.512-1.587-0.753-2.371c-0.369,0.315-0.753,0.631-1.125,0.946
		c0.03,0.5,0.053,1.004,0.072,1.509c-0.608-0.921-1.058-1.931-1.386-2.979c-0.251,0.271-0.504,0.543-0.753,0.807
		c-0.036-0.566-0.069-1.145-0.104-1.713c-0.613,0.561-1.313,1.037-2.146,1.188c1.165,0.891,2.139,2.002,2.903,3.25
		c-0.544-0.268-1.072-0.538-1.611-0.809c-0.899,2.146,1.294,3.188,1.875,4.971c-0.763-0.027-1.529-0.063-2.292-0.084
		c-0.194,1.383-0.813,2.639-1.319,3.924c-0.785,0.364-1.557,0.018-2.279-0.333c0.46-0.06,1.373-0.183,1.83-0.244
		c-0.353-1.829-0.922-3.608-1.273-5.44c-0.281,0.729-0.566,1.457-0.854,2.186c-0.248-0.016-0.731-0.042-0.976-0.05
		c-0.1-0.283-0.291-0.854-0.386-1.142c-0.85,0.621-1.696,1.23-2.554,1.84c-0.029-0.814-0.071-1.635-0.113-2.448
		c-0.375,0.338-0.75,0.666-1.115,1.008c-0.168-0.226-0.501-0.676-0.67-0.899c-0.09,0.375-0.178,0.74-0.267,1.11
		c-0.127-0.08-0.365-0.243-0.485-0.323c-0.525,0.252-1.044,0.502-1.563,0.752c0.385-0.819,0.593-1.699,0.46-2.604
		c-0.693,0.595-1.379,1.205-2.066,1.806c0.639-1.486,0.977-3.066,1.391-4.617c1.071-1.25,2.502-2.396,2.214-4.246
		c-0.962,0.978-2.148,1.619-3.532,1.229c-0.045,0.563-0.077,1.131-0.11,1.697c-0.366-0.354-0.73-0.701-1.095-1.053
		c0.474-0.852,0.941-1.703,1.411-2.56c-0.3,0.029-0.903,0.095-1.205,0.118c-0.131-1.229,0.233-2.391,0.837-3.449
		c-3.002-2.058,0.604-3.895,1.805-5.771c-1.055,0.479-2.077,1.015-3.104,1.552c-0.045-1.435-0.053-2.859-0.14-4.291
		c-0.106,0.983-0.173,1.979-0.23,2.976c-0.277-0.144-0.837-0.422-1.109-0.563c0.429,0.802,0.855,1.601,1.309,2.39
		c-0.79-0.499-1.627-0.938-2.526-1.197c1.95,1.437,2.951,3.61,2.121,5.983c-0.248,0.382-0.491,0.772-0.729,1.166
		c-0.338,0.168-0.673,0.336-1.006,0.504c-0.225,0.442-0.45,0.89-0.673,1.332c-0.274-0.396-0.548-0.79-0.815-1.188
		c-0.3,0.188-0.6,0.375-0.896,0.566c-0.242-0.125-0.481-0.252-0.723-0.38c-0.472,0.229-0.949,0.448-1.416,0.672
		c0.05-0.489,0.107-0.981,0.16-1.472c-0.854,0.313-1.717,0.637-2.563,0.961c-0.188-0.199-0.556-0.594-0.744-0.791
		c-0.822,0.375-1.646,0.732-2.493,1.047c0.35-0.84,0.707-1.672,1.078-2.497c-0.373,0.028-1.125,0.073-1.503,0.104
		c0.919-1.849,3.104-2.373,4.592-3.65c-0.792-0.172-1.58-0.354-2.374-0.521c0.074-1.439,0.785-2.688,2.103-3.349
		c0.052-0.247,0.092-0.489,0.146-0.733c-0.176-0.189-0.518-0.563-0.688-0.756c0.979-0.873,2.186-1.414,3.467-1.678
		c-1.1-0.355-1.513-1.416-1.853-2.414c-0.545,0.112-1.088,0.227-1.632,0.34c0.132-0.484,0.266-0.967,0.396-1.452
		c-0.296,0.118-0.879,0.346-1.172,0.463c0.248-0.77,0.501-1.54,0.75-2.306c-1.27,0.687-2.559,1.401-3.438,2.592
		c-0.183-0.005-0.544-0.014-0.729-0.014c-0.38,1.309-0.906,2.592-1.813,3.635c-0.307-1.137-0.583-2.279-0.914-3.406
		c0.579,0.029,1.158,0.056,1.742,0.084c0.063-0.559,0.142-1.113,0.211-1.67c1.425-0.178,2.305-1.316,1.336-2.578
		c0.845-0.669,1.84-1.065,2.873-1.317c0.605-1.032,1.151-2.098,1.634-3.194c-0.938,0.421-1.813,0.964-2.61,1.615
		c-0.035-0.669-0.082-1.331-0.129-1.999c-0.512,0.533-1.008,1.064-1.521,1.589c-0.208-1.154-0.084-2.32,0.206-3.446
		c-0.496,0.322-0.988,0.646-1.479,0.973c-0.033-0.799-0.075-1.596-0.117-2.396c-0.406,1.072-0.729,2.179-1.021,3.293
		c-0.188-0.188-0.38-0.375-0.563-0.56c-0.271,1.19-1.216,1.851-2.29,2.273c0.313-0.845,0.653-1.681,1.004-2.51
		c-0.578,0.163-1.146,0.321-1.729,0.484c0.232-0.4,0.47-0.799,0.705-1.194c-0.399-0.533-0.799-1.066-1.189-1.599
		c-0.095,0.635-0.179,1.274-0.269,1.908c-0.449-2.001-1.703-2.83-3.447-1.474c0.112-0.41,0.217-0.823,0.33-1.228
		c1.642,0.055,3.026-0.687,3.763-2.161c-0.986,0.366-1.97,0.757-2.955,1.131c0.352-0.472,0.696-0.945,1.055-1.416
		c-0.265-0.029-0.78-0.089-1.043-0.123c0.649-0.657,1.306-1.313,1.964-1.96c-0.265-0.216-0.521-0.435-0.779-0.65
		c1.094-0.167,2.177-0.415,3.16-0.934c-0.354-0.153-1.067-0.46-1.433-0.614c0.229-0.454,0.451-0.907,0.674-1.358
		c-0.656,0.036-1.313,0.08-1.974,0.112c-0.688,2.188-1.883,4.296-4.249,4.935c0.323-1.177,0.649-2.352,0.989-3.526
		c-0.688,0.169-1.389,0.336-2.074,0.504c1.49-2.405,4.015-3.381,6.368-4.656c-0.718,0.029-1.436,0.064-2.152,0.099
		c1.19-1.793,2.923-3.149,4.05-4.986c-1.579,1.15-2.884,2.623-4.308,3.955c0.151-0.81,0.298-1.611,0.436-2.425
		c-0.782,1.042-1.19,2.285-1.514,3.526c-0.429-0.08-0.854-0.154-1.283-0.236c0.278-0.353,0.562-0.703,0.843-1.058
		c-0.646,0.103-1.281,0.204-1.933,0.307c0.512-1.392,1.051-2.775,1.478-4.193c-0.595,0.751-1.143,1.55-1.648,2.366
		c-0.172-0.451-0.346-0.905-0.52-1.354c-0.095,0.84-0.179,1.688-0.261,2.53c-0.433,0.089-0.856,0.178-1.282,0.271
		c0.141,0.538,0.289,1.078,0.436,1.616c-0.211,0.048-0.639,0.141-0.85,0.182c-0.219,0.929-0.521,1.836-0.985,2.667
		c-0.089-0.996-0.116-1.995-0.132-2.998c0.261-0.214,0.529-0.435,0.789-0.653c-1.092-0.845,0.104-1.942,0.428-2.871
		c-0.34,0.025-1.006,0.066-1.344,0.084c0.61-0.867,1.392-1.591,2.24-2.228c-0.39,0.004-1.162,0.02-1.553,0.029
		c-0.295-1.162-0.452-2.35-0.543-3.545c-0.133,0.578-0.259,1.152-0.391,1.733c-0.676-0.613-1.521-0.728-2.387-0.528
		c0.797,0.662,1.605,1.305,2.411,1.96c-0.993,0.542-1.931,1.188-2.797,1.91c0.537,0.641,1.083,1.277,1.629,1.911
		c0.019,0.686,0.033,1.377,0.054,2.064c0.235,0.233,0.474,0.465,0.713,0.701c-0.185,1.032-0.286,2.079-0.354,3.124
		c-0.428,0.205-0.852,0.407-1.279,0.608c-0.302-1.921-0.399-3.862-0.505-5.807c-0.105,0.812-0.2,1.621-0.295,2.434
		c-0.467,0.178-0.938,0.36-1.405,0.538c0.006-0.552,0.015-1.102,0.028-1.653c-0.188-0.029-0.558-0.084-0.741-0.112
		c-0.334-0.884-0.69-1.784-1.462-2.372c0.116,0.905,0.28,1.807,0.449,2.702c-1.061-0.554-2.146-1.067-3.267-1.471
		c0.761,1.09,1.804,1.929,2.829,2.755c-0.825,0.029-1.648,0.05-2.479,0.074c0.269,1.195,0.524,2.391,0.779,3.591
		c-0.295,0.121-0.888,0.365-1.181,0.485c0.602,0.504,1.209,1.008,1.812,1.512c-2.925,1.056-3.818-3.475-5.133-5.327
		c0.146,1.051,0.323,2.093,0.521,3.133c-0.797-0.71-1.661-1.354-2.604-1.862c0.484,0.756,1.003,1.491,1.537,2.212
		c-0.161,0.219-0.479,0.648-0.644,0.861c1.162,0.315,2.308,0.711,3.436,1.14c-0.279,0.646-0.555,1.289-0.828,1.937
		c-0.605-0.273-1.229-0.533-1.845-0.794c0.7,1.486,1.597,2.874,2.812,3.989c0.005,1.466,1.236,2.258,2.35,2.95
		c-0.718-0.063-1.442-0.029-1.877,0.65c-0.621-1.443-1.354-2.849-2.438-4.001c-0.229,0.021-0.688,0.064-0.914,0.084
		c-0.248-0.728-0.497-1.462-0.76-2.185c-0.32,1.191-0.268,2.421-0.137,3.636c-2.192,0.65-2.842-1.545-3.116-3.265
		c-0.07,0.843-0.146,1.683-0.218,2.528c-0.654-0.272-1.313-0.538-1.959-0.809c0.521,0.839,1.055,1.682,1.576,2.522
		c-0.524-0.055-1.057-0.113-1.576-0.168c1.36,0.889,2.562,1.99,3.587,3.254c-0.244,0.021-0.73,0.064-0.979,0.089
		c-0.049,0.478-0.094,0.953-0.144,1.427c-0.632-0.261-1.253-0.527-1.88-0.785c0.117,2.187-0.93,4.366-0.151,6.482
		c-1.803-0.979-2.744-2.888-4.133-4.311c-0.175,1.393,0.599,2.604,1.153,3.818c-1.438-0.415-3.096-0.42-4.205-1.56
		c1.229-0.419,1.774-1.442,1.848-2.682c-0.698,0.335-1.396,0.676-2.094,1.017c0.287-0.804,0.594-1.599,0.912-2.391
		c-0.789,0.579-1.582,1.145-2.375,1.704c-0.229-0.208-0.453-0.419-0.677-0.636c-0.069,0.668-0.147,1.337-0.223,2.01
		c-0.185-0.588-0.356-1.172-0.539-1.758c0.586-0.681,1.158-1.372,1.718-2.073c-0.646,0.188-1.285,0.378-1.934,0.563
		c-0.104-0.28-0.313-0.845-0.417-1.125c1.024-0.799,2.067-1.555,3.179-2.228c-0.291-0.01-0.875-0.028-1.163-0.039
		c0.188-0.652,0.363-1.31,0.517-1.979c-1.883,1.313-3.06,3.426-4.983,4.661c-0.931,0.233-0.449-0.932-0.246-1.383
		c-0.375-0.504-0.375-1.121-0.354-1.718c-0.338,0.286-0.67,0.572-1.008,0.854c-0.262-0.653-0.524-1.306-0.783-1.96
		c-0.237,1.195-0.557,2.375-0.982,3.516c-0.584-0.603-0.951-1.352-1.146-2.138c1.133-0.471,2.082-1.272-0.024-1.616
		c0.422-0.266,0.837-0.527,1.256-0.79c-0.229-0.424-0.417-0.864-0.594-1.31c0.423-0.586,1.009-1.065,1.766-1.356
		c-0.733,0.064-1.478,0.12-2.215,0.173c-0.011-0.027-0.021-0.054-0.026-0.082c0.76-0.521,1.538-1.03,2.307-1.55
		c-0.877,0.22-1.752,0.463-2.623,0.703c-0.01-0.02-0.017-0.041-0.021-0.058c-0.006-0.946-0.006-1.891-0.013-2.842
		c-0.213,0.302-0.43,0.607-0.646,0.905c-0.203-0.513-0.4-1.028-0.612-1.541c0.114,0.978,0.274,1.949,0.456,2.913
		c-0.34-0.126-0.688-0.232-1.034-0.328c0.124-0.101,0.249-0.199,0.373-0.302c-0.388,0.012-0.771,0.063-1.146,0.129
		c-0.375-0.067-0.756-0.117-1.143-0.129c0.122,0.104,0.249,0.202,0.37,0.302c-0.351,0.096-0.698,0.199-1.035,0.328
		c0.185-0.964,0.34-1.936,0.459-2.913c-0.213,0.513-0.413,1.028-0.614,1.541c-0.22-0.3-0.435-0.603-0.648-0.905
		c-0.004,0.951-0.004,1.898-0.01,2.842c-0.004,0.019-0.015,0.038-0.021,0.058c-0.87-0.243-1.746-0.483-2.623-0.703
		c0.77,0.518,1.547,1.026,2.313,1.55c-0.014,0.026-0.022,0.053-0.033,0.082c-0.735-0.054-1.479-0.109-2.215-0.173
		c0.764,0.291,1.35,0.77,1.771,1.356c-0.179,0.446-0.366,0.886-0.597,1.31c0.42,0.262,0.834,0.524,1.254,0.79
		c-2.106,0.344-1.154,1.147-0.024,1.616c-0.19,0.786-0.563,1.535-1.146,2.138c-0.43-1.141-0.75-2.32-0.985-3.516
		c-0.263,0.652-0.521,1.308-0.782,1.96c-0.336-0.283-0.673-0.568-1.009-0.854c0.019,0.598,0.019,1.214-0.354,1.718
		c0.203,0.451,0.683,1.616-0.246,1.383c-1.924-1.234-3.102-3.348-4.987-4.661c0.154,0.667,0.327,1.327,0.519,1.979
		c-0.291,0.011-0.874,0.029-1.16,0.039c1.105,0.672,2.148,1.428,3.173,2.228c-0.103,0.28-0.312,0.845-0.415,1.125
		c-0.643-0.188-1.289-0.378-1.932-0.563c0.558,0.701,1.13,1.392,1.718,2.073c-0.178,0.586-0.353,1.169-0.537,1.758
		c-0.074-0.672-0.151-1.342-0.225-2.01c-0.226,0.214-0.45,0.425-0.67,0.636c-0.794-0.559-1.595-1.125-2.38-1.704
		c0.315,0.794,0.621,1.586,0.909,2.391c-0.695-0.341-1.393-0.682-2.091-1.017c0.065,1.24,0.616,2.263,1.845,2.682
		c-1.112,1.14-2.769,1.145-4.202,1.56c0.557-1.214,1.327-2.428,1.153-3.818c-1.389,1.423-2.332,3.328-4.133,4.311
		c0.773-2.117-0.271-4.296-0.154-6.482c-0.625,0.258-1.249,0.524-1.88,0.785c-0.049-0.475-0.096-0.951-0.143-1.427
		c-0.246-0.025-0.731-0.066-0.979-0.089c1.023-1.268,2.226-2.366,3.588-3.254c-0.521,0.055-1.051,0.113-1.576,0.168
		c0.525-0.84,1.055-1.683,1.576-2.522c-0.648,0.271-1.304,0.537-1.961,0.809c-0.072-0.847-0.146-1.688-0.214-2.528
		c-0.272,1.719-0.923,3.915-3.119,3.265c0.139-1.215,0.188-2.445-0.135-3.636c-0.26,0.722-0.508,1.457-0.757,2.185
		c-0.229-0.02-0.688-0.063-0.914-0.084c-1.083,1.152-1.813,2.558-2.433,4.001c-0.438-0.678-1.163-0.715-1.883-0.65
		c1.11-0.691,2.342-1.486,2.35-2.95c1.214-1.116,2.111-2.501,2.813-3.989c-0.619,0.261-1.239,0.518-1.846,0.794
		c-0.273-0.65-0.546-1.293-0.827-1.937c1.125-0.429,2.271-0.825,3.432-1.14c-0.156-0.213-0.479-0.645-0.641-0.861
		c0.532-0.724,1.051-1.457,1.535-2.212c-0.939,0.508-1.807,1.152-2.604,1.862c0.193-1.041,0.375-2.082,0.519-3.133
		c-1.313,1.853-2.208,6.383-5.133,5.327c0.602-0.504,1.211-1.008,1.813-1.512c-0.296-0.12-0.889-0.364-1.185-0.485
		c0.258-1.2,0.513-2.396,0.779-3.591c-0.824-0.023-1.654-0.047-2.479-0.074c1.026-0.826,2.069-1.666,2.831-2.755
		c-1.125,0.401-2.21,0.914-3.271,1.471c0.174-0.897,0.336-1.797,0.453-2.702c-0.77,0.588-1.13,1.491-1.46,2.372
		c-0.188,0.028-0.556,0.083-0.745,0.112c0.015,0.552,0.027,1.102,0.03,1.653c-0.467-0.178-0.939-0.359-1.404-0.538
		c-0.094-0.811-0.188-1.62-0.295-2.434c-0.104,1.944-0.198,3.886-0.504,5.807c-0.432-0.202-0.854-0.403-1.284-0.608
		c-0.065-1.045-0.169-2.092-0.353-3.124c0.239-0.233,0.477-0.465,0.712-0.701c0.018-0.687,0.038-1.378,0.053-2.064
		c0.546-0.634,1.092-1.27,1.626-1.911c-0.867-0.722-1.803-1.368-2.796-1.91c0.804-0.653,1.614-1.298,2.413-1.96
		c-0.866-0.199-1.713-0.084-2.388,0.528c-0.129-0.579-0.258-1.152-0.392-1.733c-0.087,1.195-0.245,2.381-0.542,3.545
		c-0.389-0.01-1.163-0.025-1.549-0.029c0.844,0.636,1.622,1.358,2.235,2.228c-0.335-0.017-1.003-0.06-1.34-0.084
		c0.32,0.932,1.517,2.029,0.424,2.871c0.261,0.218,0.526,0.438,0.79,0.653c-0.015,1.003-0.044,2.001-0.134,2.998
		c-0.465-0.831-0.767-1.738-0.981-2.667c-0.219-0.041-0.643-0.135-0.852-0.182c0.143-0.538,0.295-1.078,0.434-1.616
		c-0.424-0.094-0.854-0.182-1.281-0.271c-0.084-0.845-0.168-1.69-0.263-2.53c-0.174,0.449-0.347,0.9-0.519,1.354
		c-0.509-0.815-1.052-1.615-1.649-2.366c0.432,1.418,0.969,2.801,1.478,4.193c-0.646-0.103-1.284-0.204-1.927-0.307
		c0.278,0.355,0.558,0.706,0.839,1.058c-0.43,0.082-0.854,0.154-1.287,0.236c-0.32-1.244-0.728-2.484-1.512-3.526
		c0.138,0.813,0.28,1.615,0.434,2.425c-1.422-1.333-2.727-2.802-4.305-3.955c1.127,1.837,2.854,3.193,4.045,4.986
		c-0.717-0.034-1.433-0.069-2.153-0.099c2.357,1.275,4.882,2.251,6.37,4.656c-0.688-0.167-1.383-0.337-2.073-0.504
		c0.337,1.174,0.668,2.35,0.991,3.526c-2.367-0.639-3.563-2.748-4.255-4.935c-0.658-0.033-1.313-0.076-1.972-0.112
		c0.224,0.451,0.448,0.905,0.674,1.358c-0.358,0.153-1.074,0.46-1.431,0.614c0.987,0.519,2.069,0.767,3.162,0.934
		c-0.258,0.213-0.519,0.435-0.78,0.65c0.658,0.648,1.313,1.301,1.967,1.96c-0.264,0.034-0.777,0.094-1.043,0.123
		c0.355,0.47,0.708,0.943,1.052,1.416c-0.986-0.374-1.969-0.765-2.958-1.131c0.738,1.477,2.126,2.219,3.763,2.161
		c0.114,0.405,0.221,0.818,0.333,1.228c-1.746-1.354-2.998-0.527-3.45,1.474c-0.089-0.634-0.173-1.275-0.268-1.908
		c-0.395,0.532-0.788,1.063-1.189,1.597c0.239,0.396,0.474,0.795,0.703,1.195c-0.572-0.163-1.146-0.321-1.729-0.484
		c0.353,0.83,0.69,1.666,1.003,2.51c-1.073-0.425-2.017-1.083-2.288-2.272c-0.188,0.188-0.377,0.375-0.563,0.56
		c-0.291-1.112-0.619-2.218-1.026-3.293c-0.04,0.799-0.084,1.599-0.115,2.396c-0.489-0.327-0.986-0.65-1.479-0.973
		c0.289,1.126,0.413,2.292,0.204,3.446c-0.513-0.522-1.013-1.056-1.522-1.589c-0.044,0.668-0.094,1.33-0.126,1.999
		c-0.799-0.65-1.677-1.198-2.61-1.615c0.481,1.097,1.025,2.162,1.633,3.194c1.039,0.252,2.032,0.648,2.874,1.317
		c-0.968,1.26-0.087,2.4,1.338,2.578c0.07,0.557,0.147,1.111,0.211,1.67c0.579-0.028,1.16-0.055,1.739-0.084
		c-0.328,1.126-0.606,2.271-0.912,3.406c-0.904-1.043-1.434-2.328-1.813-3.635c-0.182,0-0.546,0.009-0.728,0.014
		c-0.879-1.191-2.17-1.906-3.439-2.592c0.248,0.766,0.504,1.536,0.75,2.306c-0.295-0.117-0.877-0.345-1.17-0.463
		c0.131,0.485,0.266,0.967,0.397,1.452c-0.546-0.113-1.09-0.228-1.631-0.34c-0.341,0.997-0.755,2.059-1.853,2.414
		c1.283,0.262,2.488,0.805,3.466,1.678c-0.169,0.19-0.511,0.563-0.686,0.756c0.048,0.244,0.095,0.486,0.139,0.733
		c1.314,0.662,2.026,1.906,2.104,3.349c-0.794,0.168-1.584,0.353-2.374,0.522c1.486,1.274,3.672,1.803,4.591,3.647
		c-0.38-0.028-1.13-0.074-1.502-0.104c0.37,0.826,0.731,1.658,1.078,2.498c-0.847-0.313-1.671-0.672-2.494-1.047
		c-0.188,0.196-0.556,0.589-0.742,0.791c-0.852-0.326-1.708-0.647-2.563-0.961c0.049,0.489,0.107,0.979,0.161,1.472
		c-0.469-0.225-0.943-0.441-1.418-0.672c-0.238,0.128-0.477,0.252-0.719,0.38c-0.299-0.19-0.599-0.38-0.896-0.565
		c-0.271,0.396-0.542,0.795-0.818,1.188c-0.223-0.443-0.447-0.889-0.673-1.332c-0.331-0.168-0.666-0.336-1.003-0.504
		c-0.236-0.396-0.479-0.784-0.729-1.166c-0.83-2.373,0.173-4.549,2.119-5.984c-0.899,0.258-1.733,0.696-2.523,1.198
		c0.446-0.789,0.883-1.588,1.308-2.39c-0.275,0.143-0.832,0.424-1.11,0.563c-0.057-0.996-0.122-1.988-0.229-2.975
		c-0.086,1.429-0.096,2.855-0.144,4.291c-1.025-0.537-2.048-1.071-3.104-1.551c1.2,1.879,4.806,3.715,1.804,5.771
		c0.601,1.062,0.965,2.222,0.836,3.449c-0.301-0.026-0.904-0.089-1.207-0.118c0.472,0.854,0.939,1.708,1.416,2.559
		c-0.364,0.353-0.729,0.701-1.092,1.054c-0.04-0.566-0.075-1.132-0.113-1.697c-1.383,0.396-2.572-0.252-3.536-1.229
		c-0.291,1.852,1.142,2.996,2.212,4.246c0.415,1.551,0.752,3.133,1.392,4.619c-0.689-0.602-1.37-1.212-2.065-1.807
		c-0.137,0.906,0.072,1.785,0.457,2.605c-0.52-0.25-1.036-0.5-1.561-0.752c-0.122,0.078-0.366,0.242-0.484,0.322
		c-0.095-0.369-0.184-0.734-0.271-1.109c-0.168,0.227-0.499,0.676-0.668,0.898c-0.368-0.342-0.743-0.67-1.115-1.008
		c-0.042,0.813-0.084,1.636-0.116,2.447c-0.854-0.605-1.704-1.219-2.554-1.84c-0.091,0.285-0.286,0.854-0.384,1.143
		c-0.246,0.008-0.729,0.033-0.978,0.05c-0.291-0.729-0.573-1.453-0.854-2.187c-0.358,1.832-0.924,3.611-1.272,5.441
		c0.449,0.063,1.366,0.184,1.825,0.244c-0.719,0.35-1.494,0.697-2.278,0.333c-0.51-1.285-1.125-2.541-1.322-3.924
		c-0.759,0.022-1.526,0.057-2.292,0.084c0.584-1.781,2.78-2.821,1.877-4.97c-0.537,0.271-1.069,0.543-1.61,0.808
		c0.766-1.248,1.736-2.36,2.906-3.25c-0.839-0.147-1.535-0.627-2.151-1.187c-0.032,0.567-0.064,1.146-0.104,1.713
		c-0.246-0.268-0.499-0.533-0.75-0.808c-0.328,1.054-0.776,2.062-1.388,2.979c0.021-0.506,0.047-1.01,0.071-1.51
		c-0.369-0.314-0.75-0.631-1.125-0.945c-0.239,0.789-0.497,1.574-0.75,2.371c-0.869-0.909-1.538-1.979-2.081-3.11
		c1.476-0.71,2.847-2.062,1.312-3.55c-0.49,0.537-0.979,1.068-1.478,1.604c-0.003,0.313-0.013,0.631-0.018,0.947
		c-0.504-0.197-1.008-0.393-1.512-0.584c-0.379,0.826-0.758,1.65-1.146,2.477c-0.176-0.225-0.537-0.678-0.715-0.903
		c-0.384,0.038-0.77,0.079-1.158,0.122c-0.886-0.945-0.314-2.121,0.098-3.131c-0.155-0.383-0.313-0.771-0.479-1.149
		c0.934-1.042,2.062-1.894,3.335-2.472c0.229-0.633,0.466-1.256,0.691-1.883c-0.845,0.215-1.699,0.432-2.553,0.621
		c0.017,0.344,0.038,0.688,0.05,1.033c-1.582-1.146-2.253-0.49-2.087,1.371c-0.372-0.126-0.747-0.252-1.125-0.371
		c0.259-2.496-0.819-5.1,0.315-7.467c-0.725-1.477-0.72-3.136-0.727-4.75l-0.537,0.009c0.01,1.519,0.054,3.034,0.151,4.549
		c-0.683-0.539-1.378-1.063-2.094-1.563c0.895,1.424,2.112,2.707,2.355,4.438c-0.647,0.582-1.284,1.17-1.903,1.778
		c-0.188-0.563-0.379-1.11-0.575-1.669c-0.053,0.307-0.146,0.918-0.191,1.221c-0.135-0.145-0.396-0.438-0.53-0.588
		c-0.424,0.094-0.846,0.188-1.271,0.285c1.105,1.977,1.775,4.432-0.315,6.049c1.472,1.047,1.116,2.959,1.638,4.483
		c-0.415,1.06-1.774,0.428-2.364-0.14c-1.451-1.336-3.078-2.461-4.463-3.877c-0.026,0.209-0.082,0.639-0.108,0.847
		c-0.38-0.483-0.753-0.976-1.138-1.456c-0.308,0.572-0.615,1.154-0.929,1.73c1.23,1.6,3.729,2.289,4.024,4.486
		c-1.093-0.048-2.124-0.384-2.77-1.314c0.021,0.807,0.023,1.612,0.016,2.424c-0.436-0.506-0.87-1.006-1.299-1.51
		c-0.226,0.603-0.455,1.209-0.688,1.813c-0.424-0.863-0.854-1.729-1.313-2.577c0.021,1.289,0.235,2.57,0.784,3.743
		c0.279,0.053,0.834,0.152,1.113,0.211c-0.149,1.025-0.778,1.743-1.773,2.055c0.134,0.528,0.271,1.049,0.404,1.578
		c-1.047-0.318-2.093-0.638-3.151-0.908c1.741,1.564,4.054,2.197,5.936,3.543c-0.736,0.164-1.478,0.338-2.217,0.502
		c0.019,1.221,0.19,2.498-0.354,3.64c-0.367-1.136-0.675-2.288-0.951-3.445c-0.149,0.515-0.298,1.021-0.449,1.542
		c-0.726-1.273-1.248-2.824-2.658-3.497c-0.082-0.237-0.246-0.717-0.326-0.95c-0.146,0.851-0.295,1.698-0.438,2.551
		c1.189,0.744,1.97,1.916,2.448,3.212c-0.968-0.328-1.924-0.693-2.883-1.063c0.038,0.547,0.068,1.092,0.102,1.643
		c0.291,0.272,0.566,0.554,0.85,0.82c0.056,0.733,0.271,1.426,0.677,2.037c-1.894-0.658-3.642,1.033-2.982,2.946
		c-0.991-0.563-2.019-1.456-0.932-2.534c-0.392-0.591-0.787-1.184-1.188-1.77c-0.318,0.707-0.636,1.416-0.956,2.123
		c-0.475-0.354-0.944-0.703-1.424-1.053c0.519,1.004,0.763,2.1,0.659,3.23c-0.552-0.043-1.11-0.085-1.668-0.125
		c-0.144,0.525-0.289,1.053-0.435,1.58c-0.678-0.08-1.354-0.152-2.032-0.229c-0.143,0.547-0.295,1.084-0.447,1.625
		c0.221,0.146,0.664,0.43,0.889,0.572c-0.487,0.729-0.974,1.453-1.453,2.193c-0.047-0.35-0.15-1.049-0.199-1.396
		c-0.231,0.492-0.464,0.984-0.701,1.48c-0.143-0.432-0.291-0.854-0.434-1.278c0.311-0.603,0.606-1.2,0.901-1.8
		c-0.291,0.029-0.869,0.084-1.159,0.117c0.173-1.221,0.169-2.616,1.286-3.395c-2.254-0.729-0.417-2.738,0.752-3.561
		c-0.7,0.106-1.405,0.211-2.111,0.31c-0.021-0.858-0.042-1.716-0.07-2.571c-0.068,0.375-0.208,1.14-0.278,1.521
		c-0.348-0.354-0.693-0.71-1.043-1.063c0.212,0.813,0.419,1.621,0.626,2.434c-0.429-0.196-0.857-0.396-1.294-0.596
		c0.151-0.619,0.303-1.232,0.449-1.844c-0.278,0.133-0.841,0.397-1.12,0.534c0.063-0.698,0.127-1.401,0.187-2.101
		c-0.321,0.511-0.644,1.033-0.966,1.545c-0.234-0.408-0.467-0.827-0.703-1.235c-1.034,1.205-2.057,2.461-3.457,3.269
		c0.479-1.838,1.46-3.75,0.271-5.551c-1.07,1.129-2.621,1.262-4.083,1.358c0.464-0.365,0.938-0.729,1.403-1.087
		c0.232-1.13,0.457-2.262,0.641-3.396c0.288-0.104,0.872-0.312,1.163-0.414c0.536-1.248-0.557-2.191-1.185-3.144
		c-0.34,0.832-0.688,1.662-1.039,2.496c-0.328-0.36-0.656-0.722-0.981-1.073c0.009,0.36,0.032,1.098,0.047,1.463
		c-0.355-0.003-1.081-0.003-1.445-0.01c-0.072-0.37-0.211-1.12-0.281-1.49c-0.521,1.67-0.614,3.432-0.267,5.151
		c-0.445-0.12-0.9-0.242-1.354-0.358c0.363,1.049,0.229,2.012-0.906,2.473c-0.154-1.832-0.198-3.862-1.716-5.161
		c0.256-0.267,0.519-0.527,0.77-0.79c-0.354-0.494-0.716-0.984-1.074-1.479c-0.487-0.008-0.974-0.013-1.462-0.021
		c0.621-0.302,1.247-0.586,1.863-0.874c0.314-0.979,0.694-1.936,1.102-2.873c-0.273-0.016-0.832-0.043-1.105-0.057
		c0.399-1.051,1.125-1.908,1.938-2.672c-0.131-0.731-0.271-1.467-0.417-2.193c-0.164,0.43-0.324,0.861-0.487,1.301
		c-0.334-0.164-0.671-0.32-1.006-0.479c-0.568,0.279-1.147,0.554-1.731,0.823c0.048-0.375,0.142-1.12,0.186-1.493
		c0.295-0.25,0.588-0.488,0.879-0.735c-0.701-1.289-0.117-2.666,0.377-3.911c-0.24,0.05-0.722,0.15-0.968,0.199
		c0.015-0.342,0.049-1.021,0.062-1.359c-0.335,0.336-0.672,0.673-1.009,1.014c-0.375-0.084-0.754-0.162-1.125-0.25
		c-0.196,0.258-0.59,0.771-0.778,1.026c-0.286-1.866-1.255-3.539-1.437-5.431c0.113-1.262,0.565-2.45,1.309-3.479
		c-0.107-0.42-0.221-0.837-0.337-1.253c-0.599,0.838-1.19,1.68-1.806,2.51c-0.084-1.646-0.096-3.287-0.211-4.933
		c-0.169,1.205-0.223,2.423-0.237,3.637c-1.328-1.104-1.462,0.154-0.623,1.112c-0.252,0-0.76,0-1.014,0
		c0.535,0.667,1.069,1.324,1.615,1.977c-0.805-0.039-1.61-0.052-2.414-0.029c1.047,0.594,2.212,1.031,3.054,1.929
		c-1.087,0.118-2.147,0.397-3.136,0.874c0.688,1.546,1.981,2.822,2.093,4.6c-1.681-0.438-2.716-1.84-3.558-3.264
		c-0.765-0.398-1.513-0.838-2.261-1.271c0.479,0.662,0.954,1.328,1.425,1.998c-0.236,0.062-0.709,0.188-0.944,0.25
		c1.313,2.123,2.565,4.284,3.802,6.45c-1.008,0.337-2.068,0.354-3.107,0.188c0.07,0.498,0.142,0.996,0.204,1.5
		c-0.593-0.439-1.182-0.885-1.771-1.328c-0.434,0.14-0.872,0.279-1.313,0.426c-0.472-0.38-0.951-0.757-1.428-1.136
		c0.474,0.952,0.914,1.92,1.324,2.896c1.826,0.358,2.252,2.172,2.547,3.742c-0.963-0.624-1.847-1.354-2.672-2.154
		c-0.435,0.6-0.874,1.193-1.313,1.795c-0.114-0.096-0.353-0.269-0.464-0.355c-0.423,0.137-0.845,0.271-1.276,0.4
		c0.34-0.564,0.737-1.094,1.15-1.603c0.055-0.313,0.153-0.937,0.213-1.244c-0.618,0.511-1.236,1.021-1.86,1.527
		c-1.433-1.404-2.454-3.108-2.888-5.086c-0.351,0.688-0.713,1.378-1.063,2.063c0.987,0.694,1.753,1.762,1.369,3.021
		c-0.673-0.538-1.336-1.091-1.979-1.663c0.079,0.887,0.156,1.787-0.053,2.661c-0.926-0.075-1.03-1.156-1.482-1.779
		c-0.966,1.478-1.246,3.209,0.655,4.013c0.197,0.485,0.396,0.969,0.591,1.457c-0.069,0.064-0.204,0.185-0.275,0.248
		c-0.279-0.021-0.839-0.058-1.118-0.07c0.204,1.005,0.415,2.013,0.628,3.021c-0.429-0.125-0.857-0.246-1.296-0.364
		c0.213,0.356,0.417,0.726,0.626,1.08c-0.966,0.848,0.014,2.043,0.204,3.021c-0.353,0.059-1.052,0.183-1.401,0.245
		c0.532,0.386,1.057,0.777,1.577,1.173c-0.241,0.075-0.737,0.237-0.983,0.317c0.465,0.433,0.917,0.858,1.369,1.293
		c-0.4,0.086-0.81,0.172-1.215,0.263c-0.021,0.989-0.027,1.983-0.012,2.979c-2.592-1.044-4.699-2.765-6.3-5.052
		c0.098,0.608,0.191,1.22,0.286,1.832c-1.582,1.188,0.938,2.996,0.278,4.642c-0.5-0.488-1-0.982-1.483-1.492
		c0.271,1.123,0.34,2.276-0.291,3.291c0.218,0.688,0.451,1.373,0.677,2.062c-0.752,0.075-1.5,0.147-2.252,0.235
		c-0.435,1.188-0.986,2.332-1.728,3.357c-0.664-1.927-1.673-3.854-3.887-4.18c-0.061,0.229-0.183,0.688-0.24,0.919
		c0.182,0.291,0.355,0.584,0.531,0.879c-0.178,0.55-0.362,1.103-0.553,1.649c1.57,1.309,3.537,2.059,4.938,3.57
		c-1.278,0.666-1.85-0.812-2.471-1.604c-0.146,0.218-0.455,0.651-0.602,0.87c-0.828-1.031-1.65-2.221-3.053-2.461
		c0.784,1.574,1.972,2.89,3.032,4.277c-0.766-0.152-1.532-0.304-2.301-0.443c0.603,0.978,1.336,1.871,2.312,2.496
		c-0.918,1.06-0.095,2.367,0.151,3.525c0.472,0.262,0.945,0.528,1.404,0.801c-0.087,0.547-0.187,1.094-0.279,1.644
		c0.934,0.675,1.866,1.353,2.807,2.026c-0.752,0.453-1.502,0.91-2.263,1.363c-0.064-0.354-0.196-1.054-0.263-1.41
		c-0.537,0.771-1.08,1.539-1.644,2.293c0.864,0.188,1.724,0.387,2.587,0.572c0.12,0.674,0.241,1.346,0.366,2.021
		c0.563,0.49,1.117,0.998,1.658,1.517c-1.259,0.004-2.672,0.06-3.539-1.039c-1.132-1.409-3.447-0.106-4.31-1.901
		c-0.438-0.153-0.87-0.306-1.309-0.449c-0.221-0.834-0.439-1.658-0.668-2.493c1.284-0.656,2.138-1.798,2.568-3.164
		c-1.236,0.497-2.332,1.264-3.353,2.108c-0.191-0.655-0.387-1.313-0.596-1.965c-0.017,0.676-0.034,1.354-0.054,2.035
		c-0.919,0.506-1.853,0.98-2.802,1.436c0.134-1.455,0.288-2.916,0.643-4.332c-1.332-1.541-1.212-3.65-1.376-5.555
		c-0.064,0.791-0.131,1.584-0.191,2.375c-0.251-0.271-0.504-0.551-0.755-0.828c-0.259,0.521-0.521,1.035-0.8,1.553
		c0.117,0.558,0.234,1.119,0.341,1.683c-0.763,0-1.525,0.007-2.3,0.011c0.652,0.332,1.292,0.686,1.945,1.004
		c-0.139,0.142-0.405,0.427-0.543,0.569c0.183,0.183,0.36,0.368,0.533,0.56c-0.295,0.024-0.876,0.07-1.169,0.093
		c0.484,0.647,0.958,1.303,1.418,1.967c-0.948-0.233-1.895-0.487-2.838-0.739c0.147,0.496,0.293,0.989,0.438,1.489
		c-0.326,0.021-0.979,0.062-1.304,0.084c-0.4,1.229,0.05,2.429,0.579,3.534c1.16-0.075,2.325-0.145,3.479-0.219l-0.005,0.378
		c-0.621,0.047-1.242,0.094-1.863,0.146c0.152,0.18,0.465,0.53,0.617,0.703c0.474,0.159,0.943,0.328,1.404,0.502
		c-0.35,0.02-1.053,0.057-1.409,0.07c0.027,0.295,0.089,0.872,0.114,1.162c-1.521-0.213-3-0.672-4.345-1.422
		c-0.159,0.688-0.328,1.385-0.499,2.076c0.228,0.059,0.688,0.185,0.914,0.244c0.24,0.538,0.484,1.072,0.735,1.606
		c-0.531-0.015-1.068-0.027-1.604-0.032c0.32,0.887,0.573,1.796,0.732,2.729c0.384,0.223,0.77,0.451,1.147,0.677
		c-0.331,0.022-0.986,0.071-1.313,0.099c0.104,0.512,0.207,1.031,0.295,1.553c-1.909-1.553-2.359-4.23-4.49-5.59
		c0.114,0.771,0.283,1.534,0.477,2.284c-0.716,0.104-1.429,0.248-2.128,0.45c-1.306-1.751,0.069-3.732,0.939-5.314
		c0.313-1.754-0.064-3.55-0.552-5.24c-0.404,1.516-0.888,3.021-1.614,4.418c-0.109-0.641-0.197-1.278-0.303-1.92
		c-0.295,0.396-0.596,0.787-0.897,1.178c-0.038-0.813-0.079-1.621-0.114-2.43c2.24-2.308,1.363-6.443-0.894-8.45
		c-0.499-1.026,0.12-2.272,0.188-3.372c-0.368-0.447-0.743-0.896-1.111-1.344c-0.258,1.093-0.626,2.164-1.246,3.117
		c-1.078-2.021-0.306-4.406-0.909-6.563c-0.519-0.293-1.036-0.594-1.549-0.907c0.233-0.069,0.695-0.223,0.931-0.297
		c-0.677-2.724,1.615-4.953,1.053-7.672c-0.583,1.426-0.979,2.965-1.896,4.229c-1.096,0.659-2.359,1.01-3.388,1.795
		c-1.001-1.054-1.008-2.509-1.068-3.869c0.718-0.531,1.423-1.082,2.106-1.646c-1.473-2.973,0.07-6.3-1.036-9.348
		c-0.392,2.213-0.713,4.453-1.408,6.596c-1.169-1.298-1.458-3.023-1.393-4.721c-0.343,1.14-0.328,2.642-1.569,3.221
		c0.049-0.548,0.098-1.087,0.151-1.631c-0.353-0.398-0.706-0.803-1.063-1.205c2.146-2.341,1.251-5.625,0.626-8.391
		c-0.763,1.533-0.397,4.729-2.32,4.875c0.259-1.731,0.9-3.375,1.153-5.104c-0.537,0.286-1.073,0.569-1.619,0.854
		c1.845-3.51-0.116-7.354-0.7-10.955c-0.368,1.813-0.403,3.677-0.336,5.52c-0.275,0.1-0.831,0.299-1.11,0.396
		c0.303,0.799,0.612,1.586,0.921,2.379c-0.267,0-0.799-0.004-1.065-0.01c1.005,1.31,1.316,2.912,1.153,4.526
		c-0.641-0.553-1.275-1.125-1.915-1.683c0.267,1.341,0.501,2.688,0.63,4.048c-0.65-0.659-1.289-1.339-1.924-2.021
		c0.063,1.588-0.031,3.166-0.237,4.746c-0.604-0.957-1.212-1.918-1.825-2.869c-0.443,3.271,3.047,5.604,1.738,8.979
		c-0.36-0.64-0.715-1.271-1.076-1.912c-0.037,0.601-0.074,1.2-0.121,1.795c-0.263-0.235-0.525-0.474-0.79-0.707
		c-0.089,0.353-0.264,1.058-0.353,1.41c-0.335-0.821-0.472-1.694-0.592-2.567c-0.318,2.187-0.822,4.342-0.981,6.545
		c0.405,0.4,0.812,0.807,1.214,1.203c-0.548,0.344-1.102,0.678-1.658,1.021c0.084,0.943,0.188,1.89,0.291,2.838
		c-0.69-0.049-1.388-0.084-2.088-0.124c-0.157-0.899-0.321-1.8-0.522-2.699c-0.794,3.296,0.668,6.636-0.225,9.899
		c-0.505,2.461,0.444,5.121-0.802,7.443c-0.496-1.319-0.69-2.729-0.735-4.127c-0.154,0.537-0.321,1.072-0.49,1.609
		c-0.379-0.847-0.74-1.706-1.09-2.568c-0.017,1.852,0.721,4.457-1.52,5.254c-0.415-1.611-0.876-3.217-1.579-4.728
		c-0.095,0.351-0.277,1.056-0.371,1.406c-1.766-0.953-1.14-2.847-0.383-4.269c-0.74-1.521-0.869-3.188-0.236-4.771
		c-0.574-1.182-0.594-2.494-0.499-3.773c-1.374,2.608-0.604,6.059-2.752,8.307c-0.343-0.492-0.701-0.989-1.045-1.486
		c-0.355,0.646-0.716,1.289-1.093,1.932c-0.628-2.604,2.833-4.683,0.783-7.15c-0.244,1.294-0.604,2.562-1.096,3.785
		c-2.252,0.813-2.813,3.392-4.211,5.096c-0.062-2.676,1.535-5.539-0.031-8.026c0.188-0.55,0.371-1.089,0.547-1.628
		c0.732-0.385,1.46-0.771,2.188-1.156c-0.221-2.186-0.427-4.373-0.67-6.555c0.167,3.141-1.521,5.813-4.58,6.708
		c-0.276-1.917,1.425-2.563,2.863-3.176c-0.28-0.354-0.566-0.71-0.854-1.063c0.612-2.334,2.682-5.029,0.581-7.186
		c-0.611,2.23-0.69,4.604-1.704,6.723c-2.539-0.802,0.303-3.268,0.532-4.845c-0.745-0.321-1.517-0.597-2.312-0.802
		c0.648-1.805,1.088-3.708,0.44-5.592c-0.318,0.795-0.651,1.582-1.005,2.362c0.021,0.685,0.044,1.368,0.051,2.058
		c-0.278,0.041-0.834,0.117-1.112,0.16c0.489-2.92,0.928-5.936-0.197-8.778c-0.285,0.317-0.578,0.633-0.873,0.946
		c0.459-2.399-0.006-4.824-0.768-7.111c0.28,2.994-0.716,5.869-1.304,8.766c0.664,1.407,1.165,2.87,1.078,4.449
		c-0.241-0.438-0.49-0.869-0.73-1.309c-0.438,0.219-0.875,0.435-1.316,0.649c-0.251-1.231-0.604-2.438-0.964-3.642
		c-0.382,1.277-1.005,2.47-1.937,3.439c0.125-2.209-0.397-4.41-1.249-6.439c-0.171,1.531-0.24,3.068-0.457,4.604
		c-0.857-1.943-2.195-4.72-0.354-6.463c-0.42-0.063-0.84-0.115-1.259-0.179c0.091-0.771,0.25-1.53,0.504-2.261
		c-1.661-1.64-0.894-4.265-1.301-6.346c-0.175,1.618,0.082,3.381-0.912,4.79c0.313,1.313,0.512,2.656,0.38,4.013
		c-0.307-0.047-0.931-0.142-1.241-0.185c0.419,0.693,0.834,1.39,1.234,2.093c-0.362-0.27-0.73-0.543-1.103-0.813
		c-0.131,3.221-1.11,6.327-0.204,9.563c-0.409,0.233-0.822,0.465-1.241,0.702c-0.794-1.868-0.847-3.975-1.781-5.793
		c-0.255,1.045-0.393,2.106-0.544,3.163c-1.075-1.641-1.848-3.464-2.188-5.402c-0.613,1.746-1.008,3.563-1.158,5.416
		c-0.149,0.045-0.447,0.135-0.598,0.176c-0.095,0.521-0.197,1.041-0.306,1.556c-1.132,0.556-2.166,1.293-3.03,2.226
		c0.243-0.922,0.067-1.815-0.415-2.621c0.764-0.412,1.713-0.644,2.259-1.351c0.095-2.942,1.724-5.64,1.138-8.651
		c-0.179,1.389-0.253,3.504-2.203,3.146c0.963-2.588,1.294-5.313,1.323-8.063l-0.211-0.015c-0.119,0.642-0.238,1.278-0.369,1.919
		c-0.377-0.504-0.71-1.042-1.049-1.576c-0.576,1.528-1.185,3.074-2.212,4.373c0.077-1.154,0.057-2.334-0.298-3.451
		c-0.35,0.526-0.71,1.059-1.073,1.584c-0.604-1.438,0.738-2.5,1.264-3.705c1.294-2.438,0.568-5.313-0.022-7.84
		c-0.335,1.271-0.537,2.576-0.73,3.879c-0.492-0.176-0.981-0.351-1.48-0.525c0.65-1.363,1.598-2.615,1.868-4.135
		c-0.408,0.287-0.815,0.58-1.224,0.871c-0.048-0.969-0.107-1.939-0.162-2.907c-0.229,0.729-0.433,1.477-0.683,2.2
		c0.055-2.393,0.157-4.801-0.331-7.156c-0.579,2.465-0.511,5-0.229,7.5c-0.351-0.52-0.695-1.037-1.053-1.551
		c0.409,1.924,1.194,3.854,0.633,5.84c-0.553,0.195-1.11,0.396-1.668,0.601c-0.186-0.073-0.38-0.146-0.576-0.222
		c1.097-0.619,0.334-1.77,0.171-2.678c-0.283,0-0.849,0-1.135,0c-0.027,4,2.339,8.074,1.001,12.012
		c-0.519-0.78-1.026-1.567-1.525-2.36c-0.475,2.358-0.659,4.896,0.566,7.073c-0.854-0.725-1.776-1.389-2.779-1.9
		c-0.249-0.83-0.485-1.66-0.725-2.483c-0.171-0.058-0.515-0.175-0.683-0.229c-0.156-0.543-0.323-1.082-0.495-1.627
		c-0.628,1.903-0.107,3.84,0.457,5.678c-0.542-0.1-1.09-0.197-1.634-0.301c-0.08,0.538-0.164,1.073-0.253,1.612
		c0.333,0.28,0.658,0.565,0.986,0.847c-0.188,0.354-0.375,0.709-0.571,1.063c0.511,0.727,1.005,1.463,1.467,2.218
		c-1.075,0.258-2.15,0.52-3.226,0.792c-0.104,0.75-0.211,1.5-0.32,2.25c-0.281-0.042-0.844-0.127-1.122-0.174
		c0.012-1.071-0.008-2.147-0.105-3.226c0.602-0.34,1.205-0.672,1.802-1c0.214-2.125,0.48-4.244,0.467-6.379
		c-0.929,1.69-1.902,3.375-3.249,4.78c-0.766-0.19-1.922,0.063-1.028,0.983c1.127,1.246,0.504,2.509-0.459,3.613
		c-1.704-0.479-3.551-1.406-4.108,0.98c-0.258-0.604-0.524-1.2-0.78-1.798c0.884-0.914,1.284-2.146,2.025-3.148
		c1.749-1.233,5.452-1.216,4.667-4.233c0.464-0.289,0.928-0.569,1.384-0.86c0.655-1.774,2.646-2.603,2.992-4.534
		c-0.191-0.199-0.586-0.6-0.779-0.797c-0.832,1.1-1.686,2.182-2.54,3.27c-0.302-0.33-0.606-0.666-0.918-0.998
		c0.45-0.496,0.874-1.004,1.309-1.508c0.044-2.029,0.663-4.08-0.05-6.067c0.107,1.989-0.814,3.731-2.031,5.243
		c-0.382-0.313-0.77-0.623-1.16-0.932c-0.173,1.313-0.104,2.633-0.005,3.946c-0.83,0.063-1.659,0.117-2.489,0.188
		c0.002-1.347,0.567-2.715,0.197-4.041c0.994-1.02,2.386-1.918,2.641-3.418c0.07-1.896,2.166-3.313,1.064-5.261
		c-0.129,0.67-0.264,1.339-0.395,2.013c-0.223-0.271-0.457-0.533-0.69-0.802c-0.281,0.894-0.574,1.777-0.872,2.673
		c-2.527-0.492-1.456-3.734-2.405-5.537c-0.471,0.416-0.947,0.84-1.425,1.26c-2.188-2.672,2.359-4.207,1.697-6.998
		c-0.435,1.021-1.041,1.971-2,2.578c0.558-2.162,2.354-3.946,1.341-6.326c-0.148,1.287-0.242,2.676-1.209,3.66
		c-0.368-1.418-0.47-2.938,0.283-4.247c-1.525-2.553,0.306-5.791-1.37-8.361c-0.971,2.602-0.863,5.359-0.563,8.059
		c-1.369-0.598-1.66-2.182-2.346-3.363c0.218,2.187,0.673,4.371,0.45,6.578c-0.398-0.631-0.796-1.264-1.195-1.892
		c-0.184,1.921,1.863,3.407,1.068,5.287c-0.254,0.703,0.32,1.345,0.518,1.994c-0.654,0.034-1.314,0.067-1.979,0.117
		c-0.158-0.677-0.325-1.354-0.489-2.029c-0.268,0.22-0.537,0.435-0.813,0.647c-0.109-0.443-0.227-0.887-0.355-1.325
		c-1.036,2.528-0.308,5.132,0.583,7.571c-0.174,0.328-0.35,0.652-0.527,0.979c0.569,0.839,1.022,1.759,1.155,2.774
		c-2.463-0.604-2.538-3.687-3.095-5.705c-0.067,0.859-0.143,1.719-0.235,2.572c-0.213,0.008-0.649,0.02-0.87,0.021
		c0.124,1.421,0.241,2.942-0.858,4.039c0.375,0.563,0.743,1.126,1.106,1.69c-0.715,0.881-1.388,1.793-1.962,2.777
		c-0.897-1.646-0.666-4.371-2.854-4.914c0.142,1.648,0.638,3.25,0.609,4.914c1.153,2.932,6.696,2.366,5.184,6.217
		c-1.504-0.16-2.766-1.037-4.099-1.666c0.162,2.014,1.324,3.879,3.427,4.254c0.646,2.606,2.47,5.143,0.691,7.774
		c-0.224-0.565-0.453-1.13-0.688-1.696c-1.556-0.15-3.101-0.402-4.622-0.773c0.548-1.57,0.621-3.225-0.022-4.776
		c-0.244-0.055-0.731-0.166-0.974-0.226c-0.889,2.023,1.125,4.416-0.362,6.06c-0.781-1.506-1.813-2.905-3.47-3.507
		c1.188-0.713,2.839-3.116,0.4-1.987c-0.574-1.315-1.514-2.474-3.077-2.403c1.319-2.605,0.042-5.494-0.197-8.203
		c-0.74,0.899-0.904,2.076-1.137,3.184c-0.276,0.021-0.563,0.038-0.853,0.063c-0.353,0.875-0.768,1.738-1.28,2.539
		c-0.583-2.676-0.08-5.416,0.741-7.981c-0.875-0.621-1.707-1.304-2.412-2.112c-0.197,0.295-0.598,0.877-0.794,1.17
		c-0.211-1.256,0.302-2.447,0.673-3.613c-0.265,0.23-0.537,0.471-0.811,0.709c0.121-1.147,0.355-2.446-0.643-3.293
		c-0.067,1.125-0.075,2.256-0.075,3.387c-0.188-0.303-0.379-0.604-0.571-0.898c-0.425,1.646-1.036,3.236-1.774,4.771
		c-0.126-0.616-0.246-1.228-0.377-1.843c-0.256,0.234-0.514,0.471-0.771,0.716c-0.225-0.65-0.449-1.304-0.715-1.937
		c-0.799,2.703,1.031,5.197,0.646,7.832c-0.883-0.91-1.071-2.15-1.195-3.35c-0.176,0.262-0.357,0.521-0.546,0.783
		c-0.197-0.771-0.401-1.537-0.621-2.299c-1.216,1.75-0.682,3.853-0.569,5.813c-0.462,0.262-0.928,0.523-1.398,0.785
		c0.785,3.305,0.63,6.721,1.167,10.055c-2.029-1.119-2.175-3.633-3.63-5.23c-0.144,1.47,0.178,2.91,0.49,4.339
		c-1.041-0.398-1.686-1.265-2.099-2.267c0.242,1.406-0.022,2.793-0.315,4.166c0.487,1.58,1.252,3.113,1.075,4.824
		c-0.616-0.914-1.244-1.832-2.104-2.531c0.366,3.582,0.69,7.07,0.469,10.683c-0.813-0.747-1.544-1.572-2.203-2.453
		c0.018,0.59,0.031,1.188,0.035,1.784c-0.115,0.068-0.352,0.217-0.466,0.287c-0.099,0.701-0.199,1.408-0.331,2.107
		c-1.106-1.771-1.228-3.929-2.034-5.832c-1.081,2.123-0.054,4.391,0.586,6.469c-0.389,0.06-1.165,0.188-1.554,0.252
		c0.415,2.121,2.651,4.619,1.001,6.642c-0.183-1.147-0.313-2.302-0.44-3.457c-0.422-0.146-0.849-0.288-1.284-0.437
		c-0.002,0.793-0.017,1.592-0.026,2.383c-0.313-0.357-0.623-0.719-0.947-1.072c-0.482,2.107-0.653,4.271-0.949,6.413
		c-0.526-1.312-0.861-2.685-1.125-4.063c-0.349,3.994-0.262,7.943-1.396,11.846c-1.106-0.815-1.598-2.092-1.863-3.396
		c-0.145,1.029-0.349,2.062-0.67,3.047c-0.664-1.985-0.818-4.127-1.713-6.051c-0.272,1.479-0.464,2.967-0.603,4.467
		c-0.319-0.31-0.641-0.614-0.969-0.92c1.481,3.156,0.659,6.558,0.419,9.859c-0.638-1.402-1.167-2.853-1.529-4.355
		c-2.263,4.498,1.293,9.218-0.457,13.856c-1.041-1.467-0.383-3.372-0.741-5.039c-0.87,1.425-1.509,3.082-2.978,4.023
		c1.093-4.242,2.711-8.508,1.478-12.922c-0.389,0.777-0.776,1.557-1.167,2.346c-0.068-0.305-0.215-0.922-0.286-1.221
		c-0.218,0.602-0.438,1.203-0.666,1.811c-0.005-0.735-0.01-1.469-0.031-2.198c0.246-0.146,0.736-0.438,0.982-0.583
		c0.197-1.604,0.549-3.241,0.191-4.854c-0.114,0.633-0.231,1.267-0.349,1.896c-0.204-0.206-0.417-0.422-0.626-0.63
		c-0.344,0.663-0.748,1.303-1.298,1.83c-0.02-1.579,0.353-3.146,0.197-4.729c-0.588,0.262-1.165,0.527-1.759,0.795
		c0.947-2.344,1.393-4.836,1.977-7.277c-1.294-0.114-1.52,1.712-2.479,2.349c0.022-1.219,0.137-2.438,0.255-3.655
		c-0.409,0.004-0.826,0.01-1.246,0.016c0.312-1.262,0.476-2.555,0.459-3.854c-0.455,0.286-0.92,0.577-1.394,0.858
		c-0.176-1.11-0.566-2.177-1.422-2.946c-0.5-2.453-1.357-4.766-2.466-7.003c-0.308-2.504-0.06-5.106-1.167-7.476
		c-0.155,1.287-0.308,2.578-0.469,3.869c-0.167-0.832-0.336-1.662-0.525-2.487c-0.152,1.887,0,3.771,0.368,5.627
		c-0.313-0.313-0.633-0.626-0.949-0.938c-0.049,0.549-0.103,1.105-0.157,1.653c-0.197,0-0.593,0-0.795,0
		c0.1,1.254,0.171,2.513,0.122,3.771c-0.691-0.959-1.354-1.94-2.046-2.901c-1.273,1.903,0.204,4.046-0.497,6.021
		c-0.286-0.688-0.572-1.373-0.862-2.063c-0.034,1.172-0.014,2.344,0.028,3.516c-0.401-0.83-0.806-1.664-1.223-2.489
		c-0.42,1.28-0.91,2.547-1.473,3.771c-0.349-0.474-0.7-0.951-1.057-1.425c-0.79,2.539,0.537,5.109-0.173,7.647
		c1.329,1.431,2.463,3.517,1.134,5.345c-0.696-1.283-1.959-0.306-2.946-0.029c-0.328-1.729-0.633-3.457-1.073-5.158
		c-1.267,1.701-0.254,3.954-0.775,5.893c-0.42-0.949-0.809-1.92-1.205-2.883c-0.394,1.885-0.394,3.815-0.358,5.732
		c0.947,0.91,1.386,2.135,1.644,3.395c-0.316,0.024-0.952,0.074-1.271,0.1c-0.504-1.119-1.059-2.219-1.671-3.28
		c-0.216,2.878-2.423,6.274,0.308,8.646c-0.457,1.367-0.855,2.752-1.282,4.125c-0.567-1.875-0.626-3.914-1.589-5.652
		c-0.462,0.111-0.929,0.229-1.404,0.349c-0.138-1.289-0.33-2.573-0.724-3.817c-1.029,1.678-0.688,3.769-1.003,5.646
		c-0.343,1.709,1.38,2.944,1.258,4.622c-0.091,1.458-0.45,2.932-0.072,4.386c0.313,1.878,1.762,3.827,0.379,5.644
		c-0.344-0.596-0.69-1.19-1.031-1.787c-0.434,0.1-0.874,0.203-1.314,0.311c-0.519-1.447-1.029-2.898-1.678-4.293
		c-0.207,1.176-0.084,2.477-0.785,3.506c-0.335-0.881-0.607-1.805-1.14-2.604c-1.284,1.082-0.449,3.291-0.909,4.828
		c-0.291-0.771-0.569-1.543-0.842-2.32c-0.188,1.479-0.355,2.953-0.621,4.423c-0.655-0.87-1.154-1.854-1.556-2.87
		c-0.717,0.418-1.813,0.639-1.87,1.646c-0.549,2.838,0.398,5.698,1.242,8.394c-9.624,2.18-19.074,6.098-29.105,5.672
		c-2.967,0.049-5.943-0.104-8.912,0.065c-3.872,0.201-7.406,1.994-11.189,2.675c-3.71,0.686-7.496,0.867-11.264,0.971
		c-0.464-2.994-0.356-6.041-0.272-9.06c3.082-1.118,6.007-3.164,7.667-6.044c1.343-1.154,3.348-1.068,4.784-2.104
		c1.23-0.602,2.327-2.013,3.809-1.563c2.841,0.896,5.913-0.229,8.717,0.997c0.331-0.655,0.67-1.308,0.986-1.959
		c0.534-0.079,1.053-0.153,1.57-0.229c-0.471-0.731-0.942-1.467-1.402-2.215c0.982,0.307,1.925,0.698,2.836,1.168
		c-0.111-1.637,0.961-2.906,1.846-4.148c1.163,0.298,2.313,0.587,3.469,0.873c-0.026-0.391-0.063-0.777-0.099-1.172
		c-0.495-0.265-0.996-0.535-1.502-0.803c0.037-0.535,0.063-1.06,0.089-1.595c1.45,0.097,3.486,0.481,4.123-1.237
		c0.469,0.162,0.933,0.334,1.392,0.508c0.302-0.528,0.607-1.054,0.9-1.571c-0.794-0.492-1.59-0.981-2.382-1.479
		c-0.44,0.237-0.889,0.469-1.336,0.696c-0.289-0.806-0.584-1.61-0.891-2.409c-0.722-0.46-1.383-1.006-1.953-1.648
		c0.688-0.143,1.359-0.271,2.037-0.396c-0.335-0.396-0.677-0.792-1.029-1.183c0.419-0.94,0.898-1.848,1.406-2.731
		c-1.184-0.538-2.468-0.452-3.73-0.313c0.231-0.364,0.464-0.729,0.682-1.086c-1.153-0.983-2.498-0.176-3.733,0.19
		c-0.067-1.053,0.01-2.108,0.45-3.079c-1.055-1.271-1.957-0.451-2.128,0.961c-1.659-0.604-3.387-0.32-5.02,0.233
		c0.466-1.106,0.578-2.312,0.717-3.492c-1.537-0.976-3.159,0.492-4.615,1.013c-1.662-2.029-0.448-4.156,1.024-5.813
		c-2.445-0.693-5.196-0.452-7.478-1.331c-0.22,0-0.654-0.017-0.875-0.019c0.467-1.146,1.013-2.237,1.566-3.328
		c-0.813,0.808-1.52,1.705-2.191,2.636c-0.375-1.075-0.729-2.163-1.036-3.271c-0.551,2.107-3.244,3.08-5.106,2.123
		c-0.055,1.051-0.167,2.101-0.35,3.142c-0.476-0.486-0.966-0.976-1.453-1.468c0.492-0.849,0.969-1.711,1.439-2.563
		c-0.204-0.049-0.609-0.146-0.815-0.19c-0.146-0.526-0.298-1.043-0.462-1.561c-0.019,0.614-0.042,1.225-0.069,1.839
		c-0.326,0.39-0.656,0.782-0.996,1.177c-0.43-0.229-0.867-0.451-1.311-0.671c-0.019-0.401-0.063-1.198-0.084-1.604
		c-1.845-0.271-2.441,1.425-2.048,2.913c-0.406,0.181-0.817,0.355-1.238,0.535c-0.344-0.268-0.692-0.539-1.055-0.807
		c-0.3,0.342-0.602,0.686-0.921,1.03c-1.013-0.476-2.109-0.476-3.185-0.192c-0.1,1.215-0.135,2.551-1.121,3.434
		c0.035,0.396,0.063,0.777,0.084,1.173c-0.345,0.237-0.694,0.479-1.053,0.727c-0.019,0.16-0.049,0.487-0.069,0.651
		c-0.509,0.316-1.022,0.638-1.54,0.961c-0.276-0.253-0.556-0.504-0.847-0.755c-0.03,0.633-0.065,1.271-0.112,1.901
		c-0.497-0.563-0.989-1.139-1.5-1.701c-0.415,0.246-0.849,0.492-1.277,0.74c0.968,0.422,1.88,0.979,2.543,1.818
		c-0.865-0.174-1.723-0.371-2.592-0.572c0.307,0.324,0.612,0.646,0.905,0.967c-0.504,0.105-1.013,0.211-1.53,0.322
		c-0.612,0.609-1.296,1.148-2.088,1.52c-0.1,0.183-0.295,0.555-0.396,0.736c-0.474,0.084-0.952,0.168-1.438,0.254
		c0.049-0.281,0.151-0.854,0.201-1.146c-0.236,0.069-0.71,0.201-0.947,0.269c-0.007,0.379-0.023,0.762-0.047,1.15
		c-0.244,0.086-0.723,0.266-0.965,0.355c0.145,0.677,0.275,1.356,0.396,2.039c0.487-0.734,0.973-1.457,1.472-2.181
		c0.527,1.045,1.041,2.095,1.56,3.142c-0.424,0.24-0.858,0.479-1.293,0.726c-2.635-0.636-3.949-4.353-6.919-3.034
		c-0.015,0.918-0.033,1.844-0.08,2.766c-0.429-0.307-0.863-0.609-1.309-0.918c-0.799,0.289-1.618,0.084-2.408-0.168
		c0.275,1.219,0.633,3.06-0.688,3.738c-1.807-0.031-3.879-0.273-4.411,1.94c0.683,0.263,1.351,0.534,2.017,0.802
		c-0.616,0.258-1.242,0.518-1.868,0.779c0.755,0.088,1.514,0.188,2.26,0.283c-0.584,0.44-1.172,0.873-1.777,1.305
		c0.07,1.156,1.004,2.714-0.021,3.631c-2.409,0.752-5.677,0.293-6.675,3.251c-0.837,0.179-1.667,0.364-2.506,0.565
		c1.1,2.435,4.157,1.265,6.167,0.91c0.094,0.121,0.291,0.371,0.382,0.5c-0.335,0.149-1.014,0.455-1.351,0.604
		c0.509,0.16,1.024,0.313,1.523,0.468c0.054,0.099,0.167,0.287,0.223,0.388c1.584-0.899,3.333,0,4.95,0.299
		c0.023,0.176,0.063,0.521,0.087,0.69c2.021-0.299,4.041,0.533,6.035-0.088c1.392-0.541,2.583,0.313,3.656,1.092
		c0.4-0.241,0.792-0.479,1.177-0.711c1.774,0.81,3.712,0.979,5.594,0.492c4.207,1.063,7.821,3.942,12.053,5.137
		c-0.021,3.699,0.822,7.619-0.155,11.19c-6.052,2.138-12.013,4.923-18.115,7.109c-4.139,1.688-8.747,2.506-12.263,5.455
		c-7.433,5.875-13.673,13.094-20.859,19.258c-7.352,6.492-10.139,16.392-16.657,23.539c-2.615,3.051-6.834,3.582-9.983,5.863
		c-5.186,3.521-9.614,8.051-13.58,12.873H578.03h41.245h549.25c-3.961-4.822-8.396-9.354-13.574-12.873
		c-3.15-2.281-7.366-2.813-9.984-5.863c-6.52-7.147-9.305-17.047-16.653-23.539c-7.189-6.164-13.432-13.383-20.858-19.258
		c-3.521-2.949-8.125-3.77-12.261-5.455c-6.104-2.188-12.067-4.975-18.116-7.109c-0.979-3.571-0.144-7.491-0.154-11.19
		c4.232-1.19,7.848-4.071,12.051-5.137c1.881,0.485,3.818,0.315,5.595-0.492c0.385,0.231,0.776,0.47,1.178,0.711
		c1.072-0.774,2.264-1.633,3.655-1.092c1.991,0.621,4.016-0.211,6.028,0.088c0.025-0.172,0.065-0.519,0.093-0.69
		c1.611-0.299,3.364-1.198,4.948-0.299c0.056-0.101,0.164-0.289,0.228-0.388c0.5-0.151,1.013-0.31,1.521-0.468
		c-0.335-0.148-1.013-0.454-1.35-0.604c0.094-0.129,0.29-0.379,0.384-0.5c2.007,0.354,5.069,1.521,6.164-0.91
		c-0.839-0.2-1.666-0.39-2.505-0.565c-1.001-2.958-4.267-2.499-6.679-3.251c-1.023-0.917-0.091-2.469-0.021-3.631
		c-0.604-0.432-1.191-0.861-1.777-1.305c0.75-0.099,1.507-0.195,2.262-0.283c-0.623-0.266-1.252-0.521-1.869-0.779
		c0.67-0.268,1.341-0.539,2.021-0.802c-0.534-2.216-2.604-1.97-4.413-1.94c-1.315-0.68-0.958-2.521-0.688-3.738
		c-0.785,0.252-1.612,0.457-2.409,0.168c-0.441,0.309-0.874,0.611-1.308,0.918c-0.046-0.926-0.063-1.852-0.08-2.766
		c-2.968-1.316-4.284,2.398-6.919,3.034c-0.438-0.245-0.864-0.483-1.296-0.726c0.521-1.047,1.037-2.097,1.562-3.142
		c0.501,0.724,0.986,1.443,1.474,2.181c0.118-0.681,0.251-1.357,0.396-2.039c-0.246-0.094-0.729-0.271-0.968-0.355
		c-0.022-0.393-0.038-0.771-0.048-1.15c-0.233-0.064-0.713-0.197-0.946-0.269c0.047,0.285,0.149,0.856,0.201,1.146
		c-0.484-0.086-0.966-0.17-1.438-0.254c-0.103-0.182-0.3-0.555-0.396-0.736c-0.792-0.368-1.476-0.907-2.087-1.52
		c-0.52-0.111-1.027-0.217-1.534-0.322c0.296-0.323,0.601-0.646,0.909-0.967c-0.867,0.201-1.729,0.398-2.593,0.572
		c0.659-0.84,1.568-1.396,2.545-1.818c-0.431-0.248-0.861-0.494-1.278-0.74c-0.51,0.563-1.004,1.142-1.5,1.701
		c-0.045-0.635-0.08-1.271-0.11-1.901c-0.29,0.251-0.565,0.502-0.846,0.755c-0.52-0.323-1.031-0.646-1.542-0.961
		c-0.021-0.164-0.053-0.491-0.067-0.651c-0.36-0.243-0.711-0.485-1.054-0.727c0.021-0.396,0.052-0.777,0.085-1.173
		c-0.982-0.883-1.021-2.219-1.12-3.434c-1.073-0.279-2.171-0.279-3.184,0.192c-0.32-0.349-0.621-0.688-0.924-1.03
		c-0.357,0.268-0.705,0.539-1.054,0.807c-0.419-0.18-0.828-0.354-1.235-0.535c0.392-1.488-0.204-3.184-2.052-2.913
		c-0.021,0.401-0.064,1.198-0.084,1.604c-0.442,0.222-0.884,0.444-1.313,0.671c-0.336-0.395-0.666-0.787-0.994-1.177
		c-0.029-0.614-0.052-1.226-0.066-1.839c-0.163,0.521-0.317,1.036-0.465,1.561c-0.206,0.049-0.609,0.146-0.815,0.19
		c0.471,0.853,0.951,1.715,1.438,2.563c-0.479,0.492-0.973,0.979-1.446,1.468c-0.188-1.041-0.296-2.091-0.354-3.142
		c-1.857,0.957-4.549-0.016-5.104-2.123c-0.31,1.104-0.658,2.192-1.035,3.271c-0.674-0.931-1.377-1.828-2.189-2.636
		c0.552,1.091,1.099,2.184,1.566,3.328c-0.223,0.002-0.654,0.019-0.875,0.019c-2.28,0.879-5.034,0.638-7.479,1.331
		c1.476,1.65,2.688,3.781,1.024,5.813c-1.455-0.521-3.077-1.985-4.614-1.013c0.139,1.183,0.248,2.386,0.715,3.492
		c-1.634-0.554-3.356-0.838-5.021-0.233c-0.169-1.414-1.073-2.236-2.129-0.961c0.438,0.971,0.519,2.028,0.448,3.079
		c-1.232-0.366-2.577-1.177-3.731-0.19c0.221,0.356,0.451,0.722,0.685,1.086c-1.264-0.141-2.553-0.225-3.73,0.313
		c0.511,0.886,0.982,1.791,1.407,2.731c-0.354,0.391-0.692,0.787-1.032,1.183c0.68,0.124,1.353,0.253,2.041,0.396
		c-0.571,0.646-1.235,1.188-1.952,1.648c-0.312,0.799-0.604,1.604-0.892,2.409c-0.449-0.229-0.896-0.459-1.34-0.696
		c-0.793,0.495-1.59,0.983-2.382,1.479c0.296,0.521,0.6,1.047,0.902,1.571c0.457-0.174,0.924-0.346,1.39-0.508
		c0.637,1.723,2.672,1.334,4.125,1.237c0.026,0.535,0.053,1.06,0.09,1.595c-0.512,0.268-1.008,0.538-1.505,0.803
		c-0.038,0.395-0.071,0.781-0.099,1.172c1.155-0.286,2.307-0.575,3.469-0.873c0.885,1.242,1.957,2.515,1.848,4.148
		c0.912-0.47,1.854-0.861,2.837-1.168c-0.459,0.748-0.935,1.481-1.4,2.215c0.518,0.073,1.036,0.147,1.568,0.229
		c0.315,0.651,0.653,1.304,0.985,1.959c2.802-1.229,5.877-0.104,8.713-0.997c1.482-0.45,2.583,0.961,3.813,1.563
		c1.438,1.035,3.441,0.949,4.783,2.104c1.655,2.878,4.584,4.926,7.666,6.044c0.084,3.021,0.19,6.063-0.271,9.06
		c-3.77-0.104-7.551-0.285-11.262-0.971c-3.782-0.681-7.318-2.474-11.191-2.675c-2.967-0.172-5.941-0.021-8.909-0.065L832.3,289.689
		z M768.513,225.43c-0.071-0.061-0.211-0.183-0.277-0.248 M597.791,184.15c0.271-0.22,0.547-0.446,0.82-0.665
		c0.274,0.22,0.548,0.444,0.821,0.665c0.712,1.5,1.314,3.204,1.073,4.752c-0.226-0.005-0.502-0.014-0.663-0.019
		c0.058,0.537,0.069,1.079,0.027,1.615c-0.173,0.254-0.384,0.499-0.64,0.73c-0.093-0.495-0.187-0.989-0.271-1.483
		c-0.112,0.328-0.231,0.655-0.35,0.984c-0.115-0.327-0.236-0.654-0.351-0.984c-0.082,0.497-0.18,0.989-0.271,1.486
		c-0.253-0.233-0.464-0.476-0.641-0.73c-0.045-0.536-0.027-1.077,0.029-1.615c-0.162,0.005-0.438,0.012-0.662,0.021
		C596.474,187.354,597.076,185.65,597.791,184.15z M577.7,205.205c1.068-0.563,2.223,0.039,3.268,0.352
		c0.293-1.709,1.15-2.974,3.06-2.746c-0.153-0.455-0.306-0.914-0.455-1.373c0.258-0.103,0.768-0.302,1.026-0.402
		c0.459,0.859,0.938,1.721,1.428,2.57c-0.353,0.068-1.058,0.213-1.404,0.285c1.026,0.616,2.129,1.156,3.354,1.146
		c-0.24,0.23-0.486,0.466-0.735,0.703c0.084,0.404,0.031,0.787-0.08,1.158c-0.233-0.472-0.469-0.938-0.706-1.4
		c-0.044,0.32-0.133,0.975-0.173,1.299c-0.442,0.061-0.879,0.121-1.318,0.184c-0.038-0.246-0.117-0.75-0.152-1.004
		c-0.176-0.037-0.516-0.117-0.687-0.153c-0.263-0.472-0.519-0.938-0.78-1.41c-0.156,0.063-0.479,0.19-0.643,0.257
		c0.168,0.516,0.345,1.028,0.517,1.546c-0.4,0-1.212,0.011-1.614,0.011c0.981,0.559,1.974,1.133,2.831,1.862
		c-0.576,0.8-1.13,1.638-1.157,2.656c-0.388,0.461-0.778,0.919-1.17,1.383c-0.084-0.174-0.266-0.517-0.353-0.683
		c-0.412,0.107-0.827,0.224-1.24,0.335c0.087-0.284,0.253-0.854,0.343-1.14c-0.514,0.284-1.026,0.563-1.545,0.846
		c0.104-1.325,0.358-2.641,0.748-3.913c-0.628-0.011-1.246-0.021-1.873-0.032c0.261-0.293,0.527-0.588,0.788-0.884
		C578.594,206.135,578.166,205.648,577.7,205.205z M585.443,209.281c-0.033,0.029-0.087,0.083-0.131,0.123
		c-0.172,0.021-0.346,0.037-0.514,0.054c-0.073-0.419-0.147-0.84-0.219-1.257c0.324,0.287,0.619,0.609,0.882,0.964
		C585.453,209.201,585.448,209.25,585.443,209.281z M611.911,209.402c-0.047-0.041-0.099-0.094-0.132-0.125
		c-0.006-0.03-0.017-0.078-0.021-0.117c0.27-0.354,0.563-0.674,0.884-0.962c-0.071,0.42-0.146,0.841-0.221,1.258
		C612.252,209.441,612.084,209.423,611.911,209.402z M618.244,206.65c0.264,0.295,0.529,0.591,0.792,0.884
		c-0.628,0.014-1.245,0.022-1.875,0.032c0.391,1.272,0.648,2.588,0.75,3.912c-0.52-0.28-1.03-0.562-1.547-0.847
		c0.09,0.285,0.256,0.854,0.345,1.142c-0.411-0.109-0.831-0.226-1.241-0.336c-0.084,0.168-0.264,0.51-0.35,0.682
		c-0.396-0.463-0.784-0.921-1.175-1.381c-0.025-1.021-0.579-1.857-1.153-2.657c0.854-0.731,1.852-1.308,2.832-1.863
		c-0.4,0-1.215-0.009-1.612-0.009c0.167-0.52,0.343-1.033,0.518-1.546c-0.164-0.063-0.483-0.192-0.644-0.257
		c-0.264,0.474-0.521,0.938-0.783,1.41c-0.17,0.037-0.511,0.117-0.686,0.154c-0.038,0.252-0.116,0.756-0.152,1.002
		c-0.438-0.062-0.875-0.119-1.317-0.184c-0.041-0.322-0.131-0.977-0.179-1.298c-0.232,0.463-0.467,0.932-0.702,1.399
		c-0.111-0.373-0.158-0.754-0.076-1.16c-0.25-0.237-0.495-0.474-0.737-0.701c1.229,0.013,2.328-0.527,3.354-1.146
		c-0.354-0.069-1.057-0.215-1.406-0.284c0.492-0.852,0.966-1.709,1.431-2.572c0.258,0.102,0.767,0.303,1.021,0.404
		c-0.149,0.457-0.3,0.914-0.449,1.373c1.91-0.229,2.765,1.035,3.058,2.744c1.047-0.313,2.197-0.913,3.269-0.351
		C619.052,205.648,618.63,206.135,618.244,206.65z"/>
	<g>
		<path fill="#2D2C2C" d="M551.447,377.396c-0.104-3.644,0-13.621,0-13.621h-2.858v-81.623c0,0-0.954-10.611-3.815-10.795
			c-2.862-0.174-21.616,0-21.616,0s-18.755-0.174-21.617,0c-2.86,0.184-3.813,10.795-3.813,10.795v81.623h-2.861
			c0,0,0.104,9.979,0,13.621c-2.858,1.944-4.132,1.231-4.132,1.231v4.267h32.423h32.423v-4.267
			C555.582,378.631,554.31,379.344,551.447,377.396z"/>
		<g>
			<rect x="537.651" y="340.645" fill="#FFFFFF" width="2.543" height="14.783"/>
			<rect x="533.709" y="340.645" fill="#FFFFFF" width="2.541" height="14.783"/>
			<rect x="529.767" y="340.645" fill="#FFFFFF" width="2.544" height="14.783"/>
			<rect x="525.823" y="340.645" fill="#FFFFFF" width="2.541" height="14.783"/>
			<rect x="521.885" y="340.645" fill="#FFFFFF" width="2.543" height="14.783"/>
			<rect x="517.943" y="340.645" fill="#FFFFFF" width="2.545" height="14.783"/>
			<rect x="514.003" y="340.645" fill="#FFFFFF" width="2.541" height="14.783"/>
			<rect x="510.058" y="340.645" fill="#FFFFFF" width="2.543" height="14.783"/>
			<rect x="506.115" y="340.645" fill="#FFFFFF" width="2.543" height="14.783"/>
			<rect x="502.178" y="340.645" fill="#FFFFFF" width="2.541" height="14.783"/>
			<rect x="541.593" y="340.645" fill="#FFFFFF" width="2.543" height="14.783"/>
		</g>
		<g>
			<rect x="537.651" y="319.018" fill="#FFFFFF" width="2.543" height="14.785"/>
			<rect x="533.709" y="319.018" fill="#FFFFFF" width="2.541" height="14.785"/>
			<rect x="529.767" y="319.018" fill="#FFFFFF" width="2.544" height="14.785"/>
			<rect x="525.823" y="319.018" fill="#FFFFFF" width="2.541" height="14.785"/>
			<rect x="521.885" y="319.018" fill="#FFFFFF" width="2.543" height="14.785"/>
			<rect x="517.943" y="319.018" fill="#FFFFFF" width="2.545" height="14.785"/>
			<rect x="514.003" y="319.018" fill="#FFFFFF" width="2.541" height="14.785"/>
			<rect x="510.058" y="319.018" fill="#FFFFFF" width="2.543" height="14.785"/>
			<rect x="506.115" y="319.018" fill="#FFFFFF" width="2.543" height="14.785"/>
			<rect x="502.178" y="319.018" fill="#FFFFFF" width="2.541" height="14.785"/>
			<rect x="541.593" y="319.018" fill="#FFFFFF" width="2.543" height="14.785"/>
		</g>
		<g>
			<rect x="537.651" y="297.391" fill="#FFFFFF" width="2.543" height="14.786"/>
			<rect x="533.709" y="297.391" fill="#FFFFFF" width="2.541" height="14.786"/>
			<rect x="529.767" y="297.391" fill="#FFFFFF" width="2.544" height="14.786"/>
			<rect x="525.823" y="297.391" fill="#FFFFFF" width="2.541" height="14.786"/>
			<rect x="521.885" y="297.391" fill="#FFFFFF" width="2.543" height="14.786"/>
			<rect x="517.943" y="297.391" fill="#FFFFFF" width="2.545" height="14.786"/>
			<rect x="514.003" y="297.391" fill="#FFFFFF" width="2.541" height="14.786"/>
			<rect x="510.058" y="297.391" fill="#FFFFFF" width="2.543" height="14.786"/>
			<rect x="506.115" y="297.391" fill="#FFFFFF" width="2.543" height="14.786"/>
			<rect x="502.178" y="297.391" fill="#FFFFFF" width="2.541" height="14.786"/>
			<rect x="541.593" y="297.391" fill="#FFFFFF" width="2.543" height="14.786"/>
		</g>
		<g>
			<rect x="537.651" y="275.764" fill="#FFFFFF" width="2.543" height="14.785"/>
			<rect x="533.709" y="275.764" fill="#FFFFFF" width="2.541" height="14.785"/>
			<rect x="529.767" y="275.764" fill="#FFFFFF" width="2.544" height="14.785"/>
			<rect x="525.823" y="275.764" fill="#FFFFFF" width="2.541" height="14.785"/>
			<rect x="521.885" y="275.764" fill="#FFFFFF" width="2.543" height="14.785"/>
			<rect x="517.943" y="275.764" fill="#FFFFFF" width="2.545" height="14.785"/>
			<rect x="514.003" y="275.764" fill="#FFFFFF" width="2.541" height="14.785"/>
			<rect x="510.058" y="275.764" fill="#FFFFFF" width="2.543" height="14.785"/>
			<rect x="506.115" y="275.764" fill="#FFFFFF" width="2.543" height="14.785"/>
			<rect x="502.178" y="275.764" fill="#FFFFFF" width="2.541" height="14.785"/>
			<rect x="541.593" y="275.764" fill="#FFFFFF" width="2.543" height="14.785"/>
		</g>
		<g>
			<rect x="533.819" y="359.951" fill="#FFFFFF" width="5.292" height="17.101"/>
			<rect x="527.204" y="359.951" fill="#FFFFFF" width="5.29" height="17.101"/>
			<rect x="520.591" y="359.951" fill="#FFFFFF" width="5.292" height="17.101"/>
			<rect x="513.974" y="359.951" fill="#FFFFFF" width="5.292" height="17.101"/>
			<rect x="507.358" y="359.951" fill="#FFFFFF" width="5.294" height="17.101"/>
			<rect x="500.743" y="359.951" fill="#FFFFFF" width="5.292" height="17.101"/>
			<rect x="540.435" y="359.951" fill="#FFFFFF" width="5.29" height="17.101"/>
		</g>
	</g>
	<g>
		<path fill="#2D2C2C" d="M619.49,377.396c-0.104-3.644,0-13.621,0-13.621h-2.861v-81.623c0,0-0.949-10.611-3.813-10.795
			c-2.866-0.174-21.623,0-21.623,0s-18.758-0.174-21.619,0c-2.858,0.184-3.813,10.795-3.813,10.795v81.623h-2.859
			c0,0,0.104,9.979,0,13.621c-2.862,1.944-4.135,1.231-4.135,1.231v4.267h32.427h32.434v-4.267
			C623.623,378.631,622.351,379.344,619.49,377.396z"/>
		<g>
			<rect x="605.69" y="340.645" fill="#FFFFFF" width="2.543" height="14.783"/>
			<rect x="601.74" y="340.645" fill="#FFFFFF" width="2.543" height="14.783"/>
			<rect x="597.801" y="340.645" fill="#FFFFFF" width="2.541" height="14.783"/>
			<rect x="593.856" y="340.645" fill="#FFFFFF" width="2.543" height="14.783"/>
			<rect x="589.916" y="340.645" fill="#FFFFFF" width="2.544" height="14.783"/>
			<rect x="585.974" y="340.645" fill="#FFFFFF" width="2.545" height="14.783"/>
			<rect x="582.033" y="340.645" fill="#FFFFFF" width="2.541" height="14.783"/>
			<rect x="578.095" y="340.645" fill="#FFFFFF" width="2.541" height="14.783"/>
			<rect x="574.15" y="340.645" fill="#FFFFFF" width="2.545" height="14.783"/>
			<rect x="570.21" y="340.645" fill="#FFFFFF" width="2.541" height="14.783"/>
			<rect x="609.632" y="340.645" fill="#FFFFFF" width="2.549" height="14.783"/>
		</g>
		<g>
			<rect x="605.69" y="319.018" fill="#FFFFFF" width="2.543" height="14.785"/>
			<rect x="601.74" y="319.018" fill="#FFFFFF" width="2.543" height="14.785"/>
			<rect x="597.801" y="319.018" fill="#FFFFFF" width="2.541" height="14.785"/>
			<rect x="593.856" y="319.018" fill="#FFFFFF" width="2.543" height="14.785"/>
			<rect x="589.916" y="319.018" fill="#FFFFFF" width="2.544" height="14.785"/>
			<rect x="585.974" y="319.018" fill="#FFFFFF" width="2.545" height="14.785"/>
			<rect x="582.033" y="319.018" fill="#FFFFFF" width="2.541" height="14.785"/>
			<rect x="578.095" y="319.018" fill="#FFFFFF" width="2.541" height="14.785"/>
			<rect x="574.15" y="319.018" fill="#FFFFFF" width="2.545" height="14.785"/>
			<rect x="570.21" y="319.018" fill="#FFFFFF" width="2.541" height="14.785"/>
			<rect x="609.632" y="319.018" fill="#FFFFFF" width="2.549" height="14.785"/>
		</g>
		<g>
			<rect x="605.69" y="297.391" fill="#FFFFFF" width="2.543" height="14.786"/>
			<rect x="601.74" y="297.391" fill="#FFFFFF" width="2.543" height="14.786"/>
			<rect x="597.801" y="297.391" fill="#FFFFFF" width="2.541" height="14.786"/>
			<rect x="593.856" y="297.391" fill="#FFFFFF" width="2.543" height="14.786"/>
			<rect x="589.916" y="297.391" fill="#FFFFFF" width="2.544" height="14.786"/>
			<rect x="585.974" y="297.391" fill="#FFFFFF" width="2.545" height="14.786"/>
			<rect x="582.033" y="297.391" fill="#FFFFFF" width="2.541" height="14.786"/>
			<rect x="578.095" y="297.391" fill="#FFFFFF" width="2.541" height="14.786"/>
			<rect x="574.15" y="297.391" fill="#FFFFFF" width="2.545" height="14.786"/>
			<rect x="570.21" y="297.391" fill="#FFFFFF" width="2.541" height="14.786"/>
			<rect x="609.632" y="297.391" fill="#FFFFFF" width="2.549" height="14.786"/>
		</g>
		<g>
			<rect x="605.69" y="275.764" fill="#FFFFFF" width="2.543" height="14.785"/>
			<rect x="601.74" y="275.764" fill="#FFFFFF" width="2.543" height="14.785"/>
			<rect x="597.801" y="275.764" fill="#FFFFFF" width="2.541" height="14.785"/>
			<rect x="593.856" y="275.764" fill="#FFFFFF" width="2.543" height="14.785"/>
			<rect x="589.916" y="275.764" fill="#FFFFFF" width="2.544" height="14.785"/>
			<rect x="585.974" y="275.764" fill="#FFFFFF" width="2.545" height="14.785"/>
			<rect x="582.033" y="275.764" fill="#FFFFFF" width="2.541" height="14.785"/>
			<rect x="578.095" y="275.764" fill="#FFFFFF" width="2.541" height="14.785"/>
			<rect x="574.15" y="275.764" fill="#FFFFFF" width="2.545" height="14.785"/>
			<rect x="570.21" y="275.764" fill="#FFFFFF" width="2.541" height="14.785"/>
			<rect x="609.632" y="275.764" fill="#FFFFFF" width="2.549" height="14.785"/>
		</g>
		<g>
			<rect x="601.851" y="359.951" fill="#FFFFFF" width="5.296" height="17.101"/>
			<rect x="595.237" y="359.951" fill="#FFFFFF" width="5.289" height="17.101"/>
			<rect x="588.622" y="359.951" fill="#FFFFFF" width="5.292" height="17.101"/>
			<rect x="582.009" y="359.951" fill="#FFFFFF" width="5.292" height="17.101"/>
			<rect x="575.395" y="359.951" fill="#FFFFFF" width="5.295" height="17.101"/>
			<rect x="568.776" y="359.951" fill="#FFFFFF" width="5.292" height="17.101"/>
			<rect x="608.472" y="359.951" fill="#FFFFFF" width="5.293" height="17.101"/>
		</g>
	</g>
	<g>
		<path fill="#2D2C2C" d="M687.518,377.396c-0.104-3.644,0-13.621,0-13.621h-2.86v-81.623c0,0-0.949-10.611-3.813-10.795
			c-2.857-0.174-21.611,0-21.611,0s-18.756-0.174-21.614,0c-2.861,0.184-3.813,10.795-3.813,10.795v81.623h-2.86
			c0,0,0.104,9.979,0,13.621c-2.859,1.944-4.134,1.231-4.134,1.231v4.267h32.423h32.423v-4.267
			C691.65,378.631,690.377,379.344,687.518,377.396z"/>
		<g>
			<rect x="673.725" y="340.645" fill="#FFFFFF" width="2.54" height="14.783"/>
			<rect x="669.778" y="340.645" fill="#FFFFFF" width="2.543" height="14.783"/>
			<rect x="665.84" y="340.645" fill="#FFFFFF" width="2.543" height="14.783"/>
			<rect x="661.898" y="340.645" fill="#FFFFFF" width="2.541" height="14.783"/>
			<rect x="657.952" y="340.645" fill="#FFFFFF" width="2.545" height="14.783"/>
			<rect x="654.016" y="340.645" fill="#FFFFFF" width="2.543" height="14.783"/>
			<rect x="650.073" y="340.645" fill="#FFFFFF" width="2.543" height="14.783"/>
			<rect x="646.134" y="340.645" fill="#FFFFFF" width="2.54" height="14.783"/>
			<rect x="642.19" y="340.645" fill="#FFFFFF" width="2.545" height="14.783"/>
			<rect x="638.248" y="340.645" fill="#FFFFFF" width="2.544" height="14.783"/>
			<rect x="677.661" y="340.645" fill="#FFFFFF" width="2.545" height="14.783"/>
		</g>
		<g>
			<rect x="673.725" y="319.018" fill="#FFFFFF" width="2.54" height="14.785"/>
			<rect x="669.778" y="319.018" fill="#FFFFFF" width="2.543" height="14.785"/>
			<rect x="665.84" y="319.018" fill="#FFFFFF" width="2.543" height="14.785"/>
			<rect x="661.898" y="319.018" fill="#FFFFFF" width="2.541" height="14.785"/>
			<rect x="657.952" y="319.018" fill="#FFFFFF" width="2.545" height="14.785"/>
			<rect x="654.016" y="319.018" fill="#FFFFFF" width="2.543" height="14.785"/>
			<rect x="650.073" y="319.018" fill="#FFFFFF" width="2.543" height="14.785"/>
			<rect x="646.134" y="319.018" fill="#FFFFFF" width="2.54" height="14.785"/>
			<rect x="642.19" y="319.018" fill="#FFFFFF" width="2.545" height="14.785"/>
			<rect x="638.248" y="319.018" fill="#FFFFFF" width="2.544" height="14.785"/>
			<rect x="677.661" y="319.018" fill="#FFFFFF" width="2.545" height="14.785"/>
		</g>
		<g>
			<rect x="673.725" y="297.391" fill="#FFFFFF" width="2.54" height="14.786"/>
			<rect x="669.778" y="297.391" fill="#FFFFFF" width="2.543" height="14.786"/>
			<rect x="665.84" y="297.391" fill="#FFFFFF" width="2.543" height="14.786"/>
			<rect x="661.898" y="297.391" fill="#FFFFFF" width="2.541" height="14.786"/>
			<rect x="657.952" y="297.391" fill="#FFFFFF" width="2.545" height="14.786"/>
			<rect x="654.016" y="297.391" fill="#FFFFFF" width="2.543" height="14.786"/>
			<rect x="650.073" y="297.391" fill="#FFFFFF" width="2.543" height="14.786"/>
			<rect x="646.134" y="297.391" fill="#FFFFFF" width="2.54" height="14.786"/>
			<rect x="642.19" y="297.391" fill="#FFFFFF" width="2.545" height="14.786"/>
			<rect x="638.248" y="297.391" fill="#FFFFFF" width="2.544" height="14.786"/>
			<rect x="677.661" y="297.391" fill="#FFFFFF" width="2.545" height="14.786"/>
		</g>
		<g>
			<rect x="673.725" y="275.764" fill="#FFFFFF" width="2.54" height="14.785"/>
			<rect x="669.778" y="275.764" fill="#FFFFFF" width="2.543" height="14.785"/>
			<rect x="665.84" y="275.764" fill="#FFFFFF" width="2.543" height="14.785"/>
			<rect x="661.898" y="275.764" fill="#FFFFFF" width="2.541" height="14.785"/>
			<rect x="657.952" y="275.764" fill="#FFFFFF" width="2.545" height="14.785"/>
			<rect x="654.016" y="275.764" fill="#FFFFFF" width="2.543" height="14.785"/>
			<rect x="650.073" y="275.764" fill="#FFFFFF" width="2.543" height="14.785"/>
			<rect x="646.134" y="275.764" fill="#FFFFFF" width="2.54" height="14.785"/>
			<rect x="642.19" y="275.764" fill="#FFFFFF" width="2.545" height="14.785"/>
			<rect x="638.248" y="275.764" fill="#FFFFFF" width="2.544" height="14.785"/>
			<rect x="677.661" y="275.764" fill="#FFFFFF" width="2.545" height="14.785"/>
		</g>
		<g>
			<rect x="669.89" y="359.951" fill="#FFFFFF" width="5.29" height="17.101"/>
			<rect x="663.274" y="359.951" fill="#FFFFFF" width="5.29" height="17.101"/>
			<rect x="656.658" y="359.951" fill="#FFFFFF" width="5.292" height="17.101"/>
			<rect x="650.048" y="359.951" fill="#FFFFFF" width="5.292" height="17.101"/>
			<rect x="643.435" y="359.951" fill="#FFFFFF" width="5.291" height="17.101"/>
			<rect x="636.819" y="359.951" fill="#FFFFFF" width="5.291" height="17.101"/>
			<rect x="676.506" y="359.951" fill="#FFFFFF" width="5.288" height="17.101"/>
		</g>
	</g>
	<g>
		<path fill="#283C8F" d="M1034.191,344.83c7.912-0.028,15.818-0.053,23.752,0c-0.054,2.074-0.178,6.255-0.229,8.359
			c-7.856-0.025-15.688-0.025-23.496-0.025C1034.219,351.085,1034.191,346.904,1034.191,344.83z"/>
		<g>
			<path fill="#283C8F" d="M1004.314,181.649c5.599,0,11.228,0,16.851,0.023c0.606,43.419,1.473,86.835,2.231,130.255
				c1.521,0.099,4.538,0.302,6.059,0.433c-0.025,4.736-0.025,9.502,0,14.291c10.188-0.021,20.397,0,30.646-0.051
				c0.148,19.346-0.052,38.705,0.072,58.045c-108.428,0.049-216.854,0.023-325.311,0c0-3.646,0.023-7.299,0.051-10.924
				c4.136-0.203,8.288-0.354,12.444-0.556c-0.073-4.058-0.099-8.114-0.125-12.146c79.636,0.025,159.271,0.078,238.909-0.023
				c-0.383-11.434-0.229-22.861-0.28-34.266c2.989-0.076,5.981-0.133,8.975-0.152c-0.023-4.846,0-9.654,0-14.444
				c1.696,0.05,5.094,0.149,6.814,0.226C1003.398,268.814,1003.6,225.219,1004.314,181.649z"/>
		</g>
		<path fill="#43A0D2" d="M768.773,213.178c28.847-0.529,57.688-0.074,86.529-0.228c-0.1,1.347-0.303,4.056-0.404,5.426
			c-27.906-0.328-55.838,0.356-83.741-0.328C770.573,216.834,769.354,214.396,768.773,213.178z"/>
		<path fill="#43A0D2" d="M883.844,213.154c28.617-0.229,57.281-0.529,85.896,0.104c5.751,6.588-4.942,4.281-8.01,5.096
			c-25.065-0.279-50.134,0.354-75.177-0.279C885.87,216.834,884.529,214.371,883.844,213.154z"/>
		<path fill="#145B8E" d="M773.156,222.205c26.488-0.277,52.975-0.053,79.46-0.127c1.826,45.216,6.867,90.204,11.938,135.141
			c-34.396,0.15-68.813-0.052-103.233,0.104C766.064,312.359,771.384,267.395,773.156,222.205z"/>
		<path fill="#145B8E" d="M888.433,222.078c26.487,0.023,52.948,0,79.435,0.023c1.624,45.241,7.1,90.209,11.761,135.194
			c-34.396-0.08-68.788,0.021-103.184-0.052C881.484,312.282,886.406,267.266,888.433,222.078z"/>
		<rect x="1031.599" y="334.161" fill="#FFFFFF" width="23.444" height="8.252"/>
		<rect x="1031.599" y="347.094" fill="#FFFFFF" width="23.444" height="8.25"/>
		<rect x="1031.599" y="360.025" fill="#FFFFFF" width="23.444" height="8.246"/>
	</g>
	<g>
		<g>
			<path fill="#CCCCCC" d="M447.424,365.65c-4.129-15.838-8.279-31.651-12.408-47.492c-6.6,21.355-26.93,37.27-49.487,37.316
				c0.577,3.358,1.055,6.77,1.462,10.227C407.149,365.559,427.285,365.675,447.424,365.65z M422.678,363.592
				c-0.792-0.125-2.352-0.34-3.146-0.457c-1.992-5.687-2.496-11.785-2.783-17.762C422.439,349.334,422.052,357.448,422.678,363.592z
				"/>
		</g>
		<path fill="#CCCCCC" d="M354.447,344.581c-9.889-6.407-14.951-17.329-19.681-27.651c-3.238,16.467,4.729,32.33,8.593,48.028
			c1.584,0.407,4.729,1.224,6.313,1.634c0.479-6.169,1.321-12.242,1.947-18.359C352.572,347.007,353.534,345.781,354.447,344.581z"
			/>
		<path fill="#CCCCCC" d="M327.349,318.275c-7.177,21.123-27.069,37.226-49.776,37.199c0.361,2.551,1.109,7.633,1.491,10.197
			c11.017-0.021,22.031-0.166,33.023,0.15c-1.679-6.698-3.05-13.491-3.338-20.379c7.13,4.535,4.584,14.711,6.241,21.744
			c1.174-0.744,3.504-2.258,4.654-3c3.361-10.584,5.784-21.436,8.643-32.137C329.99,327.467,328.19,322.742,327.349,318.275z"/>
		<path fill="#CCCCCC" d="M245.681,344.102c-9.099-6.601-14.426-16.752-18.385-26.975c-3.147,16.366-8.041,32.374-12.147,48.529
			c8.88-0.023,17.762-0.1,26.616,0.117C242.296,358.434,243.156,351.016,245.681,344.102z"/>
		<path fill="#CCCCCC" d="M339.493,365.633c-2.736-10.252-5.183-20.592-8.33-30.725c-2.734,10.227-5.326,20.523-8.06,30.767
			C328.572,365.633,334.047,365.607,339.493,365.633z"/>
		<path fill="#CCCCCC" d="M355.789,345.615c-0.096,6.859-1.582,13.633-3.479,20.232c10.364-0.342,20.735-0.24,31.104-0.121
			c0.239-2.568,0.743-7.681,1.009-10.252C374.224,354.659,363.927,352.093,355.789,345.615z"/>
		<path fill="#CCCCCC" d="M247.888,345.781c-0.218,6.818-1.608,13.512-3.506,20.063c10.346-0.338,20.714-0.238,31.055-0.121
			c0.266-2.543,0.792-7.654,1.058-10.225C266.32,354.709,256.143,352.025,247.888,345.781z"/>
		<path fill="#145B8E" d="M178.816,317.633c-0.983-38.568-1.251-77.185-1.919-115.777c-4.416,0.099-8.801-0.432-13.242,0
			c-1.343,38.451-1.063,77.447-2.24,115.918c-1.416-0.067-4.272-0.215-5.688-0.285c0.023,4.587,0.023,9.191,0.023,13.802
			c-1.801,0-5.4,0.047-7.178,0.047c-0.022,10.2-0.091,20.431,0.125,30.629c-7.8,5.397-2.834,16.271-4.105,24.216
			c106.582,0.355,213.146,0.119,319.704,0.17c-0.122-3.457-0.242-6.863-0.383-10.273c-72.748-0.167-145.465-0.023-218.184-0.068
			c-12.6-0.099-25.224,0.383-37.8-0.6c0.096-2.02,0.263-6.051,0.361-8.065c-6.984,0.722-14.019,0.792-21.072,0.745
			c0.072-2.686,0.096-5.354,0.119-7.992c6.938,0,13.896,0.047,20.808,0.455l0.408-5.063c-7.052,0.961-14.159,1.078-21.286,1.078
			c0.026-2.019,0.049-6.096,0.07-8.109c7.031-0.1,14.161-0.169,20.93,2.039c0.026-1.775,0.049-5.33,0.07-7.104
			c-6.912,1.485-14.017,1.68-21.07,1.633c0-2.063,0.049-6.146,0.07-8.187c7.081-0.021,14.185,0.241,21.147,1.517
			c-0.147-1.776-0.436-5.31-0.576-7.06c-8.089,0-16.2,0-24.341,0.099c-0.047-4.607-0.094-9.189-0.143-13.774
			C182.271,317.607,179.964,317.633,178.816,317.633z"/>
		<g>
			<path fill="#43A0D2" d="M394.789,251.127c-6.166-0.12-12.358-0.146-18.551,0c-3.865,5.831-11.424,6.454-16.969,10.055
				c-19.104,10.654-28.824,34.463-23.591,55.609c-1.991,0.117-5.95,0.336-7.944,0.453c3.479-19.969-3.335-42.094-20.568-53.76
				c-6.164-5.232-15.67-5.426-20.328-12.385c-6.168-0.096-12.356-0.119-18.527,0.051c-4.296,6.313-12.769,6.722-18.648,11.016
				C232,273.018,223.6,294.902,227.008,315.041c-5.4,5.016-5.112,13.052-7.393,19.652c-2.688,12.938-7.607,25.365-10.033,38.351
				c33.6,1.584,67.345,0.216,101.018,0.67c47.64-0.022,95.252,0.052,142.895-0.047c-3.408-12.528-7.055-24.983-10.129-37.606
				c-1.964-7.082-3-14.738-7.394-20.854c2.762-19.322-4.172-40.299-20.659-51.577C409.094,258.373,399.59,258.041,394.789,251.127z
				 M447.424,365.65c-20.138,0.021-40.271-0.094-60.435,0.051c-0.407-3.453-0.886-6.86-1.462-10.225
				c22.56-0.052,42.889-15.961,49.487-37.318C439.143,333.999,443.294,349.814,447.424,365.65z M354.447,344.581
				c-0.912,1.2-1.873,2.426-2.831,3.651c-0.626,6.117-1.465,12.189-1.947,18.356c-1.582-0.407-4.729-1.228-6.313-1.634
				c-3.863-15.698-11.832-31.561-8.593-48.028C339.493,327.252,344.556,338.174,354.447,344.581z M327.349,318.275
				c0.842,4.467,2.642,9.188,0.938,13.773c-2.854,10.706-5.277,21.555-8.643,32.143c-1.15,0.742-3.479,2.252-4.654,3
				c-1.654-7.033,0.886-17.211-6.241-21.748c0.288,6.887,1.657,13.679,3.338,20.377c-10.992-0.314-22.01-0.17-33.023-0.146
				c-0.382-2.568-1.13-7.654-1.491-10.199C300.279,355.501,320.172,339.398,327.349,318.275z M245.681,344.102
				c-2.524,6.914-3.385,14.332-3.917,21.672c-8.853-0.215-17.735-0.146-26.616-0.121c4.106-16.148,9-32.156,12.147-48.527
				C231.255,327.35,236.582,337.501,245.681,344.102z M339.493,365.633c-5.448-0.025-10.922,0-16.39,0.047
				c2.734-10.246,5.326-20.545,8.06-30.769C334.313,345.041,336.757,355.381,339.493,365.633z M355.789,345.615
				c8.138,6.478,18.435,9.049,28.634,9.859c-0.266,2.566-0.77,7.684-1.009,10.252c-10.368-0.119-20.739-0.221-31.104,0.121
				C354.207,359.248,355.694,352.475,355.789,345.615z M247.888,345.781c8.252,6.244,18.431,8.928,28.608,9.72
				c-0.266,2.565-0.792,7.681-1.058,10.226c-10.343-0.119-20.711-0.218-31.055,0.123C246.281,359.293,247.671,352.6,247.888,345.781
				z"/>
		</g>
		<path fill="#43A0D2" d="M422.678,363.592c-0.626-6.148-0.242-14.258-5.93-18.219c0.287,5.977,0.791,12.07,2.783,17.757
			C420.326,363.252,421.886,363.467,422.678,363.592z"/>
		<path fill="#2C2C2C" d="M176.854,199.43h-12.899c0,0,1.598-5.5,6.451-5.5C175.258,193.929,176.854,199.43,176.854,199.43z"/>
	</g>
	<rect x="-0.5" y="382.7" fill="#2D2C2C" width="1200" height="16.8"/>
	<path fill="#CCCCCC" d="M158.819,120.42c-1.776,0-3.394,0.67-4.622,1.767c-1.849-3.423-5.465-5.75-9.63-5.75
		c-2.285,0-4.408,0.706-6.162,1.908c-3.056-5.047-8.597-8.412-14.923-8.412c-5.639,0-10.645,2.671-13.833,6.823
		c-0.824-0.202-1.686-0.319-2.565-0.319c-6.04,0-10.938,4.896-10.938,10.934h69.626C165.773,123.534,162.66,120.42,158.819,120.42z"
		/>
	<path fill="#CCCCCC" d="M309.649,84.608c-1.95,0-3.728,0.742-5.074,1.944c-2.026-3.756-6-6.312-10.567-6.312
		c-2.51,0-4.84,0.772-6.768,2.093c-3.352-5.539-9.437-9.238-16.38-9.238c-6.185,0-11.681,2.94-15.181,7.491
		c-0.907-0.224-1.852-0.351-2.822-0.351c-6.628,0-12,5.373-12,12h76.427C317.28,88.026,313.863,84.608,309.649,84.608z"/>
	<path fill="#CCCCCC" d="M127.253,86.183c-2.438,0-4.65,0.924-6.337,2.428c-2.534-4.694-7.495-7.885-13.205-7.885
		c-3.142,0-6.049,0.962-8.454,2.613c-4.193-6.914-11.791-11.542-20.468-11.542c-7.729,0-14.598,3.669-18.969,9.357
		c-1.135-0.273-2.311-0.435-3.526-0.435c-8.281,0-14.996,6.716-14.996,14.993h95.494C136.792,90.45,132.522,86.183,127.253,86.183z"
		/>
	<path fill="#CCCCCC" d="M403.181,115.462c-1.647,0-3.14,0.623-4.274,1.64c-1.706-3.163-5.053-5.32-8.898-5.32
		c-2.114,0-4.076,0.65-5.7,1.764c-2.823-4.661-7.949-7.779-13.797-7.779c-5.21,0-9.842,2.473-12.788,6.309
		c-0.762-0.186-1.554-0.294-2.376-0.294c-5.581,0-10.105,4.528-10.105,10.111h64.374
		C409.605,118.343,406.727,115.462,403.181,115.462z"/>
	<path fill="#CCCCCC" d="M1041.351,120.42c1.776,0,3.396,0.67,4.622,1.767c1.852-3.423,5.467-5.75,9.631-5.75
		c2.285,0,4.41,0.706,6.161,1.908c3.059-5.047,8.599-8.412,14.927-8.412c5.637,0,10.644,2.671,13.83,6.823
		c0.824-0.202,1.688-0.319,2.564-0.319c6.041,0,10.938,4.896,10.938,10.934H1034.4
		C1034.402,123.534,1037.514,120.42,1041.351,120.42z"/>
	<path fill="#CCCCCC" d="M890.532,84.608c1.948,0,3.728,0.742,5.073,1.944c2.026-3.756,5.996-6.312,10.564-6.312
		c2.51,0,4.84,0.772,6.768,2.093c3.354-5.539,9.438-9.238,16.379-9.238c6.184,0,11.682,2.94,15.184,7.491
		c0.903-0.224,1.85-0.351,2.818-0.351c6.628,0,11.998,5.373,11.998,12h-76.422C882.902,88.026,886.319,84.608,890.532,84.608z"/>
	<path fill="#CCCCCC" d="M1072.918,86.183c2.438,0,4.652,0.924,6.338,2.428c2.535-4.694,7.496-7.885,13.205-7.885
		c3.141,0,6.049,0.962,8.455,2.613c4.189-6.914,11.789-11.542,20.469-11.542c7.729,0,14.6,3.669,18.966,9.357
		c1.136-0.273,2.313-0.435,3.53-0.435c8.276,0,14.994,6.716,14.994,14.993h-95.493C1063.382,90.45,1067.651,86.183,1072.918,86.183z
		"/>
	<path fill="#CCCCCC" d="M797.01,115.462c1.646,0,3.137,0.623,4.272,1.64c1.706-3.163,5.054-5.32,8.896-5.32
		c2.117,0,4.076,0.65,5.7,1.764c2.827-4.661,7.947-7.779,13.796-7.779c5.21,0,9.841,2.473,12.787,6.309
		c0.762-0.186,1.554-0.294,2.377-0.294c5.578,0,10.104,4.528,10.104,10.111h-64.366C790.584,118.343,793.459,115.462,797.01,115.462
		z"/>
</g>
<rect x="-0.5" y="-0.5" fill="none" width="1200" height="400"/>
</svg>
