<?xml version="1.0" encoding="utf-8"?>
<!-- Generator: Adobe Illustrator 13.0.0, SVG Export Plug-In . SVG Version: 6.00 Build 14948)  -->
<!DOCTYPE svg PUBLIC "-//W3C//DTD SVG 1.1//EN" "http://www.w3.org/Graphics/SVG/1.1/DTD/svg11.dtd">
<svg version="1.1" id="Layer_1" xmlns="http://www.w3.org/2000/svg" xmlns:xlink="http://www.w3.org/1999/xlink" x="0px" y="0px"
	 width="1200px" height="400px" viewBox="0 0 1200 400" enable-background="new 0 0 1200 400" xml:space="preserve">
<rect fill="none" width="1200" height="400"/>
<g>
	<path fill="#FFFFFF" stroke="#FFFFFF" stroke-width="0.0938" stroke-miterlimit="10.43" d="M237.391,186.023
		c7.438,0,14.88,0,22.365,0c0.022,9,0.022,18,0,27.025c-7.465,0.025-14.902,0.025-22.348,0.025
		C237.414,204.049,237.414,195.05,237.391,186.023z"/>
	<path fill="#FFFFFF" stroke="#FFFFFF" stroke-width="0.0938" stroke-miterlimit="10.43" d="M196.253,193.824
		c6.604-0.023,13.229-0.023,19.854,0c0,6.89,0,13.8,0,20.714c-6.624,0-13.25,0-19.854-0.024
		C196.206,207.6,196.206,200.714,196.253,193.824z"/>
	<path fill="#FFFFFF" stroke="#FFFFFF" stroke-width="0.0938" stroke-miterlimit="10.43" d="M237.414,224.977
		c7.44,0,14.88,0,22.352,0.022c0.021,9,0.021,18.022,0,27.022c-7.469,0-14.934,0-22.352-0.022
		C237.414,243.002,237.391,233.977,237.414,224.977z"/>
	<path fill="#FFFFFF" stroke="#FFFFFF" stroke-width="0.0938" stroke-miterlimit="10.43" d="M196.253,232.752
		c6.604,0,13.229,0,19.854,0c0,6.914,0,13.824,0,20.738c-6.624,0.021-13.25,0.021-19.871,0
		C196.206,246.576,196.206,239.666,196.253,232.752z"/>
	<path fill="#FFFFFF" stroke="#FFFFFF" stroke-width="0.0938" stroke-miterlimit="10.43" d="M237.391,263.951
		c7.438,0,14.9,0,22.393,0c0,9.023,0,18.023-0.048,27.051c-7.443,0-14.905,0-22.323,0
		C237.414,281.977,237.414,272.951,237.391,263.951z"/>
	<path fill="#FFFFFF" stroke="#FFFFFF" stroke-width="0.0938" stroke-miterlimit="10.43" d="M196.253,271.732
		c6.604-0.024,13.229-0.024,19.875,0c-0.024,6.883-0.024,13.799,0,20.709c-6.647,0.021-13.271,0-19.875-0.024
		C196.206,285.507,196.206,278.615,196.253,271.732z"/>
	<path fill="#FFFFFF" stroke="#FFFFFF" stroke-width="0.0938" stroke-miterlimit="10.43" d="M237.391,302.881
		c7.462,0,14.9,0,22.393,0c-0.023,9.025,0,18.051-0.023,27.068c-7.465,0-14.902,0-22.348,0
		C237.414,320.932,237.414,311.906,237.391,302.881z"/>
	<path fill="#FFFFFF" stroke="#FFFFFF" stroke-width="0.0938" stroke-miterlimit="10.43" d="M196.232,310.707
		c6.624-0.025,13.25-0.025,19.871,0c0,6.908,0,13.801,0,20.709c-6.648,0-13.271,0-19.871,0
		C196.232,324.507,196.206,317.591,196.232,310.707z"/>
	<path fill="#FFFFFF" stroke="#FFFFFF" stroke-width="0.0938" stroke-miterlimit="10.43" d="M196.591,349.632
		c6.479-0.024,12.984-0.024,19.516,0c0,8.259,0,16.517,0.024,24.769c-6.528,0.021-13.057,0.021-19.562,0
		C196.567,366.123,196.567,357.891,196.591,349.632z"/>
	<rect x="177.911" y="82.553" fill="#145C8F" width="98.279" height="306.437"/>
	<polygon fill="#145C8F" points="254.315,125.016 199.787,125.016 199.787,64.189 227.053,40.09 254.315,64.189 	"/>
	<rect x="212.919" y="64.791" fill="#CDCCCC" width="9.806" height="23.011"/>
	<rect x="231.384" y="64.791" fill="#CDCCCC" width="9.805" height="23.011"/>
	<rect x="194.605" y="102.004" fill="#CDCCCC" width="9.802" height="23.012"/>
	<rect x="213.072" y="102.004" fill="#CDCCCC" width="9.8" height="23.012"/>
	<rect x="231.233" y="102.004" fill="#CDCCCC" width="9.803" height="23.012"/>
	<rect x="249.695" y="102.004" fill="#CDCCCC" width="9.803" height="23.012"/>
	<rect x="194.605" y="133.686" fill="#CDCCCC" width="9.802" height="23.01"/>
	<rect x="213.072" y="133.686" fill="#CDCCCC" width="9.8" height="23.01"/>
	<rect x="231.233" y="133.686" fill="#CDCCCC" width="9.803" height="23.01"/>
	<rect x="249.695" y="133.686" fill="#CDCCCC" width="9.803" height="23.01"/>
	<rect x="194.605" y="165.361" fill="#CDCCCC" width="9.802" height="23.016"/>
	<rect x="213.072" y="165.361" fill="#CDCCCC" width="9.8" height="23.016"/>
	<rect x="231.233" y="165.361" fill="#CDCCCC" width="9.803" height="23.016"/>
	<rect x="249.695" y="165.361" fill="#CDCCCC" width="9.803" height="23.016"/>
	<rect x="194.605" y="197.043" fill="#CDCCCC" width="9.802" height="23.012"/>
	<rect x="213.072" y="197.043" fill="#CDCCCC" width="9.8" height="23.012"/>
	<rect x="231.233" y="197.043" fill="#CDCCCC" width="9.803" height="23.012"/>
	<rect x="249.695" y="197.043" fill="#CDCCCC" width="9.803" height="23.012"/>
	<rect x="194.605" y="228.725" fill="#CDCCCC" width="9.802" height="23.01"/>
	<rect x="213.072" y="228.725" fill="#CDCCCC" width="9.8" height="23.01"/>
	<rect x="231.233" y="228.725" fill="#CDCCCC" width="9.803" height="23.01"/>
	<rect x="249.695" y="228.725" fill="#CDCCCC" width="9.803" height="23.01"/>
	<rect x="194.605" y="260.402" fill="#CDCCCC" width="9.802" height="23.015"/>
	<rect x="213.072" y="260.402" fill="#CDCCCC" width="9.8" height="23.015"/>
	<rect x="231.233" y="260.402" fill="#CDCCCC" width="9.803" height="23.015"/>
	<rect x="249.695" y="260.402" fill="#CDCCCC" width="9.803" height="23.015"/>
	<rect x="194.605" y="292.084" fill="#CDCCCC" width="9.802" height="23.012"/>
	<rect x="213.072" y="292.084" fill="#CDCCCC" width="9.8" height="23.012"/>
	<rect x="231.233" y="292.084" fill="#CDCCCC" width="9.803" height="23.012"/>
	<rect x="249.695" y="292.084" fill="#CDCCCC" width="9.803" height="23.012"/>
	<rect x="194.605" y="323.764" fill="#CDCCCC" width="9.802" height="23.01"/>
	<rect x="213.072" y="323.764" fill="#CDCCCC" width="9.8" height="23.01"/>
	<rect x="231.233" y="323.764" fill="#CDCCCC" width="9.803" height="23.01"/>
	<rect x="249.695" y="323.764" fill="#CDCCCC" width="9.803" height="23.01"/>
	<g>
		<path fill="#45A0D1" d="M37.551,223.341c5.208-0.015,10.422-0.015,15.646,0c-0.014,4.738-0.014,9.468,0,14.199
			c32.534,0.021,65.066-0.048,97.613,0.034c0.017,1.179,0.047,3.564,0.063,4.746c-1.001,0.188-2.979,0.543-3.969,0.729
			c0.017,2.271,0.048,4.549,0.104,6.824c4.799-0.02,9.604,0,14.434-0.02c0,4.026,0,8.053,0.018,12.073
			c-0.876,0-2.643-0.012-3.519-0.012c-0.032,4.211-0.049,8.42-0.107,12.629c0.919,0.156,2.779,0.479,3.703,0.633
			c-0.097,3.796-0.097,7.595-0.033,11.406c-0.902,0.185-2.731,0.563-3.646,0.75c0.033,4.196,0.05,8.388,0.104,12.588
			c0.859-0.062,2.603-0.217,3.457-0.289c-0.999,4.252,2.858,12.185-3.593,12.938c0.074,3.959,0.074,7.941,0.059,11.938
			c0.86,0.281,2.583,0.854,3.445,1.146c0.365,3.791,0.198,7.635,0.229,11.455c-0.905-0.015-2.723-0.043-3.626-0.043
			c-0.033,4.227-0.033,8.449-0.098,12.692c0.938,0.148,2.824,0.457,3.766,0.609c-0.073,3.659-0.073,7.334-0.044,11.022
			c-0.85,0.305-2.556,0.949-3.41,1.271c-0.462,4.01-0.438,8.079-0.142,12.125c1.396,2.993,2.998,5.918,3.122,9.342
			c-51.466,0.035-102.921,0-154.365,0.021c0-2.195,0-4.396,0.014-6.578c1.153,0,3.477,0,4.642-0.014
			c-0.015-5.302-0.015-10.604-0.062-15.908c-1.247,0-3.703,0.031-4.938,0.052c0.021-3.892,0.031-7.774,0.047-11.649
			c1.229-0.017,3.703-0.031,4.95-0.051c-0.027-4.438-0.027-8.865-0.044-13.289c-1.229,0.02-3.721,0.063-4.948,0.09
			c0.02-3.938,0.02-7.851,0.028-11.754c1.229,0.021,3.675,0.08,4.902,0.094c0.029-4.441,0.047-8.863,0.077-13.309
			c-1.265,0-3.75-0.02-4.992-0.033c0-3.902,0-7.818,0.013-11.729c1.214,0.044,3.646,0.141,4.855,0.188
			c0.091-4.504,0.091-9.008,0-13.49c-1.215,0.031-3.656,0.104-4.87,0.139c0-3.936,0-7.854,0.013-11.771
			c1.214,0.047,3.655,0.123,4.872,0.172c0.077-4.504,0.077-9.01-0.014-13.494c-1.229,0.029-3.656,0.119-4.893,0.15
			c0.025-3.922,0.038-7.842,0.038-11.76c5.073,0.047,10.157,0.025,15.243-0.049c-0.014-2.258,0-4.506,0.035-6.748
			c-3.658-0.051-4.274-2.77-4.261-5.854c6.67-0.035,13.354-0.021,20.021,0C37.565,232.809,37.565,228.076,37.551,223.341z
			 M78.121,256.947c0,5.768-0.018,11.531,0,17.309c4.769,0,9.526,0,14.313,0c0.012-5.775,0.012-11.557,0-17.338
			C87.648,256.938,82.886,256.938,78.121,256.947z M25.057,256.938c0,5.763-0.018,11.543,0,17.304c4.763,0.017,9.523,0.017,14.306,0
			c0-5.761,0-11.522-0.014-17.289C34.583,256.938,29.819,256.938,25.057,256.938z M131.184,256.938
			c0.015,5.776,0.015,11.543,0.015,17.315c4.762,0,9.529,0,14.306-0.015c0.018-5.78,0.018-11.541,0-17.303
			C140.711,256.938,135.948,256.938,131.184,256.938z M51.78,261.93c-0.027,4.415-0.027,8.842,0,13.264c4.227,0,8.454,0,12.694,0
			c0-4.428,0-8.854,0-13.273C60.233,261.918,56.005,261.918,51.78,261.93z M104.845,261.93c-0.031,4.415-0.031,8.821,0,13.25
			c4.226,0.016,8.468,0.016,12.71,0.016c0-4.424,0-8.851,0-13.266C113.311,261.918,109.07,261.918,104.845,261.93z M78.151,281.861
			c-0.047,5.762-0.029,11.541-0.047,17.315c4.781,0.017,9.559,0.017,14.337,0.017c0-5.791,0.018-11.566-0.032-17.332
			C87.648,281.879,82.9,281.879,78.151,281.861z M25.057,281.891c0,5.767,0,11.528-0.018,17.289c4.769,0.014,9.544,0.014,14.322,0
			c0-5.761,0-11.539-0.014-17.289C34.583,281.879,29.805,281.879,25.057,281.891z M131.2,281.879c-0.015,5.764,0,11.543,0,17.303
			c4.75,0.014,9.528,0.014,14.306,0.014c0.018-5.758,0.018-11.536,0-17.305C140.728,281.879,135.96,281.879,131.2,281.879z
			 M51.78,286.854c-0.027,4.429-0.027,8.854,0.015,13.299c4.211,0,8.438,0,12.684,0c0-4.445,0-8.853,0.015-13.284
			C60.247,286.854,56.005,286.854,51.78,286.854z M104.845,286.854c-0.031,4.429-0.031,8.854-0.018,13.278
			c4.239,0.021,8.481,0.021,12.728,0c0-4.431,0-8.853,0-13.278C113.311,286.854,109.07,286.854,104.845,286.854z M25.057,306.838
			c0,5.777-0.018,11.541,0,17.314c4.763,0,9.523,0,14.306-0.016c0-5.763,0-11.541-0.014-17.304
			C34.569,306.838,29.805,306.838,25.057,306.838z M78.138,306.838c-0.033,5.76-0.033,11.541,0.014,17.314c4.749,0,9.497,0,14.261,0
			c0.049-5.773,0.049-11.555,0-17.314C87.648,306.838,82.886,306.838,78.138,306.838z M131.184,306.838
			c0.015,5.76,0.015,11.541,0.015,17.314c4.749,0,9.529,0,14.294,0c0.027-5.773,0.027-11.537,0.027-17.314
			C140.728,306.838,135.948,306.838,131.184,306.838z M51.751,311.814c0,4.433,0,8.853,0.027,13.271c4.227,0,8.454,0,12.694-0.013
			c0-4.414,0-8.813,0.044-13.202C60.247,311.814,55.991,311.814,51.751,311.814z M104.845,311.814
			c-0.031,4.406-0.031,8.824,0,13.246c4.226,0.021,8.468,0.027,12.727,0.021c-0.017-4.433-0.017-8.854,0-13.267
			C113.311,311.798,109.07,311.798,104.845,311.814z M25.057,331.759c0,5.765-0.018,11.543,0.014,17.339
			c4.749,0,9.499,0,14.265-0.019c0.027-5.777,0.018-11.546,0.027-17.304C34.583,331.759,29.819,331.759,25.057,331.759z
			 M78.072,331.805c0.05,5.764,0.033,11.526,0.063,17.309c4.749-0.029,9.499-0.029,14.261,0c0.047-5.775,0.032-11.559,0.063-17.334
			C87.662,331.748,82.869,331.748,78.072,331.805z M131.184,331.759c0.015,5.774,0.015,11.556,0.015,17.339
			c4.762,0,9.529,0,14.306,0c0.018-5.779,0-11.56,0.018-17.339C140.728,331.759,135.96,331.759,131.184,331.759z M51.766,336.757
			c-0.021,4.427-0.021,8.834-0.021,13.257c4.239,0.021,8.499,0.021,12.752-0.017c-0.026-4.408-0.026-8.815-0.017-13.229
			C60.247,336.757,56.005,336.757,51.766,336.757z M104.83,336.77c-0.018,4.412,0,8.84,0,13.263c4.227,0,8.465,0,12.728,0
			c0-4.427,0-8.839,0-13.263C113.311,336.757,109.07,336.757,104.83,336.77z M51.811,361.668c-0.03,5.301-0.03,10.588-0.02,15.891
			c4.244,0.017,8.472,0,12.728-0.02c-0.044-5.283-0.044-10.57-0.044-15.846C60.247,361.682,56.02,361.682,51.811,361.668z
			 M105.058,361.695c-0.018,5.289-0.018,10.561-0.018,15.859c4.162,0.016,8.348,0.016,12.526,0
			c-0.019-5.285-0.019-10.57-0.019-15.859C113.373,361.682,109.206,361.682,105.058,361.695z"/>
	</g>
	<path fill="#FFFFFF" stroke="#FFFFFF" stroke-width="0.0938" stroke-miterlimit="10.43" d="M636.566,322.445
		c-0.063,2.609-0.199,7.811-0.271,10.389"/>
	<path fill="#FFFFFF" stroke="#FFFFFF" stroke-width="0.0938" stroke-miterlimit="10.43" d="M636.534,343.631
		c-0.037,2.584-0.141,7.715-0.168,10.295"/>
	<path fill="#FFFFFF" stroke="#FFFFFF" stroke-width="0.0938" stroke-miterlimit="10.43" d="M636.366,364.484
		c-0.032,3.515-0.032,7.056,0.033,10.597"/>
	<path fill="#283E8F" d="M411.051,306.82c18.642-0.031,37.313,0,55.979,0c-0.04,2.686-0.139,8.109-0.167,10.826
		c4.203,0.033,8.438,0.063,12.71,0.135c0,5.525,0.032,11.086,0.099,16.648c-5.355,0.629-10.724,0.891-15.293,3.903
		c3.813,0.396,11.417,1.156,15.194,1.521c-0.03,5.527,0,11.056,0.032,16.584c-3.813,0.435-11.416,1.228-15.194,1.654
		c4.604,2.746,9.996,3.078,15.229,3.84c-0.063,5.625-0.1,11.258-0.063,16.883c-3.146-0.063-9.399-0.203-12.543-0.266
		c0.991,2.918,2.941,8.742,3.902,11.648c-63.527,0.104-127.053,0-190.571,0.039c4.669-20.592,1.821-41.873,2.417-62.766
		c6.887-0.229,13.803-0.396,20.756-0.691c-0.098-11.484-0.098-22.941-0.098-34.428c5.793,0.032,11.646,0.102,17.51,0.159
		c0.794-58.291,0.162-116.614,0.328-174.909c1.589-0.033,4.771-0.098,6.354-0.129c-1.481-18.343-18.24-41.201-14.635-59.078
		c1.488,7.117,21.558,19.319,21.98,26.572c8.641,0,17.351-0.531,26.02,0.264c0.795,10.758,0.333,21.551,0.396,32.307
		c16.554,0,33.066,0,49.652,0"/>
	<polygon fill="#45A0D1" points="1073.436,389.05 971.928,389.05 971.928,83.361 1073.436,136.814 	"/>
	<g>
		<g>
			<rect x="988.6" y="157.205" fill="#FFFFFF" width="9.142" height="17.938"/>
			<rect x="1003.357" y="157.205" fill="#FFFFFF" width="9.133" height="17.938"/>
			<rect x="1018.118" y="157.205" fill="#FFFFFF" width="9.136" height="17.938"/>
			<rect x="1032.868" y="157.205" fill="#FFFFFF" width="9.14" height="17.938"/>
			<rect x="1047.625" y="157.205" fill="#FFFFFF" width="9.135" height="17.938"/>
		</g>
		<g>
			<rect x="988.6" y="190.52" fill="#FFFFFF" width="9.142" height="17.937"/>
			<rect x="1003.357" y="190.52" fill="#FFFFFF" width="9.133" height="17.937"/>
			<rect x="1018.118" y="190.52" fill="#FFFFFF" width="9.136" height="17.937"/>
			<rect x="1032.868" y="190.52" fill="#FFFFFF" width="9.14" height="17.937"/>
			<rect x="1047.625" y="190.52" fill="#FFFFFF" width="9.135" height="17.937"/>
		</g>
		<g>
			<rect x="988.6" y="223.836" fill="#FFFFFF" width="9.142" height="17.938"/>
			<rect x="1003.357" y="223.836" fill="#FFFFFF" width="9.133" height="17.938"/>
			<rect x="1018.118" y="223.836" fill="#FFFFFF" width="9.136" height="17.938"/>
			<rect x="1032.868" y="223.836" fill="#FFFFFF" width="9.14" height="17.938"/>
			<rect x="1047.625" y="223.836" fill="#FFFFFF" width="9.135" height="17.938"/>
		</g>
		<g>
			<rect x="988.6" y="257.145" fill="#FFFFFF" width="9.142" height="17.938"/>
			<rect x="1003.357" y="257.145" fill="#FFFFFF" width="9.133" height="17.938"/>
			<rect x="1018.118" y="257.145" fill="#FFFFFF" width="9.136" height="17.938"/>
			<rect x="1032.868" y="257.145" fill="#FFFFFF" width="9.14" height="17.938"/>
			<rect x="1047.625" y="257.145" fill="#FFFFFF" width="9.135" height="17.938"/>
		</g>
		<g>
			<rect x="988.6" y="290.455" fill="#FFFFFF" width="9.142" height="17.939"/>
			<rect x="1003.357" y="290.455" fill="#FFFFFF" width="9.133" height="17.939"/>
			<rect x="1018.118" y="290.455" fill="#FFFFFF" width="9.136" height="17.939"/>
			<rect x="1032.868" y="290.455" fill="#FFFFFF" width="9.14" height="17.939"/>
			<rect x="1047.625" y="290.455" fill="#FFFFFF" width="9.135" height="17.939"/>
		</g>
		<g>
			<rect x="988.6" y="323.768" fill="#FFFFFF" width="9.142" height="17.938"/>
			<rect x="1003.357" y="323.768" fill="#FFFFFF" width="9.133" height="17.938"/>
			<rect x="1018.118" y="323.768" fill="#FFFFFF" width="9.136" height="17.938"/>
			<rect x="1032.868" y="323.768" fill="#FFFFFF" width="9.14" height="17.938"/>
			<rect x="1047.625" y="323.768" fill="#FFFFFF" width="9.135" height="17.938"/>
		</g>
		<g>
			<rect x="988.6" y="357.08" fill="#FFFFFF" width="9.142" height="17.938"/>
			<rect x="1003.357" y="357.08" fill="#FFFFFF" width="9.133" height="17.938"/>
			<rect x="1018.118" y="357.08" fill="#FFFFFF" width="9.136" height="17.938"/>
			<rect x="1032.868" y="357.08" fill="#FFFFFF" width="9.14" height="17.938"/>
			<rect x="1047.625" y="357.08" fill="#FFFFFF" width="9.135" height="17.938"/>
		</g>
	</g>
	<polygon fill="#45A0D1" points="1174.939,389.05 1073.436,389.05 1073.436,191.156 1174.939,237.707 	"/>
	<g>
		<g>
			<rect x="1090.111" y="357.08" fill="#FFFFFF" width="9.135" height="17.938"/>
			<rect x="1104.863" y="357.08" fill="#FFFFFF" width="9.131" height="17.938"/>
			<rect x="1119.616" y="357.08" fill="#FFFFFF" width="9.142" height="17.938"/>
			<rect x="1134.375" y="357.08" fill="#FFFFFF" width="9.137" height="17.938"/>
			<rect x="1149.135" y="357.08" fill="#FFFFFF" width="9.133" height="17.938"/>
		</g>
		<g>
			<rect x="1090.111" y="257.145" fill="#FFFFFF" width="9.135" height="17.938"/>
			<rect x="1104.863" y="257.145" fill="#FFFFFF" width="9.131" height="17.938"/>
			<rect x="1119.616" y="257.145" fill="#FFFFFF" width="9.142" height="17.938"/>
			<rect x="1134.375" y="257.145" fill="#FFFFFF" width="9.137" height="17.938"/>
			<rect x="1149.135" y="257.145" fill="#FFFFFF" width="9.133" height="17.938"/>
		</g>
		<g>
			<rect x="1090.111" y="290.455" fill="#FFFFFF" width="9.135" height="17.939"/>
			<rect x="1104.863" y="290.455" fill="#FFFFFF" width="9.131" height="17.939"/>
			<rect x="1119.616" y="290.455" fill="#FFFFFF" width="9.142" height="17.939"/>
			<rect x="1134.375" y="290.455" fill="#FFFFFF" width="9.137" height="17.939"/>
			<rect x="1149.135" y="290.455" fill="#FFFFFF" width="9.133" height="17.939"/>
		</g>
		<g>
			<rect x="1090.111" y="323.768" fill="#FFFFFF" width="9.135" height="17.938"/>
			<rect x="1104.863" y="323.768" fill="#FFFFFF" width="9.131" height="17.938"/>
			<rect x="1119.616" y="323.768" fill="#FFFFFF" width="9.142" height="17.938"/>
			<rect x="1134.375" y="323.768" fill="#FFFFFF" width="9.137" height="17.938"/>
			<rect x="1149.135" y="323.768" fill="#FFFFFF" width="9.133" height="17.938"/>
		</g>
	</g>
	<polygon fill="#145C8F" points="626.032,162.758 626.032,128.887 640.506,128.887 670.12,77.585 699.736,128.887 714.204,128.887 
		714.204,162.758 727.997,162.758 727.997,391.886 612.243,391.886 612.243,162.758 	"/>
	<rect x="640.469" y="135.218" fill="#FFFFFF" width="59.308" height="9.505"/>
	<rect x="640.469" y="152.975" fill="#FFFFFF" width="59.308" height="9.5"/>
	<rect x="619.719" y="180.158" fill="#FFFFFF" width="100.813" height="10.632"/>
	<rect x="674.443" y="196.598" fill="#FFFFFF" width="46.088" height="10.633"/>
	<rect x="619.719" y="196.598" fill="#FFFFFF" width="46.08" height="10.633"/>
	<rect x="674.443" y="213.042" fill="#FFFFFF" width="46.088" height="10.631"/>
	<rect x="619.719" y="213.042" fill="#FFFFFF" width="46.08" height="10.631"/>
	<rect x="674.443" y="278.798" fill="#FFFFFF" width="46.088" height="10.634"/>
	<rect x="619.719" y="278.798" fill="#FFFFFF" width="46.08" height="10.634"/>
	<rect x="674.443" y="295.246" fill="#FFFFFF" width="46.088" height="10.633"/>
	<rect x="619.719" y="295.246" fill="#FFFFFF" width="46.08" height="10.633"/>
	<rect x="703.238" y="229.482" fill="#FFFFFF" width="17.293" height="10.635"/>
	<rect x="619.719" y="229.482" fill="#FFFFFF" width="17.295" height="10.635"/>
	<rect x="619.719" y="245.918" fill="#FFFFFF" width="17.295" height="10.633"/>
	<rect x="641.846" y="229.482" fill="#FFFFFF" width="39.396" height="10.635"/>
	<rect x="655.434" y="245.918" fill="#FFFFFF" width="65.101" height="10.633"/>
	<rect x="703.238" y="344.557" fill="#FFFFFF" width="17.293" height="10.635"/>
	<rect x="619.719" y="344.557" fill="#FFFFFF" width="17.295" height="10.635"/>
	<rect x="619.719" y="361.002" fill="#FFFFFF" width="17.295" height="10.631"/>
	<rect x="641.846" y="344.557" fill="#FFFFFF" width="39.396" height="10.635"/>
	<rect x="655.434" y="361.002" fill="#FFFFFF" width="65.101" height="10.631"/>
	<rect x="619.719" y="262.357" fill="#FFFFFF" width="100.813" height="10.631"/>
	<rect x="619.719" y="311.673" fill="#FFFFFF" width="100.813" height="10.632"/>
	<rect x="619.719" y="328.115" fill="#FFFFFF" width="100.813" height="10.635"/>
	<rect x="619.719" y="377.432" fill="#FFFFFF" width="100.813" height="10.635"/>
	<polygon fill="#283E8F" points="748.813,234.43 874.26,234.43 874.26,250.465 868.092,250.465 868.092,300.648 958.575,300.648 
		958.575,316.689 949.118,316.689 949.118,384.277 868.092,384.277 836.01,384.277 754.979,384.277 754.979,250.465 
		748.813,250.465 	"/>
	<g>
		<rect x="833.365" y="260.115" fill="#CDCCCC" width="18.32" height="18.324"/>
		<rect x="801.4" y="260.115" fill="#CDCCCC" width="18.321" height="18.324"/>
		<rect x="769.436" y="260.115" fill="#CDCCCC" width="18.32" height="18.324"/>
	</g>
	<g>
		<rect x="833.365" y="295.982" fill="#CDCCCC" width="18.32" height="18.318"/>
		<rect x="801.4" y="295.982" fill="#CDCCCC" width="18.321" height="18.318"/>
		<rect x="769.436" y="295.982" fill="#CDCCCC" width="18.32" height="18.318"/>
	</g>
	<g>
		<rect x="833.365" y="331.854" fill="#CDCCCC" width="18.32" height="18.317"/>
		<rect x="801.4" y="331.854" fill="#CDCCCC" width="18.321" height="18.317"/>
		<rect x="769.436" y="331.854" fill="#CDCCCC" width="18.32" height="18.317"/>
	</g>
	<g>
		<rect x="915.616" y="331.854" fill="#CDCCCC" width="18.321" height="18.317"/>
		<rect x="883.648" y="331.854" fill="#CDCCCC" width="18.321" height="18.317"/>
	</g>
	<rect x="530.069" y="260.402" fill="#45A0D1" width="60.604" height="122.867"/>
	<g>
		<rect x="571.309" y="269.127" fill="#CDCCCC" width="12.007" height="12"/>
		<rect x="554.373" y="269.127" fill="#CDCCCC" width="12" height="12"/>
	</g>
	<g>
		<rect x="554.373" y="291.063" fill="#CDCCCC" width="12" height="12.006"/>
	</g>
	<g>
		<rect x="571.309" y="313.004" fill="#CDCCCC" width="12.007" height="12.002"/>
		<rect x="537.43" y="313.004" fill="#CDCCCC" width="12.004" height="12.002"/>
	</g>
	<g>
		<rect x="554.373" y="334.947" fill="#CDCCCC" width="12" height="12.004"/>
		<rect x="537.43" y="334.947" fill="#CDCCCC" width="12.004" height="12.004"/>
	</g>
	
		<rect x="320.018" y="325.423" fill="#FFFFFF" stroke="#3A3838" stroke-width="0.0938" stroke-miterlimit="10.43" width="133.5" height="9.106"/>
	
		<rect x="320.018" y="343.721" fill="#FFFFFF" stroke="#3A3838" stroke-width="0.0938" stroke-miterlimit="10.43" width="133.5" height="9.108"/>
	
		<rect x="320.018" y="362.018" fill="#FFFFFF" stroke="#3A3838" stroke-width="0.0938" stroke-miterlimit="10.43" width="133.5" height="9.106"/>
	<rect x="369.992" y="152.6" fill="#FFFFFF" width="31.965" height="10.631"/>
	<rect x="332.039" y="152.6" fill="#FFFFFF" width="31.959" height="10.631"/>
	<rect x="369.992" y="169.041" fill="#FFFFFF" width="31.965" height="10.635"/>
	<rect x="332.039" y="169.041" fill="#FFFFFF" width="31.959" height="10.635"/>
	<rect x="369.992" y="268.246" fill="#FFFFFF" width="31.965" height="10.633"/>
	<rect x="332.039" y="268.246" fill="#FFFFFF" width="31.959" height="10.633"/>
	<rect x="369.992" y="284.686" fill="#FFFFFF" width="31.965" height="10.635"/>
	<rect x="332.039" y="284.686" fill="#FFFFFF" width="31.959" height="10.635"/>
	<rect x="389.964" y="218.355" fill="#FFFFFF" width="11.993" height="10.635"/>
	<rect x="332.039" y="218.355" fill="#FFFFFF" width="11.996" height="10.635"/>
	<rect x="332.039" y="234.798" fill="#FFFFFF" width="11.996" height="10.632"/>
	<rect x="347.385" y="218.355" fill="#FFFFFF" width="27.32" height="10.635"/>
	<rect x="356.808" y="234.798" fill="#FFFFFF" width="45.146" height="10.632"/>
	<rect x="332.039" y="185.475" fill="#FFFFFF" width="69.918" height="10.631"/>
	<rect x="332.039" y="201.915" fill="#FFFFFF" width="69.918" height="10.631"/>
	<rect x="332.039" y="251.229" fill="#FFFFFF" width="69.918" height="10.636"/>
	<rect x="-0.5" y="382.699" fill="#2E2D2D" width="1200" height="16.801"/>
	<path fill="#CDCCCC" d="M800.891,154.691c1.304,0,2.486,0.492,3.396,1.297c1.354-2.514,4.017-4.223,7.063-4.223
		c1.683,0,3.236,0.52,4.521,1.398c2.244-3.703,6.313-6.172,10.957-6.172c4.14,0,7.813,1.96,10.15,5.006
		c0.604-0.148,1.237-0.234,1.885-0.234c4.438,0,8.024,3.594,8.024,8.027h-51.108C795.781,156.975,798.068,154.691,800.891,154.691z"
		/>
	<path fill="#CDCCCC" d="M740.814,97.523c1.432,0,2.729,0.545,3.721,1.428c1.49-2.758,4.404-4.635,7.757-4.635
		c1.853,0,3.56,0.566,4.976,1.537c2.459-4.065,6.93-6.783,12.021-6.783c4.548,0,8.578,2.158,11.146,5.5
		c0.664-0.163,1.355-0.254,2.071-0.254c4.858,0,8.813,3.945,8.813,8.808h-56.104C735.213,100.032,737.721,97.523,740.814,97.523z"/>
	<path fill="#CDCCCC" d="M874.713,98.682c1.784,0,3.409,0.676,4.646,1.781c1.856-3.445,5.502-5.79,9.694-5.79
		c2.304,0,4.438,0.708,6.203,1.919c3.071-5.076,8.651-8.473,15.021-8.473c5.683,0,10.713,2.695,13.935,6.872
		c0.83-0.202,1.688-0.319,2.584-0.319c6.08,0,11.011,4.93,11.011,11.006h-70.104C867.704,101.814,870.844,98.682,874.713,98.682z"/>
	<path fill="#CDCCCC" d="M506.582,213.525c0.983,0,1.881,0.373,2.563,0.979c1.022-1.896,3.025-3.188,5.341-3.188
		c1.269,0,2.444,0.392,3.416,1.06c1.692-2.797,4.769-4.664,8.271-4.664c3.123,0,5.899,1.481,7.674,3.782
		c0.455-0.11,0.937-0.178,1.427-0.178c3.348,0,6.063,2.715,6.063,6.063H502.73C502.726,215.249,504.45,213.525,506.582,213.525z"/>
	<path fill="#CDCCCC" d="M439.139,160.738c1.074,0,2.063,0.41,2.813,1.076c1.125-2.082,3.326-3.498,5.854-3.498
		c1.396,0,2.687,0.428,3.752,1.158c1.854-3.07,5.229-5.123,9.082-5.123c3.434,0,6.479,1.631,8.422,4.154
		c0.5-0.125,1.021-0.195,1.563-0.195c3.675,0,6.653,2.979,6.653,6.653h-42.377C434.903,162.634,436.799,160.738,439.139,160.738z"/>
	<path fill="#CDCCCC" d="M540.271,161.611c1.351,0,2.576,0.511,3.517,1.346c1.404-2.602,4.156-4.372,7.322-4.372
		c1.741,0,3.353,0.534,4.688,1.45c2.321-3.835,6.539-6.398,11.354-6.398c4.287,0,8.094,2.036,10.521,5.188
		c0.627-0.15,1.278-0.239,1.953-0.239c4.59,0,8.313,3.723,8.313,8.313h-52.951C534.981,163.979,537.35,161.611,540.271,161.611z"/>
	<path fill="#CDCCCC" d="M432.265,82.25c1.261,0,2.405,0.479,3.28,1.255c1.313-2.431,3.891-4.087,6.848-4.087
		c1.624,0,3.139,0.501,4.383,1.359c2.172-3.588,6.104-5.979,10.604-5.979c4.003,0,7.564,1.897,9.832,4.849
		c0.586-0.146,1.197-0.229,1.825-0.229c4.294,0,7.771,3.479,7.771,7.771h-49.481C427.316,84.463,429.532,82.25,432.265,82.25z"/>
	<path fill="#CDCCCC" d="M1107.02,89.182c1.388,0,2.646,0.525,3.605,1.383c1.438-2.672,4.26-4.485,7.51-4.485
		c1.783,0,3.438,0.546,4.812,1.481c2.384-3.936,6.711-6.563,11.646-6.563c4.396,0,8.305,2.088,10.791,5.325
		c0.646-0.158,1.313-0.248,2.006-0.248c4.713,0,8.529,3.817,8.529,8.528H1101.6C1101.594,91.609,1104.025,89.182,1107.02,89.182z"/>
	<path fill="#CDCCCC" d="M505.197,107.404c1.731,0,3.306,0.654,4.506,1.724c1.8-3.334,5.327-5.604,9.385-5.604
		c2.229,0,4.295,0.684,6.01,1.855c2.979-4.916,8.379-8.201,14.552-8.201c5.491,0,10.368,2.606,13.479,6.65
		c0.812-0.194,1.646-0.309,2.509-0.309c5.889,0,10.653,4.772,10.653,10.657h-67.87C498.416,110.438,501.454,107.404,505.197,107.404
		z"/>
	<path fill="#CDCCCC" d="M31.596,155.818c1.479,0,2.818,0.561,3.846,1.473c1.54-2.846,4.55-4.783,8.014-4.783
		c1.902,0,3.668,0.588,5.128,1.592c2.545-4.201,7.154-7.002,12.422-7.002c4.688,0,8.856,2.223,11.516,5.68
		c0.688-0.17,1.396-0.269,2.139-0.269c5.026,0,9.101,4.074,9.101,9.101H25.813C25.804,158.409,28.396,155.818,31.596,155.818z"/>
	<path fill="#CDCCCC" d="M68.884,93.581c2.03,0,3.87,0.769,5.278,2.019c2.106-3.906,6.236-6.564,10.989-6.564
		c2.604,0,5.03,0.802,7.034,2.174c3.483-5.755,9.812-9.602,17.028-9.602c6.438,0,12.149,3.053,15.79,7.787
		c0.943-0.226,1.926-0.356,2.938-0.356c6.894,0,12.477,5.586,12.477,12.478H60.947C60.946,97.133,64.499,93.581,68.884,93.581z"/>
</g>
</svg>
