<?xml version="1.0" encoding="utf-8"?>
<!-- Generator: Adobe Illustrator 13.0.0, SVG Export Plug-In . SVG Version: 6.00 Build 14948)  -->
<!DOCTYPE svg PUBLIC "-//W3C//DTD SVG 1.1//EN" "http://www.w3.org/Graphics/SVG/1.1/DTD/svg11.dtd">
<svg version="1.1" id="Layer_1" xmlns="http://www.w3.org/2000/svg" xmlns:xlink="http://www.w3.org/1999/xlink" x="0px" y="0px"
	 width="1200px" height="400px" viewBox="0 0 1200 400" enable-background="new 0 0 1200 400" xml:space="preserve">
<rect x="-0.5" y="-0.5" fill="none" width="1200" height="400"/>
<g>
	<g>
		<g>
			<path fill="#145B8E" d="M185.092,160.43c8.4-3.255,17.7-3.133,26.201-0.199c-1.317,3.306-2.735,6.611-4.277,9.871
				c0.947,24.189,2.337,48.377,3.38,72.562c-7.604,0.201-15.188,0.25-22.795,0.151c1.071-24.211,2.065-48.451,2.885-72.666
				C188.57,166.968,186.756,163.734,185.092,160.43z"/>
			<path fill="#145B8E" d="M158.219,231.676c1.568-0.025,4.725-0.072,6.316-0.096c-0.87,21.025,0.072,45.12,1.09,66.128
				c-3.008,0.049-6.018,0.125-9.023,0.195C159.186,277.023,159.041,252.682,158.219,231.676z"/>
			<path fill="#145B8E" d="M219.646,232.695c20.855,0,41.688-0.074,62.543,0.051c-0.101,2.438-0.276,10.166-0.376,12.629
				c-20.681,0.646-41.388,0.596-62.098-0.074C219.691,242.865,219.669,235.133,219.646,232.695z"/>
			<g>
				<path fill="#145B8E" d="M180.843,242.566c11.72-0.879,23.157-1.691,34.702,0.246c26.97,1.396,53.967,0.895,80.914-0.322
					c0.049,43.926,0.024,87.875,0.024,131.826c-48.623,0.022-97.247,0.096-145.873,0c-0.049-25.9-0.022-51.779-0.022-77.654
					c7.008-0.451,14.046-0.602,21.054-0.252c-0.049-6.858-0.049-13.699-0.026-20.535c3.085,0,6.142,0.027,9.226,0.052
					C180.864,264.814,180.864,253.68,180.843,242.566z M191.132,258.425c-0.075,7.877-0.075,15.761-0.102,23.665
					c1.814,0.025,5.422,0.072,7.233,0.072c0.124-7.953,0.124-15.885-0.249-23.813C196.279,258.352,192.847,258.398,191.132,258.425z
					 M241.422,258.398c-0.026,7.809-0.026,15.664-0.073,23.492c3.728,0.102,7.456,0.196,11.21,0.299
					c-0.022-7.904-0.022-15.783,0.025-23.664C248.854,258.475,245.151,258.398,241.422,258.398z M200.776,258.475
					c-0.022,7.854-0.074,15.734-0.273,23.615c3.801,0,7.582,0.025,11.386,0.051c0.023-7.904,0.023-15.813,0-23.689
					C208.185,258.425,204.482,258.447,200.776,258.475z M214.3,258.447c0,7.881,0,15.787,0,23.691
					c3.73-0.025,7.435-0.025,11.164-0.025c0-7.906,0-15.785,0-23.643C221.734,258.447,218.031,258.425,214.3,258.447z
					 M227.851,258.475c0,7.877,0,15.762,0,23.666c3.729-0.025,7.43-0.025,11.159-0.025c0-7.904,0-15.785-0.023-23.664
					C235.281,258.425,231.578,258.447,227.851,258.475z M254.945,258.447c0,7.881,0,15.76,0,23.666c3.729,0,7.433,0,11.159,0.025
					c0-7.904,0-15.789-0.022-23.666C262.377,258.447,258.674,258.447,254.945,258.447z M268.492,258.447
					c0,7.902,0,15.812,0.025,23.715c2.784-0.021,8.354-0.049,11.114-0.073c0.022-7.88,0.022-15.788-0.051-23.642
					C276.819,258.447,271.276,258.447,268.492,258.447z M282.015,258.552c0.026,8.028,0,16.083,0.075,24.14
					c1.813-0.273,5.494-0.853,7.308-1.123c0.621-7.727,0.251-15.484,0.224-23.189C287.734,258.425,283.93,258.5,282.015,258.552z
					 M190.984,299.293c0.05,8.154,0,16.279,0.422,24.438c2.211-0.57,4.428-1.219,6.589-1.89c0.62-7.606,0.3-15.241,0.3-22.847
					C196.478,299.07,192.822,299.218,190.984,299.293z M200.577,299.318c0.074,7.773,0.025,15.561-0.099,23.367
					c3.801,0.023,7.605,0.051,11.436,0.096c0-7.93,0-15.856-0.023-23.766C208.108,299.098,204.358,299.191,200.577,299.318z
					 M214.323,299.098c-0.022,7.879-0.022,15.756-0.022,23.663c3.73-0.026,7.458-0.026,11.21-0.026
					c0.028-7.904,0.075-15.789,0.126-23.641C221.858,299.07,218.078,299.07,214.323,299.098z M228.02,299.119
					c-0.073,7.855-0.125,15.738-0.147,23.643c3.706-0.021,7.432-0.021,11.135,0c0-7.902,0-15.781-0.023-23.66
					C235.333,299.07,231.677,299.098,228.02,299.119z M241.422,299.018c-0.026,7.907-0.026,15.842-0.026,23.768
					c3.731-0.051,7.458-0.068,11.189-0.068c-0.049-7.833-0.049-15.664,0-23.469C248.854,299.146,245.122,299.07,241.422,299.018z
					 M254.945,299.098c0,7.879,0,15.756,0,23.641c3.703,0,7.433,0,11.159,0.021c0-7.902,0-15.781-0.047-23.66
					C262.354,299.07,258.648,299.07,254.945,299.098z M268.515,299.119c-0.026,7.855-0.026,15.738,0,23.619
					c2.761,0.021,8.33,0.047,11.114,0.047c0.022-7.902,0.022-15.807-0.028-23.711C276.819,299.098,271.276,299.098,268.515,299.119z
					 M282.041,299.018c0,7.811,0,15.615-0.026,23.422c2.513,0.17,5.022,0.369,7.533,0.596c0.147-7.932,0.147-15.854,0.199-23.789
					C287.807,299.191,283.979,299.07,282.041,299.018z M214.222,339.939c0.077,7.828,0.077,15.684,0.152,23.541
					c3.703-0.074,7.383-0.103,11.088-0.103c0.075-7.979,0.047-15.912-0.152-23.862C221.608,339.636,217.905,339.764,214.222,339.939
					z M241.321,339.912c0.075,7.854,0.075,15.711,0.177,23.59c3.68-0.072,7.383-0.15,11.088-0.172
					c-0.049-7.932-0.025-15.859-0.102-23.766C248.755,339.658,245.026,339.764,241.321,339.912z M281.865,351.348
					c0.124,4.025,0.226,8.079,0.35,12.135c1.889-0.025,5.618-0.127,7.505-0.176c-0.047-7.854-0.047-15.73-0.047-23.564
					c-1.866-0.021-5.595-0.021-7.458-0.021C282.091,343.564,281.99,347.445,281.865,351.348z M190.958,339.912
					c0.125,7.804,0.099,15.639,0.099,23.465c1.814,0,5.47,0.027,7.284,0.053c0.026-7.932,0-15.854-0.075-23.766
					C196.428,339.738,192.798,339.838,190.958,339.912z M200.53,339.813c0.175,7.832,0.224,15.688,0.224,23.543
					c3.68,0.025,7.383,0.072,11.086,0.148c0.075-7.954,0.075-15.883,0.049-23.813C208.108,339.688,204.334,339.738,200.53,339.813z
					 M227.872,339.738c-0.023,7.854,0,15.738-0.023,23.644c3.729-0.024,7.456,0,11.188,0.024
					c-0.028-7.906-0.028-15.813-0.053-23.688C235.281,339.688,231.578,339.716,227.872,339.738z M254.971,339.738
					c-0.026,7.854-0.026,15.738-0.052,23.644c3.73-0.024,7.458,0,11.187,0.024c0-7.906,0-15.785-0.022-23.668
					C262.377,339.716,258.674,339.716,254.971,339.738z M268.515,339.688c-0.026,7.904-0.026,15.813,0,23.739
					c2.784-0.021,8.354-0.051,11.138-0.071c-0.022-7.877-0.022-15.76-0.022-23.614C276.845,339.716,271.3,339.716,268.515,339.688z"
					/>
			</g>
			<path fill="#145B8E" d="M144.995,371.748c50.438,0.173,105.567,0.15,156.005,0.377c0.021,2.262,0.105,10.425,0.131,12.711
				c-50.513-0.021-105.556-0.252-156.068-0.273C145.088,382.268,144.967,374.03,144.995,371.748z"/>
		</g>
		<g>
			<path fill="#283C8F" d="M648.474,138.086c6.188-0.797,12.445-0.451,18.708-0.504c0,9.738,0.025,19.477-0.049,29.215
				c3.315,0.107,6.655,0.213,10.003,0.321c-0.14,35.635-0.03,71.271-0.052,106.881c5.195,0,10.398,0,15.65,0
				c0,16.397-0.03,32.799,0,49.199c10.449,0.026,23.729,0.301,34.215,0.567c0.208,21.517-0.75,39.744-0.75,61.098
				c-68.063,0-136.103,0.027-204.156-0.026c3.657-25.817,1.032-52.012,1.805-77.979c4.908-0.03,9.844-0.058,14.833-0.058
				c0-31.653,0-63.313,0-94.971c8.782,0.026,17.593,0.026,26.399,0c-0.025-5.731-0.049-11.466-0.025-17.195
				c11.782-0.053,23.618-0.026,35.45-0.026c-0.026,5.758,0,11.545,0.054,17.301c1.406-0.026,4.248-0.076,5.648-0.104
				c0.026-14.913,0.026-29.851,0-44.765c6.928-0.029,13.852-0.053,20.803-0.104C634.256,157.404,640.546,147.057,648.474,138.086z
				 M630.195,186.833c-0.054,5.438-0.081,10.903-0.081,16.349c4.09,0.022,8.198,0.049,12.342,0.104
				c-0.023-5.493-0.052-10.958-0.023-16.451C638.313,186.833,634.232,186.833,630.195,186.833z M646.596,186.889
				c-0.026,5.412-0.026,10.853-0.026,16.269c4.062,0.051,8.146,0.104,12.254,0.131c-0.022-5.493-0.05-11.013-0.075-16.502
				C654.657,186.809,650.629,186.859,646.596,186.889z M630.114,207.586c0,5.465,0.03,10.932,0.081,16.398
				c4.037-0.027,8.117-0.027,12.231-0.027c0-5.465,0-10.902,0.024-16.371C638.313,207.586,634.203,207.586,630.114,207.586z
				 M646.541,207.662c0.026,5.414,0.026,10.828,0.077,16.271c4.033,0.021,8.063,0.049,12.151,0.104c0-5.521,0-11.043,0-16.561
				C654.657,207.531,650.598,207.609,646.541,207.662z M547.803,228.309c-0.049,5.441-0.049,10.907-0.049,16.375
				c4.11-0.027,8.224-0.027,12.391-0.027c-0.056-5.465-0.056-10.908-0.025-16.35C555.979,228.309,551.865,228.279,547.803,228.309z
				 M564.311,228.201c-0.052,5.494-0.082,10.988-0.052,16.479c4.087,0,8.198,0,12.335,0c-0.049-5.44-0.023-10.883-0.023-16.315
				C572.457,228.309,568.369,228.25,564.311,228.201z M580.761,228.279c-0.052,5.465-0.052,10.937-0.023,16.4
				c4.085,0,8.196-0.027,12.34-0.027c-0.025-5.439-0.025-10.908-0.025-16.348C588.936,228.279,584.821,228.279,580.761,228.279z
				 M597.212,228.309c-0.028,5.441-0.028,10.907-0.028,16.352c4.092,0.025,8.2,0.049,12.337,0.049
				c-0.022-5.463-0.022-10.957-0.022-16.426C605.387,228.279,601.273,228.279,597.212,228.309z M613.717,228.309
				c-0.049,5.467-0.074,10.907-0.049,16.375c4.082,0,8.197,0,12.34,0c-0.053-5.492-0.053-10.959-0.082-16.453
				C621.841,228.25,617.75,228.279,613.717,228.309z M630.168,228.309c-0.055,5.441-0.055,10.907-0.025,16.375
				c4.091-0.027,8.198-0.027,12.341-0.057c-0.052-5.438-0.052-10.877-0.025-16.318C638.313,228.279,634.232,228.279,630.168,228.309
				z M646.67,228.201c-0.074,5.494-0.104,10.988-0.104,16.479c4.107,0,8.229-0.027,12.357-0.027
				c-0.021-5.438-0.021-10.854-0.021-16.288C654.817,228.309,650.734,228.25,646.67,228.201z M547.803,249.031
				c-0.049,5.443-0.049,10.906-0.022,16.373c4.087-0.027,8.195-0.027,12.34-0.053c-0.027-5.414-0.027-10.828,0-16.238
				C555.979,249.057,551.865,249.031,547.803,249.031z M564.259,249.031c-0.028,5.467-0.028,10.906,0.025,16.373
				c4.063,0,8.173-0.027,12.311-0.027c-0.023-5.438-0.049-10.902-0.023-16.346C572.432,249.031,568.319,249.031,564.259,249.031z
				 M580.738,249.031c-0.028,5.443-0.028,10.881,0,16.348c4.087,0,8.195,0,12.313,0.027c0-5.463,0-10.906,0.025-16.348
				C588.936,249.031,584.821,249.031,580.738,249.031z M597.212,249.057c-0.028,5.441-0.028,10.883-0.028,16.352
				c4.092-0.029,8.2-0.029,12.337-0.029c-0.022-5.438-0.022-10.9,0-16.344C605.387,249.031,601.3,249.031,597.212,249.057z
				 M613.666,249.057c-0.025,5.441-0.025,10.883,0,16.32c4.081,0,8.172,0.027,12.309,0.027c-0.021-5.467-0.021-10.932,0-16.398
				C621.864,249.031,617.75,249.057,613.666,249.057z M630.145,249.031c-0.027,5.443-0.027,10.881,0,16.32
				c4.063,0.023,8.171,0.023,12.313,0.023c-0.024-5.438-0.024-10.854,0-16.291C638.343,249.057,634.232,249.031,630.145,249.031z
				 M646.541,249.352c0,5.254,0,10.508,0.026,15.787c4.084,0.137,8.198,0.24,12.358,0.375c-0.022-5.521-0.022-11.039,0-16.559
				C654.767,249.057,650.652,249.193,646.541,249.352z M547.91,269.705c-0.104,5.439-0.156,10.902-0.186,16.398
				c4.108-0.027,8.25-0.027,12.443,0c-0.082-5.496-0.104-10.938-0.135-16.398C555.952,269.705,551.919,269.705,547.91,269.705z
				 M630.221,269.705c-0.076,5.463-0.104,10.936-0.134,16.398c4.115,0,8.253,0,12.418,0c-0.075-5.465-0.104-10.938-0.132-16.373
				C638.286,269.705,634.256,269.705,630.221,269.705z M564.231,269.705c0,5.492,0.025,10.98,0.081,16.479
				c4.058-0.023,8.146-0.055,12.259-0.078c0-5.439-0.025-10.881,0-16.32C572.432,269.754,568.319,269.73,564.231,269.705z
				 M580.738,269.73c-0.028,5.467,0,10.932,0.049,16.426c4.063-0.026,8.146-0.049,12.288-0.049c-0.025-5.469-0.025-10.908,0-16.351
				C588.936,269.73,584.821,269.73,580.738,269.73z M597.212,269.783c-0.028,5.439-0.028,10.879-0.028,16.32
				c4.092,0,8.2,0,12.337,0.021c-0.022-5.465-0.049-10.955-0.022-16.422C605.357,269.73,601.273,269.754,597.212,269.783z
				 M613.666,269.73c-0.025,5.467,0,10.908,0.026,16.373c4.055,0,8.17,0.021,12.278,0.053c0-5.471,0-10.938,0.03-16.399
				C621.864,269.73,617.75,269.73,613.666,269.73z M646.596,269.705c-0.026,5.492,0,10.98,0.073,16.502
				c4.063-0.051,8.124-0.104,12.233-0.131c0-5.441,0-10.879,0.022-16.322C654.794,269.73,650.677,269.73,646.596,269.705z
				 M547.831,290.432c-0.052,5.486-0.052,10.955-0.027,16.447c4.088-0.021,8.173-0.053,12.313-0.079
				c-0.027-5.438-0.055-10.903-0.055-16.351C555.952,290.449,551.891,290.432,547.831,290.432z M564.259,290.509
				c-0.028,5.409-0.028,10.854-0.028,16.265c4.09,0.026,8.175,0.053,12.314,0.084c0-5.521-0.028-11.018-0.08-16.533
				C572.352,290.398,568.293,290.449,564.259,290.509z M580.738,290.509c-0.028,5.409-0.028,10.825-0.055,16.239
				c4.109,0.052,8.228,0.078,12.395,0.158c-0.052-5.521-0.107-11.041-0.213-16.531C588.775,290.432,584.742,290.449,580.738,290.509
				z M613.824,290.938c-0.318,5.308-0.186,10.64-0.132,15.97c4.081-0.05,8.192-0.104,12.36-0.156
				c-0.082-5.521-0.104-11.063-0.14-16.584C621.864,290.375,617.832,290.375,613.824,290.938z M630.168,290.432
				c-0.025,5.463-0.055,10.934-0.025,16.396c4.091,0,8.168,0,12.313,0c-0.024-5.464-0.024-10.932-0.024-16.371
				C638.313,290.449,634.232,290.432,630.168,290.432z M646.618,290.509c-0.022,5.409-0.051,10.825-0.051,16.239
				c4.062,0.052,8.116,0.107,12.254,0.158c-0.022-5.521-0.05-11.041-0.104-16.531C654.657,290.398,650.629,290.449,646.618,290.509z
				 M663.097,290.509c-0.054,5.438-0.054,10.878-0.054,16.349c4.09-0.055,8.227-0.082,12.392-0.105
				c-0.052-5.438-0.052-10.881,0-16.295C671.267,290.449,667.182,290.48,663.097,290.509z M597.242,290.509
				c-0.06,5.409-0.082,10.854-0.082,16.291c4.112,0,8.229,0,12.364,0.026c-0.026-5.463-0.026-10.908,0-16.348
				C605.387,290.48,601.3,290.48,597.242,290.509z M547.78,311.178c-0.024,5.439,0,10.938,0.053,16.396
				c4.06-0.027,8.146-0.027,12.258-0.027c-0.023-5.463,0-10.932,0.027-16.369C555.979,311.178,551.865,311.15,547.78,311.178z
				 M564.231,311.203c0,5.414,0,10.854,0.025,16.271c4.034,0.049,8.117,0.104,12.207,0.185c0.051-5.519,0.08-11.039,0.08-16.531
				C572.401,311.15,568.319,311.178,564.231,311.203z M597,311.336c0.105,5.443,0.239,10.854,0.428,16.293
				c4.005-0.053,8.064-0.105,12.125-0.154c-0.056-5.445-0.056-10.91-0.056-16.35C605.305,311.178,601.141,311.258,597,311.336z
				 M613.768,311.1c-0.021,5.521,0,11.039,0.086,16.559c4.007-0.08,8.063-0.135,12.121-0.156c-0.021-5.438,0-10.852,0.06-16.266
				C621.916,311.178,617.805,311.15,613.768,311.1z M630.145,311.203c-0.027,5.47,0,10.91,0.024,16.371
				c4.063-0.026,8.146-0.026,12.285-0.026c-0.024-5.487-0.024-10.952-0.024-16.396C638.313,311.15,634.203,311.178,630.145,311.203z
				 M646.566,311.258c0,5.521,0.026,11.039,0.104,16.584c4.008-0.215,8.098-0.24,12.129-0.77c0.238-5.334,0.074-10.666,0-15.977
				C654.685,311.15,650.629,311.178,646.566,311.258z M580.738,311.178c-0.028,5.467-0.028,10.904,0,16.369
				c4.087-0.023,8.195-0.023,12.34-0.023c-0.025-5.465-0.052-10.904-0.025-16.318C588.907,311.178,584.821,311.178,580.738,311.178z
				 M663.069,311.178c-0.028,5.439-0.028,10.904,0.024,16.369c4.063-0.023,8.17-0.023,12.313-0.023
				c-0.025-5.439-0.025-10.879,0-16.293C671.267,311.203,667.156,311.178,663.069,311.178z M547.858,331.822
				c-0.078,5.465-0.104,10.937-0.104,16.4c4.085,0,8.2,0.025,12.362,0.051c-0.027-5.441-0.027-10.879,0-16.32
				C556.002,331.904,551.891,331.875,547.858,331.822z M564.177,331.98c0.025,5.44,0.082,10.938,0.134,16.396
				c4.06-0.079,8.175-0.154,12.284-0.213c-0.049-5.438-0.049-10.881-0.078-16.314C572.375,331.875,568.264,331.928,564.177,331.98z
				 M597.212,331.799c-0.028,5.461-0.052,10.953-0.028,16.426c4.063,0.027,8.148,0.053,12.266,0.076
				c0.024-5.438,0.072-10.854,0.153-16.238C605.443,331.953,601.3,331.875,597.212,331.799z M613.643,331.852
				c0.023,5.487,0.104,10.98,0.237,16.5c3.979-0.051,8.013-0.074,12.072-0.104c0-5.438,0.021-10.854,0.104-16.268
				C621.889,331.928,617.723,331.875,613.643,331.852z M630.145,331.928c-0.027,5.416-0.027,10.83,0,16.268
				c4.091,0.029,8.197,0.055,12.341,0.105c-0.054-5.492-0.054-10.957-0.054-16.426C638.286,331.875,634.203,331.904,630.145,331.928
				z M646.541,331.98c0.026,5.414,0.055,10.826,0.106,16.268c3.979,0.027,7.982,0.053,12.045,0.104
				c0.08-5.519,0.185-11.012,0.269-16.476C654.794,331.875,650.652,331.928,646.541,331.98z M679.491,331.852
				c0,5.309-0.104,10.643,0.373,15.945c3.929,0.529,7.905,0.555,11.913,0.77c0.055-5.521,0.082-11.041,0.188-16.557
				C687.771,331.928,683.605,331.904,679.491,331.852z M580.71,331.928c-0.025,5.443,0.027,10.904,0.077,16.352
				c4.063,0,8.148-0.023,12.263-0.023c0-5.441-0.025-10.906,0-16.348C588.907,331.904,584.795,331.928,580.71,331.928z
				 M663.069,331.904c-0.028,5.463,0,10.928,0.024,16.396c4.063-0.024,8.17-0.051,12.313-0.051c-0.025-5.47-0.025-10.906,0-16.349
				C671.267,331.904,667.156,331.904,663.069,331.904z M531.328,352.627c-0.027,5.438-0.027,10.906-0.027,16.373
				c4.087-0.025,8.201-0.025,12.34,0c-0.025-5.467,0-10.938,0.025-16.373C539.523,352.627,535.411,352.627,531.328,352.627z
				 M547.729,352.756c0.026,5.441,0.075,10.887,0.186,16.322c3.979-0.055,8.017-0.055,12.073-0.055
				c0.052-5.416,0.134-10.851,0.213-16.268C556.002,352.732,551.84,352.732,547.729,352.756z M564.284,352.627
				c-0.054,5.438-0.054,10.88-0.025,16.35c4.063,0,8.173,0,12.313,0.025c-0.025-5.465-0.025-10.938-0.025-16.398
				C572.432,352.602,568.346,352.602,564.284,352.627z M580.738,352.602c-0.028,5.463-0.028,10.936,0.023,16.398
				c4.063-0.025,8.172-0.025,12.313-0.025c-0.025-5.438-0.025-10.884-0.025-16.32C588.936,352.627,584.821,352.602,580.738,352.602z
				 M597.212,352.652c-0.028,5.438-0.028,10.881-0.028,16.318c4.092,0,8.2,0.025,12.313,0.025c0-5.469,0-10.938,0-16.373
				C605.387,352.627,601.3,352.627,597.212,352.652z M613.717,352.627c-0.049,5.438-0.074,10.88-0.049,16.35
				c4.055,0,8.173,0,12.311,0.025c-0.021-5.492-0.021-10.959,0-16.398C621.864,352.602,617.775,352.602,613.717,352.627z
				 M630.088,352.756c0.025,5.441,0.055,10.887,0.135,16.322c4.035-0.078,8.146-0.104,12.232-0.162
				c-0.023-5.438-0.023-10.852,0-16.258C638.313,352.68,634.176,352.707,630.088,352.756z M646.618,352.627
				c-0.022,5.438-0.022,10.906,0.028,16.373c4.059,0,8.17-0.025,12.279-0.025c-0.022-5.468-0.022-10.91,0-16.373
				C654.794,352.602,650.677,352.602,646.618,352.627z M663.097,352.627c-0.024,5.438-0.054,10.906,0,16.373
				c4.063-0.025,8.17-0.025,12.313-0.053c-0.025-5.44-0.025-10.908-0.025-16.35C671.267,352.602,667.156,352.602,663.097,352.627z
				 M679.551,352.627c-0.021,5.438-0.021,10.906,0,16.373c4.083-0.025,8.197-0.025,12.313-0.025c0-5.438,0-10.91,0-16.35
				C687.719,352.627,683.634,352.627,679.551,352.627z M696.027,352.627c-0.03,5.438-0.03,10.906,0.021,16.35
				c4.063,0,8.119,0.025,12.233,0.051c0.023-5.465,0.023-10.937,0.08-16.396C704.225,352.627,700.112,352.627,696.027,352.627z
				 M726.95,323.77c0.208,21.518,0.026,39.75,0.026,61.104c-68.063,0-136.879,0.021-204.938-0.035 M522.041,384.838
				c0-50.146-0.013-52.852,0-77.98c4.907-0.029,11.646-0.055,16.638-0.055"/>
		</g>
		<g>
			<g>
				<path fill="#43A0D2" d="M394.567,131.958c-0.661,4.661-0.813,15.163-1.937,19.704c-2.903,0-5.832,0.025-8.754,0.064
					c0.042,8.002,0.042,16.006,0.021,24.03c-8.37-0.021-16.763-0.021-25.151,0.087c0.172,13.961,0,27.945,0.13,41.908
					c-3.465,0.043-6.947,0.064-10.456,0.131c0.152,27.756-0.322,55.508,0.279,83.256c-3.186-0.104-6.364-0.193-9.571-0.234
					c-0.063,14.156,0,28.313-0.063,42.471c52.385-0.021,104.793,0.168,157.182-0.088c1.159-14.053,0.125-28.205,0.494-42.299
					c-10.371,0.021-20.739-0.063-31.105,0.066c0.273-19.855,0.063-39.742,0.126-59.6c-3.894,0-7.831,0-11.769,0.023
					c-0.063-4.666,0.236-9.357-0.409-13.982c-4.063-8.369-10.734-15.188-14.891-23.494c-0.901-8.133-0.149-16.372-0.392-24.523
					c-14.259-11.211-28.396-22.59-43.023-33.328C395.265,143.284,394.375,134.625,394.567,131.958z M399.021,163.708
					c0.021,4.562,0.021,9.146,0.021,13.702c-3.142,0-6.283-0.021-9.445-0.021c0-4.561,0.025-9.123,0.025-13.66
					C392.762,163.708,395.905,163.708,399.021,163.708z M429.832,177.5c-0.022,4.518-0.044,9.036-0.086,13.55
					c-3.1,0.048-6.196,0.091-9.313,0.151c-0.047-4.626-0.063-9.229-0.086-13.813C423.531,177.413,426.69,177.438,429.832,177.5z
					 M417.957,177.393c0.021,4.563,0.021,9.145,0.021,13.729c-3.146-0.021-6.305-0.021-9.472,0
					c0.022-4.583,0.022-9.143,0.022-13.707C411.698,177.413,414.815,177.393,417.957,177.393z M418.041,194.752
					c0.046,4.518,0.09,9.059,0.132,13.6c-3.206,0-6.435,0-9.683,0.021c0.045-4.604,0.045-9.164,0.063-13.75
					C411.74,194.646,414.901,194.689,418.041,194.752z M406.553,194.646c0.044,4.586,0.063,9.146,0.063,13.729
					c-2.367,0-7.102,0-9.442,0c0.021-4.584,0.021-9.145,0.04-13.705C399.543,194.667,404.209,194.667,406.553,194.646z
					 M395.216,194.646c0.022,4.586,0.044,9.168,0.044,13.771c-3.206-0.043-6.435-0.086-9.661-0.106
					c0.048-4.521,0.067-9.039,0.067-13.555C388.868,194.711,392.052,194.667,395.216,194.646z M372.63,194.734
					c-0.045,4.557-0.087,9.145-0.175,13.723c-3.098-0.063-6.196-0.082-9.34-0.125c0-4.541,0-9.063-0.042-13.579
					C366.28,194.734,369.463,194.734,372.63,194.734z M429.337,194.734c0,4.539,0,9.102-0.042,13.639
					c-3.055-0.021-6.15-0.021-9.249-0.021c-0.022-4.563-0.063-9.121-0.151-13.662C423.055,194.689,426.217,194.711,429.337,194.734z
					 M383.855,194.734c-0.021,4.539-0.049,9.102-0.089,13.66c-3.099-0.021-6.194-0.043-9.313-0.043c0-4.563,0-9.102-0.021-13.641
					C377.598,194.711,380.739,194.711,383.855,194.734z M444.416,226.4c0.025,4.541,0.025,9.078,0.025,13.639
					c-3.122,0-6.266,0-9.403,0.023c0.063-4.563,0.13-9.146,0.147-13.707C438.286,226.357,441.362,226.379,444.416,226.4z
					 M433.295,226.379c-0.042,4.563-0.104,9.121-0.174,13.686c-3.139,0-6.303,0-9.484,0c0.021-4.563,0.021-9.121,0.044-13.686
					C426.906,226.379,430.11,226.379,433.295,226.379z M421.744,226.4c0,4.541,0,9.1,0,13.662c-2.364,0-7.078,0-9.446,0
					c0.021-4.563,0.021-9.121,0.021-13.688C414.666,226.379,419.378,226.4,421.744,226.4z M410.385,226.379
					c0.021,4.563,0.021,9.145-0.021,13.729c-3.229-0.041-6.479-0.064-9.728-0.084c0.195-4.563,0.324-9.102,0.408-13.644
					C404.188,226.379,407.283,226.379,410.385,226.379z M399.088,226.379c-0.042,4.563-0.088,9.102-0.174,13.686
					c-3.074-0.021-6.196,0-9.293,0c0-4.563,0-9.121-0.045-13.662C392.762,226.379,395.928,226.379,399.088,226.379z M387.646,226.4
					c0.021,4.541,0.037,9.078,0.037,13.621c-3.117,0.02-6.258,0.041-9.424,0.063c0.022-4.584,0.022-9.143,0.022-13.727
					C381.405,226.379,384.548,226.379,387.646,226.4z M376.304,226.379c0.022,4.563,0.047,9.102,0.022,13.686
					c-2.346,0-7.078,0-9.424,0.021c0-4.584,0-9.125,0-13.684C369.25,226.4,373.961,226.379,376.304,226.379z M433.016,252.41
					c0.042,4.563,0.084,9.123,0.084,13.707c-3.138-0.021-6.278-0.045-9.461-0.065c0.021-4.56,0.021-9.12,0.021-13.659
					C426.777,252.391,429.896,252.391,433.016,252.41z M421.744,252.41c0.021,4.563,0,9.123-0.021,13.707
					c-2.346-0.021-7.058-0.045-9.427-0.045c0.021-4.582,0.021-9.146,0.021-13.707C414.686,252.363,419.399,252.391,421.744,252.41z
					 M410.364,252.283c0.021,4.58,0.042,9.184,0.042,13.789c-3.122,0-6.239,0-9.402,0.023c-0.042-4.457-0.13-8.91-0.275-13.363
					C403.95,252.563,407.156,252.41,410.364,252.283z M399,252.391c0.045,4.561,0.066,9.123,0.066,13.707
					c-3.146-0.021-6.308-0.021-9.47-0.021c0.023-4.582,0-9.125-0.021-13.684C392.742,252.363,395.884,252.363,399,252.391z
					 M387.706,252.584c0,4.473,0,8.947-0.021,13.447c-3.117,0.02-6.278,0.043-9.442,0.084c0.021-4.625,0.044-9.231,0.044-13.813
					C381.448,252.363,384.566,252.479,387.706,252.584z M376.304,252.363c0.047,4.563,0.047,9.127,0.047,13.709
					c-2.37,0-7.103,0.021-9.469,0.021c0.021-4.584,0.021-9.146,0.044-13.706C369.271,252.391,373.961,252.363,376.304,252.363z
					 M364.989,252.41c0,4.563,0,9.104,0,13.662c-3.142,0-6.284,0-9.422,0.023c0-4.605,0-9.169-0.021-13.732
					C358.704,252.363,361.85,252.391,364.989,252.41z M451.99,271.302c0.021,4.563,0.021,9.146,0,13.704c-2.344,0-7.058,0-9.399,0
					c0-4.559-0.021-9.119-0.021-13.684C444.912,271.322,449.625,271.302,451.99,271.302z M440.652,271.302
					c0.021,4.626,0,9.248-0.044,13.897c-3.16-0.217-6.366-0.449-9.57-0.666c0.127-4.41,0.195-8.799,0.233-13.189
					C434.412,271.322,437.534,271.302,440.652,271.302z M429.337,271.302c0,4.563-0.021,9.146-0.042,13.704
					c-3.077,0-6.177,0-9.273,0c0-4.58-0.043-9.143-0.062-13.684C423.1,271.302,426.217,271.302,429.337,271.302z M418.087,271.322
					c0.021,4.541,0.047,9.104,0.064,13.662c-3.206,0-6.413,0.021-9.619,0.047c0-4.584,0-9.146-0.022-13.707
					C411.716,271.302,414.901,271.302,418.087,271.322z M406.617,271.322c0,4.563,0,9.125-0.021,13.684c-2.362,0-7.056,0-9.4,0
					c0-4.58,0-9.143-0.021-13.704C399.543,271.302,404.25,271.322,406.617,271.322z M395.24,271.302
					c0.021,4.563,0.021,9.146,0,13.729c-3.188-0.027-6.392-0.049-9.598-0.049c-0.021-4.562-0.047-9.102-0.087-13.644
					C388.803,271.302,392.032,271.302,395.24,271.302z M383.729,271.344c0.043,4.545,0.082,9.082,0.082,13.645
					c-3.096,0-6.189,0.021-9.335,0.045c0-4.58,0-9.164,0-13.729C377.574,271.302,380.652,271.302,383.729,271.344z M469.074,308.027
					c0.104,9.656,0.084,19.314,0.021,28.996c-2.536,0-5.077,0.021-7.636,0.063c-0.126-9.697-0.105-19.383-0.023-29.063
					C463.995,308.004,466.538,308.004,469.074,308.027z M398.378,308.027c0,9.512,0.429,19.039-0.126,28.549
					c-2.454,0.431-4.932,0.58-7.448,0.879c-0.146-9.811-0.104-19.617-0.042-29.428C393.32,308.027,395.842,308.027,398.378,308.027z
					 M370.134,308.027c0.084,9.656,0.084,19.342,0,28.996c-2.541,0-5.077,0-7.642,0.049c-0.087-9.682-0.087-19.363,0.021-29.045
					C365.054,308.027,367.593,308.027,370.134,308.027z M483.233,308.052c0.042,9.636,0.042,19.271,0.021,28.935
					c-1.938,0-5.812,0-7.746,0c0-9.639,0-19.254,0-28.871C477.444,308.089,481.295,308.052,483.233,308.052z M454.982,308.052
					c0.021,9.655,0.021,19.317-0.021,28.976c-1.913,0-5.787-0.021-7.724-0.043c0-9.637,0-19.273,0.021-28.896
					C449.195,308.064,453.048,308.052,454.982,308.052z M440.823,308.052c0.065,9.655,0.047,19.317,0.021,28.976
					c-1.937,0-5.809-0.021-7.748-0.021c0.021-9.641,0.021-19.297,0-28.938C435.038,308.064,438.889,308.052,440.823,308.052z
					 M426.712,308.064c0.024,9.619,0.024,19.256,0,28.895c-1.913,0.023-5.789,0.063-7.724,0.092c-0.045-9.658-0.021-19.32,0-28.96
					C420.923,308.064,424.799,308.064,426.712,308.064z M412.6,308.052c0,9.681,0,19.343-0.042,29.021
					c-1.915-0.021-5.791-0.064-7.698-0.087c0-9.641,0-19.274-0.021-28.916C406.768,308.064,410.643,308.052,412.6,308.052z
					 M384.306,308.064c0.022,9.645,0.022,19.278,0,28.918c-1.937,0.021-5.805,0.043-7.743,0.063c0.021-9.657,0-19.319,0.021-28.981
					C378.521,308.064,382.393,308.064,384.306,308.064z M356.061,308.052c0.023,9.655,0.023,19.296,0,28.952
					c-1.934,0-5.81,0.021-7.748,0.021c0-9.655-0.019-19.295,0-28.938C350.251,308.064,354.128,308.052,356.061,308.052z"/>
			</g>
			<g>
				<path fill="#43A0D2" d="M496.761,388.207c-0.104-14.113-0.379-32.974-0.485-47.062c-52.517,0.045-105.013,0.063-157.525-0.021
					c-0.104,14.137,0.401,33.036,0.314,47.171C391.646,388.295,444.202,388.488,496.761,388.207z M469.096,353.016
					c0.063,9.657,0.086,19.314-0.021,28.979c-2.536-0.021-5.079-0.045-7.642-0.045c-0.084-9.682-0.104-19.344,0.023-29.004
					C464.02,352.947,466.557,352.967,469.096,353.016z M398.357,352.967c0.173,9.686,0.173,19.363,0,29.049
					c-2.52-0.021-5.061-0.047-7.615-0.047c-0.044-9.682-0.044-19.344,0.021-29.002C393.32,352.967,395.842,352.947,398.357,352.967z
					 M370.134,352.967c0.084,9.686,0.084,19.342,0,29.023c-2.521-0.021-5.077-0.021-7.642,0c-0.087-9.686-0.087-19.363,0.021-29.049
					C365.074,352.947,367.614,352.967,370.134,352.967z M483.233,353.016c0.042,9.637,0.042,19.271,0.021,28.911
					c-1.938,0-5.812,0.022-7.746,0.042c0-9.639,0-19.294-0.021-28.932C477.421,353.037,481.295,353.016,483.233,353.016z
					 M455.003,353.037c0,9.639,0,19.271-0.022,28.934c-1.935-0.021-5.806-0.043-7.742-0.043c0-9.641,0-19.301,0.021-28.938
					C449.195,352.99,453.067,353.016,455.003,353.037z M440.849,352.99c0.021,9.637,0.021,19.297,0,28.955c-1.937,0-5.808,0-7.749,0
					c0.021-9.641,0.021-19.271,0-28.912C435.038,353.037,438.91,353.016,440.849,352.99z M426.712,353.037
					c0.024,9.639,0.024,19.271,0,28.934c-1.935,0-5.789,0-7.724,0c-0.021-9.658-0.045-19.344,0-28.996
					C420.923,352.99,424.778,353.016,426.712,353.037z M412.557,352.99c0.042,9.66,0.042,19.297,0.021,28.955
					c-1.938,0-5.813-0.021-7.745-0.043c0.021-9.619,0.021-19.252,0.021-28.869C406.768,353.016,410.618,353.016,412.557,352.99z
					 M384.286,353.016c0.042,9.611,0.042,19.252,0.042,28.893c-1.938,0.021-5.809,0.045-7.746,0.045c0-9.645,0-19.271-0.021-28.912
					C378.501,353.016,382.351,353.016,384.286,353.016z M356.039,353.037c0.045,9.613,0.045,19.25,0.021,28.912
					c-1.934,0-5.81,0-7.747,0c-0.02-9.643-0.02-19.299,0-28.938C350.233,353.016,354.102,353.016,356.039,353.037z"/>
			</g>
		</g>
		<path fill="#43A0D2" d="M1061.967,368.275c0.438-19.34,0-38.686,0.215-58.025c-2.85-3.104-6.146-4.98-9.696-6.104
			c-1.729-37.996-3.293-75.998-5.102-114c-0.42-7.955,0-15.918,0.771-23.842c-7.121,0.104-14.203,0.143-21.328,0.178
			c2.13,14.799,0.556,29.738-0.067,44.572c-1.334,31.01-2.705,62.021-4.065,93.029c-2.795,1.314-5.248,3.648-8.049,5.016
			c-0.479-21.707,0.039-43.388-0.201-65.096c-1.893-0.732-5.689-2.271-7.574-3.038c-2.447-10.472-2.616-21.36-3.979-31.976
			c-10.685,10.334-21.188,20.844-31.909,31.17c-1.284-10.401-2.477-20.799-3.692-31.168c-10.646,10.369-21.117,20.904-31.938,31.099
			c-1.226-10.294-2.375-20.595-3.636-30.854c-10.819,10.125-21.228,20.697-32.01,30.892c-1.117-10.438-2.307-20.801-3.422-31.203
			c-12.601,10.994-25.16,22.062-37.624,33.293c-4.893-0.03-9.813,0-14.732,0.04c0.038-7.15,0.038-14.313,0.038-21.396
			c-5.097,0.039-10.192,0.104-15.319,0.214c-0.488-18.604-0.248-37.25-0.277-55.849c-3.84-2.063-7.4-4.506-10.686-7.332
			c-4.396-0.389-8.828-0.521-13.299-0.352c-2.936,4.891-8.447,5.796-13.607,7.016c-0.735-11.236-3.146-22.197-5.135-33.262
			c-1.396,0.067-4.152,0.172-5.517,0.247c-0.146,4.608-0.274,9.25-0.422,13.89c-5.688-0.072-11.377-0.143-17.104-0.207
			c-0.521,7.436,0.595,15.74-5.057,21.674c-0.697,22.021-0.179,44.05-0.354,66.072c-1.814,1.077-5.411,3.178-7.229,4.227
			c-0.896,43.656-0.037,87.381-0.404,131.074h-3.887v16.596h321.877v-16.596h-5.578L1061.967,368.275L1061.967,368.275
			L1061.967,368.275z M812.27,271.441c-6.005,0-12.012,0-18.05,0.066c-0.104-10.4-0.104-20.801-0.104-31.201
			c6.104,0.036,12.185,0.104,18.224,0.209C812.305,250.814,812.305,261.148,812.27,271.441z M812.341,293.884
			c-0.035,10.229-0.035,20.491-0.035,30.753c-6.04,0.066-12.079,0.137-18.148,0.277c-0.035-10.469-0.035-20.908,0.033-31.35
			C800.259,293.643,806.302,293.744,812.341,293.884z M812.27,187.079c0.035,10.26,0.035,20.591,0.142,30.889
			c-6.073,0.067-12.187,0.142-18.255,0.245c-0.035-10.334-0.035-20.664-0.067-30.962
			C800.157,187.186,806.232,187.079,812.27,187.079z"/>
		<rect x="848.143" y="275.982" fill="#FFFFFF" width="17.737" height="17.735"/>
		<rect x="881.656" y="275.982" fill="#FFFFFF" width="17.736" height="17.735"/>
		<rect x="915.173" y="275.982" fill="#FFFFFF" width="17.736" height="17.735"/>
		<rect x="948.688" y="275.982" fill="#FFFFFF" width="17.737" height="17.735"/>
		<rect x="982.203" y="275.982" fill="#FFFFFF" width="17.736" height="17.735"/>
		<rect x="848.143" y="298.326" fill="#FFFFFF" width="17.737" height="17.734"/>
		<rect x="881.656" y="298.326" fill="#FFFFFF" width="17.736" height="17.734"/>
		<rect x="915.173" y="298.326" fill="#FFFFFF" width="17.736" height="17.734"/>
		<rect x="948.688" y="298.326" fill="#FFFFFF" width="17.737" height="17.734"/>
		<rect x="982.203" y="298.326" fill="#FFFFFF" width="17.736" height="17.734"/>
		<rect x="848.143" y="320.67" fill="#FFFFFF" width="17.737" height="17.734"/>
		<rect x="881.656" y="320.67" fill="#FFFFFF" width="17.736" height="17.734"/>
		<rect x="915.173" y="320.67" fill="#FFFFFF" width="17.736" height="17.734"/>
		<rect x="948.688" y="320.67" fill="#FFFFFF" width="17.737" height="17.734"/>
		<rect x="982.203" y="320.67" fill="#FFFFFF" width="17.736" height="17.734"/>
		<rect x="848.143" y="343.016" fill="#FFFFFF" width="17.737" height="17.732"/>
		<rect x="881.656" y="343.016" fill="#FFFFFF" width="17.736" height="17.732"/>
		<rect x="915.173" y="343.016" fill="#FFFFFF" width="17.736" height="17.732"/>
		<rect x="948.688" y="343.016" fill="#FFFFFF" width="17.737" height="17.732"/>
		<rect x="982.203" y="343.016" fill="#FFFFFF" width="17.736" height="17.732"/>
		<rect x="-0.5" y="382.699" fill="#2D2C2C" width="1200" height="16.801"/>
		<path fill="#CCCCCC" d="M163.614,124.352c-1.773,0-3.394,0.668-4.621,1.766c-1.848-3.422-5.464-5.75-9.629-5.75
			c-2.287,0-4.408,0.706-6.163,1.908c-3.055-5.049-8.598-8.412-14.924-8.412c-5.637,0-10.643,2.672-13.831,6.824
			c-0.826-0.203-1.685-0.32-2.568-0.32c-6.037,0-10.937,4.896-10.937,10.935h69.625
			C170.568,127.461,167.455,124.352,163.614,124.352z"/>
		<path fill="#CCCCCC" d="M132.051,90.109c-2.44,0-4.652,0.926-6.34,2.43c-2.534-4.694-7.495-7.887-13.205-7.887
			c-3.138,0-6.047,0.962-8.452,2.613c-4.193-6.914-11.792-11.541-20.47-11.541c-7.729,0-14.598,3.67-18.968,9.356
			c-1.135-0.272-2.312-0.435-3.527-0.435c-8.28,0-14.995,6.715-14.995,14.992h95.494C141.585,94.381,137.317,90.109,132.051,90.109z
			"/>
		<path fill="#CCCCCC" d="M250.34,143.417c1.773,0,3.392,0.67,4.622,1.769c1.849-3.424,5.461-5.75,9.628-5.75
			c2.288,0,4.409,0.707,6.164,1.907c3.052-5.047,8.595-8.411,14.92-8.411c5.637,0,10.645,2.67,13.833,6.822
			c0.828-0.202,1.686-0.318,2.565-0.318c6.042,0,10.937,4.896,10.937,10.935h-69.621
			C243.384,146.531,246.498,143.417,250.34,143.417z"/>
		<path fill="#CCCCCC" d="M281.898,109.184c2.44,0,4.652,0.922,6.343,2.428c2.53-4.695,7.494-7.887,13.201-7.887
			c3.138,0,6.047,0.963,8.454,2.612c4.188-6.915,11.784-11.542,20.463-11.542c7.729,0,14.597,3.669,18.968,9.357
			c1.133-0.273,2.31-0.437,3.522-0.437c8.281,0,14.993,6.718,14.993,14.993H272.36C272.362,113.449,276.634,109.184,281.898,109.184
			z"/>
		<path fill="#CCCCCC" d="M975.139,125.165c-1.772,0-3.395,0.67-4.622,1.769c-1.849-3.424-5.465-5.748-9.63-5.748
			c-2.288,0-4.411,0.703-6.162,1.907c-3.057-5.05-8.598-8.413-14.927-8.413c-5.636,0-10.642,2.67-13.828,6.824
			c-0.825-0.201-1.688-0.316-2.563-0.316c-6.04,0-10.938,4.894-10.938,10.931h69.623
			C982.089,128.279,978.977,125.165,975.139,125.165z"/>
		<path fill="#CCCCCC" d="M943.572,90.927c-2.438,0-4.651,0.925-6.338,2.431c-2.538-4.692-7.495-7.883-13.205-7.883
			c-3.146,0-6.049,0.959-8.456,2.609c-4.189-6.915-11.789-11.542-20.468-11.542c-7.729,0-14.601,3.669-18.97,9.358
			c-1.134-0.275-2.312-0.438-3.525-0.438c-8.278,0-14.995,6.719-14.995,14.996h95.492C953.107,95.199,948.843,90.927,943.572,90.927
			z"/>
		<path fill="#CCCCCC" d="M1061.861,144.234c1.772,0,3.39,0.668,4.621,1.766c1.85-3.422,5.461-5.748,9.631-5.748
			c2.285,0,4.402,0.703,6.162,1.908c3.051-5.049,8.592-8.414,14.92-8.414c5.637,0,10.646,2.671,13.835,6.824
			c0.822-0.201,1.684-0.318,2.563-0.318c6.045,0,10.938,4.895,10.938,10.934h-69.618
			C1054.906,147.348,1058.024,144.234,1061.861,144.234z"/>
		<path fill="#CCCCCC" d="M1093.424,109.998c2.438,0,4.649,0.923,6.338,2.428c2.531-4.689,7.495-7.883,13.205-7.883
			c3.139,0,6.049,0.96,8.456,2.611c4.188-6.914,11.784-11.543,20.458-11.543c7.731,0,14.6,3.671,18.971,9.361
			c1.131-0.275,2.311-0.438,3.525-0.438c8.276,0,14.989,6.717,14.989,14.994h-95.483
			C1083.883,114.268,1088.153,109.998,1093.424,109.998z"/>
		<path fill="#CCCCCC" d="M482.959,135.516c1.775,0,3.391,0.67,4.621,1.767c1.853-3.423,5.464-5.748,9.629-5.748
			c2.287,0,4.408,0.702,6.164,1.907c3.051-5.049,8.594-8.414,14.92-8.414c5.639,0,10.646,2.672,13.835,6.826
			c0.824-0.203,1.681-0.319,2.563-0.319c6.044,0,10.938,4.893,10.938,10.931h-69.624
			C476.003,138.625,479.117,135.516,482.959,135.516z"/>
		<path fill="#CCCCCC" d="M514.518,101.279c2.439,0,4.652,0.923,6.345,2.428c2.528-4.691,7.495-7.884,13.202-7.884
			c3.138,0,6.047,0.961,8.451,2.612c4.188-6.916,11.787-11.543,20.465-11.543c7.729,0,14.598,3.67,18.969,9.359
			c1.132-0.273,2.31-0.438,3.522-0.438c8.28,0,14.993,6.719,14.993,14.996h-95.481C504.983,105.548,509.254,101.279,514.518,101.279
			z"/>
		<path fill="#CCCCCC" d="M706.586,96.738c1.951,0,3.722,0.742,5.071,1.943c2.026-3.758,6-6.313,10.563-6.313
			c2.517,0,4.845,0.773,6.771,2.093c3.353-5.539,9.438-9.237,16.378-9.237c6.188,0,11.682,2.939,15.184,7.49
			c0.903-0.223,1.851-0.351,2.822-0.351c6.622,0,12,5.375,12,12h-76.422C698.954,100.152,702.371,96.738,706.586,96.738z"/>
	</g>
	<rect x="224.75" y="223.25" fill="#145B8E" width="16.75" height="10.438"/>
	<rect x="260.5" y="223.813" fill="#145B8E" width="16.75" height="10.438"/>
</g>
</svg>
