<?xml version="1.0" encoding="utf-8"?>
<!-- Generator: Adobe Illustrator 13.0.0, SVG Export Plug-In . SVG Version: 6.00 Build 14948)  -->
<!DOCTYPE svg PUBLIC "-//W3C//DTD SVG 1.1//EN" "http://www.w3.org/Graphics/SVG/1.1/DTD/svg11.dtd">
<svg version="1.1" id="Layer_1" xmlns="http://www.w3.org/2000/svg" xmlns:xlink="http://www.w3.org/1999/xlink" x="0px" y="0px"
	 width="1200px" height="400px" viewBox="0 0.899 1200 400" enable-background="new 0 0.899 1200 400" xml:space="preserve">
<g>
	<path fill="#FFFFFF" stroke="#FFFFFF" stroke-width="0.0938" stroke-miterlimit="10.43" d="M266.899,190.046
		c6.373-0.036,12.743-0.036,19.116-0.036c0.03,10.33,0.03,20.665,0,30.991c-6.373,0-12.743,0-19.116,0
		C266.899,210.675,266.899,200.341,266.899,190.046z"/>
	<path fill="#FFFFFF" stroke="#FFFFFF" stroke-width="0.0938" stroke-miterlimit="10.43" d="M291.658,190.046
		c6.347-0.036,12.714-0.036,19.086-0.036c0.033,10.296,0.033,20.629,0.062,30.925c-6.373,0.034-12.771,0.066-19.146,0.104
		C291.63,210.707,291.63,200.375,291.658,190.046z"/>
	<path fill="#FFFFFF" stroke="#FFFFFF" stroke-width="0.0938" stroke-miterlimit="10.43" d="M365.827,190.046
		c6.375-0.036,12.745-0.036,19.116-0.036c0.028,10.33,0.028,20.665,0.028,30.991c-6.399,0-12.771,0-19.174,0
		C365.8,210.675,365.827,200.341,365.827,190.046z"/>
	<path fill="#FFFFFF" stroke="#FFFFFF" stroke-width="0.0938" stroke-miterlimit="10.43" d="M390.563,190.01
		c6.375,0,12.745,0,19.147,0.036c0,10.294,0,20.629,0.027,30.955c-6.4,0-12.772,0-19.178,0.037
		C390.563,210.675,390.563,200.341,390.563,190.01z"/>
	<path fill="#FFFFFF" stroke="#FFFFFF" stroke-width="0.0938" stroke-miterlimit="10.43" d="M322.24,205.889
		c10.738-0.034,21.447-0.07,32.185,0.068c-0.089,13.61-0.089,27.193-0.062,40.813c-10.706,0.033-21.412,0.033-32.123,0.033
		C322.24,233.153,322.211,219.502,322.24,205.889z"/>
	<path fill="#FFFFFF" stroke="#FFFFFF" stroke-width="0.0938" stroke-miterlimit="10.43" d="M166.387,211.858
		c-9.398,0-18.827-0.032-28.228,0.034c0,9.214,0,18.463,0.032,27.716c9.425-0.032,18.825-0.032,28.227-0.032
		C166.417,230.322,166.387,221.076,166.387,211.858z"/>
	<path fill="#FFFFFF" stroke="#FFFFFF" stroke-width="0.0938" stroke-miterlimit="10.43" d="M222.342,236.05
		c-4.831,0.104-9.661,0.315-14.494,0.526c0.033,6.733,0.062,13.471,0.062,20.238c4.771,0.075,9.573,0.146,14.374,0.248
		C222.314,250.047,222.342,243.031,222.342,236.05z"/>
	<path fill="#FFFFFF" stroke="#FFFFFF" stroke-width="0.0938" stroke-miterlimit="10.43" d="M266.899,242.891
		c6.373-0.035,12.743-0.035,19.116,0c0,10.336,0,20.667,0.03,31.003c-6.375-0.035-12.773,0-19.146,0
		C266.899,263.521,266.899,253.192,266.899,242.891z"/>
	<path fill="#FFFFFF" stroke="#FFFFFF" stroke-width="0.0938" stroke-miterlimit="10.43" d="M291.658,242.891
		c6.375-0.035,12.714-0.035,19.086,0c0.033,10.303,0.033,20.597,0.09,30.9c-6.401,0.063-12.803,0.103-19.178,0.168
		C291.63,263.558,291.658,253.225,291.658,242.891z"/>
	<path fill="#FFFFFF" stroke="#FFFFFF" stroke-width="0.0938" stroke-miterlimit="10.43" d="M365.827,242.926
		c6.375-0.035,12.745-0.07,19.116-0.07c0.028,10.338,0.028,20.665,0.028,31.003c-6.373,0-12.771,0.035-19.174,0.035
		C365.8,263.558,365.8,253.225,365.827,242.926z"/>
	<path fill="#FFFFFF" stroke="#FFFFFF" stroke-width="0.0938" stroke-miterlimit="10.43" d="M390.593,242.891
		c6.373-0.035,12.715,0,19.118,0c0,10.303,0,20.632,0.027,30.938c-6.375,0.033-12.772,0.033-19.179,0.103
		C390.563,263.558,390.563,253.225,390.593,242.891z"/>
	<path fill="#FFFFFF" stroke="#FFFFFF" stroke-width="0.0938" stroke-miterlimit="10.43" d="M166.387,246.559
		c-9.398,0-18.797,0-28.195,0.035c-0.032,9.216-0.032,18.469-0.032,27.717c9.4,0.035,18.829,0.035,28.258,0
		C166.417,265.063,166.417,255.81,166.387,246.559z"/>
	<path fill="#FFFFFF" stroke="#FFFFFF" stroke-width="0.0938" stroke-miterlimit="10.43" d="M322.443,258.675
		c10.622,0.067,21.244,0.067,31.837,0c0.082,13.645,0.082,27.295,0.055,40.979c-10.679,0-21.388,0-32.065,0
		C322.183,285.969,322.153,272.317,322.443,258.675z"/>
	<path fill="#FFFFFF" stroke="#FFFFFF" stroke-width="0.0938" stroke-miterlimit="10.43" d="M222.4,271.443
		c-4.831-0.273-9.687-0.417-14.517-0.521c0.028,6.912,0.028,13.822,0.028,20.771c4.83-0.033,9.63-0.063,14.433-0.063
		C222.37,284.854,222.37,278.151,222.4,271.443z"/>
	<path fill="#FFFFFF" stroke="#FFFFFF" stroke-width="0.0938" stroke-miterlimit="10.43" d="M166.387,281.291
		c-9.398,0-18.797,0-28.195,0.035c-0.032,9.213-0.032,18.435-0.061,27.683c9.429,0,18.857,0,28.287-0.033
		C166.417,299.725,166.417,290.506,166.387,281.291z"/>
	<path fill="#FFFFFF" stroke="#FFFFFF" stroke-width="0.0938" stroke-miterlimit="10.43" d="M266.899,295.774
		c6.373-0.032,12.743-0.065,19.116-0.065c0.03,10.369,0,20.734,0,31.105c-6.373-0.037-12.743-0.066-19.087-0.105
		C266.899,316.377,266.899,306.078,266.899,295.774z"/>
	<path fill="#FFFFFF" stroke="#FFFFFF" stroke-width="0.0938" stroke-miterlimit="10.43" d="M291.569,295.883
		c6.375-0.107,12.776-0.174,19.174-0.206c0.03,10.331,0.03,20.731-0.027,31.102c-6.37-0.032-12.745-0.032-19.116-0.069
		C291.658,316.41,291.658,306.147,291.569,295.883z"/>
	<path fill="#FFFFFF" stroke="#FFFFFF" stroke-width="0.0938" stroke-miterlimit="10.43" d="M365.827,295.774
		c6.375-0.032,12.745-0.032,19.116-0.032c0.028,10.336,0.028,20.668,0.028,31.035c-6.399-0.031-12.771-0.031-19.174-0.068
		C365.827,316.377,365.8,306.078,365.827,295.774z"/>
	<path fill="#FFFFFF" stroke="#FFFFFF" stroke-width="0.0938" stroke-miterlimit="10.43" d="M390.473,295.92
		c6.375-0.146,12.808-0.211,19.205-0.277c0.031,10.398,0.031,20.801,0,31.204c-6.401-0.067-12.771-0.138-19.146-0.211
		C390.563,316.377,390.563,306.147,390.473,295.92z"/>
	<path fill="#FFFFFF" stroke="#FFFFFF" stroke-width="0.0938" stroke-miterlimit="10.43" d="M222.253,305.623
		c-4.771-0.037-9.542-0.106-14.316-0.106c0,6.949-0.027,13.896-0.054,20.878c4.855-0.04,9.687-0.068,14.548-0.068
		C222.37,319.41,222.314,312.5,222.253,305.623z"/>
	<path fill="#FFFFFF" stroke="#FFFFFF" stroke-width="0.0938" stroke-miterlimit="10.43" d="M322.65,311.486
		c10.563,0.145,21.096,0.145,31.631,0.07c0.082,13.65,0.082,27.296,0.055,40.98c-10.679,0-21.388,0-32.096,0
		C322.183,338.854,322.066,325.138,322.65,311.486z"/>
	<path fill="#FFFFFF" stroke="#FFFFFF" stroke-width="0.0938" stroke-miterlimit="10.43" d="M166.387,316.026
		c-9.398-0.034-18.797-0.034-28.195,0c-0.032,9.214-0.032,18.462-0.032,27.716c9.4,0,18.829,0,28.258-0.033
		C166.417,334.457,166.417,325.24,166.387,316.026z"/>
	<path fill="#FFFFFF" stroke="#FFFFFF" stroke-width="0.0938" stroke-miterlimit="10.43" d="M222.283,340.319
		c-4.772-0.032-9.544-0.067-14.347-0.032c0,6.909-0.027,13.855-0.054,20.812c4.855-0.038,9.687-0.038,14.517-0.038
		C222.37,354.11,222.342,347.197,222.283,340.319z"/>
	<g>
		<path fill="#43A0D2" d="M148.054,103.948l-1.894,0.245c0.061,8.482,0.089,16.963,0.149,25.479
			c-7.857-0.034-15.712-0.034-23.599-0.171c-0.264,2.229-0.815,6.701-1.078,8.936c-15.483-0.208-30.961-0.07-46.439-0.104
			c0.03,12.153,0.03,24.346-0.089,36.562c-6.225-0.071-12.452-0.144-18.708-0.144c1.076,12.009-2.623,25.694,2.389,36.583
			c25.169,1.565,50.51-0.182,75.769,0.66c0,9.186,0,18.355,0,27.578c-26.041,0.276-52.113-0.525-78.154,0.381
			c0.06,1.574,0.146,4.789,0.173,6.352c25.985,0.703,51.996,0,77.981,0.281c0,9.25,0,18.472,0,27.752
			c-25.226,0.768-50.629-1.465-75.712,1.014c-0.727,1.221-2.21,3.63-2.938,4.854c26.131,2.508,52.433,0.42,78.649,1.084
			c0,9.211,0,18.463-0.059,27.719c-25.167,0.869-50.629-1.713-75.654,1.252c-0.728,1.188-2.151,3.598-2.883,4.781
			c26.133,2.231,52.438,0.314,78.626,1.015c-0.031,9.224-0.031,18.467-0.089,27.72c-25.2,0.834-50.747-1.885-75.74,1.326
			c-4.945,11.414-1.309,25.521-2.355,38.051c59.826-0.033,119.648,0,179.444-0.033c-0.206-54.771-0.028-109.541-0.084-164.313
			c-7.396-0.039-14.784-0.072-22.144-0.181c0.114-14.063,0.089-28.133,0.089-42.196c-10.247-0.142-5.737-13.651-6.956-21.298
			c-10.707-0.036-21.445-0.036-32.152,0c0,6.526,0,13.093,0,19.653c-3.844,0-7.652,0-11.494,0c0-12.181-0.03-24.372-0.059-36.557
			c-1.833,0.104-5.529,0.314-7.362,0.383c-0.989-5.201-2.938-9.669-7.624-10.854C147.968,119.793,147.968,111.873,148.054,103.948z
			 M166.387,211.858c0,9.218,0.03,18.464,0.03,27.718c-9.4,0-18.799,0-28.227,0.032c-0.032-9.251-0.032-18.502-0.032-27.714
			C147.56,211.826,156.989,211.858,166.387,211.858z M222.342,236.05c0,6.981-0.028,13.997-0.059,21.015
			c-4.801-0.102-9.603-0.171-14.374-0.246c0-6.771-0.028-13.51-0.062-20.24C212.681,236.365,217.511,236.151,222.342,236.05z
			 M166.387,246.559c0.03,9.251,0.03,18.504,0.03,27.752c-9.43,0.033-18.857,0.033-28.258,0c0-9.25,0-18.501,0.032-27.723
			C147.59,246.559,156.989,246.559,166.387,246.559z M222.4,271.443c-0.029,6.708-0.029,13.411-0.056,20.184
			c-4.802,0-9.603,0.033-14.433,0.064c0-6.947,0-13.855-0.028-20.77C212.711,271.026,217.57,271.17,222.4,271.443z M166.387,281.291
			c0.03,9.215,0.03,18.435,0.03,27.685c-9.43,0.033-18.857,0.033-28.287,0.033c0.028-9.248,0.028-18.47,0.061-27.683
			C147.59,281.291,156.989,281.291,166.387,281.291z M222.253,305.623c0.061,6.877,0.117,13.787,0.178,20.699
			c-4.861,0-9.691,0.031-14.548,0.068c0.028-6.98,0.054-13.934,0.054-20.878C212.711,305.516,217.483,305.592,222.253,305.623z
			 M166.387,316.026c0.03,9.214,0.03,18.431,0.03,27.683c-9.43,0.033-18.857,0.033-28.258,0.033c0-9.248,0-18.502,0.032-27.716
			C147.59,315.992,156.989,315.992,166.387,316.026z M222.283,340.319c0.059,6.878,0.087,13.791,0.114,20.74
			c-4.83,0-9.658,0-14.517,0.035c0.028-6.949,0.054-13.896,0.054-20.81C212.74,340.252,217.511,340.287,222.283,340.319z"/>
	</g>
	<g>
		<path fill="#145B8E" d="M270.562,139.101c12.601,0,25.172,0,37.772,0c-0.03,11.732-0.03,23.466,0.146,35.199
			c4.566-0.142,9.136-0.245,13.732-0.316c0,6.599,0.027,13.298,0.057,19.968c10.709-0.034,21.388-0.034,32.064,0
			c0-6.632,0-13.265,0-19.862c4.626,0,9.253,0.034,13.854,0.103c0.059-11.236,0.059-22.485,0.059-33.734
			c12.569-0.102,25.167-0.033,37.741-0.102c0.026,11.246,0.026,22.488,0.055,33.732c5.033,0,10.07,0.034,15.131,0.068
			c-0.055,70.479,0.119,140.962-0.084,211.439c-22.118,0.697-44.201,1.465-66.313,0.104c-0.262-7.115-0.438-14.207-0.581-21.259
			c-10.592,0.037-21.187,0-31.807,0.07c-0.146,7.333-0.291,14.661-0.605,22.028c-22.09,1.082-44.145-1.014-66.231-1.014
			c-0.232-70.48-0.054-140.997-0.089-211.474c5.037,0.034,10.07,0.034,15.103,0.102
			C270.593,162.467,270.593,150.766,270.562,139.101z M266.899,190.046c0,10.294,0,20.629,0,30.956c6.373,0,12.743,0,19.116,0
			c0.03-10.324,0.03-20.659,0-30.989C279.642,190.01,273.269,190.01,266.899,190.046z M291.658,190.046
			c-0.028,10.329-0.028,20.661,0,30.991c6.375-0.035,12.771-0.065,19.146-0.104c-0.026-10.296-0.026-20.629-0.062-30.925
			C304.372,190.01,298.005,190.01,291.658,190.046z M365.827,190.046c0,10.294-0.027,20.629-0.027,30.956c6.4,0,12.771,0,19.174,0
			c0-10.324,0-20.659-0.028-30.989C378.573,190.01,372.202,190.01,365.827,190.046z M390.563,190.01c0,10.33,0,20.665,0,31.027
			C396.963,221,403.335,221,409.74,221c-0.028-10.325-0.028-20.66-0.028-30.957C403.307,190.01,396.938,190.01,390.563,190.01z
			 M322.24,205.889c-0.027,13.615,0,27.266,0,40.916c10.708,0,21.417,0,32.123-0.033c-0.028-13.617-0.028-27.199,0.062-40.813
			C343.688,205.815,332.979,205.853,322.24,205.889z M266.899,242.891c0,10.303,0,20.632,0,31.003c6.373,0,12.771-0.035,19.146,0
			c-0.03-10.336-0.03-20.667-0.03-31.003C279.642,242.854,273.269,242.854,266.899,242.891z M291.658,242.891
			c0,10.336-0.028,20.667,0,31.068c6.375-0.065,12.771-0.104,19.177-0.168c-0.057-10.308-0.057-20.602-0.09-30.9
			C304.372,242.854,298.033,242.854,291.658,242.891z M365.827,242.926c-0.027,10.299-0.027,20.632-0.027,30.963
			c6.4,0,12.802-0.032,19.174-0.032c0-10.341,0-20.667-0.028-31.003C378.573,242.854,372.202,242.891,365.827,242.926z
			 M390.593,242.891c-0.03,10.336-0.03,20.667-0.03,31.036c6.4-0.065,12.803-0.065,19.178-0.101
			c-0.027-10.308-0.027-20.637-0.027-30.938C403.307,242.891,396.963,242.854,390.593,242.891z M322.443,258.675
			c-0.291,13.645-0.262,27.295-0.175,40.979c10.683,0,21.389,0,32.065,0c0.027-13.686,0.027-27.336-0.055-40.979
			C343.688,258.742,333.065,258.742,322.443,258.675z M266.899,295.774c0,10.304,0,20.603,0.028,30.935
			c6.344,0.039,12.715,0.068,19.087,0.105c0-10.371,0.03-20.736,0-31.105C279.642,295.709,273.269,295.742,266.899,295.774z
			 M291.569,295.883c0.09,10.266,0.09,20.525,0.033,30.824c6.37,0.041,12.745,0.041,19.116,0.067
			c0.061-10.366,0.061-20.771,0.027-31.103C304.347,295.709,297.944,295.774,291.569,295.883z M365.827,295.774
			c-0.027,10.304,0,20.603-0.027,30.935c6.4,0.039,12.771,0.039,19.174,0.068c0-10.367,0-20.699-0.028-31.035
			C378.573,295.742,372.202,295.742,365.827,295.774z M390.473,295.92c0.09,10.229,0.09,20.453,0.063,30.716
			c6.37,0.073,12.745,0.144,19.146,0.211c0.029-10.403,0.029-20.806,0-31.204C403.279,295.709,396.848,295.774,390.473,295.92z
			 M322.65,311.486c-0.584,13.65-0.466,27.366-0.408,41.053c10.709,0,21.417,0,32.097,0c0.027-13.687,0.027-27.33-0.055-40.979
			C343.744,311.629,333.21,311.629,322.65,311.486z"/>
	</g>
	<path fill="#43A0D2" d="M54.885,212.697c-1.98-0.525-5.939-1.541-7.919-2.025c-0.171,9.604-0.144,19.201-0.171,28.834
		c2.47,0.07,7.392,0.246,9.863,0.313C56.048,230.849,58.345,221.002,54.885,212.697z"/>
	<path fill="#43A0D2" d="M56.688,246.383c-2.473,0.037-7.42,0.176-9.893,0.244c0,9.709,0.027,19.447,0.321,29.224
		c1.922-0.492,5.788-1.437,7.74-1.924C58.373,265.479,56.017,255.463,56.688,246.383z"/>
	<path fill="#43A0D2" d="M56.772,280.873c-2.501,0.142-7.474,0.383-9.978,0.492c-0.03,9.911,0,19.825,0.495,29.735
		c1.919-1.358,5.792-4.051,7.74-5.41C57.911,297.875,56.249,289.108,56.772,280.873z"/>
	<path fill="#43A0D2" d="M56.805,315.641c-2.503,0.107-7.54,0.387-10.041,0.49c0,9.879,0.03,19.725,0.525,29.604
		c1.919-1.291,5.759-3.872,7.681-5.201C57.968,332.746,56.249,323.886,56.805,315.641z"/>
	<path fill="#FFFFFF" stroke="#FFFFFF" stroke-width="0.0938" stroke-miterlimit="10.43" d="M469.902,112.258
		c6.898,0,13.82,0,20.775,0c0,9.913,0,19.866,0,29.847c-6.955-0.033-13.88-0.033-20.809-0.033
		C469.871,132.124,469.871,122.17,469.902,112.258z"/>
	<path fill="#FFFFFF" stroke="#FFFFFF" stroke-width="0.0938" stroke-miterlimit="10.43" d="M700.789,112.258
		c6.927,0,13.853,0,20.771,0.034c0,9.95,0,19.897,0,29.847c-6.923-0.034-13.852-0.034-20.741-0.034
		C700.789,132.152,700.76,122.208,700.789,112.258z"/>
	<path fill="#FFFFFF" stroke="#FFFFFF" stroke-width="0.0938" stroke-miterlimit="10.43" d="M469.846,173.638
		c7.014-0.104,14.024-0.142,21.067-0.142c0.027,9.947,0,19.935,0,29.949c-7.043-0.067-14.058-0.104-21.042-0.104
		C469.871,193.433,469.871,183.55,469.846,173.638z"/>
	<path fill="#FFFFFF" stroke="#FFFFFF" stroke-width="0.0938" stroke-miterlimit="10.43" d="M700.789,173.599
		c6.927-0.033,13.853-0.033,20.771,0c0,9.912,0,19.832,0,29.776c-6.923,0-13.852,0-20.771-0.035
		C700.76,193.433,700.76,183.513,700.789,173.599z"/>
	<path fill="#FFFFFF" stroke="#FFFFFF" stroke-width="0.0938" stroke-miterlimit="10.43" d="M570.32,195.248
		c7.363,0.033,14.75,0.033,22.175,0.033c-0.03,10.324-0.03,20.695-0.062,31.062c-7.396-0.035-14.75-0.035-22.086,0
		C570.234,215.977,570.234,205.604,570.32,195.248z"/>
	<path fill="#FFFFFF" stroke="#FFFFFF" stroke-width="0.0938" stroke-miterlimit="10.43" d="M627.674,195.348
		c8.758-0.066,17.547-0.066,26.332-0.142c0.087,10.363,0.087,20.768,0,31.175c-8.785-0.07-17.518-0.07-26.271-0.146
		C627.732,215.941,627.704,205.604,627.674,195.348z"/>
	<path fill="#FFFFFF" stroke="#FFFFFF" stroke-width="0.0938" stroke-miterlimit="10.43" d="M537.411,195.313
		c8.757-0.032,17.543-0.032,26.357-0.032c0,10.324,0,20.695-0.059,31.062c-8.787-0.035-17.546-0.035-26.303-0.068
		C537.384,215.941,537.384,205.646,537.411,195.313z"/>
	<path fill="#FFFFFF" stroke="#FFFFFF" stroke-width="0.0938" stroke-miterlimit="10.43" d="M599.014,195.313
		c7.393-0.032,14.783-0.032,22.199-0.032c0,10.324,0,20.695,0,31.029c-7.418,0-14.812-0.037-22.199-0.069
		C599.014,215.941,598.984,205.604,599.014,195.313z"/>
	<path fill="#FFFFFF" stroke="#FFFFFF" stroke-width="0.0938" stroke-miterlimit="10.43" d="M469.902,234.83
		c6.898,0,13.82-0.035,20.75,0c0.029,9.948,0.029,19.896,0,29.881c-6.93,0-13.852,0-20.75-0.041
		C469.871,254.727,469.871,244.778,469.902,234.83z"/>
	<path fill="#FFFFFF" stroke="#FFFFFF" stroke-width="0.0938" stroke-miterlimit="10.43" d="M700.789,234.83
		c6.896,0,13.853,0,20.771,0c0,9.948,0,19.933,0,29.881c-6.923,0-13.852-0.041-20.741-0.041
		C700.789,254.727,700.76,244.778,700.789,234.83z"/>
	<path fill="#FFFFFF" stroke="#FFFFFF" stroke-width="0.0938" stroke-miterlimit="10.43" d="M570.289,260.979
		c7.396,0.033,14.778,0.033,22.205,0.064c-0.03,10.298-0.03,20.636,0,30.93c-7.425,0-14.812,0.037-22.205,0.07
		C570.234,281.68,570.26,271.342,570.289,260.979z"/>
	<path fill="#FFFFFF" stroke="#FFFFFF" stroke-width="0.0938" stroke-miterlimit="10.43" d="M627.674,261.115
		c8.785-0.104,17.573-0.104,26.392-0.142c0.027,10.364,0,20.733-0.06,31.103c-8.642-0.174-17.312,0.418-25.896-0.484
		C627.324,281.469,627.791,271.272,627.674,261.115z"/>
	<path fill="#FFFFFF" stroke="#FFFFFF" stroke-width="0.0938" stroke-miterlimit="10.43" d="M537.384,261.084
		c8.787-0.07,17.572-0.07,26.394-0.039c0,10.298,0,20.664-0.062,31c-8.786-0.039-17.545-0.039-26.303,0
		C537.384,281.709,537.384,271.377,537.384,261.084z"/>
	<path fill="#FFFFFF" stroke="#FFFFFF" stroke-width="0.0938" stroke-miterlimit="10.43" d="M598.984,261.084
		c7.392-0.039,14.813-0.07,22.229-0.07c0,10.331,0,20.634,0,30.961c-7.391,0-14.781,0.037-22.175,0.037
		C599.014,281.68,598.984,271.377,598.984,261.084z"/>
	<path fill="#FFFFFF" stroke="#FFFFFF" stroke-width="0.0938" stroke-miterlimit="10.43" d="M469.846,296.201
		c6.93-0.074,13.879-0.109,20.836-0.146c0,9.983,0,19.938,0,29.918c-6.957,0-13.906-0.032-20.836-0.101
		C469.871,315.992,469.871,306.078,469.846,296.201z"/>
	<path fill="#FFFFFF" stroke="#FFFFFF" stroke-width="0.0938" stroke-miterlimit="10.43" d="M700.789,296.162
		c6.927-0.035,13.853-0.035,20.771,0c0,9.948,0,19.864,0.031,29.778c-6.952,0-13.88,0-20.807,0
		C700.76,315.992,700.789,306.078,700.789,296.162z"/>
	<path fill="#FFFFFF" stroke="#FFFFFF" stroke-width="0.0938" stroke-miterlimit="10.43" d="M537.323,326.914
		c8.788-0.168,17.604-0.168,26.448-0.168c-0.03,10.33,0,20.629,0,30.961c-8.816,0.031-17.573,0.031-26.359,0
		C537.384,347.444,537.384,337.18,537.323,326.914z"/>
	<path fill="#FFFFFF" stroke="#FFFFFF" stroke-width="0.0938" stroke-miterlimit="10.43" d="M570.26,326.777
		c7.396,0,14.813,0,22.234,0.037c-0.03,10.262-0.03,20.598,0.028,30.893c-7.422,0-14.84,0.035-22.266,0.035
		C570.26,347.412,570.26,337.076,570.26,326.777z"/>
	<path fill="#FFFFFF" stroke="#FFFFFF" stroke-width="0.0938" stroke-miterlimit="10.43" d="M599.041,326.746
		c7.393,0,14.811,0.031,22.229,0.103c-0.057,10.264-0.057,20.526,0,30.828c-7.42,0.03-14.84,0.03-22.258,0.03
		C599.014,347.375,598.984,337.039,599.041,326.746z"/>
	<path fill="#FFFFFF" stroke="#FFFFFF" stroke-width="0.0938" stroke-miterlimit="10.43" d="M627.732,326.746
		c8.789,0,17.576,0.031,26.358,0.031c-0.028,10.331,0,20.635,0,31.004c-8.782-0.043-17.569-0.043-26.358-0.104
		C627.732,347.375,627.732,337.039,627.732,326.746z"/>
	<g>
		<path fill="#145B8E" d="M497.838,84.124c6.225,0,12.455,0,18.71,0c0.027,2.194,0.086,6.63,0.111,8.829
			c3.401,2.304,5.037,5.692,4.89,10.158c0.149,91.265-0.348,182.509-0.025,273.796c49.438-0.174,98.904-0.031,148.326-0.104
			c0.031-90.137,0-180.299,0.031-270.447c-0.378-8.236,4.737-14.625,6.396-22.271c5.754,0.039,11.516,0.039,17.299,0.07
			c0,2.795,0,8.416,0,11.201c13.18,0,26.361,0,39.547,0c-0.03,96.153-0.03,192.323,0,288.464c-91.564,0-183.166,0-274.766,0
			c0-96.141,0-192.311,0.029-288.464c13.18,0,26.359,0.039,39.568-0.033C497.927,92.499,497.867,86.909,497.838,84.124z
			 M469.902,112.258c-0.028,9.913-0.028,19.866-0.028,29.813c6.93,0,13.852,0,20.809,0.033c0-9.98,0-19.934,0-29.847
			C483.725,112.258,476.802,112.258,469.902,112.258z M700.789,112.258c-0.029,9.951,0,19.896,0.032,29.847
			c6.895,0,13.818,0,20.741,0.034c0-9.948,0-19.896,0-29.847C714.645,112.258,707.716,112.258,700.789,112.258z M469.846,173.638
			c0.027,9.912,0.027,19.795,0.027,29.702c6.983,0,14,0.035,21.043,0.104c0-10.015,0.026-20.001,0-29.949
			C483.87,173.497,476.857,173.532,469.846,173.638z M700.789,173.599c-0.029,9.912-0.029,19.832,0,29.741
			c6.927,0.035,13.853,0.035,20.771,0.035c0-9.944,0-19.862,0-29.776C714.645,173.565,707.716,173.565,700.789,173.599z
			 M469.902,234.83c-0.028,9.948-0.028,19.896,0,29.847c6.898,0.034,13.82,0.034,20.75,0.034c0.029-9.979,0.029-19.933,0-29.877
			C483.725,234.795,476.802,234.83,469.902,234.83z M700.789,234.83c-0.029,9.948,0,19.896,0.032,29.847
			c6.895,0,13.818,0.034,20.741,0.034c0-9.946,0-19.933,0-29.877C714.645,234.83,707.688,234.83,700.789,234.83z M469.846,296.201
			c0.027,9.877,0.027,19.791,0,29.672c6.93,0.065,13.879,0.102,20.836,0.102c0-9.979,0-19.936,0-29.918
			C483.725,296.094,476.771,296.127,469.846,296.201z M700.789,296.162c0,9.916-0.029,19.83,0,29.778c6.927,0,13.853,0,20.807,0
			c-0.033-9.914-0.033-19.83-0.033-29.778C714.645,296.127,707.716,296.127,700.789,296.162z"/>
	</g>
	<g>
		<path fill="#2C2C2C" d="M531.271,167.703c10.647,0.139,21.297,0.101,31.978,0.033c0.063,4.296,0.12,8.593,0.204,12.917
			c21.65-0.033,43.304,0,64.951-0.033c0-3.178,0.027-9.601,0.027-12.777c10.912-0.069,21.854-0.039,32.783-0.069
			c0.204,3.211,0.464,6.458,0.729,9.743c4.743,5.199,3.521,12.982,3.777,19.827c-0.086,14.24-0.114,28.517-0.114,42.76
			c-46.574,0-93.162,0.037-139.748,0C526.762,215.873,522.657,190.566,531.271,167.703z M570.32,195.248
			c-0.088,10.357-0.088,20.729,0.027,31.097c7.336-0.033,14.694-0.033,22.086,0c0.03-10.367,0.03-20.738,0.062-31.061
			C585.07,195.284,577.686,195.284,570.32,195.248z M627.674,195.348c0.03,10.258,0.059,20.595,0.059,30.895
			c8.756,0.068,17.484,0.068,26.271,0.146c0.087-10.407,0.087-20.813,0-31.178C645.221,195.284,636.434,195.284,627.674,195.348z
			 M537.411,195.313c-0.029,10.333-0.029,20.629,0,30.96c8.757,0.037,17.516,0.037,26.303,0.067
			c0.062-10.367,0.062-20.738,0.062-31.063C554.954,195.284,546.171,195.284,537.411,195.313z M599.014,195.313
			c-0.029,10.292,0,20.629,0,30.928c7.393,0.032,14.783,0.069,22.199,0.069c0-10.334,0-20.705,0-31.029
			C613.797,195.284,606.404,195.284,599.014,195.313z"/>
	</g>
	<g>
		<path fill="#2C2C2C" d="M525.83,246.348c46.584,0,93.198-0.04,139.773,0.035c0.028,19.833,0.028,39.658-0.032,59.484
			c-46.569-0.033-93.157,0-139.716-0.033C525.857,286.006,525.889,266.178,525.83,246.348z M570.289,260.979
			c-0.03,10.362-0.058,20.7,0,31.064c7.396-0.039,14.778-0.07,22.205-0.07c-0.03-10.294-0.03-20.632,0-30.93
			C585.07,261.008,577.686,261.008,570.289,260.979z M627.674,261.115c0.117,10.157-0.35,20.352,0.438,30.477
			c8.584,0.902,17.254,0.313,25.896,0.484c0.06-10.367,0.087-20.734,0.06-31.103C645.25,261.008,636.459,261.008,627.674,261.115z
			 M537.384,261.084c0,10.293,0,20.629,0.029,30.961c8.757-0.039,17.517-0.039,26.303,0c0.062-10.336,0.062-20.702,0.062-31
			C554.954,261.008,546.171,261.008,537.384,261.084z M598.984,261.084c0,10.293,0.029,20.597,0.058,30.928
			c7.393,0,14.784-0.037,22.174-0.037c0-10.329,0-20.632,0-30.961C613.797,261.008,606.371,261.045,598.984,261.084z"/>
	</g>
	<g>
		<path fill="#2C2C2C" d="M525.889,312.008c46.555,0.105,93.145,0.037,139.72,0.037c0.027,19.828,0.027,39.656,0,59.488
			c-46.575,0.03-93.163-0.041-139.749,0.03C525.83,351.701,525.857,331.873,525.889,312.008z M537.323,326.914
			c0.062,10.269,0.062,20.53,0.091,30.793c8.787,0.031,17.544,0.031,26.359,0c0-10.332-0.03-20.631,0-30.961
			C554.93,326.746,546.111,326.746,537.323,326.914z M570.26,326.777c0,10.299,0,20.635,0,30.961c7.426,0,14.844-0.031,22.266-0.031
			c-0.059-10.295-0.059-20.631-0.028-30.896C585.07,326.777,577.654,326.777,570.26,326.777z M599.041,326.746
			c-0.058,10.293-0.027,20.629-0.027,30.961c7.418,0,14.838,0,22.26-0.03c-0.059-10.302-0.059-20.564,0-30.83
			C613.852,326.777,606.434,326.746,599.041,326.746z M627.732,326.746c0,10.293,0,20.629,0,30.931
			c8.789,0.063,17.576,0.063,26.358,0.104c0-10.369-0.028-20.673,0-31.004C645.311,326.777,636.521,326.746,627.732,326.746z"/>
	</g>
	<rect x="-0.5" y="382.701" fill="#2D2C2C" width="1200" height="16.799"/>
	<g>
		<path fill="#283C8F" stroke="#010101" stroke-width="0.0938" stroke-miterlimit="10.43" d="M945.648,257.427
			c1.185,0,2.365,0.002,3.55,0c0.224,3.28,0.049,6.575,0.099,9.866c-1.222,0.025-2.438,0.02-3.656,0.01
			C945.648,264.013,945.625,260.722,945.648,257.427z"/>
		<path fill="#283C8F" stroke="#010101" stroke-width="0.0938" stroke-miterlimit="10.43" d="M929.224,267.76
			c2.854,1.496,5.478,3.457,8.13,5.285c-0.605,1.011-1.254,1.994-1.979,2.926c-2.702-1.768-5.422-3.512-8.054-5.372
			C927.916,269.629,928.563,268.689,929.224,267.76z"/>
		<path fill="#283C8F" stroke="#010101" stroke-width="0.0938" stroke-miterlimit="10.43" d="M957.645,272.697
			c2.711-1.488,5.033-3.722,7.894-4.889c0.552,0.951,1.165,1.865,1.843,2.727c-2.697,1.857-5.375,3.854-8.252,5.385
			c-0.515-0.858-1.031-1.723-1.59-2.551C957.561,273.201,957.617,272.867,957.645,272.697z"/>
		<path fill="#283C8F" stroke="#010101" stroke-width="0.0938" stroke-miterlimit="10.43" d="M943.158,276.522
			c1.27-3.539,6.777-3.813,8.354-0.396c1.104,3.055,0.368,6.399,0.544,9.578c-3.092,0-6.186-0.012-9.276,0.01
			C942.893,282.67,942.344,279.496,943.158,276.522z"/>
		<g>
			<path fill="#283C8F" stroke="#010101" stroke-width="0.0938" stroke-miterlimit="10.43" d="M932.45,290.076
				c50.31-0.024,100.617-0.054,150.923-0.07v11.203c-0.273,24.285-0.012,48.576-0.056,72.867
				c-5.854,0.016-11.716,0.004-17.571,0.008c-0.8-9.906-8.451-18.906-18.221-20.978c-6.152-1.579-12.956-0.194-18.174,3.366
				c-5.881,3.919-9.842,10.554-10.448,17.604c-28.06,0.008-56.112,0.008-84.166,0.004c-0.657-10.059-8.672-19.143-18.563-21.067
				c-5.578-1.371-11.578-0.144-16.543,2.627c-6.439,3.905-11.146,10.845-11.662,18.44c-3.308-0.004-6.619,0.039-9.932-0.023
				c-0.282-3.553-0.668-7.085-0.948-10.641V352.56c0.484-4.328,0.921-8.681,1.949-12.923c0.82-2.555,1.736-5.264,3.837-7.063
				c1.17-1.057,2.829-1.146,4.242-1.697c3.723-1.438,6.717-4.188,9.501-6.947c8.065-8.585,14.454-18.626,22.804-26.971
				C923.032,293.627,927.27,290.064,932.45,290.076z M929.52,294.58c-9.438,10.604-18.77,21.291-28.272,31.822
				c17.498,0.192,35.017,0.107,52.521,0.042c0.021-10.61,0.021-21.233,0-31.847C945.679,294.545,937.596,294.58,929.52,294.58z
				 M1012.757,307.816c-0.03,4.221,0.054,8.439-0.044,12.656c-4.181,0.322-8.521,0.027-12.756,0.146
				c-0.027,2.422-0.027,4.851,0.002,7.269c4.266,0.021,8.524-0.015,12.791,0.021c0.018,4.254-0.006,8.518,0.01,12.771
				c2.418,0.014,4.837,0.009,7.256,0.005c0.057-4.259,0.017-8.521,0.023-12.771c4.252-0.022,8.508-0.018,12.76-0.013
				c0.082-2.424,0.026-4.852,0.039-7.274c-4.188-0.006-8.377-0.057-12.563,0.021c-0.547-4.202-0.07-8.563-0.241-12.832
				C1017.614,307.803,1015.181,307.795,1012.757,307.816z M938.787,330.969c-0.178,1.268-0.151,2.557-0.034,3.834
				c4.286-0.014,8.577,0.025,12.866-0.02c0.654-0.898,0.644-2.879,0.006-3.787C947.35,330.944,943.066,331.011,938.787,330.969z
				 M1073.959,347.703c-0.02,5.637-0.005,11.272-0.005,16.907c2.324,0.021,4.654,0.023,6.983,0
				c-0.019-5.635,0.008-11.265-0.012-16.897C1078.61,347.688,1076.283,347.692,1073.959,347.703z"/>
		</g>
		<path fill="#283C8F" stroke="#010101" stroke-width="0.0938" stroke-miterlimit="10.43" d="M908.85,360.58
			c6.534-1.162,13.502,2.418,16.379,8.381c2.646,5.216,2.028,11.949-1.635,16.527c-3.303,4.416-9.124,6.713-14.563,5.868
			c-4.43-0.649-8.568-3.319-10.883-7.172c-2.952-4.574-3.166-10.729-0.578-15.517C899.781,364.403,904.099,361.297,908.85,360.58z"
			/>
		<path fill="#283C8F" stroke="#010101" stroke-width="0.0938" stroke-miterlimit="10.43" d="M1040.008,360.58
			c4.453-0.729,9.221,0.561,12.603,3.57c4.89,4.076,6.849,11.409,4.362,17.32c-2.243,6.343-9.055,10.679-15.756,9.986
			c-7.364-0.43-13.869-6.854-14.241-14.252C1026.096,369.358,1032.202,361.61,1040.008,360.58z"/>
	</g>
	<path fill="#CCCCCC" d="M1023.741,180.402c2.55,0,4.868,1.159,6.634,3.054c2.654-5.909,7.845-9.932,13.822-9.932
		c3.276,0,6.326,1.22,8.846,3.298c4.386-8.72,12.338-14.532,21.418-14.532c8.088,0,15.278,4.614,19.854,11.787
		c1.186-0.349,2.413-0.551,3.685-0.551c8.669,0,15.698,8.455,15.698,18.888h-99.936
		C1013.758,185.785,1018.232,180.402,1023.741,180.402z"/>
	<path fill="#CCCCCC" d="M895.622,118.542c2.798,0,5.345,1.275,7.274,3.354c2.916-6.492,8.613-10.902,15.17-10.902
		c3.604,0,6.948,1.337,9.712,3.615c4.811-9.567,13.547-15.958,23.508-15.958c8.882,0,16.769,5.079,21.793,12.939
		c1.298-0.384,2.651-0.604,4.053-0.604c9.509,0,17.226,9.286,17.226,20.73H884.668C884.666,124.441,889.573,118.542,895.622,118.542
		z"/>
	<path fill="#CCCCCC" d="M1055.438,121.259c3.496,0,6.675,1.594,9.101,4.195c3.634-8.109,10.757-13.624,18.949-13.624
		c4.507,0,8.679,1.663,12.142,4.514c6.012-11.945,16.916-19.938,29.371-19.938c11.092,0,20.948,6.342,27.226,16.167
		c1.624-0.476,3.313-0.751,5.059-0.751c11.885,0,21.521,11.604,21.521,25.901H1041.75
		C1041.746,128.633,1047.873,121.259,1055.438,121.259z"/>
	<path fill="#CCCCCC" d="M788.604,171.842c2.354,0,4.5,1.072,6.132,2.833c2.45-5.466,7.249-9.192,12.772-9.192
		c3.035,0,5.853,1.127,8.178,3.051c4.062-8.053,11.409-13.438,19.805-13.438c7.478,0,14.124,4.273,18.353,10.901
		c1.097-0.323,2.232-0.512,3.413-0.512c8.008,0,14.503,7.823,14.503,17.468h-92.385
		C779.368,176.812,783.497,171.842,788.604,171.842z"/>
</g>
<rect x="-0.5" y="-0.5" fill="none" width="1200" height="400"/>
</svg>
