<?xml version="1.0" encoding="utf-8"?>
<!-- Generator: Adobe Illustrator 13.0.0, SVG Export Plug-In . SVG Version: 6.00 Build 14948)  -->
<!DOCTYPE svg PUBLIC "-//W3C//DTD SVG 1.1//EN" "http://www.w3.org/Graphics/SVG/1.1/DTD/svg11.dtd">
<svg version="1.1" id="Layer_1" xmlns="http://www.w3.org/2000/svg" xmlns:xlink="http://www.w3.org/1999/xlink" x="0px" y="0px"
	 width="1200px" height="400px" viewBox="0 0.083 1200 400" enable-background="new 0 0.083 1200 400" xml:space="preserve">
<g>
	<rect x="-0.5" y="-0.5" fill="none" width="1200" height="400"/>
	<g>
		<g>
			<path fill="#CCCCCC" d="M113.095,88.328c-1.482-3.134-1.057-6.339,0.359-9.391c0.688,1.871,1.954,3.136,3.81,3.752
				c-4.523,8.65-2.611,18.48-2.723,27.792c0.07,19.886,1.018,39.726,1.045,59.609c0.429,0.537,1.269,1.622,1.681,2.159
				c-0.068,7.013,0.054,14.041-0.331,21.052c0.412,0.563,1.249,1.703,1.663,2.269c-0.054,7.262-0.109,14.521,0.097,21.781
				c6.809,9.229,3.383,21.316,4.265,31.918c8.444,3.426,7.688,13.725,12.032,20.297c0.429,23.416,0.167,46.857,0.138,70.293
				c15.91,0.025,31.819,0.248,47.715-0.125c-1.169-4.223,2.56-3.984,5.474-4.262c0.012,1.104,0.04,3.313,0.052,4.412
				c6.863,0.164,13.74,0.512,20.598,0c-0.067-12.803,0.333-25.629-0.149-38.416c-0.649-0.336-1.924-0.979-2.573-1.309
				c3.948-1.457,7.563-3.646,10.917-6.162c-0.04-5.264-0.466-10.559,0.084-15.811c1.39-2.014,3.285-3.619,4.619-5.666
				c0.785-3.729,0.771-7.551,1.239-11.305c0.204,3.738,0.136,7.479,0.122,11.234c1.815,1.908,3.835,3.688,5.307,5.896
				c0.675,5.02,0.166,10.105,0.231,15.152c4.815,2.006,9.132,4.949,12.498,8.965c-0.755-0.141-2.239-0.441-2.982-0.574
				c-0.178,12.469-0.03,24.953-0.108,37.428c3.727,0.059,7.451,0.066,11.163,0.059c0.044-1.42,0.11-4.234,0.152-5.652
				c-0.579-0.207-1.718-0.621-2.282-0.844c3.7-1.002,3.686-6.609,7.88-6.609c3.505-0.096,7.439-0.842,10.698,0.717
				c4.854,3.631,1.319,10.559,4.084,15.221c1.912,0.334,3.835,0.223,5.773,0.234c-0.025-1.98-0.052-3.977-0.08-5.941
				c0.769-0.205,2.279-0.59,3.051-0.783c1.748,0.91,3.52,1.814,5.307,2.695c-0.096,0.633-0.273,1.896-0.373,2.529
				c1.748,0.1,3.479,0.193,5.229,0.301c-0.013,0.803-0.057,2.408-0.07,3.221c1.321,1.307,2.573,2.687,3.962,3.934
				c2.943,0.453,5.144-1.648,7.193-3.381c0.258-2.28-0.112-4.992,1.731-6.725c2.86-2.82,7.023-3.342,10.75-4.225
				c0.069-0.781,0.22-2.363,0.288-3.146c3.892,2.805,8.607,4.273,12.157,7.576c0.204,2.488,0.467,4.963,0.81,7.451
				c1.759-1.102,3.121-2.588,4.084-4.457c0.521,0.824,1.566,2.475,2.09,3.305c1.485-0.111,2.955-0.227,4.454-0.332
				c1.498-0.988,2.997-1.951,4.523-2.916c-1.072,4.469,2.64,4.385,5.83,4.576c0.122-0.902,0.385-2.709,0.521-3.615
				c0.921,1.146,1.845,2.271,2.791,3.398c4.386-0.086,8.771-0.098,13.159-0.043c0.921-5.201,1.706-10.799,5.238-14.961
				c4.472-5.557,11.591-8.07,18.509-8.68c0-1.596,0.017-3.176,0.017-4.754c1.771-0.08,3.547-0.152,5.335-0.234
				c0.125-4.484,0.125-8.949,0.164-13.438c-1.402-0.717-2.793-1.434-4.166-2.146c1.237-0.688,2.476-1.394,3.729-2.075
				c1.142-3.813,3.769-6.813,6.89-9.172c0.054-4.371-0.273-8.785,0.331-13.121c0.878-2.007,3.341-2.475,5.146-3.27
				c0.561,4.605,0.655,9.248,0.615,13.9c2.2,1.879,4.635,3.615,6.229,6.078c0.631,2.195,0.41,4.521,0.604,6.775
				c3.054,0.234,2.957,1.678,1.048,3.535c-1.375,4.469-1.251,9.168-1.212,13.791c1.83-0.852,3.685-1.709,5.53-2.549
				c0.04,1.791,0.082,3.592,0.136,5.396c8.445,0.697,16.983,4.881,20.779,12.803c1.994,4.879,4.729,9.611,5.514,14.889
				c2.629,3.232,5.598,6.813,10.231,6.451c0.012-0.865,0.04-2.627,0.04-3.49c2.406,0,4.799-0.018,7.204-0.018
				c-0.054-1.125-0.149-3.379-0.205-4.508c2.075,0.016,4.151-0.082,6.214,0.221c2.405,1.623,4.262,3.918,6.258,6.008
				c1.637,0.193,3.288,0.398,4.936,0.605c0.455-0.553,1.375-1.652,1.83-2.201c3.271-0.178,7.44,0.895,8.925-2.951
				c3.409-0.717,6.985-0.596,10.341-1.338c3.151-2.848,6.092-6.504,10.877-5.252c-0.122,1.928-0.249,3.838-0.356,5.76
				c3.588,0.881,7.248,0.51,9.75-2.475c1.979-0.178,3.955-0.355,5.967-0.506c-0.069-1.844-0.14-3.701-0.194-5.547
				c1.83,0,3.67,0.016,5.514,0.025c-0.026,4.334-0.026,8.682,0.084,13.014c1.058-0.111,3.161-0.332,4.224-0.441
				c1.375-1.623,2.996-3.049,4.026-4.922c0.222-2.793,0.124-5.588,0.124-8.373c2.367,0.271,4.732,0.561,7.123,0.893l-0.521-2.074
				c3.756-0.127,7.509-0.109,11.263,0.041c-0.026,3.299-0.068,6.617-0.108,9.934c6.697,1.264,13.504,1.457,20.295,1.576
				c4.883-7.646,8.896-15.842,14.275-23.168l0.04-0.48c-1.153,0.539-2.31,1.086-3.465,1.646c-1.483-1.66-3.025-3.256-4.358-5.047
				c0.813-1.357,1.679-2.684,2.6-3.975c2.021,1.883,4.069,3.771,6.105,5.652c3.493-6.727,7.919-12.816,12.182-19.061
				c0.799-1.689,1.662-3.354,2.543-5.021c-2.248-1.854-4.987-3.754-3.588-7.123c2.646-0.771,4.844,1.318,7.274,1.965
				c1.047-1.484,1.924-3.064,2.849-4.619c0.414-0.209,1.248-0.635,1.661-0.842c-0.989-0.094-2.952-0.271-3.946-0.354
				c-0.961-1.293-1.927-2.57-2.875-3.854c2.479-2.693,5.446-1.441,8.155,0.1c1.4-1.393,2.734-2.814,4.027-4.303
				c-1.979-1.336-3.935-2.67-5.886-4.002c1.416-1.229,2.808-2.493,4.358-3.551c0.92,0.799,2.761,2.404,3.685,3.203
				c1.69-2.434,3.396-4.855,5.103-7.287c-0.588,0.469-1.789,1.4-2.394,1.869c-1.389-1.236-2.748-2.434-4.139-3.633
				c1.25-1.15,2.502-2.318,3.769-3.463c1.399,1.072,2.817,2.174,4.247,3.248c3.044-4.322,6.201-8.557,9.229-12.9
				c14.99,1.75,29.841,4.635,44.718,7.223c-5.254,5.047-8.11,11.963-12.153,17.934c-15.785,26.109-30.787,52.896-41.556,81.525
				c5.748-3.629,10.795-8.25,16.418-12.07c1.95-4.029,4.032-7.988,6.354-11.828c1.399,0.852,2.805,1.68,4.233,2.53
				c-1.563,3.823-3.571,7.466-5.101,11.319c6.022,1.938,12.265,3.146,18.451,4.592c1.994-1.348,3.935-2.791,6.123-3.85
				c4.604-0.207,8.864,3.547,13.442,2.557c3.711-3.529,6.117-8.145,9.131-12.236c-0.096-7.551-0.139-15.084-0.207-22.621
				c0.781,1.168,1.556,2.34,2.353,3.521c-2.28,6.489-0.938,13.489-1.112,20.217c1.563,1.578,3.138,3.173,4.674,4.793
				c1.746,0.087,3.521,0.171,5.293,0.25c0-1.11,0.021-3.325,0.021-4.426c5.043-0.127,10.104-0.142,15.162-0.108
				c-0.017,0.715-0.026,2.131-0.041,2.834c0.853,0.051,2.543,0.164,3.396,0.205c0.646,0.688,1.938,2.032,2.586,2.723
				c5.787,0.949,11.054-1.336,16.433-3.053c9.569-1.099,19.295,0.399,28.875-1.002c-1.278-2.38-3.535-4.513-3.521-7.371
				c1.526-0.865,3.271-1.11,4.979-1.515c1.666,3.779,3.562,7.468,5.461,11.147c4.908,0,9.832-0.053,14.767-0.039
				c-6.229-12.194-12.129-24.543-18.631-36.604c-10.742-19.568-21.082-39.646-35.448-56.861c13.17,1.185,26.344,2.425,39.463,4.129
				c0.854,0.998,1.731,2.076,2.616,3.105c0.944-1.199,1.938-2.339,2.979-3.451c1.941,0.315,3.449,1.68,5.086,2.685
				c-1.729,1.442-3.479,2.858-5.227,4.272c0.946,1.799,1.924,3.575,2.9,5.375c1.32-1.315,2.625-2.647,3.957-3.957
				c1.42,0.864,2.847,1.75,4.289,2.627c-0.971,1.319-1.938,2.646-2.883,3.976c-1.449-0.386-2.853-0.729-4.266-1.084
				c2.047,2.502,4.184,4.948,6.602,7.106c1.086-1.375,2.187-2.748,3.287-4.111c1.348,1.229,2.709,2.445,4.065,3.687
				c-1.7,1.537-3.379,3.093-5.071,4.621c1.153,1.578,2.311,3.16,3.479,4.754c1.211-1.307,2.438-2.602,3.656-3.875
				c1.484,0.988,2.957,2.009,4.443,3.041c-1.354,1.388-2.712,2.765-4.084,4.123c0.92,1.5-0.044,5.418,2.855,4.552
				c0.746-0.617,2.257-1.869,3.015-2.505c0.537-0.094,1.625-0.284,2.158-0.385c0.575,1.131,1.112,2.28,1.62,3.467
				c-0.938,2.035-3.137,2.945-4.743,4.277c1.606,1.729,3.22,3.478,4.838,5.205c0.621-0.835,1.837-2.484,2.45-3.313
				c0.673,0.069,2.021,0.235,2.697,0.305c0.797,0.976,1.578,1.951,2.404,2.945c-1.814,1.432-3.602,2.887-5.4,4.315
				c1.193,1.36,2.39,2.726,3.604,4.098c1.399-1.288,2.787-2.598,4.205-3.905c1.194,1.293,2.476,2.547,3.576,3.949
				c-1.459,1.567-3.082,2.952-4.66,4.391c8.397,10.736,15.92,22.16,24.651,32.652c0.232-12.677,0.138-25.371,0.064-38.048
				c0.396,0.043,1.194,0.113,1.598,0.142c-0.108,13.074-0.026,26.142-0.069,39.199c9.088,0.1,18.181,0.207,27.271-0.084
				c0.055-12.002-0.428-24.021,0.235-36.011c0.851,11.961,0.257,24.009,0.313,35.998c5.638,0.894,11.371,0.576,17.063,0.594
				c1.032-2.709,2.196-5.352,3.428-7.963c2.32-0.168,4.645-0.332,6.998-0.438c0.572-4.883,0.838-9.846,2.227-14.588
				c-0.906-0.181-2.723-0.539-3.627-0.718c1.182-1.415,2.359-2.815,3.586-4.223c0.193-1.047,0.572-3.121,0.77-4.166
				c0.289,1.5,0.564,2.983,0.896,4.498c1.013,1.073,2.063,2.133,3.148,3.176c-2.931,2.156-1.486,6.117-2.984,9.021
				c3.92,0.537,1.64,4.004,1.193,6.461c3.149,0.152,6.301,0.275,9.463,0.375c0.065,0.752,0.19,2.279,0.26,3.035
				c11.33,0.181,22.729-0.604,33.992,1.131c0.108,0.716,0.305,2.16,0.41,2.888c5.198-0.248,10.381,0.233,15.553,0.813
				c4.938-3.521,11.031-1.966,16.651-1.854c3.076-2.006,6.685-2.283,10.201-1.361c2.217-7.78,1.035-15.922,1.336-23.881
				c-0.151-5.213,1.166-11.416-3.248-15.336c-2.28-0.744-3.728,0.797-4.938,2.449c-1.141-0.041-2.28-0.068-3.383-0.099
				c-1.389-1.332-2.996-2.319-4.688-3.158c-0.052-1.387-0.095-2.793-0.12-4.166c1.469-0.358,2.952-0.688,4.469-1.021
				c-0.906-0.563-1.803-1.125-2.683-1.672c-0.563-2.852-1.192-5.695-1.847-8.527c2.201-3.592,4.58-7.055,7.263-10.303
				c1.948,3.471,3.89,6.945,5.845,10.414c-0.863,3.684-2.037,7.303-3.615,10.746c1.924-0.049,3.863-0.09,5.815-0.135
				c0-3.561,0-7.111-0.081-10.654c-2.037-3.314-2.834-7.148-3.232-10.961c2.215-3.258,4.303-6.611,6.342-9.996
				c4.041,4.148,6.021,9.652,7.934,15.018c0.482-0.15,1.445-0.455,1.928-0.619c1.057-0.988,1.607-4.017,3.521-2.541
				c2.021,2.846,3.588,5.992,5.432,8.979c-0.895,3.652-1.678,7.463-4.193,10.408c3.219-0.162,2.777,2.984,3.188,5.279
				c-2.129,0.645-4.121,3.039-6.461,2.131c-2.726-0.346-6.229-2.518-8.44,0.027c-1.474,1.393-3.248,3.084-2.931,5.338
				c-0.026,8.357-0.112,16.721,0.041,25.08c-0.127,2.402,1.787,4.191,2.763,6.229c2.158-0.014,4.334-0.014,6.52-0.014
				c1.623,1.471,3.095,3.178,5.033,4.264c6.104,0.66,12.281,0.08,18.426,0.18c-0.014-2.82-0.014-5.641,0-8.455
				c4.473,0.053,8.951,0.066,13.447,0.053c0.017,2.725,0.043,5.445,0.082,8.166c4.676-4.178,10.246-9.318,9.49-16.238
				c-0.688-4.002-4.373-6.01-7.496-7.936c-0.812-6.037-8.262-11.098-4.385-17.313c2.021-3.381,6.366-4.195,10.021-4.348
				c10.15-0.428,20.23-1.885,30.395-2.006c6.609-0.127,12.869,2.195,19.141,4.012c3.465-5.416,10.932-5.045,14.49-10.229
				c-4.367-4.729-9.91-9.446-10.404-16.346c-4.596-0.677-9.461-1.252-13.326-4.031c-3.674-2.487-6.434-6.381-10.783-7.754
				c-3.299-0.782-7.078-0.233-9.637,2.104c-2.586,3.848-1.484,8.717,1.193,12.193c0.043,0.729,0.141,2.188,0.182,2.902
				c-3.9-2.021-7.729-4.539-9.404-8.813c0.396-0.676,1.189-2.012,1.592-2.682c2.133-2.174,3.176-5.131,5.146-7.398
				c2.652-1.441,5.648-2.006,8.539-2.834c0.729-8.357,6.258-15.102,8.967-22.844c-3.576,1.031-7.166,2.146-10.891,2.283
				c-0.523-7.826,9.873-9.117,12.748-15.396c3.631,1.771,8.141,2.309,10.955,5.455c2.092,2.104,1.241,5.309,1.625,7.961
				c-0.593,1.195-1.184,2.407-1.748,3.616c0.646-0.19,1.926-0.563,2.571-0.755c2.05-5.236,4.438-10.426,9.114-13.873
				c-0.701-2.969-0.864-6.023-0.646-9.061c1.688-0.043,3.395-0.084,5.102-0.102c0.494,0.717,1.471,2.172,1.951,2.895
				c-0.783,2.502-1.66,4.959-2.611,7.396c5.359,7.108,4.828,16.31,6.396,24.616c1.938,2.361,4.223,4.438,5.816,7.096
				c-1.277,0.084-3.852,0.26-5.146,0.342c2.422,2.203,4.746,4.514,6.713,7.166c3.957,0.314,8.896,1.03,10.281,5.459
				c3.189,10.104,3.234,22.273,12.049,29.631c-1.625,1.432-3.234,2.85-4.854,4.25c0.688,0.525,1.398,1.061,2.133,1.584
				c3.943-2.74,8.646-4.236,12.346-7.371c5.6-5.723,14.852,0.436,20.846-5.09c1.818-3.658,6.191-4.605,9.547-6.351
				c0.223,0.813,0.658,2.437,0.881,3.247c-0.064,30.926,0.055,61.859-0.064,92.785c-47.031-0.244-94.057-0.576-141.068-0.936
				c-20.611,1.623-41.309,0.592-61.945,0.879c-41.689,0-83.384,0-125.076,0c-6.82,0.027-13.68-0.334-20.461,0.549
				c-2.734-0.576-5.484-0.137-8.219,0.057c-11.434-1.102-22.951-0.563-34.424-0.48c-8.307,0.967-16.76-1.523-24.932,0.797
				c-5.416-1.43-11.055-0.861-16.582-0.922c-39.422-0.012-78.83,0.018-118.256-0.012c-7.74-0.057-15.479,0.945-23.209,0.164
				c-11.949-0.314-23.912-0.125-35.875-0.125c-7.769,0.576-15.537,0.469-23.307-0.014c-188.864-0.045-377.717,0-566.582-0.02v-27.09
				c4.785-0.289,10.063,1.086,14.354-1.623c4.236-2.361,9.338-1.002,13.958-1.275c0.026,0.854,0.068,2.557,0.082,3.412
				c1.731,0.16,3.449,0.385,5.171,0.645c-0.414,1.773-1.623,2.893-3.605,3.318c0.031,0.943,0.113,2.844,0.139,3.795
				c2.875,0,5.748-0.016,8.608-0.045c1.183-1.516,2.35-3.014,3.505-4.514c1.748,0.111,3.479,0.223,5.225,0.352
				c1.033-2.504,1.39-5.852,4.648-6.354c-0.068-0.906-0.192-2.725-0.262-3.646c3.19-0.023,6.394-0.041,9.585-0.041
				c-0.015,1.111-0.04,3.33-0.055,4.439l3.149-0.096c-0.099-1.98-0.192-3.947-0.291-5.912c1.72-0.248,3.423-0.492,5.146-0.729
				c0.576,1.166,1.14,2.326,1.718,3.49c2.708-0.055,5.417-0.082,8.142-0.109c0.054-1.787,0.122-3.574,0.192-5.357
				c2.572,0.164,5.146,0.342,7.713,0.531c-0.099-9.703-0.054-19.414-0.028-29.117c1.005-0.02,2.999-0.059,4.002-0.086
				c-0.082-10.537-0.012-21.078-0.052-31.611c0.865-0.029,2.599-0.059,3.463-0.064c1.87-10.842-2.078-22.115,1.664-32.672
				c1.429-4.336,4.948-7.43,8.84-9.604c0.358-8.027-0.397-16.104,0.316-24.115c0.33-3.797,2.75-6.85,5.473-9.324
				C111.517,173.967,112.065,131.132,113.095,88.328z M1137.764,275.433c-1.556,3.604-2.683,7.797-6.01,10.217
				c-1.496,1.25-3.394,2.012-4.621,3.547c0.356,2.365,5.545,3.441,3.221,6.189c-5.047,4.471-7.85,11.148-14.123,14.137
				c11.084,3.48,22.949,5.25,33.082,11.195c1.035-2.104,1.724-4.941,4.455-5.477c-4.619-4.357-6.56-10.559-9.129-16.184
				C1140.736,291.548,1144.558,281.703,1137.764,275.433z"/>
		</g>
		<rect x="-0.341" y="382.705" fill="#2D2C2C" width="1199.663" height="16.795"/>
		<rect x="166.701" y="315.832" fill="#43A0D2" width="380.173" height="66.873"/>
		<path fill="#43A0D2" d="M356.786,340.261c167.417,0,303.124-12.197,303.124-27.244H53.654
			C53.655,328.062,189.37,340.261,356.786,340.261z"/>
		<path fill="#2C2C2C" d="M556.595,302.753c0-1.902,0.563-3.742,1.591-5.465c-3.536-1.947-7.601-2.605-11.417-3.811
			c2.242-1.063,3.243-3.451,5.047-5.05c0.83-0.979-1.019-1.366-1.152-2.212c0.444-0.547,1.12-0.822,1.651-1.27
			c1.189-0.861,1.597-2.361,2.146-3.65c2.435,2.244,1.064,5.762,2.466,8.445c0.841,1.846,1.524,3.832,2.896,5.354
			c0.208-0.244,0.409-0.482,0.641-0.723c-0.097-0.07-0.196-0.146-0.285-0.211c0.576-0.5,1.151-1.008,1.735-1.521
			c-3.153-2.629-3.166-6.976-4.313-10.588c-0.495-1.584-2.261-1.843-3.674-1.955c-0.703-0.945-1.532-1.771-2.398-2.56
			c0.461-0.026,1.381-0.093,1.834-0.121c-0.565-0.95-1.388-1.688-2.074-2.535c-0.559-2.969-0.366-6.26-2.286-8.801
			c0.342-0.867,0.648-1.748,0.931-2.644c-0.171-0.258-0.52-0.772-0.695-1.037c-0.604,0.007-1.217,0.021-1.822,0.037
			c-0.075,1.086-0.021,2.181,0.232,3.237c-1.67,1.238-2.525,3.091-3.259,4.961c-0.229,0.063-0.69,0.199-0.918,0.271
			c0.201-0.433,0.41-0.865,0.628-1.291c-0.143-0.949,0.161-2.099-0.583-2.849c-1.008-1.129-2.622-1.317-3.917-1.951
			c-1.028,2.248-4.745,2.709-4.557,5.504c1.33-0.047,2.615-0.448,3.892-0.819c-0.963,2.771-2.944,5.181-3.203,8.164
			c-1.03,0.299-2.102,0.502-3.053,1.019c-0.703,0.812-1.076,1.862-1.836,2.646c-0.146,0.234-0.431,0.715-0.568,0.953
			c0.601,1.531,1.964,2.43,3.361,3.152c-0.02-0.258-0.052-0.777-0.063-1.041c-0.961-1.24-1.353-2.979-0.43-4.355
			c0.912-0.834,2.268-1.029,3.442-0.75c1.561,0.492,2.549,1.883,3.854,2.771c1.384,0.992,3.121,1.199,4.763,1.441
			c0.177,2.467,2.156,4.152,3.724,5.846c-1.273,1.852-3.946,1.719-5.183,3.652c-2.239-0.648-4.48-1.479-6.842-1.436
			c-3.637,0.045-7.24,0.563-10.867,0.715c-1.303,0.053-2.854,0.348-3.578,1.555c-1.387,2.225,1.271,4.031,1.564,6.188
			c1.112,0.688,2.432,1.404,2.679,2.836c0.271,2.473-1.726,4.309-3.396,5.805c-0.013-0.973-0.021-1.947-0.025-2.92
			c-1.606,0.002-3.211,0-4.807-0.021c-0.005,1.008-0.005,2.014,0,3.021c-2.198-0.037-4.407,0.172-6.591-0.064
			c-0.691-0.385-1.218-0.998-1.8-1.521c-0.777,0-1.558,0-2.329,0.004c-0.348-0.728-1.03-1.363-0.988-2.228
			c-0.049-2.988-0.022-5.978-0.012-8.966c-0.112-0.803,0.52-1.403,1.047-1.905c0.789-0.903,2.045-0.131,3.021-0.011
			c0.835,0.322,1.545-0.53,2.312-0.76c-0.146-0.819,0.008-1.942-1.142-1.888c0.899-1.053,1.181-2.415,1.494-3.725
			c-0.654-1.063-1.216-2.191-1.938-3.209c-0.685-0.525-0.882,0.555-1.261,0.908c-0.168,0.057-0.515,0.17-0.688,0.225
			c-0.686-1.92-1.388-3.885-2.833-5.369c-0.728,1.211-1.478,2.41-2.263,3.576c0.138,1.356,0.423,2.733,1.148,3.916
			c0.03,1.267,0.03,2.535,0.03,3.81c-0.696,0.018-1.395,0.03-2.081,0.049c0.569-1.229,0.986-2.522,1.299-3.842
			c-0.703-1.24-1.395-2.482-2.091-3.724c-0.963,1.158-1.812,2.399-2.596,3.681c0.228,1.02,0.454,2.03,0.655,3.051
			c0.31,0.196,0.636,0.397,0.956,0.603c-0.539,0.116-1.07,0.231-1.597,0.362c0.007,0.488,0.025,0.992,0.044,1.486
			c0.603,0.301,1.18,0.655,1.674,1.129c0.397,0.012,0.804,0.022,1.209,0.037c0.438-0.591,0.95-1.142,1.768-0.875
			c1.577,1.399,1.105,3.616,1.157,5.481c-0.106,2.844,0.319,5.752-0.474,8.535c-1.261-0.33-2.547-0.23-3.647,0.487
			c-2.006-0.041-4.188-0.597-5.95,0.661c-1.852-0.204-3.702-0.379-5.562-0.29c-0.037-0.261-0.106-0.776-0.146-1.032
			c-4.027-0.617-8.104-0.343-12.15-0.404c-0.026-0.269-0.069-0.813-0.097-1.082c-1.134-0.037-2.261-0.08-3.381-0.138
			c0.158-0.879,0.976-2.118-0.43-2.312c0.536-1.035,0.02-2.451,1.07-3.226c-0.394-0.371-0.767-0.75-1.129-1.135
			c-0.119-0.54-0.216-1.072-0.323-1.606c-0.069,0.37-0.201,1.116-0.271,1.488c-0.437,0.503-0.86,1.003-1.276,1.509
			c0.322,0.063,0.967,0.189,1.293,0.257c-0.494,1.689-0.591,3.467-0.793,5.215c-0.843,0.039-1.67,0.095-2.5,0.156
			c-0.444,0.932-0.86,1.875-1.229,2.844c-2.031-0.002-4.084,0.106-6.1-0.211c-0.02-4.283,0.191-8.592-0.111-12.862
			c-0.234,4.284-0.063,8.579-0.082,12.87c-3.248,0.104-6.503,0.063-9.748,0.027c0.019-4.671-0.013-9.343,0.025-14.014
			c-0.139-0.011-0.425-0.034-0.571-0.05c0.027,4.53,0.059,9.065-0.023,13.603c-3.121-3.75-5.806-7.837-8.813-11.675
			c0.568-0.512,1.148-1.01,1.673-1.563c-0.398-0.504-0.857-0.953-1.282-1.414c-0.506,0.468-1.005,0.938-1.506,1.396
			c-0.43-0.488-0.862-0.979-1.287-1.464c0.646-0.512,1.279-1.032,1.931-1.542c-0.297-0.354-0.573-0.703-0.858-1.05
			c-0.241-0.028-0.726-0.084-0.964-0.112c-0.221,0.293-0.65,0.887-0.874,1.186c-0.58-0.616-1.156-1.239-1.733-1.858
			c0.577-0.478,1.36-0.801,1.696-1.531c-0.179-0.42-0.375-0.834-0.576-1.235c-0.197,0.035-0.583,0.104-0.773,0.136
			c-0.271,0.229-0.811,0.676-1.074,0.896c-1.041,0.313-0.695-1.092-1.025-1.625c0.494-0.484,0.98-0.979,1.462-1.479
			c-0.532-0.364-1.06-0.729-1.588-1.084c-0.437,0.459-0.874,0.92-1.306,1.389c-0.417-0.57-0.834-1.139-1.246-1.701
			c0.605-0.547,1.201-1.104,1.814-1.65c-0.486-0.443-0.975-0.875-1.458-1.316c-0.394,0.486-0.784,0.979-1.178,1.473
			c-0.86-0.77-1.626-1.648-2.354-2.539c0.507,0.127,1.005,0.248,1.519,0.385c0.342-0.475,0.684-0.949,1.031-1.42
			c-0.512-0.316-1.024-0.631-1.53-0.939c-0.477,0.467-0.944,0.943-1.413,1.414c-0.354-0.645-0.701-1.275-1.038-1.92
			c0.621-0.51,1.247-1.016,1.865-1.529c-0.588-0.354-1.127-0.848-1.816-0.957c-0.375,0.396-0.729,0.807-1.07,1.236
			c-0.315-0.369-0.625-0.76-0.931-1.113c-4.691-0.607-9.402-1.051-14.104-1.473c5.134,6.152,8.832,13.326,12.669,20.324
			c2.323,4.307,4.433,8.723,6.659,13.078c-1.767-0.006-3.526,0.014-5.282,0.014c-0.675-1.314-1.353-2.633-1.949-3.98
			c-0.614,0.143-1.234,0.229-1.781,0.543c-0.005,1.021,0.8,1.783,1.254,2.635c-3.422,0.502-6.896-0.037-10.321,0.354
			c-1.918,0.617-3.798,1.434-5.866,1.094c-0.236-0.244-0.698-0.727-0.929-0.969c-0.306-0.02-0.911-0.055-1.216-0.072
			c0.004-0.254,0.004-0.762,0.013-1.016c-1.806-0.008-3.613-0.008-5.418,0.039c0,0.395-0.007,1.188-0.007,1.584
			c-0.634-0.027-1.267-0.063-1.895-0.09c-0.548-0.578-1.107-1.146-1.673-1.715c0.069-2.404-0.417-4.906,0.4-7.229
			c-0.283-0.424-0.557-0.842-0.836-1.26c0.02,2.695,0.036,5.391,0.069,8.086c-1.078,1.463-1.939,3.111-3.262,4.373
			c-1.641,0.354-3.159-0.988-4.807-0.914c-0.784,0.377-1.477,0.896-2.19,1.375c-2.209-0.516-4.44-0.947-6.594-1.643
			c0.549-1.375,1.264-2.678,1.819-4.045c-0.506-0.306-1.01-0.602-1.514-0.906c-0.829,1.371-1.566,2.787-2.269,4.229
			c-2.011,1.364-3.816,3.02-5.866,4.313c3.848-10.229,9.211-19.806,14.853-29.138c1.443-2.135,2.462-4.604,4.345-6.408
			c-5.318-0.924-10.624-1.952-15.984-2.582c-1.083,1.552-2.212,3.066-3.3,4.611c-0.508-0.381-1.016-0.772-1.517-1.162
			c-0.457,0.414-0.901,0.828-1.35,1.244c0.495,0.43,0.981,0.854,1.482,1.297c0.213-0.166,0.645-0.504,0.854-0.672
			c-0.608,0.871-1.221,1.739-1.823,2.604c-0.331-0.281-0.988-0.854-1.318-1.142c-0.556,0.375-1.052,0.832-1.559,1.263
			c0.701,0.479,1.396,0.956,2.104,1.437c-0.461,0.532-0.942,1.039-1.441,1.536c-0.968-0.549-2.028-0.993-2.915-0.034
			c0.343,0.457,0.685,0.916,1.026,1.377c0.354,0.026,1.055,0.092,1.41,0.127c-0.146,0.071-0.446,0.228-0.595,0.301
			c-0.33,0.556-0.645,1.121-1.015,1.65c-0.872-0.229-1.657-0.978-2.6-0.703c-0.498,1.205,0.474,1.885,1.276,2.549
			c-0.309,0.597-0.618,1.188-0.903,1.791c-1.524,2.233-3.106,4.41-4.354,6.813c-0.73-0.67-1.46-1.347-2.187-2.021
			c-0.327,0.459-0.635,0.934-0.926,1.42c0.477,0.643,1.028,1.211,1.559,1.805c0.409-0.201,0.822-0.396,1.234-0.59l-0.015,0.174
			c-1.921,2.619-3.354,5.547-5.104,8.279c-2.425-0.047-4.856-0.111-7.254-0.566c0.02-1.182,0.03-2.365,0.04-3.547
			c-1.341-0.055-2.682-0.059-4.022-0.016l0.185,0.742c-0.854-0.117-1.695-0.225-2.547-0.32c0,0.998,0.035,2-0.044,2.994
			c-0.368,0.666-0.952,1.178-1.438,1.758c-0.38,0.043-1.134,0.117-1.511,0.156c-0.04-1.549-0.04-3.102-0.027-4.65
			c-0.656,0-1.317-0.008-1.977-0.008c0.023,0.656,0.048,1.324,0.07,1.979c-0.715,0.052-1.426,0.116-2.13,0.183
			c-0.896,1.063-2.203,1.197-3.486,0.885c0.037-0.688,0.084-1.369,0.126-2.063c-1.708-0.447-2.758,0.859-3.887,1.881
			c-1.197,0.264-2.476,0.221-3.698,0.475c-0.528,1.379-2.021,0.994-3.188,1.061c-0.158,0.191-0.491,0.586-0.652,0.781
			c-0.591-0.068-1.18-0.146-1.766-0.215c-0.712-0.75-1.377-1.564-2.236-2.146c-0.736-0.109-1.478-0.072-2.22-0.08
			c0.02,0.404,0.053,1.209,0.07,1.613c-0.856,0-1.716,0.006-2.575,0.006c0,0.311-0.004,0.938-0.015,1.25
			c-1.653,0.127-2.716-1.148-3.652-2.307c-0.284-1.891-1.258-3.58-1.974-5.326c-1.352-2.832-4.404-4.322-7.425-4.57
			c-0.02-0.646-0.029-1.289-0.049-1.932c-0.661,0.301-1.321,0.604-1.978,0.91c-0.015-1.65-0.057-3.33,0.436-4.932
			c0.683-0.66,0.715-1.176-0.375-1.264c-0.067-0.807,0.007-1.637-0.218-2.421c-0.569-0.882-1.438-1.5-2.224-2.171
			c0.012-1.663-0.02-3.322-0.224-4.973c-0.646,0.287-1.527,0.453-1.839,1.172c-0.215,1.547-0.098,3.127-0.117,4.686
			c-1.112,0.846-2.055,1.92-2.462,3.279c-0.45,0.246-0.891,0.496-1.333,0.742c0.492,0.256,0.991,0.512,1.493,0.768
			c-0.017,1.604-0.017,3.197-0.061,4.805c-0.638,0.029-1.271,0.055-1.905,0.082c0,0.563-0.007,1.129-0.007,1.699
			c-2.471,0.219-5.018,1.115-6.615,3.104c-1.263,1.486-1.542,3.486-1.872,5.348c-1.565-0.021-3.135-0.018-4.7,0.016
			c-0.34-0.4-0.668-0.807-0.998-1.215c-0.049,0.324-0.143,0.967-0.188,1.289c-1.142-0.063-2.465-0.037-2.083-1.633
			c-0.548,0.344-1.083,0.688-1.619,1.043c-0.534,0.037-1.059,0.074-1.591,0.117c-0.188-0.295-0.561-0.887-0.75-1.184
			c-0.342,0.67-0.83,1.201-1.46,1.596c-0.122-0.891-0.215-1.771-0.288-2.662c-1.269-1.182-2.955-1.705-4.346-2.709
			c-0.023,0.281-0.08,0.85-0.104,1.129c-1.331,0.311-2.821,0.498-3.843,1.51c-0.659,0.613-0.527,1.584-0.621,2.4
			c-0.733,0.617-1.519,1.369-2.568,1.209c-0.497-0.445-0.943-0.939-1.416-1.402c0.005-0.295,0.02-0.863,0.023-1.152
			c-0.623-0.035-1.244-0.07-1.867-0.105c0.035-0.227,0.101-0.678,0.133-0.9c-0.64-0.314-1.27-0.641-1.896-0.965
			c-0.274,0.068-0.815,0.203-1.09,0.279c0.009,0.703,0.021,1.414,0.03,2.125c-0.693-0.008-1.383,0.033-2.066-0.084
			c-0.989-1.664,0.275-4.146-1.458-5.439c-1.165-0.559-2.57-0.291-3.826-0.252c-1.5,0-1.495,2-2.814,2.357
			c0.202,0.076,0.609,0.229,0.815,0.299c-0.014,0.508-0.04,1.516-0.054,2.021c-1.326,0.007-2.66,0-3.991-0.021
			c0.027-4.451-0.023-8.92,0.04-13.375c0.267,0.049,0.797,0.156,1.065,0.205c-1.204-1.438-2.748-2.486-4.468-3.205
			c-0.022-1.805,0.157-3.625-0.084-5.412c-0.524-0.795-1.247-1.43-1.896-2.109c0.004-1.344,0.029-2.678-0.045-4.016
			c-0.169,1.34-0.164,2.705-0.443,4.039c-0.477,0.73-1.153,1.305-1.652,2.025c-0.196,1.873-0.042,3.77-0.027,5.648
			c-1.2,0.898-2.493,1.682-3.901,2.199c0.229,0.117,0.688,0.35,0.918,0.467c0.171,4.572,0.028,9.156,0.052,13.732
			c-2.451,0.18-4.909,0.061-7.359,0c-0.006-0.393-0.015-1.184-0.02-1.578c-1.045,0.102-2.376,0.016-1.957,1.523
			c-5.682,0.137-11.369,0.055-17.056,0.047c0.012-8.373,0.104-16.754-0.049-25.123c-1.555-2.352-1.284-6.029-4.301-7.256
			c-0.313-3.789,0.907-8.109-1.522-11.408c-0.075-2.592-0.054-5.188-0.038-7.783c-0.145-0.203-0.445-0.605-0.595-0.809
			c0.141-2.508,0.096-5.021,0.122-7.529c-0.15-0.188-0.448-0.576-0.601-0.768c-0.01-7.107-0.352-14.197-0.375-21.311
			c0.04-3.334-0.646-6.846,0.976-9.938c-0.663-0.221-1.118-0.676-1.361-1.344c-0.506,1.094-0.658,2.236-0.129,3.354
			c-0.368,15.307-0.564,30.614-1,45.916c-0.976,0.887-1.842,1.973-1.957,3.332c-0.253,2.862,0.014,5.752-0.112,8.623
			c-1.39,0.771-2.647,1.883-3.159,3.43c-1.338,3.771,0.073,7.804-0.595,11.679c-0.309,0-0.928,0.01-1.237,0.024
			c0.015,3.762-0.01,7.533,0.02,11.297c-0.356,0.011-1.068,0.024-1.429,0.033c-0.008,3.114-0.013,6.241,0.009,9.354
			c0.025,0.172,0.089,0.34,0.089,0.516c0,0.168-0.063,0.338-0.086,0.506c0,0.01,0,0.02,0,0.033c-0.002,0-0.002,0-0.007,0
			c-0.817,5.4-13.791,9.867-31.132,11.119v2.035c67.502,0.008,135-0.012,202.498,0.008c2.779,0.168,5.557,0.211,8.33,0.002
			c4.275,0,8.555-0.063,12.826,0.045c2.76,0.281,5.529-0.078,8.297-0.055c14.089,0.01,28.176,0,42.271,0.002
			c1.974,0.021,3.985-0.182,5.926,0.334c2.917-0.832,5.944,0.057,8.906-0.287c4.104-0.029,8.22-0.225,12.31,0.174
			c0.975-0.068,1.957-0.23,2.937-0.021c2.428-0.313,4.875-0.188,7.313-0.197c14.903,0,29.802,0,44.705,0
			c7.377-0.104,14.778,0.27,22.141-0.313c16.81,0.127,33.613,0.246,50.435,0.332c0-1.064,0-2.123,0-3.188
			C564.784,316.38,556.595,310.087,556.595,302.753z"/>
		<path fill="#CCCCCC" d="M356.911,158.096c-1.775,0-3.394,0.669-4.621,1.766c-1.847-3.422-5.464-5.749-9.625-5.749
			c-2.286,0-4.406,0.706-6.163,1.907c-3.053-5.045-8.594-8.409-14.918-8.409c-5.635,0-10.643,2.67-13.825,6.821
			c-0.827-0.202-1.686-0.319-2.568-0.319c-6.035,0-10.933,4.895-10.933,10.932h69.606
			C363.865,161.208,360.754,158.096,356.911,158.096z"/>
		<path fill="#CCCCCC" d="M507.7,122.292c-1.953,0-3.729,0.742-5.074,1.944c-2.026-3.755-5.999-6.31-10.566-6.31
			c-2.51,0-4.836,0.772-6.766,2.092c-3.351-5.538-9.433-9.235-16.374-9.235c-6.184,0-11.68,2.939-15.179,7.489
			c-0.903-0.224-1.852-0.351-2.817-0.351c-6.629,0-11.997,5.372-11.997,11.997h76.401C515.327,125.71,511.913,122.292,507.7,122.292
			z"/>
		<path fill="#CCCCCC" d="M325.355,123.867c-2.438,0-4.65,0.923-6.338,2.427c-2.532-4.692-7.493-7.883-13.201-7.883
			c-3.137,0-6.045,0.962-8.448,2.613c-4.191-6.912-11.788-11.539-20.464-11.539c-7.726,0-14.593,3.668-18.963,9.354
			c-1.135-0.273-2.311-0.433-3.526-0.433c-8.278,0-14.991,6.713-14.991,14.987h95.467
			C334.891,128.133,330.621,123.867,325.355,123.867z"/>
		<path fill="#CCCCCC" d="M601.205,153.138c-1.647,0-3.139,0.622-4.274,1.639c-1.706-3.162-5.05-5.319-8.896-5.319
			c-2.112,0-4.074,0.65-5.697,1.763c-2.822-4.659-7.944-7.777-13.795-7.777c-5.207,0-9.836,2.472-12.782,6.309
			c-0.761-0.187-1.552-0.295-2.375-0.295c-5.578,0-10.104,4.527-10.104,10.108h64.354
			C607.629,156.018,604.75,153.138,601.205,153.138z"/>
		<path fill="#CCCCCC" d="M1023.396,164.276c1.772,0,3.392,0.67,4.619,1.765c1.851-3.421,5.463-5.748,9.627-5.748
			c2.285,0,4.405,0.706,6.162,1.907c3.051-5.046,8.592-8.409,14.916-8.409c5.635,0,10.646,2.67,13.827,6.821
			c0.826-0.202,1.683-0.319,2.563-0.319c6.041,0,10.935,4.895,10.935,10.931h-69.604
			C1016.441,167.389,1019.555,164.276,1023.396,164.276z"/>
		<path fill="#CCCCCC" d="M872.623,128.474c1.949,0,3.724,0.742,5.067,1.944c2.031-3.755,5.998-6.31,10.563-6.31
			c2.511,0,4.839,0.772,6.765,2.092c3.351-5.538,9.435-9.235,16.371-9.235c6.187,0,11.679,2.939,15.181,7.487
			c0.903-0.223,1.852-0.349,2.821-0.349c6.625,0,11.998,5.372,11.998,11.997h-76.401C864.99,131.89,868.408,128.474,872.623,128.474
			z"/>
		<path fill="#CCCCCC" d="M1054.945,130.047c2.438,0,4.649,0.925,6.34,2.429c2.531-4.693,7.494-7.884,13.199-7.884
			c3.137,0,6.045,0.962,8.45,2.614c4.188-6.914,11.782-11.539,20.457-11.539c7.729,0,14.595,3.668,18.964,9.354
			c1.133-0.274,2.309-0.435,3.523-0.435c8.275,0,14.986,6.714,14.986,14.989h-95.457
			C1045.414,134.316,1049.683,130.047,1054.945,130.047z"/>
		<path fill="#CCCCCC" d="M779.127,159.319c1.646,0,3.138,0.621,4.271,1.639c1.711-3.162,5.05-5.32,8.897-5.32
			c2.113,0,4.074,0.65,5.697,1.765c2.826-4.661,7.949-7.777,13.791-7.777c5.207,0,9.838,2.472,12.783,6.308
			c0.762-0.187,1.551-0.295,2.375-0.295c5.575,0,10.104,4.528,10.104,10.109h-64.348
			C772.697,162.199,775.576,159.319,779.127,159.319z"/>
		<g>
			<path fill="#283C8F" d="M1125.859,215.147c-0.002,0,4.418-0.289,4.721-0.196c0.459,0.141,0.433,1.075,0.785,1.373
				c0.414,0.35,1.305,0.461,1.771,0.788c1.461,1.021,3.883,3.451,4.329,4.722c0.617,1.767,0.832,4.867,0,6.487
				c0.14,0.488,0.832-0.43,1.183,0.984c0.549,2.241-1.063,4.377-1.771,5.903c-0.344,0.733-0.426,1.858-0.782,2.752
				c-0.396,0.963-1.072,1.841-1.185,2.358c-0.414,1.935,0.082,1.88-0.196,2.752c-0.479,1.509-3.111,3.813-4.521,3.937
				c-1.455,0.129-5.433-1.61-5.902-3.543c-0.192-0.801,0.289-1.894,0.195-2.756c-0.134-1.258-1.033-3.631-1.771-4.719
				c-0.338-0.496-1.063-0.613-1.379-0.984c-1.479-1.743-1.164-3.721-1.178-6.096c-0.007-1.205-0.886-2.218-0.787-3.347
				c0.056-0.642,0.765-0.905,0.981-1.771c0.203-0.787-0.237-1.627,0-2.16c0.381-0.854,1.563-0.946,2.358-2.358
				C1123.754,217.437,1123.303,215.535,1125.859,215.147z"/>
			<path fill="#283C8F" d="M1136.283,241.11c0.164-0.243,2.571,1.894,3.346,2.16c1.625,0.576,3.595,0.211,5.312,0.59
				c1.521,0.339,3.988,1.021,5.511,1.576c2.827,1.035,2.848,2.896,3.938,6.295c0.545,1.703,1.75,2.998,1.771,4.522
				c0.014,0.938-1.08,1.849-0.982,2.162c0.306,1.033,2.875,0.813,3.345,1.771c0.362,0.746-0.438,1.168-0.396,1.967
				c0.065,1.201,1.084,1.613,1.377,2.754c0.183,0.709,0.015,1.629,0.197,2.559c0.368,1.854,1.569,4.504,1.18,7.477
				c-0.187,1.412-0.785,3.594-1.375,4.916c-0.676,1.504-3.551,3.832-3.937,5.707c-0.354,1.744,0.199,4.346,0.394,6.293
				c0.144,1.441,0.326,3.221,0.59,4.916c0.229,1.461,1.162,3.172,0.984,4.33c-0.238,1.529-2.675,3.318-4.136,4.918
				c-0.823,0.9-1.414,2.482-2.553,2.557c-1.168,0.076-2.58-1.467-3.347-2.162c-0.912-0.832-0.049,0.982,0,1.967
				c0.142,2.887-0.302,7.74,0,10.426c0.114,1.059,0.672,2.145,0.782,3.148c0.578,5.17-1.077,9.463-0.782,14.555
				c0.045,0.775,0.476,1.533,0.588,2.359c0.49,3.611,0.697,8.008,0.394,12c-0.104,1.42-0.563,2.893-0.59,4.328
				c-0.022,1.697,0.512,3.398,0.59,4.723c0.067,1.115-0.422,2.428-0.394,3.541c0.033,1.396,0.687,2.836,0.787,4.328
				c0.108,1.604,0.067,3.313,0,4.918c-0.073,1.727,0.049,3.611-0.194,5.115c-0.147,0.894-1.088,1.672-0.789,3.736
				c0.127,0.866,1.054,1.752,1.377,2.949c0.578,2.104,1.052,7.035-0.194,7.867c-2.843,1.896-8.64-1.248-9.049-2.949
				c-0.187-0.746,0.166-1.684,0-2.164c-0.332-0.951-1.382-1.273-1.572-2.16c-0.112-0.513,0.424-1.668,0.396-1.963
				c-0.053-0.508-0.676-0.777-0.985-1.574c-0.396-1.021-0.386-2.521-0.785-3.351c-0.858-1.771-2.166-3.276-2.56-4.916
				c-1.004-4.194,0.289-11.263,0.194-16.522c-0.024-1.57-0.623-3.283-0.782-4.916c-0.569-5.723-0.656-12.367-1.377-17.705
				c-0.627-4.652-1.326-7.438-1.965-11.805c-0.201-1.369-0.291-2.291-0.593-0.396c-1.092,6.873-3.478,14.443-3.934,22.621
				c-0.212,3.779-1.279,7.359-1.771,10.82c-0.983,6.967,0.074,13.924-0.983,19.475c-0.219,1.158-0.653,3.195-1.178,4.918
				c-0.146,0.475-0.72,0.838-0.789,1.182c-0.138,0.67,0.485,1.443,0.196,2.559c-0.146,0.566-1.01,0.844-1.375,1.77
				c-0.391,0.998-0.02,2.578-0.391,3.541c-0.552,1.41-3.088,3.393-4.918,3.738c-3.138,0.597-5.738-0.145-6.104-1.771
				c-0.453-2.058,2.094-3.847,2.56-6.097c0.135-0.66-0.147-1.646,0-2.556c0.096-0.586,0.812-1.508,0.786-1.771
				c-0.041-0.517-1.049-1.274-1.184-1.771c-0.713-2.647-0.644-5.817-0.787-9.049c-0.229-5.297,0.349-10.066,0.983-15.348
				c0.39-3.199,1.548-6.294,1.771-9.643c0.209-3.051-0.142-6.293,0-9.438c0.151-3.522,0.906-6.981,0.787-10.229
				c-0.119-3.158-0.621-7.255-0.787-11.021c-0.053-1.103,0.281-2.459,0-3.543c-0.25-0.959-2.211-3.484-2.756-4.133
				c-0.438-0.523-2.029-1.216-2.16-1.57c-0.437-1.166,1.09-3.617,1.375-4.918c0.449-2.05,0.481-3.918,0.785-5.511
				c0.725-3.778,2.073-7.258,2.36-10.229c0.104-1.096-0.096-2.57,0-4.133c0.146-2.313,1.265-5.525,0.59-6.49
				c-0.252-0.358-1.623,1.48-2.163,1.771c-0.4,0.215-0.681-0.16-1.179,0c-1.407,0.449-1.653,1.738-3.344,1.572
				c-2.955-0.293-6.377-7.273-7.869-10.232c-0.791-1.563-1.813-2.619-2.358-3.541c-0.775-1.305-1.388-2.664-1.183-4.328
				c0.416-3.314,1.147,2.311,1.967,2.561c0.771,0.229,4.369-3.732,4.527-4.33c0.168-0.663-0.146-2.025-0.199-1.967
				c0.922-1.01,1.515,1.752,1.771,2.357c0.752,1.773,2.293,4.977,3.545,4.529c0.486-0.18-0.207-0.924,0-1.379
				c0.338-0.754,1.896-0.832,2.16-1.771c0.248-0.863-0.322-1.832-0.396-2.945c-0.086-1.408,0.668-3.91,0.787-5.703
				c0.041-0.564-0.345-1.645-0.197-1.967c0.853-1.908,5.298-1.797,7.673-2.758c1.418-0.57,1.352-1.838,3.151-1.568
				c1.64,0.232,1.418-0.782,2.748-1.771c1.604-1.189,0.178,0.848,0.196,1.573c0.066,2.302,1.816,2.243,2.558,3.933
				c0.619,1.41,0.843,3.865,1.379,5.899c0.035,0.142,1.255,5.55,1.57,5.511c0.651-0.076,0.416-3.125,0.59-4.33
				c0.244-1.66,1.073-3.438,0.983-4.131c-0.125-0.968-1.938-1.398-0.787-2.557c0.839-0.844,1.334,1.363,2.164,0.984
				c0.515-0.238,0.146-1.521,0.593-1.576c0.353-0.041,1.231,0.676,1.18,1.576c-0.053,0.787-0.95,0.953-0.985,1.569
				c-0.065,1.224,1.729,4.079,1.967,5.313c-0.03-0.153,0.105,4.361,0.396,4.527c0.521,0.289,0.502-1.099,0.59-1.38
				c1.418-4.579,2.635-12.217,1.375-17.312C1136.269,241.451,1136.254,241.158,1136.283,241.11z"/>
			<path fill="#283C8F" d="M1093.598,249.376c0.981-0.064,2.229-0.184,3.146,0.395c0.894,0.549,3.726,3.482,3.739,3.734
				c0.093,1.48-2.62,2.521-4.721,1.969c-0.213-0.057-0.576-0.563-0.787-0.59c-0.604-0.084-2.276,0.246-3.346,0.195
				c-1.588-0.074-8.267-1.414-9.443-1.771c-1.73-0.522-1.803-2.078,0.984-2.358c1.104-0.111,2.787,0.729,3.344,0.396
				c0.222-0.134-0.903-1.259-0.396-1.771c0.65-0.646,1.959,0.131,2.951,0.194C1090.719,249.875,1092.109,249.472,1093.598,249.376z"
				/>
			<path fill="#283C8F" d="M1065.611,208.304c1.43-0.26,3.098-0.221,4.368,0.191c0.813,0.26,1.524,1.174,2.47,1.33
				c0.246,0.043,0.748-0.375,1.143-0.379c0.761-0.012,2.767,0.504,3.039,0.758c0.361,0.338,1.437,2.873,1.711,4.369
				c0.263,1.4-0.239,3.248-0.379,5.133c-0.096,1.281,0.353,2.648,0.188,3.418c-0.146,0.686-0.832,1.152-0.948,1.711
				c-0.232,1.068,0.125,2.377,0,3.041c-0.197,1.037-1.201,1.648-1.328,2.277c-0.203,1.008,0.375,1.768,0.188,2.279
				c-0.16,0.432-4.547,4.52-4.75,4.563c-0.729,0.152-3.394-1.072-4.183-1.521c-0.803-0.459-2.728-2.223-3.037-2.656
				c-0.174-0.25-0.127-0.955-0.383-1.332c-1.283-1.904-1.476-4.424-2.09-7.406c-0.22-1.078-1.063-2.699-1.14-3.613
				c-0.104-1.264,0.356-2.479,0.565-3.609c0.156-0.855,0.854-3.174,0.761-3.418c-0.123-0.316-1.277,0.375-1.521-0.762
				C1059.846,210.578,1063.756,208.644,1065.611,208.304z"/>
			<path fill="#283C8F" d="M1044.522,223.505c0.021,0,1.281-0.006,1.897,0.379c0.248,0.15,0.302,0.787,0.567,0.949
				c0.462,0.273,0.785,0.035,0.949,0.188c0.241,0.229,0.303,0.974,0.951,1.521c0.297,0.256,1.018,0.211,1.518,0.568
				c0.351,0.248,0.478,0.936,0.949,1.332c0.258,0.211,2.51,1.336,1.522,0.76c-0.846-0.492,1.33,0.75,1.326,0.756
				c-0.035,0.979-3.806-0.461-3.986-0.377c-0.631,0.271-0.655,1.963-0.76,2.09c-0.242,0.281-0.496-0.109-1.146,0.188
				c-0.89,0.408-1.621,2.084-1.899,3.229c-0.131,0.552,0.151,1.199-0.188,1.522c-0.563,0.539-3.17,0.478-3.61,0.38
				c-1.164-0.263-3.354-1.945-3.607-2.66c-0.407-1.154-0.079-5.297,0.188-6.459c0.06-0.254,0.875-0.554,0.566-1.328
				c-0.134-0.347-4.24-1.599-3.039-2.467c1.239-0.9,3.028,0.87,3.989,0.756c0.894-0.106,1.142-1.127,1.896-1.328
				C1043.014,223.397,1044.006,223.472,1044.522,223.505z"/>
			<path fill="#283C8F" d="M1062.385,232.242c1.381-0.668,0.631,0.875,0.756,2.09c0.363,3.387,2.916,11.004,4.181,14.44
				c0.709,1.916,0.412-0.336,0.571-1.711c0.255-2.213,0.74-5.097,1.521-6.647c-0.516-0.567-1.815-1.672-1.329-2.47
				c0.538-0.883,3.366-0.299,3.608,0.57c0.332,1.202-0.951,2.851-0.951,2.851c0.121,0.932,0.416,0.743,1.146,2.106
				c0.856,1.604,1.015,4.196,1.332,6.631c0.082,0.629-0.149,2.422,0.188,2.655c0.437,0.312,0.935-2.211,0.76-1.711
				c0.479-1.397,1.347-3.991,1.712-5.315c1.045-3.801,2.284-6.362,1.711-10.258c-0.25-1.697-1.209-4.563,0.944-1.711
				c0.729,0.948,0.756,1.407,1.146,1.711c0.941,0.733,2.683,0.95,3.799,1.709c2.154,1.45,4.873,3.313,7.22,4.94
				c1.073,0.742,2.453,1.349,3.041,1.897c0.265,0.25,0.058,0.717,0.381,1.142c0.365,0.479,1.289,0.851,1.712,1.33
				c0.487,0.563,1.086,1.354,1.141,1.711c0.107,0.75-0.5,0.948-0.567,1.896c-0.063,0.881,0.513,1.842,0.567,2.854
				c0.14,2.446-0.444,4.918-0.188,7.409c0.188,1.854,1.158,3.753,1.33,5.697c0.067,0.778-0.121,1.553,0,2.28
				c0.146,0.851,0.722,1.47,0.953,2.277c1.19,4.168-0.358,7.709-0.763,11.399c-0.323,2.944,1.033,4.903,1.14,7.221
				c0.052,1.005-0.375,2.285-0.375,3.611c-0.008,2.813,2.324,8.588,1.707,9.307c-0.271,0.32-3.737,0.263-4.56,0.382
				c-1.672,0.237-4.993,2.127-1.521,1.522c2.834-0.498,5.666-1.606,5.701,2.084c0.018,2.106-1.688,5.502-0.76,6.649
				c0.307,0.379,3.775-0.651,4.75-0.381c2.586,0.729,2.09,3.631,2.09,7.791c0,4.934,0.188,8.207,0.188,13.299
				c0,1.572,0.457,4.56,0,5.894c-0.563,1.649-4.95,3.771-6.649,4.748c-0.989,0.565-2.056,1.243-3.608,2.09
				c-2.592,1.412-4.604,0.83-3.61,5.509c0.674,3.149,1.838,4.438,2.095,8.932c0.295,5.188-0.537,10.226,0.377,14.816
				c0.12,0.616,1.1,1.848,1.141,2.471c0.056,0.776-0.641,1.238-0.567,1.522c0.127,0.496,1.125,0.728,1.329,1.519
				c0.173,0.66-0.19,1.502,0,2.281c0.576,2.305,3.634,3.666,3.041,5.887c-0.313,1.183-2.157,2.283-4.745,2.283
				c-0.988,0-4.41-0.218-5.319-0.761c-0.658-0.396-0.695-1.604-1.332-2.471c-0.771-1.052-2.011-1.177-2.281-2.281
				c-0.221-0.896,0.504-1.907,0.381-2.851c-0.188-1.475-2.383-3.262-2.848-5.133c-0.119-0.474,0.123-0.978,0-1.33
				c-0.365-1.039-1.595-1.769-1.712-2.655c-0.112-0.871,0.812-1.938,0.763-2.853c-0.088-1.519-1.461-2.354-2.093-3.229
				c-1.146-1.582-1.295-3.603-1.899-5.701c-0.336-1.168-1.147-2.129-1.332-3.229c-0.358-2.215,0.176-4.687,0-6.842
				c-0.476-5.979-1.678-11.457-2.656-16.722c-0.159-0.86-0.825-2.237-0.948-3.42c-0.248-2.313-0.2-5.82-0.379-8.166
				c-0.155-2.031,0.021-4.965-0.951-2.474c-1.983,5.132-2.584,10.896-4.181,16.343c-0.643,2.188-1.088,4.577-1.709,5.891
				c-0.328,0.685-1.237,1.459-1.332,1.896c-0.451,2.135,1.084,3.571,1.332,5.321c0.313,2.2-1.256,6.047-1.332,8.549
				c-0.096,3.211,1.063,6.132,0.759,8.742c-0.179,1.571-1.035,3.049-0.951,4.56c0.039,0.6,0.498,1.146,0.569,1.709
				c0.066,0.506-0.205,1.098-0.188,1.711c0.02,0.858,0.594,1.688,0.566,2.092c-0.057,0.939-1.104,1.599-1.52,2.851
				c-0.229,0.681,0.036,1.703-0.188,2.281c-0.193,0.479-0.854,0.631-0.951,0.95c-0.272,0.896,0.551,2.091-0.572,2.851
				c-0.762,0.519-1.696-0.138-2.653,0.188c-1.431,0.485-1.722,2.242-3.61,3.229c-3.806,1.992-11.692,1.613-8.933-2.467
				c0.554-0.816,1.233-0.716,1.901-1.332c0.482-0.449,1.775-2.063,1.896-2.47c0.201-0.649-0.147-1.146,0-1.521
				c0.511-1.252,1.931-1.905,2.091-3.043c0.077-0.532-0.64-1.229-0.759-2.272c-0.067-0.597,0.39-1.371,0.384-1.711
				c-0.027-0.849-0.847-1.785-0.951-2.854c-0.24-2.354,0.41-4.845,0.188-7.222c-0.252-2.772-0.199-6.713-0.38-10.643
				c-0.192-4.255-0.438-8.994,0.38-12.347c0.368-1.511,1.396-4.946,1.141-7.224c-0.065-0.621-0.646-1.397-0.758-2.276
				c-0.136-1.086,0.306-2.041,0.383-3.043c0.277-3.612-0.771-8.707-0.569-13.3c0.101-2.241,0.826-5.2,0.569-5.698
				c-0.211-0.401-1.021-0.226-1.711-0.565c-0.803-0.4-3.59-2.373-3.801-3.041c-0.41-1.289,0.491-4.438,0.76-6.269
				c0.356-2.481,0.576-4.812,0.567-7.226c-0.021-5.737,1.937-12.213,2.091-16.526c0.082-2.306-0.38-5.921-0.38-9.313
				c0-1.646,0.435-4.502,0.188-4.746c-0.193-0.201-4.533,1.435-5.132,1.705c-1.724,0.803-3.364,2.155-4.366,2.471
				c-3.649,1.146-4.478,0.146-6.271-1.896c-0.476-0.541-1.89-1.478-2.091-2.853c-0.219-1.479,1.15-4.172,1.328-6.842
				c0.111-1.608-0.071-3.25,0-4.75c0.172-3.381,1.381-5.987,1.713-8.17c0.189-1.272,0.275-2.967,0.189-3.604
				c-0.226-1.664-0.99-1.295,0.188-3.231c-0.012,0.022,0.515-1.39,0.951-1.332c0.496,0.065,0.379,1.256,0.57,1.521
				c0.305,0.428,3.002,1.854,4.176,2.09c0.383,0.076,5.354-0.545,5.315-0.567c-0.233-0.185-0.329,2.875-0.373,3.039
				c-0.399,1.426-0.961,2.221-1.334,3.991c-0.309,1.488-0.575,3.31,0.568,1.705c1.153-1.592,2.25-3.769,3.045-5.696
				c0.344-0.834,0.303-1.937,0.756-2.277c0.677-0.506,2.052,0.07,3.045-0.379c0.345-0.157,0.677-1.147,1.521-1.711
				c2.365-1.58,6.548-1.065,7.22-3.987C1062.252,232.367,1062.178,232.343,1062.385,232.242z M1092.402,312.039
				c0.564,0.358,0.715-2.383,0-1.519C1092.117,310.869,1091.813,311.671,1092.402,312.039z M1094.875,314.699
				c0.812,0.813,3.338-1.996,1.328-1.712C1096.256,312.978,1094.297,314.125,1094.875,314.699z"/>
			<path fill="#283C8F" d="M1018.68,214c0.396-0.072,2.291,0.033,2.849,0.381c0.383,0.24,0.334,0.869,0.76,0.949
				c0.988,0.185,1.736-0.433,2.277-0.377c0.926,0.086,1.43,0.463,1.901,0.95c0.127,0.13,0.515,1.32,0.948,1.521
				c0.526,0.24,1.675-0.412,2.474-0.188c1.815,0.509,2.334,3.246,3.039,5.701c0.944,3.276,2.387,6.603,1.521,11.207
				c-0.11,0.594-0.529,1.192-0.567,1.709c-0.041,0.506,0.334,0.976,0.188,1.332c-0.386,0.969-0.546-0.146-1.142,0.758
				c-0.207,0.313-0.062,1.404-0.188,1.521c-0.896,0.811-3.769,0.523-4.938,1.143c-1.269,0.666-1.992,3.422-3.422,4.748
				c-0.779,0.729-3.347,2.238-3.988,1.898c-0.506-0.266-0.942-3.354-0.951-4.939c-0.008-1.221,0.541-2.119,0.188-2.85
				c-0.17-0.357-1.269-0.385-1.521-0.568c-0.146-0.104-0.282-0.748-0.76-1.33c-0.988-1.207-2.535-1.904-3.229-3.041
				c-0.688-1.125-1.062-2.914-1.709-4.369c-1.271-2.844-2.894-5.863-0.572-9.119c0.265-0.365,0.929-0.342,1.332-0.76
				C1014.838,218.541,1015.521,214.585,1018.68,214z"/>
			<path fill="#283C8F" d="M1033.496,239.835c0.635-0.238,2.058,2.01,3.043,2.471c0.447,0.211,1.101,0.047,1.519,0.191
				c2.34,0.813,5.557,3.6,4.942,7.598c-0.078,0.51-0.637,0.859-0.762,1.332c-0.517,1.953,0.182,4.127,0,5.891
				c-0.207,2.039-1.175,5.363-2.279,7.029c-0.351,0.527-1.203,1.127-1.521,1.9c-0.617,1.52-0.33,3.492-0.947,5.131
				c-0.276,0.727-0.938,1.438-1.334,2.09c-0.649,1.094-1.534,2.25-1.521,3.609c0.032,2.428,1.676,7.648,2.473,10.258
				c0.236,0.777,0.894,1.457,0.949,2.279c0.067,1.014-0.442,1.482-0.377,2.088c0.176,1.688,2.256,3.77,1.897,5.891
				c-0.347,2.039-2.367,1.266-2.853,2.092c-0.248,0.424,0.059,2.188,0,3.041c-0.424,5.9-2.441,12.656-3.99,18.045
				c-1.041,3.623-2.854,7.189-2.278,11.977c0.153,1.271,0.759,2.396,0.567,3.605c-0.121,0.775-1.209,1.617-1.33,2.277
				c-0.164,0.904,0.436,2.156,0.379,3.041c-0.064,1.188-0.354,1.652-0.188,3.041c0.541,4.551-0.41,10.625,0,16.342
				c0.162,2.281,0.75,6.346,1.521,8.549c0.633,1.813,1.793,3.041,1.707,4.182c-0.065,0.922-1.029,1.391-1.14,2.469
				c-0.156,1.553,1.56,3.137,1.521,4.748c0.006-0.254-0.679,1.678-0.567,1.521c-0.338,0.5-1.033,0.646-1.142,0.949
				c-0.313,0.881,0.377,4.012-0.19,5.135c-0.688,1.352-2.25,0.555-2.658,0.945c-0.334,0.324-0.252,1.613-0.381,1.904
				c-0.463,1.049-2.502,3.197-3.609,3.795c-0.928,0.506-8.866,2.398-9.309,0c-0.207-1.119,3.358-2.566,2.66-3.605
				c-0.275-0.402-10.595,1.795-9.123-1.521c0.416-0.936,3.354-0.781,4.75-1.711c1.442-0.955,5.672-4.418,2.852-6.271
				c-0.485-0.314-1.186-0.305-1.334-0.756c-0.172-0.533,0.604-1.746,0.761-3.045c0.159-1.336-0.3-2.971,0-3.422
				c-0.175,0.266,1.019-0.219,0.95,0c0.777-2.615-0.563-6.521-0.571-9.877c0-1.023,0.25-1.947,0.188-2.852
				c-0.375-5.537-3.021-11.316-3.801-17.668c-0.75-6.111-2.406-11.893-3.42-17.857c-0.226-1.313-0.326-3.049-0.568-5.131
				c-0.322-2.773-1.873-5.838-2.852-8.738c-1.048-3.121-1.892-6.305-2.091-9.5c-0.06-0.951,0.177-2.148,0-2.473
				c-0.237-0.438-1.403-0.156-1.709-0.758c-0.487-0.965,0.992-3.32,1.328-4.939c0.431-2.051-0.185-4.07,0-6.646
				c0.271-3.771,2.222-7.655,1.709-9.689c-0.528-2.119-4.446-3.471-6.078-5.132c-0.896-0.915-1.806-2.683-1.711-4.368
				c0.054-0.852,0.771-1.604,0.765-1.709c-0.056-0.55-1.006-0.523-1.144-0.951c-0.147-0.449,0.772-1.105,0.758-2.09
				c-0.017-0.951-0.61-0.886-0.565-1.521c0.022-0.396,0.33-0.348,0.565-0.951c0.074-0.188-0.099-0.982,0-1.141
				c0.112-0.184,1.197-0.592,1.33-0.949c0.104-0.275-0.56-0.76-0.379-1.334c0.104-0.33,0.946-1.141,0.946-1.141
				c0.789-0.256,1.354,0.492,1.711,0.191c0.396-0.34,0.082-1.068,0.382-2.092c-0.065,0.23,1.264-3.58,1.897-3.992
				c0.28-0.18,0.873,0.346,1.521,0.191c1.897-0.447,2.092-5.807,4.368-6.271c0.574-0.117,1.054,0.643,1.334,0.565
				c0.451-0.106,1.271-1.156,1.521-1.519c-0.021,0.026,0.527-1.683,0.949-1.897c0.832-0.429,2.283,0.392,3.612-0.38
				c-0.12,0.07,0.897-1.375,1.328-0.95c0.272,0.274-0.362,2.082-0.379,2.474c-0.052,1.243,0.586,3.391,0.758,5.696
				c0.099,1.265-0.805,3.283,0.951,1.899c1.459-1.151,4.896-3.411,6.08-4.562c0.784-0.764,1.971-2.717,2.655-3.229
				c1.138-0.844,3.791-1.403,4.562-2.662C1033.365,240.571,1033.113,239.985,1033.496,239.835z"/>
			<path fill="#283C8F" d="M981.433,214c0.756-0.149,6.481-0.422,7.407,0c1.15,0.522,2.923,4.08,1.902,6.459
				c1.725-0.06,2.131,1.748,2.09,3.99c-0.021,0.852-0.717,3.045-1.562,2.409c-0.438-0.332,0.151,1.187,0.041,1.771
				c-0.237,1.25,0.332,2.052,0,3.229c-0.619,2.207-4.008,3.554-6.459,4.558c-1.795,0.735-4.244,2.094-6.08,0.19
				c-0.601-0.623-0.741-2.823-1.327-4.183c-0.615-1.413-1.232-2.633-1.345-3.881c-0.104-1.207,0.183-2.522,0.201-4.097
				c0.038-2.79-0.611-5.077,0-6.844C977.027,215.517,979.248,214.437,981.433,214z"/>
			<path fill="#283C8F" d="M992.642,232.615c0.67-0.104-0.095,0.079,0.377,0.764c0.468,0.668,2.897,1.781,3.423,2.274
				c0.916,0.875,2.094,2.638,3.418,4.181c1.075,1.254,3.155,2.66,3.426,3.992c0.076,0.405-0.353,0.674-0.383,1.143
				c-0.068,1.063,0.479,2.248,0.567,3.421c0.397,5.178,0.364,8.961-0.377,13.485c-0.433,2.603-0.423,5.308-1.334,7.603
				c-0.106,0.269-0.89,1.026-0.948,1.326c-0.188,0.944,0.622,3.084,0.76,5.135c0.176,2.569-0.256,5.293-0.377,7.979
				c-0.316,6.926,0.711,13.324-1.523,17.854c-0.471,0.961-2.008,2.181-2.465,3.229c-0.035,0.072-0.199,0.416-0.19,0.377
				c-0.963,5.412-0.101,11.556-0.569,17.672c-0.365,4.748-0.593,10.773,0.381,13.107c0.353,0.848,1.604,1.252,1.899,2.28
				c0.651,2.287,0.155,6.849,0.567,10.64c0.188,1.711,0.734,3.295,0.566,5.512c-0.154,2.136-0.824,4.25-0.759,6.267
				c0.041,1.166,0.503,2.429,0.567,3.61c0.05,0.783-0.262,1.604-0.187,2.283c0.317,2.951,2.798,8.008,0,10.642
				c-0.104,0.096-1.004,0.897-0.952,0.756c-0.234,0.653,0.666,2.629,0.381,3.802c-0.34,1.387-2.656,1.969-3.606,3.229
				c-1.173,1.553-1.405,3.729-2.472,4.941c-1.842,2.094-4.694,3.523-9.119,2.656c-2.104-0.41-5.313-1.93-5.319-3.229
				c-0.009-0.963,1.979-1.896,2.655-2.658c0.832-0.936,1.643-2.57,2.854-4.182c0.45-0.6,2.848-3.344,2.276-4.559
				c-0.259-0.561-1.647-0.229-2.084-0.758c-1.173-1.428,0.129-9.498,0-12.162c-0.048-0.891-0.925-5.686-1.334-7.027
				c-0.483-1.594-1.196,1.979-1.144,3.418c0.03,0.758,0.396,1.662,0.571,2.283c0.185,0.646,0.819,1.496,0.757,1.896
				c-0.082,0.541-0.822,0.089-1.14,0.763c-0.442,0.929,0.854,1.679,0.188,2.851c-0.229,0.399-4.932,1.604-6.844,0.76
				c-0.666-0.295-0.447-1.303-1.14-1.521c-1.521-0.479-2.959,0.761-4.94,1.14c-4.392,0.84-8.563,0.896-11.969-0.951
				c-0.563-0.305-1.822-0.864-2.091-1.52c-0.271-0.654-0.228-2.646,0.565-3.039c0.69-0.345,3.619,0.825,5.135,0.379
				c1.225-0.363,2.584-1.236,4.182-2.09c0.928-0.496,2.493-0.808,2.85-1.33c0.25-0.365-0.348-1.729,0.383-2.283
				c0.295-0.226,1.451,0.207,1.519,0c0.396-1.229-1.056-0.813-1.33-1.705c-0.582-1.911,1.287-4.821,1.521-7.032
				c0.109-1.052-0.055-5.033-0.381-6.457c-0.354-1.576-1.326-3.039-1.711-4.75c-1.896-8.457-2.592-18.759-3.986-27.929
				c-0.26-1.7-0.614-3.627-1.143-5.323c-0.521-1.662-0.947-3.763-1.521-4.746c-0.633-1.086-1.709-1.004-2.09-2.09
				c-0.471-1.343-0.396-3.824-0.569-5.699c-0.034-0.396-0.015-5.252-0.188-5.513c-0.16-0.237-1.058,0.031-1.33,0
				c-1.156-0.131-3.557-0.987-4.178-0.948c-0.683,0.047-1.338,0.676-2.095,0.76c-0.489,0.056-0.899-0.338-1.519-0.379
				c-1.808-0.119-3.892,1.099-4.94-0.762c-0.19-0.345-0.091-1.115-0.377-1.519c-0.657-0.904-3.034-1.541-3.614-2.658
				c-0.197-0.394-0.127-1.36-0.188-1.901c-0.593-5-1.953-10.138-2.658-15.769c-0.229-1.828-1.013-4.838-0.569-5.513
				c0.516-0.78,21.85-3.036,21.85-3.036l0.261,2.123c0,0,2.606-3.138,2.969-3.837c0.185-0.354-0.073-0.885,0.189-1.521
				c0.633-1.53,3.188-2.813,4.75-4.745c1.172-1.453,2.108-3.834,3.229-4.558c0.938-0.613,2.401-0.817,3.61-1.521
				c1.397-0.82,3.465-1.377,4.369-2.474c0.008-0.008,0.53-1.399,0.379-1.328c0.521-0.248,0.558,0.736,1.328,0.38
				c1.604-0.738-0.666,1.854-0.38,1.52c-1.276,1.48-2.967,2.773-4.368,4.181c-1.959,1.966-4.328,3.47-5.892,5.322
				c-1.25,1.481-3.425,5.467-5.132,8.741c-1.766,3.394-3.678,7.306-3.797,10.063c0.146,2.49,1.328,9.688,1.328,9.688
				s2.254,0.787,2.662,0.382c0.198-0.201,0.088-1.052,1.28-1.752c-0.442-0.248-2.096,1.403-2.803,0.422
				c-0.711-0.979,3.592-3.44,6.457-3.229c1.354,0.102,1.926,1.328,3.041,1.328c0.442,0,0.289-1.033,1.33-0.758
				c0.78,0.205,0.422-1.215,0.569-2.85c0.479-5.361,1.979-12.127,4.181-16.723c0.586-1.23,1.834-2.264,2.276-3.42
				c0.59-1.543,0.289-1.721,1.334-2.85c1.647-1.795,2.83-4.35,4.745-7.227c1.464-2.193,2.521-4.611,3.606-6.27
				C990.432,234.694,992.183,232.688,992.642,232.615z M969.463,276.699c0.029-0.105-1.25-0.16-1.141-0.193
				C966.816,276.937,969.266,277.382,969.463,276.699z"/>
			<path fill="#283C8F" d="M981.053,238.128c0.582-0.42,3.228-0.164,2.09,0.949c-0.493,0.482-0.276,1.609-0.569,2.277
				c-0.258,0.596-1.121,0.889-1.709,1.713c-0.804,1.125-1.513,2.619-2.47,3.988c-2.637,3.768-4.153,8.68-5.508,13.867
				c-0.313,1.186-2.93,4.611-3.989,6.08c-0.351,0.475-1.054,1.705-1.334,1.711c-2.231,0.016-1.714-7.48-1.142-9.504
				c0.375-1.314,1.771-2.898,2.657-4.559c1.716-3.186,3.791-5.658,6.078-8.357c1.155-1.355,2.735-2.422,3.61-3.605
				c0.4-0.543,0.4-1.504,0.761-2.09c0.614-1.01,1.11-0.746,1.33-2.092C980.908,238.224,980.871,238.257,981.053,238.128z"/>
			<path fill="#283C8F" d="M915.121,202.869c2.094-0.15,4.063-0.318,5.318,0.381c0.284,0.156,0.502,0.869,0.948,1.33
				c1.058,1.082,3.015,3.494,3.229,5.51c0.118,1.095-0.606,2.533-0.761,3.99c-0.151,1.502,0.172,3.101,0,4.369
				c-0.344,2.582-2.229,4.686-2.469,6.649c-0.146,1.187,0.682,2.207,0.567,2.848c-0.187,1.068-3.653,3.716-5.129,3.802
				c-1.41,0.082-5.765-1.847-6.078-2.47c-0.455-0.899,0.748-2.487,0.381-4.18c-0.09-0.404-0.668-0.668-0.95-1.144
				c-0.541-0.897-0.562-2.328-0.949-2.854c-0.469-0.623-1.293-0.604-1.711-1.142c-1.326-1.688-0.427-3.418-0.567-5.508
				c-0.106-1.488-1.638-3.315-1.144-5.89c0.278-1.461,1.646-1.955,3.043-2.853c0.597-0.387,0.834-1.045,1.142-1.142
				c0.379-0.121,1.106,0.218,1.521,0c0.449-0.237,0.813-1.286,1.328-1.521C913.408,202.806,914.424,202.917,915.121,202.869z"/>
			<path fill="#283C8F" d="M922.81,228.89c0.019-0.021-0.237-1.279-0.112-1.156c2.26,2.285,4.731,4.146,6.67,5.729
				c3.024,2.471,7.353,4.826,8.551,9.313c0.521,1.941,0.341,4.254,0.759,6.459c0.758,3.969,1.291,7.975,2.471,11.777
				c0.856,2.771,2.17,5.365,2.472,8.932c0.248,2.938-0.422,6.455-0.567,9.688c-0.253,5.551-0.084,12.289,0,17.289
				c0.017,1.004,0.612,2.354,0,2.854c-0.649,0.523-3.457-0.486-5.513-0.191c-1.498,0.217-2.447,1.707-3.61,0.951
				c-0.794-0.516-0.483-1.814-0.565-3.799c-0.109-2.6,0.125-6.955-0.191-10.26c-0.28-2.949-1.362-5.908-1.141-7.789
				c0.129-1.082,0.959-1.896,0.946-2.66c-0.021-1.443-0.761-1.193-1.14-2.277c-0.057-0.16-0.506-2.555-0.569-3.041
				c-0.372-2.857-0.188,1.396-0.188,2.469c0,3.439,0.205,8.352,0,11.396c-0.26,3.896,0.193,9.822,0.379,14.061
				c0.058,1.266-0.221,2.82,0,3.803c0.345,1.523,1.841,1.434,2.093,3.229c0.102,0.721-0.521,1.531-0.763,2.283
				c-0.01,0.029-0.985,1.619-0.377,2.469c0.104,0.148,1.871-0.555,2.09-0.951c0.166-0.313-0.264-0.977-0.188-1.521
				c0.049-0.373,0.554-0.855,0.761-1.521c0.676-2.224,0.112-4.584,1.521-5.512c0.666-0.438,2.965-0.646,3.608-0.188
				c0.655,0.467,1.625,5.762,1.711,7.03c0.164,2.455-1.197,4.896-0.569,6.271c0.84,1.838,5.295,1.354,6.84,3.229
				c0.808,0.979,0.644,3.592,0.763,5.131c0.283,3.562,1.35,9.418-0.188,12.158c-0.24,0.424-1.377,0.976-1.522,1.328
				c-0.774,1.889,0.142,9.588-0.188,12.924c-0.188,1.89-0.938,3.549-3.229,3.42c-1.351-0.078-2.142-1.301-3.613-1.899
				c-0.825-0.338-4.67-1.407-4.557-1.521c-0.259,0.258,0.717,5.582,0.756,6.078c0.53,6.504,0.582,13.983,2.472,19.758
				c0.538,1.646,1.512,3.511,1.521,4.56c0.005,0.877-0.788,0.867-0.948,1.897c-0.422,2.722,2.578,6.927,4.18,8.358
				c1.16,1.046,2.486,1.076,2.853,1.897c1.498,3.38-3.338,4.123-6.647,3.611c-2.133-0.33-5.836-2.084-7.032-3.041
				c-0.65-0.521-2.072-3.722-2.851-4.181c-0.438-0.258-2.132-0.448-2.279-0.565c-0.728-0.569-1.202-2.494-1.331-3.612
				c-0.08-0.729,0.305-1.724,0-2.277c-0.304-0.562-2.275-0.688-2.658-1.521c-0.166-0.359-0.052-2.012-0.188-3.229
				c-0.424-3.729,0-9.521-0.19-13.488c-0.193-4.1-1.789-7.418-2.088-10.828c-0.341-3.902-0.236-6.771-1.328-9.879
				c-0.529-1.502-1.771-2.709-1.9-4.369c-0.141-1.795,0.556-1.969,0.57-3.043c0.021-1.732-0.717-2.975-0.953-4.746
				c-0.481-3.641-0.651-5.363-1.139-10.07c-0.229-2.229,0.071-2.359-0.38-3.801c-0.728-2.307-0.889,0.867-1.139,2.092
				c-1.037,4.979-2.771,14.684-3.423,20.143c-0.053,0.443,0.091,1.881,0,2.654c-0.227,1.865-1.7,3.449-1.713,3.986
				c-0.021,0.816,1.408,2.258,1.521,2.854c0.987,5.202-1.771,11.921-1.711,17.854c0.017,1.195,0.459,2.4,0.383,3.424
				c-0.155,2.016-1.745,4.688-1.713,7.602c0.017,1.471,0.841,3.793,0.569,4.941c-0.219,0.939-1.256,0.904-1.521,1.705
				c-0.341,1.031,0.561,2.545,0,3.801c-0.754,1.688-2.064,1.449-3.988,2.471c-2.217,1.18-1.959,3.674-3.799,5.512
				c-1.769,1.76-6.287,1.873-9.119,0.762c-1.153-0.455-3.471-1.287-2.853-3.229c0.646-2.033,1.948-2.386,3.229-3.992
				c0.65-0.813,1.381-2.377,2.088-3.61c0.732-1.265,2.058-2.748,2.093-3.416c0.047-0.938-0.942-1.565-1.142-2.662
				c-0.291-1.604-0.162-3.955,0-6.075c0.289-3.812,1.188-8.173,1.521-12.729c0.339-4.666-0.489-9.619-0.188-14.062
				c0.146-2.158,1.041-4.214,1.139-6.08c0.143-2.662-1.2-5.597-0.948-9.119c0.17-2.371,0.935-4.377,1.142-7.407
				c0.252-3.718,0.012-6.734,0.188-10.83c0.146-3.306,1.245-9.679,0.95-10.067c-0.4-0.531-2.508,0.014-3.043-0.763
				c-0.814-1.177,1.088-2.845,0.761-3.802c-0.244-0.696-1.509-0.047-2.093-1.14c-0.229-0.426,0.287-1.563,0.191-1.71
				c-0.33-0.507-1.634-0.533-1.9-0.951c-0.59-0.908-0.088-4.349-0.379-6.078c-0.182-1.071-1.229-2.351-1.711-3.799
				c-0.437-1.32-0.785-2.822-1.139-4.183c-0.753-2.854-1.904-6.078-1.902-8.929c0.002-1.678,0.568-2.665-0.188-4.18
				c-0.28-0.567-1.175-0.966-1.332-1.716c-0.353-1.692,1.673-3.729,1.897-5.51c0.092-0.694-0.299-1.498-0.188-2.467
				c0.244-2.087,2.617-5.746,3.612-9.119c0.896-3.033,1.1-4.912,2.277-7.224c0.36-0.709,0.697-1.774,0.951-2.09
				c1.172-1.447,2.643-1.478,3.985-2.276c2.981-1.775,5.347-4.556,8.931-6.464c0.381-0.2,3.053-1.891,2.688-1.375
				c-0.453,0.636-0.873,1.408-0.977,1.757c-0.863,2.935,3.477,7.913,4.942,11.021c0.022,0.051,1.261,3.418,1.332,3.418
				c0.289,0,0.952-2.807,0.944-3.418c-0.014-1.047-0.498-1.378-0.565-2.092c-0.063-0.654,0.412-1.365,0.383-2.088
				c-0.034-0.729-0.61-1.279-0.571-1.713c0.063-0.76,1.301-2.857,1.711-3.041c1.401-0.619,3.028,1.029,3.229,2.658
				c0.069,0.561-0.537,0.68-0.565,1.521c-0.024,0.609,0.606,1.229,0.565,1.712c-0.063,0.879-0.712,1.504-0.757,2.09
				c-0.024,0.269,0.027,2.662,0.565,3.041c0.599,0.418,3.105-4.567,3.419-5.513c1.021-3.036-0.693-4.862,0.17-7.976
				C923.068,229.751,922.771,228.942,922.81,228.89z M896.879,267.087c-1.186,1.152-0.521,0.764,0,2.469
				c0.216,0.695,1.502,6.104,1.9,5.699c1.33-1.332-1.279-8.951-1.142-8.93C897.104,266.231,897.203,266.769,896.879,267.087z
				 M938.484,309.642c0.873-0.334-0.336-1.924-0.566-1.896C936.385,307.906,937.851,309.89,938.484,309.642z"/>
			<path fill="#283C8F" d="M859.068,213c0.016,0,0.211-0.209,0.377-0.188c0.827,0.101,3.002,2.502,3.803,3.418
				c0.654,0.758,1.017,1.664,1.707,2.28c1.543,1.369,2.896,1.814,3.039,4.181c0.021,0.229-1.119,4.379-2.275,6.078
				c0.181-0.394,0.238-0.74,0.38-1.521c0.129-0.709-0.479-0.945-0.543-0.492c-0.065,0.451-0.011,0.556-0.406,1.254
				c-0.578,2.591-1.056,4.994-2.092,7.029c-0.313,0.606-0.856,2.297-1.142,2.655c-0.467,0.601-1.082,0.229-1.328,0.763
				c-0.252,0.541,0.199,1.106,0.188,1.328c-0.06,0.914-1.272,4.344-1.332,4.368c-0.756,0.363-4.437-2.918-5.51-4.178
				c-0.183-0.22-0.519-0.998-0.951-1.521c-0.623-0.752-1.659-0.98-0.76-1.713c1.062-0.85-0.388,0.035-1.33-0.566
				c-0.729-0.469-1.05-1.416-0.949-2.66c0.029-0.344,0.451-0.93,0.382-1.33c-0.14-0.766-0.978-1.074-1.334-1.707
				c-0.468-0.834-0.979-2.387-0.949-3.611c0.002-0.201,0.427-1.02,0.381-1.328c-0.178-1.234-1.104-1.854-0.95-3.23
				c0.108-0.994,0.974-2.512,1.521-3.611c0.461-0.92,1.103-2.674,1.711-3.229c0.59-0.535,2.783-1.121,3.99-1.52
				C856.1,213.483,857.457,212.955,859.068,213z"/>
			<path fill="#283C8F" d="M850.326,238.039c0.448,0.063-0.342,0.278,0,1.103c0.621,1.51,3.563,2.558,4.94,3.879
				c1.267,1.213,2.063,3.073,3.039,4.174c0.614,0.693,1.739,1.947,2.661,2.854c1.285,1.265,0.847,0.31,0.947-2.09
				c0.045-0.976,1.209-6.181,0.045-8.815c2.205,0.553,4.104,3.084,5.274,3.687c1.572,0.81,3.228,0.868,4.748,1.142
				c0.425,0.075,1.377-0.07,1.521,0c0.293,0.149,1.935,2.334,2.281,3.041c0.655,1.334,0.787,2.948,1.521,4.368
				c1.887,3.668,5.702,8.349,6.459,11.972c0.153,0.741,0.405,0.974,0.381,1.142c-0.129,0.819-0.651,0.11-0.951,0.95
				c-0.215,0.589,0.144,1.279,0,1.521c-0.183,0.306-0.901,0.662-1.331,1.146c-0.949,1.06-1.919,2.19-3.421,2.851
				c-0.563,0.248-2.765,0.271-3.041,0.567c-0.556,0.595,0.472,4.945,0.759,6.461c0.453,2.38,1.379,4.547,1.328,6.271
				c-0.035,1.396-0.938,3.459-0.563,5.317c0.37,1.89,1.657,3.703,1.896,6.269c0.082,0.899-0.209,1.938-0.188,2.853
				c0.056,2.628,0.591,5.263,0.759,7.978c0.42,6.783-0.957,13.345,0,19.382c0.11,0.725,1.067,2.782,0.95,3.038
				c-0.207,0.437-1.598,0-1.899,0.386c-0.229,0.278-0.481,3.996-0.569,5.885c-0.111,2.459,0.682,4.875,0.764,6.271
				c0.043,0.744-0.37,1.462-0.385,2.279c-0.031,2.578,0.224,5.979,0.385,9.498c0.3,6.618,0.472,13.351,1.33,19.188
				c0.193,1.334-0.147,2.604,0.188,3.608c0.197,0.59,0.843,0.823,1.144,1.521c0.215,0.504,0.035,1.369,0.188,1.899
				c0.375,1.289,1.972,4.554,2.66,5.892c0.474,0.926,2.069,1.826,2.278,2.66c0.746,2.979-1.769,2.76-4.18,2.469
				c-4.394-0.532-5.017-1.479-6.843-4.181c-1.054-1.56-1.297-1.034-1.37,0.75c-0.029,0.623-1.41,0.736-1.402-0.047
				c0.021-1.685-0.178-4.519-0.266-5.267c-0.177-1.514-0.229-4.187,0.189-6.08c0.414-1.879,1.218-3.352,1.14-4.938
				c-0.166-3.507-2.438-7.772-3.606-12.349c-1.453-5.677-2.764-11.591-2.283-18.81c0.068-1.021,0.48-2.188,0.381-3.233
				c-0.088-0.938-0.729-1.591-1.139-3.037c-0.072-0.265-0.252-3.312-0.381-3.422c-0.254-0.216-2.549-0.019-2.851,0.188
				c-1.032,0.707-1.293,4.877-1.521,6.461c-1.019,7.101-1.328,12.933-1.328,21.657c0,2.953-0.37,6.3,0,8.355
				c0.367,2.053,1.484,3.274,1.896,4.745c0.839,2.981,0.446,7.509,1.33,10.644c0.403,1.435,1.552,3.771,0.95,5.132
				c-0.448,1.012-2.754,1.573-4.561,0.946c-0.81-0.271-3.728-3.42-4.183-4.367c-0.601-1.256-0.138-2.512-0.759-3.42
				c-0.334-0.481-0.646,0.058-0.95-0.567c-0.552-1.144-0.295-3.326-0.567-5.32c-0.113-0.815-0.535-1.538-0.568-2.092
				c-0.063-1.019,0.578-2.44,0.568-3.604c-0.014-1.791-0.979-4.666-1.142-7.412c-0.461-8.098-2.267-15.438-1.711-23.748
				c0.175-2.59,1.413-6.026,0.567-7.788c-0.358-0.755-1.047-0.154-1.709-0.565c-0.709-0.445-3.465-3.357-3.608-3.992
				c-0.448-1.949,0.819-5.896,0.948-8.742c0.199-4.379-0.004-7.805-0.188-11.396c-0.252-4.955,0.489-8.606,0.188-12.729
				c-0.303-4.183,0.186-8.409,1.143-11.776c0.48-1.709,2.041-4.571,1.898-5.321c-0.148-0.818-1.426-1.214-1.711-1.712
				c-0.129-0.225,0.125-1.161,0-1.519c-0.188-0.549-1.311-1.019-1.709-1.711c-0.408-0.717-0.297-1.905-0.758-3.043
				c-0.314-0.758-1.131-1.44-1.523-2.276c-0.814-1.75-1.377-4.42-2.275-6.646c-0.443-1.104-1.057-2.155-1.33-3.231
				c-0.943-3.703-0.563-4.853,0.76-8.549c0.484-1.355,1.322-3.773,2.09-4.182c0.75-0.396,0.834,0.47,1.521,0.38
				c0.221-0.026,1.623-0.94,1.896-1.33C848.08,240.642,848.266,237.744,850.326,238.039z"/>
			<path fill="#283C8F" d="M821.035,207.216c1.147-0.068,1.147,0.451,2.467,0.951c2.279,0.867,3.736,0.031,4.562,1.521
				c0.037,0.067-0.051,0.817,0.188,1.144c1.086,1.44,1.478,0.924,2.279,3.229c0.28,0.814,0.899,2.527,0.756,3.801
				c-0.084,0.801-0.806,1.438-0.947,2.279c-0.104,0.633,0.224,1.357,0.189,2.09c-0.06,1.346-0.498,3.232-0.951,4.938
				c-0.494,1.881-0.635,3.82-1.14,4.748c-0.405,0.754-1.888,1.377-2.659,2.66c-0.486,0.807-0.449,1.842-0.949,2.471
				c-0.451,0.572-2.666,2.279-2.658,2.279c-1.067,0.113-2.43-2.035-3.229-2.658c-0.941-0.734-2.686-1.193-3.425-2.092
				c-1.304-1.578,0.481-5.359-0.565-7.602c-0.117-0.254-0.19-2.229-0.437-1.971c-0.479,0.523-1.019,0.16-1.202-0.154
				c-0.996-1.719-2-4.645-0.451-4.334c-0.504-0.91-0.441-1.719-0.424-2.553c0.014-0.729,0.614-1.826,0.355-2.479
				c-0.619-1.564,0.354-2.644,1.017-3.707C814.619,210.483,819.111,207.337,821.035,207.216z"/>
			<path fill="#283C8F" d="M813.68,233.813c-0.397,1.802,0.729,3.783,1.084,4.75c1.086,2.985,2.26,6.75,4.371,9.502
				c0.17,0.226,1.207,1.403,1.33,1.33c0.5-0.312,0.573-4.461,0.567-4.75c-0.017-0.746-0.183-2.569-0.19-2.658
				c-0.043-0.446-0.761-1.198-0.377-1.897c0.377-0.696,1.278,1.326,2.471,0.379c1.345-1.067,0.259,1.693,0.377,2.658
				c-0.014-0.106,1.818,6.297,1.707,6.271c0.205,0.052,1.093-3.037,1.146-3.42c0.283-2.24-0.252-4.683,0-6.078
				c0.252-1.426,1.767-3.522,1.164-5.563c1.119,0.849,2.203,1.506,3.774,2.336c3.029,1.597,7.923,1.858,10.449,3.802
				c0.815,0.629,2.313,1.979,2.653,3.034c0.231,0.703,0.052,1.718,0.188,2.099c0.388,0.998,1.701,2.035,3.043,3.416
				c1.063,1.097,2.25,2.56,3.039,3.229c1.149,0.98,2.746,0.787,1.899,3.045c-0.094,0.248-0.577,0.752-0.567,0.949
				c0.026,0.498,0.988,1.352,1.142,1.896c0.521,1.855,0.681,5.223,0,7.029c-0.388,1.031-1.537,2.252-2.278,3.607
				c-1.537,2.814-2.69,4.264-4.369,7.223c-0.644,1.135-1.563,3.406-2.09,3.607c-0.584,0.23-1.029-0.422-1.328-0.188
				c-0.586,0.449-0.957,1.6-0.949,1.898c0.027,1.074,1.113,1.285,1.14,2.273c0.021,0.799-0.683,0.887-0.951,1.902
				c-0.387,1.467,0.312,2.645,0,3.607c-0.137,0.422-0.973,0.713-1.144,1.145c-1.057,2.699,1.054,6.252,0.761,7.41
				c-0.209,0.838-1.321,1.234-2.47,1.896c-0.842,0.483-2.747,1.198-2.852,1.337c-0.923,1.23-0.746,7.279-0.949,9.688
				c-0.291,3.393-0.944,6.355-1.142,9.121c-0.112,1.563,0.224,3.117,0.188,4.75c-0.026,1.441-0.471,2.895-0.567,4.365
				c-0.153,2.25,0.146,4.525,0,6.844c-0.354,5.666-1.448,11.471-2.09,16.906c-0.69,5.877-2.619,11.535-2.472,16.342
				c0.054,1.627,1.623,4.885,1.144,6.27c-0.252,0.709-1.692,0.693-1.897,1.328c-0.567,1.752,2.104,2.338,1.521,4.371
				c-0.351,1.199-1.947,0.666-2.276,1.521c-0.646,1.644,3.258,3.726,3.987,4.178c1.953,1.218,4.713,2.044,4.562,3.613
				c-0.258,2.565-7.996,2.808-10.263,1.707c-0.985-0.478-1.782-1.449-2.657-2.089c-0.869-0.637-1.89-1.618-2.66-1.901
				c-0.453-0.164-0.951,0.304-1.521,0.19c-0.481-0.096-1.859-0.887-2.275-1.329c-1.387-1.474-0.215-3.326-0.569-5.697
				c-0.219-1.483-1.36-1.678-0.758-3.612c0.097-0.312,0.563-0.724,0.567-0.949c0.01-0.623-0.594-1.106-0.567-1.709
				c0.028-0.758,0.452-0.969,0.567-1.899c0.078-0.651-0.185-1.485-0.188-2.276c-0.021-1.979,0.664-4.121,0.761-5.513
				c0.241-3.502-0.832-7.019-0.57-10.444c0.162-2.113,1.215-4.021,1.521-6.082c0.248-1.654,0.021-3.252,0.188-4.748
				c0.283-2.537,1.677-5.47,1.9-8.358c0.122-1.654-0.408-5.158-0.57-7.787c-0.142-2.229-0.551-1.856-1.33,0.379
				c-0.688,1.976-0.131,0.658-0.758,2.47c-0.239,0.682-1.636,2.934-1.899,4.562c-0.611,3.726,0.379,6.383-0.188,9.118
				c-0.168,0.804-1.093,1.617-1.332,2.47c-0.498,1.791-0.313,5.032-0.565,7.981c-0.226,2.563-0.787,5.306-0.951,7.407
				c-0.205,2.671-0.535,7.246-0.188,9.308c0.129,0.75,0.95,1.406,1.146,2.281c0.297,1.394-0.42,2.821-0.381,4.56
				c0.016,0.698,0.658,1.586,0.569,2.09c-0.157,0.897-2.127,1.813-2.661,3.229c-0.688,1.813-0.361,3.685-0.951,4.938
				c-0.201,0.438-0.892,0.681-1.33,1.334c-1.16,1.728-0.851,3.656-2.472,4.748c-1.308,0.877-6.563,1.342-9.31,0.758
				c-4.756-1.006,1.925-7.116,2.854-10.067c0.172-0.543,0.381-1.655,0.566-2.472c0.186-0.778,0.584-2.266,0.568-2.469
				c-0.066-1.017-1.086-1.649-1.142-2.276c-0.052-0.63,0.505-1.468,0.569-1.902c0.363-2.334-0.596-4.889-0.381-7.978
				c0.095-1.313,0.486-2.646,0.565-3.991c0.197-3.088-0.407-6.194-0.565-9.69c-0.17-3.787-0.166-7.778,0-11.588
				c0.174-3.949,1.453-7.32,1.142-11.777c-0.302-4.278-0.713-8.848-1.142-12.541c-0.422-3.674-1.619-7.364-1.896-10.832
				c-0.121-1.448,0.396-4.247,0-4.747c-0.681-0.857-2.908,1.02-2.092-1.896c0.082-0.302,0.571-1.136,0.569-1.14
				c-0.151-0.461-1.188,0.019-1.713-0.767c-0.354-0.528,0.12-2.013,0.188-3.229c0.144-2.412-0.226-7.045-0.377-10.449
				c-0.063-1.373,0.233-3.021-0.189-3.607c0,0-1.286,0.018-1.331,0c-1.058-0.357-1.507-2.146-2.279-3.607
				c-0.741-1.398-1.75-2.893-2.469-3.992c-1.237-1.885-4.104-3.088-5.89-4.938c-0.43-0.439-0.569-1.131-0.948-1.521
				c-0.558-0.563-1.462-0.746-1.901-1.328c-0.453-0.607-0.742-2.217-1.328-3.42c-0.416-0.853-1.103-1.6-1.142-1.896
				c-0.22-1.697,1.625-3.135,2.849-5.512c0.44-0.854,0.489-1.768,1.145-2.477c0.722-0.777,2.378-0.968,3.039-1.705
				c0.892-0.982,0.99-3.109,1.9-3.992c0.266-0.256,2.735-1.91,3.229-2.09c0.272-0.101,1.34,0.078,1.709-0.188
				c0.377-0.271,0.088-0.998,0.379-1.141c1.315-0.641,2.237-0.057,3.043-0.762c0.521-0.457,0.584-1.422,1.14-2.088
				c0.862-1.041,3.305-3.078,5.319-3.421c1.97-0.334,4.054,0.179,5.89-0.19c2.047-0.414,4.771-1.703,5.896-2.656
				C812.601,234.856,813.242,233.974,813.68,233.813z M840.791,262.694c0.062,0.021,0.791-0.745,0.951-1.521
				c0.287-1.356-1.554-2.897-1.709-2.659C839.715,259.013,840.744,262.681,840.791,262.694z M791.967,262.126
				c-1.052,1.127,3.092,4.199,3.229,3.99c0.481-0.729-1.191-4.842-1.328-4.939c0.016,0.01-0.017,0.184,0,0.188
				C793.644,261.326,792.086,261.992,791.967,262.126z"/>
			<path fill="#283C8F" d="M758.164,214.169c2.515-0.623,6.31,1.783,8.549,2.852c0.494,0.234,1.345,0.109,1.521,0.379
				c0.413,0.615-0.253,1.457,0,2.658c0.098,0.469,0.709,0.771,0.758,1.145c0.11,0.74-0.394,1.66-0.188,2.275
				c0.117,0.354,1.026,0.662,0.168,1.41c1.949,0.457,0.174,3.955-0.285,4.705c-0.459,0.742-1.313,0.318-1.211,0.156
				c-0.396,0.625-0.688,4.197-0.569,5.32c0.071,0.707,0.625,1.035,0.569,1.52c-0.09,0.756-1.239,2.207-2.094,3.041
				c-1.103,1.072-4.498,4.086-6.647,3.607c-0.447-0.1-2.259-1.771-2.47-2.656c-0.041-0.168,0.273-0.965,0.189-1.143
				c-0.369-0.729-0.531-0.061-1.145-0.758c-0.35-0.406-0.553-2.125-0.948-1.146c-0.024,0.06-0.95,0.807-0.95,0.762
				c-0.015,0.729,1.098,0.02,0.76,0.949c-0.526,1.447-3.806,2.303-5.51,1.143c-1.05-0.719-2.65-3.672-2.658-3.803
				c-0.045-0.898,1.676-2.051,2.278-4.18c0.188-0.676,0.015-1.617,0.188-2.469c0.177-0.854,0.752-1.662,0.756-2.094
				c0.023-1.541-0.625-1.072,0.384-2.469c0.334-0.461,1.401-0.949,2.438-0.375c0.387,0.215-0.217-1.008-0.285-1.322
				c-0.172-0.746-0.362-1.359-0.062-2.291c0.242-0.729,0.748-1.58,0.765-1.896c0.006-0.205-0.437-1.002-0.383-1.145
				c0.295-0.836,1.723-1.633,2.85-2.279C755.918,215.501,757.242,214.401,758.164,214.169z"/>
			<path fill="#283C8F" d="M768.045,235.261c1.06-0.434,3.55,1.496,3.8,2.277c0.223,0.709-0.5,1.439,0,2.092
				c0.331,0.434,1.76,0.445,2.088,0.566c1.608,0.631,3.104,1.826,5.133,3.041c1.248,0.75,4.58,1.953,5.13,2.85
				c0.159,0.262,0.411,1.885,0.569,2.473c1.147,4.283,2.002,7.297,3.799,11.021c0.656,1.359,0.978,3.088,1.711,4.18
				c0.442,0.662,0.927,0.619,1.33,1.141c0.916,1.184,1.515,3.156,2.089,4.563c3.262,7.963-3.468,14.877-6.457,20.709
				c-1.593,3.104-2.765,4.744-1.521,8.547c0.316,0.969,1.238,2.346,1.145,3.23c-0.168,1.551-2.986,3.865-4.371,4.367
				c-1.07,0.393-2.646,0.121-3.039,0.57c-0.156,0.178,0.024,1.066,0,1.896c-0.174,5.443-0.945,12.432-0.568,18.998
				c0.271,4.783,1.505,7.729,1.14,11.594c-0.034,0.369-0.058,0.963-0.188,1.328c-0.207,0.584-0.709,0.664-0.756,0.947
				c-0.414,2.377,0.821,5.488,0.946,7.789c0.033,0.528-0.188,1.098-0.188,1.711c0.006,4.43,1.556,9.494,1.334,14.441
				c-0.1,2.16,0.435,4.596,0,6.457c-0.213,0.919-1.396,1.633-1.521,2.281c-0.396,2.063,1.978,5.771,1.901,7.217
				c-0.049,0.852-1.155,1.605-1.334,2.66c-0.063,0.398,0.357,0.914,0.384,1.328c0.052,0.945-0.646,2.777-0.765,4.186
				c-0.045,0.549,0.275,1.41,0.188,1.706c-0.12,0.444-0.899,0.929-0.946,1.331c-0.082,0.723,0.471,1.469,0.379,2.092
				c-0.221,1.477-3.604,4.25-5.889,4.561c-4.189,0.568-6.351-1.654-5.892-6.271c0.284-2.896,2.084-4.291,1.521-7.602
				c-0.086-0.496-0.556-1.105-0.57-1.52c-0.102-2.334,1.291-3.865,1.146-5.893c-0.143-1.842-1.253-3.664-0.951-5.508
				c0.114-0.705,0.752-1.426,0.76-1.711c0.031-1.104-1.451-2.602-1.709-3.611c-0.373-1.441,0.138-3.537-0.188-5.131
				c-0.168-0.818-0.731-1.461-0.761-2.09c-0.034-0.867,0.677-1.85,0.761-3.041c0.063-0.926-0.315-2.119-0.379-3.229
				c-0.104-1.793,0.181-3.805,0-5.135c-0.373-2.713-1.67-5.076-2.278-7.217c-0.646-2.254-1.099-3.969-1.712-6.459
				c-0.563-2.281-0.567,2.271-0.567,3.42c0,0.813,0.42,3.01,0.379,3.799c-0.063,1.246-1.631,3.174-1.521,5.318
				c0.11,2.18,1.94,5.201,1.899,7.414c-0.058,2.945-3.14,5.238-3.039,6.646c0.06,0.888,1.599,1.15,1.707,2.472
				c0.104,1.237-1.431,1.644-1.897,3.608c-0.117,0.486,0.228,1.13,0.19,1.897c-0.029,0.606-0.649,1.589-0.57,1.902
				c0.212,0.84,1.468,1.172,1.709,1.709c0.209,0.465,0.402,2.192,0.384,2.276c-0.242,0.888-1.252,0.86-1.334,1.146
				c-0.367,1.209,1.323,4.054,0.381,5.508c-0.263,0.404-6.099,1.666-7.222,1.521c-1.002-0.131-1.536-0.938-1.899-0.946
				c-0.575-0.021-2.051,1.015-2.849,1.33c-2.68,1.063-5.223,1.563-9.122,1.142c-3.039-0.332-8.152-2.662-3.8-4.56
				c1.263-0.552,3.609-0.546,5.134-1.142c1.67-0.651,4.989-2.463,5.131-3.043c0.063-0.272-0.933-1.009-0.953-1.144
				c-0.092-0.688,0.543-0.897,0.953-1.33c1.032-1.078,0.875-0.688,1.521-2.276c0.266-0.653,0.453-1.021,0.58-1.321
				c0.481-1.148,0.254-1.238-0.312-2.179c-0.259-0.438-0.367-2.168-0.351-2.726c0.06-2.125,0.883-1.896,1.22-4.035
				c0.084-0.547-0.318-1.284-0.382-1.899c-0.104-1.035,0.103-2.287,0-3.608c-0.56-7.365-1.836-15.125-2.657-24.319
				c-0.313-3.474-1.222-6.832-1.521-10.259c-0.313-3.604-0.564-8.604-0.189-12.159c0.109-1.048,0.673-2.019,0.763-3.041
				c0.134-1.562-0.44-3.293-0.571-4.938c-0.279-3.479,0.629-7.033,0.948-9.88c0.099-0.848,0.146-1.821,0-2.469
				c-0.142-0.67-0.825-1.121-0.948-1.711c-0.488-2.396,1.358-4.535,1.521-6.08c0.118-1.16-0.82-3.334-0.949-4.75
				c-0.459-5.049,1.131-7.804-2.09-9.69c-1.005-0.58-2.845-1.229-4.181-1.705c-1.678-0.59-3.646-0.578-4.75-1.142
				c-1.364-0.694-3.392-2.991-3.422-4.94c-0.043-2.808,4.021-8.963,5.321-11.209c1.134-1.959,2.093-3.373,3.229-4.94
				c1.419-1.957,4.447-4.738,6.005-5.679c0.227,2.297,1.225,3.19,1.948,3.957c1.841,1.951,3.384,1.149,4.703,1.201
				c-0.112,0.808-0.147,1.637-0.115,1.659c0.654,0.438,3.984-2.694,4.365-2.282c0.194,0.211,0.244,3.455,0.192,4.367
				c-0.164,2.821-1.642,6.6-1.334,9.504c0.258,2.418,0.793-2.724,0.951-3.42c0.188-0.841,0.34-1.505,0.571-2.091
				c0.326-0.84,0.881-1.045,0.947-1.711c0.153-1.58-1.068-1.633,0.192-3.041c0.101-0.112,0.563-0.896,0.949-0.951
				c1.204-0.174,2.852,1.681,2.852,2.47c-0.004,0.94-0.858,0.629-1.143,1.522c-0.302,0.963,0.061,4.049,0,3.988
				c0.221,0.219,0.454-1.232,0.564-1.521c0.851-2.137,2.308-4.479,3.423-6.27c0.883-1.424,4.25-5.295,4.368-6.846
				C768.613,237.533,768.51,236.13,768.045,235.261z M779.438,275.162c0.021,0.317,1.194,4.698,1.522,4.746
				c-0.055-0.011,0.367-0.558,0.379-0.568c0.443-0.69,0.914-3.603,0.949-4.75c0.033-1.135-0.487-2.006-0.381-2.659
				c0.06-0.351,0.627-0.869,0.567-1.142c-0.088-0.427-1.729-2.039-1.897-1.897C780.18,269.209,779.4,274.261,779.438,275.162z"/>
			<path fill="#283C8F" d="M720.674,209.953c-1.937-0.418-4.906,0.012-6.451,1.104c-0.416,0.295-0.629,1.256-1.285,1.846
				c-0.85,0.75-2.245,1.035-2.946,1.843c-1.041,1.188-2.22,5.18-1.104,7.188c0.231,0.42,1.31,0.277,1.474,0.551
				c0.827,1.363-0.003,2.945-0.003,4.736c0,0.803,0.451,1.027,1.265,0.977c0.076,0.426-0.11,0.908-0.006,1.227
				c0.062,0.176,0.381,0.281,0.455,0.438c-0.132,0.27-0.039,0.471,0.049,0.662c-0.008-0.021,0.209,0.314,0.479,0.729
				c0.148,1.08,0.763,1.733,1.261,1.922c1.506,0.576,4.247-2.038,5.711-0.553c0.573,0.586-0.64,2.094-1.476,2.951
				c-0.31,0.311-1.604,0.969-1.656,1.104c-0.295,0.723,0.412,1.321,0.365,1.842c-0.063,0.729-1.922,3.644-2.764,3.871
				c-0.179,0.049-3.007-0.865-3.134-0.74c-0.606,0.611,2.252,1.886,2.213,1.849c0.271,0.278-1.09,0.229,0,0.733
				c0.955,0.44-1.604,3.332-2.579,4.789c-1.568,2.356-3.671,4.324-2.576,6.453c0.551,1.071-2.951-1.535-4.242-2.397
				c-1.854-1.242-3.278-1.947-4.237-2.767c-0.649-0.552-2.177-2.959-2.763-2.396c0,0,0.052,1.338-0.188,2.396
				c-0.235,1.063-1.312,2.937-2.024,3.5c0.047,0.556,1.351,1.457,1.844,2.03c1.55,1.783,3.166,3.072,5.16,4.604
				c1.287,0.992-1.235-0.407-2.215,0c-1.054,0.445-1.203,3.933-0.185,5.158c0.604,0.729,3.237,1.11,4.606,1.104
				c1.276-0.006,4.354,0.026,4.978,0.556c0.731,0.621,0.394,5.774,0,7.733c-0.351,1.748-1.42,3.511,0.185,4.606
				c0.313,0.217,1.852,0.39,1.842,0.369c0.375,0.59-1.254,5.067-1.291,5.713c-0.063,1.293,0.937,3.183,1.291,4.978
				c1.035,5.149,1.047,11.517,2.027,16.58c0.641,3.293,1.764,6.61,2.577,9.948c0.858,3.515,1.24,7.095,2.031,10.32
				c1.528,6.248,1.465,16.539,1.103,24.506c-0.146,3.222,0.188,7.017-0.365,9.397c-0.101,0.425-0.492,0.894-0.553,1.291
				c-0.351,2.228,0.271,4.039-0.365,5.711c-0.301,0.781-3.457,2.631-4.424,2.949c-0.879,0.291-2.338,0.129-2.58,0.551
				c-1.285,2.242,4.729,2.496,6.633,2.215c0.41-0.063,1.744-0.563,2.396-0.924c1.38-0.765-0.502,2.306-1.104,2.767
				c-1.146,0.86-3.141,0.463-3.5,1.104c-0.973,1.723,2.836,3.53,3.685,3.685c2.392,0.432,7.207-0.017,8.295-0.554
				c0.729-0.36,2.794-3.104,3.5-4.056c0.951-1.282,0.705,1.494,0.735,2.906c0.005,0.152,1.197,0.469,1.377,0.03
				c0.186-0.448,0.173-1.534,0.289-2.305c0.416-2.752,0.479-6.918,0.729-8c0.431-1.843,1.354-1.927,0-3.5
				c-0.891-1.045-1.284-0.56-0.185-1.659c1.146-1.145,0.646-3.771,0.738-5.896c0.226-5.069,1.938-10.254,1.655-16.584
				c-0.094-2.166,0.185-4.489,0-7.188c-0.155-2.396-0.762-4.687-1.286-7.002c-0.744-3.246-1.732-5.688-1.291-9.582
				c0.377-3.313,0.563-6.937,1.104-10.687c0.56-3.853,0.388-7.862,0.926-11.242c0.528-3.346,1.992-6.682,1.653-10.131
				c-0.316-3.285-4.252-7.228-5.342-11.426c-0.146-0.539-0.231-1.646-0.186-2.211c0.168-2.063,1.266-4.986,2.024-7.744
				c0.997-3.606,2.043-7.347,2.396-11.054c0.356-3.7,0.778-6.082,0.371-9.583c-0.341-2.865-0.186-3.165-1.479-5.156
				c-0.422-0.647-0.936-1.344-1.288-1.845c-0.728-1.03-2.57-2.629-2.763-3.501c-0.146-0.652,0.351-1.505,0.367-2.027
				c0.075-2.176-0.152-4.817-0.367-7.002c-0.119-1.199-0.453-2.766-0.924-3.867c-1.314-3.103-4.466-8.065-6.818-9.396
				C721.918,210.171,721.178,210.06,720.674,209.953z"/>
			<path fill="#283C8F" d="M690.455,244.962c-1.346-0.322-3.883,0.078-5.346,0.736c-0.367,0.168-2.048,0.836-1.658,1.477
				c1.678-0.074,3.465-1.217,4.604-0.369c0.188,0.139-0.472,3.229,0.369,3.869c0.801,0.613,2.649-0.07,3.866,0.736
				c0.483,0.322,0.375,1.18,1.104,1.289c1.254,0.195,3.55-3.834,2.396-5.709c-0.014-0.023-1.461-0.059-1.842-0.188
				C692.361,246.274,691.301,245.169,690.455,244.962z"/>
			<path fill="#283C8F" d="M680.133,245.511c-0.815-0.332-3.535-0.352-3.867,0.371c-0.469,1.018,10.965,10.26,11.608,11.607
				c0.185,0.383-0.243,1.016-0.187,1.293c0.043,0.199,0.574,0.34,0.738,0.736c0.272,0.657-0.033,1.186,0.187,1.471
				c0.075,0.104,2.586,2.051,2.948,2.217c1.222,0.551,6.004,1.182,5.896,1.289c-0.028,0.029-0.51-3.311,0.185-4.059
				c0.69-0.74-0.049-0.09-1.104-0.736c-1.146-0.703-1.397-2.107-1.844-2.396c-0.47-0.3-0.681,0.016-1.656-0.367
				C691.221,256.237,680.389,245.619,680.133,245.511z"/>
		</g>
	</g>
</g>
</svg>
