<?xml version="1.0" encoding="utf-8"?>
<!-- Generator: Adobe Illustrator 13.0.0, SVG Export Plug-In . SVG Version: 6.00 Build 14948)  -->
<!DOCTYPE svg PUBLIC "-//W3C//DTD SVG 1.1//EN" "http://www.w3.org/Graphics/SVG/1.1/DTD/svg11.dtd">
<svg version="1.1" id="Layer_1" xmlns="http://www.w3.org/2000/svg" xmlns:xlink="http://www.w3.org/1999/xlink" x="0px" y="0px"
	 width="1200px" height="400px" viewBox="0 0 1200 400" enable-background="new 0 0 1200 400" xml:space="preserve">
<g>
	<rect x="-0.5" y="-0.5" fill="none" width="1200" height="400"/>
	<rect x="41.194" y="134.276" fill="#CCCCCC" width="462.004" height="257.324"/>
	<g>
		<path fill="#2C2C2C" d="M741.387,259.961c7.149,0,12.949,10.711,12.949,23.936c0,13.213-5.798,23.932-12.949,23.932
			c-7.137,0-12.935-10.719-12.935-23.932C728.452,270.672,734.25,259.961,741.387,259.961z"/>
		<ellipse fill="#2C2C2C" cx="757.629" cy="301.71" rx="12.643" ry="16.427"/>
		<path fill="#2C2C2C" d="M732.053,290.697c5.752,0,10.41,6.141,10.41,13.707c0,7.58-4.658,13.729-10.41,13.729
			c-5.748,0-10.406-6.146-10.406-13.729C721.646,296.838,726.307,290.697,732.053,290.697z"/>
		<path fill="#2C2C2C" d="M746.926,313.41c7.517,0,13.617,8.242,13.617,18.404c0,10.166-6.104,18.396-13.617,18.396
			s-13.604-8.23-13.604-18.396C733.322,321.652,739.411,313.41,746.926,313.41z"/>
		<path fill="#2C2C2C" d="M746.982,306.025c5.873,0,10.646,4.474,10.646,10.002c0,5.518-4.771,9.994-10.646,9.994
			c-5.879,0-10.646-4.479-10.646-9.994C736.342,310.499,741.105,306.025,746.982,306.025z"/>
		<path fill="#2C2C2C" d="M760.553,313.799c3.707,0,6.703,4.053,6.703,9.059c0,5.002-2.996,9.053-6.703,9.053
			c-3.703,0-6.709-4.051-6.709-9.053C753.846,317.852,756.85,313.799,760.553,313.799z"/>
		<ellipse fill="#2C2C2C" cx="732.061" cy="320.336" rx="10.604" ry="14.297"/>
		<ellipse fill="#2C2C2C" cx="754.336" cy="285.268" rx="6.7" ry="9.058"/>
		<ellipse fill="#2C2C2C" cx="729.631" cy="290.711" rx="6.711" ry="9.057"/>
		<ellipse fill="#2C2C2C" cx="735.454" cy="334.631" rx="6.718" ry="9.059"/>
		<rect x="742.172" y="325.588" fill="#2C2C2C" width="3.985" height="60.996"/>
	</g>
	<g>
		<path fill="#2C2C2C" d="M968.607,259.961c7.147,0,12.946,10.711,12.946,23.936c0,13.213-5.795,23.932-12.946,23.932
			c-7.14,0-12.935-10.719-12.935-23.932C955.674,270.672,961.469,259.961,968.607,259.961z"/>
		<path fill="#2C2C2C" d="M984.85,285.283c6.979,0,12.642,7.354,12.642,16.427s-5.66,16.429-12.642,16.429
			c-6.983,0-12.643-7.354-12.643-16.429C972.207,292.639,977.865,285.283,984.85,285.283z"/>
		<path fill="#2C2C2C" d="M959.273,290.697c5.752,0,10.407,6.141,10.407,13.707c0,7.58-4.655,13.729-10.407,13.729
			c-5.75,0-10.408-6.146-10.408-13.729C948.865,296.838,953.527,290.697,959.273,290.697z"/>
		<path fill="#2C2C2C" d="M974.145,313.41c7.519,0,13.617,8.242,13.617,18.404c0,10.166-6.1,18.396-13.617,18.396
			c-7.512,0-13.604-8.23-13.604-18.396C960.541,321.652,966.633,313.41,974.145,313.41z"/>
		<path fill="#2C2C2C" d="M974.205,306.025c5.868,0,10.645,4.474,10.645,10.002c0,5.518-4.772,9.994-10.645,9.994
			c-5.88,0-10.646-4.479-10.646-9.994C963.559,310.499,968.325,306.025,974.205,306.025z"/>
		<path fill="#2C2C2C" d="M987.773,313.799c3.705,0,6.703,4.053,6.703,9.059c0,5.002-2.998,9.053-6.703,9.053
			s-6.711-4.051-6.711-9.053C981.063,317.852,984.068,313.799,987.773,313.799z"/>
		<path fill="#2C2C2C" d="M959.279,306.039c5.858,0,10.606,6.398,10.606,14.297c0,7.895-4.748,14.297-10.606,14.297
			c-5.854,0-10.604-6.402-10.604-14.297C948.676,312.438,953.424,306.039,959.279,306.039z"/>
		<ellipse fill="#2C2C2C" cx="981.553" cy="285.268" rx="6.701" ry="9.058"/>
		<ellipse fill="#2C2C2C" cx="956.85" cy="290.711" rx="6.711" ry="9.057"/>
		<ellipse fill="#2C2C2C" cx="962.674" cy="334.631" rx="6.717" ry="9.059"/>
		<rect x="969.391" y="325.588" fill="#2C2C2C" width="3.988" height="60.996"/>
	</g>
	<path fill="#CCCCCC" d="M933.592,158.623c2.906,0,5.539,1.093,7.547,2.884c3.019-5.584,8.914-9.381,15.709-9.381
		c3.738,0,7.197,1.148,10.063,3.113c4.981-8.237,14.024-13.729,24.347-13.729c9.198,0,17.375,4.36,22.571,11.136
		c1.351-0.329,2.748-0.521,4.19-0.521c9.857,0,17.845,7.989,17.845,17.841H922.252C922.248,163.701,927.334,158.623,933.592,158.623
		z"/>
	<path fill="#CCCCCC" d="M816.529,123.185c2.543,0,4.853,0.964,6.608,2.531c2.646-4.896,7.819-8.225,13.771-8.225
		c3.271,0,6.31,1.008,8.815,2.726c4.365-7.216,12.298-12.035,21.345-12.035c8.063,0,15.219,3.83,19.783,9.76
		c1.178-0.291,2.411-0.456,3.678-0.456c8.633,0,15.636,7.003,15.636,15.636h-99.576
		C806.584,127.636,811.041,123.185,816.529,123.185z"/>
	<path fill="#CCCCCC" d="M985.098,102.75c3.978,0,7.588,1.507,10.347,3.962c4.131-7.661,12.233-12.868,21.547-12.868
		c5.125,0,9.867,1.571,13.797,4.262c6.839-11.282,19.236-18.833,33.394-18.833c12.619,0,23.822,5.991,30.953,15.272
		c1.851-0.449,3.771-0.708,5.75-0.708c13.517,0,24.468,10.956,24.468,24.465H969.536C969.539,109.717,976.506,102.75,985.098,102.75
		z"/>
	<path fill="#CCCCCC" d="M694.666,163.389c2.145,0,4.088,0.809,5.563,2.136c2.229-4.124,6.578-6.934,11.604-6.934
		c2.754,0,5.309,0.85,7.424,2.299c3.687-6.075,10.358-10.136,17.978-10.136c6.786,0,12.823,3.221,16.657,8.22
		c0.994-0.244,2.027-0.383,3.101-0.383c7.271,0,13.166,5.899,13.166,13.173h-83.869C686.288,167.14,690.038,163.389,694.666,163.389
		z"/>
	<path fill="#2C2C2C" d="M583.621,275.073c-7.838,0-14.354,1.396-15.685,3.233c-12.319,7.943-11.63,36.115-11.389,41.396h-1.084
		v67.379h3.812v-67.379h-1.167c0.183-25.271,8.345-34.795,13.179-38.22c2.92,0.882,7.359,1.441,12.336,1.441
		c8.802,0,15.938-1.758,15.938-3.926C599.557,276.836,592.422,275.073,583.621,275.073z"/>
	<path fill="#2C2C2C" d="M1154.911,275.073c7.843,0,14.353,1.396,15.685,3.233c12.324,7.943,11.631,36.115,11.388,41.396h1.086
		v67.379h-3.812v-67.379h1.168c-0.185-25.271-8.349-34.795-13.179-38.22c-2.922,0.882-7.362,1.441-12.336,1.441
		c-8.803,0-15.94-1.758-15.94-3.926C1138.975,276.836,1146.113,275.073,1154.911,275.073z"/>
	<g>
		<path fill="#283C8F" d="M81.729,358.723c0,0,0.042,4.271,0.788,4.944c0.743,0.675,7.378,1.147,7.378,1.147s-5.89-1.42-6.499-2.1
			C82.786,362.041,81.729,358.723,81.729,358.723z"/>
		<path fill="#283C8F" d="M93.924,359.031c-1.544-0.614-4.604-1.083-4.604-1.083s2.924,1.083,4.2,1.96
			c1.277,0.881,4.633,4.134,4.633,4.134S95.466,359.636,93.924,359.031z"/>
		<path fill="#283C8F" d="M152.281,340.479c-0.476,0.476-0.407,4.129-0.747,4.062c-0.192-0.037-0.659,0.16-1.031,0.345
			c-1.655-3.063-7.127-13.512-7.127-13.512h-24.672H94.026c0,0-5.473,10.445-7.125,13.512c-0.375-0.183-0.844-0.38-1.033-0.345
			c-0.338,0.065-0.271-3.586-0.743-4.062c-0.477-0.474-6.701-0.065-7.515,0.676c-0.813,0.746-1.354,3.933-0.608,4.812
			c0.746,0.876,7.313-0.343,7.786,0c0.218,0.154,0.419,0.628,0.573,1.095c-2.124,2.471-6.263,6.896-6.263,8.588
			c0,2.133,0,29.348,0,29.348h13.303v-4.872c0,0,15.537,0,26.303,0c10.762,0,26.299,0,26.299,0v4.872h13.303c0,0,0-27.215,0-29.348
			c0-1.692-4.139-6.117-6.265-8.588c0.156-0.467,0.357-0.938,0.577-1.095c0.476-0.343,7.041,0.876,7.785,0
			c0.743-0.879,0.202-4.063-0.608-4.812C158.982,340.408,152.752,340.005,152.281,340.479z M95.85,334.115h22.176v0.949
			c0,0-2.692,0-3.499,0c-0.809,0-0.717,2.709,0,2.709c0.718,0,4.175,0,4.175,0s3.451,0,4.169,0c0.72,0,0.811-2.709,0-2.709
			c-0.807,0-3.499,0-3.499,0v-0.949h22.176l5.585,11.574H118.7H90.263L95.85,334.115z M101.128,374.266l0.819,3.107
			c-1.653,0-3.118,0-4.281,0l-1.187-2.98C97.843,374.346,99.425,374.303,101.128,374.266z M102.677,374.242
			c1.673-0.03,3.424-0.049,5.164-0.065l0.656,3.196c-1.851,0-3.649,0-5.303,0L102.677,374.242z M107.023,366.407
			c-0.094-0.054-0.198-0.134-0.312-0.229h12.288v-0.813h-13.066c-0.295-0.35-0.608-0.76-0.935-1.219h14v-0.813h-14.563
			c-0.262-0.396-0.52-0.801-0.772-1.219h15.335v-0.813H103.18c-0.239-0.412-0.466-0.824-0.672-1.219h16.491v-0.813h-16.895
			c-0.211-0.444-0.389-0.859-0.511-1.219h17.405v-0.813h-17.6c-0.014-0.161-0.009-0.302,0.04-0.386
			c0.607-1.014,8.529-0.607,17.265-0.607c8.731,0,16.651-0.403,17.262,0.607c0.049,0.084,0.054,0.225,0.042,0.386h-17.233v0.813
			h17.034c-0.124,0.354-0.3,0.771-0.513,1.219h-16.521v0.813h16.12c-0.206,0.395-0.436,0.807-0.675,1.219h-15.445v0.813h14.962
			c-0.251,0.418-0.513,0.823-0.772,1.219h-14.189v0.813h13.631c-0.325,0.457-0.646,0.869-0.938,1.219h-12.693v0.813h11.916
			c-0.112,0.096-0.22,0.176-0.312,0.229c-1.626,0.913-9.04,1.02-11.679,1.02C116.058,367.427,108.647,367.32,107.023,366.407z
			 M134.726,374.242l-0.518,3.131c-1.655,0-3.455,0-5.303,0l0.654-3.196C131.3,374.193,133.05,374.212,134.726,374.242z
			 M136.273,374.266c1.702,0.037,3.286,0.075,4.65,0.127l-1.191,2.98c-1.163,0-2.625,0-4.281,0L136.273,374.266z M81.026,357.564
			c0.068-1.094,12.084-0.252,13.404,0.67c1.319,0.924,5.89,6.713,4.47,7.299c-1.42,0.588-16.045-0.164-16.959-1.172
			S80.923,359.252,81.026,357.564z M91.791,374.838c-0.104-0.156,1.092-0.281,3.059-0.375l1.498,2.91c-0.635,0-1.092,0-1.305,0
			C93.518,377.373,92.198,375.447,91.791,374.838z M109.73,377.373l-0.347-3.211c3.53-0.032,6.896-0.037,9.316-0.037
			c2.42,0,5.786,0.005,9.315,0.037l-0.349,3.211c-3.068,0-6.208,0-8.967,0C115.94,377.373,112.802,377.373,109.73,377.373z
			 M142.36,377.373c-0.216,0-0.668,0-1.306,0l1.498-2.915c1.966,0.099,3.164,0.22,3.059,0.375
			C145.205,375.447,143.885,377.373,142.36,377.373z M156.375,357.564c0.103,1.683,0,5.789-0.914,6.797
			c-0.912,1.008-15.537,1.76-16.957,1.172c-1.42-0.586,3.146-6.375,4.467-7.299C144.291,357.313,156.307,356.473,156.375,357.564z"
			/>
		<path fill="#283C8F" d="M154.887,363.662c0.743-0.672,0.783-4.941,0.783-4.941s-1.056,3.32-1.664,3.995
			c-0.609,0.677-6.499,2.099-6.499,2.099S154.142,364.342,154.887,363.662z"/>
		<path fill="#283C8F" d="M139.247,364.042c0,0,3.357-3.251,4.636-4.134c1.275-0.877,4.2-1.96,4.2-1.96s-3.06,0.469-4.604,1.083
			C141.935,359.636,139.247,364.042,139.247,364.042z"/>
	</g>
	<g>
		<path fill="#283C8F" d="M85.503,199.483c0.355,0.424,2.77,0.914,2.77,0.914s-1.76-0.783-2.217-1.468c-0.455-0.685-0.881-3-0.881-3
			S85.144,199.055,85.503,199.483z"/>
		<path fill="#283C8F" d="M93.136,193.382c0.197,0.587-0.03,2.676-0.03,2.676c0.197-0.523,0.815-3.328,0.815-3.328
			c-0.912-0.133-2.935-0.588-2.935-0.588C91.245,192.501,92.942,192.794,93.136,193.382z"/>
		<path fill="#283C8F" d="M97.866,199.415c0,0,2.024,0.166,2.838-0.292c0.814-0.457,2.348-4.438,2.348-4.438
			s-1.662,2.707-2.444,3.472C99.823,198.926,97.866,199.415,97.866,199.415z"/>
		<path fill="#283C8F" d="M152.719,171.748c-0.478,0.516-0.408,4.495-0.752,4.42c-0.129-0.028-0.384,0.061-0.654,0.183
			c-2.605-3.49-7.353-9.82-8.612-11.381c-1.664-2.054-9.44-2.251-21.847-2.251c-12.405,0-20.182,0.194-21.844,2.251
			c-1.263,1.559-6.007,7.892-8.613,11.381c-0.27-0.12-0.526-0.208-0.655-0.183c-0.343,0.075-0.274-3.905-0.75-4.42
			c-0.479-0.516-6.765-0.075-7.582,0.737c-0.82,0.811-1.366,4.273-0.616,5.231s7.378-0.367,7.855,0
			c0.117,0.094,0.234,0.284,0.34,0.521c-0.106,0.149-0.193,0.261-0.25,0.335c-0.881,1.176-6.265,7.635-6.556,9.688
			c-0.293,2.054,0.586,30.73,0.586,30.73h12.234v-3.915c0,0,12.427,0.392,13.209,0c0.783-0.392,2.15-1.663,2.15-1.663
			s4.207,0,10.493,0s10.493,0,10.493,0s1.371,1.271,2.154,1.663s13.209,0,13.209,0v3.915h12.231c0,0,0.882-28.673,0.588-30.73
			c-0.295-2.054-5.677-8.513-6.556-9.688c-0.056-0.074-0.143-0.189-0.251-0.335c0.105-0.238,0.218-0.428,0.338-0.521
			c0.479-0.367,7.104,0.958,7.856,0c0.75-0.958,0.204-4.418-0.614-5.231C159.483,171.673,153.199,171.232,152.719,171.748z
			 M91.667,200.982c-0.879,0.881-6.359-0.342-6.75-0.905c-0.393-0.562-0.49-8.195,0-9.223c0.492-1.029,4.202,0.684,9.653,1.5
			C94.571,192.352,92.55,200.102,91.667,200.982z M101.063,199.71c-0.978,0.49-5.771,0.49-6.357,0
			c-0.588-0.49,2.053-7.012,2.053-7.012s4.071,0.456,7.341,0.456C104.693,193.153,102.042,199.22,101.063,199.71z M106.843,199.676
			h12.08c-0.26-0.204-0.492-0.441-0.677-0.717h-11.471c-0.032-0.454-0.049-0.917-0.054-1.37h11.039
			c-0.014-0.121-0.038-0.238-0.038-0.359c0-0.123,0.021-0.24,0.038-0.359h-11.032c0.013-0.47,0.037-0.93,0.082-1.37h11.436
			c0.185-0.275,0.415-0.511,0.677-0.717H106.9c0.07-0.51,0.164-0.973,0.281-1.371h13.673h13.678
			c0.115,0.398,0.208,0.861,0.281,1.371h-12.025c0.258,0.204,0.491,0.442,0.675,0.717H134.9c0.04,0.439,0.068,0.9,0.08,1.37h-11.03
			c0.014,0.121,0.037,0.236,0.037,0.359c0,0.122-0.022,0.239-0.037,0.359h11.038c-0.002,0.454-0.022,0.914-0.056,1.37h-11.468
			c-0.183,0.276-0.417,0.511-0.675,0.717h12.077c-0.05,0.471-0.119,0.932-0.208,1.371h-13.803h-13.802
			C106.962,200.607,106.894,200.149,106.843,199.676z M107.44,192.698c0.215-0.451,0.472-0.717,0.767-0.717c1.76,0,5.967,0,12.645,0
			c6.678,0,10.885,0,12.649,0c0.295,0,0.548,0.266,0.764,0.717H120.85H107.44z M107.215,201.766h13.636h13.639
			c-0.136,0.508-0.3,0.975-0.494,1.37h-13.145h-13.139C107.515,202.736,107.351,202.273,107.215,201.766z M131.15,208.909
			c-1.177,0.392-6.896,0.782-10.299,0.782c-3.399,0-9.122-0.394-10.298-0.782c-1.172-0.394-1.856-3.718-1.563-3.522
			c0.294,0.197,7.145,0.688,11.861,0.688c4.721,0,11.571-0.488,11.864-0.688C133.01,205.191,132.326,208.516,131.15,208.909z
			 M120.851,204.7c-3.206,0-12.056-0.099-12.645-0.783c-0.017-0.021-0.035-0.046-0.052-0.065h12.696h12.696
			c-0.018,0.021-0.033,0.045-0.049,0.065C132.912,204.602,124.057,204.7,120.851,204.7z M120.851,179.257
			c-9.566,0-28.4-0.979-28.105-1.564c0.295-0.586,8.808-11.94,9.688-11.94c0.78,0,14.608,0,17.772,0v0.619c0,0-2.595,0-3.373,0
			s-0.694,2.61,0,2.61c0.69,0,4.02,0,4.02,0s3.331,0,4.022,0c0.69,0,0.777-2.61,0-2.61c-0.776,0-3.37,0-3.37,0v-0.619
			c3.162,0,16.992,0,17.768,0c0.881,0,9.396,11.352,9.689,11.94C149.253,178.279,130.421,179.257,120.851,179.257z M147.003,199.71
			c-0.586,0.49-5.381,0.49-6.361,0c-0.979-0.49-3.628-6.557-3.033-6.557c3.271,0,7.338-0.456,7.338-0.456
			S147.593,199.22,147.003,199.71z M156.792,190.854c0.49,1.027,0.392,8.659,0,9.223c-0.395,0.563-5.873,1.786-6.754,0.905
			c-0.881-0.88-2.902-8.627-2.902-8.627C152.588,191.539,156.3,189.825,156.792,190.854z"/>
		<path fill="#283C8F" d="M156.528,195.926c0,0-0.422,2.315-0.881,3c-0.455,0.686-2.217,1.468-2.217,1.468s2.414-0.49,2.775-0.914
			C156.56,199.055,156.528,195.926,156.528,195.926z"/>
		<path fill="#283C8F" d="M148.601,196.058c0,0-0.229-2.088-0.033-2.676c0.197-0.588,1.895-0.881,2.154-1.238
			c0,0-2.021,0.456-2.937,0.588C147.788,192.729,148.406,195.535,148.601,196.058z"/>
		<path fill="#283C8F" d="M138.652,194.688c0,0,1.535,3.979,2.352,4.438c0.813,0.456,2.836,0.292,2.836,0.292
			s-1.955-0.488-2.74-1.255C140.318,197.395,138.652,194.688,138.652,194.688z"/>
		<circle fill="#283C8F" cx="120.851" cy="197.231" r="2.511"/>
	</g>
	<g>
		<path fill="#43A0D2" d="M391.88,217.581h13.422v-4.44c0,0,17.968,1.625,27.604,1.625c9.633,0,27.603-1.625,27.603-1.625v4.44
			h13.423c0,0,1.95-29.878,0.867-32.042c-0.899-1.8-7.104-9.577-9.177-12.151c0.13-0.254,0.271-0.469,0.417-0.562
			c0.53-0.336,7.861,0.868,8.692,0c0.83-0.872,0.226-4.021-0.682-4.758c-0.905-0.736-7.855-1.139-8.389-0.669
			c-0.529,0.467-0.453,4.087-0.83,4.02c-0.051-0.01-0.123-0.002-0.205,0.013c-3.35-11.606-8.186-16.2-13.533-16.2
			c-5.521,0-2.492,0-18.188,0c-15.696,0-12.666,0-18.188,0c-5.352,0-10.185,4.596-13.533,16.2c-0.084-0.015-0.156-0.022-0.206-0.013
			c-0.378,0.068-0.306-3.55-0.835-4.02c-0.526-0.468-7.48-0.067-8.388,0.669c-0.907,0.737-1.513,3.886-0.678,4.758
			c0.83,0.868,8.159-0.336,8.688,0c0.149,0.093,0.291,0.307,0.419,0.562c-2.071,2.577-8.277,10.351-9.176,12.151
			C389.93,187.701,391.88,217.581,391.88,217.581z M401.555,206.441c-0.335,0.336-3.941,0.42-4.865,0
			c-0.996-0.452-0.927-3.104-0.589-3.857c0.335-0.754,4.699-0.063,5.454,0.641C402.313,203.926,401.892,206.105,401.555,206.441z
			 M458.994,206.861c-1.083,1.188-14.727,4.059-26.09,4.223c-11.367-0.164-25.005-3.031-26.092-4.223
			c-1.082-1.192-0.648-1.405,0-1.731c0.649-0.323,18.08,1.409,26.092,1.409c8.008,0,25.438-1.732,26.09-1.409
			C459.645,205.456,460.073,205.672,458.994,206.861z M424.354,193.332c2.922,0,8.552,0,8.552,0s5.627,0,8.55,0
			c2.921,0-2.707,3.355-8.55,3.355C427.06,196.687,421.43,193.332,424.354,193.332z M469.122,206.441
			c-0.921,0.42-4.529,0.336-4.867,0c-0.335-0.336-0.753-2.519,0-3.224c0.757-0.7,5.118-1.393,5.456-0.64
			C470.046,203.335,470.118,205.989,469.122,206.441z M469.638,186.21c1.081,1.496,1.118,6.819,0.053,7.93
			c-1.071,1.111-13.26,1.476-17.785,1.02c-1.833-0.185-2.334-3.545,0.371-4.857C454.986,188.992,468.558,184.717,469.638,186.21z
			 M412.658,159.34c4.567-1.04,13.897-0.881,19.527-0.867v0.687c0,0-2.868,0-3.732,0c-0.857,0-0.762,2.888,0,2.888
			c0.77,0,4.451,0,4.451,0s3.685,0,4.447,0c0.768,0,0.863-2.888,0-2.888c-0.857,0-3.73,0-3.73,0v-0.687
			c5.627-0.014,14.961-0.17,19.525,0.867c4.765,1.083,9.198,12.232,8.337,12.88c-0.867,0.65-15.233,2.924-28.58,2.924
			c-13.349,0-27.712-2.273-28.578-2.924C403.459,171.572,407.9,160.423,412.658,159.34z M396.171,186.21
			c1.083-1.495,14.655,2.78,17.362,4.092c2.705,1.313,2.203,4.672,0.373,4.857c-4.522,0.456-16.711,0.091-17.784-1.02
			C395.049,193.029,395.095,187.706,396.171,186.21z"/>
		<path fill="#43A0D2" d="M402.866,194.354c0,0-4.438-0.914-5.414-1.779c-0.974-0.866-1.303-3.028-1.303-3.028
			s-0.375,3.031,0.494,3.788C397.51,194.092,402.866,194.354,402.866,194.354z"/>
		<path fill="#43A0D2" d="M414.232,194.09c0.271-0.811,0.218-1.949-0.539-2.816c-0.76-0.864-6.39-2.435-6.39-2.435
			C414.232,191.383,414.232,194.09,414.232,194.09z"/>
		<path fill="#43A0D2" d="M396.589,203.452c0,0-0.38,1.788,0.271,2.272s3.683,0.379,3.683,0.379s-2.601-0.598-3.195-1.029
			C396.75,204.645,396.589,203.452,396.589,203.452z"/>
		<path fill="#43A0D2" d="M408.441,207.134c7.47,2.109,24.464,3.247,24.464,3.247s16.997-1.138,24.464-3.247
			c0,0-17.809,2.22-24.464,2.22C426.245,209.354,408.441,207.134,408.441,207.134z"/>
		<path fill="#43A0D2" d="M469.658,189.549c0,0-0.328,2.162-1.303,3.028c-0.976,0.865-5.414,1.779-5.414,1.779
			s5.359-0.261,6.225-1.02C470.033,192.581,469.658,189.549,469.658,189.549z"/>
		<path fill="#43A0D2" d="M451.579,194.09c0,0,0-2.705,6.927-5.251c0,0-5.633,1.569-6.388,2.435
			C451.362,192.141,451.308,193.279,451.579,194.09z"/>
		<path fill="#43A0D2" d="M441.024,194.09c0,0-4.113,0.974-8.119,0.974s-8.119-0.974-8.119-0.974s3.229,1.949,8.119,1.949
			C437.795,196.039,441.024,194.09,441.024,194.09z"/>
		<path fill="#43A0D2" d="M468.464,205.076c-0.596,0.435-3.194,1.029-3.194,1.029s3.035,0.105,3.683-0.379
			c0.651-0.486,0.271-2.272,0.271-2.272S469.06,204.645,468.464,205.076z"/>
	</g>
	<g>
		<path fill="#145B8E" d="M87.357,269.753c0,0,0,8.822,8.629,6.333C95.986,276.086,88.603,276.948,87.357,269.753z"/>
		<path fill="#145B8E" d="M93.542,265.154c3.019,0.957,5.081,4.313,5.081,4.313C97.425,264.725,93.542,265.154,93.542,265.154z"/>
		<path fill="#145B8E" d="M106.962,274.646c-0.192,0.146-1.821,2.203-1.676,2.926c0.143,0.719,6.71,0.719,6.71,0.719
			s-4.938-0.766-5.467-1.102C106.006,276.85,106.962,274.646,106.962,274.646z"/>
		<path fill="#145B8E" d="M89.419,287.542c0,0,2.156,4.651,5.749,3.741C95.168,291.279,92.297,290.852,89.419,287.542z"/>
		<path fill="#145B8E" d="M93.253,284.713c3.884,1.344,3.307,4.223,3.307,4.223s0.577-1.92-0.096-2.879
			C95.796,285.096,93.253,284.713,93.253,284.713z"/>
		<path fill="#145B8E" d="M142.681,276.086c8.627,2.489,8.627-6.333,8.627-6.333C150.059,276.948,142.681,276.086,142.681,276.086z"
			/>
		<path fill="#145B8E" d="M140.042,269.467c0,0,2.063-3.354,5.081-4.313C145.123,265.154,141.241,264.725,140.042,269.467z"/>
		<path fill="#145B8E" d="M151.116,260.217c0.479-0.144,2.106,1.249,4.889,0.576c2.779-0.673,4.779-4.732,0.526-6.855
			c-0.864-0.432-3.787-1.393-6.278,0.334c-2.494,1.729-1.008,4.172-1.008,4.172l-0.425,1.062c-0.052-0.132-0.112-0.271-0.151-0.387
			c-1.053-3.263-3.549-12.945-4.602-14.386c-1.052-1.438-9.968-4.6-24.735-4.6c-14.769,0-23.685,3.162-24.736,4.6
			c-1.055,1.438-3.551,11.123-4.603,14.386c-0.04,0.116-0.1,0.255-0.152,0.387l-0.424-1.062c0,0,1.485-2.442-1.005-4.172
			c-2.494-1.727-5.417-0.763-6.281-0.334c-4.25,2.123-2.252,6.186,0.527,6.855c2.781,0.668,4.41-0.72,4.889-0.576
			c0.338,0.102,0.202,2.055,0.092,3.223c-2.206,3.472-5.091,7.617-5.217,9.865c-0.192,3.354,1.147,27.516,1.147,27.516H97.09v-5.463
			c0,0,12.271,0.67,22.245,0.67c9.97,0,22.245-0.67,22.245-0.67v5.463h13.52c0,0,1.343-24.155,1.148-27.516
			c-0.129-2.253-3.015-6.396-5.221-9.865C150.914,262.271,150.781,260.316,151.116,260.217z M97.09,246.456
			c0.75-0.847,11.083-3.161,21.609-3.255v0.541c0,0-2.544,0-3.306,0c-0.762,0-0.677,3.197,0,3.197c0.677,0,3.94,0,3.94,0
			s3.262,0,3.939,0c0.677,0,0.765-3.197,0-3.197c-0.762,0-3.305,0-3.305,0v-0.541c10.523,0.094,20.857,2.41,21.609,3.255
			c0.764,0.862,3.737,11.124,3.737,11.794c0,0.668-21.286,1.631-25.982,1.631c-4.697,0-25.985-0.961-25.985-1.631
			C93.349,257.575,96.322,247.323,97.09,246.456z M134.482,278.575c-0.384,0.67-10.549,0.769-15.149,0.769
			c-4.604,0-14.767-0.099-15.15-0.769c-0.384-0.668,0.286-3.162,2.972-5.271c2.687-2.109,5.946-2.109,12.179-2.109
			c6.231,0,9.492,0,12.176,2.109C134.192,275.413,134.862,277.907,134.482,278.575z M93.349,292.1
			c-3.642-0.856-6.249-6.148-4.985-7.191c1.632-1.35,8.536-1.249,8.822,1.148C97.472,288.451,96.994,292.956,93.349,292.1z
			 M91.718,279.635c-4.49-0.777-5.034-3.742-5.034-3.742s5.419,5.754,11.648,0.957C98.335,276.85,96.703,280.494,91.718,279.635z
			 M95.815,276.625c-5.41,2.598-11.208-3.553-8.399-8.834c0.935-1.75,2.468-2.768,4.129-3.129c3.267-0.703,7.043,1.146,7.784,4.955
			C99.867,272.378,98.349,275.406,95.815,276.625z M131.895,291.23c-2.206,0.961-7.383,0.862-12.56,0.862
			c-5.177,0-10.355,0.099-12.563-0.862c-2.203-0.955-4.409-4.601-2.686-4.601c1.72,0,8.248,0,15.249,0c6.999,0,13.525,0,15.25,0
			C136.303,286.633,134.1,290.275,131.895,291.23z M145.315,292.1c-3.646,0.856-4.123-3.646-3.834-6.048
			c0.286-2.396,7.188-2.493,8.819-1.147C151.564,285.948,148.957,291.24,145.315,292.1z M146.947,279.635
			c-4.984,0.859-6.616-2.785-6.616-2.785c6.231,4.797,11.652-0.955,11.652-0.955S151.437,278.852,146.947,279.635z M142.849,276.625
			c-2.534-1.219-4.052-4.247-3.516-7.006c0.746-3.811,4.517-5.655,7.786-4.957c1.664,0.361,3.196,1.379,4.127,3.132
			C154.055,273.072,148.261,279.223,142.849,276.625z"/>
		<path fill="#145B8E" d="M132.132,277.188c-0.527,0.338-5.466,1.104-5.466,1.104s6.566,0,6.712-0.724
			c0.143-0.719-1.486-2.775-1.678-2.922C131.7,274.646,132.659,276.85,132.132,277.188z"/>
		<path fill="#145B8E" d="M143.494,291.279c3.595,0.912,5.751-3.737,5.751-3.737C146.37,290.852,143.494,291.279,143.494,291.279z"
			/>
		<path fill="#145B8E" d="M142.2,286.052c-0.674,0.962-0.097,2.878-0.097,2.878s-0.577-2.878,3.308-4.219
			C145.411,284.713,142.868,285.096,142.2,286.052z"/>
		<circle fill="#145B8E" cx="119.332" cy="274.934" r="1.916"/>
	</g>
	<g>
		<path fill="#43A0D2" d="M236.534,275.793c0,0-0.383,1.798,2.071,2.889c2.6,1.154,3.979-0.547,3.979-0.547
			C238.659,279.277,236.534,275.793,236.534,275.793z"/>
		<path fill="#43A0D2" d="M246.994,276.063c0,0-0.353,1.652,1.9,2.658c2.392,1.062,3.654-0.504,3.654-0.504
			C248.947,279.27,246.994,276.063,246.994,276.063z"/>
		<path fill="#43A0D2" d="M244.861,289.85c0,0-0.243,1.152,1.327,1.854c1.667,0.738,2.55-0.354,2.55-0.354
			C246.225,292.084,244.861,289.85,244.861,289.85z"/>
		<path fill="#43A0D2" d="M266.717,259.994c0,0,0.492-0.602,1.308-1.008c0.818-0.408,4.304-1.006,4.304-1.006
			s-4.249,0.162-4.739,0.434C267.099,258.688,266.717,259.994,266.717,259.994z"/>
		<path fill="#43A0D2" d="M310.8,260.036c1.465-0.394,5.164,0.539,5.958,0.141c0.872-0.437,1.671-4.14,0.872-4.646
			c-0.8-0.514-6.102-0.586-6.758,0.285c-0.439,0.588-0.976,1.865-1.279,2.64c-1.479-3.077-6.974-14.312-7.58-15.022
			c-0.653-0.76-16.284-1.742-25.084-1.742c-8.801,0-24.431,0.979-25.085,1.742c-0.606,0.713-6.101,11.943-7.58,15.022
			c-0.305-0.771-0.844-2.051-1.282-2.64c-0.655-0.871-5.956-0.799-6.757-0.285c-0.799,0.506,0,4.209,0.872,4.646
			c0.797,0.396,4.495-0.535,5.958-0.143c-2.536,2.072-8.993,5.313-9.084,7.146c-0.108,2.18,0,13.729,0,13.729
			s2.946,5.885,3.162,6.755c0.218,0.872,1.416,13.729,1.416,13.729h12.858v-5.773h25.521h25.521v5.773h12.857
			c0,0,1.198-12.854,1.416-13.729c0.219-0.872,3.16-6.755,3.16-6.755s0.109-11.55,0-13.729
			C319.79,265.348,313.334,262.109,310.8,260.036z M254.168,245.865c0.958-1.299,16.467-1.567,21.879-1.594v0.723
			c0,0-3.522,0-4.58,0c-1.055,0-0.94,2.988,0,2.988c0.94,0,5.461,0,5.461,0s4.52,0,5.458,0c0.939,0,1.057-2.988,0-2.988
			c-1.057,0-4.58,0-4.58,0v-0.723c5.414,0.023,20.922,0.295,21.881,1.594c1.017,1.383,6.899,12.713,6.245,12.713
			c-0.651,0-16.053,0-16.053,0s-0.872-1.818-1.746-2.325c-0.872-0.506-6.318-0.728-11.21-0.728c-4.892,0-10.338,0.222-11.21,0.728
			c-0.872,0.507-1.746,2.325-1.746,2.325s-15.401,0-16.05,0C247.266,258.578,253.149,247.248,254.168,245.865z M276.928,270.491
			c7.504,0,16.659,0,17.747,0c0.228,0,0.413,0.407,0.551,1.053h-18.297h-18.3c0.141-0.647,0.326-1.053,0.551-1.053
			C260.269,270.491,269.421,270.491,276.928,270.491z M265.646,260.975c0.072-0.582,0.872-2.832,1.237-3.197
			c0.363-0.358,6.101-0.428,10.048-0.437c3.949,0.009,9.688,0.072,10.05,0.437c0.361,0.365,1.16,2.615,1.235,3.197
			c0.075,0.58-8.984,0.508-11.283,0.508C274.629,261.482,265.571,261.555,265.646,260.975z M295.404,278.152h-18.476h-18.476
			c-0.033-0.26-0.06-0.538-0.082-0.829h18.556h18.556C295.46,277.616,295.435,277.893,295.404,278.152z M295.261,278.98
			c-0.141,0.627-0.333,1.023-0.586,1.023c-1.235,0-16.029,0-17.747,0c-1.718,0-16.514,0-17.75,0c-0.25,0-0.445-0.396-0.586-1.023
			h18.335H295.261z M295.531,276.501h-18.6h-18.603c-0.01-0.271-0.018-0.546-0.018-0.827h18.619h18.619
			C295.547,275.955,295.54,276.23,295.531,276.501z M295.542,274.85h-18.611h-18.614c0.005-0.274,0.018-0.555,0.028-0.828h18.586
			h18.583C295.526,274.293,295.535,274.566,295.542,274.85z M295.456,273.198h-18.527h-18.527c0.023-0.29,0.052-0.567,0.089-0.829
			h18.438h18.438C295.402,272.631,295.432,272.908,295.456,273.198z M240.202,279.555c-2.38,0-4.307-1.927-4.307-4.308
			c0-2.377,1.927-4.304,4.307-4.304c2.379,0,4.305,1.927,4.305,4.304C244.507,277.628,242.583,279.555,240.202,279.555z
			 M247.12,292.499c-1.483,0-2.688-1.202-2.688-2.687c0-1.483,1.202-2.688,2.688-2.688c1.485,0,2.69,1.205,2.69,2.688
			C249.81,291.295,248.607,292.499,247.12,292.499z M250.299,279.555c-2.206,0-3.996-1.791-3.996-3.998s1.791-3.994,3.996-3.994
			s3.996,1.787,3.996,3.994S252.504,279.555,250.299,279.555z M296.855,290.975c-1.234,0-18.061,0-19.926,0
			c-1.865,0-18.694,0-19.929,0s-1.525-2.978-0.654-2.978c0.872,0,18.234,0,20.583,0c2.351,0,19.708,0,20.581,0
			C298.383,287.997,298.093,290.975,296.855,290.975z M299.563,275.557c0-2.207,1.791-3.994,3.998-3.994
			c2.209,0,3.999,1.787,3.999,3.994s-1.79,3.998-3.999,3.998C301.354,279.555,299.563,277.764,299.563,275.557z M306.736,292.499
			c-1.485,0-2.688-1.202-2.688-2.687c0-1.483,1.202-2.688,2.688-2.688c1.483,0,2.688,1.205,2.688,2.688
			C309.424,291.295,308.22,292.499,306.736,292.499z M313.653,279.555c-2.379,0-4.304-1.927-4.304-4.308
			c0-2.377,1.928-4.304,4.304-4.304s4.307,1.927,4.307,4.304C317.957,277.628,316.031,279.555,313.653,279.555z"/>
		<path fill="#43A0D2" d="M311.274,278.139c0,0,1.38,1.697,3.979,0.545c2.45-1.091,2.071-2.889,2.071-2.889
			S315.198,279.277,311.274,278.139z"/>
		<path fill="#43A0D2" d="M306.863,276.063c0,0-1.952,3.207-5.558,2.154c0,0,1.267,1.563,3.654,0.504
			C307.214,277.717,306.863,276.063,306.863,276.063z"/>
		<path fill="#43A0D2" d="M305.118,291.35c0,0,0.885,1.092,2.551,0.354c1.569-0.698,1.328-1.854,1.328-1.854
			S307.632,292.084,305.118,291.35z"/>
		<path fill="#43A0D2" d="M287.142,259.994c0,0-0.384-1.307-0.874-1.58c-0.488-0.271-4.739-0.434-4.739-0.434
			s3.488,0.598,4.304,1.006S287.142,259.994,287.142,259.994z"/>
	</g>
	<g>
		<path fill="#145B8E" d="M244.444,192.256c-0.931-1.132-0.799-3.131-0.799-3.131s-1.132,2.599-0.064,3.999
			c1.063,1.398,6.191,2.73,6.191,2.73S245.379,193.389,244.444,192.256z"/>
		<path fill="#145B8E" d="M256.231,195.386c0,0,1.399-2.729,0.867-3.264c-0.537-0.533-4.396-2.463-4.396-2.463
			s2.729,2.064,3.462,2.798C256.899,193.19,256.231,195.386,256.231,195.386z"/>
		<path fill="#145B8E" d="M242.714,205.374c0,0-0.199,1.399,0.6,2.132c0.799,0.733,4.526,1.264,4.526,1.264s-2.93-1.199-3.729-1.664
			C243.314,206.643,242.714,205.374,242.714,205.374z"/>
		<path fill="#145B8E" d="M305.154,177.503c0.112-0.215,0.238-0.396,0.367-0.479c0.487-0.308,7.25,0.804,8.019,0
			c0.77-0.803,0.208-3.709-0.626-4.388c-0.839-0.682-7.254-1.051-7.74-0.62c-0.488,0.432-0.42,3.771-0.768,3.709
			c-0.149-0.025-0.462,0.071-0.772,0.193c-1.003-2.035-4.178-9.77-5.315-11.035c-1.199-1.333-8.391-2.266-21.442-2.266
			c-13.05,0-20.245,0.934-21.443,2.266c-1.139,1.265-4.313,9-5.314,11.035c-0.311-0.122-0.624-0.218-0.771-0.193
			c-0.35,0.062-0.279-3.277-0.767-3.709s-6.905-0.063-7.741,0.62c-0.837,0.679-1.397,3.585-0.628,4.388
			c0.764,0.804,7.531-0.308,8.018,0c0.129,0.083,0.253,0.261,0.368,0.479c-2.191,1.635-6.169,3.843-6.884,4.963
			c-0.932,1.465-3.197,9.457-3.197,16.649c0,7.193,1.729,12.787,1.729,12.787l1.065,5.728h11.587v-4.795
			c0,0,11.851,0.532,23.973,0.532s23.974-0.532,23.974-0.532v4.795h11.587l1.065-5.728c0,0,1.732-5.594,1.732-12.787
			c0-7.192-2.267-15.182-3.197-16.649C311.323,181.348,307.348,179.138,305.154,177.503z M257.698,167.284
			c1.16-0.773,10.816-1.923,18.443-1.994v0.698c0,0-2.948,0-3.832,0c-0.884,0-0.788,2.739,0,2.739s4.57,0,4.57,0s3.78,0,4.567,0
			c0.785,0,0.885-2.739,0-2.739c-0.886,0-3.832,0-3.832,0v-0.698c7.625,0.071,17.281,1.221,18.441,1.994
			c1.2,0.799,3.865,8.258,4.132,9.055c0.265,0.799-15.852,2.13-23.307,2.13c-7.46,0-23.576-1.331-23.31-2.13
			C253.835,175.542,256.5,168.083,257.698,167.284z M260.135,195.885v6.696C258.417,201.025,258.879,198.081,260.135,195.885z
			 M261.089,194.546c0.476-0.541,0.999-0.96,1.525-1.2v10.238c-0.588-0.07-1.099-0.199-1.525-0.389V194.546z M263.567,193.123
			c0.567,0,1.063,0,1.53,0v10.521c-0.504,0-1.012,0-1.53,0V193.123z M266.049,193.123c0.488,0,0.978,0,1.531,0v10.521
			c-0.5,0-1.014,0-1.531,0V193.123z M268.529,193.123c0.457,0,0.958,0,1.528,0v10.521c-0.497,0-1.005,0-1.528,0V193.123z
			 M271.008,193.123c0.462,0,0.973,0,1.526,0v10.521c-0.49,0-0.999,0-1.526,0V193.123z M273.49,193.123c0.475,0,0.982,0,1.526,0
			v10.521c-0.474,0-0.984,0-1.526,0V193.123z M275.968,193.123c0.293,0,0.595,0,0.907,0c0.313,0,0.613,0,0.91,0v10.521
			c-0.328,0-0.636,0-0.91,0c-0.271,0-0.581,0-0.907,0V193.123z M278.736,193.123c0.546,0,1.053,0,1.525,0v10.521
			c-0.541,0-1.052,0-1.525,0V193.123z M281.215,193.123c0.553,0,1.06,0,1.526,0v10.521c-0.527,0-1.036,0-1.526,0V193.123z
			 M283.697,193.123c0.567,0,1.071,0,1.526,0v10.521c-0.521,0-1.031,0-1.526,0V193.123z M286.175,193.123c0.551,0,1.043,0,1.53,0
			v10.521c-0.519,0-1.031,0-1.53,0V193.123z M288.654,193.123c0.467,0,0.961,0,1.528,0v10.521c-0.516,0-1.023,0-1.528,0V193.123z
			 M291.136,193.348c0.527,0.24,1.053,0.66,1.526,1.2v8.649c-0.43,0.188-0.94,0.318-1.526,0.39V193.348z M293.616,195.885
			c1.258,2.196,1.718,5.141,0,6.696V195.885z M250.838,209.238c-0.199,0.8-7.393-0.301-8.191-1.301
			c-0.799-0.998-0.6-3.297-0.6-3.896s6.094,0.398,8.391,1.298C251.297,205.676,251.039,208.438,250.838,209.238z M242.78,193.824
			c-1.599-2.259,0.934-7.374,1.463-8.443c0.536-1.071,11.319,4.517,13.452,6.302c0.867,0.727-0.494,4.411-1.596,5.289
			C254.234,198.458,244.378,196.082,242.78,193.824z M278.206,211.102c-0.467,0-0.902-0.002-1.332-0.008
			c-0.427,0.002-0.862,0.008-1.329,0.008c-19.431,0-23.747-4.396-22.207-4.931c1.544-0.532,14.803,1.332,22.207,1.332
			c0.379,0,0.834,0.026,1.329,0.069c0.497-0.045,0.952-0.069,1.332-0.069c7.4,0,20.662-1.864,22.204-1.332
			C301.951,206.706,297.635,211.102,278.206,211.102z M297.652,196.972c-1.102-0.878-2.463-4.563-1.598-5.289
			c2.133-1.786,12.917-7.373,13.453-6.302c0.531,1.07,3.062,6.182,1.462,8.443C309.372,196.082,299.517,198.458,297.652,196.972z
			 M311.105,207.938c-0.8,1.002-7.99,2.104-8.191,1.304c-0.198-0.802-0.459-3.563,0.401-3.897c2.297-0.896,8.391-1.896,8.391-1.298
			C311.704,204.643,311.904,206.941,311.105,207.938z"/>
		<path fill="#145B8E" d="M309.305,192.256c-0.934,1.133-5.324,3.598-5.324,3.598s5.125-1.333,6.191-2.73
			c1.065-1.399-0.063-3.999-0.063-3.999S310.24,191.124,309.305,192.256z"/>
		<path fill="#145B8E" d="M297.521,195.386c0,0-0.668-2.198,0.068-2.931c0.73-0.735,3.461-2.798,3.461-2.798
			s-3.86,1.932-4.396,2.462C296.121,192.654,297.521,195.386,297.521,195.386z"/>
		<path fill="#145B8E" d="M309.64,207.104c-0.799,0.467-3.729,1.666-3.729,1.666s3.729-0.529,4.528-1.265
			c0.799-0.733,0.6-2.132,0.6-2.132S310.439,206.643,309.64,207.104z"/>
	</g>
	<g>
		<path fill="#283C8F" d="M427.492,248.436c0.904,0,5.263,0,5.263,0s4.358,0,5.265,0c0.905,0,1.018-2.879,0-2.879
			c-1.021,0-4.413,0-4.413,0v-1.008h-0.852h-0.847v1.008c0,0-3.396,0-4.416,0S426.589,248.436,427.492,248.436z"/>
		<path fill="#283C8F" d="M395.485,270.732c0,0-0.701,6.718,6.648,5.387C402.134,276.119,396.459,276.26,395.485,270.732z"/>
		<path fill="#283C8F" d="M395.921,285.59c0,0-0.512,4.903,4.853,3.939C400.775,289.529,396.635,289.628,395.921,285.59z"/>
		<path fill="#283C8F" d="M473.642,290.148c0,0,0.561-20.584,0-23.381c-0.479-2.387-7.045-4.566-9.243-5.42
			c1.303-0.479,5.091,0.49,5.883,0.1c0.839-0.422,1.609-3.994,0.839-4.481c-0.77-0.487-5.88-0.558-6.511,0.276
			c-0.452,0.604-1.009,1.955-1.289,2.677c-0.929-3.308-3.095-12.956-3.683-14.717c-0.7-2.101-5.319-4.2-26.885-4.2
			c-21.563,0-26.186,2.102-26.886,4.2c-0.586,1.761-2.749,11.407-3.68,14.717c-0.281-0.722-0.84-2.071-1.289-2.677
			c-0.634-0.838-5.742-0.764-6.512-0.276c-0.771,0.487,0,4.06,0.842,4.481c0.791,0.394,4.576-0.577,5.883-0.1
			c-2.199,0.852-8.767,3.033-9.244,5.42c-0.559,2.797,0,23.381,0,23.381l-1.959,1.259c0,0-0.419,4.624,0,4.903
			c0.419,0.275,3.357,0.695,3.357,0.695l0.979,6.305h11.345v-6.725c0,0,15.26,0,27.162,0c11.9,0,27.163,0,27.163,0v6.725h11.342
			l0.979-6.305c0,0,2.94-0.42,3.36-0.695c0.419-0.279,0-4.903,0-4.903L473.642,290.148z M408.392,247.164
			c2.24-2.62,18.487-2.424,24.361-2.66c5.878,0.241,22.122,0.045,24.365,2.66c0.938,1.097,2.802,12.184,2.94,13.723
			c0.141,1.54-20.585,2.243-27.305,2.243c-6.721,0-27.443-0.703-27.304-2.243C405.593,259.352,407.451,248.261,408.392,247.164z
			 M406.107,286.37h26.646H459.4c-0.018,0.46-0.08,0.912-0.191,1.331h-26.456h-26.454
			C406.189,287.282,406.125,286.834,406.107,286.37z M432.753,285.044h-26.574c0.062-0.46,0.167-0.914,0.311-1.334h26.265h26.27
			c0.141,0.42,0.243,0.872,0.307,1.334H432.753z M432.753,282.377h-25.622c0.475-0.689,1.095-1.141,1.818-1.141
			c3.221,0,23.804,0,23.804,0s20.585,0,23.803,0c0.729,0,1.349,0.451,1.817,1.141H432.753z M413.572,270.967
			c4.343,0,8.824,0,19.185,0c10.361,0,14.845,0,19.185,0c4.343,0,4.621,5.323,0,5.323c-4.62,0-19.185,0-19.185,0s-14.561,0-19.185,0
			S409.23,270.967,413.572,270.967z M399.291,290.014c-2.009,0-3.643-1.633-3.643-3.644s1.634-3.642,3.643-3.642
			c2.011,0,3.64,1.631,3.64,3.642S401.302,290.014,399.291,290.014z M400.13,276.99c-3.018,0-5.461-2.446-5.461-5.461
			c0-3.021,2.446-5.461,5.461-5.461s5.461,2.445,5.461,5.461C405.593,274.549,403.146,276.99,400.13,276.99z M456.558,290.014
			c-4.34,0-23.803,0-23.803,0s-19.464,0-23.804,0c-0.899,0-1.562-0.381-2.022-0.979h25.826h25.827
			C458.12,289.633,457.457,290.014,456.558,290.014z M466.219,290.014c-2.01,0-3.641-1.633-3.641-3.644s1.629-3.642,3.641-3.642
			s3.641,1.631,3.641,3.642S468.23,290.014,466.219,290.014z M465.38,276.99c-3.018,0-5.461-2.446-5.461-5.461
			c0-3.021,2.443-5.461,5.461-5.461c3.017,0,5.461,2.445,5.461,5.461C470.841,274.549,468.396,276.99,465.38,276.99z"/>
		<path fill="#283C8F" d="M463.378,276.119c7.351,1.331,6.648-5.387,6.648-5.387C469.048,276.26,463.378,276.119,463.378,276.119z"
			/>
		<path fill="#283C8F" d="M464.736,289.529c5.367,0.964,4.854-3.939,4.854-3.939C468.871,289.628,464.736,289.529,464.736,289.529z"
			/>
		<circle fill="#283C8F" cx="432.753" cy="273.399" r="1.786"/>
	</g>
	<g>
		<path fill="#145B8E" d="M247.341,353.102c0,0,0.321,2.672,0.83,3.184c0.508,0.504,5.02,1.607,5.02,1.607s-3.288-1.473-4.375-2.074
			C247.728,355.218,247.341,353.102,247.341,353.102z"/>
		<path fill="#145B8E" d="M260.285,353.242c-0.924-1.061-3.641-1.167-3.641-1.167s2.027,0.891,2.764,1.72
			c0.735,0.83,1.748,3.914,1.748,3.914S261.204,354.299,260.285,353.242z"/>
		<path fill="#145B8E" d="M250.889,362.498c0,0,0,1.383,0.551,1.889c0.554,0.506,6.495,1.887,6.495,1.887s-5.066-1.887-5.803-2.301
			C251.396,363.555,250.889,362.498,250.889,362.498z"/>
		<path fill="#145B8E" d="M315.722,334.907c-0.886-0.562-6.772-0.646-7.5,0.325c-0.459,0.613-1.016,1.896-1.36,2.764
			c-0.045-0.157-0.095-0.321-0.135-0.479c-0.981-3.933-4.912-13.266-6.02-14.744c-1.07-1.426-12.613-2.737-22.601-2.817v-0.005
			c-0.164,0-0.326,0-0.492,0c-0.163,0-0.327,0-0.491,0v0.005c-9.987,0.08-21.53,1.394-22.602,2.817
			c-1.105,1.477-5.037,10.813-6.019,14.744c-0.042,0.154-0.089,0.318-0.137,0.479c-0.345-0.865-0.901-2.148-1.358-2.764
			c-0.724-0.971-6.612-0.887-7.5-0.325c-0.888,0.563,0,4.678,0.966,5.157c0.968,0.481,5.808-0.808,7.017,0
			c0.05,0.035,0.092,0.053,0.137,0.08c-1.315,3.361-3.335,7.277-3.914,12.105c-0.738,6.146,0.614,15.604,0.614,15.604v16.705h14.004
			v-7.246c0,0,9.826,0.914,18.792,0.979v0.003c0.164,0,0.328,0,0.491,0c0.167,0,0.328,0,0.492,0v-0.003
			c8.962-0.064,18.794-0.979,18.794-0.979v7.246h14.002v-16.705c0,0,1.351-9.453,0.613-15.604c-0.58-4.828-2.599-8.744-3.914-12.105
			c0.045-0.027,0.09-0.047,0.137-0.08c1.207-0.808,6.049,0.481,7.016,0C315.722,339.585,316.611,335.473,315.722,334.907z
			 M256.615,325.604c1.071-1.069,10.002-2.84,20.514-2.944v0.653c-0.635,0-3.371,0-4.269,0c-1.015,0-0.901,2.871,0,2.871
			c0.634,0,2.933,0,4.269,0c0.581,0,0.981,0,0.981,0c1.336,0,3.639,0,4.267,0c0.904,0,1.017-2.871,0-2.871c-0.894,0-3.63,0-4.267,0
			v-0.653c10.513,0.104,19.439,1.868,20.514,2.944c1.104,1.105,4.541,10.936,4.79,11.914c0.239,0.961-18.104,2.154-25.794,2.211
			c-7.69-0.052-26.034-1.25-25.796-2.211C252.068,336.536,255.509,326.709,256.615,325.604z M266.562,363.002
			c-1.076-2.395-2.393-11.273-1.842-11.604c0.199-0.119,0.822-0.313,1.842-0.527V363.002z M267.914,350.631
			c0.513-0.084,1.087-0.164,1.718-0.242v13.813c-0.668-0.086-1.251-0.185-1.718-0.293V350.631z M270.987,350.247
			c0.542-0.052,1.108-0.104,1.721-0.147v14.387c-0.596-0.041-1.172-0.082-1.721-0.139V350.247z M274.055,350.021
			c0.551-0.025,1.127-0.054,1.723-0.063v14.667c-0.568-0.02-1.146-0.037-1.723-0.063V350.021z M277.128,364.65v-14.726
			c0.162,0,0.326,0,0.492,0s0.327,0,0.491,0v14.726c-0.167,0.006-0.327,0.006-0.491,0.006S277.294,364.656,277.128,364.65z
			 M279.46,349.956c0.595,0.015,1.172,0.04,1.723,0.063v14.543c-0.574,0.025-1.153,0.049-1.723,0.063V349.956z M282.53,350.1
			c0.609,0.045,1.18,0.094,1.721,0.147v14.104c-0.548,0.051-1.125,0.099-1.721,0.135V350.1z M285.603,350.389
			c0.63,0.074,1.205,0.153,1.718,0.242v13.277c-0.466,0.109-1.052,0.207-1.718,0.293V350.389z M288.673,350.87
			c1.02,0.214,1.645,0.407,1.844,0.526c0.548,0.332-0.766,9.211-1.844,11.604V350.87z M247.402,356.557
			c-0.37-1.229-1.229-4.666-0.613-5.648c0.613-0.98,13.02,0.736,14.016,1.354c0.996,0.615,1.737,7.059,0.846,7.125
			C256.737,359.748,247.77,357.784,247.402,356.557z M250.84,364.661c-0.492-0.736-1.596-4.175,0-3.683
			c2.206,0.678,11.208,1.961,11.208,1.961s0.832,4.67,0,4.67C260.292,367.611,251.332,365.398,250.84,364.661z M277.617,375.592
			c-7.188-0.061-19.038-1.472-19.038-1.472s1.228-3.931,2.947-3.931c1.622,0,9.921,0,15.601,0c0.335,0,0.668,0,0.981,0
			c5.68,0,13.979,0,15.601,0c1.718,0,2.945,3.931,2.945,3.931S284.806,375.531,277.617,375.592z M304.396,364.661
			c-0.491,0.737-9.453,2.95-11.208,2.95c-0.832,0,0-4.666,0-4.666s9.002-1.284,11.208-1.965
			C305.992,360.486,304.887,363.93,304.396,364.661z M307.835,356.557c-0.37,1.229-9.335,3.191-14.248,2.824
			c-0.894-0.066-0.15-6.509,0.846-7.128c0.996-0.614,13.401-2.332,14.016-1.351C309.061,351.891,308.202,355.328,307.835,356.557z"
			/>
		<path fill="#145B8E" d="M302.046,357.893c0,0,4.512-1.104,5.019-1.607c0.506-0.512,0.832-3.184,0.832-3.184
			s-0.388,2.116-1.475,2.717C305.335,356.42,302.046,357.893,302.046,357.893z"/>
		<path fill="#145B8E" d="M294.075,357.707c0,0,1.015-3.082,1.75-3.914c0.734-0.832,2.763-1.723,2.763-1.723
			s-2.719,0.109-3.641,1.166C294.031,354.299,294.075,357.707,294.075,357.707z"/>
		<path fill="#145B8E" d="M303.105,363.973c-0.737,0.414-5.803,2.301-5.803,2.301s5.94-1.381,6.495-1.887
			c0.551-0.506,0.551-1.889,0.551-1.889S303.842,363.555,303.105,363.973z"/>
	</g>
	<g>
		<path fill="#43A0D2" d="M400.23,364.975c0.358,0.422,2.772,0.914,2.772,0.914s-1.763-0.781-2.218-1.472
			c-0.457-0.685-0.881-3-0.881-3S399.871,364.549,400.23,364.975z"/>
		<path fill="#43A0D2" d="M407.862,358.872c0.196,0.591-0.031,2.677-0.031,2.677c0.197-0.521,0.815-3.331,0.815-3.331
			c-0.911-0.131-2.935-0.583-2.935-0.583C405.97,357.993,407.666,358.286,407.862,358.872z"/>
		<path fill="#43A0D2" d="M412.596,364.907c0,0,2.021,0.166,2.836-0.293c0.814-0.455,2.352-4.435,2.352-4.435
			s-1.664,2.702-2.446,3.473C414.551,364.417,412.596,364.907,412.596,364.907z"/>
		<path fill="#43A0D2" d="M467.447,337.239c-0.479,0.516-0.408,4.495-0.75,4.42c-0.131-0.028-0.388,0.062-0.655,0.183
			c-2.606-3.486-7.351-9.82-8.613-11.381c-1.664-2.051-9.438-2.25-21.844-2.25c-12.408,0-20.183,0.197-21.847,2.25
			c-1.264,1.561-6.008,7.895-8.612,11.381c-0.271-0.121-0.525-0.211-0.656-0.183c-0.342,0.075-0.271-3.904-0.75-4.42
			c-0.479-0.517-6.765-0.07-7.582,0.735c-0.819,0.813-1.366,4.272-0.616,5.231c0.75,0.958,7.381-0.363,7.856,0
			c0.118,0.094,0.233,0.285,0.34,0.521c-0.107,0.148-0.194,0.262-0.251,0.336c-0.88,1.18-6.264,7.637-6.557,9.689
			c-0.293,2.051,0.588,30.727,0.588,30.727h12.232v-3.914c0,0,12.427,0.392,13.209,0s2.153-1.662,2.153-1.662s4.207,0,10.493,0
			c6.283,0,10.49,0,10.49,0s1.371,1.271,2.154,1.662c0.782,0.392,13.209,0,13.209,0v3.914h12.231c0,0,0.881-28.674,0.588-30.727
			c-0.295-2.057-5.674-8.514-6.557-9.689c-0.056-0.071-0.144-0.188-0.25-0.336c0.104-0.235,0.219-0.43,0.34-0.521
			c0.477-0.363,7.104,0.958,7.854,0c0.752-0.954,0.203-4.418-0.614-5.231C474.209,337.164,467.925,336.725,467.447,337.239z
			 M406.396,366.475c-0.881,0.883-6.36-0.342-6.752-0.904c-0.391-0.562-0.489-8.195,0-9.225c0.492-1.029,4.202,0.687,9.656,1.5
			C409.301,357.846,407.279,365.594,406.396,366.475z M415.793,365.202c-0.979,0.489-5.775,0.489-6.361,0s2.056-7.015,2.056-7.015
			s4.068,0.459,7.338,0.459C419.419,358.646,416.768,364.713,415.793,365.202z M421.568,365.167h12.08
			c-0.259-0.201-0.492-0.44-0.678-0.717h-11.468c-0.035-0.452-0.053-0.914-0.057-1.369h11.041c-0.017-0.122-0.04-0.233-0.04-0.356
			s0.021-0.24,0.04-0.357h-11.032c0.013-0.471,0.04-0.936,0.082-1.366h11.436c0.186-0.274,0.417-0.517,0.678-0.718h-12.022
			c0.072-0.516,0.166-0.977,0.28-1.373h13.677h13.676c0.117,0.396,0.208,0.857,0.28,1.373h-12.025
			c0.261,0.201,0.492,0.438,0.679,0.718h11.435c0.041,0.438,0.07,0.896,0.08,1.366H438.68c0.015,0.119,0.035,0.234,0.035,0.357
			s-0.021,0.239-0.035,0.356h11.037c-0.002,0.455-0.021,0.917-0.057,1.369h-11.466c-0.186,0.276-0.417,0.516-0.678,0.717h12.08
			c-0.051,0.474-0.119,0.933-0.208,1.374h-13.804h-13.803C421.693,366.1,421.621,365.641,421.568,365.167z M422.168,358.188
			c0.218-0.449,0.471-0.717,0.767-0.717c1.763,0,5.97,0,12.646,0c6.676,0,10.883,0,12.647,0c0.295,0,0.551,0.268,0.767,0.717H435.58
			H422.168z M421.943,367.258h13.638h13.637c-0.135,0.506-0.301,0.971-0.495,1.369H435.58h-13.143
			C422.242,368.229,422.08,367.764,421.943,367.258z M445.88,374.4c-1.178,0.393-6.896,0.783-10.3,0.783
			c-3.399,0-9.123-0.394-10.298-0.783c-1.174-0.396-1.857-3.717-1.564-3.523c0.293,0.196,7.145,0.684,11.864,0.684
			s11.568-0.484,11.861-0.684C447.739,370.686,447.052,374.008,445.88,374.4z M435.58,370.191c-3.208,0-12.059-0.101-12.646-0.782
			c-0.017-0.019-0.032-0.042-0.049-0.065h12.696h12.693c-0.017,0.023-0.033,0.049-0.05,0.065
			C447.64,370.094,438.787,370.191,435.58,370.191z M435.58,344.748c-9.568,0-28.4-0.975-28.107-1.563
			c0.295-0.586,8.811-11.941,9.688-11.941c0.781,0,14.608,0,17.772,0v0.623c0,0-2.595,0-3.373,0c-0.774,0-0.692,2.605,0,2.605
			c0.691,0,4.022,0,4.022,0s3.327,0,4.021,0c0.691,0,0.778-2.605,0-2.605c-0.777,0-3.372,0-3.372,0v-0.623
			c3.163,0,16.991,0,17.771,0c0.881,0,9.396,11.354,9.688,11.941C463.983,343.77,445.149,344.748,435.58,344.748z M461.73,365.202
			c-0.586,0.489-5.381,0.489-6.36,0c-0.979-0.489-3.628-6.556-3.032-6.556c3.271,0,7.338-0.457,7.338-0.457
			S462.319,364.713,461.73,365.202z M471.518,356.346c0.49,1.026,0.392,8.662,0,9.225c-0.395,0.563-5.873,1.787-6.755,0.904
			c-0.879-0.879-2.9-8.629-2.9-8.629C467.316,357.029,471.029,355.318,471.518,356.346z"/>
		<path fill="#43A0D2" d="M471.256,361.417c0,0-0.422,2.315-0.881,3c-0.455,0.688-2.218,1.472-2.218,1.472s2.414-0.492,2.774-0.914
			C471.291,364.549,471.256,361.417,471.256,361.417z"/>
		<path fill="#43A0D2" d="M463.328,361.549c0,0-0.229-2.086-0.03-2.677c0.196-0.584,1.895-0.877,2.151-1.237
			c0,0-2.022,0.454-2.938,0.586C462.513,358.221,463.135,361.027,463.328,361.549z"/>
		<path fill="#43A0D2" d="M453.382,360.18c0,0,1.532,3.979,2.349,4.438c0.813,0.459,2.837,0.293,2.837,0.293s-1.955-0.49-2.74-1.256
			C455.046,362.885,453.382,360.18,453.382,360.18z"/>
		<circle fill="#43A0D2" cx="435.58" cy="362.723" r="2.51"/>
	</g>
	<path fill="#2C2C2C" d="M354.056,134.276h-6.064H200.658h-6.065H41.195v83.001v5.896v77.466v5.526v83.354h153.398h6.065H347.99
		h6.064h153.388v-83.354v-5.526v-77.465v-5.896v-83L354.056,134.276L354.056,134.276z M200.658,223.174H347.99v77.111H200.658
		V223.174z M347.99,140.157v77.12H200.658v-77.12H347.99L347.99,140.157z M47.074,140.157h147.518v77.12H47.074V140.157z
		 M194.593,223.174v77.111H47.075v-77.111H194.593z M47.074,383.641v-77.113h147.518v77.113H47.074z M200.658,383.641v-77.113
		H347.99v77.113H200.658z M501.56,383.641H354.056v-77.113H501.56V383.641L501.56,383.641z M501.56,300.285H354.056v-77.111H501.56
		V300.285L501.56,300.285z M354.056,217.277v-77.12H501.56v77.12H354.056L354.056,217.277z"/>
	<g>
		<path fill="#145B8E" d="M610.191,354.17c0,0,0,8.822,8.629,6.331C618.82,360.501,611.438,361.361,610.191,354.17z"/>
		<path fill="#145B8E" d="M616.375,349.566c3.021,0.961,5.079,4.315,5.079,4.315C620.256,349.141,616.375,349.566,616.375,349.566z"
			/>
		<path fill="#145B8E" d="M629.799,359.061c-0.19,0.146-1.824,2.203-1.679,2.924c0.146,0.723,6.714,0.723,6.714,0.723
			s-4.939-0.77-5.468-1.104C628.842,361.264,629.799,359.061,629.799,359.061z"/>
		<path fill="#145B8E" d="M612.25,371.955c0,0,2.155,4.652,5.752,3.74C618.006,375.695,615.131,375.264,612.25,371.955z"/>
		<path fill="#145B8E" d="M616.088,369.128c3.883,1.341,3.31,4.22,3.31,4.22s0.573-1.918-0.099-2.879
			C618.629,369.51,616.088,369.128,616.088,369.128z"/>
		<path fill="#145B8E" d="M665.514,360.501c8.629,2.491,8.629-6.331,8.629-6.331C672.896,361.361,665.514,360.501,665.514,360.501z"
			/>
		<path fill="#145B8E" d="M662.875,353.885c0,0,2.061-3.355,5.079-4.316C667.954,349.566,664.073,349.141,662.875,353.885z"/>
		<path fill="#145B8E" d="M673.95,344.631c0.479-0.143,2.106,1.25,4.89,0.577c2.778-0.671,4.78-4.733,0.528-6.854
			c-0.862-0.434-3.784-1.392-6.278,0.334c-2.494,1.729-1.011,4.172-1.011,4.172l-0.422,1.059c-0.051-0.129-0.112-0.268-0.149-0.387
			c-1.056-3.264-3.552-12.944-4.603-14.383c-1.058-1.438-9.974-4.604-24.735-4.604c-14.767,0-23.683,3.164-24.736,4.604
			c-1.055,1.439-3.549,11.119-4.604,14.383c-0.041,0.119-0.098,0.258-0.151,0.387l-0.424-1.059c0,0,1.485-2.445-1.009-4.172
			c-2.491-1.726-5.414-0.765-6.278-0.334c-4.25,2.125-2.25,6.186,0.528,6.854c2.777,0.67,4.41-0.72,4.89-0.577
			c0.338,0.104,0.2,2.057,0.088,3.227c-2.202,3.471-5.086,7.611-5.217,9.861c-0.192,3.356,1.147,27.516,1.147,27.516h13.521v-5.465
			c0,0,12.274,0.674,22.246,0.674c9.971,0,22.245-0.674,22.245-0.674v5.465h13.521c0,0,1.342-24.156,1.146-27.516
			c-0.131-2.25-3.016-6.394-5.221-9.861C673.747,346.688,673.615,344.734,673.95,344.631z M619.922,330.869
			c0.752-0.844,11.086-3.16,21.608-3.254v0.544c0,0-2.541,0-3.306,0c-0.764,0-0.68,3.196,0,3.196c0.681,0,3.94,0,3.94,0
			s3.259,0,3.938,0c0.681,0,0.765-3.196,0-3.196c-0.76,0-3.307,0-3.307,0v-0.544c10.522,0.094,20.854,2.414,21.608,3.254
			c0.767,0.867,3.741,11.125,3.741,11.793c0,0.671-21.286,1.634-25.982,1.634c-4.695,0-25.98-0.958-25.98-1.634
			C616.188,341.992,619.154,331.736,619.922,330.869z M657.316,362.992c-0.382,0.67-10.554,0.764-15.15,0.764
			c-4.604,0-14.762-0.094-15.147-0.764c-0.385-0.67,0.287-3.164,2.974-5.273c2.685-2.109,5.942-2.109,12.176-2.109
			s9.49,0,12.175,2.109C657.029,359.828,657.698,362.322,657.316,362.992z M616.184,376.514c-3.646-0.859-6.25-6.152-4.983-7.19
			c1.631-1.349,8.533-1.247,8.822,1.146C620.307,372.864,619.827,377.369,616.184,376.514z M614.553,364.047
			c-4.492-0.777-5.035-3.74-5.035-3.74s5.418,5.752,11.648,0.957C621.166,361.264,619.536,364.909,614.553,364.047z
			 M618.648,361.042c-5.41,2.597-11.207-3.554-8.396-8.836c0.936-1.753,2.465-2.771,4.131-3.131c3.269-0.698,7.041,1.147,7.78,4.959
			C622.7,356.793,621.184,359.82,618.648,361.042z M654.727,375.648c-2.202,0.959-7.383,0.859-12.557,0.859
			c-5.181,0-10.354,0.1-12.563-0.859c-2.203-0.957-4.41-4.604-2.688-4.604s8.247,0,15.247,0s13.527,0,15.253,0
			C659.139,371.045,656.936,374.689,654.727,375.648z M668.148,376.514c-3.646,0.855-4.125-3.646-3.836-6.045
			c0.286-2.396,7.19-2.494,8.817-1.15C674.4,370.361,671.795,375.652,668.148,376.514z M669.779,364.047
			c-4.983,0.862-6.617-2.779-6.617-2.779c6.236,4.795,11.652-0.959,11.652-0.959S674.27,363.27,669.779,364.047z M665.686,361.042
			c-2.539-1.222-4.055-4.249-3.518-7.008c0.743-3.812,4.518-5.655,7.782-4.954c1.662,0.355,3.194,1.373,4.131,3.129
			C676.891,357.486,671.096,363.639,665.686,361.042z"/>
		<path fill="#145B8E" d="M654.963,361.604c-0.525,0.334-5.461,1.104-5.461,1.104s6.565,0,6.711-0.723
			c0.146-0.721-1.486-2.776-1.679-2.924C654.534,359.061,655.495,361.264,654.963,361.604z"/>
		<path fill="#145B8E" d="M666.327,375.695c3.597,0.912,5.748-3.74,5.748-3.74C669.206,375.264,666.327,375.695,666.327,375.695z"/>
		<path fill="#145B8E" d="M665.034,370.469c-0.67,0.961-0.099,2.879-0.099,2.879s-0.571-2.879,3.31-4.22
			C668.245,369.128,665.704,369.51,665.034,370.469z"/>
		<path fill="#145B8E" d="M642.166,357.434c1.059,0,1.918,0.857,1.918,1.916c0,1.061-0.859,1.914-1.918,1.914
			c-1.058,0-1.914-0.854-1.914-1.914C640.252,358.291,641.109,357.434,642.166,357.434z"/>
	</g>
	<g>
		<path fill="#43A0D2" d="M820.238,358.417c0,0-0.381,1.798,2.072,2.888c2.598,1.153,3.971-0.544,3.971-0.544
			C822.363,361.902,820.238,358.417,820.238,358.417z"/>
		<path fill="#43A0D2" d="M830.695,358.689c0,0-0.351,1.646,1.903,2.656c2.388,1.059,3.651-0.508,3.651-0.508
			C832.65,361.896,830.695,358.689,830.695,358.689z"/>
		<path fill="#43A0D2" d="M828.564,372.471c0,0-0.244,1.152,1.325,1.854c1.669,0.737,2.554-0.354,2.554-0.354
			C829.928,374.709,828.564,372.471,828.564,372.471z"/>
		<path fill="#43A0D2" d="M850.42,342.618c0,0,0.491-0.601,1.309-1.009c0.816-0.407,4.304-1.006,4.304-1.006
			s-4.252,0.16-4.742,0.438C850.801,341.313,850.42,342.618,850.42,342.618z"/>
		<path fill="#43A0D2" d="M894.502,342.658c1.465-0.395,5.161,0.541,5.959,0.143c0.873-0.438,1.67-4.142,0.873-4.646
			c-0.804-0.512-6.104-0.586-6.759,0.285c-0.438,0.593-0.978,1.865-1.278,2.642c-1.478-3.077-6.972-14.313-7.58-15.021
			c-0.65-0.763-16.283-1.742-25.082-1.742c-8.803,0-24.433,0.979-25.088,1.742c-0.604,0.713-6.103,11.943-7.578,15.021
			c-0.306-0.771-0.844-2.049-1.281-2.642c-0.653-0.871-5.955-0.797-6.754-0.285c-0.801,0.508,0,4.211,0.871,4.646
			c0.793,0.398,4.49-0.537,5.959-0.143c-2.537,2.076-8.992,5.311-9.086,7.148c-0.106,2.18,0,13.729,0,13.729s2.944,5.885,3.16,6.757
			c0.221,0.869,1.416,13.728,1.416,13.728h12.855v-5.772h25.521h25.521v5.772h12.854c0,0,1.196-12.854,1.416-13.728
			c0.217-0.874,3.155-6.757,3.155-6.757s0.109-11.551,0-13.729C903.491,347.969,897.036,344.734,894.502,342.658z M837.868,328.49
			c0.959-1.299,16.468-1.568,21.882-1.594v0.722c0,0-3.525,0-4.58,0c-1.056,0-0.941,2.987,0,2.987c0.94,0,5.461,0,5.461,0
			s4.521,0,5.455,0c0.942,0,1.061-2.987,0-2.987c-1.054,0-4.574,0-4.574,0v-0.722c5.414,0.022,20.922,0.295,21.877,1.594
			c1.019,1.38,6.897,12.712,6.25,12.712c-0.653,0-16.055,0-16.055,0s-0.869-1.816-1.744-2.327
			c-0.873-0.506-6.318-0.723-11.209-0.723c-4.894,0-10.342,0.217-11.211,0.723c-0.873,0.511-1.746,2.327-1.746,2.327
			s-15.397,0-16.051,0C830.969,341.202,836.852,329.87,837.868,328.49z M860.635,353.115c7.504,0,16.653,0,17.746,0
			c0.227,0,0.409,0.408,0.551,1.055h-18.295h-18.301c0.141-0.648,0.325-1.055,0.549-1.055
			C843.973,353.115,853.125,353.115,860.635,353.115z M849.35,343.598c0.072-0.58,0.871-2.834,1.234-3.193
			c0.366-0.359,6.104-0.428,10.053-0.438c3.947,0.01,9.685,0.07,10.045,0.438c0.365,0.359,1.162,2.613,1.24,3.193
			c0.069,0.584-8.986,0.51-11.283,0.51C858.334,344.105,849.273,344.182,849.35,343.598z M879.107,360.775h-18.474h-18.478
			c-0.033-0.258-0.06-0.535-0.082-0.825h18.56h18.552C879.163,360.24,879.141,360.518,879.107,360.775z M878.965,361.604
			c-0.142,0.629-0.334,1.026-0.586,1.026c-1.234,0-16.031,0-17.748,0c-1.72,0-16.515,0-17.75,0c-0.25,0-0.443-0.397-0.584-1.026
			h18.338H878.965z M879.234,359.125h-18.601h-18.604c-0.008-0.268-0.014-0.546-0.017-0.827h18.621h18.619
			C879.247,358.579,879.243,358.854,879.234,359.125z M879.245,357.471h-18.61h-18.613c0.005-0.277,0.015-0.554,0.027-0.824h18.586
			h18.582C879.23,356.917,879.24,357.193,879.245,357.471z M879.156,355.825h-18.524H842.1c0.025-0.291,0.056-0.572,0.09-0.832
			h18.441h18.438C879.107,355.253,879.137,355.534,879.156,355.825z M823.907,362.18c-2.379,0-4.312-1.93-4.312-4.307
			c0-2.379,1.933-4.309,4.312-4.309c2.373,0,4.304,1.93,4.304,4.309C828.211,360.25,826.281,362.18,823.907,362.18z
			 M830.825,375.123c-1.483,0-2.688-1.202-2.688-2.686c0-1.481,1.203-2.688,2.688-2.688s2.688,1.204,2.688,2.688
			C833.513,373.921,832.313,375.123,830.825,375.123z M834,362.18c-2.207,0-3.994-1.791-3.994-3.998s1.787-3.994,3.994-3.994
			c2.209,0,3.997,1.787,3.997,3.994S836.209,362.18,834,362.18z M880.559,373.598c-1.237,0-18.065,0-19.928,0
			c-1.865,0-18.693,0-19.933,0c-1.231,0-1.522-2.977-0.649-2.977c0.875,0,18.231,0,20.582,0s19.711,0,20.578,0
			C882.084,370.621,881.791,373.598,880.559,373.598z M883.264,358.182c0-2.207,1.789-3.994,3.998-3.994
			c2.207,0,3.998,1.787,3.998,3.994s-1.791,3.998-3.998,3.998C885.053,362.18,883.264,360.389,883.264,358.182z M890.439,375.123
			c-1.486,0-2.688-1.202-2.688-2.686c0-1.481,1.2-2.688,2.688-2.688c1.483,0,2.688,1.204,2.688,2.688
			C893.129,373.921,891.924,375.123,890.439,375.123z M897.357,362.18c-2.381,0-4.308-1.93-4.308-4.307
			c0-2.379,1.927-4.309,4.308-4.309c2.377,0,4.305,1.93,4.305,4.309C901.661,360.25,899.738,362.18,897.357,362.18z"/>
		<path fill="#43A0D2" d="M894.977,360.761c0,0,1.379,1.697,3.976,0.544c2.451-1.09,2.071-2.888,2.071-2.888
			S898.904,361.902,894.977,360.761z"/>
		<path fill="#43A0D2" d="M890.566,358.689c0,0-1.951,3.205-5.558,2.148c0,0,1.267,1.563,3.651,0.507
			C890.92,360.344,890.566,358.689,890.566,358.689z"/>
		<path fill="#43A0D2" d="M888.822,373.971c0,0,0.886,1.092,2.552,0.354c1.569-0.699,1.327-1.854,1.327-1.854
			S891.338,374.709,888.822,373.971z"/>
		<path fill="#43A0D2" d="M870.846,342.618c0,0-0.381-1.306-0.873-1.577c-0.487-0.271-4.739-0.438-4.739-0.438
			s3.487,0.599,4.305,1.006C870.352,342.018,870.846,342.618,870.846,342.618z"/>
	</g>
	<g>
		<path fill="#283C8F" d="M1045.748,357.973c0,0,0.043,4.266,0.784,4.942c0.744,0.677,7.38,1.149,7.38,1.149s-5.892-1.42-6.5-2.102
			C1046.803,361.291,1045.748,357.973,1045.748,357.973z"/>
		<path fill="#283C8F" d="M1057.941,358.279c-1.552-0.612-4.604-1.084-4.604-1.084s2.922,1.084,4.198,1.963
			c1.275,0.881,4.638,4.132,4.638,4.132S1059.482,358.886,1057.941,358.279z"/>
		<path fill="#283C8F" d="M1116.295,339.729c-0.474,0.479-0.406,4.129-0.744,4.063c-0.19-0.04-0.66,0.157-1.035,0.345
			c-1.653-3.063-7.127-13.51-7.127-13.51h-24.672h-24.676c0,0-5.474,10.441-7.127,13.51c-0.373-0.184-0.845-0.38-1.035-0.345
			c-0.338,0.065-0.269-3.586-0.744-4.063c-0.476-0.474-6.699-0.063-7.515,0.68c-0.813,0.74-1.354,3.931-0.61,4.808
			c0.746,0.88,7.313-0.343,7.783,0c0.223,0.154,0.424,0.628,0.575,1.095c-2.123,2.471-6.261,6.896-6.261,8.59
			c0,2.135,0,29.346,0,29.346h13.304v-4.87c0,0,15.537,0,26.304,0c10.76,0,26.301,0,26.301,0v4.87h13.303c0,0,0-27.211,0-29.346
			c0-1.692-4.141-6.119-6.266-8.59c0.158-0.467,0.358-0.938,0.578-1.095c0.477-0.343,7.043,0.88,7.785,0
			c0.739-0.877,0.204-4.06-0.611-4.808C1122.99,339.658,1116.77,339.255,1116.295,339.729z M1059.866,333.361h22.174v0.953
			c0,0-2.69,0-3.495,0c-0.813,0-0.72,2.707,0,2.707c0.717,0,4.172,0,4.172,0s3.453,0,4.17,0c0.719,0,0.812-2.707,0-2.707
			c-0.808,0-3.5,0-3.5,0v-0.953h22.174l5.588,11.578h-28.434h-28.438L1059.866,333.361z M1065.146,373.518l0.819,3.105
			c-1.654,0-3.117,0-4.281,0l-1.188-2.98C1061.857,373.593,1063.443,373.553,1065.146,373.518z M1066.689,373.49
			c1.678-0.031,3.43-0.051,5.166-0.063l0.655,3.196c-1.851,0-3.647,0-5.304,0L1066.689,373.49z M1071.038,365.654
			c-0.094-0.051-0.196-0.133-0.312-0.229h12.283v-0.812h-13.063c-0.297-0.354-0.609-0.76-0.938-1.219h14v-0.813h-14.56
			c-0.263-0.396-0.521-0.806-0.772-1.22h15.334v-0.814h-15.815c-0.24-0.412-0.468-0.822-0.671-1.219h16.486v-0.813h-16.892
			c-0.213-0.447-0.39-0.858-0.515-1.221h17.401v-0.813h-17.592c-0.017-0.162-0.013-0.297,0.037-0.381
			c0.608-1.017,8.53-0.608,17.264-0.608c8.729,0,16.652-0.405,17.263,0.608c0.049,0.084,0.054,0.219,0.039,0.381h-17.228v0.813
			h17.035c-0.13,0.357-0.302,0.771-0.517,1.221h-16.521v0.813h16.119c-0.205,0.396-0.437,0.807-0.675,1.219h-15.444v0.814h14.961
			c-0.252,0.414-0.514,0.824-0.771,1.22h-14.188v0.813h13.632c-0.328,0.455-0.646,0.865-0.938,1.219h-12.693v0.812h11.916
			c-0.112,0.097-0.221,0.177-0.313,0.229c-1.62,0.914-9.036,1.018-11.676,1.018C1080.082,366.672,1072.661,366.568,1071.038,365.654
			z M1098.741,373.49l-0.521,3.133c-1.651,0-3.451,0-5.302,0l0.652-3.196C1095.318,373.445,1097.064,373.459,1098.741,373.49z
			 M1100.288,373.518c1.701,0.035,3.285,0.075,4.649,0.125l-1.188,2.98c-1.162,0-2.63,0-4.285,0L1100.288,373.518z
			 M1045.045,356.816c0.065-1.096,12.086-0.252,13.401,0.67c1.319,0.924,5.894,6.713,4.47,7.299
			c-1.423,0.588-16.046-0.166-16.957-1.172C1045.045,362.605,1044.943,358.499,1045.045,356.816z M1055.809,374.085
			c-0.104-0.157,1.093-0.278,3.058-0.375l1.496,2.913c-0.638,0-1.093,0-1.31,0C1057.534,376.623,1056.217,374.697,1055.809,374.085z
			 M1073.748,376.623l-0.349-3.211c3.528-0.03,6.894-0.037,9.315-0.037c2.42,0,5.785,0.007,9.317,0.037l-0.353,3.211
			c-3.067,0-6.209,0-8.967,0C1079.956,376.623,1076.818,376.623,1073.748,376.623z M1106.377,376.623c-0.216,0-0.668,0-1.308,0
			l1.495-2.913c1.968,0.097,3.164,0.218,3.063,0.375C1109.223,374.697,1107.9,376.623,1106.377,376.623z M1120.389,356.816
			c0.104,1.683,0,5.789-0.914,6.797c-0.913,1.006-15.534,1.76-16.954,1.172c-1.425-0.586,3.149-6.375,4.467-7.299
			C1108.303,356.561,1120.325,355.723,1120.389,356.816z"/>
		<path fill="#283C8F" d="M1118.902,362.915c0.744-0.673,0.782-4.942,0.782-4.942s-1.051,3.318-1.659,3.993
			c-0.613,0.681-6.502,2.101-6.502,2.101S1118.156,363.592,1118.902,362.915z"/>
		<path fill="#283C8F" d="M1103.262,363.29c0,0,3.36-3.251,4.64-4.132c1.271-0.879,4.198-1.963,4.198-1.963
			s-3.059,0.472-4.603,1.084C1105.95,358.886,1103.262,363.29,1103.262,363.29z"/>
	</g>
	<rect x="-0.5" y="382.7" fill="#2D2C2C" width="1200" height="16.8"/>
</g>
</svg>
