<?xml version="1.0" encoding="utf-8"?>
<!-- Generator: Adobe Illustrator 13.0.0, SVG Export Plug-In . SVG Version: 6.00 Build 14948)  -->
<!DOCTYPE svg PUBLIC "-//W3C//DTD SVG 1.1//EN" "http://www.w3.org/Graphics/SVG/1.1/DTD/svg11.dtd">
<svg version="1.1" id="Layer_1" xmlns="http://www.w3.org/2000/svg" xmlns:xlink="http://www.w3.org/1999/xlink" x="0px" y="0px"
	 width="1200px" height="400px" viewBox="0 1 1200 400" enable-background="new 0 1 1200 400" xml:space="preserve">
<g>
	<g>
		<path fill="#CCCCCC" d="M1148.182,317.71v-45.949h-46.833v57.435h-8.834v20.324h-22.09V338.04h-26.369v-6.937h30.782v-3.813
			h-30.782v-9.14h-3.813v9.14h-6.052v1.901h-7.063v-10.603h-15.021v10.603h-24.745V339.8h-27.396v-16.784h-4.418v-12.375h-4.272
			v-19.3h38.734v-3.813h-38.734v-2.51h-3.817v2.51h-13.996v3.813h13.996v19.3H929.04v24.746h-53.017v-18.561h-5.164v-6.044h21.953
			v-3.813h-21.953v-1.676h-3.812v1.676h-3.396v3.813h3.396v6.044h-15.771v20.33h-11.786v-6.053h11.786v-3.813h-27.396v3.813h11.794
			v6.053h-17.091v8.834h-7.95v-4.424h-7.954V271.76h-5.302v-10.603H780.59v82.176h-31.813v-82.176h-13.252v7.067h-7.067v55.664
			h-11.487v15.021h-5.302v-15.021H689.58v-9.725h-9.719v-11.48h-8.836v-25.623h-14.144v9.717h-35.346v37.113h-18.555v-12.367
			h-22.075v-24.746h-54.771v29.16h-8.525v7.953h-5.61v-50.365h-6.188v-12.368H495.21v10.604h-11.489v42.41h-5.299v9.725h-6.188
			v-30.043h-43.295v24.742H414.8v10.604h-7.952v6.188h-7.948v-7.064l-4.861-4.863v-11.044h-21.649v25.626h-7.951v-6.186H355.6
			V261.16h-7.067v-19.441h-7.955v-9.72h-10.604v-8.05h-15.903v14.23h-8.836v15.021h-5.306v52.092h-9.717v-9.684H277.84v14.146
			h-14.137v-40.646l-5.303-5.301V245.25h-29.16v13.25h-15.021v26.514h-7.071v-5.3h-8.836l-5.302,5.3l-2.294,2.295v61.32H180.64
			v-60.965h-8.836v-6.188h-13.252v9.724h-12.373v15.767h-6.93v-6.933h-3.812v6.933h-16.649v3.813h16.649v20.18h-1.629v16.791
			h-29.161V330.96h-9.719v-19.438l-3.978-3.974v-10.161H74.606v27.395H52.514v17.669H22.47l-3.535-3.534H-0.5v47.719h1153.982
			V317.71h-5.304H1148.182L1148.182,317.71z M146.181,315.943h-6.185v15.021h-0.745v-20.182h6.93V315.943z M1040.243,338.037h-6.049
			v-6.936h6.049V338.037z"/>
		<polygon fill="#FFFFFF" points="908.199,377.777 976,380.9 1041.401,377.777 1039.3,335.6 1042.901,316.344 1049.8,313.102 
			1038.699,306.8 1037.5,280.102 1045.6,267.8 1039.3,257.924 1038.699,234.8 1037.8,221.3 913.901,221.3 911.5,239.602 910,260.3 
			904,265.7 910.6,275.3 908.8,286.398 912.699,296.3 910.6,308 902.5,311.898 911.5,322.398 901,334.1 909.1,352.1 		"/>
		<polygon fill="#FFFFFF" points="633.101,377.777 635.847,373.7 636.049,371.264 635.858,316.339 635.847,267.2 816.393,265.7 
			815.484,372.016 819.162,372.162 817.901,379.1 		"/>
		<rect x="260.102" y="348.716" fill="#EFEEEE" width="0.572" height="13.392"/>
		<rect x="273.29" y="348.716" fill="#EFEEEE" width="0.571" height="13.392"/>
		<g>
			<g>
				<path fill="#283C8F" d="M231.314,189.527c7.134-3.735,17.336-2.438,22.016,4.585c1.607,2.441,3.79,4.326,6.563,5.453
					c-0.225,7.27,0.757,14.492,2.44,21.556c-14.991-0.354-30-0.021-44.993-0.129c1.755-7.046,2.571-14.271,2.478-21.497
					C225.103,197.938,226.56,191.838,231.314,189.527z M235.307,193.835c-4.678,1.591-7.765,7.634-4.662,11.978
					c4.586,7.563,18.909,5.545,19.612-3.848C250.279,194.703,241.258,191.117,235.307,193.835z"/>
			</g>
			<g>
				<path fill="#283C8F" d="M196.544,227.938c0.777-4.547,6.637-6.854,10.258-3.936c3.806,3.363,2.421,8.909,2.956,13.4
					c-4.269,3.923-8.428,7.982-13.383,11.018C196.34,241.598,195.822,234.744,196.544,227.938z M201.499,226.146
					c-2.829,1.85,0.424,6.305,3.089,4.25C207.468,228.564,204.124,223.948,201.499,226.146z"/>
			</g>
			<path fill="#283C8F" d="M216.822,221.785c12.683-0.021,25.379,0.054,38.061-0.077c3.361,0.131,7.336-0.499,9.685,2.756
				c-16.045,0.722-32.126,0.035-48.191,0.351L216.822,221.785z"/>
			<g>
				<path fill="#283C8F" d="M273.848,223.279c3.604-2.331,8.487,0.463,9.244,4.476c0.849,6.745,0.255,13.604,0.295,20.404
					c-4.678-3.179-9.813-6.101-13.015-10.907C270.021,232.561,269.099,226.128,273.848,223.279z M273.979,227.127
					c0.554,1.848,2.92,5.488,4.435,2.404C282.128,226.958,275.362,222.467,273.979,227.127z"/>
			</g>
			<g>
				<path fill="#283C8F" d="M217.357,225.389c14.99,0.074,29.983,0.094,44.993,0.036c5.141,12.328,15.195,22.036,27.654,26.843
					c0.35,1.979,0.127,88.504,0.312,98.063c-33.661,0.03-67.319-0.131-100.982,0.054c0.129-32.681-0.055-65.361-0.035-98.025
					c6.539-2.752,12.586-6.541,18.408-10.605C211.22,236.479,214.382,230.989,217.357,225.389z"/>
			</g>
			<g>
				<path fill="#283C8F" d="M246.672,361.973c-4.935-0.037-9.852-0.02-14.749,0c-0.057,9.666-0.038,19.334-0.057,29.002
					c-16.692,0.021-33.363,0-50.039,0.037c0-1.865,0-5.578,0-7.431c15.213,0.905,30.5,1.106,45.752,0.537
					c-12.718-0.815-25.473,0.091-38.17-0.649c-0.107-10.721-0.092-21.438-0.04-32.16c33.645-0.184,67.303,0,100.964-0.057
					c-0.035,10.852,0,21.703-0.035,32.553c2.457-0.072,4.915-0.135,7.43-0.186c0.038,2.441,0.094,4.898,0.188,7.373
					c-17.063,0-34.104,0-51.167-0.02 M193.884,359.646c-0.223,7.631,0.146,15.266,0.867,22.857c0.668-2.625,1.258-5.25,1.868-7.895
					c10.462,0.369,20.943-0.131,31.423,0.447c-0.148-5.123-0.167-10.229-0.148-15.31
					C216.564,359.604,205.214,359.717,193.884,359.646z M250.612,359.811c0.02,5.049,0.02,10.109-0.04,15.176
					c11.019-0.461,22.056,0,33.068-0.366c0.204,1.366,0.609,4.104,0.813,5.471c-11.479,0.062-22.997-0.735-34.418,0.431
					c11.865,0.605,23.771-0.148,35.639,0.438c0-7.101,0.185-14.19,0.15-21.271C274.068,359.717,262.331,359.604,250.612,359.811z"/>
			</g>
		</g>
		<g>
			<path fill="#43A0D2" d="M918.473,199.361c38.476,0.094,76.947-0.135,115.441,0.115c-0.117,3.189-0.184,6.424-0.204,9.656
				c3.943,0.021,7.862,0.021,11.878,0.115c-1.465,6.492-2.59,13.076-2.749,19.752c3.438,1.354,7.185,2.294,10.249,4.542
				c2.799,3.072,1.749,7.661,2.57,11.493c-4.223-0.025-8.307,0.047-12.453,0.066c-0.023,4.979-0.023,9.979-0.051,14.981
				c3.743,0.021,7.456,0.021,11.245,0.042c0.021,3.582,0.093,7.165,0.152,10.744c-3.874,1.283-12.502-2.475-11.839,4.107
				c3.516,2.226,7.505,3.733,10.897,6.234c1.997,3.146,1.38,7.204,2.044,10.809c-4.178,0.047-8.328,0.094-12.453,0.159
				c-0.023,5.003-0.023,10.005,0.021,15.026c3.694-0.021,7.456,0,11.223,0.021c0,3.534,0.021,7.094,0.093,10.668
				c-3.738,0.143-6.162,0.215-9.832,0.328c-0.207,1.854,0.012,3.896-0.133,5.752c6.354,0.62,11.802-0.048,17.323,3.766
				c3.877,2.382,2.644,7.615,3.692,11.424c-6.65,0-13.28,0-19.887,0c-0.094,11.014-0.051,21.998-0.07,33.035
				c2.732,0.049,5.484,0.14,8.283,0.256c5.021,2.148,10.207,3.939,15.253,6.168c0.092,1.396,0.251,4.172,0.321,5.57
				c-63.318-0.022-126.614,0.051-189.934-0.043c0-1.242,0.047-3.694,0.067-4.938c2.203-1.259,4.402-2.498,6.65-3.757
				c5.622-1.538,11.265-3.122,17.111-3.691c-0.089-10.854-0.047-21.703-0.021-32.558c-6.65-0.021-13.307-0.042-19.912-0.089
				c0.275-3.188,0.758-6.354,1.423-9.477c5.853-6.015,14.796-5.302,22.479-5.603c-0.021-1.399-0.047-4.192-0.063-5.597
				c-3.903-0.207-7.778-0.365-11.638-0.553c0-3.604,0.051-7.154,0.09-10.717c3.79,0,7.597,0,11.451,0.025
				c-0.027-5.049,0-10.073,0.021-15.069c-4.244-0.026-8.441-0.026-12.642,0c0.367-3.397,0.255-6.883,1.396-10.099
				c2.754-3.971,8.188-4.401,12.23-6.426c-1.378-6.188-7.894-4.265-12.529-4.681c0-3.623,0.025-7.229,0.065-10.812
				c3.789-0.043,7.646-0.043,11.473-0.063c-0.021-4.98-0.021-9.959,0-14.916c-4.268-0.068-8.536-0.095-12.774-0.117
				c0.643-3.553,0.186-7.479,1.974-10.689c2.848-3.258,7.479-3.782,11.287-5.393c-0.482-6.697-2.022-13.213-3.445-19.728
				c4.729-0.047,9.437-0.095,14.178-0.095C918.428,205.854,918.428,202.598,918.473,199.361z M923.357,204.867l2.389,3.602
				c29.523,1.059,59.144,0.047,88.714,0.483c5.188-0.276,11.521,1.26,15.027-3.763C994.155,203.95,958.715,204.548,923.357,204.867z
				 M916.707,227.559c2.474,1.445,5.211,2.453,8.166,2.271c29.848,0.021,59.691-0.07,89.518,0.021
				c7.14-0.047,14.381,0.367,21.432-1.146c-1.311-0.484-3.921-1.423-5.208-1.905c-26.847-0.528-53.729-0.022-80.567-0.184
				C938.911,226.826,927.741,225.861,916.707,227.559z M916.936,243.706c-0.021,4.294-0.021,8.604,0,12.919
				c6.771,0,13.562,0,20.354-0.021c-0.021-4.313-0.021-8.625-0.021-12.916C930.471,243.688,923.705,243.688,916.936,243.706z
				 M948.323,243.688c-0.052,4.313-0.052,8.625-0.024,12.963c6.77-0.021,13.56-0.021,20.368-0.049
				c-0.021-4.313-0.043-8.629-0.021-12.918C961.854,243.688,955.064,243.688,948.323,243.688z M979.678,243.732
				c-0.043,4.268-0.021,8.555-0.021,12.867c6.79,0.021,13.558,0.021,20.374,0.021c-0.022-4.313-0.022-8.625,0.021-12.938
				C993.24,243.688,986.448,243.688,979.678,243.732z M1011.041,243.688c-0.021,4.291-0.021,8.625,0,12.938
				c6.77,0,13.559,0,20.349,0c-0.021-4.338-0.021-8.625,0-12.919C1024.6,243.688,1017.811,243.688,1011.041,243.688z M907.461,264.2
				l-0.156,3.164c45.188-0.048,90.388-0.023,135.576,0l0.303-3.146C997.943,264.172,952.702,264.247,907.461,264.2z M916.936,292.35
				c-0.021,4.289-0.045,8.577,0,12.894c6.771,0,13.537,0,20.354,0c-0.021-4.313-0.021-8.628,0-12.914
				C930.493,292.302,923.705,292.302,916.936,292.35z M948.297,292.325c-0.025,4.289-0.025,8.604,0,12.914
				c6.768,0,13.557,0,20.352,0c-0.021-4.31,0-8.603,0.021-12.888C961.854,292.302,955.064,292.302,948.297,292.325z
				 M979.678,292.325c-0.021,4.289-0.043,8.579-0.021,12.914c6.79,0,13.582,0,20.374,0.022c-0.022-4.332-0.022-8.647,0-12.938
				C993.215,292.302,986.448,292.302,979.678,292.325z M1011.041,292.325c-0.021,4.289-0.021,8.604,0,12.914
				c6.77,0,13.559,0,20.349,0c-0.021-4.31-0.021-8.625,0-12.914C1024.6,292.302,1017.811,292.302,1011.041,292.325z
				 M905.073,312.396c6.038,3.42,13.188,1.886,19.801,2.203c40.147-0.57,80.362,1.012,120.467-0.824
				c-2.479-1.426-5.163-2.799-8.054-2.479c-35.146-0.05-70.294,0.021-105.439,0C922.926,311.391,913.886,310.677,905.073,312.396z
				 M915.928,341.787c-0.111,1.763-0.32,5.277-0.438,7.018c12.182,0.023,24.358,0.07,36.546-0.041
				c-0.047-1.746-0.142-5.214-0.161-6.93C939.875,341.877,927.902,341.902,915.928,341.787z M955.178,341.787
				c-0.094,1.744-0.25,5.206-0.348,6.951c5.646,0.066,11.313,0.09,17.002,0.16c0.114-2.344,0.252-4.66,0.416-6.979
				C966.537,341.854,960.848,341.854,955.178,341.787z M978.239,341.877c0.089,2.32,0.206,4.654,0.346,7.021
				c5.392-0.07,10.802-0.07,16.241-0.07c0.021-2.339,0.091-4.654,0.157-6.949C989.383,341.854,983.813,341.854,978.239,341.877z
				 M997.963,341.877c0,1.723-0.021,5.188-0.045,6.928c12.088-0.136,24.229,0.416,36.316-0.229c0.318-1.65,1.008-4.932,1.331-6.581
				C1023.018,341.764,1010.49,341.902,997.963,341.877z M915.607,351.88c-0.026,7.595-0.026,15.188,0.111,22.781
				c12.065-0.022,24.137,0,36.198-0.047c0-7.597,0-15.159,0.026-22.737C939.834,351.855,927.721,351.855,915.607,351.88z
				 M954.994,351.813c-0.047,8.854-0.066,17.711,0.051,26.59c5.641-0.021,11.287,0,16.977,0.115
				c0.064-8.924,0.049-17.828,0.021-26.705C966.354,351.791,960.659,351.791,954.994,351.813z M978.418,351.791
				c-0.066,8.873-0.066,17.732-0.021,26.609c5.48-0.021,10.966-0.021,16.492-0.021c0.025-8.855,0.025-17.717,0-26.568
				C989.383,351.791,983.877,351.791,978.418,351.791z M997.943,351.855c-0.021,7.6-0.021,15.188,0.044,22.806
				c12.274-0.022,24.527-0.047,36.802,0.024c0.025-7.619,0.025-15.23,0.025-22.83C1022.514,351.88,1010.217,351.855,997.943,351.855
				z"/>
		</g>
		<g>
			<g>
				<path fill="#145B8E" d="M697.643,191.811c9.256-21.199,18.027-42.636,27.949-63.566c9.417,21.199,18.479,42.554,27.846,63.753
					c5.427-0.027,10.883-0.053,16.326-0.082c4.342-7.605,8.729-15.158,13.063-22.74c4.65,7.313,8.678,14.698,13.329,22.873
					c3.976-0.075,7.272,0.375,11.618,0.295c-0.023,6.438-0.023,12.848-0.023,19.258c3.354,0,6.75,0.026,10.157,0.026
					c0,4.04,0,8.084,0.023,12.127c-61.463-0.026-122.921,0-184.381-0.026c-0.025-4.043,0-8.086,0-12.127
					c2.361,0.026,7.104,0.075,9.465,0.133c0.053-6.596,0.084-13.19,0.139-19.79c4.063,0,8.106,0,12.206,0
					c4.336-7.658,8.751-15.266,13.219-22.821c4.441,7.605,8.829,15.239,13.244,22.847
					C687.084,191.946,692.35,191.893,697.643,191.811z M718.809,166.386c-0.052,4.469-0.074,8.909-0.131,13.379
					c4.547,0.053,9.124,0.08,13.693,0.105c-0.079-4.547-0.134-9.069-0.214-13.617C727.692,166.304,723.25,166.359,718.809,166.386z
					 M718.732,191.811c0,4.469,0.022,8.96,0.022,13.431c4.468,0.025,8.963,0.053,13.435,0.107c0.052-4.555,0.075-9.103,0.134-13.646
					C727.773,191.732,723.225,191.785,718.732,191.811z"/>
			</g>
			<g>
				<path fill="#145B8E" d="M635.888,227.107c17.739,0,35.477,0,53.214,0c0.03,14.68,0,29.354,0,44.043
					c-17.737,0.105-35.475-0.078-53.214-0.135C635.888,256.393,635.888,241.761,635.888,227.107z"/>
			</g>
			<g>
				<path fill="#145B8E" d="M690.806,227.107c23.009,0.024,46.038,0,69.042,0c0.028,14.68,0,29.354,0.028,44.043
					c-23.032-0.055-46.036,0.029-69.068,0.029C690.752,256.496,690.752,241.813,690.806,227.107z"/>
			</g>
			<g>
				<path fill="#145B8E" d="M761.492,227.159c18.301-0.077,36.626-0.028,54.923-0.028c0,14.653,0,29.313,0,43.962
					c-18.327,0.03-36.622-0.049-54.923,0C761.492,256.441,761.521,241.813,761.492,227.159z"/>
			</g>
			<g>
				<path fill="#145B8E" d="M635.858,272.666c17.768,0.079,35.534,0.236,53.298,0.159c-0.057,14.489-0.057,28.987-0.024,43.481
					c-17.77,0.141-35.507,0.084-53.271,0.023C635.888,301.791,635.888,287.244,635.858,272.666z"/>
			</g>
			<g>
				<path fill="#145B8E" d="M690.778,272.83c23.009,0.049,46.01-0.107,69.012,0c0.058,14.463,0.112,28.938-0.074,43.404
					c-22.979,0.127-45.956,0.127-68.938,0.074C690.752,301.816,690.778,287.316,690.778,272.83z"/>
			</g>
			<g>
				<path fill="#145B8E" d="M761.416,272.771c18.322-0.082,36.646,0.023,54.973-0.026c0.027,14.548,0.027,29.096,0,43.674
					c-18.35-0.024-36.703-0.058-55.026-0.136C761.521,301.768,761.521,287.27,761.416,272.771z"/>
			</g>
			<path fill="#145B8E" d="M636.021,317.989c17.736,0.052,35.479,0.073,53.24,0c-0.072,18.141,0.268,36.271-0.263,54.415
				c-2.181-0.401-6.547-1.195-8.727-1.594c-0.078-10.322,0.531-20.691-0.239-30.987c-8.351-10.505-24.042-9.044-34.279-2.151
				c-0.186,11.145-0.104,22.314-0.082,33.487c-2.418,0.026-7.229,0.075-9.625,0.104C636.049,353.494,636.049,335.73,636.021,317.989
				z"/>
			<path fill="#145B8E" d="M690.806,317.961c23.009,0.053,46.038,0.053,69.067-0.054c-0.188,18.161-0.055,36.354,0,54.522
				c-5.371-0.396-10.721-0.85-16.063-1.195c-0.318-10.533,0.448-21.09-0.431-31.603c-7.687-10.022-24.388-9.31-33.51-1.221
				c-1.967,11.063-0.132,22.526-1.46,33.728c-5.771,0.051-11.568,0.137-17.344,0.188
				C690.487,354.212,690.885,336.068,690.806,317.961z"/>
			<path fill="#145B8E" d="M761.492,317.961c18.301,0.053,36.596,0.08,54.923,0.104c-0.054,17.979,0.157,35.957-0.16,53.975
				c-2.181-0.063-6.515-0.164-8.667-0.188c-0.828-11.359,0.662-22.853-1.168-34.074c-9.47-7.631-25.642-8.028-33.484,1.781
				c-0.879,10.801,0,21.649-0.666,32.444c-3.562,0.06-7.127,0.108-10.659,0.159C761.336,354.107,761.388,336.02,761.492,317.961z"/>
			<path fill="#145B8E" d="M631.58,372.855c62.551,0.348,125.072-0.076,187.598,0.211c-0.05,2.396-0.152,7.213-0.214,9.634
				c-62.471-0.028-124.912-0.058-187.354,0C631.608,380.229,631.608,375.303,631.58,372.855z"/>
		</g>
		<g>
			<circle fill="#FFFFFF" cx="664.121" cy="199.098" r="2.998"/>
			<circle fill="#FFFFFF" cx="672.286" cy="199.098" r="2.998"/>
			<circle fill="#FFFFFF" cx="672.286" cy="207.262" r="2.998"/>
			<circle fill="#FFFFFF" cx="664.121" cy="207.262" r="2.998"/>
		</g>
		<g>
			<circle fill="#FFFFFF" cx="779.76" cy="199.098" r="2.998"/>
			<circle fill="#FFFFFF" cx="787.928" cy="199.098" r="2.998"/>
			<circle fill="#FFFFFF" cx="787.928" cy="207.262" r="2.998"/>
			<circle fill="#FFFFFF" cx="779.76" cy="207.262" r="2.998"/>
		</g>
		<rect x="647.723" y="236.323" fill="#FFFFFF" width="26.804" height="21.601"/>
		<rect x="647.723" y="283.938" fill="#FFFFFF" width="26.804" height="21.604"/>
		<rect x="776.967" y="236.323" fill="#FFFFFF" width="26.801" height="21.601"/>
		<rect x="776.967" y="283.938" fill="#FFFFFF" width="26.801" height="21.604"/>
		<rect x="711.661" y="236.323" fill="#FFFFFF" width="26.802" height="21.601"/>
		<rect x="711.661" y="283.938" fill="#FFFFFF" width="26.802" height="21.604"/>
		<g>
			<rect x="209.281" y="265.761" fill="#FFFFFF" width="13.999" height="22.781"/>
			<rect x="232.413" y="265.761" fill="#FFFFFF" width="13.999" height="22.781"/>
			<rect x="232.413" y="234.463" fill="#FFFFFF" width="13.999" height="22.781"/>
			<rect x="255.543" y="265.761" fill="#FFFFFF" width="13.999" height="22.781"/>
			<rect x="209.281" y="292.973" fill="#FFFFFF" width="13.999" height="22.78"/>
			<rect x="232.413" y="292.973" fill="#FFFFFF" width="13.999" height="22.78"/>
			<rect x="255.543" y="292.973" fill="#FFFFFF" width="13.999" height="22.78"/>
			<rect x="209.281" y="320.184" fill="#FFFFFF" width="13.999" height="22.78"/>
			<rect x="232.413" y="320.184" fill="#FFFFFF" width="13.999" height="22.78"/>
			<rect x="255.543" y="320.184" fill="#FFFFFF" width="13.999" height="22.78"/>
		</g>
		<g>
			<path fill="#CCCCCC" d="M1058.996,129.325c1.772,0,3.388,0.669,4.622,1.766c1.848-3.423,5.458-5.75,9.628-5.75
				c2.287,0,4.406,0.706,6.164,1.908c3.049-5.047,8.592-8.412,14.92-8.412c5.636,0,10.646,2.671,13.833,6.823
				c0.825-0.202,1.684-0.319,2.563-0.319c6.041,0,10.938,4.896,10.938,10.934h-69.618
				C1052.041,132.438,1055.156,129.325,1058.996,129.325z"/>
			<path fill="#CCCCCC" d="M908.179,93.512c1.952,0,3.728,0.742,5.071,1.944c2.029-3.756,6-6.312,10.564-6.312
				c2.514,0,4.843,0.772,6.768,2.093c3.354-5.54,9.438-9.238,16.379-9.238c6.188,0,11.682,2.94,15.184,7.491
				c0.904-0.224,1.849-0.35,2.821-0.35c6.623,0,12,5.373,12,12h-76.421C900.55,96.93,903.965,93.512,908.179,93.512z"/>
			<path fill="#CCCCCC" d="M1090.556,95.087c2.438,0,4.651,0.923,6.337,2.428c2.534-4.694,7.496-7.885,13.207-7.885
				c3.14,0,6.049,0.962,8.454,2.613c4.188-6.914,11.784-11.542,20.462-11.542c7.729,0,14.599,3.669,18.97,9.357
				c1.134-0.273,2.308-0.434,3.524-0.434c8.275,0,14.988,6.715,14.988,14.992h-95.479
				C1081.02,99.354,1085.286,95.087,1090.556,95.087z"/>
			<path fill="#CCCCCC" d="M814.657,124.366c1.645,0,3.14,0.622,4.271,1.639c1.711-3.163,5.051-5.32,8.9-5.32
				c2.114,0,4.07,0.65,5.7,1.764c2.827-4.661,7.942-7.779,13.796-7.779c5.207,0,9.839,2.473,12.781,6.311
				c0.763-0.188,1.555-0.295,2.375-0.295c5.582,0,10.104,4.528,10.104,10.111h-64.361
				C808.23,127.247,811.107,124.366,814.657,124.366z"/>
		</g>
		<g>
			<path fill="#CCCCCC" d="M148.171,129.325c-1.774,0-3.392,0.669-4.622,1.766c-1.847-3.423-5.463-5.75-9.628-5.75
				c-2.287,0-4.408,0.706-6.164,1.908c-3.054-5.047-8.597-8.412-14.922-8.412c-5.638,0-10.644,2.671-13.831,6.823
				c-0.825-0.202-1.686-0.319-2.569-0.319c-6.038,0-10.936,4.896-10.936,10.934h69.626
				C155.125,132.438,152.013,129.325,148.171,129.325z"/>
			<path fill="#CCCCCC" d="M299.001,93.512c-1.953,0-3.729,0.742-5.074,1.944c-2.027-3.756-6-6.312-10.57-6.312
				c-2.51,0-4.838,0.772-6.764,2.093c-3.354-5.54-9.438-9.238-16.38-9.238c-6.187,0-11.685,2.94-15.184,7.491
				c-0.904-0.224-1.849-0.35-2.818-0.35c-6.628,0-12,5.373-12,12h76.425C306.63,96.93,303.215,93.512,299.001,93.512z"/>
			<path fill="#CCCCCC" d="M116.606,95.087c-2.439,0-4.651,0.923-6.34,2.428c-2.534-4.694-7.495-7.885-13.205-7.885
				c-3.138,0-6.047,0.962-8.452,2.613c-4.192-6.914-11.792-11.542-20.47-11.542c-7.728,0-14.597,3.669-18.968,9.357
				c-1.134-0.273-2.312-0.434-3.527-0.434c-8.28,0-14.995,6.715-14.995,14.992h95.494C126.142,99.354,121.874,95.087,116.606,95.087
				z"/>
			<path fill="#CCCCCC" d="M392.531,124.366c-1.646,0-3.137,0.622-4.274,1.639c-1.706-3.163-5.052-5.32-8.897-5.32
				c-2.114,0-4.074,0.65-5.7,1.764c-2.824-4.661-7.947-7.779-13.798-7.779c-5.21,0-9.84,2.473-12.787,6.311
				c-0.762-0.188-1.553-0.295-2.375-0.295c-5.581,0-10.105,4.528-10.105,10.111h64.371
				C398.957,127.247,396.08,124.366,392.531,124.366z"/>
		</g>
		<rect x="189.262" y="351.225" fill="#283C8F" width="101.22" height="40.258"/>
		<g>
			<path fill="#FFFFFF" d="M247.57,386.947h-15.4v-25.129h15.399L247.57,386.947L247.57,386.947z M234.572,384.547h10.602v-20.326
				h-10.602V384.547z"/>
		</g>
		<rect x="197.901" y="362.218" fill="#FFFFFF" width="29.26" height="8.243"/>
		<rect x="253.087" y="362.218" fill="#FFFFFF" width="30.213" height="8.253"/>
		<polygon fill="#FFFFFF" points="341.864,378.301 341.889,375.811 347.743,375.783 347.743,371.352 352.7,366.341 360.501,362.218 
			364.9,345.5 357.242,323.586 357.255,320.605 360.3,308.492 357.194,284.534 357.358,233.295 500.5,227.6 563.199,249.135 
			574.134,284.136 574.134,353.348 580.806,353.32 580.755,363.627 586.729,363.768 586.7,372.744 592.158,372.855 592.116,380.705 
			560.8,377.777 		"/>
		<g>
			<g>
				<path fill="#43A0D2" d="M467.186,125.053c6.979,23.419,13.31,47.018,19.955,70.529c3.096,0.026,6.188,0.038,9.295,0.088
					c3.12-5.765,6.902-11.251,9.436-17.309c0.23-6.559,0.563-13.219-0.537-19.713c3.08-0.014,6.162-0.027,9.256-0.039
					c-0.204,1.968-0.385,3.938-0.522,5.933c1.549-2.739,3.019-5.499,4.512-8.235c7.146,12.105,13.937,24.43,20.711,36.742
					c-0.051-0.984-0.144-2.979-0.191-3.975c2.401-0.014,4.81-0.014,7.224-0.026c-0.42,5.022-0.643,10.073-0.244,15.11
					c1.83,5.062,5.166,9.447,7.594,14.251c11.33-0.013,22.654-0.039,33.98,0.016c-0.039,4.613-0.039,9.229-0.026,13.857
					c-5.841-0.298-11.646,0.089-17.411,0.933c-70.953,0.126-141.898-0.025-212.854,0.077c-0.063-0.752-0.192-2.263-0.269-3.021
					c-3.415,0-6.814,0-10.229,0.018c-0.016-4.629,0-9.246-0.016-13.87c10.677-0.063,21.354,0.063,32.013-0.063
					c2.188-4.18,4.937-8.078,6.66-12.477c0.396-5.752,0.254-11.555-0.229-17.309c1.866,0,3.733,0.013,5.613,0.013
					c-0.132,2.657-0.231,5.279-0.154,7.951c7.774-12.416,14.484-25.467,21.81-38.161c2.953,4.745,5.702,9.641,8.285,14.6
					c3.235-0.65,6.549-0.729,9.847-0.766c-0.524,5.674-0.665,11.418-0.243,17.105c1.072,2.94,2.841,5.558,4.336,8.297
					c4.152,0.027,8.297,0.027,12.45-0.014C453.839,172.071,460.448,148.551,467.186,125.053z M467.069,136.916
					c-7.837,27.396-15.341,54.896-23.013,82.354c-10.646-18.703-21.017-37.568-31.549-56.336
					c-10.775,19.571-21.464,39.178-32.279,58.731c7.4-0.038,14.815,0.24,22.203-0.225c-0.076,1.612-0.15,3.234-0.215,4.858
					c6.1,0.026,12.185-0.014,18.28,0.05c0.05-1.658,0.102-3.322,0.152-4.974c10.229,0.644,20.492,0.153,30.731,0.31
					c19.341-0.154,38.709,0.291,58.039-0.229c-0.063,1.607-0.127,3.22-0.182,4.844c6.139,0.026,12.261,0.026,18.384,0.026
					c-0.051-1.624-0.104-3.246-0.153-4.856c7.711,0.385,15.444,0.219,23.15,0.129c-10.97-19.395-21.519-39.042-32.329-58.527
					c-9.805,17.516-19.421,35.12-29.328,52.568C481.682,189.395,474.548,163.098,467.069,136.916z"/>
			</g>
			<g>
				<path fill="#43A0D2" d="M449.313,208.76c6.11-21.232,11.507-42.671,17.887-63.83c5.84,21.312,11.801,42.598,17.615,63.921
					C472.975,208.787,461.149,208.941,449.313,208.76z M463.258,185.367c-7.351,2.915-8.31,14.242-1.56,18.346
					c5.933,4.396,15.087-0.191,15.621-7.402C478.638,188.868,470.214,181.952,463.258,185.367z"/>
			</g>
			<path fill="#43A0D2" d="M412.416,166.933c4.963,8.515,9.641,17.181,14.385,25.798c-9.462,0-18.936,0.014-28.406,0
				C403.021,184.103,407.802,175.561,412.416,166.933z"/>
			<path fill="#43A0D2" d="M518.269,167.05c4.771,8.513,9.438,17.091,14.102,25.667c-9.436,0.027-18.881,0-28.314,0.027
				C508.744,184.153,513.55,175.626,518.269,167.05z"/>
			<g>
				<path fill="#43A0D2" d="M396.91,195.26c10.443-0.101,20.878-0.038,31.318-0.038c4.41,8.004,8.858,15.979,13.26,23.995
					c-6.969,0.063-13.95-0.333-20.876,0.424c0-6.342-0.244-12.668,0.024-18.996c-2.801-0.039-5.6-0.078-8.389-0.143
					c0.092,1.994,0.191,4,0.271,6.007c2.177,0.077,4.399-0.151,6.562,0.255c0.818,3.285-4.707,1.024-6.66,1.752
					c0.025,5.75,0.025,11.506,0.014,17.271l-1.88,0.012c-0.015-5.792-0.015-11.566-0.015-17.35
					c-2.774-0.026-5.557-0.063-8.334-0.129c0.09,3.617,0.102,7.25,0.142,10.865c-6.147,0.016-12.298,0.016-18.435,0.016
					C388.153,211.191,392.653,203.291,396.91,195.26z M402.332,200.632c-0.038,2.06-0.077,4.118-0.127,6.175
					c2.734-0.166,5.474-0.229,8.208-0.279c0.128-2.008,0.271-4.025,0.445-6.021C408.021,200.581,405.168,200.607,402.332,200.632z"
					/>
			</g>
			<path fill="#43A0D2" d="M502.633,195.225c10.405,0,20.813-0.063,31.22,0.038c4.283,8.031,8.771,15.943,13.065,23.958
				c-6.47,0.016-12.952-0.219-19.396,0.334c0.115-6.313,0.051-12.646,0.065-18.957c-6.087,0-12.184,0-18.271,0
				c-0.28,6.198,0.024,12.411,0,18.627c-6.621-0.039-13.247,0.039-19.854-0.063C493.709,211.104,498.262,203.201,502.633,195.225z"
				/>
			<path fill="#43A0D2" d="M517.438,201.077l1.896,0.077c0,1.803-0.012,3.604,0,5.406c2.57,0.015,5.14,0.015,7.734,0.041
				l-0.115,1.828c-2.53-0.018-5.063-0.018-7.594-0.025c-0.039,5.791-0.022,11.595-0.014,17.396h-1.896c0-5.774,0-11.557,0-17.321
				c-2.441-0.024-4.896-0.049-7.313-0.205c0.077-0.383,0.229-1.138,0.295-1.521c2.313-0.41,4.69-0.179,7.03-0.245
				C517.449,204.684,517.438,202.881,517.438,201.077z"/>
			<path fill="#43A0D2" d="M446.512,219.234c0.69-2.647,1.396-5.271,2.1-7.901c12.335-0.026,24.673-0.015,37.008,0
				c0.647,2.606,1.304,5.215,1.93,7.851C473.867,219.258,460.193,219.154,446.512,219.234z"/>
			<g>
				<path fill="#43A0D2" d="M357.218,236.354c12.785,0,25.582-0.054,38.364,0.021c-0.039,15.014-0.039,30.02,0,45.04
					c-12.784,0.077-25.582-0.013-38.364,0.04C357.218,266.417,357.218,251.385,357.218,236.354z M372.16,246.793
					c0.04,9.382-0.038,18.768,0.052,28.148c6.951-0.063,13.907-0.016,20.861-0.051c-0.025-9.371,0-18.74-0.014-28.109
					C386.097,246.793,379.129,246.781,372.16,246.793z"/>
			</g>
			<g>
				<path fill="#43A0D2" d="M398.521,236.375c10.599-0.089,21.195-0.016,31.795-0.037c-0.026,15.032-0.014,30.063,0,45.112
					c-10.601-0.04-21.197,0.014-31.795-0.04C398.521,266.402,398.547,251.396,398.521,236.375z M401.31,246.793
					c0.051,9.382-0.129,18.768,0.115,28.148c6.901-0.051,13.793-0.051,20.697,0c0.204-9.383,0.05-18.771,0.102-28.148
					C415.243,246.781,408.279,246.781,401.31,246.793z"/>
			</g>
			<g>
				<path fill="#43A0D2" d="M433.332,236.323c10.188,0.026,20.38,0.026,30.567,0c0.049,15.047,0.038,30.094,0.012,45.141
					c-10.188-0.049-20.393-0.037-30.59-0.014C433.256,266.402,433.243,251.355,433.332,236.323z M439.7,246.809
					c0.078,9.366-0.154,18.752,0.15,28.137c6.945-0.063,13.896,0,20.854-0.072c-0.039-9.354-0.012-18.721-0.022-28.074
					C453.686,246.781,446.693,246.77,439.7,246.809z"/>
			</g>
			<g>
				<path fill="#43A0D2" d="M466.916,236.338c10.215,0.037,20.442-0.064,30.671,0.053c-0.04,15.01-0.04,30.004-0.015,45.014
					c-10.214,0.092-20.43-0.014-30.653,0.063C466.891,266.417,466.916,251.37,466.916,236.338z M470.698,246.77
					c-0.063,9.383-0.063,18.775,0,28.162c6.9-0.041,13.817,0.014,20.733-0.054c-0.021-9.356-0.012-18.717,0-28.063
					C484.521,246.77,477.604,246.809,470.698,246.77z"/>
			</g>
			<g>
				<path fill="#43A0D2" d="M500.5,236.389c10.239-0.091,20.479-0.076,30.72,0c-0.052,14.996-0.037,30.004-0.013,45.014
					c-10.227,0.063-20.468,0.052-30.705,0C500.55,266.402,500.55,251.396,500.5,236.389z M507.823,246.77
					c-0.014,9.383-0.025,18.775,0.013,28.162c6.953-0.041,13.919-0.023,20.89-0.016c-0.012-9.38-0.012-18.755,0-28.139
					C521.758,246.781,514.791,246.809,507.823,246.77z"/>
			</g>
			<g>
				<path fill="#43A0D2" d="M534.198,236.323c13.28,0.026,26.563,0.026,39.847,0c0.167,15.071,0.04,30.155,0.077,45.256
					c-13.334-0.331-26.655-0.013-39.975-0.181C534.222,266.365,534.099,251.348,534.198,236.323z M536.946,246.793
					c0.039,9.382-0.091,18.768,0.102,28.165c6.929-0.089,13.873-0.017,20.813-0.089c-0.025-9.359,0.012-18.719-0.025-28.076
					C550.882,246.781,543.912,246.781,536.946,246.793z"/>
			</g>
			<path fill="#43A0D2" d="M374.579,249.107c5.38,0.039,10.774,0.023,16.158,0.023c-0.014,7.803-0.014,15.609,0,23.436
				c-5.396-0.018-10.791-0.022-16.172,0.015C374.489,264.753,374.474,256.936,374.579,249.107z"/>
			<path fill="#43A0D2" d="M442.037,249.135c5.434-0.015,10.879-0.015,16.324,0.016c-0.063,7.795-0.038,15.598-0.014,23.402
				c-5.443,0-10.895,0.028-16.338-0.049C442.064,264.718,442.037,256.918,442.037,249.135z"/>
			<path fill="#43A0D2" d="M473.104,249.096c5.33,0.039,10.659,0.024,16.007,0.024c-0.04,7.813-0.04,15.624-0.014,23.433
				c-5.347,0-10.688-0.009-16.045,0.016C473,264.744,472.948,256.918,473.104,249.096z"/>
			<path fill="#43A0D2" d="M510.175,249.107c5.396,0.039,10.791,0.039,16.188,0c0,7.826,0,15.637,0,23.453
				c-5.396-0.021-10.791-0.021-16.188,0.016C510.101,264.753,510.101,256.936,510.175,249.107z"/>
			<path fill="#43A0D2" d="M539.299,249.12c5.406,0,10.813,0,16.234,0.015c-0.049,7.811-0.038,15.609-0.012,23.418
				c-5.396,0-10.805-0.009-16.198,0.016C539.259,264.753,539.299,256.936,539.299,249.12z"/>
			<path fill="#43A0D2" d="M403.66,249.135c5.396,0,10.803,0,16.209,0c-0.012,7.801-0.024,15.609,0.015,23.434
				c-5.421-0.021-10.831-0.016-16.235-0.016C403.688,264.744,403.66,256.941,403.66,249.135z"/>
			<g>
				<path fill="#43A0D2" d="M357.194,284.534c12.778-0.132,25.563,0.038,38.348-0.075c0.041,12.043,0,24.085,0.026,36.127
					c-12.771,0-25.542-0.052-38.313,0.021C357.152,308.591,357.267,296.563,357.194,284.534z M372.173,288.568
					c0,9.387-0.013,18.771,0.015,28.141c6.953,0,13.907,0.016,20.873,0c0-9.384,0.028-18.77-0.012-28.141
					C386.085,288.568,379.129,288.568,372.173,288.568z"/>
			</g>
			<g>
				<path fill="#43A0D2" d="M398.534,284.455c10.6,0.104,21.208-0.063,31.808,0.089c-0.092,12.021,0.012,24.035-0.063,36.049
					c-10.586-0.049-21.171-0.012-31.755-0.024C398.559,308.544,398.534,296.499,398.534,284.455z M401.334,288.584
					c-0.05,9.371-0.023,18.741-0.023,28.125c6.97,0,13.945,0,20.914,0c-0.021-9.384,0.016-18.754-0.021-28.141
					C415.243,288.568,408.289,288.559,401.334,288.584z"/>
			</g>
			<g>
				<path fill="#43A0D2" d="M433.283,284.469c10.214,0.051,20.438,0,30.654,0.037c0,12.021-0.026,24.047,0.012,36.078
					c-10.228-0.018-20.452-0.018-30.684-0.018C433.296,308.544,433.267,296.499,433.283,284.469z M439.713,288.584
					c-0.013,9.371-0.013,18.741,0,28.125c6.994,0.016,13.975,0.016,20.967,0c0-9.384,0.022-18.77-0.018-28.141
					C453.686,288.584,446.693,288.559,439.713,288.584z"/>
			</g>
			<g>
				<path fill="#43A0D2" d="M466.903,284.494c10.214-0.016,20.428,0.012,30.643,0c0.025,12.017,0.012,24.05,0.012,36.09
					c-10.214-0.025-20.44,0-30.652-0.018C466.903,308.544,466.916,296.523,466.903,284.494z M470.674,288.559
					c-0.024,9.383-0.013,18.771,0,28.148c6.919,0,13.835,0.016,20.75,0c0-9.382,0.037-18.768-0.013-28.148
					C484.494,288.584,477.593,288.568,470.674,288.559z"/>
			</g>
			<g>
				<path fill="#43A0D2" d="M500.5,284.559c10.226-0.179,20.451,0,30.683-0.09c0.024,12.03,0.014,24.07,0,36.1
					c-10.199,0-20.418-0.01-30.62,0.029C500.472,308.579,500.589,296.563,500.5,284.559z M507.813,288.584
					c0,9.371,0,18.741,0,28.113c6.97,0.012,13.945,0.072,20.926-0.063c-0.036-9.348-0.021-18.692-0.014-28.034
					C521.758,288.559,514.781,288.568,507.813,288.584z"/>
			</g>
			<g>
				<path fill="#43A0D2" d="M534.158,284.494c13.336-0.194,26.682,0.422,39.976-0.358c-0.05,23.074-0.089,46.14,0,69.212
					c2.213-0.01,4.436-0.022,6.672-0.022c-0.013,3.429-0.021,6.864-0.051,10.306c1.981,0.037,3.979,0.077,5.974,0.145
					c-0.016,2.988-0.025,5.981-0.025,8.977c-79.656,0-159.3,0-238.957,0c0.025-3.005,0.04-6.023,0.064-9.016
					c1.971-0.049,3.949-0.074,5.932-0.113c-0.049-3.262-0.063-6.535-0.063-9.781c0.848-0.218,2.545-0.648,3.402-0.867
					c0.383-9.779-0.017-19.584,0.164-29.379c24.343,0.063,48.683,0.026,73.036,0.016c0.142,15.404-0.167,30.812,0.15,46.199
					c0.666-0.27,1.995-0.815,2.66-1.086c0.459-15.021,0.063-30.063,0.18-45.089c21.438-0.014,42.863-0.014,64.291,0
					c0.114,14.958-0.229,29.938,0.151,44.886c0.681,0.293,2.031,0.867,2.709,1.15c0.258-15.352,0.037-30.708,0.115-46.061
					c21.513,0.037,43.028,0,64.559,0.027c2.62-0.096,5.367,0.395,7.837-0.794c-0.014-0.536-0.039-1.627-0.051-2.159
					c-12.897-0.271-25.824-0.016-38.724-0.104C534.171,308.544,534.158,296.523,534.158,284.494z M537.021,288.559
					c-0.139,9.383-0.052,18.771-0.075,28.148c6.968,0.016,13.937,0.016,20.898-0.014c0-9.368,0.041-18.754-0.022-28.125
					C550.896,288.568,543.95,288.584,537.021,288.559z M445.605,331.193c-3.018,1.828-1.767,5.895-2.303,8.809
					c15.954,0.051,31.922,0.027,47.875,0.012c-0.396-3.229,0.688-7.756-3.105-9.318c-7.749-4.002-16.835-4.189-25.361-3.875
					C456.855,327.282,450.681,327.997,445.605,331.193z M373.516,331.818c-3.155,1.459-2.21,5.371-2.749,8.154
					c16.021,0.104,32.024,0.053,48.044,0.025c-0.422-2.932,0.281-6.939-3.044-8.372c-6.685-3.619-14.56-4.026-22.001-4.093
					C386.889,327.793,379.615,328.305,373.516,331.818z M514.074,331.896c-3.057,1.562-2.098,5.354-2.428,8.143
					c15.939-0.049,31.881,0.027,47.838-0.037c-0.477-2.672,0.422-6.328-2.379-7.95c-6.383-3.877-14.146-4.321-21.401-4.54
					C528.366,327.716,520.556,328.1,514.074,331.896z M371.001,342.596c-0.053,7.762-0.042,15.532-0.028,23.293
					c15.895-0.05,31.781,0.049,47.66-0.05c-0.013-7.739-0.013-15.469,0-23.192C402.752,342.557,386.875,342.659,371.001,342.596z
					 M443.406,342.65c0.013,7.449,0,14.906,0,22.354c15.892,0.014,31.781,0.014,47.672,0c-0.027-7.465,0.087-14.943-0.104-22.411
					C475.121,342.659,459.257,342.557,443.406,342.65z M511.688,342.609c-0.015,7.761-0.015,15.519,0,23.279
					c15.891-0.016,31.77,0,47.657-0.016c-0.013-7.749-0.013-15.507,0-23.255C543.451,342.609,527.574,342.622,511.688,342.609z"/>
			</g>
			<path fill="#43A0D2" d="M374.514,290.938c5.396-0.025,10.791-0.015,16.198-0.025c0.036,7.813,0,15.638,0.036,23.443
				c-5.406-0.021-10.813-0.015-16.221,0C374.5,306.547,374.514,298.736,374.514,290.938z"/>
			<path fill="#43A0D2" d="M403.673,290.924c5.396,0,10.791,0,16.188-0.015c0.026,7.813,0,15.624,0.026,23.446
				c-5.405-0.022-10.814-0.018-16.225-0.018C403.66,306.533,403.66,298.725,403.673,290.924z"/>
			<path fill="#43A0D2" d="M442.05,290.924c5.421,0,10.842,0,16.274-0.015c0.013,7.813,0,15.638,0.013,23.446
				c-5.444-0.018-10.881-0.022-16.313-0.018C442.064,306.533,442.037,298.736,442.05,290.924z"/>
			<path fill="#43A0D2" d="M473.015,290.924c5.354,0,10.699,0,16.057-0.015c0.026,7.813,0,15.624,0.026,23.446
				c-5.369-0.018-10.729-0.018-16.083-0.018C473.015,306.533,473.015,298.725,473.015,290.924z"/>
			<path fill="#43A0D2" d="M510.162,290.924c5.406,0,10.813-0.015,16.226,0.027c-0.063,7.811,0,15.617-0.041,23.436
				c-5.383-0.063-10.763-0.054-16.132,0C510.06,306.559,510.149,298.736,510.162,290.924z"/>
			<path fill="#43A0D2" d="M539.286,290.924c5.407,0,10.803,0,16.209-0.015c0.026,7.813,0,15.624,0.026,23.433
				c-5.424,0-10.828,0-16.235,0C539.299,306.533,539.286,298.736,539.286,290.924z"/>
			<path fill="#43A0D2" d="M341.889,375.811c83.393,0,166.779,0.041,250.167-0.023c0.055,3.271,0.078,6.556,0.104,9.847
				c-83.439-0.052-166.868,0.052-250.296-0.052C341.875,382.314,341.875,379.059,341.889,375.811z"/>
		</g>
		<rect x="-0.5" y="382.7" fill="#2D2C2C" width="1200" height="16.8"/>
	</g>
	<g>
		<path fill="#CCCCCC" d="M569.472,99.397c-1.229,0-2.349,0.463-3.197,1.223c-1.276-2.371-3.782-3.98-6.666-3.98
			c-1.584,0-3.056,0.487-4.271,1.322c-2.117-3.497-5.953-5.827-10.337-5.827c-3.901,0-7.37,1.851-9.578,4.728
			c-0.571-0.142-1.167-0.221-1.778-0.221c-4.185,0-7.574,3.389-7.574,7.569h48.224C574.291,101.552,572.132,99.397,569.472,99.397z"
			/>
		<path fill="#CCCCCC" d="M547.612,75.685c-1.688,0-3.223,0.641-4.393,1.682c-1.755-3.25-5.188-5.459-9.146-5.459
			c-2.174,0-4.188,0.664-5.854,1.807c-2.902-4.787-8.168-7.991-14.177-7.991c-5.352,0-10.108,2.541-13.138,6.481
			c-0.788-0.192-1.603-0.3-2.443-0.3c-5.734,0-10.384,4.651-10.384,10.385h66.137C554.217,78.644,551.259,75.685,547.612,75.685z"/>
		<path fill="#CCCCCC" d="M629.534,112.604c1.229,0,2.352,0.463,3.2,1.225c1.281-2.37,3.781-3.98,6.668-3.98
			c1.586,0,3.053,0.488,4.268,1.32c2.119-3.497,5.953-5.827,10.336-5.827c3.904,0,7.374,1.851,9.582,4.725
			c0.568-0.138,1.162-0.22,1.772-0.22c4.188,0,7.572,3.389,7.572,7.569h-48.218C624.719,114.759,626.872,112.604,629.534,112.604z"
			/>
		<path fill="#CCCCCC" d="M651.393,88.892c1.689,0,3.224,0.639,4.396,1.682c1.751-3.249,5.188-5.459,9.144-5.459
			c2.174,0,4.188,0.666,5.856,1.807c2.896-4.787,8.161-7.991,14.17-7.991c5.354,0,10.109,2.541,13.141,6.481
			c0.78-0.192,1.602-0.302,2.438-0.302c5.732,0,10.387,4.651,10.387,10.385H644.79C644.787,91.849,647.745,88.892,651.393,88.892z"
			/>
	</g>
</g>
<rect x="-0.5" y="-0.5" fill="none" width="1200" height="400"/>
</svg>
