<?xml version="1.0" encoding="utf-8"?>
<!-- Generator: Adobe Illustrator 13.0.0, SVG Export Plug-In . SVG Version: 6.00 Build 14948)  -->
<!DOCTYPE svg PUBLIC "-//W3C//DTD SVG 1.1//EN" "http://www.w3.org/Graphics/SVG/1.1/DTD/svg11.dtd">
<svg version="1.1" id="Layer_1" xmlns="http://www.w3.org/2000/svg" xmlns:xlink="http://www.w3.org/1999/xlink" x="0px" y="0px"
	 width="1200px" height="400px" viewBox="0 0 1200 400" enable-background="new 0 0 1200 400" xml:space="preserve">
<rect fill="none" width="1200" height="400"/>
<g>
	<rect x="1021.102" y="262.672" fill="#47A0D1" width="158.803" height="128.428"/>
	<path fill="none" d="M398.95,284.643l10.843-10.849l5.012,5.013l66.565-66.563c-0.708-1.448-1.137-3.045-1.241-4.741H385.9v9.6
		h-14.698c0.293,3.453,0.729,6.858,1.304,10.219l14.853-3.979l5.59,20.863l-14.938,4.004c1.18,3.242,2.505,6.408,3.944,9.518
		l13.302-7.68l10.8,18.707l-13.333,7.695C394.689,279.261,396.755,282.004,398.95,284.643z"/>
	<path fill="none" d="M425.065,122.756l-6.29,6.288l66.438,67.042c1.344-0.874,3.884-1.507,3.884-1.825V99.5h-7.198V85.116
		c-2.4,0.284-6.568,0.718-10.083,1.308l3.982,13.751l-20.714,5.589l-3.646-13.881c-3.245,1.166-6.382,2.485-9.49,3.916l7.126,12.31
		l-18.696,10.797l-7.148-12.395c-2.821,1.962-5.566,4.021-8.207,6.208L425.065,122.756z"/>
	<path fill="none" d="M372.701,184.982c-0.623,3.46-1.112,6.964-1.439,10.519H385.9v7.2h94.851c0.396-1.176,0.914-2.283,1.612-3.277
		l-66.983-66.983l-5.593,5.59l-10.108-10.113c-2.218,2.616-4.316,5.328-6.313,8.122l12.277,7.09l-10.802,18.705l-12.431-7.176
		c-1.466,3.094-2.81,6.256-4.013,9.487l13.759,3.688l-5.597,20.863L372.701,184.982z"/>
	<path fill="none" d="M481.9,328.284v-15.187h7.198v-93.957c0-0.447-3.735-1.533-5.405-3.031L417.899,282.2l7.018,6.866
		l-10.808,10.884c2.621,2.213,5.376,4.306,8.18,6.291l7.678-13.271l18.719,10.803l-7.715,13.369c3.103,1.453,6.267,2.806,9.5,3.998
		l3.986-14.867l20.867,5.588l-4.6,14.918C474.59,327.467,479.5,327.968,481.9,328.284z"/>
	<path fill="none" d="M499.405,217.063c-1.445,1.021-3.104,1.739-5.505,2.08V313.1h9.6v15.008c4.8-0.322,7.136-0.801,10.344-1.383
		l-3.623-14.637l21.018-5.593l3.969,14.535c3.231-1.21,6.434-2.55,9.526-4.019l-7.557-13.123l18.712-10.804l7.496,12.972
		c2.796-1.99,5.508-4.099,8.124-6.313l-10.672-10.675l5.291-5.594L499.405,217.063z"/>
	<path fill="none" d="M503.5,85.297V99.5h-9.6v94.757c2.398,0.213,2.771,0.598,3.769,1.085l67.873-67.573l-4.862-5.013l9.909-9.836
		c-2.636-2.193-5.338-4.26-8.148-6.229l-6.971,12.099l-18.697-10.8l6.971-12.068c-3.104-1.437-6.271-2.765-9.514-3.942l-3.633,13.56
		l-20.863-5.59l3.009-13.473C509.892,85.99,508.3,85.58,503.5,85.297z"/>
	<path fill="none" d="M599.5,207.5h-94.172c-0.144,2.244-0.828,4.337-1.986,6.111l66.477,66.475l6.288-6.291l10.604,10.604
		c2.188-2.644,4.245-5.39,6.208-8.207l-13.087-7.555l10.797-18.71l13.003,7.513c1.432-3.114,2.751-6.287,3.919-9.532L592.9,243.98
		l5.588-20.864l14.521,3.894c0.552-3.258,0.965-6.563,1.249-9.91H599.5V207.5z"/>
	<path fill="none" d="M585.979,128.155l-9.877,9.875l-6.864-6.867l-67.101,67.102c1.145,1.272,2.015,2.774,2.569,4.437H599.5v-7.2
		h14.689c-0.313-3.449-0.785-6.85-1.385-10.21l-13.543,3.629l-5.59-20.863l13.492-3.616c-1.193-3.233-2.543-6.396-3.999-9.495
		l-12.137,7.006l-10.8-18.705l12.032-6.948C590.281,133.496,588.188,130.775,585.979,128.155z"/>
	<path fill="#45A0D1" d="M508.3,339.611c67.2-8.282,117.83-64.709,117.83-132.91c0-73.887-59.813-134-133.701-134
		c-73.888-0.001-134.447,60.112-134.447,133.998c0,68.186,51.922,124.6,116.722,132.904V363.5h-81.602v26.398h82.802h33.601H589.9
		V363.5h-81.602L508.3,339.611L508.3,339.611z M454.45,306.273l-3.983,14.869c-3.232-1.195-6.396-2.545-9.497-3.998l7.721-13.371
		l-18.709-10.801l-7.659,13.271c-2.803-1.986-5.521-4.076-8.142-6.291l10.885-10.886l-6.869-6.866l65.494-66.091
		c1.67,1.498,5.405,2.586,5.405,3.031V313.1h-7.198v15.188c-2.4-0.315-7.312-0.817-11.182-1.506l4.299-14.919L454.45,306.273z
		 M395.25,250.045l-13.302,7.68c-1.438-3.105-2.769-6.271-3.945-9.518l14.938-4.005l-5.592-20.862l-14.85,3.977
		c-0.577-3.357-1.011-6.768-1.304-10.219H385.9v-9.6h94.226c0.106,1.695,0.535,3.29,1.243,4.741l-66.565,66.563l-5.012-5.012
		l-10.843,10.849c-2.193-2.64-4.26-5.378-6.23-8.193l13.333-7.695L395.25,250.045z M378.4,164.147
		c1.205-3.231,2.549-6.394,4.013-9.487l12.431,7.176l10.803-18.705l-12.278-7.09c1.994-2.794,4.098-5.506,6.313-8.122l10.108,10.111
		l5.593-5.59l66.982,66.982c-0.698,0.994-1.221,2.104-1.612,3.277H385.9v-7.2h-14.64c0.325-3.552,0.813-7.056,1.439-10.519
		l13.86,3.717l5.597-20.863L378.4,164.147z M430.389,118.904l18.708-10.797l-7.104-12.309c3.108-1.431,6.284-2.75,9.525-3.917
		l3.723,13.881l20.861-5.589l-4.282-13.75c3.513-0.59,7.684-1.024,10.083-1.308V99.5h7.199v94.761c0,0.318-2.543,0.951-3.885,1.825
		l-66.74-67.042l6.44-6.288l-9.964-10.04c2.64-2.189,5.427-4.248,8.245-6.208L430.389,118.904z M530.599,105.543l3.636-13.56
		c3.241,1.175,6.406,2.505,9.516,3.942l-6.964,12.068l18.708,10.8l6.987-12.099c2.813,1.967,5.554,4.037,8.188,6.229l-9.834,9.836
		l5.013,5.014l-68.177,67.569c-0.995-0.487-1.368-0.87-3.769-1.085V99.5h9.601V85.297c4.8,0.283,6.392,0.693,9.242,1.181
		l-3.312,13.473L530.599,105.543z M591.035,161.95l12.135-7.006c1.455,3.099,2.806,6.262,4.004,9.495l-13.495,3.616l5.588,20.863
		l13.544-3.629c0.6,3.36,1.067,6.761,1.384,10.21H599.5v7.2h-94.796c-0.554-1.658-1.427-3.161-2.569-4.437l67.101-67.102
		l6.865,6.867l9.875-9.875c2.212,2.619,4.303,5.341,6.287,8.142l-12.031,6.948L591.035,161.95z M571.506,299.75
		c-2.613,2.217-5.325,4.316-8.121,6.311l-7.491-12.967l-18.701,10.805l7.572,13.123c-3.097,1.467-6.259,2.807-9.487,4.019
		l-3.896-14.535l-20.864,5.593l3.322,14.641c-3.208,0.576-5.544,1.059-10.345,1.378v-15.013h-9.602v-93.955
		c2.4-0.344,4.063-1.063,5.506-2.08l66.718,66.416l-5.439,5.593L571.506,299.75z M621.101,217.1h-6.849
		c-0.28,3.346-0.698,6.652-1.252,9.91l-14.521-3.894l-5.587,20.864l14.646,3.927c-1.161,3.245-2.482,6.418-3.913,9.532
		l-13.006-7.513l-10.799,18.709l13.088,7.556c-1.963,2.817-4.021,5.563-6.208,8.207l-10.604-10.604l-6.289,6.291l-66.475-66.475
		c1.158-1.774,1.846-3.867,1.985-6.111H599.5v9.6h14.752H621.101v-21.6V217.1z"/>
	<path fill="#2E2D2D" d="M699.841,387.884l-17.203-137.805l7.12-99.778l0.881-12.401l-0.881,12.401
		c8.23-3.531,13.083-9.642,13.083-16.601c0-10.024-9.741-18.286-26.541-19.599V44.3h-7.2v69.71
		c-14.396,1.037-26.259,9.454-26.259,19.69c0,6.959,5.751,13.069,13.979,16.601l7.269,99.778l-17.128,137.806l-5.926,2.018h31.2
		h2.396h31.2L699.841,387.884z"/>
	<polygon fill="#145C8F" points="728.674,97.469 728.674,394.672 812.119,394.672 812.119,98.213 810.104,97.469 	"/>
	<rect x="738.611" y="130.671" fill="#FFFFFF" width="23.197" height="4.8"/>
	<rect x="781.01" y="130.671" fill="#FFFFFF" width="22.4" height="4.8"/>
	<rect x="738.611" y="142.671" fill="#FFFFFF" width="23.197" height="7.199"/>
	<rect x="781.01" y="169.071" fill="#FFFFFF" width="22.4" height="7.2"/>
	<rect x="738.611" y="169.071" fill="#FFFFFF" width="23.197" height="7.2"/>
	<rect x="781.01" y="183.471" fill="#FFFFFF" width="22.4" height="4.8"/>
	<rect x="781.01" y="195.471" fill="#FFFFFF" width="22.4" height="7.2"/>
	<rect x="738.611" y="221.873" fill="#FFFFFF" width="23.197" height="7.197"/>
	<rect x="781.01" y="221.873" fill="#FFFFFF" width="22.4" height="7.197"/>
	<rect x="738.611" y="248.271" fill="#FFFFFF" width="23.197" height="7.199"/>
	<rect x="781.01" y="248.271" fill="#FFFFFF" width="22.4" height="7.199"/>
	<rect x="781.01" y="262.672" fill="#FFFFFF" width="22.4" height="4.801"/>
	<rect x="738.611" y="274.672" fill="#FFFFFF" width="23.197" height="7.201"/>
	<rect x="738.611" y="301.07" fill="#FFFFFF" width="23.197" height="7.199"/>
	<rect x="781.01" y="301.07" fill="#FFFFFF" width="22.4" height="7.199"/>
	<rect x="738.611" y="315.473" fill="#FFFFFF" width="23.197" height="4.801"/>
	<rect x="781.01" y="327.473" fill="#FFFFFF" width="22.4" height="7.198"/>
	<rect x="738.611" y="353.873" fill="#FFFFFF" width="23.197" height="7.197"/>
	<rect x="781.01" y="353.873" fill="#FFFFFF" width="22.4" height="7.197"/>
	<rect x="738.611" y="368.271" fill="#FFFFFF" width="23.197" height="4.799"/>
	<path fill="#45A0D1" d="M1019.5,221.9v-40.8h8.002c0-23.587-17.604-43.021-41.604-45.969V111.5h-9.601v23.381
		c-21.601,1.843-41.603,21.807-41.603,46.219h5.603v40.8h-19.2v33.507c-7.197-12.394-19.197-20.948-36-22.125V217.1H875.5v16.432
		c-21.602,2.951-39.201,22.384-39.201,45.972h5.604V392.3H935.5v-4.8h6h79.199h18V221.9H1019.5z M954.699,219.5v-33.6h7.199v33.6
		H954.699z M983.5,219.5h-7.2v-28.8v-4.8h7.2V219.5z M997.9,219.5v-33.6h7.196v33.6H997.9z M863.5,339.5h-7.2v-33.602h7.2V339.5z
		 M885.1,339.5H877.9v-33.602h7.196L885.1,339.5L885.1,339.5z M906.699,339.5H899.5v-33.602h7.199V339.5z M961.9,339.5h-7.2v-33.602
		h7.2V339.5z M961.9,279.5h-7.2v-33.602h7.2V279.5z M983.5,339.5h-7.2v-33.602h7.2V339.5z M983.5,279.5h-7.2v-33.602h7.2V279.5z
		 M1005.1,339.5H997.9v-33.602h7.196L1005.1,339.5L1005.1,339.5z M1005.1,279.5H997.9v-33.602h7.196L1005.1,279.5L1005.1,279.5z"/>
	<rect x="954.699" y="185.9" fill="#FFFFFF" width="7.199" height="33.601"/>
	<polygon fill="#FFFFFF" points="976.3,190.7 976.3,219.5 983.5,219.5 983.5,185.9 976.3,185.9 	"/>
	<rect x="997.9" y="185.9" fill="#FFFFFF" width="7.196" height="33.601"/>
	<rect x="954.699" y="245.898" fill="#FFFFFF" width="7.199" height="33.604"/>
	<rect x="976.3" y="245.898" fill="#FFFFFF" width="7.2" height="33.604"/>
	<rect x="997.9" y="245.898" fill="#FFFFFF" width="7.196" height="33.604"/>
	<rect x="856.3" y="305.898" fill="#FFFFFF" width="7.2" height="33.604"/>
	<rect x="877.9" y="305.898" fill="#FFFFFF" width="7.196" height="33.604"/>
	<rect x="899.5" y="305.898" fill="#FFFFFF" width="7.199" height="33.604"/>
	<rect x="954.699" y="305.898" fill="#FFFFFF" width="7.199" height="33.604"/>
	<rect x="976.3" y="305.898" fill="#FFFFFF" width="7.2" height="33.604"/>
	<rect x="997.9" y="305.898" fill="#FFFFFF" width="7.196" height="33.604"/>
	<path fill="#145C8F" d="M280.3,257.898v-12h8.391c-0.211-33.6-27.59-62.834-63.59-64.695V145.1h-9.6v36.284
		c-31.2,3.021-58.584,30.916-58.791,64.517h5.991v12H117.1v129.6h208.8V257.898H280.3z M184.3,248.3h74.4v9.601h-74.4V248.3
		L184.3,248.3z M138.7,341.898h-4.8v-24h4.801L138.7,341.898L138.7,341.898z M138.7,305.898h-4.8v-24h4.801L138.7,305.898
		L138.7,305.898z M162.7,341.898h-4.8v-24h4.801L162.7,341.898L162.7,341.898z M186.7,305.898h-4.8v-24h4.801L186.7,305.898
		L186.7,305.898z M210.7,341.898h-4.8v-24h4.801L210.7,341.898L210.7,341.898z M210.7,305.898h-4.8v-24h4.801L210.7,305.898
		L210.7,305.898z M234.7,341.898h-4.8v-24h4.801L234.7,341.898L234.7,341.898z M258.7,341.898h-4.8v-24h4.801L258.7,341.898
		L258.7,341.898z M258.7,305.898h-4.8v-24h4.801L258.7,305.898L258.7,305.898z M282.7,305.898h-4.8v-24h4.801L282.7,305.898
		L282.7,305.898z M306.699,341.898h-4.8v-24h4.8V341.898z M306.699,305.898h-4.8v-24h4.8V305.898z"/>
	<rect x="133.9" y="281.898" fill="#FFFFFF" width="4.801" height="24"/>
	<rect x="205.9" y="281.898" fill="#FFFFFF" width="4.801" height="24"/>
	<rect x="277.9" y="281.898" fill="#FFFFFF" width="4.801" height="24"/>
	<rect x="301.9" y="281.898" fill="#FFFFFF" width="4.8" height="24"/>
	<rect x="133.9" y="317.898" fill="#FFFFFF" width="4.801" height="24"/>
	<rect x="157.9" y="317.898" fill="#FFFFFF" width="4.801" height="24"/>
	<rect x="205.9" y="317.898" fill="#FFFFFF" width="4.801" height="24"/>
	<rect x="229.9" y="317.898" fill="#FFFFFF" width="4.801" height="24"/>
	<rect x="253.9" y="281.898" fill="#FFFFFF" width="4.801" height="24"/>
	<rect x="253.9" y="317.898" fill="#FFFFFF" width="4.801" height="24"/>
	<rect x="181.9" y="281.898" fill="#FFFFFF" width="4.801" height="24"/>
	<rect x="301.9" y="317.898" fill="#FFFFFF" width="4.8" height="24"/>
	<rect x="184.3" y="248.3" fill="#FFFFFF" width="74.4" height="9.601"/>
	<rect x="-0.5" y="382.7" fill="#2E2D2D" width="1200" height="16.8"/>
	<path fill="#CDCCCC" d="M152.072,148.753c-1.774,0-3.393,0.669-4.621,1.766c-1.849-3.422-5.465-5.75-9.63-5.75
		c-2.286,0-4.408,0.706-6.162,1.908c-3.056-5.047-8.598-8.412-14.924-8.412c-5.638,0-10.644,2.672-13.832,6.823
		c-0.824-0.201-1.685-0.319-2.566-0.319c-6.039,0-10.938,4.896-10.938,10.935h69.629
		C159.028,151.865,155.915,148.753,152.072,148.753z"/>
	<path fill="#CDCCCC" d="M120.508,114.516c-2.438,0-4.651,0.925-6.339,2.429c-2.533-4.694-7.494-7.887-13.205-7.887
		c-3.139,0-6.048,0.962-8.453,2.615c-4.193-6.916-11.792-11.542-20.469-11.542c-7.729,0-14.598,3.669-18.967,9.357
		c-1.136-0.274-2.313-0.435-3.528-0.435c-8.281,0-14.996,6.715-14.996,14.993h95.494
		C130.046,118.784,125.776,114.516,120.508,114.516z"/>
	<path fill="#CDCCCC" d="M1066.707,144.884c1.776,0,3.393,0.67,4.622,1.767c1.853-3.423,5.464-5.751,9.634-5.751
		c2.281,0,4.407,0.706,6.158,1.908c3.055-5.047,8.596-8.412,14.921-8.412c5.642,0,10.649,2.671,13.838,6.823
		c0.825-0.202,1.683-0.319,2.563-0.319c6.047,0,10.938,4.896,10.938,10.936h-69.621
		C1059.752,147.997,1062.868,144.884,1066.707,144.884z"/>
	<path fill="#CDCCCC" d="M1098.27,110.648c2.438,0,4.649,0.924,6.342,2.429c2.528-4.694,7.492-7.887,13.199-7.887
		c3.144,0,6.055,0.962,8.457,2.613c4.188-6.914,11.786-11.542,20.459-11.542c7.733,0,14.599,3.67,18.97,9.357
		c1.134-0.273,2.31-0.434,3.522-0.434c8.28,0,14.993,6.715,14.993,14.993h-95.482
		C1088.732,114.915,1093.002,110.648,1098.27,110.648z"/>
</g>
</svg>
