<?xml version="1.0" encoding="utf-8"?>
<!-- Generator: Adobe Illustrator 13.0.0, SVG Export Plug-In . SVG Version: 6.00 Build 14948)  -->
<!DOCTYPE svg PUBLIC "-//W3C//DTD SVG 1.1//EN" "http://www.w3.org/Graphics/SVG/1.1/DTD/svg11.dtd">
<svg version="1.1" id="Layer_1" xmlns="http://www.w3.org/2000/svg" xmlns:xlink="http://www.w3.org/1999/xlink" x="0px" y="0px"
	 width="1200px" height="400px" viewBox="0 0 1200 400" enable-background="new 0 0 1200 400" xml:space="preserve">
<rect fill="none" width="1200" height="400"/>
<g>
	<g>
		<g>
			<g>
				<path fill="#283C8F" d="M93.608,52.4c-0.142-0.199-0.417-0.25-0.619-0.108l-79.867,55.697c0.219,0.206,0.438,0.415,0.661,0.62
					l79.716-55.594C93.7,52.876,93.748,52.6,93.608,52.4z"/>
			</g>
			<g>
				<path fill="#283C8F" d="M232.845,109.471c-0.104,0-0.211-0.039-0.297-0.113L214.457,93.02L98.864,53.073
					c-0.231-0.08-0.354-0.332-0.272-0.565c0.079-0.23,0.333-0.353,0.562-0.273l115.679,39.977c0.053,0.02,0.104,0.05,0.15,0.091
					l17.863,16.128l17.861-16.07c0.183-0.166,0.463-0.151,0.627,0.033c0.163,0.184,0.148,0.463-0.034,0.627l-18.158,16.338
					C233.056,109.432,232.95,109.471,232.845,109.471z"/>
			</g>
		</g>
		<g>
			<g>
				<path fill="#283C8F" d="M251.335,92.393c-0.164-0.184-0.444-0.199-0.627-0.035l-17.861,16.07l-17.572-15.861
					c-0.23,0.19-0.459,0.383-0.684,0.578l17.959,16.213c0.084,0.076,0.188,0.113,0.297,0.113s0.213-0.037,0.298-0.113l18.158-16.338
					C251.483,92.854,251.498,92.57,251.335,92.393z"/>
			</g>
		</g>
		<g>
			<path fill="#283C8F" d="M107.032,92.71c-0.313,0-0.589-0.215-0.65-0.53l-7.918-38.861h-4.658l-6.559,38.838
				c-0.061,0.359-0.403,0.604-0.766,0.545c-0.36-0.063-0.607-0.405-0.547-0.768l6.653-39.393c0.053-0.32,0.333-0.552,0.655-0.552
				h5.767c0.316,0,0.588,0.22,0.65,0.53l8.021,39.394c0.074,0.36-0.16,0.71-0.52,0.782C107.118,92.706,107.076,92.71,107.032,92.71z
				"/>
		</g>
		<g>
			<path fill="#283C8F" d="M103.11,73.236c-0.104,0-0.211-0.038-0.293-0.11L91.268,62.939c-0.184-0.162-0.204-0.444-0.04-0.627
				c0.161-0.183,0.443-0.199,0.626-0.039l11.549,10.186c0.186,0.161,0.201,0.443,0.041,0.627
				C103.355,73.186,103.235,73.236,103.11,73.236z"/>
		</g>
		<g>
			<path fill="#283C8F" d="M89.843,73.236c-0.123,0-0.243-0.049-0.329-0.146c-0.163-0.18-0.151-0.46,0.032-0.625l11.19-10.187
				c0.183-0.164,0.464-0.152,0.628,0.029c0.168,0.182,0.151,0.461-0.027,0.625L90.141,73.121
				C90.054,73.199,89.951,73.236,89.843,73.236z"/>
		</g>
		<g>
			<g>
				<path fill="#283C8F" d="M107.992,132.5c-0.077,0-0.158-0.021-0.233-0.064l-23.654-14.49c-0.213-0.127-0.274-0.4-0.147-0.609
					s0.399-0.273,0.608-0.146l23.656,14.492c0.21,0.127,0.277,0.4,0.146,0.608C108.288,132.423,108.144,132.5,107.992,132.5z"/>
			</g>
			<g>
				<path fill="#283C8F" d="M84.335,132.5c-0.151,0-0.295-0.074-0.377-0.211c-0.129-0.208-0.064-0.482,0.148-0.609l23.654-14.49
					c0.211-0.127,0.483-0.063,0.609,0.146c0.132,0.209,0.063,0.481-0.146,0.608l-23.657,14.492
					C84.494,132.479,84.414,132.5,84.335,132.5z"/>
			</g>
		</g>
		<g>
			<g>
				<path fill="#283C8F" d="M107.992,146.989c-0.077,0-0.158-0.021-0.233-0.065l-23.654-14.49c-0.213-0.127-0.274-0.399-0.147-0.609
					c0.127-0.209,0.399-0.275,0.608-0.146l23.656,14.49c0.21,0.128,0.277,0.4,0.146,0.609
					C108.288,146.914,108.144,146.989,107.992,146.989z"/>
			</g>
			<g>
				<path fill="#283C8F" d="M84.335,146.989c-0.151,0-0.295-0.075-0.377-0.212c-0.129-0.209-0.064-0.481,0.148-0.609l23.654-14.49
					c0.211-0.13,0.483-0.063,0.609,0.146c0.132,0.21,0.063,0.482-0.146,0.609l-23.657,14.49
					C84.494,146.971,84.414,146.989,84.335,146.989z"/>
			</g>
		</g>
		<g>
			<g>
				<path fill="#283C8F" d="M107.992,161.48c-0.077,0-0.158-0.021-0.233-0.065l-23.654-14.491c-0.213-0.127-0.274-0.4-0.147-0.609
					s0.399-0.274,0.608-0.146l23.656,14.491c0.21,0.128,0.277,0.4,0.146,0.609C108.288,161.406,108.144,161.48,107.992,161.48z"/>
			</g>
			<g>
				<path fill="#283C8F" d="M84.335,161.48c-0.151,0-0.295-0.074-0.377-0.213c-0.129-0.207-0.064-0.48,0.148-0.608l23.654-14.491
					c0.211-0.129,0.483-0.063,0.609,0.146c0.132,0.205,0.063,0.481-0.146,0.608l-23.657,14.491
					C84.494,161.459,84.414,161.48,84.335,161.48z"/>
			</g>
		</g>
		<g>
			<g>
				<path fill="#283C8F" d="M107.992,175.971c-0.077,0-0.158-0.021-0.233-0.066l-23.654-14.488c-0.213-0.126-0.274-0.4-0.147-0.609
					c0.127-0.207,0.399-0.271,0.608-0.146l23.656,14.491c0.21,0.128,0.277,0.4,0.146,0.606
					C108.288,175.896,108.144,175.971,107.992,175.971z"/>
			</g>
			<g>
				<path fill="#283C8F" d="M84.335,175.971c-0.151,0-0.295-0.072-0.377-0.213c-0.129-0.206-0.064-0.48,0.148-0.607l23.654-14.49
					c0.211-0.129,0.483-0.063,0.609,0.146c0.132,0.209,0.063,0.482-0.146,0.608l-23.657,14.489
					C84.494,175.95,84.414,175.971,84.335,175.971z"/>
			</g>
		</g>
		<g>
			<g>
				<path fill="#283C8F" d="M107.992,190.46c-0.077,0-0.158-0.021-0.233-0.063l-23.654-14.491c-0.213-0.124-0.274-0.4-0.147-0.607
					c0.127-0.208,0.399-0.276,0.608-0.146l23.656,14.488c0.21,0.127,0.277,0.401,0.146,0.609
					C108.288,190.389,108.144,190.46,107.992,190.46z"/>
			</g>
			<g>
				<path fill="#283C8F" d="M84.335,190.46c-0.151,0-0.295-0.073-0.377-0.211c-0.129-0.208-0.064-0.481,0.148-0.608l23.654-14.49
					c0.211-0.129,0.483-0.062,0.609,0.146c0.132,0.209,0.063,0.483-0.146,0.607l-23.657,14.49
					C84.494,190.441,84.414,190.46,84.335,190.46z"/>
			</g>
		</g>
		<g>
			<g>
				<path fill="#283C8F" d="M107.992,204.951c-0.077,0-0.158-0.02-0.233-0.064l-23.654-14.49c-0.213-0.129-0.274-0.4-0.147-0.609
					c0.127-0.206,0.399-0.273,0.608-0.146l23.656,14.491c0.21,0.127,0.277,0.401,0.146,0.609
					C108.288,204.878,108.144,204.951,107.992,204.951z"/>
			</g>
			<g>
				<path fill="#283C8F" d="M84.335,204.951c-0.151,0-0.295-0.071-0.377-0.211c-0.129-0.206-0.064-0.482,0.148-0.609l23.654-14.49
					c0.211-0.129,0.483-0.061,0.609,0.146c0.132,0.209,0.063,0.481-0.146,0.608l-23.657,14.491
					C84.494,204.932,84.414,204.951,84.335,204.951z"/>
			</g>
		</g>
		<g>
			<g>
				<path fill="#283C8F" d="M107.992,219.443c-0.077,0-0.158-0.022-0.233-0.064l-23.654-14.492c-0.213-0.127-0.274-0.4-0.147-0.609
					c0.127-0.207,0.399-0.271,0.608-0.146l23.656,14.49c0.21,0.128,0.277,0.401,0.146,0.61
					C108.288,219.365,108.144,219.443,107.992,219.443z"/>
			</g>
			<g>
				<path fill="#283C8F" d="M84.335,219.443c-0.151,0-0.295-0.075-0.377-0.211c-0.129-0.211-0.064-0.483,0.148-0.611l23.654-14.49
					c0.211-0.127,0.483-0.061,0.609,0.146c0.132,0.209,0.063,0.48-0.146,0.607l-23.657,14.492
					C84.494,219.421,84.414,219.443,84.335,219.443z"/>
			</g>
		</g>
		<g>
			<g>
				<path fill="#283C8F" d="M107.992,233.934c-0.077,0-0.158-0.021-0.233-0.064L84.105,219.38c-0.213-0.128-0.274-0.401-0.147-0.61
					s0.399-0.271,0.608-0.146l23.656,14.494c0.21,0.129,0.277,0.397,0.146,0.608C108.288,233.857,108.144,233.934,107.992,233.934z"
					/>
			</g>
			<g>
				<path fill="#283C8F" d="M84.335,233.934c-0.151,0-0.295-0.074-0.377-0.211c-0.129-0.211-0.064-0.481,0.148-0.607l23.654-14.494
					c0.211-0.127,0.483-0.063,0.609,0.146c0.132,0.211,0.063,0.481-0.146,0.609l-23.657,14.491
					C84.494,233.91,84.414,233.934,84.335,233.934z"/>
			</g>
		</g>
		<g>
			<g>
				<path fill="#283C8F" d="M107.992,248.422c-0.077,0-0.158-0.02-0.233-0.064l-23.654-14.488c-0.213-0.126-0.274-0.398-0.147-0.609
					c0.127-0.205,0.399-0.271,0.608-0.145l23.656,14.486c0.21,0.127,0.277,0.403,0.146,0.609
					C108.288,248.348,108.144,248.422,107.992,248.422z"/>
			</g>
			<g>
				<path fill="#283C8F" d="M84.335,248.422c-0.151,0-0.295-0.074-0.377-0.211c-0.129-0.206-0.064-0.482,0.148-0.609l23.654-14.486
					c0.211-0.133,0.483-0.063,0.609,0.145c0.132,0.211,0.063,0.483-0.146,0.609l-23.657,14.488
					C84.494,248.402,84.414,248.422,84.335,248.422z"/>
			</g>
		</g>
		<g>
			<g>
				<path fill="#283C8F" d="M107.992,262.916c-0.077,0-0.158-0.023-0.233-0.064l-23.654-14.494
					c-0.213-0.127-0.274-0.397-0.147-0.608c0.127-0.206,0.399-0.272,0.608-0.146l23.656,14.488c0.21,0.133,0.277,0.403,0.146,0.609
					C108.288,262.841,108.144,262.916,107.992,262.916z"/>
			</g>
			<g>
				<path fill="#283C8F" d="M84.335,262.916c-0.151,0-0.295-0.075-0.377-0.216c-0.129-0.206-0.064-0.478,0.148-0.609l23.654-14.489
					c0.211-0.131,0.483-0.061,0.609,0.146c0.132,0.211,0.063,0.482-0.146,0.609l-23.657,14.494
					C84.494,262.893,84.414,262.916,84.335,262.916z"/>
			</g>
		</g>
		<g>
			<g>
				<path fill="#283C8F" d="M107.992,277.404c-0.077,0-0.158-0.022-0.233-0.064l-23.654-14.488
					c-0.213-0.133-0.274-0.402-0.147-0.615c0.127-0.204,0.399-0.271,0.608-0.146l23.656,14.489c0.21,0.131,0.277,0.402,0.146,0.613
					C108.288,277.33,108.144,277.404,107.992,277.404z"/>
			</g>
			<g>
				<path fill="#283C8F" d="M84.335,277.404c-0.151,0-0.295-0.074-0.377-0.211c-0.129-0.211-0.064-0.482,0.148-0.613l23.654-14.489
					c0.211-0.126,0.483-0.062,0.609,0.146c0.132,0.213,0.063,0.482-0.146,0.615L84.564,277.34
					C84.494,277.382,84.414,277.404,84.335,277.404z"/>
			</g>
		</g>
		<g>
			<g>
				<path fill="#283C8F" d="M107.992,291.895c-0.077,0-0.158-0.02-0.233-0.064l-23.654-14.488c-0.213-0.132-0.274-0.402-0.147-0.607
					c0.127-0.211,0.399-0.272,0.608-0.15l23.656,14.494c0.21,0.126,0.277,0.402,0.146,0.609
					C108.288,291.818,108.144,291.895,107.992,291.895z"/>
			</g>
			<g>
				<path fill="#283C8F" d="M84.335,291.895c-0.151,0-0.295-0.074-0.377-0.211c-0.129-0.207-0.064-0.481,0.148-0.607l23.654-14.494
					c0.211-0.122,0.483-0.063,0.609,0.148c0.132,0.207,0.063,0.479-0.146,0.609l-23.657,14.488
					C84.494,291.875,84.414,291.895,84.335,291.895z"/>
			</g>
		</g>
		<g>
			<g>
				<path fill="#283C8F" d="M107.992,306.389c-0.077,0-0.158-0.022-0.233-0.07L84.105,291.83c-0.213-0.126-0.274-0.396-0.147-0.609
					c0.127-0.205,0.399-0.271,0.608-0.145l23.656,14.486c0.21,0.127,0.277,0.403,0.146,0.614
					C108.288,306.309,108.144,306.389,107.992,306.389z"/>
			</g>
			<g>
				<path fill="#283C8F" d="M84.335,306.389c-0.151,0-0.295-0.08-0.377-0.212c-0.129-0.211-0.064-0.487,0.148-0.614l23.654-14.486
					c0.211-0.127,0.483-0.063,0.609,0.146c0.132,0.211,0.063,0.481-0.146,0.607l-23.657,14.488
					C84.494,306.364,84.414,306.389,84.335,306.389z"/>
			</g>
		</g>
		<g>
			<rect x="84.04" y="146.102" fill="#283C8F" width="24.396" height="1.037"/>
		</g>
		<g>
			<rect x="84.04" y="175.009" fill="#283C8F" width="24.396" height="1.037"/>
		</g>
		<g>
			<rect x="84.04" y="203.917" fill="#283C8F" width="24.396" height="1.034"/>
		</g>
		<g>
			<rect x="84.04" y="232.827" fill="#283C8F" width="24.396" height="1.03"/>
		</g>
		<g>
			<rect x="84.04" y="261.73" fill="#283C8F" width="24.396" height="1.035"/>
		</g>
		<g>
			<rect x="84.04" y="290.639" fill="#283C8F" width="24.396" height="1.037"/>
		</g>
		<g>
			<g>
				<path fill="#283C8F" d="M107.992,320.802c-0.077,0-0.158-0.022-0.233-0.065l-23.654-14.492
					c-0.213-0.126-0.274-0.398-0.147-0.609c0.127-0.205,0.399-0.271,0.608-0.145l23.656,14.486c0.21,0.133,0.277,0.403,0.146,0.614
					C108.288,320.723,108.144,320.802,107.992,320.802z"/>
			</g>
			<g>
				<path fill="#283C8F" d="M84.335,320.802c-0.151,0-0.295-0.079-0.377-0.211c-0.129-0.211-0.064-0.481,0.148-0.614l23.654-14.486
					c0.211-0.129,0.483-0.063,0.609,0.145c0.132,0.213,0.063,0.483-0.146,0.609l-23.657,14.492
					C84.494,320.777,84.414,320.802,84.335,320.802z"/>
			</g>
		</g>
		<g>
			<rect x="84.04" y="319.541" fill="#283C8F" width="24.396" height="1.038"/>
		</g>
		<g>
			<g>
				<path fill="#283C8F" d="M107.992,334.648c-0.077,0-0.158-0.021-0.233-0.063l-23.654-14.489
					c-0.213-0.134-0.274-0.402-0.147-0.613c0.127-0.207,0.399-0.271,0.608-0.146l23.656,14.493c0.21,0.127,0.277,0.397,0.146,0.608
					C108.288,334.574,108.144,334.648,107.992,334.648z"/>
			</g>
			<g>
				<path fill="#283C8F" d="M84.335,334.648c-0.151,0-0.295-0.072-0.377-0.211c-0.129-0.211-0.064-0.482,0.148-0.609l23.654-14.493
					c0.211-0.127,0.483-0.06,0.609,0.147c0.132,0.211,0.063,0.479-0.146,0.613l-23.657,14.488
					C84.494,334.63,84.414,334.648,84.335,334.648z"/>
			</g>
		</g>
		<g>
			<g>
				<path fill="#283C8F" d="M107.992,349.063c-0.077,0-0.158-0.019-0.233-0.063L84.105,334.51c-0.213-0.126-0.274-0.4-0.147-0.607
					c0.127-0.211,0.399-0.276,0.608-0.146l23.656,14.488c0.21,0.127,0.277,0.396,0.146,0.607
					C108.288,348.988,108.144,349.063,107.992,349.063z"/>
			</g>
			<g>
				<path fill="#283C8F" d="M84.335,349.063c-0.151,0-0.295-0.072-0.377-0.211c-0.129-0.211-0.064-0.48,0.148-0.607l23.654-14.488
					c0.211-0.134,0.483-0.064,0.609,0.146c0.132,0.207,0.063,0.481-0.146,0.607l-23.657,14.489
					C84.494,349.044,84.414,349.063,84.335,349.063z"/>
			</g>
		</g>
		<g>
			<rect x="84.04" y="347.807" fill="#283C8F" width="24.396" height="1.036"/>
		</g>
		<g>
			<g>
				<path fill="#283C8F" d="M107.992,362.91c-0.077,0-0.158-0.02-0.233-0.063l-23.654-14.492c-0.213-0.127-0.274-0.403-0.147-0.609
					c0.127-0.211,0.399-0.27,0.608-0.146l23.656,14.489c0.21,0.132,0.277,0.402,0.146,0.609
					C108.288,362.835,108.144,362.91,107.992,362.91z"/>
			</g>
			<g>
				<path fill="#283C8F" d="M84.335,362.91c-0.151,0-0.295-0.075-0.377-0.211c-0.129-0.207-0.064-0.479,0.148-0.609l23.654-14.488
					c0.211-0.127,0.483-0.064,0.609,0.146c0.132,0.206,0.063,0.48-0.146,0.607L84.566,362.85
					C84.494,362.891,84.414,362.91,84.335,362.91z"/>
			</g>
		</g>
		<g>
			<g>
				<path fill="#283C8F" d="M107.992,377.324c-0.077,0-0.158-0.02-0.233-0.063L84.105,362.77c-0.213-0.127-0.274-0.396-0.147-0.608
					c0.127-0.207,0.399-0.271,0.608-0.146l23.656,14.488c0.21,0.131,0.277,0.4,0.146,0.607
					C108.288,377.249,108.144,377.324,107.992,377.324z"/>
			</g>
			<g>
				<path fill="#283C8F" d="M84.335,377.324c-0.151,0-0.295-0.075-0.377-0.211c-0.129-0.207-0.064-0.479,0.148-0.609l23.654-14.488
					c0.211-0.127,0.483-0.063,0.609,0.146c0.132,0.213,0.063,0.48-0.146,0.607l-23.657,14.494
					C84.494,377.305,84.414,377.324,84.335,377.324z"/>
			</g>
		</g>
		<g>
			<rect x="84.04" y="376.066" fill="#283C8F" width="24.396" height="1.037"/>
		</g>
		<g>
			<path fill="#283C8F" d="M219.812,186.968c-1.972,0-3.575-1.604-3.575-3.577c0-0.367,0.298-0.666,0.664-0.666
				c0.367,0,0.667,0.299,0.667,0.666c0,1.237,1.01,2.246,2.247,2.246c1.239,0,2.247-1.006,2.247-2.246
				c0-1.238-1.008-2.246-2.247-2.246c-0.367,0-0.665-0.299-0.665-0.664v-1.856c0-0.367,0.301-0.664,0.665-0.664
				c0.366,0,0.666,0.297,0.666,0.664v1.254c1.653,0.312,2.911,1.769,2.911,3.515C223.392,185.361,221.786,186.968,219.812,186.968z"
				/>
		</g>
		<g>
			<g>
				<path fill="#283C8F" d="M217.375,165.029c-0.247,0-0.444-0.198-0.444-0.443V113.01c0-0.246,0.197-0.443,0.444-0.443
					c0.244,0,0.442,0.197,0.442,0.443v51.576C217.815,164.831,217.619,165.029,217.375,165.029z"/>
			</g>
			<g>
				<path fill="#283C8F" d="M222.251,165.029c-0.245,0-0.444-0.198-0.444-0.443V113.01c0-0.246,0.199-0.443,0.444-0.443
					c0.248,0,0.446,0.197,0.446,0.443v51.576C222.698,164.831,222.499,165.029,222.251,165.029z"/>
			</g>
		</g>
		<g>
			<g>
				<g>
					<rect x="83.596" y="116.586" fill="#283C8F" width="1.479" height="260.568"/>
				</g>
				<g>
					<rect x="107.253" y="116.586" fill="#283C8F" width="1.479" height="260.568"/>
				</g>
				<g>
					<rect x="83.596" y="116.586" fill="#283C8F" width="25.138" height="3.525"/>
				</g>
			</g>
			<g>
				<rect x="85.295" y="109.729" fill="#283C8F" width="21.737" height="6.857"/>
			</g>
		</g>
		<g>
			<rect x="46.639" y="108.322" fill="#283C8F" width="230.806" height="1.404"/>
		</g>
		<g>
			<rect x="71.147" y="92.046" fill="#283C8F" width="185.45" height="1.168"/>
		</g>
		<g>
			<polygon fill="#283C8F" points="71.147,92.046 54.76,108.322 54.76,109.729 71.147,93.214 			"/>
		</g>
		<g>
			<polygon fill="#283C8F" points="256.598,92.046 277.444,108.322 277.444,109.729 256.598,93.214 			"/>
		</g>
		<g>
			<path fill="#283C8F" d="M89.308,109.471c-0.106,0-0.213-0.039-0.3-0.113L71.591,93.63v14.694c0,0.249-0.199,0.443-0.444,0.443
				c-0.248,0-0.446-0.197-0.446-0.443V92.631c0-0.176,0.103-0.334,0.264-0.406c0.158-0.068,0.348-0.039,0.478,0.077l17.861,16.128
				l17.86-16.07c0.183-0.166,0.46-0.151,0.627,0.033c0.163,0.184,0.15,0.463-0.032,0.627l-18.16,16.338
				C89.519,109.432,89.413,109.471,89.308,109.471z"/>
		</g>
		<g>
			<path fill="#283C8F" d="M125.19,109.471c-0.104,0-0.213-0.039-0.295-0.113L106.734,92.96c-0.183-0.163-0.194-0.444-0.033-0.623
				c0.166-0.183,0.448-0.198,0.629-0.034l17.859,16.129l17.863-16.072c0.18-0.166,0.46-0.15,0.627,0.035
				c0.163,0.183,0.148,0.463-0.034,0.625l-18.158,16.34C125.401,109.432,125.296,109.471,125.19,109.471z"/>
		</g>
		<g>
			<path fill="#283C8F" d="M161.076,109.471c-0.109,0-0.215-0.039-0.298-0.113L142.619,92.96c-0.18-0.163-0.197-0.444-0.033-0.623
				c0.165-0.183,0.446-0.198,0.626-0.034l17.864,16.129l17.86-16.072c0.183-0.166,0.463-0.15,0.625,0.035
				c0.163,0.183,0.151,0.463-0.033,0.625l-18.158,16.34C161.289,109.432,161.181,109.471,161.076,109.471z"/>
		</g>
		<g>
			<path fill="#283C8F" d="M196.96,109.471c-0.108,0-0.213-0.039-0.3-0.113L178.502,92.96c-0.184-0.163-0.197-0.444-0.034-0.623
				c0.164-0.183,0.446-0.198,0.627-0.034l17.863,16.129l17.862-16.072c0.182-0.166,0.463-0.15,0.625,0.035
				c0.166,0.183,0.151,0.463-0.033,0.625l-18.158,16.34C197.171,109.432,197.065,109.471,196.96,109.471z"/>
		</g>
		<g>
			<path fill="#283C8F" d="M256.598,109.471c-0.247,0-0.444-0.199-0.444-0.443V92.632c0-0.247,0.199-0.444,0.444-0.444
				c0.245,0,0.444,0.197,0.444,0.444v16.396C257.04,109.271,256.843,109.471,256.598,109.471z"/>
		</g>
		<g>
			<path fill="#283C8F" d="M228.134,111.428h-16.642c-0.732,0-1.328-0.594-1.328-1.326v-0.375h19.296v0.375
				C229.46,110.836,228.868,111.428,228.134,111.428z"/>
		</g>
		<g>
			<rect x="212.181" y="111.428" fill="#283C8F" width="15.635" height="3.162"/>
		</g>
		<g>
			<rect x="57.276" y="376.066" fill="#283C8F" width="77.332" height="10.945"/>
		</g>
		<g>
			<rect x="57.276" y="376.066" fill="#283C8F" width="77.332" height="3.55"/>
		</g>
		<g>
			<path fill="#283C8F" d="M50.104,109.729H11.401v-1.135c0-2.232,1.811-4.042,4.042-4.042h30.624c2.23,0,4.04,1.81,4.04,4.042
				v1.135H50.104z"/>
		</g>
		<g>
			<path fill="#283C8F" d="M222.242,178.623h-5.091c-0.736,0-1.362-0.532-1.483-1.258l-1.946-11.857
				c-0.151-0.912,0.553-1.744,1.481-1.744h9.221c0.938,0,1.646,0.85,1.477,1.773l-2.185,11.857
				C223.586,178.105,222.964,178.623,222.242,178.623z"/>
			<path fill="#283C8F" d="M217.151,177.736c-0.3,0-0.555-0.217-0.604-0.516l-1.946-11.857c-0.041-0.245,0.067-0.418,0.137-0.497
				c0.066-0.081,0.221-0.216,0.468-0.216h9.22c0.251,0,0.402,0.14,0.471,0.221c0.067,0.082,0.178,0.257,0.132,0.503l-2.184,11.858
				c-0.053,0.291-0.307,0.5-0.603,0.5h-5.091V177.736L217.151,177.736z"/>
		</g>
	</g>
	<rect x="129.1" y="382.7" fill="#464C53" width="974.4" height="14.399"/>
	<rect x="458.146" y="198.078" fill="#CCCCCC" width="71.186" height="190.309"/>
	<polygon fill="#283C8F" points="529.332,333.5 529.332,198.078 458.146,198.078 458.146,278.301 	"/>
	<g>
		<rect x="604.874" y="211.325" fill="#CCCCCC" width="67.311" height="179.965"/>
		<rect x="611.5" y="236.301" fill="#FFFFFF" width="2.398" height="26.399"/>
		<rect x="621.1" y="236.301" fill="#FFFFFF" width="7.2" height="26.399"/>
		<rect x="647.5" y="236.301" fill="#FFFFFF" width="7.199" height="26.399"/>
		<rect x="659.5" y="236.301" fill="#FFFFFF" width="9.6" height="26.399"/>
		<rect x="611.5" y="265.102" fill="#FFFFFF" width="2.398" height="26.398"/>
		<rect x="633.1" y="265.102" fill="#FFFFFF" width="9.604" height="26.398"/>
		<rect x="647.5" y="265.102" fill="#FFFFFF" width="7.199" height="26.398"/>
		<rect x="611.5" y="296.301" fill="#FFFFFF" width="2.398" height="26.399"/>
		<rect x="621.1" y="296.301" fill="#FFFFFF" width="7.2" height="26.399"/>
		<rect x="633.1" y="296.301" fill="#FFFFFF" width="9.604" height="26.399"/>
		<rect x="659.5" y="296.301" fill="#FFFFFF" width="9.6" height="26.399"/>
		<rect x="611.5" y="327.5" fill="#FFFFFF" width="2.398" height="26.4"/>
		<rect x="633.1" y="327.5" fill="#FFFFFF" width="9.604" height="26.4"/>
		<rect x="647.5" y="327.5" fill="#FFFFFF" width="7.199" height="26.4"/>
		<rect x="659.5" y="327.5" fill="#FFFFFF" width="9.6" height="26.4"/>
	</g>
	<g>
		<polygon fill="#43A0D2" points="659.5,271.438 672.185,211.325 604.874,211.325 604.874,320.301 		"/>
		<rect x="611.5" y="236.301" fill="#FFFFFF" width="2.398" height="26.399"/>
		<rect x="621.1" y="236.301" fill="#FFFFFF" width="7.2" height="26.399"/>
		<rect x="647.5" y="236.301" fill="#FFFFFF" width="7.199" height="26.399"/>
		<rect x="659.5" y="236.301" fill="#FFFFFF" width="9.6" height="26.399"/>
		<rect x="611.5" y="265.102" fill="#FFFFFF" width="2.398" height="26.398"/>
		<rect x="633.1" y="265.102" fill="#FFFFFF" width="9.604" height="26.398"/>
		<rect x="647.5" y="265.102" fill="#FFFFFF" width="7.199" height="26.398"/>
		<rect x="611.5" y="296.301" fill="#FFFFFF" width="2.398" height="26.399"/>
		<rect x="621.1" y="296.301" fill="#FFFFFF" width="7.2" height="26.399"/>
		<rect x="633.1" y="296.301" fill="#FFFFFF" width="9.604" height="26.399"/>
		<rect x="659.5" y="296.301" fill="#FFFFFF" width="9.6" height="26.399"/>
		<rect x="611.5" y="327.5" fill="#FFFFFF" width="2.398" height="26.4"/>
		<rect x="633.1" y="327.5" fill="#FFFFFF" width="9.604" height="26.4"/>
		<rect x="647.5" y="327.5" fill="#FFFFFF" width="7.199" height="26.4"/>
		<rect x="659.5" y="327.5" fill="#FFFFFF" width="9.6" height="26.4"/>
	</g>
	<rect x="538.048" y="241.926" fill="#CCCCCC" width="56.172" height="149.364"/>
	<rect x="538.048" y="241.926" fill="#145B8E" width="56.172" height="93.75"/>
	<g>
		<rect x="544.3" y="262.7" fill="#FFFFFF" width="4.8" height="21.601"/>
		<rect x="558.7" y="262.7" fill="#FFFFFF" width="4.8" height="21.601"/>
		<rect x="568.3" y="262.7" fill="#FFFFFF" width="2.4" height="21.601"/>
		<rect x="577.9" y="262.7" fill="#FFFFFF" width="2.398" height="21.601"/>
		<rect x="544.3" y="286.7" fill="#FFFFFF" width="4.8" height="21.601"/>
		<rect x="558.7" y="286.7" fill="#FFFFFF" width="4.8" height="21.601"/>
		<rect x="568.3" y="286.7" fill="#FFFFFF" width="2.4" height="21.601"/>
		<rect x="577.9" y="286.7" fill="#FFFFFF" width="2.398" height="21.601"/>
		<rect x="544.3" y="313.102" fill="#FFFFFF" width="4.8" height="21.601"/>
		<rect x="558.7" y="313.102" fill="#FFFFFF" width="4.8" height="21.601"/>
		<rect x="568.3" y="313.102" fill="#FFFFFF" width="2.4" height="21.601"/>
		<rect x="577.9" y="313.102" fill="#FFFFFF" width="2.398" height="21.601"/>
		<rect x="544.3" y="339.5" fill="#FFFFFF" width="4.8" height="21.602"/>
		<rect x="558.7" y="339.5" fill="#FFFFFF" width="4.8" height="21.602"/>
		<rect x="568.3" y="339.5" fill="#FFFFFF" width="2.4" height="21.602"/>
		<rect x="577.9" y="339.5" fill="#FFFFFF" width="2.398" height="21.602"/>
	</g>
	<g>
		<rect x="681.146" y="196.623" fill="#CCCCCC" width="55.198" height="194.667"/>
		<rect x="713.286" y="208.244" fill="#FFFFFF" width="14.347" height="4.357"/>
		<rect x="689.855" y="208.244" fill="#FFFFFF" width="15.983" height="4.357"/>
		<rect x="689.855" y="216.959" fill="#FFFFFF" width="15.983" height="4.357"/>
		<rect x="713.286" y="216.959" fill="#FFFFFF" width="14.347" height="4.357"/>
		<rect x="689.855" y="234.395" fill="#FFFFFF" width="15.983" height="4.354"/>
		<rect x="713.286" y="234.395" fill="#FFFFFF" width="14.347" height="4.354"/>
		<rect x="689.855" y="243.109" fill="#FFFFFF" width="15.983" height="4.354"/>
		<rect x="713.286" y="243.109" fill="#FFFFFF" width="14.347" height="4.354"/>
		<rect x="689.855" y="251.825" fill="#FFFFFF" width="15.983" height="4.356"/>
		<rect x="713.286" y="251.825" fill="#FFFFFF" width="14.347" height="4.356"/>
		<rect x="689.855" y="260.544" fill="#FFFFFF" width="15.983" height="4.356"/>
		<rect x="713.286" y="260.544" fill="#FFFFFF" width="14.347" height="4.356"/>
		<rect x="689.855" y="269.258" fill="#FFFFFF" width="15.983" height="4.357"/>
		<rect x="713.286" y="269.258" fill="#FFFFFF" width="14.347" height="4.357"/>
		<rect x="689.855" y="277.975" fill="#FFFFFF" width="15.983" height="4.357"/>
		<rect x="713.286" y="277.975" fill="#FFFFFF" width="14.347" height="4.357"/>
		<rect x="713.286" y="286.691" fill="#FFFFFF" width="14.347" height="4.357"/>
		<rect x="689.855" y="286.691" fill="#FFFFFF" width="15.983" height="4.357"/>
		<rect x="713.286" y="295.41" fill="#FFFFFF" width="14.347" height="4.359"/>
		<rect x="689.855" y="295.41" fill="#FFFFFF" width="15.983" height="4.359"/>
		<rect x="689.855" y="312.843" fill="#FFFFFF" width="15.983" height="4.354"/>
		<rect x="713.286" y="312.843" fill="#FFFFFF" width="14.347" height="4.354"/>
		<rect x="689.855" y="321.563" fill="#FFFFFF" width="15.983" height="4.354"/>
		<rect x="713.286" y="321.563" fill="#FFFFFF" width="14.347" height="4.354"/>
		<rect x="689.855" y="330.275" fill="#FFFFFF" width="15.983" height="4.354"/>
		<rect x="713.286" y="330.275" fill="#FFFFFF" width="14.347" height="4.354"/>
		<rect x="689.855" y="347.706" fill="#FFFFFF" width="15.983" height="4.36"/>
		<rect x="713.286" y="347.706" fill="#FFFFFF" width="14.347" height="4.36"/>
		<rect x="689.855" y="356.425" fill="#FFFFFF" width="15.983" height="4.359"/>
		<rect x="713.286" y="356.425" fill="#FFFFFF" width="14.347" height="4.359"/>
		<rect x="689.855" y="365.141" fill="#FFFFFF" width="15.983" height="4.357"/>
		<rect x="713.286" y="365.141" fill="#FFFFFF" width="14.347" height="4.357"/>
	</g>
	<rect x="462.7" y="221.9" fill="#FFFFFF" width="12" height="14.398"/>
	<rect x="479.5" y="221.9" fill="#FFFFFF" width="9.6" height="14.398"/>
	<rect x="510.7" y="221.9" fill="#FFFFFF" width="9.6" height="14.398"/>
	<rect x="462.7" y="238.7" fill="#FFFFFF" width="12" height="9.601"/>
	<rect x="479.5" y="238.7" fill="#FFFFFF" width="9.6" height="9.601"/>
	<rect x="498.7" y="238.7" fill="#FFFFFF" width="7.199" height="9.601"/>
	<rect x="510.7" y="238.7" fill="#FFFFFF" width="9.6" height="9.601"/>
	<rect x="479.5" y="250.7" fill="#FFFFFF" width="9.6" height="12"/>
	<rect x="498.7" y="250.7" fill="#FFFFFF" width="7.199" height="12"/>
	<rect x="510.7" y="250.7" fill="#FFFFFF" width="9.6" height="12"/>
	<rect x="462.7" y="265.102" fill="#FFFFFF" width="12" height="14.398"/>
	<rect x="479.5" y="265.102" fill="#FFFFFF" width="9.6" height="14.398"/>
	<rect x="510.7" y="265.102" fill="#FFFFFF" width="9.6" height="14.398"/>
	<rect x="462.7" y="284.301" fill="#FFFFFF" width="12" height="7.199"/>
	<rect x="479.5" y="284.301" fill="#FFFFFF" width="9.6" height="7.199"/>
	<rect x="498.7" y="284.301" fill="#FFFFFF" width="7.199" height="7.199"/>
	<rect x="510.7" y="284.301" fill="#FFFFFF" width="9.6" height="7.199"/>
	<rect x="479.5" y="296.301" fill="#FFFFFF" width="9.6" height="9.6"/>
	<rect x="498.7" y="296.301" fill="#FFFFFF" width="7.199" height="9.6"/>
	<rect x="510.7" y="296.301" fill="#FFFFFF" width="9.6" height="9.6"/>
	<rect x="462.7" y="308.301" fill="#FFFFFF" width="12" height="9.6"/>
	<rect x="498.7" y="308.301" fill="#FFFFFF" width="7.199" height="9.6"/>
	<rect x="510.7" y="308.301" fill="#FFFFFF" width="9.6" height="9.6"/>
	<rect x="462.7" y="322.7" fill="#FFFFFF" width="12" height="12"/>
	<rect x="479.5" y="322.7" fill="#FFFFFF" width="9.6" height="12"/>
	<rect x="498.7" y="322.7" fill="#FFFFFF" width="7.199" height="12"/>
	<rect x="510.7" y="322.7" fill="#FFFFFF" width="9.6" height="12"/>
	<rect x="395.5" y="353.9" fill="#FFFFFF" width="9.6" height="7.199"/>
	<g>
		<rect x="742.884" y="280.881" fill="#CCCCCC" width="63.923" height="110.409"/>
		<rect x="781.9" y="291.5" fill="#FFFFFF" width="4.8" height="9.602"/>
		<rect x="781.9" y="303.5" fill="#FFFFFF" width="4.8" height="7.2"/>
		<rect x="781.9" y="313.102" fill="#FFFFFF" width="4.8" height="4.799"/>
		<rect x="781.9" y="325.102" fill="#FFFFFF" width="4.8" height="4.799"/>
		<rect x="781.9" y="332.301" fill="#FFFFFF" width="4.8" height="7.199"/>
		<rect x="781.9" y="344.301" fill="#FFFFFF" width="4.8" height="7.199"/>
		<rect x="781.9" y="353.9" fill="#FFFFFF" width="4.8" height="7.199"/>
		<rect x="781.9" y="365.9" fill="#FFFFFF" width="4.8" height="4.8"/>
		<rect x="760.3" y="291.5" fill="#FFFFFF" width="4.8" height="9.602"/>
		<rect x="760.3" y="303.5" fill="#FFFFFF" width="4.8" height="7.2"/>
		<rect x="760.3" y="313.102" fill="#FFFFFF" width="4.8" height="4.799"/>
		<rect x="760.3" y="325.102" fill="#FFFFFF" width="4.8" height="4.799"/>
		<rect x="760.3" y="332.301" fill="#FFFFFF" width="4.8" height="7.199"/>
		<rect x="760.3" y="344.301" fill="#FFFFFF" width="4.8" height="7.199"/>
		<rect x="760.3" y="353.9" fill="#FFFFFF" width="4.8" height="7.199"/>
		<rect x="760.3" y="365.9" fill="#FFFFFF" width="4.8" height="4.8"/>
		<rect x="772.3" y="291.5" fill="#FFFFFF" width="4.8" height="9.602"/>
		<rect x="772.3" y="303.5" fill="#FFFFFF" width="4.8" height="7.2"/>
		<rect x="772.3" y="313.102" fill="#FFFFFF" width="4.8" height="4.799"/>
		<rect x="772.3" y="325.102" fill="#FFFFFF" width="4.8" height="4.799"/>
		<rect x="772.3" y="332.301" fill="#FFFFFF" width="4.8" height="7.199"/>
		<rect x="772.3" y="344.301" fill="#FFFFFF" width="4.8" height="7.199"/>
		<rect x="772.3" y="353.9" fill="#FFFFFF" width="4.8" height="7.199"/>
		<rect x="772.3" y="365.9" fill="#FFFFFF" width="4.8" height="4.8"/>
	</g>
	<g>
		<path fill="#CCCCCC" d="M438.7,226.7v-31.2h-14.4v-14.398h-9.6V195.5h-19.2v31.2h-7.2v165.601h62.4V226.7H438.7z M429.1,207.5h2.4
			v9.602h-2.4V207.5z M414.7,207.5h9.6v9.602h-9.6V207.5z M405.1,207.5h4.801v9.602H405.1V207.5z M409.9,368.301H405.1v-14.4h4.801
			V368.301z M409.9,344.301H405.1V334.7h4.801V344.301z M409.9,327.5H405.1v-14.398h4.801V327.5z M409.9,305.9H405.1v-14.4h4.801
			V305.9z M409.9,286.7H405.1v-14.399h4.801V286.7z M409.9,265.102H405.1V250.7h4.801V265.102z M409.9,243.5H405.1v-7.199h4.801
			V243.5z M424.3,368.301h-9.6v-14.4h9.6V368.301z M424.3,344.301h-9.6V334.7h9.6V344.301z M424.3,327.5h-9.6v-14.398h9.6V327.5z
			 M424.3,305.9h-9.6v-14.4h9.6V305.9z M424.3,286.7h-9.6v-14.399h9.6V286.7z M424.3,265.102h-9.6V250.7h9.6V265.102z M424.3,243.5
			h-9.6v-7.199h9.6V243.5z M431.5,368.301h-2.4v-14.4h2.4V368.301z M431.5,344.301h-2.4V334.7h2.4V344.301z M431.5,327.5h-2.4
			v-14.398h2.4V327.5z M431.5,305.9h-2.4v-14.4h2.4V305.9z M431.5,286.7h-2.4v-14.399h2.4V286.7z M431.5,265.102h-2.4V250.7h2.4
			V265.102z M431.5,243.5h-2.4v-7.199h2.4V243.5z"/>
		<rect x="405.1" y="236.301" fill="#FFFFFF" width="4.801" height="7.199"/>
		<rect x="414.7" y="236.301" fill="#FFFFFF" width="9.6" height="7.199"/>
		<rect x="429.1" y="236.301" fill="#FFFFFF" width="2.4" height="7.199"/>
		<rect x="405.1" y="250.7" fill="#FFFFFF" width="4.801" height="14.399"/>
		<rect x="414.7" y="250.7" fill="#FFFFFF" width="9.6" height="14.399"/>
		<rect x="429.1" y="250.7" fill="#FFFFFF" width="2.4" height="14.399"/>
		<rect x="405.1" y="272.301" fill="#FFFFFF" width="4.801" height="14.399"/>
		<rect x="414.7" y="272.301" fill="#FFFFFF" width="9.6" height="14.399"/>
		<rect x="429.1" y="272.301" fill="#FFFFFF" width="2.4" height="14.399"/>
		<rect x="405.1" y="291.5" fill="#FFFFFF" width="4.801" height="14.4"/>
		<rect x="414.7" y="291.5" fill="#FFFFFF" width="9.6" height="14.4"/>
		<rect x="429.1" y="291.5" fill="#FFFFFF" width="2.4" height="14.4"/>
		<rect x="405.1" y="313.102" fill="#FFFFFF" width="4.801" height="14.398"/>
		<rect x="414.7" y="313.102" fill="#FFFFFF" width="9.6" height="14.398"/>
		<rect x="429.1" y="313.102" fill="#FFFFFF" width="2.4" height="14.398"/>
		<rect x="405.1" y="334.7" fill="#FFFFFF" width="4.801" height="9.601"/>
		<rect x="414.7" y="334.7" fill="#FFFFFF" width="9.6" height="9.601"/>
		<rect x="429.1" y="334.7" fill="#FFFFFF" width="2.4" height="9.601"/>
		<rect x="405.1" y="353.9" fill="#FFFFFF" width="4.801" height="14.398"/>
		<rect x="414.7" y="353.9" fill="#FFFFFF" width="9.6" height="14.398"/>
		<rect x="429.1" y="353.9" fill="#FFFFFF" width="2.4" height="14.398"/>
		<rect x="405.1" y="207.5" fill="#FFFFFF" width="4.801" height="9.602"/>
		<rect x="414.7" y="207.5" fill="#FFFFFF" width="9.6" height="9.602"/>
		<rect x="429.1" y="207.5" fill="#FFFFFF" width="2.4" height="9.602"/>
	</g>
	<g>
		<path fill="#CCCCCC" d="M366.7,286.7v-24h4.042c0-14.399-8.843-26.747-25.644-28.532V221.9h-4.8v12.117
			c-14.398,1.121-25.731,14.282-25.731,28.683h4.134v24h-14.4v20.276c-4.8-7.51-7.2-12.688-21.6-13.397v-9.278H277.9v9.432
			c-14.4,1.783-22.896,14.568-22.896,28.969h1.296V389.9h57.082l0,0h5.302h47.941H381.1V286.7H366.7z M325.9,286.7V265.1h4.801
			V286.7H325.9z M345.1,286.7h-4.8v-18.892v-2.707h4.8V286.7z M352.3,286.7V265.1h7.2V286.7H352.3z M268.3,356.301h-4.8V334.7h4.8
			V356.301z M282.7,356.301h-4.8V334.7h4.801L282.7,356.301L282.7,356.301z M297.1,356.301h-7.2V334.7h7.2V356.301z M330.7,356.301
			h-4.8V334.7h4.801L330.7,356.301L330.7,356.301z M330.7,322.7h-4.8V301.1h4.801L330.7,322.7L330.7,322.7z M345.1,356.301h-4.8
			V334.7h4.8V356.301z M345.1,322.7h-4.8V301.1h4.8V322.7z M359.5,356.301h-7.2V334.7h7.2V356.301z M359.5,322.7h-7.2V301.1h7.2
			V322.7z"/>
		<rect x="325.9" y="265.102" fill="#FFFFFF" width="4.801" height="21.601"/>
		<polygon fill="#FFFFFF" points="340.3,267.809 340.3,286.7 345.1,286.7 345.1,265.102 340.3,265.102 		"/>
		<rect x="352.3" y="265.102" fill="#FFFFFF" width="7.2" height="21.601"/>
		<rect x="325.9" y="301.102" fill="#FFFFFF" width="4.801" height="21.601"/>
		<rect x="340.3" y="301.102" fill="#FFFFFF" width="4.8" height="21.601"/>
		<rect x="352.3" y="301.102" fill="#FFFFFF" width="7.2" height="21.601"/>
		<rect x="263.5" y="334.7" fill="#FFFFFF" width="4.8" height="21.601"/>
		<rect x="277.9" y="334.7" fill="#FFFFFF" width="4.801" height="21.601"/>
		<rect x="289.9" y="334.7" fill="#FFFFFF" width="7.2" height="21.601"/>
		<rect x="325.9" y="334.7" fill="#FFFFFF" width="4.801" height="21.601"/>
		<rect x="340.3" y="334.7" fill="#FFFFFF" width="4.8" height="21.601"/>
		<rect x="352.3" y="334.7" fill="#FFFFFF" width="7.2" height="21.601"/>
	</g>
	<g>
		<rect x="198.7" y="284.301" fill="#CCCCCC" width="48" height="105.6"/>
		<rect x="208.3" y="296.301" fill="#FFFFFF" width="4.8" height="9.6"/>
		<rect x="225.1" y="296.301" fill="#FFFFFF" width="9.601" height="9.6"/>
		<rect x="239.5" y="296.301" fill="#FFFFFF" width="2.399" height="9.6"/>
		<rect x="208.3" y="313.102" fill="#FFFFFF" width="4.8" height="9.601"/>
		<rect x="217.9" y="313.102" fill="#FFFFFF" width="2.4" height="9.601"/>
		<rect x="225.1" y="313.102" fill="#FFFFFF" width="9.601" height="9.601"/>
		<rect x="208.3" y="327.5" fill="#FFFFFF" width="4.8" height="12"/>
		<rect x="225.1" y="327.5" fill="#FFFFFF" width="9.601" height="12"/>
		<rect x="239.5" y="327.5" fill="#FFFFFF" width="2.399" height="12"/>
		<rect x="208.3" y="344.301" fill="#FFFFFF" width="4.8" height="12"/>
		<rect x="217.9" y="344.301" fill="#FFFFFF" width="2.4" height="12"/>
		<rect x="239.5" y="344.301" fill="#FFFFFF" width="2.399" height="12"/>
	</g>
	<g>
		<rect x="949.9" y="291.5" fill="#CCCCCC" width="43.197" height="98.4"/>
		<rect x="983.5" y="305.9" fill="#FFFFFF" width="7.199" height="7.199"/>
		<rect x="961.9" y="305.9" fill="#FFFFFF" width="9.601" height="7.199"/>
		<rect x="954.699" y="305.9" fill="#FFFFFF" width="2.397" height="7.199"/>
		<rect x="983.5" y="317.9" fill="#FFFFFF" width="7.199" height="9.6"/>
		<rect x="971.5" y="317.9" fill="#FFFFFF" width="7.199" height="9.6"/>
		<rect x="961.9" y="317.9" fill="#FFFFFF" width="9.601" height="9.6"/>
		<rect x="983.5" y="332.301" fill="#FFFFFF" width="7.199" height="12"/>
		<rect x="961.9" y="332.301" fill="#FFFFFF" width="9.601" height="12"/>
		<rect x="954.699" y="332.301" fill="#FFFFFF" width="2.397" height="12"/>
		<rect x="983.5" y="349.102" fill="#FFFFFF" width="7.199" height="7.199"/>
		<rect x="971.5" y="349.102" fill="#FFFFFF" width="7.199" height="7.199"/>
		<rect x="954.699" y="349.102" fill="#FFFFFF" width="2.397" height="7.199"/>
	</g>
	<g>
		<path fill="#CCCCCC" d="M913.9,308.301v-7.199h4.758c-0.125-16.801-16.758-37.918-38.357-39.043V238.7h-7.199v23.466
			c-14.398,1.828-34.205,22.135-34.325,38.936h5.524v7.199H815.5v81.6h124.8v-81.6H913.9z M858.699,301.102h43.199v7.199h-43.199
			V301.102z M827.5,357.609L827.5,357.609V344.45l0,0V357.609z M827.5,335.673L827.5,335.673v-13.159l0,0V335.673z M844.3,356.301
			h-4.8v-12h4.8V356.301z M858.699,334.7H851.5v-12h7.199V334.7z M870.699,357.609L870.699,357.609V344.45l0,0V357.609z
			 M870.699,335.673L870.699,335.673v-13.159l0,0V335.673z M887.5,356.301h-2.4v-12h2.4V356.301z M901.9,356.301H897.1v-12h4.803
			L901.9,356.301L901.9,356.301z M901.9,334.7H897.1v-12h4.803L901.9,334.7L901.9,334.7z M913.9,334.7H909.1v-12h4.803L913.9,334.7
			L913.9,334.7z M928.3,357.609L928.3,357.609V344.45l0,0V357.609z M928.3,335.673L928.3,335.673v-13.159l0,0V335.673z"/>
		<rect x="827.5" y="322.514" fill="#FFFFFF" width="0" height="13.159"/>
		<rect x="870.699" y="322.514" fill="#FFFFFF" width="0" height="13.159"/>
		<rect x="909.1" y="322.7" fill="#FFFFFF" width="4.803" height="12"/>
		<rect x="928.3" y="322.514" fill="#FFFFFF" width="0" height="13.159"/>
		<rect x="827.5" y="344.45" fill="#FFFFFF" width="0" height="13.159"/>
		<rect x="839.5" y="344.301" fill="#FFFFFF" width="4.8" height="12"/>
		<rect x="870.699" y="344.45" fill="#FFFFFF" width="0" height="13.159"/>
		<rect x="885.1" y="344.301" fill="#FFFFFF" width="2.4" height="12"/>
		<rect x="897.1" y="322.7" fill="#FFFFFF" width="4.803" height="12"/>
		<rect x="897.1" y="344.301" fill="#FFFFFF" width="4.803" height="12"/>
		<rect x="851.5" y="322.7" fill="#FFFFFF" width="7.199" height="12"/>
		<rect x="928.3" y="344.45" fill="#FFFFFF" width="0" height="13.159"/>
		<rect x="858.699" y="301.102" fill="#FFFFFF" width="43.199" height="7.199"/>
	</g>
	<rect x="-0.5" y="382.7" fill="#2C2C2C" width="1200" height="16.8"/>
	<path fill="#2C2C2C" d="M789.098,338.115l-11.701,21.152c-3.032,5.482-10.009,7.488-15.491,4.453l-118.894-65.779
		c-5.48-3.039-7.489-10.008-4.451-15.492l11.7-21.152c3.035-5.484,10.003-7.488,15.492-4.456l118.89,65.782
		C790.129,325.658,792.135,332.633,789.098,338.115z"/>
	<path fill="#2C2C2C" d="M661.369,284.249c-31.182,56.353-102.146,76.765-158.501,45.581
		c-56.354-31.182-76.765-102.145-45.582-158.497c31.18-56.354,102.144-76.765,158.501-45.586
		C672.146,156.932,692.552,227.895,661.369,284.249z M604.271,146.561c-44.862-24.824-101.354-8.576-126.174,36.287
		c-24.822,44.86-8.578,101.351,36.286,126.172c44.861,24.822,101.354,8.575,126.173-36.287
		C665.381,227.867,649.136,171.383,604.271,146.561z"/>
	<path fill="#CCCCCC" d="M1050.128,159.635c1.775,0,3.392,0.67,4.622,1.768c1.852-3.422,5.463-5.752,9.631-5.752
		c2.287,0,4.407,0.707,6.16,1.908c3.055-5.047,8.596-8.412,14.924-8.412c5.637,0,10.646,2.672,13.833,6.823
		c0.824-0.202,1.683-0.319,2.565-0.319c6.042,0,10.937,4.896,10.937,10.937h-69.621
		C1043.174,162.748,1046.288,159.635,1050.128,159.635z"/>
	<path fill="#CCCCCC" d="M899.313,123.82c1.952,0,3.727,0.742,5.072,1.945c2.028-3.757,6-6.313,10.564-6.313
		c2.514,0,4.842,0.771,6.768,2.093c3.354-5.54,9.438-9.237,16.378-9.237c6.188,0,11.683,2.939,15.185,7.49
		c0.902-0.223,1.851-0.351,2.82-0.351c6.625,0,12,5.372,12,12h-76.421C891.682,127.24,895.099,123.82,899.313,123.82z"/>
	<path fill="#CCCCCC" d="M1081.689,125.396c2.438,0,4.647,0.924,6.34,2.428c2.532-4.693,7.494-7.885,13.201-7.885
		c3.142,0,6.05,0.961,8.457,2.613c4.188-6.914,11.786-11.542,20.461-11.542c7.73,0,14.597,3.671,18.968,9.357
		c1.133-0.272,2.31-0.435,3.524-0.435c8.279,0,14.992,6.715,14.992,14.991h-95.482
		C1072.15,129.663,1076.423,125.396,1081.689,125.396z"/>
	<path fill="#CCCCCC" d="M805.791,154.677c1.645,0,3.137,0.621,4.271,1.64c1.711-3.164,5.049-5.32,8.899-5.32
		c2.113,0,4.072,0.65,5.699,1.764c2.826-4.66,7.947-7.777,13.796-7.777c5.207,0,9.84,2.472,12.782,6.31
		c0.763-0.188,1.555-0.295,2.377-0.295c5.58,0,10.104,4.528,10.104,10.11h-64.361C799.361,157.555,802.239,154.677,805.791,154.677z
		"/>
</g>
</svg>
