<?xml version="1.0" encoding="utf-8"?>
<!-- Generator: Adobe Illustrator 13.0.0, SVG Export Plug-In . SVG Version: 6.00 Build 14948)  -->
<!DOCTYPE svg PUBLIC "-//W3C//DTD SVG 1.1//EN" "http://www.w3.org/Graphics/SVG/1.1/DTD/svg11.dtd">
<svg version="1.1" id="Layer_1" xmlns="http://www.w3.org/2000/svg" xmlns:xlink="http://www.w3.org/1999/xlink" x="0px" y="0px"
	 width="1200px" height="400px" viewBox="0 0.083 1200 400" enable-background="new 0 0.083 1200 400" xml:space="preserve">
<g>
	<rect x="-0.5" y="-0.5" fill="none" width="1200" height="400"/>
	<g>
		<path fill="#CCCCCC" d="M792.789,259.388V256.7h-21.548c2.528,3.412,6.317,5.883,10.285,7.316
			c0.12,4.436,0.282,8.908-0.397,13.313c-5.563-0.154-11.15-0.424-16.623-1.432c-5.578-0.998-10.789-3.635-16.506-3.934
			c-4.377-0.248-8.767-0.025-13.146-0.104c-14.798,0.629-28.732-5.129-42.931-8.328c1.246-3.951,2.643-8.154,1.83-12.326
			c-0.08-1.479-1.699-1.807-2.752-2.414c-0.595,1.496-1.328,2.938-2.297,4.217c-0.39-2.15-0.646-4.324-0.916-6.49
			c-0.396,1.145-0.818,2.273-1.248,3.406c-0.677-2.256,0.557-5.504-1.341-7.094c-0.78,1.176-1.188,2.531-1.68,3.826
			c-1.037-1.516-0.854-3.424-1.158-5.15c-0.955,2.053-1.707,4.186-2.469,6.313c-0.654-0.156-1.305-0.313-1.945-0.457
			c-0.504,0.877-1.012,1.754-1.521,2.625c-2.034-2.658,0.104-5.521,0.565-8.283c0.554-2.143,0.023-4.299-0.108-6.439
			c-0.178-2.469,2.354-4.279,1.854-6.791c-0.463-2.756,0.039-5.826-1.479-8.291c-0.575,1.822-0.857,3.719-1.064,5.609
			c-0.705-0.17-1.391-0.344-2.076-0.514c-1.416,2.561-1.506,5.557-2.346,8.313c-0.625-2.021-1.216-4.051-1.887-6.057
			c4.024-3.488,0.766-8.479,0.453-12.707c-0.901,1.564-1.729,3.172-2.472,4.818c-0.465-0.033-1.403-0.107-1.864-0.146
			c0.373-1.85,1.021-3.646,2.418-4.98c0.047-2.814,0.047-5.65-0.526-8.425c-0.588,1.417-1.157,2.843-1.778,4.239
			c-0.772-2.848,0.726-6.159-1.146-8.655c-0.649,2.496-1.104,5.04-1.58,7.577c-1.455-0.4-3.321-1.842-4.349,0.043
			c-1.959-2.682-0.291-5.745,1.676-7.845c-1.055-3.734,0.904-7.5-0.258-11.234c-0.533,0.691-1.045,1.396-1.562,2.09
			c-0.832-1.8-1.555-3.655-2.172-5.54c-0.615,1.215-1.209,2.441-1.803,3.664c0.063-1.726,0.088-3.444,0.041-5.168
			c-0.435,1.021-0.851,2.026-1.271,3.041c-1.039-2.909,1.146-6.048-0.733-8.849c-1.019,1.416-2,2.854-3.017,4.266
			c-0.076-1.852,0.035-3.698,0.179-5.545c-0.296,0-0.886,0-1.173,0c-0.08-0.804-0.157-1.625-0.233-2.431
			c-0.467,0.458-0.938,0.917-1.398,1.378c0.547-2.727,0.769-5.494,0.547-8.266c-0.278,1.214-0.526,2.434-0.771,3.655
			c-0.238-1.898-0.461-3.794-0.688-5.685c-1.641,3.477-1.271,7.301-1.725,10.979c-1.634,3.283-2.906,6.682-3.641,10.287
			c-1.261,1.133-1.841,2.695-2.104,4.328c-0.689-0.418-1.373-0.84-2.051-1.261c-0.021,1.908,0.223,3.809,0.682,5.659
			c-0.62-0.007-1.232-0.016-1.836-0.021c0.177,1.791,0.341,3.581,0.377,5.374c-1.42-0.938-1.752-3.622-3.655-3.457
			c0.858,3.591,1.517,7.259,2.912,10.692c-0.873-0.389-1.728-0.779-2.599-1.166c-0.228,2.328,0.317,4.627,0.287,6.945
			c-0.813-0.771-1.404-1.707-1.916-2.688c-0.306,0.309-0.617,0.623-0.919,0.93c-0.176-0.932-0.353-1.861-0.519-2.789
			c-0.521,2.371-0.01,4.773,0.281,7.129c0.365,0.221,1.086,0.648,1.447,0.861c-0.029,1.066-0.033,2.146-0.044,3.229
			c-0.339-0.891-0.659-1.772-0.979-2.659c-0.102,0.444-0.319,1.346-0.424,1.791c-0.578-1.152-1.15-2.298-1.727-3.445
			c-1.824,6.483,0.569,12.752,2.182,18.979c-2.166-1.383-3.107-3.813-4.395-5.909c-0.529,2.446,0.444,5.245-1.093,7.403
			c-2.582-6.824,2.659-13.752-0.677-20.356c-0.539,2.207-1.313,4.342-2.254,6.399c-0.354-4.854-1.567-9.851,0.616-14.487
			c-0.485,0.452-0.954,0.899-1.428,1.354c-0.207-2.197-0.487-4.392-0.886-6.559c-1.328,2.82-1.553,5.962-2.526,8.886
			c-0.479-1.448-0.78-2.963-0.996-4.473c-0.387,1.911-1.11,3.782-2.747,4.983c-1.669-5.729-1.539-11.527-2.063-17.399
			c-0.381,2.033-0.875,4.049-1.655,5.969c-0.438-3.144-0.688-6.319-1.397-9.417c-0.476,0.524-0.939,1.051-1.394,1.577
			c-0.015-1.164-0.033-2.335-0.037-3.499c-0.644,0.213-1.274,0.428-1.896,0.639c-0.188,1.697-0.378,3.392-0.649,5.078
			c-2.438-2.966,0.862-6.633,1.473-9.751c-0.57-0.094-1.721-0.286-2.287-0.372c0.941-3.058,2.455-6.382,0.854-9.501
			c-1.184,2.796-1.357,5.959-2.994,8.565c-0.191-1.024-0.345-2.066-0.488-3.098c-0.172-0.103-0.518-0.316-0.688-0.419
			c0.005-0.879,0.026-1.757,0.05-2.629c-0.971,1.299-2.05,2.51-3.253,3.607c-0.321-5.302,0.151-10.428,0.698-15.688
			c-1.276,1.024-2.198,2.375-3.104,3.712c-0.261-2.508,0.868-4.759,1.586-7.083c-0.438-2.016-0.819-4.058-0.472-6.119
			c-0.606,1.473-1.555,2.741-3.093,3.326c0.464-2.093,0.938-4.214,0.722-6.372c-2.144,2.352-2.354,6.043-5.353,7.688
			c0.797-4.901,0.565-9.915,1.722-14.771c-0.688-0.388-1.384-0.77-2.062-1.156c0.162-2.883,0.946-5.966-0.842-8.537
			c-0.322,1.119-0.632,2.242-0.916,3.377c-0.274-0.387-0.544-0.773-0.806-1.156c-0.181,1.764-0.464,3.588-1.766,4.919
			c-0.571-3.871,2.134-7.528,0.952-11.501c-0.396,0.929-0.724,1.887-1.056,2.839c-0.383-0.357-0.761-0.698-1.136-1.051
			c-0.193,0.904-0.375,1.805-0.561,2.705c-1.09-2.251-1.992-4.587-2.616-7.008c-0.282,0.442-0.563,0.888-0.839,1.324
			c0-1.658-0.015-3.321-0.109-4.97c-1.473,1.239-1.133,3.151-0.951,4.836c-0.404-0.35-0.804-0.701-1.197-1.046
			c0.549,1.713,1.301,3.463,0.99,5.309c-0.288-0.43-0.881-1.287-1.172-1.722c-1.036,1.195-2.263,2.199-3.554,3.109
			c1.207,3.77,1.95,7.797,1.093,11.726c-0.763-1.178-1.375-2.438-1.891-3.727c-0.426-0.039-0.851-0.063-1.26-0.091
			c-0.339-1.625-0.584-3.353-1.678-4.676c-0.35,3.984-2.232,8.225-0.286,12.053c-2.306-0.103-3.691,1.594-4.541,3.533
			c-3.596-1.658-1.159,1.872,0.595,2.918c-2.446,0.881-3.967,2.94-5.118,5.15c-2.195-2.417,0.771-5.927-0.533-8.902
			c-0.361,0.084-1.076,0.25-1.437,0.332c-0.953,2.283-0.852,4.708-0.035,7.015c-2.25,0.55-4.526,0.917-6.818,1.145
			c-0.343,0.831-0.684,1.658-1.014,2.489c-2.623-3.872,0.065-7.591,1.021-11.418c3.103-0.551,4.813-3.298,5.052-6.251
			c-1.965,0.927-3.826,2.207-6.048,2.449c-2.229-5.66,5.949-4.827,7.65-9.135c-0.042-2.446,0.688-4.795,0.896-7.217
			c-3.229,0.797-2.891,4.793-4.209,7.217c-0.849-1.447-1.837-2.793-2.897-4.083c0.543-0.83,1.083-1.651,1.638-2.481
			c-1.622-1.611-1.447-3.847-1.27-5.933c-0.317-0.007-0.965-0.022-1.278-0.034c-0.14-1.253-0.249-2.52-0.344-3.779
			c-0.82,2.966-0.933,7.498-4.563,8.378c0.197-1.496,0.865-2.844,1.706-4.072c-0.262-0.479-0.524-0.96-0.778-1.443
			c1.313-3.583,2.392-7.404,0.863-11.119c-0.189,0.642-0.359,1.295-0.525,1.945c-0.404-0.313-0.806-0.63-1.197-0.953
			c-0.241,0.999-0.487,1.99-0.725,2.986c-0.979-0.071-1.957-0.12-2.918-0.172c0.289-0.953,1.137-1.894,0.762-2.931
			c-1.17-2.753,1.848-4.944,1.578-7.761c-0.588,0.918-1.174,1.85-1.765,2.776c-0.327-3.243,0.347-6.451,0.663-9.662
			c-1.012,1.736-1.438,4.058-3.456,4.942c0.442-3.964,0.599-8.019-0.834-11.839c-2.472,3.778,0.228,8.535-2.019,12.284
			c1.112,1.919,0.958,4.154,0.413,6.234c-1.426-1.446-1.563-3.484-1.784-5.378c-1.496,3.499,1.155,6.117,1.979,9.295
			c-1.409-0.896-2.305-2.285-2.945-3.788c-0.982,4.099,5.724,6.355,2.501,10.28c-0.701-0.618-1.406-1.241-2.101-1.853
			c-1.398,2.65,0.178,7.416-3.547,8.135c-0.442-1.31-0.876-2.611-1.288-3.921c-0.348,0.389-0.688,0.783-1.018,1.17
			c-0.195-0.983-0.39-1.967-0.582-2.949c-1.624,2.861,1.47,4.941,1.569,7.724c0.381,2.203,2.434,3.525,3.899,5.022
			c-0.548,1.949,0.281,3.955,0.289,5.936c-1.224-0.103-2.448-0.188-3.67-0.276c0.146-1.931,0.249-3.868-0.007-5.798
			c-0.579,0.452-1.147,0.906-1.713,1.369c-1.791-2.217-3.155-4.784-2.996-7.704c-1.06,2.923-0.142,5.935-0.077,8.916
			c0.639,0.744,1.267,1.488,1.93,2.217c-0.465,0.485-0.912,0.982-1.356,1.467c-1.255-1.598-2.516-3.188-3.741-4.802
			c-0.288,0.291-0.869,0.871-1.15,1.166c0.512,2.842,3.443,4.051,4.413,6.66c0.669,0.428,1.352,0.845,2.042,1.268
			c-1.155,4.437,4.304,4.406,6.882,6.22c1.092,1.468,1.688,3.281,2.987,4.622c-0.38,0.879-0.771,1.758-1.15,2.643
			c-0.825-3.511-3.547-2.15-6.06-1.443c-1.423-1.624-2.346-3.477-0.68-5.309c1.315-1.351-0.385-1.727-1.521-1.447
			c-1.984-2.066-3.422-4.541-4.793-7.021c-0.021,3.137,0.377,6.25,0.691,9.369c0.881,0.48,1.768,0.973,2.655,1.467
			c-0.146,1.576-0.169,3.161-0.154,4.737c-0.413,0.07-1.24,0.195-1.655,0.254c-0.164-1.102-0.32-2.203-0.477-3.305
			c-1.581-0.401-3.173-0.784-4.755-1.164c0.683-1.109,1.407-2.189,2.163-3.252c-0.291-0.518-0.566-1.044-0.845-1.562
			c0.483-0.41,0.969-0.831,1.456-1.244c-0.134-0.79-0.253-1.577-0.371-2.368c-0.809,0.15-1.614,0.294-2.412,0.44
			c0.834-2.7,1.597-5.543,0.678-8.336c-0.258,0.794-0.499,1.59-0.735,2.387c-0.249,0.08-0.75,0.252-1.005,0.334
			c-0.35,1.212-0.703,2.434-1.066,3.653c-1.48,0.758-2.838,1.733-4.099,2.796c1.807-3.204,1.533-6.927,0.834-10.395
			c-0.736,1.166-1.486,2.324-2.255,3.47c-1.972-5.783,1.519-11.767,1.479-17.639c-0.419,0-1.256,0-1.673,0
			c-0.238,1.332-1.363,3.019,0.253,3.931c-0.288,0.11-0.573,0.214-0.851,0.325c-0.823-0.303-1.642-0.593-2.461-0.881
			c-0.823-2.911,0.329-5.753,0.935-8.58c-0.529,0.756-1.039,1.514-1.554,2.279c0.41-3.669,0.516-7.396-0.34-11.016
			c-0.726,3.463-0.569,7.001-0.49,10.514c-0.373-1.063-0.67-2.162-1.008-3.229c-0.077,1.418-0.168,2.844-0.239,4.269
			c-0.604-0.428-1.205-0.859-1.804-1.282c0.397,2.232,1.791,4.071,2.75,6.075c-0.733,0.261-1.455,0.511-2.185,0.774
			c-0.286-1.915-0.579-3.834-1.076-5.7c-0.876,3.713-1.944,7.935-0.038,11.516c0.78,1.768,2.756,3.333,1.868,5.448
			c-0.539-0.776-1.068-1.55-1.582-2.329c-0.526,1.64-0.552,3.369-0.442,5.072c-1.515-1.907-2.41-4.177-3.266-6.428
			c-0.495,0.792-0.986,1.576-1.542,2.32c-0.194-0.943-0.375-1.879-0.549-2.822l-0.31,0.019c0.042,4.035,0.531,8.04,1.95,11.839
			c-2.869,0.531-2.981-2.578-3.246-4.615c-0.865,4.43,1.536,8.391,1.673,12.71c0.81,1.044,2.206,1.378,3.333,1.983
			c-0.71,1.18-0.965,2.496-0.606,3.844c-1.28-1.363-2.802-2.447-4.475-3.264c-0.157-0.756-0.311-1.521-0.45-2.284
			c-0.218-0.063-0.655-0.197-0.879-0.26c-0.22-2.721-0.809-5.391-1.708-7.956c-0.504,2.851-1.638,5.53-3.228,7.944
			c-0.221-1.555-0.422-3.12-0.799-4.651c-1.378,2.666-1.453,5.762-2.625,8.51c-0.621-0.348-1.229-0.688-1.835-1.031
			c1.341-4.752-0.104-9.318-0.301-14.047c-0.546,0.396-1.087,0.794-1.624,1.19c0.589-1.032,1.202-2.055,1.821-3.07
			c-0.457,0.06-1.378,0.199-1.831,0.27c-0.191-1.99,0.096-3.968,0.553-5.895c-1.465-2.069-1.082-4.659-1.34-7.037
			c-0.604,3.06,0.532,6.917-1.922,9.319c0.373,1.076,0.608,2.189,0.748,3.322c-0.624,0.089-1.242,0.172-1.859,0.261
			c2.715,2.565,0.738,6.639-0.527,9.492c-0.316-2.251-0.416-4.515-0.671-6.766c-1.254,2.986-2.022,6.217-1.843,9.461
			c-1.373-1.426-2.289-3.176-2.853-5.054c-0.532,1.769-1.053,3.539-1.422,5.349c-0.654-0.324-1.295-0.64-1.941-0.954
			c-0.36,0.64-0.722,1.276-1.077,1.919c-0.13-2.324,0.611-4.477,1.589-6.542c-0.872-4.255-2.337-8.471-1.919-12.871
			c-1.125,3.36-1.806,6.923-1.133,10.448c-0.438-0.463-0.866-0.921-1.292-1.391c-1.658,4.18-1.008,8.606-0.291,12.897
			c-0.409-0.063-1.229-0.181-1.643-0.235c0.014-1.01,0.047-2.016,0.072-3.026c-0.521-1.148-1.013-2.303-1.48-3.471
			c-0.954,2.765-0.313,5.563,0.648,8.21c-1.172,0.303-2.307,0.706-3.407,1.179c0.337,2.313,4.529,5.934,0.782,7.111
			c-1.492-3.11-1.609-6.595-2.516-9.873c-3.101,3.167-0.047,7.125,0.854,10.555c-0.422,0.52-0.841,1.038-1.256,1.562
			c2.121,0.9,4.626,1.851,4.222,4.667c-4.515-1.315-7.001-5.247-6.755-9.852c-0.361,3.202-0.663,6.416-0.987,9.625
			c1.065,0.563,2.144,1.137,3.224,1.701c0.266,0.792,0.534,1.587,0.808,2.389c-2.308,3.655,0.049,7.859-0.042,11.79
			c-2.065-2.501-2.897-6.29-6.214-7.48c-0.725-1.8-1.256-3.664-1.614-5.564c-3.021,3.629,2.082,6.68,1.15,10.508
			c-0.552-0.941-1.085-1.887-1.609-2.834c-0.509,0.727-1.038,1.457-1.542,2.18c-3.169-3.298-2.034-8.367-4.061-12.199
			c0.142,1.885,0.109,3.813-0.73,5.547c0.928,2.331,0.738,4.779-0.354,7.009c1.113,2.094,2.043,4.867-0.56,6.273
			c-0.142-0.516-0.41-1.555-0.548-2.066c-1.043,2.217-1.719,4.571-2.334,6.94c-3.298-1.173-2.221-4.999-2.243-7.719
			c-0.517,1.267-1.043,2.535-1.61,3.773c-0.248-0.785-0.491-1.577-0.72-2.365c-0.063,2.054-0.353,4.122-1.085,6.064
			c-1.838-3.417-0.441-7.319-1.183-10.936c-1.313-4.8,0.84-9.703-0.332-14.542c-0.302,1.318-0.539,2.645-0.773,3.964
			c-1.031,0.056-2.056,0.111-3.08,0.18c0.152-1.392,0.306-2.782,0.43-4.168c-0.817-0.502-1.639-0.996-2.446-1.498
			c0.593-0.59,1.193-1.179,1.787-1.77c-0.231-3.236-0.976-6.403-1.45-9.611c-0.171,1.282-0.373,2.567-0.867,3.778
			c-0.129-0.519-0.384-1.561-0.517-2.072c-0.396,0.343-0.777,0.691-1.164,1.037c-0.065-0.874-0.119-1.754-0.178-2.636
			c-0.531,0.941-1.055,1.875-1.589,2.806c-1.927-4.958,3.219-8.387,2.564-13.189c-0.905,1.395-1.806,2.806-2.69,4.209
			c-0.302-2.313-0.439-4.635-0.349-6.968c-0.94,1.001-1.877,1.997-2.838,2.967c0.188-1.992,0.533-3.977,0.928-5.942
			c-0.949,0.818-1.88,1.656-2.824,2.471c-0.243-2.377,0.216-4.729,1.697-6.65c-0.393,0.008-1.174,0.016-1.57,0.016
			c0.455-1.167,0.912-2.324,1.357-3.497c-0.41-0.146-1.233-0.439-1.639-0.583c0.102-2.709,0.052-5.441-0.494-8.109
			c-0.865,5.299-3.752,10.934-1.038,16.094c-0.8-0.42-1.598-0.84-2.385-1.258c0.369,2.537,1.318,4.955,1.701,7.495
			c-2.838-0.213-2.304-4.908-3.427-7.161c-0.923,4.063-2.245,8.89,0.923,12.325c-0.521,0.593-1.047,1.185-1.563,1.768
			c0.074,0.799,0.154,1.591,0.22,2.398c-1.831-0.85-1.813-3.058-2.314-4.731c0.097,2.494-0.331,5.026-2.052,6.934
			c-1.021-3.146-1.5-6.438-2.076-9.689c-1.632,4.477,0.641,9.366-1.527,13.731c1.01,0.825,2.048,1.637,3.106,2.417
			c-0.087,2.001-0.101,4.138-1.574,5.688c-1.515-1.157-3.383-1.666-4.996-2.643c-1.35-1.851-1.933-4.113-2.795-6.207
			c-0.834,3.996,2.545,7.269,1.553,11.268c0.344,0.111,1.021,0.332,1.371,0.438c-0.756,0.461-1.523,0.902-2.288,1.333
			c-0.896,3.163,0.249,6.671-1.346,9.635c-0.911-1.399-1.461-2.976-1.836-4.579c-0.546,0.658-1.097,1.315-1.645,1.972
			c0.096,1.616,1.018,3.449,0.279,4.957c-3.328,2.944-4.62,9.023-1.315,12.411c-0.054,1.183-0.117,2.371-0.171,3.563
			c-0.448-0.572-0.893-1.15-1.324-1.73c-0.156,0.941-0.28,1.881-0.447,2.82c-1.072-2.05-1.78-4.266-2.385-6.488
			c-0.71,2.485-1.271,5.117-0.806,7.695c1.276,2.324,3.312,5.234,1.38,7.805c-1.033-0.287-2.079-0.5-3.133-0.654
			c0.284-1.102,0.529-2.225,0.701-3.354c-3.146,1.998-3.803,5.938-6.624,8.211c0.131-0.771,0.283-1.525,0.436-2.281
			c-0.484-0.035-1.448-0.108-1.936-0.146c0.558-0.334,1.125-0.668,1.693-0.986c0.234-1.369,0.607-2.709,1.078-4.014
			c-0.79,0.012-1.582,0.027-2.362,0.051c0.371-0.779,0.725-1.568,1.085-2.357c0.341-0.09,1.018-0.271,1.349-0.354
			c-0.253-1.022-0.5-2.041-0.734-3.054c-1.983,1.103-4.169,1.777-6.412,2.088c0.039-0.43,0.129-1.274,0.166-1.709
			c-0.52-0.021-1.559-0.079-2.073-0.104c0.681-0.255,1.374-0.503,2.069-0.739c0.229-0.254,0.686-0.766,0.914-1.029
			c-0.921-0.076-1.833-0.146-2.75-0.213l-0.007-0.555c1.697,0.107,3.415,0.211,5.128,0.318c0.788-1.623,1.451-3.389,0.855-5.191
			c-0.483-0.033-1.439-0.097-1.92-0.121c0.214-0.733,0.43-1.459,0.646-2.19c-1.396,0.371-2.787,0.743-4.188,1.09
			c0.676-0.979,1.377-1.937,2.094-2.894c-0.433-0.032-1.292-0.096-1.726-0.135c0.255-0.278,0.519-0.554,0.787-0.823
			c-0.201-0.213-0.6-0.634-0.799-0.84c0.961-0.468,1.908-0.984,2.864-1.473c-1.138-0.007-2.263-0.009-3.39-0.009
			c0.158-0.831,0.33-1.657,0.504-2.475c-0.409-0.756-0.799-1.519-1.178-2.281c-0.373,0.406-0.744,0.817-1.117,1.22
			c-0.093-1.164-0.187-2.331-0.283-3.492c-0.244,2.801-0.066,5.896-2.027,8.155c0.519,2.084,0.745,4.222,0.947,6.365
			c-1.399-0.665-2.78-1.367-4.13-2.105c-0.033-1-0.061-1.996-0.082-2.989c-0.309,0.955-0.595,1.919-0.876,2.884
			c-1.505-1.24-3.124-2.368-4.94-3.098c0.628,2.008,1.892,3.685,3.785,4.651c-0.335,1.223-0.659,2.441-0.987,3.662
			c-0.649,0.212-1.287,0.434-1.929,0.658c-1.272,2.64-4.692,0.728-6.356,2.802c-1.28,1.612-3.359,1.526-5.22,1.521
			c0.799-0.761,1.62-1.502,2.449-2.229c0.181-0.99,0.36-1.979,0.542-2.963c1.271-0.276,2.541-0.567,3.817-0.848
			c-0.832-1.108-1.637-2.233-2.429-3.365c-0.094,0.523-0.286,1.552-0.382,2.068c-1.12-0.666-2.232-1.336-3.34-2
			c1.388-0.998,2.766-1.99,4.144-2.979c-0.141-0.804-0.285-1.608-0.416-2.411c0.686-0.4,1.38-0.791,2.073-1.173
			c0.368-1.699,1.584-3.627,0.23-5.179c1.438-0.92,2.52-2.234,3.407-3.67c-1.14,0.206-2.27,0.422-3.396,0.65
			c1.561-2.043,3.313-3.969,4.465-6.286c-2.063,0.361-3.276,2.104-4.496,3.618c-0.22-0.32-0.668-0.961-0.893-1.282
			c-0.912,1.167-1.75,3.341-3.641,2.359c2.068-2.224,4.97-3.326,7.281-5.246c-0.281-0.809-0.553-1.617-0.811-2.426
			c0.253-0.435,0.511-0.865,0.782-1.292c-0.092-0.339-0.271-1.015-0.357-1.351c-3.263,0.475-4.753,3.312-5.729,6.139
			c-1.094-1.507-1.906-3.192-2.552-4.935c-1.104-0.122-2.212-0.238-3.318-0.348c0.331-1.008,0.681-2.018,1.001-3.026
			c-0.929-1.488-0.832-3.19-0.43-4.834c-0.717,0.747-1.453,1.473-2.188,2.194c-0.979-2.413,2.745-5.074,0.413-6.817
			c0.141-0.9,0.275-1.797,0.419-2.688c-2.36,3.353-5.471,5.886-9.295,7.416c0.023-1.463,0.019-2.924-0.019-4.38
			c-0.603-0.129-1.202-0.256-1.791-0.381c0.668-0.636,1.333-1.27,2.018-1.901c-0.363-0.115-1.099-0.353-1.451-0.471
			c0.769-0.578,1.542-1.152,2.325-1.721c-0.52-0.089-1.548-0.27-2.067-0.357c0.283-1.44,1.729-3.189,0.302-4.438
			c0.303-0.527,0.604-1.056,0.922-1.587c-0.646,0.178-1.282,0.358-1.91,0.538c0.315-1.48,0.628-2.961,0.932-4.436
			c-0.413,0.022-1.24,0.072-1.655,0.103c-0.103-0.094-0.302-0.269-0.407-0.365c0.293-0.715,0.58-1.425,0.871-2.143
			c2.81-1.175,2.398-3.724,0.973-5.89c-0.671,0.911-0.825,2.501-2.189,2.61c-0.307-1.282-0.193-2.602-0.077-3.908
			c-0.951,0.845-1.927,1.657-2.92,2.441c-0.568-1.85,0.565-3.415,2.02-4.438c-0.521-1.008-1.059-2.021-1.57-3.031
			c-0.643,2.902-2.149,5.405-4.261,7.466c-0.919-0.744-1.831-1.496-2.745-2.242c0.084,0.453,0.231,1.364,0.313,1.825
			c0.604,0.747,1.192,1.521,1.693,2.35c-0.641-0.192-1.261-0.394-1.887-0.593c-0.162,0.132-0.512,0.394-0.684,0.522
			c-0.646-0.877-1.294-1.756-1.936-2.629c-1.216,1.17-2.518,2.246-3.942,3.163c0.436-2.309,1.064-4.97,3.757-5.499
			c0.604-1.433,1.263-2.854,1.955-4.255c-0.698,0.557-1.408,1.116-2.104,1.671c-0.646-0.214-1.298-0.42-1.938-0.625
			c-0.866,0.648-1.735,1.301-2.609,1.949c0.099-0.737,0.198-1.468,0.303-2.203c-1.533,0.25-3.1,0.221-4.584-0.276
			c1.821-3.179,3.666-6.357,5.605-9.477c-0.348-0.094-1.043-0.276-1.396-0.364c0.699-0.982,1.398-1.959,2.104-2.938
			c-1.1,0.648-2.206,1.283-3.335,1.872c-1.239,2.093-2.767,4.152-5.246,4.793c0.162-2.602,2.071-4.484,3.084-6.751
			c-1.452-0.701-3.015-1.111-4.621-1.284c1.238-1.315,2.963-1.963,4.505-2.829c-1.188-0.034-2.376-0.015-3.563,0.041
			c0.811-0.956,1.601-1.92,2.382-2.904c-0.371,0-1.121,0-1.493,0c1.24-1.404,1.041-3.258-0.917-1.632
			c-0.022-1.784-0.104-3.574-0.354-5.343c-0.169,2.417-0.187,4.832-0.311,7.244c-0.904-1.22-1.778-2.455-2.662-3.685
			c-0.172,0.613-0.338,1.222-0.497,1.839c1.099,1.507,1.762,3.256,1.929,5.109c-0.267,2.78-1.691,5.232-2.116,7.98
			c-0.275-0.38-0.856-1.138-1.146-1.512c-0.55,0.126-1.111,0.241-1.66,0.364c-0.499-0.499-0.991-0.996-1.486-1.491
			c0.021,0.502,0.065,1.498,0.087,1.997c-0.357-0.074-1.067-0.22-1.425-0.295c0.731,1.832,1.589,3.854,0.557,5.75
			c0.43,0.364,0.861,0.712,1.298,1.078c0.064,0.547,0.204,1.646,0.275,2.194c-0.859-0.396-1.72-0.792-2.555-1.206
			c-0.499,0.236-0.996,0.466-1.488,0.705c-0.235-0.641-0.476-1.282-0.717-1.912c-0.213,1.071-0.422,2.146-0.617,3.226
			c1.2,1.116,2.268,2.378,2.862,3.921c-0.41,0.02-1.23,0.063-1.634,0.082c0.596,1.38,1.156,2.787,1.627,4.216
			c0.9,0.423,1.829,0.845,2.747,1.284c-0.72,0.014-1.441,0.021-2.159,0.026c-0.527,0.728-1.055,1.447-1.582,2.173
			c0.373,0.387,0.762,0.768,1.139,1.159c-2.24,1.908-2.306,4.896-2.536,7.589c-1.671-0.682-1.87-2.1-1.334-3.636
			c-0.67,0.176-1.34,0.353-1.999,0.526c0.514-2.523,0.383-5.113-0.394-7.563c-0.104,0.545-0.307,1.646-0.417,2.188
			c-0.53,0.009-1.601,0.009-2.125,0.014c0.016-0.537,0.049-1.617,0.065-2.15c-0.485,0.523-0.967,1.051-1.451,1.58
			c-0.517-1.221-1.031-2.443-1.535-3.665c-0.921,1.395-2.536,2.783-1.744,4.615c0.429,0.151,1.289,0.454,1.713,0.604
			c0.272,1.672,0.604,3.334,0.952,4.992c0.68,0.531,1.383,1.061,2.067,1.598c-2.154-0.144-4.441-0.341-6.018-1.997
			c-1.755,2.645-0.312,5.453,0.401,8.15c-2.067-1.182-3.581-3.026-5.101-4.8c-0.349,0.603-0.695,1.214-1.041,1.814
			c-0.478-0.751-0.948-1.514-1.423-2.265c0.087,1.025,0.179,2.054,0.272,3.084c-0.413-0.199-1.242-0.593-1.65-0.79
			c0.213,0.9,0.438,1.8,0.654,2.709c-0.64,0.286-1.269,0.583-1.903,0.871c0.302-1.187,0.611-2.382,0.926-3.57
			c-0.521,0.516-1.026,1.039-1.542,1.56c-0.098-0.562-0.305-1.685-0.407-2.233c-0.042,1.26-0.077,2.517-0.105,3.784
			c-1.034-0.149-2.081-0.3-3.109-0.458c1.723,1.211,4.435,4.161,1.105,5.235c1.65,1.143,1.643,3.194,1.896,4.984
			c-0.423-0.047-1.28-0.129-1.706-0.172c0.434,0.879,0.874,1.764,1.329,2.643c-0.214,0.621-0.43,1.25-0.638,1.884
			c-0.347-0.73-0.69-1.458-1.039-2.177c-0.071,0.513-0.225,1.536-0.295,2.052c-0.708-1.087-1.428-2.155-2.145-3.226
			c0.33-0.213,0.985-0.628,1.31-0.841c-0.228-0.797-0.45-1.584-0.666-2.384c-0.996,0.11-2,0.213-2.991,0.332
			c-0.216-0.776-0.431-1.551-0.642-2.322c-0.818,0.058-1.648,0.121-2.457,0.178c-0.152-1.658,0.207-3.272,0.966-4.745
			c-0.701,0.514-1.396,1.027-2.095,1.543c-0.469-1.04-0.938-2.077-1.409-3.118c-0.591,0.865-1.177,1.735-1.751,2.602
			c1.602,1.58,0.087,2.892-1.374,3.718c0.968-2.808-1.612-5.294-4.404-4.323c0.601-0.9,0.919-1.915,1.004-2.987
			c0.414-0.401,0.824-0.806,1.248-1.205c0.053-0.81,0.097-1.611,0.152-2.413c-1.413,0.54-2.824,1.078-4.254,1.562
			c0.715-1.903,1.858-3.625,3.614-4.72c-0.216-1.246-0.435-2.496-0.649-3.742c-0.115,0.348-0.357,1.051-0.476,1.399
			c-2.088,0.987-2.855,3.264-3.929,5.139c-0.22-0.765-0.438-1.512-0.658-2.265c-0.405,1.699-0.862,3.393-1.406,5.059
			c-0.799-1.673-0.546-3.552-0.516-5.343c-1.096-0.242-2.186-0.492-3.274-0.737c2.777-1.975,6.186-2.906,8.759-5.201
			c-1.564,0.396-3.107,0.865-4.651,1.332c0.198-0.778,0.4-1.543,0.6-2.321c-1.47-0.454-2.4-1.507-2.618-3.019
			c0.41-0.082,1.23-0.23,1.644-0.305c0.809-1.725,1.127-3.607,1.159-5.499c-0.682,1.248-1.316,2.512-1.942,3.785
			c-0.346-0.886-0.686-1.781-1.016-2.663c-0.628,0.737-1.271,1.474-1.909,2.218c-0.015-1.19-0.01-2.376,0.021-3.559
			c-0.952,1.37-2.473,1.867-4.085,1.934c0.436-3.232,4.121-4.248,5.935-6.595c-0.454-0.839-0.913-1.702-1.368-2.541
			c-0.562,0.706-1.113,1.425-1.675,2.138c-0.04-0.305-0.118-0.933-0.164-1.242c-2.04,2.08-4.44,3.73-6.575,5.694
			c-0.872,0.833-2.884,1.757-3.495,0.208c0.771-2.247,0.249-5.056,2.417-6.591c-3.089-2.376-2.101-5.983-0.467-8.883
			c-0.631-0.146-1.249-0.283-1.875-0.419c-0.201,0.22-0.586,0.65-0.785,0.861c-0.072-0.442-0.211-1.344-0.283-1.791
			c-0.293,0.819-0.572,1.625-0.849,2.45c-0.914-0.895-1.856-1.764-2.811-2.613c0.356-2.544,2.156-4.431,3.477-6.523
			c-1.06,0.737-2.081,1.5-3.09,2.292c0.142-2.222,0.211-4.454,0.226-6.679l-0.795-0.015c-0.009,2.367-0.002,4.806-1.071,6.975
			c1.676,3.477,0.086,7.301,0.466,10.968c-0.558,0.176-1.104,0.357-1.657,0.545c0.249-2.734-0.747-3.699-3.076-2.016
			c0.021-0.502,0.049-1.014,0.074-1.516c-1.264-0.277-2.523-0.594-3.769-0.909c0.333,0.917,0.685,1.839,1.017,2.761
			c1.883,0.854,3.542,2.1,4.92,3.628c-0.241,0.563-0.474,1.133-0.7,1.694c0.604,1.481,1.445,3.208,0.141,4.601
			c-0.574-0.063-1.146-0.125-1.708-0.181c-0.262,0.334-0.797,0.999-1.057,1.33c-0.572-1.207-1.127-2.425-1.688-3.636
			c-0.743,0.284-1.488,0.572-2.23,0.856c-0.008-0.465-0.02-0.933-0.023-1.393c-0.734-0.785-1.46-1.57-2.177-2.36
			c-2.27,2.191-0.244,4.169,1.931,5.216c-0.804,1.658-1.789,3.23-3.073,4.564c-0.375-1.166-0.748-2.322-1.107-3.485
			c-0.549,0.469-1.109,0.932-1.657,1.392c0.042,0.737,0.075,1.479,0.11,2.217c-0.905-1.348-1.563-2.833-2.049-4.375
			c-0.37,0.4-0.74,0.797-1.106,1.188c-0.056-0.84-0.104-1.68-0.15-2.521c-0.909,0.829-1.936,1.527-3.176,1.743
			c1.729,1.308,3.162,2.945,4.289,4.776c-0.799-0.389-1.584-0.79-2.377-1.188c-1.329,3.156,1.908,4.686,2.771,7.301
			c-1.131-0.041-2.263-0.094-3.381-0.125c-0.293,2.028-1.199,3.874-1.949,5.761c-1.158,0.539-2.303,0.023-3.363-0.49
			c0.677-0.087,2.027-0.265,2.693-0.355c-0.517-2.688-1.351-5.302-1.881-7.995c-0.411,1.075-0.826,2.141-1.258,3.208
			c-0.366-0.017-1.078-0.058-1.438-0.069c-0.144-0.42-0.437-1.256-0.57-1.678c-1.247,0.912-2.503,1.812-3.764,2.702
			c-0.05-1.2-0.105-2.4-0.171-3.6c-0.547,0.497-1.1,0.982-1.646,1.481c-0.246-0.327-0.736-0.992-0.982-1.323
			c-0.131,0.55-0.265,1.087-0.4,1.632c-0.18-0.117-0.541-0.357-0.715-0.471c-0.77,0.368-1.54,0.734-2.299,1.105
			c0.563-1.208,0.871-2.501,0.675-3.829c-1.026,0.872-2.03,1.769-3.053,2.649c0.942-2.187,1.438-4.509,2.052-6.785
			c1.584-1.838,3.693-3.518,3.265-6.236c-1.416,1.434-3.173,2.382-5.212,1.802c-0.057,0.832-0.11,1.658-0.169,2.493
			c-0.537-0.516-1.069-1.029-1.608-1.542c0.701-1.25,1.396-2.505,2.088-3.759c-0.447,0.048-1.333,0.137-1.775,0.181
			c-0.195-1.805,0.347-3.511,1.231-5.071c-4.432-3.02,0.89-5.718,2.66-8.475c-1.556,0.698-3.064,1.488-4.586,2.276
			c-0.063-2.105-0.078-4.203-0.207-6.3c-0.154,1.447-0.25,2.906-0.335,4.365c-0.41-0.206-1.235-0.614-1.638-0.825
			c0.625,1.178,1.266,2.348,1.929,3.511c-1.165-0.737-2.395-1.38-3.722-1.76c2.866,2.108,4.35,5.302,3.124,8.789
			c-0.368,0.557-0.728,1.136-1.076,1.713c-0.495,0.246-0.994,0.492-1.483,0.737c-0.328,0.655-0.658,1.305-0.988,1.956
			c-0.41-0.575-0.81-1.156-1.209-1.741c-0.435,0.275-0.876,0.548-1.319,0.832c-0.356-0.188-0.706-0.372-1.057-0.557
			c-0.701,0.339-1.399,0.66-2.089,0.989c0.075-0.721,0.16-1.443,0.234-2.158c-1.266,0.458-2.529,0.928-3.783,1.411
			c-0.278-0.295-0.822-0.872-1.097-1.159c-1.212,0.547-2.428,1.077-3.673,1.539c0.506-1.236,1.043-2.458,1.589-3.67
			c-0.553,0.041-1.659,0.11-2.222,0.151c1.356-2.711,4.58-3.484,6.771-5.356c-1.163-0.254-2.33-0.523-3.499-0.771
			c0.11-2.118,1.163-3.943,3.102-4.916c0.065-0.364,0.134-0.72,0.201-1.077c-0.255-0.279-0.757-0.831-1.01-1.112
			c1.444-1.281,3.224-2.076,5.117-2.46c-1.615-0.521-2.231-2.08-2.73-3.547c-0.799,0.167-1.604,0.334-2.401,0.5
			c0.193-0.708,0.391-1.418,0.581-2.13c-0.432,0.172-1.294,0.506-1.729,0.678c0.365-1.127,0.738-2.26,1.111-3.388
			c-1.873,1.008-3.783,2.059-5.072,3.809c-0.271-0.007-0.811-0.022-1.076-0.022c-0.558,1.921-1.34,3.806-2.674,5.338
			c-0.448-1.665-0.865-3.348-1.343-5.001c0.853,0.046,1.711,0.082,2.56,0.124c0.099-0.822,0.206-1.636,0.313-2.455
			c2.103-0.261,3.4-1.934,1.978-3.786c1.24-0.982,2.707-1.563,4.24-1.935c0.891-1.514,1.694-3.08,2.404-4.69
			c-1.385,0.618-2.674,1.419-3.852,2.376c-0.049-0.984-0.122-1.954-0.189-2.94c-0.75,0.785-1.493,1.563-2.245,2.332
			c-0.313-1.693-0.126-3.408,0.297-5.059c-0.729,0.471-1.46,0.943-2.18,1.426c-0.049-1.172-0.107-2.345-0.173-3.518
			c-0.601,1.576-1.083,3.201-1.51,4.833c-0.273-0.271-0.553-0.547-0.832-0.818c-0.397,1.75-1.793,2.712-3.375,3.341
			c0.462-1.243,0.964-2.473,1.479-3.691c-0.855,0.243-1.699,0.473-2.545,0.713c0.34-0.591,0.687-1.173,1.038-1.757
			c-0.596-0.783-1.176-1.563-1.755-2.345c-0.139,0.929-0.263,1.871-0.396,2.801c-0.663-2.94-2.508-4.154-5.091-2.165
			c0.167-0.603,0.328-1.207,0.49-1.807c2.416,0.081,4.465-1.005,5.555-3.176c-1.46,0.538-2.911,1.116-4.364,1.663
			c0.512-0.69,1.026-1.387,1.553-2.078c-0.393-0.041-1.151-0.132-1.54-0.18c0.968-0.967,1.929-1.927,2.903-2.883
			c-0.389-0.316-0.775-0.635-1.152-0.949c1.611-0.248,3.206-0.613,4.658-1.374c-0.518-0.223-1.572-0.68-2.103-0.905
			c0.331-0.667,0.659-1.33,0.989-1.997c-0.967,0.055-1.935,0.117-2.904,0.165c-1.021,3.212-2.782,6.311-6.277,7.25
			c0.477-1.728,0.969-3.456,1.463-5.179c-1.02,0.245-2.042,0.492-3.061,0.742c2.198-3.533,5.92-4.969,9.396-6.84
			c-1.057,0.045-2.111,0.096-3.171,0.144c1.753-2.631,4.306-4.621,5.962-7.323c-2.327,1.695-4.246,3.852-6.349,5.808
			c0.225-1.183,0.44-2.364,0.642-3.559c-1.159,1.529-1.758,3.353-2.233,5.177c-0.635-0.118-1.261-0.224-1.896-0.346
			c0.415-0.517,0.825-1.032,1.238-1.555c-0.949,0.151-1.894,0.302-2.843,0.454c0.75-2.045,1.54-4.076,2.18-6.158
			c-0.886,1.104-1.685,2.277-2.435,3.477c-0.255-0.665-0.509-1.332-0.765-1.986c-0.136,1.23-0.265,2.474-0.384,3.712
			c-0.638,0.126-1.274,0.261-1.896,0.396c0.204,0.792,0.424,1.583,0.635,2.375c-0.303,0.069-0.931,0.206-1.25,0.269
			c-0.319,1.364-0.766,2.693-1.453,3.915c-0.131-1.464-0.173-2.931-0.194-4.404c0.39-0.318,0.778-0.641,1.163-0.96
			c-1.612-1.241,0.15-2.852,0.628-4.217c-0.497,0.034-1.479,0.096-1.978,0.125c0.905-1.275,2.055-2.342,3.297-3.271
			c-0.567,0.007-1.713,0.027-2.283,0.041c-0.434-1.707-0.668-3.451-0.799-5.206c-0.194,0.847-0.387,1.694-0.576,2.542
			c-0.994-0.895-2.243-1.066-3.522-0.771c1.177,0.973,2.379,1.918,3.56,2.878c-1.467,0.799-2.84,1.742-4.12,2.805
			c0.79,0.941,1.594,1.877,2.4,2.806c0.021,1.008,0.049,2.024,0.073,3.029c0.349,0.346,0.702,0.688,1.052,1.029
			c-0.268,1.52-0.422,3.053-0.519,4.589c-0.635,0.303-1.261,0.6-1.896,0.896c-0.45-2.822-0.59-5.673-0.743-8.532
			c-0.157,1.195-0.298,2.383-0.436,3.574c-0.689,0.261-1.389,0.529-2.07,0.792c0.005-0.811,0.021-1.618,0.042-2.432
			c-0.277-0.041-0.823-0.122-1.097-0.165c-0.487-1.294-1.021-2.616-2.156-3.485c0.174,1.333,0.415,2.657,0.666,3.975
			c-1.563-0.817-3.157-1.57-4.816-2.164c1.12,1.601,2.658,2.837,4.176,4.049c-1.223,0.043-2.441,0.078-3.658,0.111
			c0.389,1.757,0.769,3.511,1.15,5.275c-0.438,0.18-1.308,0.538-1.746,0.712c0.887,0.742,1.784,1.483,2.678,2.221
			c-4.313,1.553-5.635-5.103-7.573-7.822c0.211,1.543,0.478,3.07,0.764,4.599c-1.177-1.04-2.454-1.99-3.841-2.734
			c0.715,1.11,1.481,2.187,2.262,3.251c-0.238,0.319-0.708,0.949-0.939,1.267c1.711,0.461,3.402,1.044,5.06,1.672
			c-0.415,0.951-0.819,1.894-1.224,2.847c-0.894-0.401-1.81-0.782-2.719-1.166c1.033,2.184,2.354,4.221,4.147,5.858
			c0.007,2.155,1.826,3.32,3.464,4.335c-1.062-0.096-2.135-0.041-2.776,0.953c-0.907-2.122-1.992-4.186-3.592-5.88
			c-0.337,0.036-1.01,0.096-1.35,0.125c-0.363-1.069-0.733-2.148-1.113-3.208c-0.478,1.748-0.399,3.559-0.198,5.341
			c-3.239,0.954-4.197-2.272-4.602-4.795c-0.101,1.236-0.206,2.468-0.313,3.716c-0.976-0.4-1.937-0.792-2.897-1.193
			c0.773,1.236,1.552,2.472,2.33,3.703c-0.776-0.082-1.556-0.165-2.33-0.247c2.011,1.308,3.78,2.922,5.292,4.786
			c-0.358,0.031-1.073,0.094-1.438,0.127c-0.07,0.698-0.139,1.401-0.212,2.098c-0.921-0.381-1.852-0.771-2.77-1.15
			c0.176,3.21-1.371,6.412-0.225,9.524c-2.658-1.442-4.051-4.243-6.102-6.336c-0.246,2.045,0.886,3.829,1.709,5.611
			c-2.119-0.611-4.565-0.619-6.202-2.294c1.81-0.612,2.62-2.116,2.717-3.938c-1.029,0.489-2.052,0.99-3.085,1.494
			c0.432-1.185,0.88-2.348,1.346-3.511c-1.158,0.847-2.332,1.68-3.506,2.5c-0.324-0.307-0.659-0.616-0.989-0.928
			c-0.104,0.976-0.22,1.96-0.333,2.947c-0.271-0.859-0.534-1.722-0.792-2.578c0.867-1.001,1.708-2.014,2.534-3.048
			c-0.952,0.277-1.901,0.557-2.854,0.833c-0.149-0.414-0.459-1.244-0.613-1.651c1.512-1.174,3.051-2.288,4.683-3.272
			c-0.424-0.014-1.284-0.04-1.716-0.057c0.28-0.96,0.539-1.924,0.769-2.909c-2.78,1.928-4.517,5.038-7.356,6.847
			c-1.369,0.341-0.668-1.365-0.368-2.028c-0.548-0.744-0.548-1.651-0.525-2.527c-0.492,0.419-0.989,0.84-1.488,1.253
			c-0.384-0.958-0.767-1.917-1.152-2.878c-0.35,1.756-0.818,3.49-1.451,5.164c-0.858-0.886-1.404-1.983-1.688-3.14
			c1.669-0.689,3.07-1.87-0.04-2.376c0.621-0.394,1.235-0.774,1.856-1.157c-0.337-0.625-0.614-1.274-0.876-1.926
			c0.619-0.863,1.481-1.563,2.606-1.99c-1.088,0.096-2.183,0.177-3.271,0.254c-0.014-0.041-0.028-0.08-0.045-0.117
			c1.127-0.769,2.271-1.515,3.406-2.28c-1.294,0.329-2.587,0.682-3.865,1.037c-0.014-0.032-0.023-0.059-0.035-0.087
			c-0.007-1.385-0.007-2.775-0.014-4.172c-0.321,0.45-0.635,0.893-0.958,1.33c-0.298-0.751-0.591-1.507-0.9-2.26
			c0.174,1.436,0.406,2.86,0.678,4.279c-0.504-0.185-1.015-0.346-1.532-0.482c0.186-0.149,0.371-0.293,0.551-0.444
			c-0.572,0.017-1.134,0.094-1.688,0.19c-0.551-0.099-1.117-0.173-1.688-0.19c0.178,0.151,0.368,0.298,0.551,0.444
			c-0.516,0.137-1.031,0.297-1.535,0.482c0.272-1.419,0.504-2.844,0.681-4.279c-0.31,0.753-0.604,1.509-0.902,2.26
			c-0.321-0.437-0.64-0.88-0.958-1.33c-0.004,1.397-0.004,2.782-0.014,4.172c-0.013,0.028-0.021,0.055-0.03,0.087
			c-1.289-0.355-2.578-0.708-3.87-1.037c1.132,0.765,2.278,1.512,3.401,2.28c-0.015,0.038-0.028,0.076-0.04,0.117
			c-1.091-0.077-2.183-0.158-3.268-0.254c1.121,0.427,1.985,1.132,2.606,1.99c-0.264,0.652-0.539,1.301-0.876,1.926
			c0.619,0.382,1.231,0.763,1.854,1.157c-3.106,0.506-1.711,1.688-0.042,2.376c-0.284,1.157-0.825,2.253-1.688,3.14
			c-0.63-1.673-1.103-3.408-1.456-5.164c-0.379,0.961-0.767,1.921-1.153,2.878c-0.495-0.413-0.989-0.833-1.486-1.253
			c0.026,0.878,0.026,1.783-0.526,2.527c0.307,0.661,1.01,2.369-0.363,2.028c-2.838-1.81-4.572-4.919-7.35-6.847
			c0.223,0.984,0.481,1.949,0.759,2.909c-0.427,0.018-1.287,0.045-1.716,0.057c1.636,0.984,3.176,2.098,4.689,3.272
			c-0.154,0.408-0.464,1.237-0.613,1.651c-0.951-0.277-1.9-0.557-2.853-0.833c0.825,1.033,1.668,2.045,2.536,3.048
			c-0.265,0.856-0.525,1.719-0.794,2.578c-0.11-0.984-0.225-1.969-0.328-2.947c-0.331,0.312-0.663,0.621-0.996,0.928
			c-1.167-0.818-2.344-1.651-3.506-2.5c0.471,1.165,0.921,2.329,1.348,3.511c-1.028-0.501-2.058-1.005-3.089-1.494
			c0.102,1.821,0.912,3.324,2.722,3.938c-1.639,1.673-4.086,1.681-6.202,2.294c0.817-1.782,1.959-3.566,1.702-5.611
			c-2.047,2.093-3.437,4.894-6.097,6.336c1.146-3.112-0.397-6.314-0.223-9.524c-0.928,0.38-1.85,0.769-2.772,1.15
			c-0.074-0.696-0.139-1.399-0.211-2.098c-0.362-0.033-1.083-0.096-1.438-0.127c1.512-1.863,3.28-3.478,5.29-4.786
			c-0.77,0.082-1.553,0.165-2.325,0.247c0.776-1.231,1.557-2.467,2.325-3.703c-0.954,0.401-1.924,0.792-2.893,1.193
			c-0.109-1.248-0.213-2.479-0.315-3.716c-0.408,2.523-1.364,5.751-4.6,4.795c0.195-1.783,0.272-3.595-0.198-5.341
			c-0.388,1.061-0.755,2.14-1.123,3.208c-0.331-0.029-1.011-0.089-1.349-0.125c-1.596,1.694-2.677,3.758-3.588,5.88
			c-0.642-0.996-1.715-1.051-2.771-0.953c1.641-1.015,3.459-2.18,3.464-4.335c1.791-1.639,3.109-3.676,4.146-5.858
			c-0.912,0.387-1.826,0.765-2.721,1.166c-0.403-0.953-0.807-1.896-1.221-2.847c1.664-0.63,3.349-1.211,5.064-1.672
			c-0.236-0.317-0.708-0.948-0.947-1.267c0.785-1.064,1.553-2.141,2.265-3.251c-1.391,0.744-2.669,1.695-3.844,2.734
			c0.291-1.528,0.553-3.055,0.767-4.599c-1.937,2.72-3.258,9.375-7.573,7.822c0.892-0.737,1.786-1.481,2.672-2.221
			c-0.431-0.175-1.306-0.532-1.74-0.712c0.375-1.761,0.754-3.518,1.147-5.275c-1.219-0.034-2.439-0.068-3.659-0.111
			c1.517-1.211,3.052-2.448,4.174-4.049c-1.651,0.593-3.251,1.347-4.818,2.164c0.253-1.316,0.495-2.643,0.668-3.975
			c-1.139,0.87-1.667,2.191-2.159,3.485c-0.274,0.043-0.813,0.124-1.092,0.165c0.021,0.813,0.038,1.617,0.044,2.432
			c-0.691-0.263-1.387-0.531-2.076-0.792c-0.139-1.193-0.277-2.379-0.434-3.574c-0.152,2.859-0.301,5.707-0.746,8.532
			c-0.633-0.298-1.264-0.593-1.895-0.896c-0.099-1.536-0.249-3.069-0.518-4.589c0.352-0.341,0.701-0.683,1.05-1.029
			c0.031-1.005,0.052-2.021,0.073-3.029c0.806-0.928,1.613-1.867,2.401-2.806c-1.279-1.063-2.657-2.006-4.123-2.805
			c1.187-0.96,2.382-1.906,3.559-2.878c-1.279-0.295-2.524-0.124-3.521,0.771c-0.194-0.847-0.382-1.694-0.571-2.542
			c-0.135,1.752-0.368,3.499-0.803,5.206c-0.571-0.014-1.716-0.034-2.287-0.041c1.25,0.929,2.397,1.997,3.302,3.271
			c-0.494-0.029-1.481-0.091-1.979-0.125c0.475,1.365,2.236,2.979,0.624,4.217c0.39,0.319,0.783,0.642,1.165,0.96
			c-0.017,1.473-0.059,2.94-0.189,4.404c-0.691-1.222-1.14-2.551-1.458-3.915c-0.313-0.06-0.942-0.199-1.251-0.269
			c0.213-0.792,0.434-1.583,0.642-2.375c-0.628-0.135-1.261-0.27-1.896-0.396c-0.124-1.239-0.249-2.482-0.388-3.712
			c-0.255,0.651-0.509,1.322-0.764,1.986c-0.752-1.2-1.551-2.371-2.43-3.477c0.633,2.083,1.425,4.113,2.177,6.158
			c-0.954-0.151-1.896-0.302-2.848-0.454c0.412,0.523,0.826,1.042,1.239,1.555c-0.633,0.12-1.259,0.228-1.894,0.346
			c-0.471-1.825-1.074-3.65-2.231-5.177c0.202,1.195,0.41,2.376,0.641,3.559c-2.099-1.954-4.021-4.113-6.35-5.808
			c1.657,2.703,4.209,4.695,5.967,7.323c-1.062-0.048-2.118-0.101-3.173-0.144c3.477,1.871,7.195,3.307,9.395,6.84
			c-1.016-0.25-2.046-0.497-3.062-0.742c0.497,1.72,0.982,3.451,1.46,5.179c-3.491-0.94-5.257-4.039-6.271-7.25
			c-0.976-0.048-1.937-0.11-2.906-0.165c0.326,0.667,0.661,1.33,0.991,1.997c-0.532,0.225-1.586,0.682-2.109,0.905
			c1.451,0.761,3.049,1.126,4.664,1.374c-0.379,0.314-0.764,0.633-1.147,0.949c0.971,0.954,1.934,1.916,2.896,2.883
			c-0.384,0.048-1.15,0.139-1.535,0.18c0.527,0.691,1.039,1.388,1.553,2.078c-1.453-0.547-2.899-1.125-4.359-1.663
			c1.085,2.17,3.131,3.257,5.547,3.176c0.171,0.6,0.324,1.205,0.488,1.807c-2.571-1.99-4.418-0.776-5.083,2.165
			c-0.131-0.93-0.258-1.872-0.396-2.801c-0.576,0.778-1.167,1.562-1.758,2.345C8.311,94.428,8.653,95.011,9,95.602
			c-0.851-0.243-1.694-0.473-2.547-0.713c0.516,1.219,1.017,2.448,1.479,3.691c-1.581-0.627-2.975-1.591-3.377-3.341
			c-0.267,0.271-0.551,0.547-0.827,0.818c-0.43-1.631-0.909-3.256-1.508-4.833c-0.061,1.173-0.124,2.346-0.173,3.518
			C1.32,94.26,0.596,93.789-0.14,93.316c0.432,1.651,0.614,3.368,0.307,5.059c-0.22-0.234-0.439-0.472-0.666-0.703v4.859
			c0.356,0.206,0.703,0.436,1.031,0.696c-1.425,1.85-0.129,3.525,1.974,3.787c0.104,0.819,0.213,1.632,0.31,2.455
			c0.854-0.042,1.711-0.079,2.565-0.125c-0.484,1.656-0.896,3.336-1.348,5.002c-1.333-1.529-2.109-3.415-2.672-5.338
			c-0.271,0-0.805,0.015-1.069,0.022c-0.241-0.322-0.518-0.598-0.792-0.874v19.042c0.483,0.458,0.905,0.979,1.221,1.61
			c-0.302-0.019-0.769-0.05-1.221-0.081v2.222c0.199,0.46,0.403,0.914,0.598,1.378c-0.203-0.073-0.396-0.171-0.598-0.249v254.319
			h52.807h60.845h679.641V279.181c-1.449-0.554-2.902-1.125-4.357-1.636c-1.441-5.25-0.197-11.002-0.227-16.438
			C789.779,260.665,791.299,260.062,792.789,259.388z M63.3,125.645c-0.049,0.048-0.129,0.125-0.192,0.188
			c-0.253,0.026-0.504,0.051-0.754,0.074c-0.109-0.612-0.218-1.232-0.323-1.846c0.478,0.42,0.906,0.895,1.301,1.411
			C63.321,125.533,63.306,125.6,63.3,125.645z M65.84,122.148c-0.347-0.691-0.691-1.378-1.036-2.057
			c-0.072,0.47-0.199,1.433-0.265,1.903c-0.649,0.092-1.298,0.18-1.94,0.264c-0.057-0.357-0.176-1.102-0.229-1.473
			c-0.255-0.055-0.758-0.174-1.011-0.224c-0.389-0.691-0.764-1.379-1.152-2.071c-0.232,0.096-0.703,0.28-0.947,0.374
			c0.255,0.757,0.511,1.512,0.762,2.273c-0.591,0-1.791,0.012-2.381,0.012c1.446,0.82,2.911,1.663,4.179,2.739
			c-0.853,1.173-1.667,2.405-1.703,3.9c-0.574,0.681-1.153,1.354-1.732,2.033c-0.126-0.255-0.389-0.755-0.518-0.999
			c-0.605,0.161-1.222,0.326-1.828,0.489c0.126-0.417,0.373-1.253,0.504-1.672c-0.757,0.419-1.513,0.832-2.278,1.244
			c0.15-1.947,0.532-3.875,1.104-5.746c-0.927-0.014-1.841-0.029-2.764-0.048c0.388-0.435,0.783-0.87,1.165-1.298
			c-0.564-0.761-1.192-1.474-1.879-2.125c1.575-0.83,3.276,0.056,4.821,0.514c0.429-2.511,1.691-4.369,4.512-4.032
			c-0.225-0.675-0.45-1.347-0.67-2.018c0.382-0.151,1.13-0.446,1.507-0.595c0.683,1.267,1.385,2.529,2.107,3.777
			c-0.517,0.103-1.557,0.317-2.072,0.421c1.512,0.904,3.138,1.701,4.95,1.679c-0.356,0.346-0.722,0.687-1.087,1.037
			C66.079,121.04,66.004,121.599,65.84,122.148z M85.521,95.714c-0.331-0.005-0.74-0.019-0.975-0.026
			c0.084,0.792,0.103,1.585,0.042,2.375c-0.258,0.373-0.569,0.73-0.944,1.071c-0.134-0.728-0.276-1.45-0.4-2.18
			c-0.169,0.482-0.346,0.964-0.517,1.442c-0.173-0.478-0.345-0.96-0.516-1.442c-0.124,0.728-0.268,1.452-0.398,2.177
			c-0.377-0.339-0.688-0.696-0.948-1.069c-0.062-0.79-0.04-1.583,0.042-2.375c-0.236,0.007-0.646,0.021-0.976,0.026
			c-0.361-2.27,0.532-4.778,1.584-6.981c0.401-0.325,0.802-0.656,1.209-0.979c0.406,0.325,0.81,0.655,1.209,0.979
			C84.991,90.936,85.879,93.444,85.521,95.714z M103.103,125.907c-0.249-0.023-0.504-0.048-0.757-0.074
			c-0.063-0.063-0.146-0.139-0.197-0.188c-0.01-0.045-0.017-0.112-0.025-0.168c0.391-0.518,0.825-0.995,1.301-1.414
			C103.319,124.675,103.214,125.295,103.103,125.907z M111.691,121.786c0.39,0.429,0.778,0.864,1.163,1.298
			c-0.921,0.019-1.835,0.033-2.761,0.048c0.572,1.872,0.949,3.799,1.104,5.746c-0.768-0.411-1.526-0.824-2.278-1.243
			c0.126,0.419,0.377,1.255,0.501,1.672c-0.607-0.16-1.219-0.326-1.828-0.49c-0.129,0.245-0.394,0.744-0.52,0.999
			c-0.572-0.679-1.153-1.351-1.73-2.032c-0.033-1.495-0.851-2.727-1.704-3.9c1.261-1.076,2.729-1.918,4.181-2.739
			c-0.598,0-1.793-0.012-2.388-0.012c0.258-0.762,0.513-1.515,0.767-2.273c-0.239-0.094-0.716-0.277-0.952-0.374
			c-0.385,0.69-0.763,1.379-1.146,2.071c-0.258,0.05-0.757,0.168-1.015,0.224c-0.055,0.372-0.169,1.116-0.229,1.473
			c-0.645-0.087-1.293-0.175-1.939-0.264c-0.06-0.471-0.192-1.433-0.264-1.903c-0.347,0.681-0.695,1.365-1.043,2.057
			c-0.158-0.547-0.236-1.108-0.114-1.704c-0.363-0.351-0.731-0.691-1.085-1.037c1.812,0.022,3.436-0.775,4.949-1.68
			c-0.516-0.104-1.559-0.317-2.068-0.42c0.717-1.248,1.422-2.51,2.102-3.777c0.377,0.147,1.135,0.443,1.512,0.594
			c-0.22,0.673-0.442,1.344-0.67,2.02c2.814-0.339,4.08,1.521,4.513,4.031c1.547-0.458,3.246-1.343,4.82-0.514
			C112.882,120.312,112.256,121.026,111.691,121.786z"/>
		<rect x="28.071" y="275.899" fill="#43A0D2" width="527.114" height="110.494"/>
		<polygon fill="#2C2C2C" stroke="#393737" stroke-width="0.0938" stroke-miterlimit="10.43" points="558.617,321.815 
			558.617,386.394 571.097,386.394 571.097,345.171 661.563,345.171 661.563,386.394 671.727,386.394 671.727,345.171 
			762.186,345.171 762.186,386.394 784.838,386.394 784.838,321.815 		"/>
		<path fill="#FFFFFF" d="M661.293,341.16c-1.601-4.14-8.354-7.242-16.455-7.242h-56.34c-8.104,0-14.86,3.104-16.46,7.242H661.293z"
			/>
		<path fill="#FFFFFF" d="M760.979,341.16c-1.597-4.14-8.353-7.242-16.448-7.242h-56.345c-8.104,0-14.858,3.104-16.457,7.242
			H760.979z"/>
		<rect x="558.617" y="293.567" fill="#2C2C2C" width="10.537" height="25.805"/>
		<rect x="558.617" y="274.858" fill="#2C2C2C" width="10.537" height="16.154"/>
		<rect x="571.321" y="293.567" fill="#2C2C2C" width="43.921" height="25.805"/>
		<rect x="617.411" y="265.208" fill="#2C2C2C" width="43.916" height="25.809"/>
		<rect x="617.411" y="293.567" fill="#2C2C2C" width="43.916" height="25.805"/>
		<rect x="663.502" y="265.208" fill="#2C2C2C" width="43.922" height="25.809"/>
		<rect x="663.502" y="293.567" fill="#2C2C2C" width="43.922" height="25.805"/>
		<rect x="709.588" y="265.208" fill="#2C2C2C" width="43.92" height="25.809"/>
		<rect x="709.588" y="293.567" fill="#2C2C2C" width="43.92" height="25.805"/>
		<polygon fill="#2C2C2C" points="584.547,265.208 584.547,274.858 571.321,274.858 571.321,291.015 615.241,291.015 
			615.241,265.208 		"/>
		<polygon fill="#283C8F" points="755.547,319.372 755.547,228.606 801.1,228.606 801.1,386.394 787.317,386.394 787.317,319.372 		
			"/>
		<rect x="575.319" y="279.851" fill="#FFFFFF" width="36.439" height="7.274"/>
		<rect x="621.407" y="279.851" fill="#FFFFFF" width="36.438" height="7.274"/>
		<rect x="667.495" y="279.851" fill="#FFFFFF" width="36.445" height="7.274"/>
		<rect x="713.588" y="279.851" fill="#FFFFFF" width="36.438" height="7.274"/>
		<polygon fill="#145B8E" points="555.186,335.937 555.186,386.394 385.443,386.394 		"/>
		<rect x="47.786" y="329.5" fill="#2C2C2C" width="27.739" height="41.192"/>
		<rect x="47.786" y="375.733" fill="#2C2C2C" width="27.739" height="2.738"/>
		<rect x="85.035" y="329.5" fill="#2C2C2C" width="27.745" height="41.192"/>
		<rect x="85.035" y="375.733" fill="#2C2C2C" width="27.745" height="2.738"/>
		<rect x="122.289" y="329.5" fill="#2C2C2C" width="27.74" height="41.192"/>
		<rect x="122.289" y="375.733" fill="#2C2C2C" width="27.74" height="2.738"/>
		<rect x="159.541" y="329.5" fill="#2C2C2C" width="27.743" height="41.192"/>
		<rect x="159.541" y="375.733" fill="#2C2C2C" width="27.743" height="2.738"/>
		<rect x="196.792" y="329.5" fill="#2C2C2C" width="27.743" height="41.192"/>
		<rect x="196.792" y="375.733" fill="#2C2C2C" width="27.743" height="2.738"/>
		<rect x="234.044" y="329.5" fill="#2C2C2C" width="27.743" height="41.192"/>
		<rect x="234.044" y="375.733" fill="#2C2C2C" width="27.743" height="2.738"/>
		<rect x="271.298" y="329.5" fill="#2C2C2C" width="27.739" height="41.192"/>
		<rect x="271.298" y="375.733" fill="#2C2C2C" width="27.739" height="2.738"/>
		<path fill="#CCCCCC" d="M949.133,150.73c2.281,0,4.356,0.861,5.94,2.27c2.375-4.397,7.021-7.39,12.373-7.39
			c2.939,0,5.664,0.907,7.925,2.451c3.924-6.485,11.047-10.81,19.174-10.81c7.242,0,13.682,3.435,17.78,8.769
			c1.056-0.259,2.158-0.41,3.296-0.41c7.762,0,14.055,6.293,14.055,14.052h-89.479C940.197,154.731,944.196,150.73,949.133,150.73z"
			/>
		<path fill="#CCCCCC" d="M786.17,104.703c2.508,0,4.784,0.953,6.521,2.499c2.609-4.83,7.715-8.112,13.58-8.112
			c3.229,0,6.225,0.994,8.695,2.69c4.311-7.119,12.129-11.871,21.053-11.871c7.951,0,15.016,3.778,19.516,9.627
			c1.16-0.286,2.377-0.449,3.625-0.449c8.519,0,15.427,6.907,15.427,15.422h-98.22C776.363,109.095,780.756,104.703,786.17,104.703z
			"/>
		<path fill="#CCCCCC" d="M989.697,106.727c3.131,0,5.974,1.187,8.146,3.12c3.252-6.034,9.634-10.136,16.968-10.136
			c4.032,0,7.771,1.239,10.866,3.357c5.384-8.886,15.149-14.831,26.299-14.831c9.938,0,18.762,4.715,24.382,12.028
			c1.452-0.353,2.968-0.557,4.528-0.557c10.646,0,19.27,8.631,19.27,19.271H977.435C977.44,112.212,982.928,106.727,989.697,106.727
			z"/>
		<g>
			<path fill="#145B8E" d="M902.444,359.248c4.475-1.162,9.455-2.508,9.935-2.713c0.896-0.39,7.25-13.039,7.25-13.039h11.844v33.114
				h-3.015v-0.12c0-5.73-4.649-10.384-10.383-10.384c-5.727,0-10.377,4.651-10.377,10.384v0.12h-12.44v-8.086
				C895.25,364.169,898.204,360.349,902.444,359.248z M928.782,356.74v-10.529h-7.485c-2.929,5.754-4.629,8.856-5.729,10.529
				H928.782z"/>
			<path fill="#145B8E" d="M922.784,341.435h10.771v30.938h4.623V327.03l0,0c-6.322,0-11.935,4.027-13.93,10.021
				C923.77,338.513,923.264,340.005,922.784,341.435z"/>
			<rect x="941.223" y="321.717" fill="#145B8E" width="202.438" height="38.485"/>
			<path fill="#145B8E" d="M918.069,369.121c4.09,0,7.4,3.313,7.4,7.397c0,4.088-3.313,7.397-7.4,7.397
				c-4.082,0-7.396-3.313-7.396-7.397C910.707,372.435,914.018,369.121,918.069,369.121z M918.069,380.099
				c1.973,0,3.584-1.613,3.584-3.58s-1.611-3.578-3.584-3.578c-1.966,0-3.574,1.611-3.574,3.578
				C914.491,378.485,916.104,380.099,918.069,380.099z"/>
			<path fill="#145B8E" d="M976.692,369.121c4.088,0,7.396,3.313,7.396,7.397c0,4.088-3.31,7.397-7.396,7.397
				c-4.087,0-7.396-3.313-7.396-7.397C969.323,372.435,972.639,369.121,976.692,369.121z M976.692,380.099
				c1.969,0,3.579-1.613,3.579-3.58s-1.61-3.578-3.579-3.578s-3.58,1.611-3.58,3.578S974.725,380.099,976.692,380.099z"/>
			<path fill="#145B8E" d="M993.905,369.121c4.084,0,7.396,3.313,7.396,7.397c0,4.088-3.313,7.397-7.396,7.397
				c-4.086,0-7.396-3.313-7.396-7.397C986.51,372.435,989.821,369.121,993.905,369.121z M993.905,380.099
				c1.968,0,3.578-1.613,3.578-3.58s-1.61-3.578-3.578-3.578c-1.97,0-3.58,1.611-3.58,3.578
				C990.297,378.485,991.905,380.099,993.905,380.099z"/>
			<path fill="#145B8E" d="M1097.389,369.121c4.088,0,7.4,3.313,7.4,7.397c0,4.088-3.313,7.397-7.4,7.397
				c-4.084,0-7.396-3.313-7.396-7.397C1090.024,372.435,1093.305,369.121,1097.389,369.121z M1097.389,380.099
				c1.971,0,3.58-1.613,3.58-3.58s-1.609-3.578-3.58-3.578c-1.965,0-3.576,1.611-3.576,3.578S1095.424,380.099,1097.389,380.099z"/>
			<path fill="#145B8E" d="M1114.608,369.121c4.081,0,7.396,3.313,7.396,7.397c0,4.088-3.313,7.397-7.396,7.397
				c-4.091,0-7.4-3.313-7.4-7.397C1107.207,372.435,1110.518,369.121,1114.608,369.121z M1114.608,380.099
				c1.963,0,3.574-1.613,3.574-3.58s-1.611-3.578-3.574-3.578c-1.975,0-3.584,1.611-3.584,3.578
				C1110.991,378.485,1112.608,380.099,1114.608,380.099z"/>
			<rect x="1031.76" y="368.076" fill="#145B8E" width="31.621" height="11.545"/>
			<path fill="#145B8E" d="M1137.991,362.408l-1.346,6.981c-0.774,4.022-4.319,6.946-8.442,6.946h-3.279
				c-0.09-5.637-4.711-10.2-10.353-10.2h-17.212c-5.67,0-10.295,4.563-10.352,10.2h-21.51v-10.2h-36.099v10.2h-25.145
				c-0.094-5.637-4.715-10.2-10.383-10.2h-17.214c-5.663,0-10.293,4.563-10.354,10.2h-25.088v-13.933h196.771v0.004
				L1137.991,362.408L1137.991,362.408z"/>
		</g>
		<rect x="-0.5" y="382.701" fill="#2D2C2C" width="1200" height="16.799"/>
	</g>
</g>
</svg>
