<svg version="1" xmlns="http://www.w3.org/2000/svg" width="936" height="936" viewBox="0 0 702.000000 702.000000"><path d="M334 93.3c-.3.3-4.3.8-9 1.2-9.7.8-12.5 1.2-16 2-1.4.3-3.6.7-5 1-10.3 2-22.6 6.2-32.3 11-9.8 4.9-13.6 7.5-20.1 14.1l-4.1 4.1v52.7c0 29-.2 53.1-.5 53.6-.4.7-7 2.8-9.2 3-.4 0-2.8.9-5.3 2s-4.5 1.7-4.5 1.4c0-.2-1.3.2-3 1.1-1.6.9-3 1.3-3 1 0-.3-1.3.1-3 1-1.6.8-3.8 1.5-5 1.5-1.1 0-2 .5-2 1.2 0 .6-.3.9-.6.6-.3-.3-11.9 3.2-25.7 7.9-13.9 4.6-25.7 8.5-26.4 8.7-.7.1-1.6.5-1.9.9-.4.4-1.3.7-2 .7s-5.1 1.4-9.7 3c-11.3 4.1-17.5 10.2-19.2 19-.2.8-.4 62.3-.4 136.7l-.1 135.2-7.3 2.2c-3.9 1.3-7.6 2.3-8.2 2.5-.5.1-6.8 2.1-14 4.5-7.1 2.4-13.2 4.4-13.5 4.4-.3.1-1.8.7-3.5 1.4-1.6.6-6.1 2.4-10 3.8-3.8 1.4-9.2 3.6-12 4.8-2.7 1.2-6.6 2.8-8.5 3.5-1.9.7-3.9 1.7-4.4 2.2-.6.4-1.8.8-2.8.8-1 0-1.8.4-1.8 1 0 .5-.3.9-.8.8-.4-.1-2 .4-3.7 1.1-1.6.7-3.2 1.2-3.5 1.2-.3 0-1.2.7-2 1.4s-2.7 1.7-4.2 2c-1.6.4-2.8 1.1-2.8 1.6s-.3.8-.7.7C21.1 597.5 3 607.1 3 608c0 .5 1.2.5 2.8 0 1.5-.5 4.3-1.1 6.2-1.4 1.9-.2 4.2-.6 5-.9.8-.3 3.3-.9 5.5-1.2 2.2-.3 5-.8 6.2-1 4.1-.6 10.8-1.7 12.3-2 .8-.1 3.5-.6 6-1s5.4-.9 6.5-1.1c1.1-.2 3.8-.6 6-.9 2.2-.3 5.1-.7 6.4-1 1.4-.2 4.7-.7 7.5-1 2.8-.3 6.2-.8 7.6-1 8.1-1.2 19.9-2.7 32-4 3-.4 6.6-.8 8-1 1.4-.2 5.9-.6 10-1 4.1-.3 9.1-.8 11-1 12.1-1.3 29.1-2.8 46.5-4 2.8-.2 8.2-.6 12-.9 9.9-.7 24.1-1.6 37.5-2.2 6.3-.2 16-.7 21.5-.9 25.1-1.2 52.2-1.6 91-1.6 45.3 0 87.3.9 114.5 2.5 4.1.3 12.9.8 19.5 1.1 6.6.4 14.3.8 17 1.1 2.8.2 7.9.6 11.5.8 9.6.6 23.6 1.8 38 3.1 1.9.2 6.7.6 10.5 1 3.9.3 8.6.8 10.5 1 1.9.2 5.5.7 8 1 2.5.2 6.8.7 9.5 1.1 2.8.3 6.8.7 9 .9 2.2.2 5.4.6 7 .8 1.7.3 5.5.8 8.5 1.2 5.3.6 7.9 1 13.8 1.9 1.5.3 4.5.7 6.7 1 7.1 1 16.9 2.5 19.5 3 1.4.3 4.3.7 6.5 1.1 2.2.3 5.4.8 7 1 1.7.3 4.2.7 5.8.9 1.5.3 3.5.7 4.5 1 .9.3 3.3.7 5.2 1 1.9.2 4.6.7 6 1 1.4.3 3.6.8 5 1 1.4.2 3.3.7 4.3 1.1.9.4 1.7.3 1.7-.1-.1-.5-3.3-2.5-7.3-4.4-4-1.9-8.4-4.3-9.8-5.2-1.4-1-2.8-1.5-3.1-1.2-.3.2-1.1-.2-1.8-1.1-.7-.8-1.7-1.5-2.2-1.5-.5 0-5-1.9-10.1-4.3-8.9-4.2-30.8-13.2-43.2-17.7-3.3-1.2-6.9-2.6-8-3-1.9-.9-11.4-3.9-25.5-8.2-8.2-2.5-10.2-3.1-22.5-6.3-13.9-3.7-13.7-3.6-16.8-4.2-2.6-.5-5.2-3.4-4.1-4.5 1-1 .5-188.5-.5-190.9-1.5-3.8-4.7-8-5.4-7.2-.4.3-.7.2-.7-.4 0-.6-.8-1.4-1.7-1.8-1.7-.6-29.8-9.1-33.3-10-.8-.2-6.2-1.8-12-3.5s-13.8-4-17.9-5.1c-4.1-1.1-8.4-2.5-9.5-3.1-1.2-.6-2.3-1.1-2.6-1-.3.1-2-.1-3.7-.4-2.9-.5-3.3-1-3.4-3.8 0-1.7-.1-45.8-.1-98v-95l-4.7-4.6c-4.9-4.8-13.3-11-14.9-11-.6 0-1.2-.3-1.4-.8-.3-.6-7.3-3.9-13.3-6.2-5.4-2.1-8.2-3.1-10-3.5-1.1-.3-4.7-1.1-8-1.9-3.3-.8-7.3-1.7-9-2-1.6-.3-4.2-.7-5.7-1.1-7-1.4-52.6-3.3-53.8-2.2z"/></svg>