<?xml version="1.0" encoding="utf-8"?>
<!-- Generator: Adobe Illustrator 23.0.2, SVG Export Plug-In . SVG Version: 6.00 Build 0)  -->
<svg version="1.1" id="Layer_1" focusable="false" xmlns="http://www.w3.org/2000/svg" xmlns:xlink="http://www.w3.org/1999/xlink"
	 x="0px" y="0px" width="512px" height="512px" viewBox="0 0 512 512" style="enable-background:new 0 0 512 512;"
	 xml:space="preserve">
<style type="text/css">
	.st0{fill:#42A0D3;}
</style>
<path class="st0" d="M96,444h84c6.6,0,12-5.4,12-12v-40c0-6.6-5.4-12-12-12H96c-17.7,0-32-14.3-32-32V156c0-17.7,14.3-32,32-32h84
	c6.6,0,12-5.4,12-12V72c0-6.6-5.4-12-12-12H96c-53,0-96,43-96,96v192C0,401,43,444,96,444z M143,243L311,75c15-15,41-4.5,41,17v96
	h136c13.3,0,24,10.7,24,24v96c0,13.3-10.7,24-24,24H352v96c0,21.5-26,32-41,17L143,277C133.7,267.6,133.7,252.4,143,243z"/>
</svg>
