<?xml version="1.0" encoding="utf-8"?>
<!-- Generator: Adobe Illustrator 23.0.2, SVG Export Plug-In . SVG Version: 6.00 Build 0)  -->
<svg version="1.1" id="Layer_1" xmlns="http://www.w3.org/2000/svg" xmlns:xlink="http://www.w3.org/1999/xlink" x="0px" y="0px"
	 width="100px" height="100.6px" viewBox="0 0 100 100.6" style="enable-background:new 0 0 100 100.6;" xml:space="preserve">
<style type="text/css">
	.st0{fill:#404040;}
</style>
<path class="st0" d="M89.9,0H10.7C5.3,0,0,5.3,0,10.7v78.6c0,6,5.3,11.3,10.7,11.3h78.6c6,0,10.7-5.3,10.7-10.7V10.7
	C100.6,5.3,95.3,0,89.9,0z M86,68.6l-3.3,14.7C82,84.6,81.3,86,79.3,86C44,86,14.7,56.6,14.7,21.3c0-1.3,1.3-3.3,2.7-3.3L32,14.7
	c0,0,0.7,0,1.3,0c0,0,1.3,0.7,2,2L42,32c0,0.7,0,1.3,0.7,1.3c0,1.3-0.7,2-1.3,2.7l-8.7,7.3C38,54,46.6,62.6,57.3,68l7.3-8.7
	c0-0.7,1.3-1.3,2-1.3s1.3,0,1.3,0.7l15.3,6.7C84.6,66,86,67.3,86,68.6C86,68,86,68.6,86,68.6z"/>
</svg>
