<?xml version="1.0" encoding="utf-8"?>
<!-- Generator: Adobe Illustrator 23.0.2, SVG Export Plug-In . SVG Version: 6.00 Build 0)  -->
<svg version="1.1" id="Layer_1" xmlns="http://www.w3.org/2000/svg" xmlns:xlink="http://www.w3.org/1999/xlink" x="0px" y="0px"
	 width="350px" height="251.7px" viewBox="0 0 350 251.7" style="enable-background:new 0 0 350 251.7;" xml:space="preserve">
<style type="text/css">
	.st0{fill:#44A0D2;}
	.st1{fill:#293D8F;}
	.st2{fill:#135C8E;}
</style>
<g>
	<path class="st0" d="M123.3,69.8L70.5,87.4c-4.3,1.4-7.8,6.3-7.8,10.8v134c17.5-4.9,37.7-9.1,60.6-11.6L123.3,69.8L123.3,69.8z"/>
	<path class="st0" d="M272.2,228.3V133c0-3.1-2.7-6.4-6.1-7.3l-39.5-11.5v106.3C243.3,222.4,258.4,225,272.2,228.3z"/>
	<path class="st1" d="M175,217.7c18.6,0,35.8,1,51.7,2.8V114.2V17c0,0-10.3-17-51.7-17c-41.3,0-51.7,17-51.7,17v52.8v150.7
		C139.2,218.7,156.4,217.7,175,217.7z"/>
	<path class="st2" d="M272.2,222.4c-13.8-3.2-28.9-5.9-45.5-7.8c-15.9-1.8-33.1-2.8-51.7-2.8s-35.8,1-51.7,2.8
		c-22.9,2.6-43,6.7-60.6,11.6c-26.9,7.6-47.6,17-62.7,25.4c45.6-9.4,107.2-15.1,175-15.1c67.8,0,129.4,5.7,175,15.1
		C332.2,241.7,306.5,230.4,272.2,222.4z"/>
</g>
</svg>
