<?xml version="1.0" encoding="utf-8"?>
<!-- Generator: Adobe Illustrator 16.0.0, SVG Export Plug-In . SVG Version: 6.00 Build 0)  -->
<!DOCTYPE svg PUBLIC "-//W3C//DTD SVG 1.1//EN" "http://www.w3.org/Graphics/SVG/1.1/DTD/svg11.dtd">
<svg version="1.1" id="Layer_1" xmlns="http://www.w3.org/2000/svg" xmlns:xlink="http://www.w3.org/1999/xlink" x="0px" y="0px"
	 width="1000px" height="1000px" viewBox="0 0 1000 1000" enable-background="new 0 0 1000 1000" xml:space="preserve">
<metadata><?xpacket begin="﻿" id="W5M0MpCehiHzreSzNTczkc9d"?>
<x:xmpmeta xmlns:x="adobe:ns:meta/" x:xmptk="Adobe XMP Core 5.3-c011 66.145661, 2012/02/06-14:56:27        ">
   <rdf:RDF xmlns:rdf="http://www.w3.org/1999/02/22-rdf-syntax-ns#">
      <rdf:Description rdf:about=""
            xmlns:dc="http://purl.org/dc/elements/1.1/">
         <dc:format>image/svg+xml</dc:format>
         <dc:title>
            <rdf:Alt>
               <rdf:li xml:lang="x-default">Print</rdf:li>
            </rdf:Alt>
         </dc:title>
      </rdf:Description>
      <rdf:Description rdf:about=""
            xmlns:xmp="http://ns.adobe.com/xap/1.0/"
            xmlns:xmpGImg="http://ns.adobe.com/xap/1.0/g/img/">
         <xmp:MetadataDate>2018-01-27T12:38:14+03:00</xmp:MetadataDate>
         <xmp:ModifyDate>2018-01-27T12:38:14+03:00</xmp:ModifyDate>
         <xmp:CreateDate>2018-01-27T12:38:14+03:00</xmp:CreateDate>
         <xmp:CreatorTool>Adobe Illustrator CS6 (Windows)</xmp:CreatorTool>
         <xmp:Thumbnails>
            <rdf:Alt>
               <rdf:li rdf:parseType="Resource">
                  <xmpGImg:width>208</xmpGImg:width>
                  <xmpGImg:height>256</xmpGImg:height>
                  <xmpGImg:format>JPEG</xmpGImg:format>
                  <xmpGImg:image>/9j/4AAQSkZJRgABAgEASABIAAD/7QAsUGhvdG9zaG9wIDMuMAA4QklNA+0AAAAAABAASAAAAAEA&#xA;AQBIAAAAAQAB/+4ADkFkb2JlAGTAAAAAAf/bAIQABgQEBAUEBgUFBgkGBQYJCwgGBggLDAoKCwoK&#xA;DBAMDAwMDAwQDA4PEA8ODBMTFBQTExwbGxscHx8fHx8fHx8fHwEHBwcNDA0YEBAYGhURFRofHx8f&#xA;Hx8fHx8fHx8fHx8fHx8fHx8fHx8fHx8fHx8fHx8fHx8fHx8fHx8fHx8fHx8f/8AAEQgBAADQAwER&#xA;AAIRAQMRAf/EAaIAAAAHAQEBAQEAAAAAAAAAAAQFAwIGAQAHCAkKCwEAAgIDAQEBAQEAAAAAAAAA&#xA;AQACAwQFBgcICQoLEAACAQMDAgQCBgcDBAIGAnMBAgMRBAAFIRIxQVEGE2EicYEUMpGhBxWxQiPB&#xA;UtHhMxZi8CRygvElQzRTkqKyY3PCNUQnk6OzNhdUZHTD0uIIJoMJChgZhJRFRqS0VtNVKBry4/PE&#xA;1OT0ZXWFlaW1xdXl9WZ2hpamtsbW5vY3R1dnd4eXp7fH1+f3OEhYaHiImKi4yNjo+Ck5SVlpeYmZ&#xA;qbnJ2en5KjpKWmp6ipqqusra6voRAAICAQIDBQUEBQYECAMDbQEAAhEDBCESMUEFURNhIgZxgZEy&#xA;obHwFMHR4SNCFVJicvEzJDRDghaSUyWiY7LCB3PSNeJEgxdUkwgJChgZJjZFGidkdFU38qOzwygp&#xA;0+PzhJSktMTU5PRldYWVpbXF1eX1RlZmdoaWprbG1ub2R1dnd4eXp7fH1+f3OEhYaHiImKi4yNjo&#xA;+DlJWWl5iZmpucnZ6fkqOkpaanqKmqq6ytrq+v/aAAwDAQACEQMRAD8A9U4q7FXYqgdV1WGwhqfi&#xA;mb+7j8fc+2KsRa/vGuvrRlb1q1DDt7U8PbFWV6Rq8V9FxaiXCD408f8AKX2xVMcVdirsVdirsVdi&#xA;rsVdirsVdirsVdirsVdirsVdirsVdirsVdirsVdirUhYRsVHJgCVXxPhirA7t7uad5bgN6hPxcgR&#xA;T2p2piqhiqrbm5jlSWAMJAaoyg9cVZ3bPK9vE8q8JWUF18CRuMVVMVdirsVdirsVdirsVdirsVdi&#xA;rsVdirsVdirsVdirsVdirsVdirRkjDBSwDN9lSdz8sVbxVD6l/xzrr/jDJ/xE4qwPFWcaN/xy7b/&#xA;AFP44qjMVWiSMuUDDmBUrUVp8sVXYq7FXYq7FXYq7FXYq7FXYq7FXYq7FXYq7FXYq7FXYq7FUDqu&#xA;qw2ENT8Uzf3cfj7n2xViD3c812LiVyZOQbl4UO1PCmKs1/SWnf8ALVD/AMjF/riqHv7+wawuVW5i&#xA;ZmicKodSSSp2G+KsLxVmOk31jHptuj3ESuq0Ks6gj6CcVRf6S07/AJaof+Ri/wBcVYbcXMq6jLcR&#xA;SfGJGZJAfc/hirKdI1eK+i4tRLhB8aeP+UvtiqY4q7FXYq7FXYq7FXYq7FXYq7FXYq7FXYq7FXYq&#xA;7FXYqwO/a6a8lN1X1uVGB7eFPbwxVD4q7FXYq7FXYq7FXYqq2rXC3EZt6+tX4OPWuKs+TlwXnQNQ&#xA;cgOle+Kt4q7FXYq7FXYq7FXYq7FXYq7FXYq7FXYq7FXYq7FUu1fSIr6LktEuEHwP4/5Le2KsRNvL&#xA;HciCVCJAwVkPXrirM/0Npf8AyzJ+OKqF9pOmx2Nw6W6q6xOykdiFJGKsOxVlulaVp8unwSSQKzst&#xA;WY98VRf6G0v/AJZk/HFWH3EDfXpYI0PL1GVEA360AxVlGjaMlknqy0a5Ybnso8BiqaYq7FXYq7FX&#xA;Yq7FXYq7FXYq7FXYq7FXYq7FXYq7FXYq7FVN7a3eVZXiVpU+y5AJHyOKqmKofUv+Oddf8YZP+InF&#xA;WB4qzjRv+OXbf6n8cVRmKqYtrcTGYRKJj1koOX34qqYq7FXYq7FXYq7FXYq7FXYq7FXYq7FXYq7F&#xA;XYq7FXYq7FXYq7FVsgcxsEID0PEnpWm2KsHubjUVlkiuJZA+4kRmP9emKoXFURBcX3JI4JZOVQER&#xA;WPX2AxVnFsJhbxCY1mCj1D/lU3xVUxV2KuxV2KuxV2KuxV2KuxV2KuxV2KuxV2KuxV2KuxV2KuxV&#xA;2KuxV2Kpdq+kRX0XJaJcIPgfx/yW9sVYi1rcLcfVzGfWrx4d64qyvRtGSyT1ZaNcsNz2UeAxVNMV&#xA;dirsVdirsVdirsVdirsVdirsVdirsVdirsVdirsVdirsVdirsVdirsVdirXBOXPiOQFA1N6fPFW8&#xA;VdiqWa/qEtnZj0TSSU8Q3gKVJ+eKsTN1ck1MrknqSxxV31m4/wB+v/wRxV31m4/36/8AwRxV31m4&#xA;/wB+v/wRxV31m4/36/8AwRxV31m4/wB+v/wRxV31m4/36/8AwRxV31m4/wB+v/wRxV31m4/36/8A&#xA;wRxV31m4/wB+v/wRxV31m4/36/8AwRxV31m4/wB+v/wRxV31m4/36/8AwRxV31m4/wB+v/wRxV31&#xA;m4/36/8AwRxV31m4/wB+v/wRxV31m4/36/8AwRxVkXlrUp5zJbTsXKLzRjuaVoQT9OKp7irsVdir&#xA;sVdirsVdiqRebP8Aee3/ANc/qxVjGKuxV2KuxV2KuxV2KuxV2KuxV2KuxV2KuxV2KuxV2Kp15U/4&#xA;6Mn/ABhb/iS4qyrFXYq7FXYq7FXYq7FUi82f7z2/+uf1YqxjFXYq7FXYq7FXYq7FXYq7FXYq7FXY&#xA;q7FXYq7FXYq7FU68qf8AHRk/4wt/xJcVZVirsVdirsVdirsVdiqRebP957f/AFz+rFWMYq7FVSCI&#xA;zTxxLsZGCA+7GmKsoTytp4UBnkZu5qB/DFUl1vS0sJkEbFo5ASOXUEHcbYqluKsi07y3bT2cc00j&#xA;85ByohAAB6dQcVUtX8vwWlm1xBI54Ecleh2JptQDxxVIsVTfQ9GivhJJMzLGhCgLSpNKnrXFUzm8&#xA;q2JjIid1k/ZJIIr7imKsWIIJB6jY4qitMsvrt4kHLipqWYdQAMVZD/hbTaU5SV8eQ/pirHtTsvqV&#xA;48HLkooVY9SCK4qhMVdiqdeVP+OjJ/xhb/iS4qyrFXYq7FXYq7FXYq7FUi82f7z2/wDrn9WKsYxV&#xA;2Kq9lIsV5BI+yJIjMfYMCcVZ0s8LKGWRWU9CCCMVY15puIZLiFI3DNGrc6EGlSNtvliqR4qzXRrm&#xA;3fTYAsi8kQKy1FQRtuMVUfMVzANMki5qZJCoVQRXZgen0YqxDFWSeVbmFYZoWcLJyDAEgVBFNvux&#xA;VPJbq3ijMkkiqqipJIxVgLnkxPiScVR+gTxQ6nG0rBFYMvI7AEjauKsx9WLrzWnzGKsO1+4in1KR&#xA;omDKoVeQ3BIG9MVS7FXYqnXlT/joyf8AGFv+JLirKsVdirsVdirsVdirsVSLzZ/vPb/65/VirGMV&#xA;dirsVdirsVdirsVdirsVdirsVdirsVdirsVdirsVTryp/wAdGT/jC3/ElxVlWKuxV2KuxV2KuxV2&#xA;KpF5s/3nt/8AXP6sVYxirsVbVWZgqirMaAe5xVOF8rakVBLRKT+yWao+5SMVS++sLiylEU4FSKqy&#xA;moI6YqhsVTOz8v393AJkKIjfZ5kgkfQDiqy/0S9sovVl4tHWhZCTQnxqBiqX4qjNP0u6vmYQgBUp&#xA;ydjQCvTxxVFy+WNSjjLgxyU34qTX8QMVSjFVW2t5bmZYYV5SP0HTpviqaf4V1GlfUi+XJv8AmnFU&#xA;rubeW2maGZeMidR1674qpYq7FU68qf8AHRk/4wt/xJcVZVirsVdirsVdirsVdiqRebP957f/AFz+&#xA;rFWMYq7FUTpxA1C1J2AlSp/2QxVneKsb82kerbDvxbb6RirH8VZzpJB0y2/4xr+rFVHzCR+iJ/fh&#xA;T/gxirDMVZR5TI+qTDv6m4/2IxVPMVeeyU9RqdKmmKpn5aIGqpXurU+7FWX4qxDzKQdVenZVr92K&#xA;pVirsVTryp/x0ZP+MLf8SXFWVYq7FXYq7FXYq7FXYqkXmz/ee3/1z+rFWMYq7FWwSDUbEdDiqPXX&#xA;9XVQouDQeKqT95FcVQlzdXFzJ6k7mR+lT2HgBiqliqMttW1G2j9OGYqg6KQGA+XIHFVt1qd9dqFu&#xA;Ji6jcLQAV+SgYqhcVV7W9urRi1vIYy32qUINPEHbFURLrmqyoUe4PFtjQKp+8AHFUBiq+OWSKQSR&#xA;sUdd1YbEYqjv8QavSn1j/hU/5pxVAySySyGSRi7tuzHcnFVmKuxVOvKn/HRk/wCMLf8AElxVlWKu&#xA;xV2KuxV2KuxV2KpF5s/3nt/9c/qxVjGKuxV2Kqy2l0yhlhkZT0IUkfqxVSZWVirAqw6g7HFWsVVI&#xA;4J5QTHGzgdSoJ/VirUkM0RAkRkJ6BgR+vFVmKrkjd24opZj2UVP4Yqve1uUXk8Tqo7spA/HFVLFW&#xA;8VVfqd5SvoSU8eDf0xVSxVrFXYqnXlT/AI6Mn/GFv+JLirKsVdirsVdirsVdirsVSLzZ/vPb/wCu&#xA;f1YqxjFXYqiLBVe+tlYVVpUBHiCwxVnmKsa82qont2p8RVgT7Ain68VSDFWc6QqrplsFFAUB+k7n&#xA;FVDzEitpMxIqVKFT4HkB+o4qw3FWT+U0UW070+IuFJ9gKj9eKp4yqylWFVIoQe4OKvPnADsB0BIG&#xA;Kpl5cRW1WPkK8VZh86YqzDFWH+Y0VdVk4inJVY/OmKpXirsVTryp/wAdGT/jC3/ElxVlWKuxV2Ku&#xA;xV2KuxV2KpF5s/3nt/8AXP6sVYxirsVXxSNFKkibMjBlPuDUYqyBPNq8Rztjy70bb9WKpVquqSah&#xA;MrlPTRBRErXqetcVQOKp5p/mVra2SCSH1PTFFYNTb3FDiqnqnmBr23NukXpoxBck1Joa06DFUnxV&#xA;MtI1l9P5rw9SJyCVrQgjuOuKphL5sJjIit+LnozNUD6KYqx4kk1PXFVexvJLO6SdBUrWqnoQRSmK&#xA;p5/i1Kf7zGv+v/ZiqR315JeXLzuAC1KKOgAFAMVQ+KuxVOvKn/HRk/4wt/xJcVZVirsVdirsVdir&#xA;sVdiqRebP957f/XP6sVYxirsVdirsVdirsVdirsVdirsVdirsVdirsVdirsVdiqdeVP+OjJ/xhb/&#xA;AIkuKsqxV2KuxV2KuxV2KuxVIvNn+89v/rn9WKsYxV2KqtrEJrqGEmgkdUJ/1iBirMV0TSlUAW6m&#xA;nc1J/E4qkHmLT7a0niMC8FkU1TcioPavzxVKMVZZpWjae1hDJJEJJJFDMzV774qpa7pFjFYPPDGI&#xA;5Iyv2a0ILAUp9OKsYxVPvLmmWtzHLNcJ6nFgqKa0G1Sdvniqby6FpbxlRAqkjZlqCD9+KsLYcWI8&#xA;DTFUbo1nFd36RS7x0LMOlaDptirKf0Lpf/LMn44qxbWbOK0v3ii2joGUdaVHTfFUDirsVTryp/x0&#xA;ZP8AjC3/ABJcVZVirsVdirsVdirsVdiqRebP957f/XP6sVYxirsVVbWUQ3MMxFRG6uR/qmuKswXX&#xA;tJIB+sAV7ENX9WKpD5h1C2vJ4hA3NI1NXoRUk+/yxVKMVZXpet6clhDHLL6ckahWUg9tq7DFVHXN&#xA;ZsZrB7eCT1HkK9AQAAQe49sVY1iqe+XdUtbWOWG4bgGYMrUJHShG3yxVNpPMGlIhYTcyBsoDVJ+7&#xA;FWGseTE+JriqN0a8jtL9JZdo6FWI3pUdcVZP+ndJ/wCWgfc39MVYxrN5Hd37zRf3dAqk7VoOuKoH&#xA;FXYqnXlT/joyf8YW/wCJLirKsVdirsVdirsVdirsVSLzZ/vPb/65/VirGMVdirsVdirsVdirsVdi&#xA;rsVdirsVdirsVdirsVdirsVTryp/x0ZP+MLf8SXFWVYq7FXYq7FXYq7FXYqkXmz/AHnt/wDXP6sV&#xA;YxirsVXxRtLKkSfadgq/MmgxVkK+Ul4jlcnl3om368VSnVtLfT5lQv6iOKq1KdDuKYqgcVdirsVd&#xA;irsVdirsVRFhZPeXSW6HiWqSx6AAVxVPP8JR0/3pNf8AUH9cVSO/sns7p7dzyK0IYdCCK4qh8Vdi&#xA;qdeVP+OjJ/xhb/iS4qyrFXYq7FXYq7FXYq7FUi82f7z2/wDrn9WKsYxV2Kq9g6pfW7saKsqFj4AM&#xA;MVZ7irGvNrqZ7dAfiVWJHgCRT9WKpBirsVdirsVdirsVdiqaeXJETVY+RpyVlHzIxVmGKsP8xyI+&#xA;qycTXiqqfmBiqV4q7FU68qf8dGT/AIwt/wASXFWVYq7FXYq7FXYq7FXYqkXmz/ee3/1z+rFWMYq7&#xA;FXYqqCedQAJGAHQAnFVhJYkk1J6k4q1irMdH0+yGnwOYUZ5FDMzKCSTv3xVG/UrP/fEf/AL/AExV&#xA;31Kz/wB8R/8AAL/TFXfUrP8A3xH/AMAv9MVWS6bYSxlGgjoe4UAj5EYqwVhxYr4GmKtYqqfWLj/f&#xA;r/8ABHFVPFXYq7FU68qf8dGT/jC3/ElxVlWKuxV2KuxV2KuxV2KpF5s/3nt/9c/qxVjGKuxV2Kux&#xA;V2KuxVnWk/8AHNtv+Ma/qxVFYq7FXYq7FXn0v94/zP68VWYq7FXYq7FXYqnXlT/joyf8YW/4kuKs&#xA;qxV2KuxV2KuxV2KuxVIvNn+89v8A65/VirGMVdirsVdirsVdirOtJ/45tt/xjX9WKorFXYq7FXYq&#xA;89k/vG+Z/Xiq3FXYq7FXYq7FU68qf8dGT/jC3/ElxVlWKuxV2KuxV2KuxV2KpF5s/wB57f8A1z+r&#xA;FWMYq7FXYq7FXYq7FUxtNe1C1hEKFWjX7IYVp91MVV/8Ual4R/8AAn+uKu/xRqXhH/wJ/rirv8Ua&#xA;l4R/8Cf64qsl8y6nJGUqictuSrv+JOKpVirsVdirsVdirsVTryp/x0ZP+MLf8SXFWVYq7FXYq7FX&#xA;Yq7FXYqlXmKxmurNTCOTxNy4DqRTemKsRIINCKEdRirWKuxV2KuxV2KuxV2KuxV2KuxV2KuxV2Ku&#xA;xV2KuxVknlewmjaS6kUorLwjB2JBIJP4Yq//2Q==</xmpGImg:image>
               </rdf:li>
            </rdf:Alt>
         </xmp:Thumbnails>
      </rdf:Description>
      <rdf:Description rdf:about=""
            xmlns:xmpMM="http://ns.adobe.com/xap/1.0/mm/"
            xmlns:stRef="http://ns.adobe.com/xap/1.0/sType/ResourceRef#"
            xmlns:stEvt="http://ns.adobe.com/xap/1.0/sType/ResourceEvent#">
         <xmpMM:InstanceID>xmp.iid:F696297C4403E8119F989D9A49F981BF</xmpMM:InstanceID>
         <xmpMM:DocumentID>xmp.did:F696297C4403E8119F989D9A49F981BF</xmpMM:DocumentID>
         <xmpMM:OriginalDocumentID>uuid:5D20892493BFDB11914A8590D31508C8</xmpMM:OriginalDocumentID>
         <xmpMM:RenditionClass>proof:pdf</xmpMM:RenditionClass>
         <xmpMM:DerivedFrom rdf:parseType="Resource">
            <stRef:instanceID>xmp.iid:F596297C4403E8119F989D9A49F981BF</stRef:instanceID>
            <stRef:documentID>xmp.did:F596297C4403E8119F989D9A49F981BF</stRef:documentID>
            <stRef:originalDocumentID>uuid:5D20892493BFDB11914A8590D31508C8</stRef:originalDocumentID>
            <stRef:renditionClass>proof:pdf</stRef:renditionClass>
         </xmpMM:DerivedFrom>
         <xmpMM:History>
            <rdf:Seq>
               <rdf:li rdf:parseType="Resource">
                  <stEvt:action>saved</stEvt:action>
                  <stEvt:instanceID>xmp.iid:F496297C4403E8119F989D9A49F981BF</stEvt:instanceID>
                  <stEvt:when>2018-01-27T12:28:51+03:00</stEvt:when>
                  <stEvt:softwareAgent>Adobe Illustrator CS6 (Windows)</stEvt:softwareAgent>
                  <stEvt:changed>/</stEvt:changed>
               </rdf:li>
               <rdf:li rdf:parseType="Resource">
                  <stEvt:action>saved</stEvt:action>
                  <stEvt:instanceID>xmp.iid:F696297C4403E8119F989D9A49F981BF</stEvt:instanceID>
                  <stEvt:when>2018-01-27T12:38:14+03:00</stEvt:when>
                  <stEvt:softwareAgent>Adobe Illustrator CS6 (Windows)</stEvt:softwareAgent>
                  <stEvt:changed>/</stEvt:changed>
               </rdf:li>
            </rdf:Seq>
         </xmpMM:History>
      </rdf:Description>
      <rdf:Description rdf:about=""
            xmlns:illustrator="http://ns.adobe.com/illustrator/1.0/">
         <illustrator:StartupProfile>Print</illustrator:StartupProfile>
      </rdf:Description>
      <rdf:Description rdf:about=""
            xmlns:xmpTPg="http://ns.adobe.com/xap/1.0/t/pg/"
            xmlns:stDim="http://ns.adobe.com/xap/1.0/sType/Dimensions#"
            xmlns:xmpG="http://ns.adobe.com/xap/1.0/g/">
         <xmpTPg:HasVisibleOverprint>False</xmpTPg:HasVisibleOverprint>
         <xmpTPg:HasVisibleTransparency>False</xmpTPg:HasVisibleTransparency>
         <xmpTPg:NPages>1</xmpTPg:NPages>
         <xmpTPg:MaxPageSize rdf:parseType="Resource">
            <stDim:w>1000.000000</stDim:w>
            <stDim:h>1000.000000</stDim:h>
            <stDim:unit>Pixels</stDim:unit>
         </xmpTPg:MaxPageSize>
         <xmpTPg:PlateNames>
            <rdf:Seq>
               <rdf:li>Cyan</rdf:li>
               <rdf:li>Magenta</rdf:li>
               <rdf:li>Yellow</rdf:li>
            </rdf:Seq>
         </xmpTPg:PlateNames>
         <xmpTPg:SwatchGroups>
            <rdf:Seq>
               <rdf:li rdf:parseType="Resource">
                  <xmpG:groupName>Default Swatch Group</xmpG:groupName>
                  <xmpG:groupType>0</xmpG:groupType>
               </rdf:li>
            </rdf:Seq>
         </xmpTPg:SwatchGroups>
      </rdf:Description>
      <rdf:Description rdf:about=""
            xmlns:pdf="http://ns.adobe.com/pdf/1.3/">
         <pdf:Producer>Adobe PDF library 10.01</pdf:Producer>
      </rdf:Description>
   </rdf:RDF>
</x:xmpmeta>
                                                                                                    
                                                                                                    
                                                                                                    
                                                                                                    
                                                                                                    
                                                                                                    
                                                                                                    
                                                                                                    
                                                                                                    
                                                                                                    
                                                                                                    
                                                                                                    
                                                                                                    
                                                                                                    
                                                                                                    
                                                                                                    
                                                                                                    
                                                                                                    
                                                                                                    
                                                                                                    
                           
<?xpacket end="w"?>
	</metadata>
<g>
	<path fill="#CCCCCC" d="M404.182,217.452c0,2.233-0.816,4.164-2.446,5.793l-32.955,32.956c-1.631,1.631-3.563,2.446-5.793,2.446
		c-2.232,0-4.164-0.815-5.793-2.446c-1.632-1.629-2.446-3.56-2.446-5.793V233.93h-49.434v49.433h16.479
		c2.23,0,4.161,0.817,5.793,2.446c1.63,1.632,2.445,3.563,2.445,5.793c0,2.233-0.815,4.164-2.445,5.793l-32.956,32.956
		c-1.632,1.629-3.563,2.446-5.793,2.446c-2.233,0-4.163-0.817-5.793-2.446l-32.955-32.956c-1.632-1.629-2.447-3.56-2.447-5.793
		c0-2.231,0.815-4.162,2.447-5.793c1.629-1.629,3.561-2.446,5.793-2.446h16.478V233.93h-49.434v16.478
		c0,2.232-0.816,4.164-2.446,5.793c-1.63,1.631-3.563,2.446-5.793,2.446c-2.231,0-4.164-0.815-5.793-2.446l-32.956-32.956
		c-1.631-1.629-2.446-3.56-2.446-5.793c0-2.23,0.815-4.162,2.446-5.792l32.956-32.956c1.629-1.63,3.562-2.446,5.793-2.446
		c2.23,0,4.163,0.816,5.793,2.446c1.63,1.631,2.446,3.563,2.446,5.793v16.477h49.434v-49.433h-16.478
		c-2.232,0-4.164-0.814-5.793-2.446c-1.632-1.63-2.447-3.56-2.447-5.793c0-2.229,0.815-4.162,2.447-5.793l32.955-32.955
		c1.63-1.629,3.562-2.446,5.795-2.446c2.229,0,4.161,0.817,5.792,2.446l32.956,32.956c1.629,1.631,2.445,3.563,2.445,5.793
		c0,2.232-0.816,4.163-2.445,5.792c-1.633,1.631-3.563,2.446-5.793,2.446h-16.479v49.433h49.434v-16.478
		c0-2.231,0.814-4.162,2.445-5.793c1.63-1.63,3.561-2.446,5.793-2.446c2.229,0,4.162,0.816,5.794,2.446l32.955,32.956
		C403.364,213.291,404.182,215.222,404.182,217.452z"/>
</g>
<g>
	<path fill="#CCCCCC" d="M803.795,332.798c5.643,0,10.524,2.065,14.651,6.186c4.118,4.126,6.185,9.01,6.185,14.65v541.741
		c0,5.642-2.064,10.525-6.185,14.65c-4.126,4.12-9.011,6.186-14.651,6.186H387.087c-5.646,0-10.529-2.065-14.649-6.186
		c-4.125-4.125-6.187-9.011-6.187-14.65V353.634c0-5.642,2.062-10.524,6.187-14.65c4.12-4.12,9.005-6.186,14.649-6.186H803.795z
		 M491.27,447.396V426.56c0-3.036-0.978-5.533-2.931-7.488c-1.955-1.953-4.452-2.931-7.488-2.931h-20.836
		c-3.043,0-5.534,0.977-7.487,2.931c-1.953,1.955-2.931,4.452-2.931,7.488v20.836c0,3.043,0.978,5.534,2.931,7.487
		s4.444,2.932,7.487,2.932h20.836c3.036,0,5.533-0.978,7.488-2.932C490.292,452.931,491.27,450.438,491.27,447.396z M491.27,530.741
		v-20.836c0-3.036-0.978-5.534-2.931-7.488c-1.955-1.953-4.452-2.931-7.488-2.931h-20.836c-3.043,0-5.534,0.978-7.487,2.931
		c-1.953,1.954-2.931,4.452-2.931,7.488v20.836c0,3.042,0.978,5.535,2.931,7.488c1.953,1.951,4.444,2.931,7.487,2.931h20.836
		c3.036,0,5.533-0.979,7.488-2.931C490.292,536.276,491.27,533.783,491.27,530.741z M491.27,614.087V593.25
		c0-3.037-0.978-5.534-2.931-7.486c-1.955-1.954-4.452-2.931-7.488-2.931h-20.836c-3.043,0-5.534,0.977-7.487,2.931
		c-1.953,1.952-2.931,4.449-2.931,7.486v20.837c0,3.042,0.978,5.534,2.931,7.487s4.444,2.931,7.487,2.931h20.836
		c3.036,0,5.533-0.978,7.488-2.931C490.292,619.621,491.27,617.127,491.27,614.087z M491.27,697.432v-20.837
		c0-3.038-0.978-5.535-2.931-7.486c-1.955-1.953-4.452-2.932-7.488-2.932h-20.836c-3.043,0-5.534,0.979-7.487,2.932
		c-1.953,1.951-2.931,4.448-2.931,7.486v20.837c0,3.042,0.978,5.534,2.931,7.487s4.444,2.93,7.487,2.93h20.836
		c3.036,0,5.533-0.977,7.488-2.93C490.292,702.966,491.27,700.474,491.27,697.432z M491.27,780.776V759.94
		c0-3.037-0.978-5.535-2.931-7.488c-1.955-1.953-4.452-2.93-7.488-2.93h-20.836c-3.043,0-5.534,0.977-7.487,2.93
		s-2.931,4.451-2.931,7.488v20.836c0,3.042,0.978,5.534,2.931,7.487c1.953,1.952,4.444,2.93,7.487,2.93h20.836
		c3.036,0,5.533-0.978,7.488-2.93C490.292,786.312,491.27,783.818,491.27,780.776z M532.938,426.562v20.836
		c0,3.043,0.978,5.533,2.931,7.487c1.952,1.953,4.446,2.932,7.487,2.932h20.834c3.035,0,5.533-0.978,7.486-2.932
		s2.93-4.445,2.93-7.487v-20.836c0-3.036-0.977-5.534-2.93-7.487s-4.451-2.931-7.486-2.931h-20.834
		c-3.043,0-5.535,0.977-7.487,2.931C533.915,421.026,532.938,423.523,532.938,426.562z M532.938,509.905v20.836
		c0,3.042,0.978,5.535,2.931,7.488c1.952,1.951,4.446,2.931,7.487,2.931h20.834c3.035,0,5.533-0.979,7.486-2.931
		c1.953-1.953,2.93-4.446,2.93-7.488v-20.836c0-3.036-0.977-5.534-2.93-7.488c-1.953-1.953-4.451-2.931-7.486-2.931h-20.834
		c-3.043,0-5.535,0.978-7.487,2.931C533.915,504.371,532.938,506.869,532.938,509.905z M532.938,593.25v20.837
		c0,3.042,0.978,5.534,2.931,7.487c1.952,1.954,4.446,2.931,7.487,2.931h20.834c3.035,0,5.533-0.977,7.486-2.931
		c1.953-1.953,2.93-4.446,2.93-7.487V593.25c0-3.037-0.977-5.534-2.93-7.486c-1.953-1.954-4.451-2.931-7.486-2.931h-20.834
		c-3.043,0-5.535,0.977-7.487,2.931C533.915,587.716,532.938,590.213,532.938,593.25z M532.938,676.595v20.837
		c0,3.042,0.978,5.534,2.931,7.487c1.952,1.953,4.446,2.93,7.487,2.93h20.834c3.035,0,5.533-0.977,7.486-2.93s2.93-4.446,2.93-7.487
		v-20.837c0-3.038-0.977-5.535-2.93-7.486c-1.953-1.953-4.451-2.932-7.486-2.932h-20.834c-3.043,0-5.535,0.979-7.487,2.932
		C533.915,671.061,532.938,673.558,532.938,676.595z M657.944,864.12v-62.508c0-3.037-0.978-5.535-2.931-7.488
		c-1.952-1.952-4.449-2.93-7.486-2.93H543.355c-3.043,0-5.535,0.978-7.487,2.93c-1.953,1.953-2.931,4.451-2.931,7.488v62.508
		c0,3.038,0.978,5.535,2.931,7.488c1.952,1.952,4.446,2.931,7.487,2.931h104.172c3.037,0,5.534-0.979,7.486-2.931
		C656.966,869.655,657.944,867.158,657.944,864.12z M657.944,447.396V426.56c0-3.036-0.978-5.533-2.931-7.488
		c-1.952-1.953-4.449-2.931-7.486-2.931h-20.834c-3.041,0-5.533,0.977-7.487,2.931c-1.951,1.955-2.93,4.452-2.93,7.488v20.836
		c0,3.043,0.979,5.534,2.93,7.487c1.954,1.953,4.446,2.932,7.487,2.932h20.834c3.037,0,5.534-0.978,7.486-2.932
		C656.968,452.931,657.944,450.438,657.944,447.396z M657.944,530.741v-20.836c0-3.036-0.978-5.534-2.931-7.488
		c-1.952-1.953-4.449-2.931-7.486-2.931h-20.834c-3.041,0-5.533,0.978-7.487,2.931c-1.951,1.954-2.93,4.452-2.93,7.488v20.836
		c0,3.042,0.979,5.535,2.93,7.488c1.954,1.951,4.446,2.931,7.487,2.931h20.834c3.037,0,5.534-0.979,7.486-2.931
		C656.968,536.276,657.944,533.783,657.944,530.741z M657.944,614.087V593.25c0-3.037-0.978-5.534-2.931-7.486
		c-1.952-1.954-4.449-2.931-7.486-2.931h-20.834c-3.041,0-5.533,0.977-7.487,2.931c-1.951,1.952-2.93,4.449-2.93,7.486v20.837
		c0,3.042,0.979,5.534,2.93,7.487c1.954,1.953,4.446,2.931,7.487,2.931h20.834c3.037,0,5.534-0.978,7.486-2.931
		C656.968,619.621,657.944,617.127,657.944,614.087z M657.944,697.432v-20.837c0-3.038-0.978-5.535-2.931-7.486
		c-1.952-1.953-4.449-2.932-7.486-2.932h-20.834c-3.041,0-5.533,0.979-7.487,2.932c-1.951,1.951-2.93,4.448-2.93,7.486v20.837
		c0,3.042,0.979,5.534,2.93,7.487c1.954,1.953,4.446,2.93,7.487,2.93h20.834c3.037,0,5.534-0.977,7.486-2.93
		C656.968,702.966,657.944,700.474,657.944,697.432z M741.287,447.396V426.56c0-3.036-0.978-5.533-2.932-7.488
		c-1.952-1.953-4.45-2.931-7.487-2.931h-20.836c-3.042,0-5.534,0.977-7.487,2.931c-1.953,1.955-2.93,4.452-2.93,7.488v20.836
		c0,3.043,0.977,5.534,2.93,7.487s4.445,2.932,7.487,2.932h20.836c3.037,0,5.535-0.978,7.487-2.932
		C740.311,452.931,741.287,450.438,741.287,447.396z M741.287,530.741v-20.836c0-3.036-0.978-5.534-2.932-7.488
		c-1.952-1.953-4.45-2.931-7.487-2.931h-20.836c-3.042,0-5.534,0.978-7.487,2.931c-1.953,1.954-2.93,4.452-2.93,7.488v20.836
		c0,3.042,0.977,5.535,2.93,7.488c1.953,1.951,4.445,2.931,7.487,2.931h20.836c3.037,0,5.535-0.979,7.487-2.931
		C740.311,536.276,741.287,533.783,741.287,530.741z M741.287,614.087V593.25c0-3.037-0.978-5.534-2.932-7.486
		c-1.952-1.954-4.45-2.931-7.487-2.931h-20.836c-3.042,0-5.534,0.977-7.487,2.931c-1.953,1.952-2.93,4.449-2.93,7.486v20.837
		c0,3.042,0.977,5.534,2.93,7.487s4.445,2.931,7.487,2.931h20.836c3.037,0,5.535-0.978,7.487-2.931
		C740.311,619.621,741.287,617.127,741.287,614.087z M741.287,697.432v-20.837c0-3.038-0.978-5.535-2.932-7.486
		c-1.952-1.953-4.45-2.932-7.487-2.932h-20.836c-3.042,0-5.534,0.979-7.487,2.932c-1.953,1.951-2.93,4.448-2.93,7.486v20.837
		c0,3.042,0.977,5.534,2.93,7.487s4.445,2.93,7.487,2.93h20.836c3.037,0,5.535-0.977,7.487-2.93
		C740.311,702.966,741.287,700.474,741.287,697.432z M741.287,780.776V759.94c0-3.037-0.978-5.535-2.932-7.488
		c-1.952-1.953-4.45-2.93-7.487-2.93h-20.836c-3.042,0-5.534,0.977-7.487,2.93s-2.93,4.451-2.93,7.488v20.836
		c0,3.042,0.977,5.534,2.93,7.487c1.953,1.952,4.445,2.93,7.487,2.93h20.836c3.037,0,5.535-0.978,7.487-2.93
		C740.311,786.312,741.287,783.818,741.287,780.776z"/>
</g>
</svg>
