<?xml version="1.0" encoding="utf-8"?>
<!-- Generator: Adobe Illustrator 16.0.0, SVG Export Plug-In . SVG Version: 6.00 Build 0)  -->
<!DOCTYPE svg PUBLIC "-//W3C//DTD SVG 1.1//EN" "http://www.w3.org/Graphics/SVG/1.1/DTD/svg11.dtd">
<svg version="1.1" id="Layer_1" xmlns="http://www.w3.org/2000/svg" xmlns:xlink="http://www.w3.org/1999/xlink" x="0px" y="0px"
	 width="1000px" height="1000px" viewBox="0 0 1000 1000" enable-background="new 0 0 1000 1000" xml:space="preserve">
<metadata><?xpacket begin="﻿" id="W5M0MpCehiHzreSzNTczkc9d"?>
<x:xmpmeta xmlns:x="adobe:ns:meta/" x:xmptk="Adobe XMP Core 5.3-c011 66.145661, 2012/02/06-14:56:27        ">
   <rdf:RDF xmlns:rdf="http://www.w3.org/1999/02/22-rdf-syntax-ns#">
      <rdf:Description rdf:about=""
            xmlns:dc="http://purl.org/dc/elements/1.1/">
         <dc:format>image/svg+xml</dc:format>
         <dc:title>
            <rdf:Alt>
               <rdf:li xml:lang="x-default">Print</rdf:li>
            </rdf:Alt>
         </dc:title>
      </rdf:Description>
      <rdf:Description rdf:about=""
            xmlns:xmp="http://ns.adobe.com/xap/1.0/"
            xmlns:xmpGImg="http://ns.adobe.com/xap/1.0/g/img/">
         <xmp:MetadataDate>2018-01-27T13:42:56+03:00</xmp:MetadataDate>
         <xmp:ModifyDate>2018-01-27T13:42:56+03:00</xmp:ModifyDate>
         <xmp:CreateDate>2018-01-27T13:42:55+03:00</xmp:CreateDate>
         <xmp:CreatorTool>Adobe Illustrator CS6 (Windows)</xmp:CreatorTool>
         <xmp:Thumbnails>
            <rdf:Alt>
               <rdf:li rdf:parseType="Resource">
                  <xmpGImg:width>200</xmpGImg:width>
                  <xmpGImg:height>256</xmpGImg:height>
                  <xmpGImg:format>JPEG</xmpGImg:format>
                  <xmpGImg:image>/9j/4AAQSkZJRgABAgEASABIAAD/7QAsUGhvdG9zaG9wIDMuMAA4QklNA+0AAAAAABAASAAAAAEA&#xA;AQBIAAAAAQAB/+4ADkFkb2JlAGTAAAAAAf/bAIQABgQEBAUEBgUFBgkGBQYJCwgGBggLDAoKCwoK&#xA;DBAMDAwMDAwQDA4PEA8ODBMTFBQTExwbGxscHx8fHx8fHx8fHwEHBwcNDA0YEBAYGhURFRofHx8f&#xA;Hx8fHx8fHx8fHx8fHx8fHx8fHx8fHx8fHx8fHx8fHx8fHx8fHx8fHx8fHx8f/8AAEQgBAADIAwER&#xA;AAIRAQMRAf/EAaIAAAAHAQEBAQEAAAAAAAAAAAQFAwIGAQAHCAkKCwEAAgIDAQEBAQEAAAAAAAAA&#xA;AQACAwQFBgcICQoLEAACAQMDAgQCBgcDBAIGAnMBAgMRBAAFIRIxQVEGE2EicYEUMpGhBxWxQiPB&#xA;UtHhMxZi8CRygvElQzRTkqKyY3PCNUQnk6OzNhdUZHTD0uIIJoMJChgZhJRFRqS0VtNVKBry4/PE&#xA;1OT0ZXWFlaW1xdXl9WZ2hpamtsbW5vY3R1dnd4eXp7fH1+f3OEhYaHiImKi4yNjo+Ck5SVlpeYmZ&#xA;qbnJ2en5KjpKWmp6ipqqusra6voRAAICAQIDBQUEBQYECAMDbQEAAhEDBCESMUEFURNhIgZxgZEy&#xA;obHwFMHR4SNCFVJicvEzJDRDghaSUyWiY7LCB3PSNeJEgxdUkwgJChgZJjZFGidkdFU38qOzwygp&#xA;0+PzhJSktMTU5PRldYWVpbXF1eX1RlZmdoaWprbG1ub2R1dnd4eXp7fH1+f3OEhYaHiImKi4yNjo&#xA;+DlJWWl5iZmpucnZ6fkqOkpaanqKmqq6ytrq+v/aAAwDAQACEQMRAD8A9U4q7FXYq7FXYq7FXYq7&#xA;FUm8zX0sFvHDExUzE8mHXitNvprirFMVdirYJBqDQ+IxVd6sn85+84q71ZP5z95xVOPLupXAvFtp&#xA;HLxS1ADGvEgV2rirKcVdirsVdirsVdirsVdirsVdirsVdirsVdirsVdirsVdiqQebYnMdvKB8KFl&#xA;Y/61KfqOKsaxV2KuxV2KuxVMvL8bvqsJUVCcmY+A4kYqzLFXYq7FXYq7FXYq7FXYq7FXYqpz3Nvb&#xA;rymkWNexY0r8sVQ/6Z0v/lpT8cVbGr6YelzH9Jp+vFW/0tpv/LTH/wAEMVcNV00mn1qL/ggMVVYr&#xA;u1mPGKZJCOoRgx/A4qq4q7FWpI0kQpIodG2KsKg4qwvWkhj1GWKGMRxx0AA71AJOKoDFXYq7FV0Z&#xA;VXUsvJQd13FR9GKs6srK0tY/9HjCBqEnqT8ya4qiMVdirsVdirsVdirsVdirsVdirA7+8ku7p5nN&#xA;an4B2C9gMVQ+KuxV2KuxVcjujh0YqymqsNiDirN9Ku2u7CKZ/tkEP81NK/TiqLxV2KsJ1ok6rc1/&#xA;mp9wGKoHFXYq7FXYq9ExV2KuxV2KuxV2KuxV2KuxV2KuxV53irsVdirsVdirsVdirsVXB2XoSPkc&#xA;VaJJNTucVaxV2KuxV2KvRMVdirsVdirsVdirsVdirsVdirsVYJf2UtncvDICKH4G7MvYjFUNirsV&#xA;dirsVbALEACpOwA6k4qzHTdJtorGJLi3jealXLIpNSa0qR26YqiTpmnEUNrF9CKP1DFWv0Tpv/LN&#xA;H/wIxVh+qJGmoXCRqFRXIVRsBTFULirsVdiq5ByYDxIGKvQsVdirsVdirsVdirsVdirsVdirsVWT&#xA;W8Ey8Zo1kXsGAP68VUP0Tpv/ACzR/wDAjFVp0fTD1tk+gU/Virv0Npf/ACzJ+OKu/Q2l/wDLMn44&#xA;qvg0ywgfnFAqv2alSPlXFUTirsVdirCNZjZNTuOQ+05ZT2IO+KoLFXYq7FVS3R5J40QVZmAAHjXF&#xA;XoGKuxV2KuxV2KuxV2KuxV2KuxV2KuxV2KuxV2KuxV2KuxV2Ksf803syGK2RiqOpaSm1d6AYqxvF&#xA;XYq7FXYq2CQag0PiMVT/AMs6jcNcG1lcvGVLJyNSpH8MVZJirsVdirsVdirsVdirsVdirsVdirsV&#xA;dirsVdirsVdirsVY15sgf14Z6fAU4V8CCT/HFUgxV2KuxV2KuxVOPK8TtqJcD4Y0PI/PYYqyzFXY&#xA;q7FXYq7FXYq7FXYq7FXYq7FXYq7FXYq7FXYq7FXYqtliilQxyoHQ9VYVGKoM6HpJNfq6/e39cVd+&#xA;gtJ/5Zx97f1xVadA0g9bcfQzj9RxVr/D2j/8s/8Aw7/81Yq7/D2j/wDLP/w7/wDNWKoy2tLa1j9O&#xA;CMRr1IHf5k7nFVXFXYq7FXYq7FXYq7FXYq7FXYq7FXYq7FXYq7FXYq7FXYq7FXYq7FXYq7FXYq7F&#xA;XYq7FXYq7FXYq7FXYq7FXYq7FXYq7FXYq7FXYq7FXYq7FXYq7FXYq7FXYq7FXYq7FXYq7FXYq7FX&#xA;Yq7FXYq7FXYq7FXYq7FUr1vWTYBY4lDTuK/F0VelcVSX/E2qfzJ/wIxV3+JtU/mT/gRirv8AE2qf&#xA;zJ/wIxV3+JtU/mT/AIEYq7/E2qfzJ/wIxV3+JtU/mT/gRirv8Tap/Mn/AAIxV3+JtU/mT/gRirv8&#xA;Tap/Mn/AjFXf4m1T+ZP+BGKu/wATap/Mn/AjFXf4m1T+ZP8AgRirv8Tap/Mn/AjFXf4m1T+ZP+BG&#xA;Ku/xNqn8yf8AAjFXf4m1T+ZP+BGKu/xNqn8yf8CMVd/ibVP5k/4EYq7/ABNqn8yf8CMVd/ibVP5k&#xA;/wCBxVO9F1j6+jJIoWePcgdCD3GKpnirsVdirE/NH/HSH/GNf1nFUnxV2KuxV2KuxV2KuxV2KuxV&#xA;2KuxV2KuxV2KuxV2KuxV2KuxV2Kp15U/46Mn/GE/8SXFWVYq7FXYqxPzR/x0h/xjX9ZxVJ8Vdirs&#xA;VdirsVdirsVdirsVdirsVdirsVdirsVdirsVdirsVdiqdeVP+OjJ/wAYW/4kuKsqxV2KuxVIPMum&#xA;TzOl1ApkovCRF3OxqDT6cVY/9WuP99P/AMCcVd9WuP8AfT/8CcVd9WuP99P/AMCcVd9WuP8AfT/8&#xA;CcVd9WuP99P/AMCcVd9WuP8AfT/8CcVd9WuP99P/AMCcVd9WuP8AfT/8CcVd9WuP99P/AMCcVd9W&#xA;uP8AfT/8CcVd9WuP99P/AMCcVd9WuP8AfT/8CcVd9WuP99P/AMCcVd9WuP8AfT/8CcVd9WuP99P/&#xA;AMCcVd9WuP8AfT/8CcVd9WuP99P/AMCcVd9WuP8AfT/8CcVd9WuP99P/AMCcVd9WuP8AfT/8CcVZ&#xA;F5a0yeAvczqULrwRDsaVqSR9GKp7irsVdirsVdirsVdirsVdirsVdirsVdirsVdirsVdirsVdirs&#xA;VdirsVdirsVdirsVdirsVUbu8trSL1J34L0Hck+wGKoD/E2l/wAz/wDA4q7/ABNpf8z/APA4q7/E&#xA;2l/zP/wOKu/xNpf8z/8AA4q7/E2l/wAz/wDA4q7/ABNpf8z/APA4q7/E2l/zP/wOKu/xNpf8z/8A&#xA;A4q7/E2l/wAz/wDA4q7/ABNpf8z/APA4q7/E2l/zP/wOKu/xNpf8z/8AA4q7/E2l/wAz/wDA4q7/&#xA;ABNpf8z/APA4q7/E2l/zP/wOKu/xNpf8z/8AA4q7/E2l/wAz/wDA4q7/ABNpf8z/APA4q7/E2l/z&#xA;P/wOKu/xNpf8z/8AA4qj7W7t7qL1YHDp0PYg+BBxVWxV2KuxVivmqRzfohPwpGCo9yTX9WKpLirs&#xA;VdirsVdirsVdirsVdirsVdirsVdirsVdirsVdirsVdirsVTzypI4vJo6/A0fIj3VgB/xLFWUYq7F&#xA;XYqxPzR/x0h/xjX9ZxVJ8VdirsVdirsVdirsVdirsVdirsVdirsVdirsVdirsVdirsVdiqdeVP8A&#xA;joyf8YW/4kuKsqxV2KuxVivmqJ1vo5CPgeMBT7qTUfjiqS4q7FXYq7FXYq7FXYq7FXYq7FXYq7FX&#xA;Yq7FXYq7FXYq7FXYq7FU88pxObyaWnwLHxJ92YEf8RxVlGKuxV2KqVzaW91F6c6B060PY+xGKoH/&#xA;AA5pP++j/wAE39cVd/hzSf8AfR/4Jv64q7/Dmk/76P8AwTf1xV3+HNJ/30f+Cb+uKu/w5pP++j/w&#xA;Tf1xV3+HNJ/30f8Agm/rirv8OaT/AL6P/BN/XFXf4c0n/fR/4Jv64q7/AA5pP++j/wAE39cVd/hz&#xA;Sf8AfR/4Jv64q7/Dmk/76P8AwTf1xV3+HNJ/30f+Cb+uKu/w5pP++j/wTf1xV3+HNJ/30f8Agm/r&#xA;irv8OaT/AL6P/BN/XFXf4c0n/fR/4Jv64q7/AA5pP++j/wAE39cVd/hzSf8AfR/4Jv64q7/Dmk/7&#xA;6P8AwTf1xV3+HNJ/30f+Cb+uKo62tYLaIRQIEQb0Hj7k4qq4q7FXYq7FXYq7FXYq7FXYq7FXYq7F&#xA;XYq7FXYq7FXYq7FXYq7FXYq7FXYq7FXYq7FXYq7FWP8AmbUp4pEtIWKArzkZdiakgCv0Yqx71ZP5&#xA;2+84q71ZP5z95xV3qyfzn7zirvVk/nP3nFXerJ/OfvOKu9WT+c/ecVd6sn85+84q71ZP5z95xV3q&#xA;yfzn7zirvVk/nP3nFXerJ/OfvOKu9WT+c/ecVd6sn85+84q71ZP5z95xV3qyfzn7zirvVk/nP3nF&#xA;XerJ/OfvOKu9WT+c/ecVd6sn85+84q71Zf52+84qyPyzqU8xktZmL8F5xsdyBUAiv04qn2KuxV2K&#xA;sT80f8dIf8Y1/WcVSfFXYq7FXYq7FXYq7FXYq7FXYq7FXYq7FXYq7FXYq7FXYq7FXYqnXlT/AI6M&#xA;n/GFv+JLirKsVdirsVYn5o/46Q/4xr+s4qk+KuxV2KuxV2KuxV2KuxV2KuxV2KuxV2KuxV2KuxV2&#xA;KuxV2KuxVOvKn/HQk/4wn/iS4qyrFXYq7FUs1rRvr6q8bBJ0FAT0I8DTFUm/wvqXjH/wR/pirv8A&#xA;C+peMf8AwR/pirv8L6l4x/8ABH+mKu/wvqXjH/wR/pirv8L6l4x/8Ef6Yq7/AAvqXjH/AMEf6Yq7&#xA;/C+peMf/AAR/pirv8L6l4x/8Ef6Yq7/C+peMf/BH+mKu/wAL6l4x/wDBH+mKu/wvqXjH/wAEf6Yq&#xA;7/C+peMf/BH+mKu/wvqXjH/wR/pirv8AC+peMf8AwR/pirv8L6l4x/8ABH+mKu/wvqXjH/wR/pir&#xA;v8L6l4x/8Ef6Yq7/AAvqXjH/AMEf6Yq7/C+peMf/AAR/pirv8L6l4x/8Ef6YqnWjaQLBGZ2DzyU5&#xA;EdAB2FcVTLFXYq7FXYq7FXYq7FXYq7FXYq7FXYq7FXYq7FXYq7FXYq7FXYq7FXYq7FXYq7FXYq7F&#xA;XYql+r6wmnooC+pM+6rWgAHc4qk/+LLz/fMf/Df1xV3+LLz/AHzH/wAN/XFXf4svP98x/wDDf1xV&#xA;3+LLz/fMf/Df1xV3+LLz/fMf/Df1xV3+LLz/AHzH/wAN/XFXf4svP98x/wDDf1xV3+LLz/fMf/Df&#xA;1xV3+LLz/fMf/Df1xV3+LLz/AHzH/wAN/XFXf4svP98x/wDDf1xV3+LLz/fMf/Df1xV3+LLz/fMf&#xA;/Df1xV3+LLz/AHzH/wAN/XFXf4svP98x/wDDf1xV3+LLz/fMf/Df1xV3+LLz/fMf/Df1xV3+LLz/&#xA;AHzH/wAN/XFXf4svP98x/wDDf1xV3+LLz/fMf/Df1xVOdJ1aPUI2+HhKn20rXY9CMVR+KuxV2KsT&#xA;80E/pJfaNf1nFUnxV2KuxV2KuxV2KuxV2KuxV2KuxV2KuxV2KuxV2KuxV2KuxV2Kp15UJ/SEg7ek&#xA;f+JLirKsVdirsVYn5o/46Q/4xr+s4qk+KuxV2KuxV2KuxV2KuxV2KuxV2KuxV2KuxV2KuxV2KuxV&#xA;2KuxVOvKn/HRk/4wt/xJcVZVirsVdirHPNFjMZUu0UtHx4SU7EEkE+2+KsexV2KuxV2KuxV2KuxV&#xA;2KuxV2KuxV2KuxV2KuxV2KuxV2KuxV2Ksj8rWMyNJdupVGXhHXvUgk/hir//2Q==</xmpGImg:image>
               </rdf:li>
            </rdf:Alt>
         </xmp:Thumbnails>
      </rdf:Description>
      <rdf:Description rdf:about=""
            xmlns:xmpMM="http://ns.adobe.com/xap/1.0/mm/"
            xmlns:stRef="http://ns.adobe.com/xap/1.0/sType/ResourceRef#"
            xmlns:stEvt="http://ns.adobe.com/xap/1.0/sType/ResourceEvent#">
         <xmpMM:InstanceID>xmp.iid:FA96297C4403E8119F989D9A49F981BF</xmpMM:InstanceID>
         <xmpMM:DocumentID>xmp.did:FA96297C4403E8119F989D9A49F981BF</xmpMM:DocumentID>
         <xmpMM:OriginalDocumentID>uuid:5D20892493BFDB11914A8590D31508C8</xmpMM:OriginalDocumentID>
         <xmpMM:RenditionClass>proof:pdf</xmpMM:RenditionClass>
         <xmpMM:DerivedFrom rdf:parseType="Resource">
            <stRef:instanceID>xmp.iid:F996297C4403E8119F989D9A49F981BF</stRef:instanceID>
            <stRef:documentID>xmp.did:F996297C4403E8119F989D9A49F981BF</stRef:documentID>
            <stRef:originalDocumentID>uuid:5D20892493BFDB11914A8590D31508C8</stRef:originalDocumentID>
            <stRef:renditionClass>proof:pdf</stRef:renditionClass>
         </xmpMM:DerivedFrom>
         <xmpMM:History>
            <rdf:Seq>
               <rdf:li rdf:parseType="Resource">
                  <stEvt:action>saved</stEvt:action>
                  <stEvt:instanceID>xmp.iid:F496297C4403E8119F989D9A49F981BF</stEvt:instanceID>
                  <stEvt:when>2018-01-27T12:28:51+03:00</stEvt:when>
                  <stEvt:softwareAgent>Adobe Illustrator CS6 (Windows)</stEvt:softwareAgent>
                  <stEvt:changed>/</stEvt:changed>
               </rdf:li>
               <rdf:li rdf:parseType="Resource">
                  <stEvt:action>saved</stEvt:action>
                  <stEvt:instanceID>xmp.iid:FA96297C4403E8119F989D9A49F981BF</stEvt:instanceID>
                  <stEvt:when>2018-01-27T13:42:56+03:00</stEvt:when>
                  <stEvt:softwareAgent>Adobe Illustrator CS6 (Windows)</stEvt:softwareAgent>
                  <stEvt:changed>/</stEvt:changed>
               </rdf:li>
            </rdf:Seq>
         </xmpMM:History>
      </rdf:Description>
      <rdf:Description rdf:about=""
            xmlns:illustrator="http://ns.adobe.com/illustrator/1.0/">
         <illustrator:StartupProfile>Print</illustrator:StartupProfile>
      </rdf:Description>
      <rdf:Description rdf:about=""
            xmlns:xmpTPg="http://ns.adobe.com/xap/1.0/t/pg/"
            xmlns:stDim="http://ns.adobe.com/xap/1.0/sType/Dimensions#"
            xmlns:xmpG="http://ns.adobe.com/xap/1.0/g/">
         <xmpTPg:HasVisibleOverprint>False</xmpTPg:HasVisibleOverprint>
         <xmpTPg:HasVisibleTransparency>False</xmpTPg:HasVisibleTransparency>
         <xmpTPg:NPages>1</xmpTPg:NPages>
         <xmpTPg:MaxPageSize rdf:parseType="Resource">
            <stDim:w>1000.000000</stDim:w>
            <stDim:h>1000.000000</stDim:h>
            <stDim:unit>Pixels</stDim:unit>
         </xmpTPg:MaxPageSize>
         <xmpTPg:PlateNames>
            <rdf:Seq>
               <rdf:li>Cyan</rdf:li>
               <rdf:li>Magenta</rdf:li>
               <rdf:li>Yellow</rdf:li>
            </rdf:Seq>
         </xmpTPg:PlateNames>
         <xmpTPg:SwatchGroups>
            <rdf:Seq>
               <rdf:li rdf:parseType="Resource">
                  <xmpG:groupName>Default Swatch Group</xmpG:groupName>
                  <xmpG:groupType>0</xmpG:groupType>
               </rdf:li>
            </rdf:Seq>
         </xmpTPg:SwatchGroups>
      </rdf:Description>
      <rdf:Description rdf:about=""
            xmlns:pdf="http://ns.adobe.com/pdf/1.3/">
         <pdf:Producer>Adobe PDF library 10.01</pdf:Producer>
      </rdf:Description>
   </rdf:RDF>
</x:xmpmeta>
                                                                                                    
                                                                                                    
                                                                                                    
                                                                                                    
                                                                                                    
                                                                                                    
                                                                                                    
                                                                                                    
                                                                                                    
                                                                                                    
                                                                                                    
                                                                                                    
                                                                                                    
                                                                                                    
                                                                                                    
                                                                                                    
                                                                                                    
                                                                                                    
                                                                                                    
                                                                                                    
                           
<?xpacket end="w"?>
	</metadata>
<g>
	<path fill="#CCCCCC" d="M205.372,170.616l104.297,1.381c7.275,0.289,13.373,2.955,18.285,8c5.01,5.146,7.459,11.837,7.35,20.071
		l73.556,0.974l0.479-36.204c0.034-2.679,1.021-4.965,2.962-6.857c1.94-1.889,4.252-2.814,6.934-2.782
		c-0.383-0.002-1.556,0.003-3.519,0.024c-1.963,0.023-3.187-0.016-3.664-0.119c-0.479-0.101-1.507-0.188-3.086-0.257
		c-1.579-0.066-2.702-0.249-3.37-0.548c-0.667-0.293-1.596-0.665-2.787-1.114c-1.191-0.446-2.236-0.986-3.139-1.623
		c-0.902-0.634-1.825-1.437-2.771-2.408c-3.589-3.686-5.446-8.309-5.563-13.867c0.007-0.574-0.043-2.228-0.15-4.958
		c-0.106-2.733-0.155-4.624-0.142-5.678c0.015-1.051,0.134-2.725,0.356-5.025c0.221-2.293,0.556-4.087,1.003-5.375
		c0.449-1.287,1.09-2.762,1.927-4.429c0.836-1.664,1.886-3.11,3.147-4.341c3.88-3.779,8.505-5.632,13.867-5.564l117.228,1.553
		c5.361,0.073,9.936,2.048,13.716,5.93c1.229,1.26,2.237,2.736,3.028,4.422c0.793,1.686,1.396,3.18,1.81,4.478s0.701,3.1,0.864,5.4
		c0.158,2.302,0.232,3.98,0.22,5.031c-0.014,1.054-0.112,2.943-0.292,5.671c-0.179,2.729-0.273,4.379-0.28,4.954
		c-0.264,5.554-2.243,10.126-5.931,13.716c-0.97,0.945-1.914,1.724-2.831,2.333c-0.921,0.612-1.979,1.126-3.183,1.539
		c-1.201,0.417-2.14,0.765-2.813,1.041c-0.677,0.28-1.803,0.434-3.384,0.458c-1.581,0.028-2.61,0.086-3.093,0.174
		c-0.479,0.09-1.703,0.099-3.664,0.024c-1.962-0.072-3.136-0.111-3.519-0.119c2.683,0.039,4.969,1.026,6.859,2.966
		c1.891,1.942,2.816,4.253,2.781,6.933l-1.323,99.989c-0.037,2.683-1.024,4.967-2.965,6.856c-1.943,1.892-4.252,2.82-6.935,2.782
		c0.385,0.007,1.558-0.002,3.521-0.025c1.965-0.021,3.183,0.021,3.663,0.121c0.475,0.103,1.505,0.191,3.085,0.255
		c1.58,0.071,2.702,0.255,3.369,0.548c0.667,0.298,1.598,0.67,2.787,1.114c1.191,0.45,2.238,0.989,3.139,1.623
		c0.904,0.636,1.828,1.437,2.771,2.406c3.593,3.69,5.445,8.313,5.565,13.869c-0.009,0.574,0.042,2.228,0.149,4.959
		c0.107,2.731,0.153,4.627,0.141,5.677c-0.015,1.054-0.134,2.73-0.355,5.024c-0.221,2.298-0.557,4.087-1.005,5.375
		c-0.447,1.289-1.092,2.765-1.926,4.428c-0.837,1.667-1.887,3.114-3.146,4.341c-3.883,3.781-8.506,5.638-13.868,5.564
		l-117.226-1.552c-5.363-0.069-9.934-2.047-13.716-5.928c-1.227-1.26-2.237-2.736-3.03-4.423c-0.791-1.687-1.394-3.18-1.807-4.479
		c-0.415-1.298-0.704-3.096-0.864-5.399c-0.16-2.299-0.233-3.978-0.221-5.033c0.015-1.049,0.111-2.943,0.291-5.671
		c0.18-2.728,0.274-4.379,0.28-4.953c0.268-5.551,2.241-10.123,5.929-13.715c0.969-0.945,1.914-1.722,2.833-2.334
		c0.918-0.609,1.98-1.12,3.182-1.538c1.202-0.414,2.141-0.76,2.815-1.041c0.675-0.277,1.803-0.43,3.383-0.458
		c1.581-0.023,2.613-0.084,3.093-0.175c0.481-0.087,1.701-0.096,3.662-0.023c1.962,0.076,3.136,0.117,3.521,0.119
		c-2.684-0.035-4.967-1.022-6.858-2.964c-1.891-1.941-2.819-4.25-2.782-6.935l0.479-36.203l-73.554-0.973
		c-0.11,8.237-2.736,14.86-7.88,19.869c-5.239,5.102-11.4,7.513-18.487,7.227l-104.443-1.239
		c-7.085-0.094-13.134-2.711-18.144-7.855c-4.914-5.044-7.418-11.211-7.515-18.492l0.553-30.885
		c0.095-7.086,2.713-13.136,7.854-18.144C191.925,173.218,198.091,170.713,205.372,170.616z"/>
</g>
<g>
	<path fill="#CCCCCC" d="M794.188,430.864v44.727c0,6.06-1.883,11.301-5.637,15.725c-3.76,4.428-8.211,6.638-13.352,6.638h-493.71
		c-5.146,0-9.596-2.21-13.352-6.638c-3.76-4.423-5.637-9.665-5.637-15.725v-44.727c0-6.056,1.877-11.297,5.637-15.725
		c3.755-4.422,8.206-6.639,13.352-6.639h493.71c5.141,0,9.592,2.217,13.352,6.639C792.305,419.567,794.188,424.809,794.188,430.864z
		 M794.188,565.046v44.727c0,6.061-1.883,11.303-5.637,15.725c-3.76,4.428-8.211,6.639-13.352,6.639h-493.71
		c-5.146,0-9.596-2.211-13.352-6.639c-3.76-4.422-5.637-9.664-5.637-15.725v-44.727c0-6.056,1.877-11.297,5.637-15.725
		c3.755-4.422,8.206-6.64,13.352-6.64h493.71c5.141,0,9.592,2.218,13.352,6.64C792.305,553.749,794.188,558.99,794.188,565.046z
		 M794.188,699.228v44.727c0,6.062-1.883,11.303-5.637,15.725c-3.76,4.429-8.211,6.64-13.352,6.64h-493.71
		c-5.146,0-9.596-2.211-13.352-6.64c-3.76-4.422-5.637-9.663-5.637-15.725v-44.727c0-6.056,1.877-11.297,5.637-15.725
		c3.755-4.423,8.206-6.639,13.352-6.639h493.71c5.141,0,9.592,2.216,13.352,6.639C792.305,687.931,794.188,693.172,794.188,699.228z
		 M794.188,833.408v44.728c0,6.062-1.883,11.303-5.637,15.725c-3.76,4.429-8.211,6.64-13.352,6.64h-493.71
		c-5.146,0-9.596-2.211-13.352-6.64c-3.76-4.422-5.637-9.663-5.637-15.725v-44.728c0-6.055,1.877-11.296,5.637-15.724
		c3.755-4.423,8.206-6.639,13.352-6.639h493.71c5.141,0,9.592,2.216,13.352,6.639C792.305,822.112,794.188,827.354,794.188,833.408z
		"/>
</g>
</svg>
