<?xml version="1.0" encoding="utf-8"?>
<!-- Generator: Adobe Illustrator 13.0.0, SVG Export Plug-In . SVG Version: 6.00 Build 14948)  -->
<!DOCTYPE svg PUBLIC "-//W3C//DTD SVG 1.1//EN" "http://www.w3.org/Graphics/SVG/1.1/DTD/svg11.dtd">
<svg version="1.1" id="Layer_1" xmlns="http://www.w3.org/2000/svg" xmlns:xlink="http://www.w3.org/1999/xlink" x="0px" y="0px"
	 width="950px" height="135.359px" viewBox="0 0 950 135.359" enable-background="new 0 0 950 135.359" xml:space="preserve">
<g>
	<g>
		<path fill="#42A0D3" d="M59.906,36.719l-25.648,8.547c-2.089,0.692-3.78,3.041-3.78,5.238v65.074
			c8.522-2.396,18.313-4.409,29.431-5.651V36.719H59.906z"/>
		<path fill="#42A0D3" d="M132.198,113.697V67.433c0-1.493-1.316-3.091-2.943-3.563l-19.166-5.583v51.639
			C118.149,110.831,125.509,112.134,132.198,113.697z"/>
		<path fill="#293B8F" d="M84.997,108.563c9.021,0,17.374,0.498,25.09,1.363V58.29V11.078c0,0-5.023-8.243-25.09-8.243
			c-20.073,0-25.092,8.243-25.092,8.243v25.642v73.208C67.625,109.062,75.977,108.563,84.997,108.563z"/>
		<path fill="#155B8D" d="M132.198,110.862c-6.688-1.563-14.049-2.866-22.109-3.771c-7.716-0.864-16.069-1.362-25.09-1.362
			s-17.372,0.498-25.091,1.361c-11.118,1.243-20.907,3.258-29.431,5.652C17.428,116.415,7.343,120.986,0,125.093
			c22.145-4.551,52.051-7.338,84.997-7.338c32.945,0,62.853,2.787,84.995,7.338C161.332,120.246,148.856,114.759,132.198,110.862z"
			/>
	</g>
	<g>
		<path fill="#42A0D3" d="M239.587,76.185c-0.482,10.9-3.546,19.154-9.193,24.76c-5.647,5.604-13.619,8.407-23.907,8.407
			c-10.814,0-19.099-3.56-24.855-10.675c-5.758-7.112-8.638-17.264-8.638-30.439v-16.09c0-13.137,2.979-23.26,8.933-30.377
			c5.953-7.114,14.229-10.672,24.824-10.672c10.419,0,18.334,2.911,23.743,8.734c5.406,5.823,8.48,14.188,9.228,25.089h-19.375
			c-0.177-6.741-1.217-11.396-3.119-13.958c-1.907-2.562-5.397-3.843-10.477-3.843c-5.167,0-8.821,1.809-10.969,5.418
			c-2.144,3.613-3.282,9.56-3.413,17.833v18.063c0,9.502,1.063,16.023,3.187,19.569c2.122,3.548,5.766,5.319,10.933,5.319
			c5.078,0,8.581-1.235,10.509-3.711c1.926-2.472,3.021-6.948,3.283-13.43L239.587,76.185L239.587,76.185z"/>
		<path fill="#42A0D3" d="M299.026,52.277h-18.258v55.76h-18.584v-55.76h-18.127v-15.3h54.97L299.026,52.277L299.026,52.277z"/>
		<path fill="#42A0D3" d="M361.618,74.741c0,11.163-1.915,19.724-5.745,25.68c-3.833,5.953-9.535,8.933-17.108,8.933
			c-5.78,0-10.422-2.343-13.925-7.027v33.035h-18.586V36.977h17.208l0.655,6.5c3.547-5.209,8.387-7.814,14.516-7.814
			c7.574,0,13.276,2.759,17.109,8.275c3.83,5.517,5.79,13.968,5.876,25.35V74.741L361.618,74.741z M343.099,70.077
			c0-6.875-0.754-11.732-2.269-14.581c-1.509-2.846-4.062-4.269-7.648-4.269c-3.812,0-6.589,1.6-8.343,4.795v33.297
			c1.664,3.065,4.487,4.598,8.473,4.598c3.678,0,6.228-1.554,7.65-4.662c1.424-3.106,2.136-7.946,2.136-14.514L343.099,70.077
			L343.099,70.077z"/>
		<path fill="#42A0D3" d="M370.683,70.208c0-10.77,2.54-19.221,7.618-25.351c5.078-6.129,12.104-9.195,21.083-9.195
			c9.063,0,16.135,3.066,21.213,9.195c5.079,6.13,7.619,14.624,7.619,25.479v4.531c0,10.816-2.521,19.27-7.555,25.354
			c-5.035,6.085-12.084,9.129-21.146,9.129c-9.107,0-16.188-3.058-21.247-9.162c-5.056-6.108-7.584-14.59-7.584-25.448
			L370.683,70.208L370.683,70.208z M389.334,74.87c0,12.699,3.395,19.047,10.182,19.047c6.261,0,9.632-5.297,10.113-15.894
			l0.065-7.815c0-6.479-0.897-11.285-2.691-14.417c-1.796-3.128-4.334-4.693-7.618-4.693c-3.152,0-5.616,1.565-7.39,4.693
			c-1.773,3.132-2.661,7.938-2.661,14.417V74.87L389.334,74.87z"/>
		<path fill="#42A0D3" d="M469.347,37.027h18.521v71.063h-18.521V64.415l-16.551,43.675h-18.651V37.027h18.651v43.607
			L469.347,37.027z M484.44,10.804c0,5.823-2.09,10.53-6.273,14.118c-4.182,3.593-9.686,5.39-16.517,5.39
			c-6.874,0-12.401-1.797-16.583-5.39c-4.183-3.588-6.271-8.295-6.271-14.118h13.596c0,2.717,0.82,4.824,2.463,6.338
			c1.641,1.511,3.908,2.266,6.796,2.266c2.846,0,5.079-0.755,6.699-2.266c1.622-1.514,2.43-3.621,2.43-6.338H484.44L484.44,10.804z"
			/>
		<path fill="#293B8F" d="M534.142,76.185c0.307,5.689,1.499,9.992,3.58,12.903c2.079,2.912,5.481,4.367,10.212,4.367
			c5.036,0,8.659-2.112,10.871-6.338c2.211-4.226,3.467-10.497,3.777-18.815h-23.318v-16.09h23.249
			c-0.351-8.448-1.747-14.731-4.202-18.85c-2.45-4.114-5.997-6.173-10.639-6.173c-4.512,0-7.827,1.355-9.95,4.07
			c-2.124,2.717-3.34,7.289-3.646,13.729h-19.377c0.877-10.684,4.185-19.003,9.919-24.958c5.733-5.953,13.421-8.933,23.054-8.933
			c10.421,0,18.738,4.183,24.956,12.544c6.218,8.362,9.325,19.749,9.325,34.151v5.648c0,14.186-3.03,25.382-9.096,33.592
			c-6.063,8.209-14.373,12.315-24.926,12.315c-9.853,0-17.688-2.991-23.512-8.968c-5.822-5.977-9.021-14.043-9.592-24.199h19.313
			L534.142,76.185L534.142,76.185z"/>
		<path fill="#293B8F" d="M613.093,81.965h-4.859v26.072h-18.521v-71.06h18.521v26.662h4.599l10.771-26.662h23.313L628.2,69.748
			l20.161,38.289h-24.628L613.093,81.965z"/>
		<path fill="#293B8F" d="M675.266,93.917c5.384,0,8.119-3.503,8.207-10.508h17.47c-0.088,7.749-2.475,14.012-7.156,18.783
			c-4.688,4.772-10.728,7.159-18.127,7.159c-9.15,0-16.136-2.848-20.953-8.539c-4.815-5.689-7.267-14.075-7.354-25.154V70.01
			c0-11.163,2.375-19.68,7.129-25.548c4.748-5.863,11.765-8.801,21.048-8.801c7.836,0,14.009,2.42,18.521,7.256
			c4.509,4.84,6.807,11.704,6.895,20.593h-17.47c-0.043-3.983-0.698-7.051-1.97-9.194c-1.271-2.146-3.374-3.219-6.308-3.219
			c-3.239,0-5.559,1.147-6.962,3.445c-1.4,2.3-2.144,6.756-2.23,13.367v7.223c0,5.779,0.281,9.819,0.854,12.117
			c0.567,2.298,1.51,3.984,2.821,5.06C670.995,93.381,672.855,93.917,675.266,93.917z"/>
		<path fill="#293B8F" d="M762.42,108.037h-18.59V52.476h-16.48v55.562h-18.652V36.977h53.725L762.42,108.037L762.42,108.037z"/>
		<path fill="#293B8F" d="M801.962,109.352c-9.548,0-16.991-2.848-22.33-8.539c-5.345-5.689-8.014-13.834-8.014-24.432v-5.646
			c0-11.209,2.448-19.856,7.356-25.943c4.898-6.085,11.928-9.129,21.079-9.129c8.932,0,15.65,2.856,20.164,8.57
			c4.509,5.715,6.807,14.177,6.895,25.385v9.129h-36.975c0.263,5.254,1.421,9.094,3.479,11.524c2.063,2.43,5.233,3.646,9.525,3.646
			c6.218,0,11.403-2.122,15.563-6.369l7.294,11.229c-2.279,3.153-5.586,5.703-9.921,7.647
			C811.745,108.376,807.036,109.352,801.962,109.352z M790.27,65.741h18.586v-1.707c-0.09-4.245-0.788-7.463-2.104-9.653
			c-1.313-2.188-3.59-3.283-6.829-3.283c-3.242,0-5.591,1.158-7.059,3.479C791.396,56.9,790.532,60.619,790.27,65.741z"/>
		<path fill="#293B8F" d="M890.299,74.741c0,11.163-1.913,19.724-5.745,25.68c-3.834,5.953-9.534,8.933-17.11,8.933
			c-5.78,0-10.42-2.343-13.924-7.027v33.035h-18.584V36.977h17.207l0.657,6.5c3.546-5.209,8.38-7.814,14.513-7.814
			c7.576,0,13.276,2.759,17.111,8.275c3.828,5.517,5.784,13.968,5.875,25.35V74.741L890.299,74.741z M871.777,70.077
			c0-6.875-0.753-11.732-2.265-14.581c-1.509-2.846-4.063-4.269-7.649-4.269c-3.812,0-6.594,1.6-8.345,4.795v33.297
			c1.666,3.065,4.488,4.598,8.475,4.598c3.68,0,6.229-1.554,7.649-4.662c1.424-3.106,2.135-7.946,2.135-14.514V70.077z"/>
		<path fill="#293B8F" d="M950,52.277h-18.26v55.76h-18.589v-55.76h-18.125v-15.3H950V52.277z"/>
	</g>
</g>
</svg>
