<?xml version="1.0" encoding="utf-8"?>
<!-- Generator: Adobe Illustrator 13.0.0, SVG Export Plug-In . SVG Version: 6.00 Build 14948)  -->
<!DOCTYPE svg PUBLIC "-//W3C//DTD SVG 1.1//EN" "http://www.w3.org/Graphics/SVG/1.1/DTD/svg11.dtd">
<svg version="1.1" id="Layer_1" xmlns="http://www.w3.org/2000/svg" xmlns:xlink="http://www.w3.org/1999/xlink" x="0px" y="0px"
	 width="950px" height="132.525px" viewBox="0 0 950 132.525" enable-background="new 0 0 950 132.525" xml:space="preserve">
<g>
	<path fill="#FFFFFF" d="M132.198,108.028c-0.064-0.016-0.132-0.029-0.197-0.045V64.599c0-1.493-1.307-3.091-2.934-3.562L110,55.48
		v-0.025V8.243c0,0-4.935-8.243-25-8.243C64.927,0,60,8.243,60,8.243v25.642v0.031l-25.888,8.516C32.023,43.125,30,45.472,30,47.671
		v62.239c4.089-1.089,8.396-2.093,12.897-2.986c-4.4,0.895-8.549,1.897-12.421,2.986C17.428,113.581,7.343,118.152,0,122.258
		c22.144-4.551,52.051-7.338,84.997-7.338c32.945,0,62.852,2.787,84.995,7.338C161.332,117.412,148.856,111.924,132.198,108.028z
		 M129.687,107.46c-3.855-0.842-7.935-1.592-12.224-2.232C121.853,105.869,126.05,106.619,129.687,107.46z"/>
	<g>
		<path fill="#FFFFFF" d="M239.587,73.35c-0.483,10.901-3.546,19.155-9.194,24.76c-5.647,5.604-13.619,8.407-23.907,8.407
			c-10.814,0-19.099-3.559-24.855-10.675c-5.758-7.112-8.638-17.263-8.638-30.439v-16.09c0-13.137,2.978-23.261,8.933-30.377
			c5.953-7.114,14.228-10.672,24.824-10.672c10.419,0,18.334,2.911,23.743,8.735c5.406,5.823,8.48,14.187,9.227,25.089h-19.375
			c-0.176-6.742-1.216-11.396-3.119-13.958c-1.907-2.562-5.397-3.843-10.476-3.843c-5.167,0-8.822,1.807-10.969,5.418
			c-2.144,3.613-3.282,9.559-3.413,17.833V65.6c0,9.502,1.062,16.024,3.186,19.57c2.123,3.547,5.766,5.319,10.933,5.319
			c5.078,0,8.581-1.235,10.509-3.711c1.926-2.472,3.021-6.948,3.283-13.43L239.587,73.35L239.587,73.35z"/>
		<path fill="#FFFFFF" d="M299.026,49.443h-18.258v55.76h-18.584v-55.76h-18.127V34.142h54.97L299.026,49.443L299.026,49.443z"/>
		<path fill="#FFFFFF" d="M361.618,71.907c0,11.163-1.915,19.724-5.745,25.68c-3.833,5.953-9.535,8.932-17.109,8.932
			c-5.78,0-10.421-2.343-13.924-7.027v33.035h-18.586V34.142h17.208l0.655,6.5c3.547-5.209,8.387-7.814,14.516-7.814
			c7.573,0,13.276,2.759,17.109,8.275c3.83,5.517,5.79,13.968,5.876,25.35V71.907z M343.099,67.243
			c0-6.875-0.754-11.733-2.268-14.581c-1.509-2.846-4.062-4.269-7.649-4.269c-3.811,0-6.589,1.6-8.342,4.795v33.297
			c1.664,3.065,4.487,4.598,8.472,4.598c3.678,0,6.228-1.554,7.651-4.662c1.423-3.107,2.135-7.947,2.135-14.514L343.099,67.243
			L343.099,67.243z"/>
		<path fill="#FFFFFF" d="M370.683,67.374c0-10.77,2.54-19.221,7.618-25.351c5.079-6.129,12.105-9.195,21.083-9.195
			c9.063,0,16.135,3.066,21.213,9.195c5.079,6.13,7.619,14.624,7.619,25.48v4.531c0,10.816-2.52,19.268-7.554,25.354
			c-5.035,6.085-12.084,9.129-21.147,9.129c-9.107,0-16.188-3.057-21.247-9.162c-5.055-6.108-7.584-14.59-7.584-25.448
			L370.683,67.374L370.683,67.374z M389.334,72.036c0,12.699,3.394,19.047,10.181,19.047c6.261,0,9.632-5.297,10.114-15.894
			l0.065-7.815c0-6.479-0.897-11.285-2.691-14.417c-1.796-3.128-4.334-4.694-7.619-4.694c-3.152,0-5.616,1.566-7.389,4.694
			c-1.774,3.132-2.66,7.938-2.66,14.417L389.334,72.036L389.334,72.036z"/>
		<path fill="#FFFFFF" d="M469.347,34.193h18.521v71.063h-18.521V61.581l-16.551,43.675h-18.651V34.193h18.651v43.607
			L469.347,34.193z M484.44,7.969c0,5.825-2.09,10.532-6.273,14.12c-4.182,3.592-9.686,5.389-16.517,5.389
			c-6.874,0-12.401-1.797-16.583-5.389c-4.183-3.588-6.271-8.295-6.271-14.12h13.596c0,2.718,0.82,4.826,2.463,6.339
			c1.641,1.511,3.908,2.266,6.796,2.266c2.846,0,5.079-0.755,6.699-2.266c1.622-1.513,2.43-3.621,2.43-6.339H484.44z"/>
		<path fill="#FFFFFF" d="M534.142,73.35c0.307,5.69,1.499,9.992,3.58,12.904c2.079,2.912,5.482,4.367,10.212,4.367
			c5.036,0,8.659-2.113,10.871-6.338c2.211-4.226,3.467-10.497,3.777-18.816h-23.318v-16.09h23.249
			c-0.349-8.45-1.747-14.732-4.202-18.85c-2.45-4.114-5.997-6.173-10.639-6.173c-4.511,0-7.827,1.356-9.95,4.07
			c-2.124,2.717-3.34,7.29-3.645,13.729H514.7c0.877-10.685,4.184-19.003,9.919-24.958c5.733-5.953,13.42-8.933,23.053-8.933
			c10.421,0,18.739,4.183,24.956,12.544c6.218,8.363,9.327,19.749,9.327,34.152v5.648c0,14.186-3.032,25.382-9.097,33.592
			c-6.063,8.209-14.373,12.315-24.926,12.315c-9.853,0-17.688-2.991-23.512-8.967c-5.822-5.977-9.02-14.043-9.591-24.2h19.312V73.35
			z"/>
		<path fill="#FFFFFF" d="M613.092,79.13h-4.859v26.072h-18.521v-71.06h18.521v26.662h4.599l10.771-26.662h23.313l-18.716,32.771
			l20.161,38.289h-24.628L613.092,79.13z"/>
		<path fill="#FFFFFF" d="M675.266,91.083c5.384,0,8.119-3.503,8.207-10.508h17.47c-0.088,7.749-2.475,14.012-7.156,18.783
			c-4.688,4.773-10.728,7.159-18.127,7.159c-9.151,0-16.136-2.847-20.953-8.539c-4.816-5.689-7.267-14.075-7.354-25.154v-5.648
			c0-11.164,2.375-19.679,7.129-25.547c4.748-5.864,11.765-8.801,21.048-8.801c7.836,0,14.009,2.42,18.521,7.256
			c4.509,4.84,6.807,11.704,6.895,20.592h-17.47c-0.043-3.983-0.698-7.05-1.97-9.194c-1.271-2.146-3.374-3.22-6.307-3.22
			c-3.239,0-5.559,1.149-6.962,3.447c-1.401,2.3-2.144,6.756-2.231,13.367v7.223c0,5.779,0.282,9.819,0.854,12.117
			c0.567,2.298,1.51,3.984,2.821,5.059C670.995,90.546,672.855,91.083,675.266,91.083z"/>
		<path fill="#FFFFFF" d="M762.419,105.203H743.83V49.641h-16.481v55.562h-18.652V34.142h53.724L762.419,105.203L762.419,105.203z"
			/>
		<path fill="#FFFFFF" d="M801.961,106.517c-9.547,0-16.991-2.847-22.33-8.539c-5.344-5.689-8.013-13.834-8.013-24.431V67.9
			c0-11.209,2.448-19.856,7.356-25.943c4.9-6.085,11.928-9.129,21.079-9.129c8.932,0,15.651,2.856,20.164,8.57
			c4.509,5.715,6.807,14.177,6.895,25.385v9.129h-36.975c0.263,5.254,1.421,9.094,3.479,11.524c2.062,2.43,5.233,3.646,9.525,3.646
			c6.218,0,11.403-2.122,15.563-6.369l7.294,11.229c-2.28,3.152-5.586,5.703-9.921,7.648
			C811.745,105.542,807.036,106.517,801.961,106.517z M790.27,62.907h18.586V61.2c-0.09-4.245-0.788-7.463-2.104-9.653
			c-1.313-2.189-3.589-3.284-6.829-3.284c-3.242,0-5.591,1.159-7.058,3.479C791.396,54.066,790.532,57.785,790.27,62.907z"/>
		<path fill="#FFFFFF" d="M890.298,71.907c0,11.163-1.913,19.724-5.745,25.68c-3.834,5.953-9.534,8.932-17.11,8.932
			c-5.78,0-10.42-2.343-13.924-7.027v33.035h-18.584V34.142h17.207l0.657,6.5c3.546-5.209,8.38-7.814,14.513-7.814
			c7.576,0,13.276,2.759,17.111,8.275c3.829,5.517,5.784,13.968,5.875,25.35V71.907z M871.777,67.243
			c0-6.875-0.753-11.733-2.265-14.581c-1.509-2.846-4.063-4.269-7.649-4.269c-3.812,0-6.594,1.6-8.345,4.795v33.297
			c1.666,3.065,4.488,4.598,8.475,4.598c3.679,0,6.228-1.554,7.649-4.662c1.424-3.107,2.135-7.947,2.135-14.514V67.243z"/>
		<path fill="#FFFFFF" d="M950,49.443h-18.26v55.76h-18.589v-55.76h-18.125V34.142H950V49.443z"/>
	</g>
</g>
</svg>
