<?xml version="1.0" encoding="utf-8"?>
<!-- Generator: Adobe Illustrator 23.0.2, SVG Export Plug-In . SVG Version: 6.00 Build 0)  -->
<svg version="1.1" id="Layer_1" xmlns="http://www.w3.org/2000/svg" xmlns:xlink="http://www.w3.org/1999/xlink" x="0px" y="0px"
	 width="500px" height="363.3px" viewBox="0 0 500 363.3" style="enable-background:new 0 0 500 363.3;" xml:space="preserve">
<style type="text/css">
	.st0{fill:#42A0D3;}
	.st1{fill:#293B8F;}
	.st2{fill:#155B8D;}
</style>
<g>
	<path class="st0" d="M194.4,69.9l-52.9,17.6c-4.3,1.4-7.8,6.3-7.8,10.8v134.3c17.6-4.9,37.8-9.1,60.7-11.7L194.4,69.9L194.4,69.9z"
		/>
	<path class="st0" d="M343.6,228.8v-95.5c0-3.1-2.7-6.4-6.1-7.3L298,114.4V221C314.6,222.9,329.8,225.6,343.6,228.8z"/>
	<path class="st1" d="M246.2,218.2c18.6,0,35.9,1,51.8,2.8V114.4V17c0,0-10.4-17-51.8-17c-41.4,0-51.8,17-51.8,17v52.9V221
		C210.4,219.2,227.6,218.2,246.2,218.2z"/>
	<path class="st2" d="M343.6,227.9c-13.8-3.2-29-5.9-45.7-7.8c-15.9-1.8-33.2-2.8-51.8-2.8s-35.9,1-51.8,2.8
		c-22.9,2.6-43.1,6.7-60.7,11.6c-26.9,7.6-47.7,17-62.9,25.5c45.7-9.4,107.4-15.1,175.4-15.1c68,0,129.7,5.8,175.4,15.1
		C403.7,247.3,378,236,343.6,227.9z"/>
	<g>
		<path class="st0" d="M42.9,325.2c-0.3,7-2.3,12.3-5.9,15.9c-3.6,3.6-8.8,5.4-15.4,5.4c-7,0-12.3-2.3-16-6.9
			C1.9,335.1,0,328.6,0,320.1v-10.4c0-8.5,1.9-15,5.8-19.6c3.8-4.6,9.2-6.9,16-6.9c6.7,0,11.8,1.9,15.3,5.6
			c3.5,3.8,5.4,9.1,5.9,16.1H30.5c-0.1-4.3-0.8-7.3-2-9c-1.2-1.6-3.5-2.5-6.7-2.5c-3.3,0-5.7,1.2-7.1,3.5c-1.4,2.3-2.1,6.1-2.2,11.5
			v11.6c0,6.1,0.7,10.3,2.1,12.6c1.4,2.3,3.7,3.4,7,3.4c3.3,0,5.5-0.8,6.8-2.4c1.2-1.6,1.9-4.5,2.1-8.6L42.9,325.2L42.9,325.2z"/>
		<path class="st0" d="M81.1,309.8H69.4v35.9h-12v-35.9H45.7V300h35.4L81.1,309.8L81.1,309.8z"/>
		<path class="st0" d="M121.4,324.3c0,7.2-1.2,12.7-3.7,16.5c-2.5,3.8-6.1,5.7-11,5.7c-3.7,0-6.7-1.5-9-4.5v21.3h-12v-63.3h11.1
			l0.4,4.2c2.3-3.3,5.4-5,9.3-5c4.9,0,8.5,1.8,11,5.3c2.5,3.5,3.7,9,3.8,16.3L121.4,324.3L121.4,324.3z M109.5,321.3
			c0-4.4-0.5-7.5-1.5-9.4c-1-1.8-2.6-2.8-4.9-2.8c-2.5,0-4.2,1-5.4,3.1v21.4c1.1,1.9,2.9,3,5.5,3c2.4,0,4-1,4.9-3
			c0.9-2,1.4-5.1,1.4-9.3L109.5,321.3L109.5,321.3L109.5,321.3z"/>
		<path class="st0" d="M127.2,321.3c0-6.9,1.6-12.4,4.9-16.3c3.3-4,7.8-5.9,13.6-5.9c5.8,0,10.4,2,13.7,5.9c3.3,4,4.9,9.4,4.9,16.4
			v2.9c0,7-1.6,12.4-4.9,16.3c-3.2,3.9-7.8,5.9-13.6,5.9c-5.9,0-10.4-2-13.7-5.9c-3.3-3.9-4.9-9.4-4.9-16.4L127.2,321.3L127.2,321.3
			z M139.2,324.3c0,8.2,2.2,12.3,6.6,12.3c4,0,6.2-3.4,6.5-10.2l0-5c0-4.2-0.6-7.3-1.7-9.3c-1.2-2-2.8-3-4.9-3c-2,0-3.6,1-4.8,3
			c-1.1,2-1.7,5.1-1.7,9.3V324.3z"/>
		<path class="st0" d="M190.8,300h11.9v45.7h-11.9v-28.1l-10.6,28.1h-12V300h12V328L190.8,300z M200.4,281.4c0,3.8-1.3,6.8-4,9.1
			c-2.7,2.3-6.2,3.5-10.6,3.5c-4.4,0-8-1.2-10.7-3.5c-2.7-2.3-4-5.4-4-9.1h8.7c0,1.8,0.5,3.1,1.6,4.1c1.1,1,2.5,1.5,4.4,1.5
			c1.8,0,3.3-0.5,4.3-1.5c1-1,1.6-2.3,1.6-4.1H200.4z"/>
		<path class="st1" d="M232.4,325.2c0.2,3.7,1,6.4,2.3,8.3c1.3,1.9,3.5,2.8,6.6,2.8c3.2,0,5.6-1.4,7-4.1c1.4-2.7,2.2-6.8,2.4-12.1
			h-15v-10.4h15c-0.2-5.4-1.1-9.5-2.7-12.1c-1.6-2.6-3.9-4-6.9-4c-2.9,0-5,0.9-6.4,2.6c-1.4,1.8-2.1,4.7-2.3,8.9h-12.5
			c0.6-6.9,2.7-12.2,6.4-16.1c3.7-3.8,8.6-5.7,14.8-5.7c6.7,0,12.1,2.7,16.1,8.1c4,5.4,6,12.7,6,22v3.6c0,9.1-1.9,16.3-5.8,21.6
			c-3.9,5.3-9.3,7.9-16,7.9c-6.3,0-11.4-1.9-15.1-5.8c-3.8-3.8-5.8-9-6.2-15.6L232.4,325.2L232.4,325.2L232.4,325.2z"/>
		<path class="st1" d="M283.2,328.9h-3.1v16.8h-11.9V300h11.9v17.2h3L290,300h15l-12,21.1l13,24.6h-15.8L283.2,328.9z"/>
		<path class="st1" d="M323.2,336.6c3.5,0,5.2-2.3,5.3-6.8h11.3c-0.1,5-1.6,9-4.6,12.1c-3,3.1-6.9,4.6-11.7,4.6
			c-5.9,0-10.4-1.8-13.4-5.5c-3.1-3.7-4.7-9.1-4.7-16.2v-3.7c0-7.2,1.6-12.7,4.6-16.4c3-3.8,7.5-5.7,13.5-5.7c5,0,9,1.6,11.9,4.7
			c2.9,3.1,4.4,7.5,4.4,13.3h-11.3c0-2.6-0.5-4.5-1.2-5.9c-0.8-1.4-2.2-2.1-4-2.1c-2.1,0-3.6,0.7-4.5,2.2c-0.9,1.5-1.4,4.3-1.4,8.6
			v4.6c0,3.7,0.2,6.3,0.5,7.8c0.4,1.5,0.9,2.6,1.8,3.3C320.5,336.3,321.7,336.6,323.2,336.6z"/>
		<path class="st1" d="M379.3,345.7h-12v-35.8h-10.6v35.8h-12V300h34.5L379.3,345.7L379.3,345.7z"/>
		<path class="st1" d="M404.7,346.5c-6.1,0-10.9-1.8-14.4-5.5c-3.4-3.7-5.1-8.9-5.1-15.7v-3.6c0-7.2,1.6-12.8,4.7-16.7
			c3.1-3.9,7.7-5.9,13.6-5.9c5.7,0,10.1,1.8,13,5.5c2.9,3.7,4.4,9.1,4.4,16.3v5.9h-23.8c0.2,3.4,0.9,5.9,2.3,7.4
			c1.3,1.6,3.4,2.3,6.1,2.3c4,0,7.3-1.4,10-4.1l4.7,7.2c-1.5,2-3.6,3.6-6.4,4.9C411,345.9,408,346.5,404.7,346.5z M397.2,318.5h12
			v-1.1c-0.1-2.7-0.5-4.8-1.4-6.2c-0.9-1.4-2.3-2.1-4.4-2.1s-3.6,0.8-4.5,2.2C398,312.8,397.4,315.2,397.2,318.5z"/>
		<path class="st1" d="M461.6,324.3c0,7.2-1.2,12.7-3.7,16.5c-2.5,3.8-6.1,5.7-11,5.7c-3.7,0-6.7-1.5-8.9-4.5v21.3h-12v-63.3h11
			l0.4,4.2c2.3-3.3,5.4-5,9.3-5c4.9,0,8.5,1.8,11,5.3c2.5,3.5,3.7,9,3.8,16.3V324.3L461.6,324.3z M449.7,321.3
			c0-4.4-0.5-7.5-1.5-9.4c-1-1.8-2.6-2.8-4.9-2.8c-2.4,0-4.2,1-5.4,3.1v21.4c1.1,1.9,2.9,3,5.5,3c2.4,0,4-1,4.9-3
			c0.9-2,1.4-5.1,1.4-9.3L449.7,321.3L449.7,321.3z"/>
		<path class="st1" d="M500,309.8h-11.8v35.9h-12v-35.9h-11.7V300H500V309.8z"/>
	</g>
</g>
</svg>
