<?xml version="1.0" encoding="utf-8"?>
<!-- Generator: Adobe Illustrator 23.0.2, SVG Export Plug-In . SVG Version: 6.00 Build 0)  -->
<svg version="1.1" id="Layer_1" focusable="false" xmlns="http://www.w3.org/2000/svg" xmlns:xlink="http://www.w3.org/1999/xlink"
	 x="0px" y="0px" width="100px" height="87.8px" viewBox="0 0 100 87.8" style="enable-background:new 0 0 100 87.8;"
	 xml:space="preserve">
<style type="text/css">
	.st0{fill:#CCCCCC;}
</style>
<path class="st0" d="M90.6,0H9.4C4.4,0,0,4.4,0,9.4v68.9c0,5,4.4,9.4,9.4,9.4h81.1c5,0,9.4-4.4,9.4-9.4V9.4C100,4.4,95.6,0,90.6,0z
	 M74.4,56.7c1.1,1.1,1.1,2.2,0,3.3l-7.8,7.8c-1.1,1.1-2.2,1.1-3.3,0L50,55L37.2,68.3c-1.1,1.1-2.2,1.1-3.3,0l-7.8-7.8
	c-1.1-1.1-1.1-2.2,0-3.3l12.8-13.3L25.6,30.6c-1.1-1.1-1.1-2.2,0-3.3l7.8-7.8c1.1-1.1,2.2-1.1,3.3,0L50,32.8l12.8-13.3
	c1.1-1.1,2.2-1.1,3.3,0l7.8,7.8c1.1,1.1,1.1,2.2,0,3.3L61.1,43.9L74.4,56.7z"/>
</svg>
